<?xml version="1.0" encoding="UTF-8" standalone="no"?>
<svg width="170.039mm" height="56.0917mm"
 viewBox="0 0 482 159"
 xmlns="http://www.w3.org/2000/svg" xmlns:xlink="http://www.w3.org/1999/xlink"  version="1.2" baseProfile="tiny">
<title>Qt SVG Document</title>
<desc>MATLAB, The MathWorks, Inc. Version 25.2.0.3123386 R2025b Update 3</desc>
<defs>
</defs>
<g fill="none" stroke="black" stroke-width="1" fill-rule="evenodd" stroke-linecap="square" stroke-linejoin="bevel" >

<g fill="#ffffff" fill-opacity="1" stroke="none" transform="matrix(0.75,0,0,0.75,0,0)"
font-family="MS Shell Dlg 2" font-size="8.25" font-weight="400" font-style="normal" 
>
<path vector-effect="none" fill-rule="evenodd" d="M0,0 L644,0 L644,213 L0,213 L0,0"/>
</g>

<g fill="#ffffff" fill-opacity="1" stroke="none" transform="matrix(7.5e-05,0,0,7.5e-05,0,0)"
font-family="MS Shell Dlg 2" font-size="8.25" font-weight="400" font-style="normal" 
>
<path vector-effect="none" fill-rule="evenodd" d="M840000,370000 L840000,1.78e+06 L5.82e+06,1.78e+06 L5.82e+06,370000 L840000,370000"/>
</g>

<g fill="#212121" fill-opacity="0.14902" stroke="#212121" stroke-opacity="0.14902" stroke-width="0.666667" stroke-linecap="butt" stroke-linejoin="round" transform="matrix(0.75,0,0,0.75,0,0)"
font-family="MS Shell Dlg 2" font-size="8.25" font-weight="400" font-style="normal" 
>
<polyline fill="none" vector-effect="none" points="84,37 84,178 " />
<polyline fill="none" vector-effect="none" points="133.8,37 133.8,178 " />
<polyline fill="none" vector-effect="none" points="183.6,37 183.6,178 " />
<polyline fill="none" vector-effect="none" points="233.4,37 233.4,178 " />
<polyline fill="none" vector-effect="none" points="283.2,37 283.2,178 " />
<polyline fill="none" vector-effect="none" points="333,37 333,178 " />
<polyline fill="none" vector-effect="none" points="382.8,37 382.8,178 " />
<polyline fill="none" vector-effect="none" points="432.6,37 432.6,178 " />
<polyline fill="none" vector-effect="none" points="482.4,37 482.4,178 " />
<polyline fill="none" vector-effect="none" points="532.2,37 532.2,178 " />
<polyline fill="none" vector-effect="none" points="582,37 582,178 " />
</g>

<g fill="#212121" fill-opacity="0.14902" stroke="#212121" stroke-opacity="0.14902" stroke-dasharray="1,3" stroke-dashoffset="0" stroke-width="0.666667" stroke-linecap="butt" stroke-linejoin="round" transform="matrix(0.75,0,0,0.75,0,0)"
font-family="MS Shell Dlg 2" font-size="8.25" font-weight="400" font-style="normal" 
>
<polyline fill="none" vector-effect="none" points="93.96,37 93.96,178 " />
<polyline fill="none" vector-effect="none" points="103.92,37 103.92,178 " />
<polyline fill="none" vector-effect="none" points="113.88,37 113.88,178 " />
<polyline fill="none" vector-effect="none" points="123.84,37 123.84,178 " />
<polyline fill="none" vector-effect="none" points="143.76,37 143.76,178 " />
<polyline fill="none" vector-effect="none" points="153.72,37 153.72,178 " />
<polyline fill="none" vector-effect="none" points="163.68,37 163.68,178 " />
<polyline fill="none" vector-effect="none" points="173.64,37 173.64,178 " />
<polyline fill="none" vector-effect="none" points="193.56,37 193.56,178 " />
<polyline fill="none" vector-effect="none" points="203.52,37 203.52,178 " />
<polyline fill="none" vector-effect="none" points="213.48,37 213.48,178 " />
<polyline fill="none" vector-effect="none" points="223.44,37 223.44,178 " />
<polyline fill="none" vector-effect="none" points="243.36,37 243.36,178 " />
<polyline fill="none" vector-effect="none" points="253.32,37 253.32,178 " />
<polyline fill="none" vector-effect="none" points="263.28,37 263.28,178 " />
<polyline fill="none" vector-effect="none" points="273.24,37 273.24,178 " />
<polyline fill="none" vector-effect="none" points="293.16,37 293.16,178 " />
<polyline fill="none" vector-effect="none" points="303.12,37 303.12,178 " />
<polyline fill="none" vector-effect="none" points="313.08,37 313.08,178 " />
<polyline fill="none" vector-effect="none" points="323.04,37 323.04,178 " />
<polyline fill="none" vector-effect="none" points="342.96,37 342.96,178 " />
<polyline fill="none" vector-effect="none" points="352.92,37 352.92,178 " />
<polyline fill="none" vector-effect="none" points="362.88,37 362.88,178 " />
<polyline fill="none" vector-effect="none" points="372.84,37 372.84,178 " />
<polyline fill="none" vector-effect="none" points="392.76,37 392.76,178 " />
<polyline fill="none" vector-effect="none" points="402.72,37 402.72,178 " />
<polyline fill="none" vector-effect="none" points="412.68,37 412.68,178 " />
<polyline fill="none" vector-effect="none" points="422.64,37 422.64,178 " />
<polyline fill="none" vector-effect="none" points="442.56,37 442.56,178 " />
<polyline fill="none" vector-effect="none" points="452.52,37 452.52,178 " />
<polyline fill="none" vector-effect="none" points="462.48,37 462.48,178 " />
<polyline fill="none" vector-effect="none" points="472.44,37 472.44,178 " />
<polyline fill="none" vector-effect="none" points="492.36,37 492.36,178 " />
<polyline fill="none" vector-effect="none" points="502.32,37 502.32,178 " />
<polyline fill="none" vector-effect="none" points="512.28,37 512.28,178 " />
<polyline fill="none" vector-effect="none" points="522.24,37 522.24,178 " />
<polyline fill="none" vector-effect="none" points="542.16,37 542.16,178 " />
<polyline fill="none" vector-effect="none" points="552.12,37 552.12,178 " />
<polyline fill="none" vector-effect="none" points="562.08,37 562.08,178 " />
<polyline fill="none" vector-effect="none" points="572.04,37 572.04,178 " />
</g>

<g fill="#212121" fill-opacity="0.14902" stroke="#212121" stroke-opacity="0.14902" stroke-width="0.666667" stroke-linecap="butt" stroke-linejoin="round" transform="matrix(0.75,0,0,0.75,0,0)"
font-family="MS Shell Dlg 2" font-size="8.25" font-weight="400" font-style="normal" 
>
<polyline fill="none" vector-effect="none" points="84,178 582,178 " />
<polyline fill="none" vector-effect="none" points="84,131.1 582,131.1 " />
<polyline fill="none" vector-effect="none" points="84,84.1991 582,84.1991 " />
<polyline fill="none" vector-effect="none" points="84,37.2987 582,37.2987 " />
</g>

<g fill="#212121" fill-opacity="0.14902" stroke="#212121" stroke-opacity="0.14902" stroke-dasharray="1,3" stroke-dashoffset="0" stroke-width="0.666667" stroke-linecap="butt" stroke-linejoin="round" transform="matrix(0.75,0,0,0.75,0,0)"
font-family="MS Shell Dlg 2" font-size="8.25" font-weight="400" font-style="normal" 
>
<polyline fill="none" vector-effect="none" points="84,166.275 582,166.275 " />
<polyline fill="none" vector-effect="none" points="84,154.55 582,154.55 " />
<polyline fill="none" vector-effect="none" points="84,142.825 582,142.825 " />
<polyline fill="none" vector-effect="none" points="84,119.374 582,119.374 " />
<polyline fill="none" vector-effect="none" points="84,107.649 582,107.649 " />
<polyline fill="none" vector-effect="none" points="84,95.9242 582,95.9242 " />
<polyline fill="none" vector-effect="none" points="84,72.474 582,72.474 " />
<polyline fill="none" vector-effect="none" points="84,60.7489 582,60.7489 " />
<polyline fill="none" vector-effect="none" points="84,49.0238 582,49.0238 " />
</g>

<g fill="#212121" fill-opacity="1" stroke="none" transform="matrix(0.75,0,0,0.75,241.242,155.616)"
font-family="MS Shell Dlg 2" font-size="8.25" font-weight="400" font-style="normal" 
>
<path vector-effect="none" fill-rule="evenodd" d="M0.8125,-1.0625 C0.8125,-1.1875 0.822917,-1.30729 0.84375,-1.42188 L1.78125,-5.14063 L0.421875,-5.14063 C0.328125,-5.14063 0.28125,-5.19792 0.28125,-5.3125 C0.322917,-5.51042 0.380208,-5.60938 0.453125,-5.60938 L1.89063,-5.60938 L2.42188,-7.71875 C2.45313,-7.83333 2.52083,-7.93229 2.625,-8.01563 C2.72917,-8.09896 2.84375,-8.14063 2.96875,-8.14063 C3.07292,-8.14063 3.16406,-8.10677 3.24219,-8.03906 C3.32031,-7.97135 3.35938,-7.88542 3.35938,-7.78125 C3.35938,-7.75 3.35677,-7.72656 3.35156,-7.71094 C3.34635,-7.69531 3.34375,-7.68229 3.34375,-7.67188 L2.8125,-5.60938 L4.15625,-5.60938 C4.25,-5.60938 4.29688,-5.55208 4.29688,-5.4375 C4.28646,-5.41667 4.27604,-5.38021 4.26563,-5.32813 C4.25521,-5.27604 4.23958,-5.23177 4.21875,-5.19531 C4.19792,-5.15885 4.16667,-5.14063 4.125,-5.14063 L2.70313,-5.14063 L1.76563,-1.39063 C1.70313,-1.15104 1.67188,-0.942708 1.67188,-0.765625 C1.67188,-0.390625 1.80208,-0.203125 2.0625,-0.203125 C2.4375,-0.203125 2.77344,-0.382813 3.07031,-0.742188 C3.36719,-1.10156 3.59375,-1.49479 3.75,-1.92188 C3.78125,-1.96354 3.8125,-1.98438 3.84375,-1.98438 L4,-1.98438 C4.04167,-1.98438 4.07292,-1.97396 4.09375,-1.95313 C4.11458,-1.93229 4.125,-1.90625 4.125,-1.875 C4.125,-1.85417 4.11979,-1.84375 4.10938,-1.84375 C3.92188,-1.3125 3.64583,-0.848958 3.28125,-0.453125 C2.91667,-0.0572917 2.5,0.140625 2.03125,0.140625 C1.6875,0.140625 1.39844,0.0286458 1.16406,-0.195313 C0.929688,-0.419271 0.8125,-0.708333 0.8125,-1.0625 "/>
</g>

<g fill="#212121" fill-opacity="1" stroke="none" transform="matrix(0.75,0,0,0.75,248.117,155.616)"
font-family="MS Shell Dlg 2" font-size="8.25" font-weight="400" font-style="normal" 
>
<path vector-effect="none" fill-rule="evenodd" d="M1.53125,3.25 L1.53125,-9.75 L3.3125,-9.75 L3.3125,-9.23438 L2.0625,-9.23438 L2.0625,2.73438 L3.3125,2.73438 L3.3125,3.25 L1.53125,3.25"/>
</g>

<g fill="#212121" fill-opacity="1" stroke="none" transform="matrix(0.75,0,0,0.75,250.867,155.616)"
font-family="MS Shell Dlg 2" font-size="8.25" font-weight="400" font-style="normal" 
>
<path vector-effect="none" fill-rule="evenodd" d="M1.125,-0.796875 C1.36458,-0.401042 1.83333,-0.203125 2.53125,-0.203125 C2.83333,-0.203125 3.1224,-0.255208 3.39844,-0.359375 C3.67448,-0.463542 3.90365,-0.619792 4.08594,-0.828125 C4.26823,-1.03646 4.35938,-1.28646 4.35938,-1.57813 C4.35938,-1.80729 4.27865,-1.99219 4.11719,-2.13281 C3.95573,-2.27344 3.75521,-2.36979 3.51563,-2.42188 L2.8125,-2.5625 C2.5,-2.64583 2.23958,-2.79688 2.03125,-3.01563 C1.82292,-3.23438 1.71875,-3.5 1.71875,-3.8125 C1.71875,-4.19792 1.82292,-4.53906 2.03125,-4.83594 C2.23958,-5.13281 2.51563,-5.35938 2.85938,-5.51563 C3.20313,-5.67188 3.55729,-5.75 3.92188,-5.75 C4.31771,-5.75 4.67188,-5.65625 4.98438,-5.46875 C5.29688,-5.28125 5.45313,-5 5.45313,-4.625 C5.45313,-4.42708 5.39583,-4.2526 5.28125,-4.10156 C5.16667,-3.95052 5.01042,-3.875 4.8125,-3.875 C4.69792,-3.875 4.59896,-3.91146 4.51563,-3.98438 C4.43229,-4.05729 4.39063,-4.15104 4.39063,-4.26563 C4.39063,-4.36979 4.41927,-4.46875 4.47656,-4.5625 C4.53385,-4.65625 4.60938,-4.73177 4.70313,-4.78906 C4.79688,-4.84635 4.89583,-4.875 5,-4.875 C4.92708,-5.0625 4.78646,-5.19792 4.57813,-5.28125 C4.36979,-5.36458 4.14063,-5.40625 3.89063,-5.40625 C3.67188,-5.40625 3.45313,-5.36198 3.23438,-5.27344 C3.01563,-5.1849 2.83854,-5.05469 2.70313,-4.88281 C2.56771,-4.71094 2.5,-4.51042 2.5,-4.28125 C2.5,-4.125 2.55729,-3.98698 2.67188,-3.86719 C2.78646,-3.7474 2.92188,-3.66146 3.07813,-3.60938 L3.82813,-3.46875 C4.07813,-3.41667 4.30208,-3.32552 4.5,-3.19531 C4.69792,-3.0651 4.85417,-2.90104 4.96875,-2.70313 C5.08333,-2.50521 5.14063,-2.28125 5.14063,-2.03125 C5.14063,-1.70833 5.05208,-1.39063 4.875,-1.07813 C4.69792,-0.765625 4.47917,-0.515625 4.21875,-0.328125 C3.75,-0.015625 3.18229,0.140625 2.51563,0.140625 C2.05729,0.140625 1.63542,0.0364583 1.25,-0.171875 C0.864583,-0.380208 0.671875,-0.697917 0.671875,-1.125 C0.671875,-1.35417 0.739583,-1.55729 0.875,-1.73438 C1.01042,-1.91146 1.19792,-2 1.4375,-2 C1.58333,-2 1.70313,-1.95833 1.79688,-1.875 C1.89063,-1.79167 1.9375,-1.68229 1.9375,-1.54688 C1.9375,-1.34896 1.86198,-1.17448 1.71094,-1.02344 C1.5599,-0.872396 1.38542,-0.796875 1.1875,-0.796875 L1.125,-0.796875"/>
</g>

<g fill="#212121" fill-opacity="1" stroke="none" transform="matrix(0.75,0,0,0.75,255.508,155.616)"
font-family="MS Shell Dlg 2" font-size="8.25" font-weight="400" font-style="normal" 
>
<path vector-effect="none" fill-rule="evenodd" d="M0.28125,3.25 L0.28125,2.73438 L1.54688,2.73438 L1.54688,-9.23438 L0.28125,-9.23438 L0.28125,-9.75 L2.0625,-9.75 L2.0625,3.25 L0.28125,3.25"/>
</g>

<g fill="#212121" fill-opacity="1" stroke="#212121" stroke-opacity="1" stroke-width="0.666667" stroke-linecap="square" stroke-linejoin="round" transform="matrix(0.75,0,0,0.75,0,0)"
font-family="MS Shell Dlg 2" font-size="8.25" font-weight="400" font-style="normal" 
>
<polyline fill="none" vector-effect="none" points="84,178 582,178 " />
<polyline fill="none" vector-effect="none" points="84,178 84,173.02 " />
<polyline fill="none" vector-effect="none" points="133.8,178 133.8,173.02 " />
<polyline fill="none" vector-effect="none" points="183.6,178 183.6,173.02 " />
<polyline fill="none" vector-effect="none" points="233.4,178 233.4,173.02 " />
<polyline fill="none" vector-effect="none" points="283.2,178 283.2,173.02 " />
<polyline fill="none" vector-effect="none" points="333,178 333,173.02 " />
<polyline fill="none" vector-effect="none" points="382.8,178 382.8,173.02 " />
<polyline fill="none" vector-effect="none" points="432.6,178 432.6,173.02 " />
<polyline fill="none" vector-effect="none" points="482.4,178 482.4,173.02 " />
<polyline fill="none" vector-effect="none" points="532.2,178 532.2,173.02 " />
<polyline fill="none" vector-effect="none" points="582,178 582,173.02 " />
</g>

<g fill="#212121" fill-opacity="1" stroke="none" transform="matrix(0.75,0,0,0.75,60.375,144.55)"
font-family="MS Shell Dlg 2" font-size="8.25" font-weight="400" font-style="normal" 
>
<path vector-effect="none" fill-rule="evenodd" d="M0.5,-4.23438 C0.5,-5.25521 0.604167,-6.07552 0.8125,-6.69531 C1.02083,-7.3151 1.33073,-7.79167 1.74219,-8.125 C2.15365,-8.45833 2.67188,-8.625 3.29688,-8.625 C3.75521,-8.625 4.15885,-8.53125 4.50781,-8.34375 C4.85677,-8.15625 5.14583,-7.88802 5.375,-7.53906 C5.60417,-7.1901 5.78125,-6.76563 5.90625,-6.26563 C6.03125,-5.76563 6.09375,-5.08854 6.09375,-4.23438 C6.09375,-3.22396 5.99219,-2.41146 5.78906,-1.79688 C5.58594,-1.18229 5.27865,-0.705729 4.86719,-0.367188 C4.45573,-0.0286458 3.93229,0.140625 3.29688,0.140625 C2.47396,0.140625 1.82292,-0.15625 1.34375,-0.75 C0.78125,-1.45833 0.5,-2.61979 0.5,-4.23438 M1.57813,-4.23438 C1.57813,-2.82813 1.74479,-1.89063 2.07813,-1.42188 C2.41146,-0.953125 2.81771,-0.71875 3.29688,-0.71875 C3.78646,-0.71875 4.19531,-0.953125 4.52344,-1.42188 C4.85156,-1.89063 5.01563,-2.82813 5.01563,-4.23438 C5.01563,-5.65104 4.85156,-6.59115 4.52344,-7.05469 C4.19531,-7.51823 3.78125,-7.75 3.28125,-7.75 C2.80208,-7.75 2.41667,-7.54688 2.125,-7.14063 C1.76042,-6.61979 1.57813,-5.65104 1.57813,-4.23438 "/>
</g>

<g fill="#212121" fill-opacity="1" stroke="none" transform="matrix(0.75,0,0,0.75,97.725,144.55)"
font-family="MS Shell Dlg 2" font-size="8.25" font-weight="400" font-style="normal" 
>
<path vector-effect="none" fill-rule="evenodd" d="M4.46875,0 L3.42188,0 L3.42188,-6.71875 C3.16146,-6.47917 2.82552,-6.23698 2.41406,-5.99219 C2.0026,-5.7474 1.63542,-5.56771 1.3125,-5.45313 L1.3125,-6.46875 C1.89583,-6.75 2.40885,-7.08594 2.85156,-7.47656 C3.29427,-7.86719 3.60938,-8.25 3.79688,-8.625 L4.46875,-8.625 L4.46875,0"/>
</g>

<g fill="#212121" fill-opacity="1" stroke="none" transform="matrix(0.75,0,0,0.75,135.075,144.55)"
font-family="MS Shell Dlg 2" font-size="8.25" font-weight="400" font-style="normal" 
>
<path vector-effect="none" fill-rule="evenodd" d="M6.04688,-1.01563 L6.04688,0 L0.359375,0 C0.359375,-0.25 0.401042,-0.494792 0.484375,-0.734375 C0.630208,-1.11979 0.861979,-1.5 1.17969,-1.875 C1.4974,-2.25 1.95833,-2.68229 2.5625,-3.17188 C3.5,-3.94271 4.13281,-4.55208 4.46094,-5 C4.78906,-5.44792 4.95313,-5.86979 4.95313,-6.26563 C4.95313,-6.68229 4.80208,-7.03385 4.5,-7.32031 C4.19792,-7.60677 3.80729,-7.75 3.32813,-7.75 C2.81771,-7.75 2.41146,-7.59896 2.10938,-7.29688 C1.80729,-6.99479 1.65104,-6.57292 1.64063,-6.03125 L0.5625,-6.14063 C0.635417,-6.95313 0.914063,-7.57031 1.39844,-7.99219 C1.88281,-8.41406 2.53646,-8.625 3.35938,-8.625 C4.18229,-8.625 4.83333,-8.39583 5.3125,-7.9375 C5.79167,-7.47917 6.03125,-6.91146 6.03125,-6.23438 C6.03125,-5.89063 5.96094,-5.55469 5.82031,-5.22656 C5.67969,-4.89844 5.44531,-4.54948 5.11719,-4.17969 C4.78906,-3.8099 4.25,-3.30729 3.5,-2.67188 C2.86458,-2.14063 2.45573,-1.77865 2.27344,-1.58594 C2.09115,-1.39323 1.94271,-1.20313 1.82813,-1.01563 L6.04688,-1.01563"/>
</g>

<g fill="#212121" fill-opacity="1" stroke="none" transform="matrix(0.75,0,0,0.75,172.425,144.55)"
font-family="MS Shell Dlg 2" font-size="8.25" font-weight="400" font-style="normal" 
>
<path vector-effect="none" fill-rule="evenodd" d="M0.5,-2.26563 L1.5625,-2.40625 C1.67708,-1.8125 1.88021,-1.38281 2.17188,-1.11719 C2.46354,-0.851563 2.81771,-0.71875 3.23438,-0.71875 C3.73438,-0.71875 4.15625,-0.890625 4.5,-1.23438 C4.84375,-1.57813 5.01563,-2.00521 5.01563,-2.51563 C5.01563,-2.99479 4.85677,-3.39323 4.53906,-3.71094 C4.22135,-4.02865 3.81771,-4.1875 3.32813,-4.1875 C3.13021,-4.1875 2.88021,-4.14583 2.57813,-4.0625 L2.70313,-5 C2.77604,-4.98958 2.83333,-4.98438 2.875,-4.98438 C3.32292,-4.98438 3.72656,-5.10156 4.08594,-5.33594 C4.44531,-5.57031 4.625,-5.93229 4.625,-6.42188 C4.625,-6.80729 4.49479,-7.1276 4.23438,-7.38281 C3.97396,-7.63802 3.63542,-7.76563 3.21875,-7.76563 C2.8125,-7.76563 2.47135,-7.63542 2.19531,-7.375 C1.91927,-7.11458 1.74479,-6.72917 1.67188,-6.21875 L0.609375,-6.40625 C0.734375,-7.10417 1.02604,-7.64844 1.48438,-8.03906 C1.94271,-8.42969 2.51042,-8.625 3.1875,-8.625 C3.65625,-8.625 4.08854,-8.52344 4.48438,-8.32031 C4.88021,-8.11719 5.18229,-7.84375 5.39063,-7.5 C5.59896,-7.15625 5.70313,-6.78646 5.70313,-6.39063 C5.70313,-6.02604 5.60417,-5.6901 5.40625,-5.38281 C5.20833,-5.07552 4.91667,-4.83333 4.53125,-4.65625 C5.03125,-4.54167 5.42188,-4.29948 5.70313,-3.92969 C5.98438,-3.5599 6.125,-3.09375 6.125,-2.53125 C6.125,-1.78125 5.85156,-1.14583 5.30469,-0.625 C4.75781,-0.104167 4.06771,0.15625 3.23438,0.15625 C2.48438,0.15625 1.85938,-0.0703125 1.35938,-0.523438 C0.859375,-0.976563 0.572917,-1.55729 0.5,-2.26563 "/>
</g>

<g fill="#212121" fill-opacity="1" stroke="none" transform="matrix(0.75,0,0,0.75,209.775,144.55)"
font-family="MS Shell Dlg 2" font-size="8.25" font-weight="400" font-style="normal" 
>
<path vector-effect="none" fill-rule="evenodd" d="M3.875,0 L3.875,-2.0625 L0.15625,-2.0625 L0.15625,-3.03125 L4.07813,-8.59375 L4.9375,-8.59375 L4.9375,-3.03125 L6.09375,-3.03125 L6.09375,-2.0625 L4.9375,-2.0625 L4.9375,0 L3.875,0 M3.875,-3.03125 L3.875,-6.89063 L1.1875,-3.03125 L3.875,-3.03125"/>
</g>

<g fill="#212121" fill-opacity="1" stroke="none" transform="matrix(0.75,0,0,0.75,247.125,144.55)"
font-family="MS Shell Dlg 2" font-size="8.25" font-weight="400" font-style="normal" 
>
<path vector-effect="none" fill-rule="evenodd" d="M0.5,-2.25 L1.60938,-2.34375 C1.69271,-1.80208 1.88281,-1.39583 2.17969,-1.125 C2.47656,-0.854167 2.83854,-0.71875 3.26563,-0.71875 C3.76563,-0.71875 4.19271,-0.911458 4.54688,-1.29688 C4.90104,-1.68229 5.07813,-2.1875 5.07813,-2.8125 C5.07813,-3.41667 4.90885,-3.89323 4.57031,-4.24219 C4.23177,-4.59115 3.78646,-4.76563 3.23438,-4.76563 C2.90104,-4.76563 2.59635,-4.6875 2.32031,-4.53125 C2.04427,-4.375 1.82813,-4.17708 1.67188,-3.9375 L0.6875,-4.0625 L1.51563,-8.46875 L5.79688,-8.46875 L5.79688,-7.46875 L2.35938,-7.46875 L1.90625,-5.15625 C2.41667,-5.52083 2.95313,-5.70313 3.51563,-5.70313 C4.26563,-5.70313 4.89844,-5.44271 5.41406,-4.92188 C5.92969,-4.40104 6.1875,-3.72917 6.1875,-2.90625 C6.1875,-2.13542 5.96354,-1.46354 5.51563,-0.890625 C4.96354,-0.203125 4.21354,0.140625 3.26563,0.140625 C2.48438,0.140625 1.84635,-0.078125 1.35156,-0.515625 C0.856771,-0.953125 0.572917,-1.53125 0.5,-2.25 "/>
</g>

<g fill="#212121" fill-opacity="1" stroke="none" transform="matrix(0.75,0,0,0.75,284.475,144.55)"
font-family="MS Shell Dlg 2" font-size="8.25" font-weight="400" font-style="normal" 
>
<path vector-effect="none" fill-rule="evenodd" d="M5.96875,-6.48438 L4.92188,-6.40625 C4.82813,-6.82292 4.69792,-7.125 4.53125,-7.3125 C4.23958,-7.61458 3.88542,-7.76563 3.46875,-7.76563 C3.13542,-7.76563 2.83854,-7.67188 2.57813,-7.48438 C2.25521,-7.23438 1.9974,-6.8776 1.80469,-6.41406 C1.61198,-5.95052 1.51042,-5.29167 1.5,-4.4375 C1.75,-4.82292 2.0599,-5.10938 2.42969,-5.29688 C2.79948,-5.48438 3.1875,-5.57813 3.59375,-5.57813 C4.29167,-5.57813 4.88802,-5.31771 5.38281,-4.79688 C5.8776,-4.27604 6.125,-3.60938 6.125,-2.79688 C6.125,-2.25521 6.00781,-1.7526 5.77344,-1.28906 C5.53906,-0.825521 5.21875,-0.471354 4.8125,-0.226563 C4.40625,0.0182292 3.94792,0.140625 3.4375,0.140625 C2.55208,0.140625 1.83333,-0.182292 1.28125,-0.828125 C0.729167,-1.47396 0.453125,-2.53646 0.453125,-4.01563 C0.453125,-5.68229 0.760417,-6.89063 1.375,-7.64063 C1.90625,-8.29688 2.625,-8.625 3.53125,-8.625 C4.20833,-8.625 4.76302,-8.4349 5.19531,-8.05469 C5.6276,-7.67448 5.88542,-7.15104 5.96875,-6.48438 M1.67188,-2.78125 C1.67188,-2.41667 1.7474,-2.07031 1.89844,-1.74219 C2.04948,-1.41406 2.26302,-1.16146 2.53906,-0.984375 C2.8151,-0.807292 3.10938,-0.71875 3.42188,-0.71875 C3.85938,-0.71875 4.23958,-0.898438 4.5625,-1.25781 C4.88542,-1.61719 5.04688,-2.10417 5.04688,-2.71875 C5.04688,-3.3125 4.88802,-3.78125 4.57031,-4.125 C4.2526,-4.46875 3.85417,-4.64063 3.375,-4.64063 C2.89583,-4.64063 2.49219,-4.46875 2.16406,-4.125 C1.83594,-3.78125 1.67188,-3.33333 1.67188,-2.78125 "/>
</g>

<g fill="#212121" fill-opacity="1" stroke="none" transform="matrix(0.75,0,0,0.75,321.825,144.55)"
font-family="MS Shell Dlg 2" font-size="8.25" font-weight="400" font-style="normal" 
>
<path vector-effect="none" fill-rule="evenodd" d="M0.5625,-7.46875 L0.5625,-8.48438 L6.125,-8.48438 L6.125,-7.65625 C5.58333,-7.07292 5.04427,-6.29948 4.50781,-5.33594 C3.97135,-4.3724 3.55729,-3.38021 3.26563,-2.35938 C3.04688,-1.64063 2.91146,-0.854167 2.85938,0 L1.76563,0 C1.77604,-0.677083 1.90885,-1.49479 2.16406,-2.45313 C2.41927,-3.41146 2.78385,-4.33333 3.25781,-5.21875 C3.73177,-6.10417 4.23958,-6.85417 4.78125,-7.46875 L0.5625,-7.46875"/>
</g>

<g fill="#212121" fill-opacity="1" stroke="none" transform="matrix(0.75,0,0,0.75,359.175,144.55)"
font-family="MS Shell Dlg 2" font-size="8.25" font-weight="400" font-style="normal" 
>
<path vector-effect="none" fill-rule="evenodd" d="M2.125,-4.65625 C1.6875,-4.82292 1.36198,-5.05469 1.14844,-5.35156 C0.934896,-5.64844 0.828125,-6 0.828125,-6.40625 C0.828125,-7.03125 1.05469,-7.55729 1.50781,-7.98438 C1.96094,-8.41146 2.55729,-8.625 3.29688,-8.625 C4.04688,-8.625 4.65104,-8.40625 5.10938,-7.96875 C5.56771,-7.53125 5.79688,-7 5.79688,-6.375 C5.79688,-5.97917 5.69271,-5.63542 5.48438,-5.34375 C5.27604,-5.05208 4.95833,-4.82292 4.53125,-4.65625 C5.0625,-4.48958 5.46354,-4.21354 5.73438,-3.82813 C6.00521,-3.44271 6.14063,-2.98438 6.14063,-2.45313 C6.14063,-1.72396 5.88281,-1.10938 5.36719,-0.609375 C4.85156,-0.109375 4.16667,0.140625 3.3125,0.140625 C2.46875,0.140625 1.78646,-0.109375 1.26563,-0.609375 C0.744792,-1.10938 0.484375,-1.73438 0.484375,-2.48438 C0.484375,-3.04688 0.627604,-3.51563 0.914063,-3.89063 C1.20052,-4.26563 1.60417,-4.52083 2.125,-4.65625 M1.90625,-6.45313 C1.90625,-6.04688 2.03906,-5.71354 2.30469,-5.45313 C2.57031,-5.19271 2.91146,-5.0625 3.32813,-5.0625 C3.73438,-5.0625 4.06771,-5.1901 4.32813,-5.44531 C4.58854,-5.70052 4.71875,-6.01563 4.71875,-6.39063 C4.71875,-6.77604 4.58333,-7.10156 4.3125,-7.36719 C4.04167,-7.63281 3.70833,-7.76563 3.3125,-7.76563 C2.90625,-7.76563 2.57031,-7.63542 2.30469,-7.375 C2.03906,-7.11458 1.90625,-6.80729 1.90625,-6.45313 M1.57813,-2.48438 C1.57813,-2.18229 1.64844,-1.89063 1.78906,-1.60938 C1.92969,-1.32813 2.14063,-1.10938 2.42188,-0.953125 C2.70313,-0.796875 3.00521,-0.71875 3.32813,-0.71875 C3.82813,-0.71875 4.24219,-0.880208 4.57031,-1.20313 C4.89844,-1.52604 5.0625,-1.9375 5.0625,-2.4375 C5.0625,-2.94792 4.89583,-3.36979 4.5625,-3.70313 C4.22917,-4.03646 3.80729,-4.20313 3.29688,-4.20313 C2.79688,-4.20313 2.38542,-4.03906 2.0625,-3.71094 C1.73958,-3.38281 1.57813,-2.97396 1.57813,-2.48438 "/>
</g>

<g fill="#212121" fill-opacity="1" stroke="none" transform="matrix(0.75,0,0,0.75,396.525,144.55)"
font-family="MS Shell Dlg 2" font-size="8.25" font-weight="400" font-style="normal" 
>
<path vector-effect="none" fill-rule="evenodd" d="M0.65625,-1.98438 L1.67188,-2.07813 C1.75521,-1.59896 1.91927,-1.2526 2.16406,-1.03906 C2.40885,-0.825521 2.71875,-0.71875 3.09375,-0.71875 C3.41667,-0.71875 3.70052,-0.794271 3.94531,-0.945313 C4.1901,-1.09635 4.39063,-1.29427 4.54688,-1.53906 C4.70313,-1.78385 4.83333,-2.11719 4.9375,-2.53906 C5.04167,-2.96094 5.09375,-3.39063 5.09375,-3.82813 C5.09375,-3.88021 5.09375,-3.95313 5.09375,-4.04688 C4.88542,-3.71354 4.59896,-3.4401 4.23438,-3.22656 C3.86979,-3.01302 3.47396,-2.90625 3.04688,-2.90625 C2.32813,-2.90625 1.72396,-3.16406 1.23438,-3.67969 C0.744792,-4.19531 0.5,-4.875 0.5,-5.71875 C0.5,-6.59375 0.757813,-7.29688 1.27344,-7.82813 C1.78906,-8.35938 2.43229,-8.625 3.20313,-8.625 C3.75521,-8.625 4.26302,-8.47396 4.72656,-8.17188 C5.1901,-7.86979 5.54167,-7.4401 5.78125,-6.88281 C6.02083,-6.32552 6.14063,-5.52083 6.14063,-4.46875 C6.14063,-3.375 6.02344,-2.5026 5.78906,-1.85156 C5.55469,-1.20052 5.20052,-0.705729 4.72656,-0.367188 C4.2526,-0.0286458 3.70313,0.140625 3.07813,0.140625 C2.40104,0.140625 1.84896,-0.0442708 1.42188,-0.414063 C0.994792,-0.783854 0.739583,-1.30729 0.65625,-1.98438 M4.96875,-5.78125 C4.96875,-6.38542 4.8099,-6.86458 4.49219,-7.21875 C4.17448,-7.57292 3.78646,-7.75 3.32813,-7.75 C2.85938,-7.75 2.45052,-7.5599 2.10156,-7.17969 C1.7526,-6.79948 1.57813,-6.30208 1.57813,-5.6875 C1.57813,-5.14583 1.74479,-4.70313 2.07813,-4.35938 C2.41146,-4.01563 2.81771,-3.84375 3.29688,-3.84375 C3.78646,-3.84375 4.1875,-4.01563 4.5,-4.35938 C4.8125,-4.70313 4.96875,-5.17708 4.96875,-5.78125 "/>
</g>

<g fill="#212121" fill-opacity="1" stroke="none" transform="matrix(0.75,0,0,0.75,431.25,144.55)"
font-family="MS Shell Dlg 2" font-size="8.25" font-weight="400" font-style="normal" 
>
<path vector-effect="none" fill-rule="evenodd" d="M4.46875,0 L3.42188,0 L3.42188,-6.71875 C3.16146,-6.47917 2.82552,-6.23698 2.41406,-5.99219 C2.0026,-5.7474 1.63542,-5.56771 1.3125,-5.45313 L1.3125,-6.46875 C1.89583,-6.75 2.40885,-7.08594 2.85156,-7.47656 C3.29427,-7.86719 3.60938,-8.25 3.79688,-8.625 L4.46875,-8.625 L4.46875,0 M7.5,-4.23438 C7.5,-5.25521 7.60417,-6.07552 7.8125,-6.69531 C8.02083,-7.3151 8.33073,-7.79167 8.74219,-8.125 C9.15365,-8.45833 9.67188,-8.625 10.2969,-8.625 C10.7552,-8.625 11.1589,-8.53125 11.5078,-8.34375 C11.8568,-8.15625 12.1458,-7.88802 12.375,-7.53906 C12.6042,-7.1901 12.7813,-6.76563 12.9063,-6.26563 C13.0313,-5.76563 13.0938,-5.08854 13.0938,-4.23438 C13.0938,-3.22396 12.9922,-2.41146 12.7891,-1.79688 C12.5859,-1.18229 12.2786,-0.705729 11.8672,-0.367188 C11.4557,-0.0286458 10.9323,0.140625 10.2969,0.140625 C9.47396,0.140625 8.82292,-0.15625 8.34375,-0.75 C7.78125,-1.45833 7.5,-2.61979 7.5,-4.23438 M8.57813,-4.23438 C8.57813,-2.82813 8.74479,-1.89063 9.07813,-1.42188 C9.41146,-0.953125 9.81771,-0.71875 10.2969,-0.71875 C10.7865,-0.71875 11.1953,-0.953125 11.5234,-1.42188 C11.8516,-1.89063 12.0156,-2.82813 12.0156,-4.23438 C12.0156,-5.65104 11.8516,-6.59115 11.5234,-7.05469 C11.1953,-7.51823 10.7813,-7.75 10.2813,-7.75 C9.80208,-7.75 9.41667,-7.54688 9.125,-7.14063 C8.76042,-6.61979 8.57813,-5.65104 8.57813,-4.23438 "/>
</g>

<g fill="#212121" fill-opacity="1" stroke="none" transform="matrix(0,-0.75,0.75,0,41.136,95.6829)"
font-family="MS Shell Dlg 2" font-size="8.25" font-weight="400" font-style="normal" 
>
<path vector-effect="none" fill-rule="evenodd" d="M2.125,2.46875 C2.125,2.4375 2.13021,2.38542 2.14063,2.3125 L2.875,0.03125 C2.22917,-0.135417 1.69531,-0.4375 1.27344,-0.875 C0.851563,-1.3125 0.640625,-1.84375 0.640625,-2.46875 C0.640625,-2.79167 0.700521,-3.15104 0.820313,-3.54688 C0.940104,-3.94271 1.09375,-4.32031 1.28125,-4.67969 C1.46875,-5.03906 1.67188,-5.33333 1.89063,-5.5625 C1.94271,-5.59375 1.96875,-5.60938 1.96875,-5.60938 L2.14063,-5.60938 C2.16146,-5.60938 2.18229,-5.59635 2.20313,-5.57031 C2.22396,-5.54427 2.23438,-5.51563 2.23438,-5.48438 C2.23438,-5.45313 2.22396,-5.42708 2.20313,-5.40625 C2.06771,-5.25 1.92969,-5.0599 1.78906,-4.83594 C1.64844,-4.61198 1.52344,-4.375 1.41406,-4.125 C1.30469,-3.875 1.21615,-3.61198 1.14844,-3.33594 C1.08073,-3.0599 1.04688,-2.81771 1.04688,-2.60938 C1.04688,-2.09896 1.25,-1.6875 1.65625,-1.375 C2.0625,-1.0625 2.54688,-0.854167 3.10938,-0.75 L3.46875,-1.90625 C3.63542,-2.41667 3.79688,-2.86979 3.95313,-3.26563 C4.10938,-3.66146 4.30729,-4.04688 4.54688,-4.42188 C4.78646,-4.79688 5.07552,-5.11198 5.41406,-5.36719 C5.7526,-5.6224 6.13021,-5.75 6.54688,-5.75 C6.88021,-5.75 7.15885,-5.66667 7.38281,-5.5 C7.60677,-5.33333 7.77083,-5.11198 7.875,-4.83594 C7.97917,-4.5599 8.03125,-4.26563 8.03125,-3.95313 C8.03125,-3.44271 7.91667,-2.9401 7.6875,-2.44531 C7.45833,-1.95052 7.14583,-1.50781 6.75,-1.11719 C6.35417,-0.726563 5.90625,-0.419271 5.40625,-0.195313 C4.90625,0.0286458 4.40104,0.140625 3.89063,0.140625 C3.82813,0.140625 3.75781,0.138021 3.67969,0.132813 C3.60156,0.127604 3.53646,0.125 3.48438,0.125 L3.04688,2.39063 C3.02604,2.51563 2.96354,2.61979 2.85938,2.70313 C2.75521,2.78646 2.63542,2.82813 2.5,2.82813 C2.39583,2.82813 2.30729,2.79688 2.23438,2.73438 C2.16146,2.67188 2.125,2.58333 2.125,2.46875 M3.625,-0.671875 C3.71875,-0.661458 3.85938,-0.65625 4.04688,-0.65625 C4.57813,-0.65625 5.1224,-0.789063 5.67969,-1.05469 C6.23698,-1.32031 6.70052,-1.6849 7.07031,-2.14844 C7.4401,-2.61198 7.625,-3.11458 7.625,-3.65625 C7.625,-3.89583 7.57292,-4.11458 7.46875,-4.3125 C7.36458,-4.51042 7.22396,-4.66406 7.04688,-4.77344 C6.86979,-4.88281 6.66146,-4.9375 6.42188,-4.9375 C5.75521,-4.9375 5.19531,-4.61198 4.74219,-3.96094 C4.28906,-3.3099 3.98958,-2.60938 3.84375,-1.85938 L3.625,-0.671875"/>
</g>

<g fill="#212121" fill-opacity="1" stroke="none" transform="matrix(0,-0.75,0.75,0,41.136,85.9067)"
font-family="MS Shell Dlg 2" font-size="8.25" font-weight="400" font-style="normal" 
>
<path vector-effect="none" fill-rule="evenodd" d="M1.53125,3.25 L1.53125,-9.75 L3.3125,-9.75 L3.3125,-9.23438 L2.0625,-9.23438 L2.0625,2.73438 L3.3125,2.73438 L3.3125,3.25 L1.53125,3.25"/>
</g>

<g fill="#212121" fill-opacity="1" stroke="none" transform="matrix(0,-0.75,0.75,0,41.136,83.1567)"
font-family="MS Shell Dlg 2" font-size="8.25" font-weight="400" font-style="normal" 
>
<path vector-effect="none" fill-rule="evenodd" d="M2.26563,0.140625 C1.71354,0.140625 1.28125,-0.0651042 0.96875,-0.476563 C0.65625,-0.888021 0.5,-1.375 0.5,-1.9375 C0.5,-2.48958 0.643229,-3.0651 0.929688,-3.66406 C1.21615,-4.26302 1.60417,-4.76042 2.09375,-5.15625 C2.58333,-5.55208 3.10938,-5.75 3.67188,-5.75 C3.92188,-5.75 4.15104,-5.67708 4.35938,-5.53125 C4.56771,-5.38542 4.72917,-5.19792 4.84375,-4.96875 L5.5625,-7.85938 C5.60417,-8.01563 5.625,-8.13542 5.625,-8.21875 C5.625,-8.35417 5.34375,-8.42188 4.78125,-8.42188 C4.69792,-8.42188 4.65625,-8.47917 4.65625,-8.59375 C4.65625,-8.61458 4.66406,-8.65365 4.67969,-8.71094 C4.69531,-8.76823 4.71615,-8.8099 4.74219,-8.83594 C4.76823,-8.86198 4.80208,-8.875 4.84375,-8.875 L6.59375,-9.01563 C6.69792,-9.01563 6.75,-8.96354 6.75,-8.85938 L4.875,-1.39063 C4.8125,-1.24479 4.78125,-1.03646 4.78125,-0.765625 C4.78125,-0.390625 4.90625,-0.203125 5.15625,-0.203125 C5.42708,-0.203125 5.63542,-0.375 5.78125,-0.71875 C5.92708,-1.0625 6.04688,-1.46354 6.14063,-1.92188 C6.15104,-1.96354 6.18229,-1.98438 6.23438,-1.98438 L6.40625,-1.98438 C6.4375,-1.98438 6.46354,-1.97135 6.48438,-1.94531 C6.50521,-1.91927 6.51563,-1.89063 6.51563,-1.85938 C6.35938,-1.25521 6.19271,-0.770833 6.01563,-0.40625 C5.83854,-0.0416667 5.54688,0.140625 5.14063,0.140625 C4.84896,0.140625 4.59115,0.0546875 4.36719,-0.117188 C4.14323,-0.289063 4,-0.515625 3.9375,-0.796875 C3.38542,-0.171875 2.82813,0.140625 2.26563,0.140625 M2.26563,-0.203125 C2.58854,-0.203125 2.89583,-0.320313 3.1875,-0.554688 C3.47917,-0.789063 3.72917,-1.0625 3.9375,-1.375 C3.94792,-1.38542 3.95313,-1.40625 3.95313,-1.4375 L4.67188,-4.29688 C4.61979,-4.59896 4.50521,-4.85938 4.32813,-5.07813 C4.15104,-5.29688 3.92188,-5.40625 3.64063,-5.40625 C3.34896,-5.40625 3.07552,-5.28646 2.82031,-5.04688 C2.5651,-4.80729 2.35417,-4.52604 2.1875,-4.20313 C2.02083,-3.85938 1.85938,-3.38542 1.70313,-2.78125 C1.54688,-2.17708 1.46875,-1.70833 1.46875,-1.375 C1.46875,-1.07292 1.53385,-0.802083 1.66406,-0.5625 C1.79427,-0.322917 1.99479,-0.203125 2.26563,-0.203125 "/>
</g>

<g fill="#212121" fill-opacity="1" stroke="none" transform="matrix(0,-0.75,0.75,0,41.136,78.0039)"
font-family="MS Shell Dlg 2" font-size="8.25" font-weight="400" font-style="normal" 
>
<path vector-effect="none" fill-rule="evenodd" d="M2.60938,0.140625 C2.20313,0.140625 1.84375,0.0338542 1.53125,-0.179688 C1.21875,-0.393229 0.981771,-0.682292 0.820313,-1.04688 C0.658854,-1.41146 0.578125,-1.79688 0.578125,-2.20313 C0.578125,-2.82813 0.731771,-3.41146 1.03906,-3.95313 C1.34635,-4.49479 1.76823,-4.92969 2.30469,-5.25781 C2.84115,-5.58594 3.41146,-5.75 4.01563,-5.75 C4.39063,-5.75 4.71615,-5.65365 4.99219,-5.46094 C5.26823,-5.26823 5.40625,-4.98958 5.40625,-4.625 C5.40625,-4.125 5.20833,-3.75521 4.8125,-3.51563 C4.41667,-3.27604 3.96875,-3.1276 3.46875,-3.07031 C2.96875,-3.01302 2.41667,-2.98438 1.8125,-2.98438 L1.76563,-2.98438 C1.63021,-2.46354 1.5625,-2.02083 1.5625,-1.65625 C1.5625,-1.27083 1.65104,-0.932292 1.82813,-0.640625 C2.00521,-0.348958 2.27604,-0.203125 2.64063,-0.203125 C3.16146,-0.203125 3.65885,-0.320313 4.13281,-0.554688 C4.60677,-0.789063 4.99479,-1.11979 5.29688,-1.54688 C5.31771,-1.56771 5.34896,-1.57813 5.39063,-1.57813 C5.43229,-1.57813 5.47656,-1.55469 5.52344,-1.50781 C5.57031,-1.46094 5.59375,-1.41667 5.59375,-1.375 C5.59375,-1.33333 5.58333,-1.30729 5.5625,-1.29688 C5.25,-0.848958 4.82552,-0.497396 4.28906,-0.242188 C3.7526,0.0130208 3.19271,0.140625 2.60938,0.140625 M1.84375,-3.3125 C2.35417,-3.3125 2.82292,-3.33594 3.25,-3.38281 C3.67708,-3.42969 4.0625,-3.54688 4.40625,-3.73438 C4.75,-3.92188 4.92188,-4.21354 4.92188,-4.60938 C4.92188,-4.77604 4.8776,-4.91927 4.78906,-5.03906 C4.70052,-5.15885 4.58594,-5.25 4.44531,-5.3125 C4.30469,-5.375 4.15625,-5.40625 4,-5.40625 C3.63542,-5.40625 3.30729,-5.30729 3.01563,-5.10938 C2.72396,-4.91146 2.48177,-4.65365 2.28906,-4.33594 C2.09635,-4.01823 1.94792,-3.67708 1.84375,-3.3125 "/>
</g>

<g fill="#212121" fill-opacity="1" stroke="none" transform="matrix(0,-0.75,0.75,0,41.136,73.3942)"
font-family="MS Shell Dlg 2" font-size="8.25" font-weight="400" font-style="normal" 
>
<path vector-effect="none" fill-rule="evenodd" d="M0.1875,1.85938 C0.1875,1.65104 0.260417,1.46615 0.40625,1.30469 C0.552083,1.14323 0.729167,1.0625 0.9375,1.0625 C1.07292,1.0625 1.1875,1.10677 1.28125,1.19531 C1.375,1.28385 1.42188,1.39583 1.42188,1.53125 C1.42188,1.6875 1.3776,1.82813 1.28906,1.95313 C1.20052,2.07813 1.08854,2.16667 0.953125,2.21875 C1.18229,2.29167 1.54688,2.32813 2.04688,2.32813 C2.44271,2.32813 2.80469,2.17448 3.13281,1.86719 C3.46094,1.5599 3.67708,1.20833 3.78125,0.8125 L4.15625,-0.71875 C3.6875,-0.239583 3.19792,0 2.6875,0 C2.32292,0 2.00781,-0.0963542 1.74219,-0.289063 C1.47656,-0.481771 1.27344,-0.736979 1.13281,-1.05469 C0.992188,-1.3724 0.921875,-1.70833 0.921875,-2.0625 C0.921875,-2.45833 1.0026,-2.875 1.16406,-3.3125 C1.32552,-3.75 1.55469,-4.15365 1.85156,-4.52344 C2.14844,-4.89323 2.48698,-5.1901 2.86719,-5.41406 C3.2474,-5.63802 3.64583,-5.75 4.0625,-5.75 C4.32292,-5.75 4.55469,-5.67969 4.75781,-5.53906 C4.96094,-5.39844 5.11979,-5.21354 5.23438,-4.98438 C5.31771,-5.31771 5.50521,-5.48438 5.79688,-5.48438 C5.90104,-5.48438 5.99219,-5.45052 6.07031,-5.38281 C6.14844,-5.3151 6.1875,-5.22917 6.1875,-5.125 C6.1875,-5.09375 6.1875,-5.07292 6.1875,-5.0625 C6.1875,-5.05208 6.18229,-5.03646 6.17188,-5.01563 L4.6875,0.875 C4.625,1.14583 4.5026,1.39583 4.32031,1.625 C4.13802,1.85417 3.92448,2.04167 3.67969,2.1875 C3.4349,2.33333 3.16667,2.45052 2.875,2.53906 C2.58333,2.6276 2.30208,2.67188 2.03125,2.67188 C1.53125,2.67188 1.09896,2.6224 0.734375,2.52344 C0.369792,2.42448 0.1875,2.20313 0.1875,1.85938 M2.71875,-0.34375 C3.27083,-0.34375 3.81771,-0.723958 4.35938,-1.48438 L5.07813,-4.3125 C5.01563,-4.61458 4.89583,-4.8724 4.71875,-5.08594 C4.54167,-5.29948 4.31771,-5.40625 4.04688,-5.40625 C3.75521,-5.40625 3.48177,-5.28906 3.22656,-5.05469 C2.97135,-4.82031 2.76042,-4.54167 2.59375,-4.21875 C2.42708,-3.90625 2.26823,-3.45573 2.11719,-2.86719 C1.96615,-2.27865 1.89063,-1.81771 1.89063,-1.48438 C1.89063,-1.18229 1.95833,-0.916667 2.09375,-0.6875 C2.22917,-0.458333 2.4375,-0.34375 2.71875,-0.34375 "/>
</g>

<g fill="#212121" fill-opacity="1" stroke="none" transform="matrix(0,-0.75,0.75,0,41.136,68.317)"
font-family="MS Shell Dlg 2" font-size="8.25" font-weight="400" font-style="normal" 
>
<path vector-effect="none" fill-rule="evenodd" d="M0.28125,3.25 L0.28125,2.73438 L1.54688,2.73438 L1.54688,-9.23438 L0.28125,-9.23438 L0.28125,-9.75 L2.0625,-9.75 L2.0625,3.25 L0.28125,3.25"/>
</g>

<g fill="#212121" fill-opacity="1" stroke="#212121" stroke-opacity="1" stroke-width="0.666667" stroke-linecap="square" stroke-linejoin="round" transform="matrix(0.75,0,0,0.75,0,0)"
font-family="MS Shell Dlg 2" font-size="8.25" font-weight="400" font-style="normal" 
>
<polyline fill="none" vector-effect="none" points="84,178 84,37 " />
<polyline fill="none" vector-effect="none" points="84,178 88.98,178 " />
<polyline fill="none" vector-effect="none" points="84,131.1 88.98,131.1 " />
<polyline fill="none" vector-effect="none" points="84,84.1991 88.98,84.1991 " />
<polyline fill="none" vector-effect="none" points="84,37.2987 88.98,37.2987 " />
</g>

<g fill="#212121" fill-opacity="1" stroke="none" transform="matrix(0.75,0,0,0.75,46.7,136.5)"
font-family="MS Shell Dlg 2" font-size="8.25" font-weight="400" font-style="normal" 
>
<path vector-effect="none" fill-rule="evenodd" d="M0.375,-2.57813 L0.375,-3.64063 L3.625,-3.64063 L3.625,-2.57813 L0.375,-2.57813 M10.0469,-1.01563 L10.0469,0 L4.35938,0 C4.35938,-0.25 4.40104,-0.494792 4.48438,-0.734375 C4.63021,-1.11979 4.86198,-1.5 5.17969,-1.875 C5.4974,-2.25 5.95833,-2.68229 6.5625,-3.17188 C7.5,-3.94271 8.13281,-4.55208 8.46094,-5 C8.78906,-5.44792 8.95313,-5.86979 8.95313,-6.26563 C8.95313,-6.68229 8.80208,-7.03385 8.5,-7.32031 C8.19792,-7.60677 7.80729,-7.75 7.32813,-7.75 C6.81771,-7.75 6.41146,-7.59896 6.10938,-7.29688 C5.80729,-6.99479 5.65104,-6.57292 5.64063,-6.03125 L4.5625,-6.14063 C4.63542,-6.95313 4.91406,-7.57031 5.39844,-7.99219 C5.88281,-8.41406 6.53646,-8.625 7.35938,-8.625 C8.18229,-8.625 8.83333,-8.39583 9.3125,-7.9375 C9.79167,-7.47917 10.0313,-6.91146 10.0313,-6.23438 C10.0313,-5.89063 9.96094,-5.55469 9.82031,-5.22656 C9.67969,-4.89844 9.44531,-4.54948 9.11719,-4.17969 C8.78906,-3.8099 8.25,-3.30729 7.5,-2.67188 C6.86458,-2.14063 6.45573,-1.77865 6.27344,-1.58594 C6.09115,-1.39323 5.94271,-1.20313 5.82813,-1.01563 L10.0469,-1.01563 M11.5,-4.23438 C11.5,-5.25521 11.6042,-6.07552 11.8125,-6.69531 C12.0208,-7.3151 12.3307,-7.79167 12.7422,-8.125 C13.1536,-8.45833 13.6719,-8.625 14.2969,-8.625 C14.7552,-8.625 15.1589,-8.53125 15.5078,-8.34375 C15.8568,-8.15625 16.1458,-7.88802 16.375,-7.53906 C16.6042,-7.1901 16.7813,-6.76563 16.9063,-6.26563 C17.0313,-5.76563 17.0938,-5.08854 17.0938,-4.23438 C17.0938,-3.22396 16.9922,-2.41146 16.7891,-1.79688 C16.5859,-1.18229 16.2786,-0.705729 15.8672,-0.367188 C15.4557,-0.0286458 14.9323,0.140625 14.2969,0.140625 C13.474,0.140625 12.8229,-0.15625 12.3438,-0.75 C11.7813,-1.45833 11.5,-2.61979 11.5,-4.23438 M12.5781,-4.23438 C12.5781,-2.82813 12.7448,-1.89063 13.0781,-1.42188 C13.4115,-0.953125 13.8177,-0.71875 14.2969,-0.71875 C14.7865,-0.71875 15.1953,-0.953125 15.5234,-1.42188 C15.8516,-1.89063 16.0156,-2.82813 16.0156,-4.23438 C16.0156,-5.65104 15.8516,-6.59115 15.5234,-7.05469 C15.1953,-7.51823 14.7813,-7.75 14.2813,-7.75 C13.8021,-7.75 13.4167,-7.54688 13.125,-7.14063 C12.7604,-6.61979 12.5781,-5.65104 12.5781,-4.23438 "/>
</g>

<g fill="#212121" fill-opacity="1" stroke="none" transform="matrix(0.75,0,0,0.75,54.95,101.325)"
font-family="MS Shell Dlg 2" font-size="8.25" font-weight="400" font-style="normal" 
>
<path vector-effect="none" fill-rule="evenodd" d="M0.5,-4.23438 C0.5,-5.25521 0.604167,-6.07552 0.8125,-6.69531 C1.02083,-7.3151 1.33073,-7.79167 1.74219,-8.125 C2.15365,-8.45833 2.67188,-8.625 3.29688,-8.625 C3.75521,-8.625 4.15885,-8.53125 4.50781,-8.34375 C4.85677,-8.15625 5.14583,-7.88802 5.375,-7.53906 C5.60417,-7.1901 5.78125,-6.76563 5.90625,-6.26563 C6.03125,-5.76563 6.09375,-5.08854 6.09375,-4.23438 C6.09375,-3.22396 5.99219,-2.41146 5.78906,-1.79688 C5.58594,-1.18229 5.27865,-0.705729 4.86719,-0.367188 C4.45573,-0.0286458 3.93229,0.140625 3.29688,0.140625 C2.47396,0.140625 1.82292,-0.15625 1.34375,-0.75 C0.78125,-1.45833 0.5,-2.61979 0.5,-4.23438 M1.57813,-4.23438 C1.57813,-2.82813 1.74479,-1.89063 2.07813,-1.42188 C2.41146,-0.953125 2.81771,-0.71875 3.29688,-0.71875 C3.78646,-0.71875 4.19531,-0.953125 4.52344,-1.42188 C4.85156,-1.89063 5.01563,-2.82813 5.01563,-4.23438 C5.01563,-5.65104 4.85156,-6.59115 4.52344,-7.05469 C4.19531,-7.51823 3.78125,-7.75 3.28125,-7.75 C2.80208,-7.75 2.41667,-7.54688 2.125,-7.14063 C1.76042,-6.61979 1.57813,-5.65104 1.57813,-4.23438 "/>
</g>

<g fill="#212121" fill-opacity="1" stroke="none" transform="matrix(0.75,0,0,0.75,49.7,66.1494)"
font-family="MS Shell Dlg 2" font-size="8.25" font-weight="400" font-style="normal" 
>
<path vector-effect="none" fill-rule="evenodd" d="M6.04688,-1.01563 L6.04688,0 L0.359375,0 C0.359375,-0.25 0.401042,-0.494792 0.484375,-0.734375 C0.630208,-1.11979 0.861979,-1.5 1.17969,-1.875 C1.4974,-2.25 1.95833,-2.68229 2.5625,-3.17188 C3.5,-3.94271 4.13281,-4.55208 4.46094,-5 C4.78906,-5.44792 4.95313,-5.86979 4.95313,-6.26563 C4.95313,-6.68229 4.80208,-7.03385 4.5,-7.32031 C4.19792,-7.60677 3.80729,-7.75 3.32813,-7.75 C2.81771,-7.75 2.41146,-7.59896 2.10938,-7.29688 C1.80729,-6.99479 1.65104,-6.57292 1.64063,-6.03125 L0.5625,-6.14063 C0.635417,-6.95313 0.914063,-7.57031 1.39844,-7.99219 C1.88281,-8.41406 2.53646,-8.625 3.35938,-8.625 C4.18229,-8.625 4.83333,-8.39583 5.3125,-7.9375 C5.79167,-7.47917 6.03125,-6.91146 6.03125,-6.23438 C6.03125,-5.89063 5.96094,-5.55469 5.82031,-5.22656 C5.67969,-4.89844 5.44531,-4.54948 5.11719,-4.17969 C4.78906,-3.8099 4.25,-3.30729 3.5,-2.67188 C2.86458,-2.14063 2.45573,-1.77865 2.27344,-1.58594 C2.09115,-1.39323 1.94271,-1.20313 1.82813,-1.01563 L6.04688,-1.01563 M7.5,-4.23438 C7.5,-5.25521 7.60417,-6.07552 7.8125,-6.69531 C8.02083,-7.3151 8.33073,-7.79167 8.74219,-8.125 C9.15365,-8.45833 9.67188,-8.625 10.2969,-8.625 C10.7552,-8.625 11.1589,-8.53125 11.5078,-8.34375 C11.8568,-8.15625 12.1458,-7.88802 12.375,-7.53906 C12.6042,-7.1901 12.7813,-6.76563 12.9063,-6.26563 C13.0313,-5.76563 13.0938,-5.08854 13.0938,-4.23438 C13.0938,-3.22396 12.9922,-2.41146 12.7891,-1.79688 C12.5859,-1.18229 12.2786,-0.705729 11.8672,-0.367188 C11.4557,-0.0286458 10.9323,0.140625 10.2969,0.140625 C9.47396,0.140625 8.82292,-0.15625 8.34375,-0.75 C7.78125,-1.45833 7.5,-2.61979 7.5,-4.23438 M8.57813,-4.23438 C8.57813,-2.82813 8.74479,-1.89063 9.07813,-1.42188 C9.41146,-0.953125 9.81771,-0.71875 10.2969,-0.71875 C10.7865,-0.71875 11.1953,-0.953125 11.5234,-1.42188 C11.8516,-1.89063 12.0156,-2.82813 12.0156,-4.23438 C12.0156,-5.65104 11.8516,-6.59115 11.5234,-7.05469 C11.1953,-7.51823 10.7813,-7.75 10.2813,-7.75 C9.80208,-7.75 9.41667,-7.54688 9.125,-7.14063 C8.76042,-6.61979 8.57813,-5.65104 8.57813,-4.23438 "/>
</g>

<g fill="#212121" fill-opacity="1" stroke="none" transform="matrix(0.75,0,0,0.75,49.7,30.974)"
font-family="MS Shell Dlg 2" font-size="8.25" font-weight="400" font-style="normal" 
>
<path vector-effect="none" fill-rule="evenodd" d="M3.875,0 L3.875,-2.0625 L0.15625,-2.0625 L0.15625,-3.03125 L4.07813,-8.59375 L4.9375,-8.59375 L4.9375,-3.03125 L6.09375,-3.03125 L6.09375,-2.0625 L4.9375,-2.0625 L4.9375,0 L3.875,0 M3.875,-3.03125 L3.875,-6.89063 L1.1875,-3.03125 L3.875,-3.03125 M7.5,-4.23438 C7.5,-5.25521 7.60417,-6.07552 7.8125,-6.69531 C8.02083,-7.3151 8.33073,-7.79167 8.74219,-8.125 C9.15365,-8.45833 9.67188,-8.625 10.2969,-8.625 C10.7552,-8.625 11.1589,-8.53125 11.5078,-8.34375 C11.8568,-8.15625 12.1458,-7.88802 12.375,-7.53906 C12.6042,-7.1901 12.7813,-6.76563 12.9063,-6.26563 C13.0313,-5.76563 13.0938,-5.08854 13.0938,-4.23438 C13.0938,-3.22396 12.9922,-2.41146 12.7891,-1.79688 C12.5859,-1.18229 12.2786,-0.705729 11.8672,-0.367188 C11.4557,-0.0286458 10.9323,0.140625 10.2969,0.140625 C9.47396,0.140625 8.82292,-0.15625 8.34375,-0.75 C7.78125,-1.45833 7.5,-2.61979 7.5,-4.23438 M8.57813,-4.23438 C8.57813,-2.82813 8.74479,-1.89063 9.07813,-1.42188 C9.41146,-0.953125 9.81771,-0.71875 10.2969,-0.71875 C10.7865,-0.71875 11.1953,-0.953125 11.5234,-1.42188 C11.8516,-1.89063 12.0156,-2.82813 12.0156,-4.23438 C12.0156,-5.65104 11.8516,-6.59115 11.5234,-7.05469 C11.1953,-7.51823 10.7813,-7.75 10.2813,-7.75 C9.80208,-7.75 9.41667,-7.54688 9.125,-7.14063 C8.76042,-6.61979 8.57813,-5.65104 8.57813,-4.23438 "/>
</g>

<g fill="#212121" fill-opacity="1" stroke="none" transform="matrix(0.75,0,0,0.75,209.625,10.5375)"
font-family="MS Shell Dlg 2" font-size="8.25" font-weight="400" font-style="normal" 
>
<path vector-effect="none" fill-rule="evenodd" d="M6.90625,-3.42188 L8.71875,-2.84375 C8.4375,-1.83333 7.97396,-1.08073 7.32813,-0.585938 C6.68229,-0.0911458 5.85938,0.15625 4.85938,0.15625 C3.61979,0.15625 2.60156,-0.265625 1.80469,-1.10938 C1.00781,-1.95313 0.609375,-3.10938 0.609375,-4.57813 C0.609375,-6.11979 1.01042,-7.32031 1.8125,-8.17969 C2.61458,-9.03906 3.66667,-9.46875 4.96875,-9.46875 C6.10417,-9.46875 7.03125,-9.13021 7.75,-8.45313 C8.16667,-8.05729 8.48438,-7.48438 8.70313,-6.73438 L6.84375,-6.29688 C6.72917,-6.77604 6.4974,-7.15625 6.14844,-7.4375 C5.79948,-7.71875 5.375,-7.85938 4.875,-7.85938 C4.1875,-7.85938 3.6276,-7.61198 3.19531,-7.11719 C2.76302,-6.6224 2.54688,-5.81771 2.54688,-4.70313 C2.54688,-3.53646 2.76042,-2.70313 3.1875,-2.20313 C3.61458,-1.70313 4.16667,-1.45313 4.84375,-1.45313 C5.34375,-1.45313 5.77344,-1.61198 6.13281,-1.92969 C6.49219,-2.2474 6.75,-2.74479 6.90625,-3.42188 M9.51563,-3.46875 C9.51563,-4.0625 9.66146,-4.63542 9.95313,-5.1875 C10.2448,-5.73958 10.6589,-6.16146 11.1953,-6.45313 C11.7318,-6.74479 12.3333,-6.89063 13,-6.89063 C14.0104,-6.89063 14.8438,-6.5599 15.5,-5.89844 C16.1563,-5.23698 16.4844,-4.40104 16.4844,-3.39063 C16.4844,-2.36979 16.1536,-1.52344 15.4922,-0.851563 C14.8307,-0.179688 14,0.15625 13,0.15625 C12.3854,0.15625 11.7969,0.015625 11.2344,-0.265625 C10.6719,-0.546875 10.2448,-0.955729 9.95313,-1.49219 C9.66146,-2.02865 9.51563,-2.6875 9.51563,-3.46875 M11.3438,-3.375 C11.3438,-2.70833 11.5026,-2.19531 11.8203,-1.83594 C12.138,-1.47656 12.5313,-1.29688 13,-1.29688 C13.4688,-1.29688 13.8594,-1.47656 14.1719,-1.83594 C14.4844,-2.19531 14.6406,-2.71354 14.6406,-3.39063 C14.6406,-4.04688 14.4844,-4.55208 14.1719,-4.90625 C13.8594,-5.26042 13.4688,-5.4375 13,-5.4375 C12.5313,-5.4375 12.138,-5.26042 11.8203,-4.90625 C11.5026,-4.55208 11.3438,-4.04167 11.3438,-3.375 M24.0625,0 L22.2813,0 L22.2813,-3.4375 C22.2813,-4.16667 22.2422,-4.63802 22.1641,-4.85156 C22.0859,-5.0651 21.9609,-5.23177 21.7891,-5.35156 C21.6172,-5.47135 21.4115,-5.53125 21.1719,-5.53125 C20.8698,-5.53125 20.5964,-5.44531 20.3516,-5.27344 C20.1068,-5.10156 19.9375,-4.8776 19.8438,-4.60156 C19.75,-4.32552 19.7031,-3.80729 19.7031,-3.04688 L19.7031,0 L17.9219,0 L17.9219,-6.73438 L19.5781,-6.73438 L19.5781,-5.75 C20.1615,-6.51042 20.901,-6.89063 21.7969,-6.89063 C22.1927,-6.89063 22.5521,-6.82031 22.875,-6.67969 C23.1979,-6.53906 23.4453,-6.35938 23.6172,-6.14063 C23.7891,-5.92188 23.9063,-5.67188 23.9688,-5.39063 C24.0313,-5.10938 24.0625,-4.70833 24.0625,-4.1875 L24.0625,0 M29.0313,-6.73438 L29.0313,-5.3125 L27.8125,-5.3125 L27.8125,-2.60938 C27.8125,-2.05729 27.8229,-1.73438 27.8438,-1.64063 C27.8646,-1.54688 27.9167,-1.47135 28,-1.41406 C28.0833,-1.35677 28.1823,-1.32813 28.2969,-1.32813 C28.4635,-1.32813 28.7031,-1.38542 29.0156,-1.5 L29.1719,-0.109375 C28.7552,0.0677083 28.2865,0.15625 27.7656,0.15625 C27.4427,0.15625 27.151,0.101563 26.8906,-0.0078125 C26.6302,-0.117188 26.4401,-0.257813 26.3203,-0.429688 C26.2005,-0.601563 26.1198,-0.833333 26.0781,-1.125 C26.0365,-1.33333 26.0156,-1.75 26.0156,-2.375 L26.0156,-5.3125 L25.2031,-5.3125 L25.2031,-6.73438 L26.0156,-6.73438 L26.0156,-8.07813 L27.8125,-9.125 L27.8125,-6.73438 L29.0313,-6.73438 M31.6406,0 L29.8594,0 L29.8594,-6.73438 L31.5156,-6.73438 L31.5156,-5.78125 C31.7969,-6.23958 32.0521,-6.53906 32.2813,-6.67969 C32.5104,-6.82031 32.7656,-6.89063 33.0469,-6.89063 C33.4531,-6.89063 33.8438,-6.78125 34.2188,-6.5625 L33.6719,-5 C33.3698,-5.19792 33.0885,-5.29688 32.8281,-5.29688 C32.5781,-5.29688 32.3672,-5.22656 32.1953,-5.08594 C32.0234,-4.94531 31.888,-4.69531 31.7891,-4.33594 C31.6901,-3.97656 31.6406,-3.22396 31.6406,-2.07813 L31.6406,0 M34.5156,-3.46875 C34.5156,-4.0625 34.6615,-4.63542 34.9531,-5.1875 C35.2448,-5.73958 35.6589,-6.16146 36.1953,-6.45313 C36.7318,-6.74479 37.3333,-6.89063 38,-6.89063 C39.0104,-6.89063 39.8438,-6.5599 40.5,-5.89844 C41.1563,-5.23698 41.4844,-4.40104 41.4844,-3.39063 C41.4844,-2.36979 41.1536,-1.52344 40.4922,-0.851563 C39.8307,-0.179688 39,0.15625 38,0.15625 C37.3854,0.15625 36.7969,0.015625 36.2344,-0.265625 C35.6719,-0.546875 35.2448,-0.955729 34.9531,-1.49219 C34.6615,-2.02865 34.5156,-2.6875 34.5156,-3.46875 M36.3438,-3.375 C36.3438,-2.70833 36.5026,-2.19531 36.8203,-1.83594 C37.138,-1.47656 37.5313,-1.29688 38,-1.29688 C38.4688,-1.29688 38.8594,-1.47656 39.1719,-1.83594 C39.4844,-2.19531 39.6406,-2.71354 39.6406,-3.39063 C39.6406,-4.04688 39.4844,-4.55208 39.1719,-4.90625 C38.8594,-5.26042 38.4688,-5.4375 38,-5.4375 C37.5313,-5.4375 37.138,-5.26042 36.8203,-4.90625 C36.5026,-4.55208 36.3438,-4.04167 36.3438,-3.375 M42.9375,0 L42.9375,-9.3125 L44.7188,-9.3125 L44.7188,0 L42.9375,0 M52.6406,0 L50.8594,0 L50.8594,-6.73438 L52.5156,-6.73438 L52.5156,-5.78125 C52.7969,-6.23958 53.0521,-6.53906 53.2813,-6.67969 C53.5104,-6.82031 53.7656,-6.89063 54.0469,-6.89063 C54.4531,-6.89063 54.8438,-6.78125 55.2188,-6.5625 L54.6719,-5 C54.3698,-5.19792 54.0885,-5.29688 53.8281,-5.29688 C53.5781,-5.29688 53.3672,-5.22656 53.1953,-5.08594 C53.0234,-4.94531 52.888,-4.69531 52.7891,-4.33594 C52.6901,-3.97656 52.6406,-3.22396 52.6406,-2.07813 L52.6406,0 M59.8438,-2.14063 L61.6094,-1.84375 C61.3802,-1.19792 61.0208,-0.703125 60.5313,-0.359375 C60.0417,-0.015625 59.4271,0.15625 58.6875,0.15625 C57.5104,0.15625 56.6406,-0.229167 56.0781,-1 C55.6302,-1.61458 55.4063,-2.38542 55.4063,-3.3125 C55.4063,-4.4375 55.7005,-5.3151 56.2891,-5.94531 C56.8776,-6.57552 57.6146,-6.89063 58.5,-6.89063 C59.5104,-6.89063 60.3047,-6.5599 60.8828,-5.89844 C61.4609,-5.23698 61.7344,-4.22396 61.7031,-2.85938 L57.2344,-2.85938 C57.2552,-2.32813 57.401,-1.91667 57.6719,-1.625 C57.9427,-1.33333 58.2865,-1.1875 58.7031,-1.1875 C58.9844,-1.1875 59.2188,-1.26302 59.4063,-1.41406 C59.5938,-1.5651 59.7396,-1.80729 59.8438,-2.14063 M59.9375,-3.95313 C59.9271,-4.46354 59.7943,-4.85417 59.5391,-5.125 C59.2839,-5.39583 58.974,-5.53125 58.6094,-5.53125 C58.224,-5.53125 57.901,-5.39063 57.6406,-5.10938 C57.3906,-4.81771 57.2656,-4.43229 57.2656,-3.95313 L59.9375,-3.95313 M62.3125,-1.92188 L64.0938,-2.20313 C64.1667,-1.84896 64.3203,-1.58333 64.5547,-1.40625 C64.7891,-1.22917 65.1146,-1.14063 65.5313,-1.14063 C66,-1.14063 66.349,-1.22396 66.5781,-1.39063 C66.7344,-1.50521 66.8125,-1.66146 66.8125,-1.85938 C66.8125,-1.99479 66.7708,-2.10938 66.6875,-2.20313 C66.5938,-2.28646 66.3958,-2.36458 66.0938,-2.4375 C64.6563,-2.75 63.7448,-3.04167 63.3594,-3.3125 C62.8177,-3.67708 62.5469,-4.18229 62.5469,-4.82813 C62.5469,-5.41146 62.7786,-5.90104 63.2422,-6.29688 C63.7057,-6.69271 64.4219,-6.89063 65.3906,-6.89063 C66.3177,-6.89063 67.0052,-6.74219 67.4531,-6.44531 C67.901,-6.14844 68.2083,-5.70313 68.375,-5.10938 L66.6875,-4.79688 C66.6146,-5.05729 66.4792,-5.25781 66.2813,-5.39844 C66.0833,-5.53906 65.7969,-5.60938 65.4219,-5.60938 C64.9531,-5.60938 64.6146,-5.54688 64.4063,-5.42188 C64.2708,-5.32813 64.2031,-5.20313 64.2031,-5.04688 C64.2031,-4.92188 64.2656,-4.81771 64.3906,-4.73438 C64.5469,-4.60938 65.1016,-4.4401 66.0547,-4.22656 C67.0078,-4.01302 67.6719,-3.75 68.0469,-3.4375 C68.4219,-3.11458 68.6094,-2.67188 68.6094,-2.10938 C68.6094,-1.49479 68.349,-0.963542 67.8281,-0.515625 C67.3073,-0.0677083 66.5417,0.15625 65.5313,0.15625 C64.6146,0.15625 63.888,-0.03125 63.3516,-0.40625 C62.8151,-0.78125 62.4688,-1.28646 62.3125,-1.92188 M69.875,-6.73438 L71.5469,-6.73438 L71.5469,-5.75 C71.7656,-6.09375 72.0573,-6.36979 72.4219,-6.57813 C72.7865,-6.78646 73.1927,-6.89063 73.6406,-6.89063 C74.4323,-6.89063 75.099,-6.58333 75.6406,-5.96875 C76.1823,-5.35417 76.4531,-4.5 76.4531,-3.40625 C76.4531,-2.28125 76.1797,-1.40625 75.6328,-0.78125 C75.0859,-0.15625 74.4219,0.15625 73.6406,0.15625 C73.2656,0.15625 72.9271,0.0807292 72.625,-0.0703125 C72.3229,-0.221354 72.0052,-0.473958 71.6719,-0.828125 L71.6719,2.5625 L69.875,2.5625 L69.875,-6.73438 M71.6406,-3.48438 C71.6406,-2.72396 71.7917,-2.16406 72.0938,-1.80469 C72.3958,-1.44531 72.7656,-1.26563 73.2031,-1.26563 C73.6094,-1.26563 73.9505,-1.43229 74.2266,-1.76563 C74.5026,-2.09896 74.6406,-2.64063 74.6406,-3.39063 C74.6406,-4.09896 74.5,-4.625 74.2188,-4.96875 C73.9375,-5.3125 73.5885,-5.48438 73.1719,-5.48438 C72.7344,-5.48438 72.3698,-5.3151 72.0781,-4.97656 C71.7865,-4.63802 71.6406,-4.14063 71.6406,-3.48438 M77.5156,-3.46875 C77.5156,-4.0625 77.6615,-4.63542 77.9531,-5.1875 C78.2448,-5.73958 78.6589,-6.16146 79.1953,-6.45313 C79.7318,-6.74479 80.3333,-6.89063 81,-6.89063 C82.0104,-6.89063 82.8438,-6.5599 83.5,-5.89844 C84.1563,-5.23698 84.4844,-4.40104 84.4844,-3.39063 C84.4844,-2.36979 84.1536,-1.52344 83.4922,-0.851563 C82.8307,-0.179688 82,0.15625 81,0.15625 C80.3854,0.15625 79.7969,0.015625 79.2344,-0.265625 C78.6719,-0.546875 78.2448,-0.955729 77.9531,-1.49219 C77.6615,-2.02865 77.5156,-2.6875 77.5156,-3.46875 M79.3438,-3.375 C79.3438,-2.70833 79.5026,-2.19531 79.8203,-1.83594 C80.138,-1.47656 80.5313,-1.29688 81,-1.29688 C81.4688,-1.29688 81.8594,-1.47656 82.1719,-1.83594 C82.4844,-2.19531 82.6406,-2.71354 82.6406,-3.39063 C82.6406,-4.04688 82.4844,-4.55208 82.1719,-4.90625 C81.8594,-5.26042 81.4688,-5.4375 81,-5.4375 C80.5313,-5.4375 80.138,-5.26042 79.8203,-4.90625 C79.5026,-4.55208 79.3438,-4.04167 79.3438,-3.375 M92.0625,0 L90.2813,0 L90.2813,-3.4375 C90.2813,-4.16667 90.2422,-4.63802 90.1641,-4.85156 C90.0859,-5.0651 89.9609,-5.23177 89.7891,-5.35156 C89.6172,-5.47135 89.4115,-5.53125 89.1719,-5.53125 C88.8698,-5.53125 88.5964,-5.44531 88.3516,-5.27344 C88.1068,-5.10156 87.9375,-4.8776 87.8438,-4.60156 C87.75,-4.32552 87.7031,-3.80729 87.7031,-3.04688 L87.7031,0 L85.9219,0 L85.9219,-6.73438 L87.5781,-6.73438 L87.5781,-5.75 C88.1615,-6.51042 88.901,-6.89063 89.7969,-6.89063 C90.1927,-6.89063 90.5521,-6.82031 90.875,-6.67969 C91.1979,-6.53906 91.4453,-6.35938 91.6172,-6.14063 C91.7891,-5.92188 91.9063,-5.67188 91.9688,-5.39063 C92.0313,-5.10938 92.0625,-4.70833 92.0625,-4.1875 L92.0625,0 M93.3125,-1.92188 L95.0938,-2.20313 C95.1667,-1.84896 95.3203,-1.58333 95.5547,-1.40625 C95.7891,-1.22917 96.1146,-1.14063 96.5313,-1.14063 C97,-1.14063 97.349,-1.22396 97.5781,-1.39063 C97.7344,-1.50521 97.8125,-1.66146 97.8125,-1.85938 C97.8125,-1.99479 97.7708,-2.10938 97.6875,-2.20313 C97.5938,-2.28646 97.3958,-2.36458 97.0938,-2.4375 C95.6563,-2.75 94.7448,-3.04167 94.3594,-3.3125 C93.8177,-3.67708 93.5469,-4.18229 93.5469,-4.82813 C93.5469,-5.41146 93.7786,-5.90104 94.2422,-6.29688 C94.7057,-6.69271 95.4219,-6.89063 96.3906,-6.89063 C97.3177,-6.89063 98.0052,-6.74219 98.4531,-6.44531 C98.901,-6.14844 99.2083,-5.70313 99.375,-5.10938 L97.6875,-4.79688 C97.6146,-5.05729 97.4792,-5.25781 97.2813,-5.39844 C97.0833,-5.53906 96.7969,-5.60938 96.4219,-5.60938 C95.9531,-5.60938 95.6146,-5.54688 95.4063,-5.42188 C95.2708,-5.32813 95.2031,-5.20313 95.2031,-5.04688 C95.2031,-4.92188 95.2656,-4.81771 95.3906,-4.73438 C95.5469,-4.60938 96.1016,-4.4401 97.0547,-4.22656 C98.0078,-4.01302 98.6719,-3.75 99.0469,-3.4375 C99.4219,-3.11458 99.6094,-2.67188 99.6094,-2.10938 C99.6094,-1.49479 99.349,-0.963542 98.8281,-0.515625 C98.3073,-0.0677083 97.5417,0.15625 96.5313,0.15625 C95.6146,0.15625 94.888,-0.03125 94.3516,-0.40625 C93.8151,-0.78125 93.4688,-1.28646 93.3125,-1.92188 M104.844,-2.14063 L106.609,-1.84375 C106.38,-1.19792 106.021,-0.703125 105.531,-0.359375 C105.042,-0.015625 104.427,0.15625 103.688,0.15625 C102.51,0.15625 101.641,-0.229167 101.078,-1 C100.63,-1.61458 100.406,-2.38542 100.406,-3.3125 C100.406,-4.4375 100.701,-5.3151 101.289,-5.94531 C101.878,-6.57552 102.615,-6.89063 103.5,-6.89063 C104.51,-6.89063 105.305,-6.5599 105.883,-5.89844 C106.461,-5.23698 106.734,-4.22396 106.703,-2.85938 L102.234,-2.85938 C102.255,-2.32813 102.401,-1.91667 102.672,-1.625 C102.943,-1.33333 103.286,-1.1875 103.703,-1.1875 C103.984,-1.1875 104.219,-1.26302 104.406,-1.41406 C104.594,-1.5651 104.74,-1.80729 104.844,-2.14063 M104.938,-3.95313 C104.927,-4.46354 104.794,-4.85417 104.539,-5.125 C104.284,-5.39583 103.974,-5.53125 103.609,-5.53125 C103.224,-5.53125 102.901,-5.39063 102.641,-5.10938 C102.391,-4.81771 102.266,-4.43229 102.266,-3.95313 L104.938,-3.95313"/>
</g>

<g fill="#212121" fill-opacity="1" stroke="none" transform="matrix(0.75,0,0,0.75,227.625,23.6437)"
font-family="MS Shell Dlg 2" font-size="8.25" font-weight="400" font-style="normal" 
>
<path vector-effect="none" fill-rule="evenodd" d="M0.40625,-2.01563 L1.53125,-2.1875 C1.59375,-1.73958 1.77083,-1.39323 2.0625,-1.14844 C2.35417,-0.903646 2.76042,-0.78125 3.28125,-0.78125 C3.80208,-0.78125 4.1901,-0.888021 4.44531,-1.10156 C4.70052,-1.3151 4.82813,-1.56771 4.82813,-1.85938 C4.82813,-2.11979 4.71354,-2.32292 4.48438,-2.46875 C4.32813,-2.57292 3.9375,-2.70313 3.3125,-2.85938 C2.47917,-3.06771 1.90104,-3.25 1.57813,-3.40625 C1.25521,-3.5625 1.01042,-3.77604 0.84375,-4.04688 C0.677083,-4.31771 0.59375,-4.61979 0.59375,-4.95313 C0.59375,-5.25521 0.661458,-5.53385 0.796875,-5.78906 C0.932292,-6.04427 1.11979,-6.25521 1.35938,-6.42188 C1.53646,-6.55729 1.77865,-6.66927 2.08594,-6.75781 C2.39323,-6.84635 2.72396,-6.89063 3.07813,-6.89063 C3.59896,-6.89063 4.0599,-6.8151 4.46094,-6.66406 C4.86198,-6.51302 5.15885,-6.30729 5.35156,-6.04688 C5.54427,-5.78646 5.67708,-5.4375 5.75,-5 L4.625,-4.84375 C4.57292,-5.19792 4.42708,-5.47135 4.1875,-5.66406 C3.94792,-5.85677 3.60417,-5.95313 3.15625,-5.95313 C2.63542,-5.95313 2.26042,-5.86719 2.03125,-5.69531 C1.80208,-5.52344 1.6875,-5.31771 1.6875,-5.07813 C1.6875,-4.93229 1.73438,-4.80208 1.82813,-4.6875 C1.92188,-4.5625 2.06771,-4.45833 2.26563,-4.375 C2.38021,-4.33333 2.71875,-4.23958 3.28125,-4.09375 C4.09375,-3.875 4.65885,-3.69792 4.97656,-3.5625 C5.29427,-3.42708 5.54427,-3.22656 5.72656,-2.96094 C5.90885,-2.69531 6,-2.36979 6,-1.98438 C6,-1.59896 5.88802,-1.23958 5.66406,-0.90625 C5.4401,-0.572917 5.11979,-0.3125 4.70313,-0.125 C4.28646,0.0625 3.8125,0.15625 3.28125,0.15625 C2.40625,0.15625 1.73958,-0.0260417 1.28125,-0.390625 C0.822917,-0.755208 0.53125,-1.29688 0.40625,-2.01563 M7.85938,-7.98438 L7.85938,-9.3125 L9,-9.3125 L9,-7.98438 L7.85938,-7.98438 M7.85938,0 L7.85938,-6.73438 L9,-6.73438 L9,0 L7.85938,0 M10.8594,0 L10.8594,-6.73438 L11.875,-6.73438 L11.875,-5.79688 C12.0938,-6.13021 12.3776,-6.39583 12.7266,-6.59375 C13.0755,-6.79167 13.474,-6.89063 13.9219,-6.89063 C14.4219,-6.89063 14.8307,-6.78646 15.1484,-6.57813 C15.4661,-6.36979 15.6927,-6.08333 15.8281,-5.71875 C16.3594,-6.5 17.0521,-6.89063 17.9063,-6.89063 C18.5729,-6.89063 19.0859,-6.70573 19.4453,-6.33594 C19.8047,-5.96615 19.9844,-5.39583 19.9844,-4.625 L19.9844,0 L18.8594,0 L18.8594,-4.25 C18.8594,-4.70833 18.8229,-5.03646 18.75,-5.23438 C18.6771,-5.43229 18.5417,-5.59375 18.3438,-5.71875 C18.1458,-5.84375 17.9167,-5.90625 17.6563,-5.90625 C17.1771,-5.90625 16.7813,-5.7474 16.4688,-5.42969 C16.1563,-5.11198 16,-4.60938 16,-3.92188 L16,0 L14.8594,0 L14.8594,-4.375 C14.8594,-4.88542 14.7656,-5.26823 14.5781,-5.52344 C14.3906,-5.77865 14.0885,-5.90625 13.6719,-5.90625 C13.349,-5.90625 13.0521,-5.82031 12.7813,-5.64844 C12.5104,-5.47656 12.3125,-5.22917 12.1875,-4.90625 C12.0625,-4.58333 12,-4.11458 12,-3.5 L12,0 L10.8594,0 M26.2813,0 L26.2813,-0.984375 C25.75,-0.223958 25.0365,0.15625 24.1406,0.15625 C23.7448,0.15625 23.3724,0.078125 23.0234,-0.078125 C22.6745,-0.234375 22.4167,-0.427083 22.25,-0.65625 C22.0833,-0.885417 21.9688,-1.16667 21.9063,-1.5 C21.8542,-1.71875 21.8281,-2.07292 21.8281,-2.5625 L21.8281,-6.73438 L22.9688,-6.73438 L22.9688,-3 C22.9688,-2.40625 22.9948,-2.00521 23.0469,-1.79688 C23.1198,-1.49479 23.2708,-1.25781 23.5,-1.08594 C23.7292,-0.914063 24.0156,-0.828125 24.3594,-0.828125 C24.7031,-0.828125 25.026,-0.916667 25.3281,-1.09375 C25.6302,-1.27083 25.8438,-1.51042 25.9688,-1.8125 C26.0938,-2.11458 26.1563,-2.55208 26.1563,-3.125 L26.1563,-6.73438 L27.2969,-6.73438 L27.2969,0 L26.2813,0 M28.8281,0 L28.8281,-9.3125 L29.9688,-9.3125 L29.9688,0 L28.8281,0 M36.25,-0.828125 C35.8333,-0.473958 35.4297,-0.221354 35.0391,-0.0703125 C34.6484,0.0807292 34.2292,0.15625 33.7813,0.15625 C33.0313,0.15625 32.4583,-0.0260417 32.0625,-0.390625 C31.6667,-0.755208 31.4688,-1.21875 31.4688,-1.78125 C31.4688,-2.10417 31.5443,-2.40365 31.6953,-2.67969 C31.8464,-2.95573 32.0443,-3.17708 32.2891,-3.34375 C32.5339,-3.51042 32.8073,-3.63542 33.1094,-3.71875 C33.3281,-3.77083 33.6667,-3.82813 34.125,-3.89063 C35.0417,-3.99479 35.7188,-4.125 36.1563,-4.28125 C36.1667,-4.4375 36.1719,-4.53646 36.1719,-4.57813 C36.1719,-5.04688 36.0625,-5.375 35.8438,-5.5625 C35.5521,-5.82292 35.1198,-5.95313 34.5469,-5.95313 C34.0052,-5.95313 33.6068,-5.85938 33.3516,-5.67188 C33.0964,-5.48438 32.9063,-5.15104 32.7813,-4.67188 L31.6719,-4.8125 C31.7656,-5.29167 31.9297,-5.67969 32.1641,-5.97656 C32.3984,-6.27344 32.737,-6.5 33.1797,-6.65625 C33.6224,-6.8125 34.1302,-6.89063 34.7031,-6.89063 C35.2865,-6.89063 35.7578,-6.82292 36.1172,-6.6875 C36.4766,-6.55208 36.7396,-6.38281 36.9063,-6.17969 C37.0729,-5.97656 37.1927,-5.71875 37.2656,-5.40625 C37.2969,-5.20833 37.3125,-4.85417 37.3125,-4.34375 L37.3125,-2.82813 C37.3125,-1.76563 37.3385,-1.09375 37.3906,-0.8125 C37.4427,-0.53125 37.5365,-0.260417 37.6719,0 L36.4844,0 C36.3698,-0.239583 36.2917,-0.515625 36.25,-0.828125 M36.1563,-3.39063 C35.7396,-3.21354 35.1198,-3.06771 34.2969,-2.95313 C33.8281,-2.88021 33.4948,-2.80208 33.2969,-2.71875 C33.099,-2.63542 32.9479,-2.51302 32.8438,-2.35156 C32.7396,-2.1901 32.6875,-2.01042 32.6875,-1.8125 C32.6875,-1.51042 32.8021,-1.25781 33.0313,-1.05469 C33.2604,-0.851563 33.599,-0.75 34.0469,-0.75 C34.4844,-0.75 34.875,-0.846354 35.2188,-1.03906 C35.5625,-1.23177 35.8177,-1.49479 35.9844,-1.82813 C36.099,-2.07813 36.1563,-2.45833 36.1563,-2.96875 L36.1563,-3.39063 M41.3594,-1.01563 L41.5156,-0.015625 C41.1927,0.0572917 40.9063,0.09375 40.6563,0.09375 C40.2396,0.09375 39.9167,0.0260417 39.6875,-0.109375 C39.4583,-0.244792 39.2969,-0.419271 39.2031,-0.632813 C39.1094,-0.846354 39.0625,-1.29167 39.0625,-1.96875 L39.0625,-5.85938 L38.2344,-5.85938 L38.2344,-6.73438 L39.0625,-6.73438 L39.0625,-8.40625 L40.2031,-9.09375 L40.2031,-6.73438 L41.3594,-6.73438 L41.3594,-5.85938 L40.2031,-5.85938 L40.2031,-1.90625 C40.2031,-1.58333 40.224,-1.375 40.2656,-1.28125 C40.3073,-1.1875 40.3724,-1.11458 40.4609,-1.0625 C40.5495,-1.01042 40.6771,-0.984375 40.8438,-0.984375 C40.9792,-0.984375 41.151,-0.994792 41.3594,-1.01563 M42.8594,-7.98438 L42.8594,-9.3125 L44,-9.3125 L44,-7.98438 L42.8594,-7.98438 M42.8594,0 L42.8594,-6.73438 L44,-6.73438 L44,0 L42.8594,0 M45.4375,-3.375 C45.4375,-4.625 45.7813,-5.54688 46.4688,-6.14063 C47.0521,-6.64063 47.7604,-6.89063 48.5938,-6.89063 C49.5208,-6.89063 50.2786,-6.58854 50.8672,-5.98438 C51.4557,-5.38021 51.75,-4.54167 51.75,-3.46875 C51.75,-2.60417 51.6198,-1.92188 51.3594,-1.42188 C51.099,-0.921875 50.7188,-0.533854 50.2188,-0.257813 C49.7188,0.0182292 49.1771,0.15625 48.5938,0.15625 C47.6458,0.15625 46.8828,-0.145833 46.3047,-0.75 C45.7266,-1.35417 45.4375,-2.22917 45.4375,-3.375 M46.6094,-3.375 C46.6094,-2.51042 46.7969,-1.86198 47.1719,-1.42969 C47.5469,-0.997396 48.0208,-0.78125 48.5938,-0.78125 C49.1563,-0.78125 49.6276,-0.997396 50.0078,-1.42969 C50.388,-1.86198 50.5781,-2.52083 50.5781,-3.40625 C50.5781,-4.23958 50.388,-4.8724 50.0078,-5.30469 C49.6276,-5.73698 49.1563,-5.95313 48.5938,-5.95313 C48.0208,-5.95313 47.5469,-5.73958 47.1719,-5.3125 C46.7969,-4.88542 46.6094,-4.23958 46.6094,-3.375 M52.8594,0 L52.8594,-6.73438 L53.8906,-6.73438 L53.8906,-5.78125 C54.3802,-6.52083 55.0938,-6.89063 56.0313,-6.89063 C56.4375,-6.89063 56.8099,-6.81771 57.1484,-6.67188 C57.487,-6.52604 57.7422,-6.33594 57.9141,-6.10156 C58.0859,-5.86719 58.2031,-5.58333 58.2656,-5.25 C58.3073,-5.04167 58.3281,-4.67188 58.3281,-4.14063 L58.3281,0 L57.1875,0 L57.1875,-4.09375 C57.1875,-4.5625 57.1432,-4.91146 57.0547,-5.14063 C56.9661,-5.36979 56.8099,-5.55469 56.5859,-5.69531 C56.362,-5.83594 56.099,-5.90625 55.7969,-5.90625 C55.3073,-5.90625 54.8854,-5.7526 54.5313,-5.44531 C54.1771,-5.13802 54,-4.55208 54,-3.6875 L54,0 L52.8594,0"/>
</g>

<g fill="none" stroke="#1171be" stroke-opacity="1" stroke-width="2" stroke-linecap="butt" stroke-linejoin="round" transform="matrix(0.75,0,0,0.75,0,0)"
font-family="MS Shell Dlg 2" font-size="8.25" font-weight="400" font-style="normal" 
>
<polyline fill="none" vector-effect="none" points="84,131.1 86.49,130.135 88.98,125.178 91.47,116.897 93.96,106.862 96.45,96.4579 98.94,87.4278 101.43,80.8746 103.92,76.7582 106.41,74.1071 108.9,72.2705 111.39,70.86 113.88,69.5144 116.37,68.0201 118.86,66.4499 121.35,64.9721 123.84,63.8198 126.33,63.1322 128.82,62.6594 131.31,62.4175 133.8,62.2705 136.29,62.0889 138.78,61.8613 141.27,61.5964 143.76,61.4454 146.25,61.3424 148.74,61.3639 151.23,61.3169 153.72,61.2618 156.21,61.0576 158.7,60.8856 161.19,60.8652 163.68,60.907 166.17,60.7722 168.66,60.6682 171.15,60.7106 173.64,60.6845 176.13,60.6439 178.62,60.7001 181.11,60.791 183.6,60.8114 186.09,60.8569 188.58,60.7864 191.07,60.7904 193.56,60.8012 196.05,60.7468 198.54,60.8084 201.03,60.7447 203.52,60.7266 206.01,60.6704 208.5,60.6399 210.99,60.7906 213.48,60.8737 215.97,60.8194 218.46,60.8224 220.95,60.9225 223.44,61.0712 225.93,61.0404 228.42,61.0139 230.91,61.0835 233.4,61.024 235.89,61.0185 238.38,60.9831 240.87,60.9654 243.36,60.9219 245.85,60.778 248.34,60.7067 250.83,60.5874 253.32,59.8979 255.81,58.5363 258.3,56.6847 260.79,54.6684 263.28,52.7538 265.77,50.7262 268.26,48.9625 270.75,47.5325 273.24,46.3099 275.73,45.332 278.22,44.4188 280.71,43.3246 283.2,42.4976 285.69,41.9848 288.18,41.6743 290.67,41.3302 293.16,41.0094 295.65,40.7849 298.14,40.6373 300.63,40.5394 303.12,40.3592 305.61,40.079 308.1,39.8007 310.59,39.254 313.08,38.8476 315.57,38.6063 318.06,38.6223 320.55,38.7251 323.04,38.5521 325.53,38.2787 328.02,38.0324 330.51,37.844 333,37.7729 335.49,37.6656 337.98,37.7457 340.47,37.5109 342.96,37.4586 345.45,37.4288 347.94,37.3261 350.43,37.2656 352.92,37.2447 355.41,37.4462 357.9,37.3516 360.39,37.2861 362.88,37.3146 365.37,37.3503 367.86,37.2474 370.35,37.3906 372.84,37.3796 375.33,37.3508 377.82,37.4505 380.31,37.5191 382.8,37.7516 385.29,37.7407 387.78,37.7103 390.27,37.602 392.76,37.519 395.25,37.4109 397.74,37.4053 400.23,37.4875 402.72,37.3836 405.21,37.4329 407.7,37.4848 410.19,37.442 412.68,37.3239 415.17,37.575 417.66,39.8175 420.15,44.6586 422.64,51.6234 425.13,59.9394 427.62,68.7223 430.11,77.0996 432.6,84.5126 435.09,90.8914 437.58,96.2357 440.07,100.788 442.56,105.03 445.05,109.064 447.54,112.866 450.03,116.205 452.52,119.287 455.01,121.669 457.5,123.675 459.99,125.055 462.48,126.251 464.97,126.99 467.46,127.582 469.95,127.922 472.44,128.332 474.93,128.591 477.42,128.97 479.91,129.436 482.4,129.971 484.89,130.544 487.38,131.154 489.87,131.424 492.36,131.678 494.85,131.914 497.34,131.937 499.83,131.895 502.32,131.91 504.81,131.94 507.3,129.585 509.79,117.356 512.28,98.2602 514.77,78.3852 517.26,63.4071 519.75,57.4276 522.24,62.5379 524.73,78.3624 527.22,102.531 529.71,129.982 532.2,153.438 534.69,168.602 537.18,173.077 539.67,166.808 542.16,151.633 544.65,131.028 547.14,109.739 549.63,92.2302 552.12,82.34 554.61,82.1059 557.1,91.4776 559.59,108.758 562.08,130.061 564.57,151.36 567.06,168.116 569.55,176.891 572.04,176.288 574.53,166.421 577.02,149.552 579.51,129.086 582,109.354 " />
</g>

<g fill="none" stroke="#dd5400" stroke-opacity="1" stroke-width="2" stroke-linecap="butt" stroke-linejoin="round" transform="matrix(0.75,0,0,0.75,0,0)"
font-family="MS Shell Dlg 2" font-size="8.25" font-weight="400" font-style="normal" 
>
<polyline fill="none" vector-effect="none" points="84,131.1 86.49,129.935 88.98,124.328 91.47,116.629 93.96,106.89 96.45,96.4389 98.94,87.3215 101.43,80.7196 103.92,76.5638 106.41,73.9161 108.9,72.0584 111.39,70.6326 113.88,69.3045 116.37,67.8313 118.86,66.2668 121.35,64.7951 123.84,63.6363 126.33,62.9348 128.82,62.479 131.31,62.2194 133.8,62.0737 136.29,61.9019 138.78,61.6732 141.27,61.4115 143.76,61.2488 146.25,61.1532 148.74,61.1617 151.23,61.13 153.72,61.067 156.21,60.8809 158.7,60.6969 161.19,60.6658 163.68,60.7164 166.17,60.6041 168.66,60.4777 171.15,60.5112 173.64,60.5114 176.13,60.4604 178.62,60.502 181.11,60.6012 183.6,60.6294 186.09,60.6603 188.58,60.6085 191.07,60.5949 193.56,60.612 196.05,60.5677 198.54,60.6063 201.03,60.5703 203.52,60.5353 206.01,60.4878 208.5,60.4549 210.99,60.5841 213.48,60.6902 215.97,60.6411 218.46,60.6218 220.95,60.7211 223.44,60.8714 225.93,60.8587 228.42,60.8121 230.91,60.874 233.4,60.8423 235.89,60.8133 238.38,60.7866 240.87,60.7678 243.36,60.7269 245.85,60.5944 248.34,60.5077 250.83,60.3896 253.32,59.7017 255.81,58.3217 258.3,56.4649 260.79,54.4421 263.28,52.5168 265.77,50.5257 268.26,48.7288 270.75,47.2944 273.24,46.0865 275.73,45.0912 278.22,44.1894 280.71,43.126 283.2,42.2549 285.69,41.741 288.18,41.4359 290.67,41.0977 293.16,40.7617 295.65,40.5281 298.14,40.3792 300.63,40.274 303.12,40.1004 305.61,39.8211 308.1,39.5348 310.59,39.0282 313.08,38.5874 315.57,38.3499 318.06,38.3551 320.55,38.4585 323.04,38.3157 325.53,38.0254 328.02,37.7776 330.51,37.5979 333,37.5182 335.49,37.4244 337.98,37.4764 340.47,37.2968 342.96,37.1931 345.45,37.1822 347.94,37.0964 350.43,37.0175 352.92,37 355.41,37.1801 357.9,37.1363 360.39,37.0343 362.88,37.0587 365.37,37.1105 367.86,37.0181 370.35,37.1158 372.84,37.1511 375.33,37.1065 377.82,37.1841 380.31,37.2738 382.8,37.476 385.29,37.5018 387.78,37.4485 390.27,37.35 392.76,37.265 395.25,37.1636 397.74,37.1449 400.23,37.2259 402.72,37.1505 405.21,37.1596 407.7,37.2285 410.19,37.1982 412.68,37.0749 415.17,37.342 417.66,39.6404 420.15,44.5354 422.64,51.4748 425.13,59.7584 427.62,68.5368 430.11,76.9329 432.6,84.3762 435.09,90.7792 437.58,96.1699 440.07,100.75 442.56,104.98 445.05,109.026 447.54,112.835 450.03,116.195 452.52,119.252 455.01,121.69 457.5,123.671 459.99,125.077 462.48,126.239 464.97,127.012 467.46,127.589 469.95,127.941 472.44,128.321 474.93,128.607 477.42,128.966 479.91,129.428 482.4,129.965 484.89,130.538 487.38,131.138 489.87,131.449 492.36,131.663 494.85,131.881 497.34,131.935 499.83,131.895 502.32,131.897 504.81,131.929 507.3,129.51 509.79,117.022 512.28,97.9301 514.77,78.2738 517.26,63.4398 519.75,57.4814 522.24,62.5477 524.73,78.3524 527.22,102.502 529.71,129.945 532.2,153.384 534.69,168.541 537.18,173.064 539.67,166.817 542.16,151.648 544.65,131.051 547.14,109.743 549.63,92.2495 552.12,82.3443 554.61,82.0998 557.1,91.4733 559.59,108.725 562.08,130.071 564.57,151.334 567.06,168.096 569.55,176.897 572.04,176.273 574.53,166.425 577.02,149.543 579.51,129.09 582,109.361 " />
</g>

<g fill="none" stroke="#ff0000" stroke-opacity="1" stroke-dasharray="10,6" stroke-dashoffset="0" stroke-width="1.33333" stroke-linecap="butt" stroke-linejoin="round" transform="matrix(0.75,0,0,0.75,0,0)"
font-family="MS Shell Dlg 2" font-size="8.25" font-weight="400" font-style="normal" 
>
<polyline fill="none" vector-effect="none" points="84,60.7489 86.49,60.7489 88.98,60.7489 91.47,60.7489 93.96,60.7489 96.45,60.7489 98.94,60.7489 101.43,60.7489 103.92,60.7489 106.41,60.7489 108.9,60.7489 111.39,60.7489 113.88,60.7489 116.37,60.7489 118.86,60.7489 121.35,60.7489 123.84,60.7489 126.33,60.7489 128.82,60.7489 131.31,60.7489 133.8,60.7489 136.29,60.7489 138.78,60.7489 141.27,60.7489 143.76,60.7489 146.25,60.7489 148.74,60.7489 151.23,60.7489 153.72,60.7489 156.21,60.7489 158.7,60.7489 161.19,60.7489 163.68,60.7489 166.17,60.7489 168.66,60.7489 171.15,60.7489 173.64,60.7489 176.13,60.7489 178.62,60.7489 181.11,60.7489 183.6,60.7489 186.09,60.7489 188.58,60.7489 191.07,60.7489 193.56,60.7489 196.05,60.7489 198.54,60.7489 201.03,60.7489 203.52,60.7489 206.01,60.7489 208.5,60.7489 210.99,60.7489 213.48,60.7489 215.97,60.7489 218.46,60.7489 220.95,60.7489 223.44,60.7489 225.93,60.7489 228.42,60.7489 230.91,60.7489 233.4,60.7489 235.89,60.7489 238.38,60.7489 240.87,60.7489 243.36,60.7489 245.85,60.7489 248.34,60.7489 250.83,37.2987 253.32,37.2987 255.81,37.2987 258.3,37.2987 260.79,37.2987 263.28,37.2987 265.77,37.2987 268.26,37.2987 270.75,37.2987 273.24,37.2987 275.73,37.2987 278.22,37.2987 280.71,37.2987 283.2,37.2987 285.69,37.2987 288.18,37.2987 290.67,37.2987 293.16,37.2987 295.65,37.2987 298.14,37.2987 300.63,37.2987 303.12,37.2987 305.61,37.2987 308.1,37.2987 310.59,37.2987 313.08,37.2987 315.57,37.2987 318.06,37.2987 320.55,37.2987 323.04,37.2987 325.53,37.2987 328.02,37.2987 330.51,37.2987 333,37.2987 335.49,37.2987 337.98,37.2987 340.47,37.2987 342.96,37.2987 345.45,37.2987 347.94,37.2987 350.43,37.2987 352.92,37.2987 355.41,37.2987 357.9,37.2987 360.39,37.2987 362.88,37.2987 365.37,37.2987 367.86,37.2987 370.35,37.2987 372.84,37.2987 375.33,37.2987 377.82,37.2987 380.31,37.2987 382.8,37.2987 385.29,37.2987 387.78,37.2987 390.27,37.2987 392.76,37.2987 395.25,37.2987 397.74,37.2987 400.23,37.2987 402.72,37.2987 405.21,37.2987 407.7,37.2987 410.19,37.2987 412.68,37.2987 415.17,131.1 417.66,131.1 420.15,131.1 422.64,131.1 425.13,131.1 427.62,131.1 430.11,131.1 432.6,131.1 435.09,131.1 437.58,131.1 440.07,131.1 442.56,131.1 445.05,131.1 447.54,131.1 450.03,131.1 452.52,131.1 455.01,131.1 457.5,131.1 459.99,131.1 462.48,131.1 464.97,131.1 467.46,131.1 469.95,131.1 472.44,131.1 474.93,131.1 477.42,131.1 479.91,131.1 482.4,131.1 484.89,131.1 487.38,131.1 489.87,131.1 492.36,131.1 494.85,131.1 497.34,131.1 499.83,131.1 502.32,131.1 504.81,131.1 507.3,131.1 509.79,131.1 512.28,131.1 514.77,131.1 517.26,131.1 519.75,131.1 522.24,131.1 524.73,131.1 527.22,131.1 529.71,131.1 532.2,131.1 534.69,131.1 537.18,131.1 539.67,131.1 542.16,131.1 544.65,131.1 547.14,131.1 549.63,131.1 552.12,131.1 554.61,131.1 557.1,131.1 559.59,131.1 562.08,131.1 564.57,131.1 567.06,131.1 569.55,131.1 572.04,131.1 574.53,131.1 577.02,131.1 579.51,131.1 582,131.1 " />
</g>

<g fill="#000000" fill-opacity="0.701961" stroke="#000000" stroke-opacity="0.701961" stroke-dasharray="10,6" stroke-dashoffset="0" stroke-width="0.666667" stroke-linecap="butt" stroke-linejoin="round" transform="matrix(0.75,0,0,0.75,0,0)"
font-family="MS Shell Dlg 2" font-size="8.25" font-weight="400" font-style="normal" 
>
<polyline fill="none" vector-effect="none" points="84,178 84,37 " />
</g>

<g fill="#ffffff" fill-opacity="1" stroke="none" transform="matrix(7.5e-05,0,0,7.5e-05,0,0)"
font-family="MS Shell Dlg 2" font-size="8.25" font-weight="400" font-style="normal" 
>
<path vector-effect="none" fill-rule="evenodd" d="M2.77e+06,1.16e+06 L2.77e+06,1.69e+06 L3.88e+06,1.69e+06 L3.88e+06,1.16e+06 L2.77e+06,1.16e+06"/>
</g>

<g fill="#1171be" fill-opacity="1" stroke="#1171be" stroke-opacity="1" stroke-width="2" stroke-linecap="butt" stroke-linejoin="round" transform="matrix(0.75,0,0,0.75,0,0)"
font-family="MS Shell Dlg 2" font-size="8.25" font-weight="400" font-style="normal" 
>
<polyline fill="none" vector-effect="none" points="281,123.925 321,123.925 " />
</g>

<g fill="#dd5400" fill-opacity="1" stroke="#dd5400" stroke-opacity="1" stroke-width="2" stroke-linecap="butt" stroke-linejoin="round" transform="matrix(0.75,0,0,0.75,0,0)"
font-family="MS Shell Dlg 2" font-size="8.25" font-weight="400" font-style="normal" 
>
<polyline fill="none" vector-effect="none" points="281,136.308 321,136.308 " />
</g>

<g fill="#ff0000" fill-opacity="1" stroke="#ff0000" stroke-opacity="1" stroke-dasharray="10,6" stroke-dashoffset="0" stroke-width="1.33333" stroke-linecap="butt" stroke-linejoin="round" transform="matrix(0.75,0,0,0.75,0,0)"
font-family="MS Shell Dlg 2" font-size="8.25" font-weight="400" font-style="normal" 
>
<polyline fill="none" vector-effect="none" points="281,148.692 321,148.692 " />
</g>

<g fill="#000000" fill-opacity="0.701961" stroke="#000000" stroke-opacity="0.701961" stroke-dasharray="10,6" stroke-dashoffset="0" stroke-width="0.666667" stroke-linecap="butt" stroke-linejoin="round" transform="matrix(0.75,0,0,0.75,0,0)"
font-family="MS Shell Dlg 2" font-size="8.25" font-weight="400" font-style="normal" 
>
<polyline fill="none" vector-effect="none" points="281,161.075 321,161.075 " />
</g>

<g fill="#212121" fill-opacity="1" stroke="none" transform="matrix(0.75,0,0,0.75,243,95.5689)"
font-family="MS Shell Dlg 2" font-size="8.25" font-weight="400" font-style="normal" 
>
<path vector-effect="none" fill-rule="evenodd" d="M0.078125,0 L1.96875,-2.70313 L0.21875,-5.1875 L1.3125,-5.1875 L2.10938,-3.96875 C2.25521,-3.73958 2.375,-3.54688 2.46875,-3.39063 C2.61458,-3.60938 2.74479,-3.79688 2.85938,-3.95313 L3.73438,-5.1875 L4.79688,-5.1875 L3,-2.75 L4.92188,0 L3.84375,0 L2.78125,-1.60938 L2.5,-2.04688 L1.14063,0 L0.078125,0 M8.71875,0 L7.84375,0 L7.84375,-5.59375 C7.63542,-5.39583 7.35938,-5.19531 7.01563,-4.99219 C6.67188,-4.78906 6.36458,-4.64063 6.09375,-4.54688 L6.09375,-5.39063 C6.58333,-5.61979 7.01302,-5.89844 7.38281,-6.22656 C7.7526,-6.55469 8.01042,-6.875 8.15625,-7.1875 L8.71875,-7.1875 L8.71875,0"/>
</g>

<g fill="#212121" fill-opacity="1" stroke="none" transform="matrix(0.75,0,0,0.75,243,104.856)"
font-family="MS Shell Dlg 2" font-size="8.25" font-weight="400" font-style="normal" 
>
<path vector-effect="none" fill-rule="evenodd" d="M0.078125,0 L1.96875,-2.70313 L0.21875,-5.1875 L1.3125,-5.1875 L2.10938,-3.96875 C2.25521,-3.73958 2.375,-3.54688 2.46875,-3.39063 C2.61458,-3.60938 2.74479,-3.79688 2.85938,-3.95313 L3.73438,-5.1875 L4.79688,-5.1875 L3,-2.75 L4.92188,0 L3.84375,0 L2.78125,-1.60938 L2.5,-2.04688 L1.14063,0 L0.078125,0 M10.0313,-0.84375 L10.0313,0 L5.29688,0 C5.29688,-0.208333 5.33333,-0.411458 5.40625,-0.609375 C5.53125,-0.932292 5.72396,-1.25 5.98438,-1.5625 C6.24479,-1.875 6.63021,-2.23438 7.14063,-2.64063 C7.91146,-3.28646 8.4349,-3.79427 8.71094,-4.16406 C8.98698,-4.53385 9.125,-4.88542 9.125,-5.21875 C9.125,-5.57292 9,-5.86719 8.75,-6.10156 C8.5,-6.33594 8.17708,-6.45313 7.78125,-6.45313 C7.35417,-6.45313 7.01302,-6.32813 6.75781,-6.07813 C6.5026,-5.82813 6.375,-5.47917 6.375,-5.03125 L5.46875,-5.125 C5.53125,-5.79167 5.76302,-6.30208 6.16406,-6.65625 C6.5651,-7.01042 7.10938,-7.1875 7.79688,-7.1875 C8.48438,-7.1875 9.02865,-6.9974 9.42969,-6.61719 C9.83073,-6.23698 10.0313,-5.76563 10.0313,-5.20313 C10.0313,-4.91146 9.97135,-4.6276 9.85156,-4.35156 C9.73177,-4.07552 9.53646,-3.78385 9.26563,-3.47656 C8.99479,-3.16927 8.54167,-2.75 7.90625,-2.21875 C7.38542,-1.78125 7.04948,-1.48177 6.89844,-1.32031 C6.7474,-1.15885 6.625,-1 6.53125,-0.84375 L10.0313,-0.84375"/>
</g>

<g fill="#212121" fill-opacity="1" stroke="none" transform="matrix(0.75,0,0,0.75,243,114.144)"
font-family="MS Shell Dlg 2" font-size="8.25" font-weight="400" font-style="normal" 
>
<path vector-effect="none" fill-rule="evenodd" d="M0.65625,0 L0.65625,-5.1875 L1.4375,-5.1875 L1.4375,-4.40625 C1.64583,-4.77083 1.83333,-5.01042 2,-5.125 C2.16667,-5.23958 2.35417,-5.29688 2.5625,-5.29688 C2.86458,-5.29688 3.16667,-5.20313 3.46875,-5.01563 L3.17188,-4.20313 C2.95313,-4.32813 2.73438,-4.39063 2.51563,-4.39063 C2.32813,-4.39063 2.15625,-4.33333 2,-4.21875 C1.84375,-4.10417 1.73438,-3.94271 1.67188,-3.73438 C1.57813,-3.42188 1.53125,-3.08333 1.53125,-2.71875 L1.53125,0 L0.65625,0 M7.20313,-1.67188 L8.125,-1.5625 C7.97917,-1.03125 7.71094,-0.617188 7.32031,-0.320313 C6.92969,-0.0234375 6.4375,0.125 5.84375,0.125 C5.08333,0.125 4.47917,-0.109375 4.03125,-0.578125 C3.58333,-1.04688 3.35938,-1.70313 3.35938,-2.54688 C3.35938,-3.42188 3.58594,-4.09896 4.03906,-4.57813 C4.49219,-5.05729 5.07292,-5.29688 5.78125,-5.29688 C6.47917,-5.29688 7.04688,-5.0625 7.48438,-4.59375 C7.92188,-4.125 8.14063,-3.46354 8.14063,-2.60938 C8.14063,-2.55729 8.14063,-2.47917 8.14063,-2.375 L4.28125,-2.375 C4.3125,-1.80208 4.47135,-1.36458 4.75781,-1.0625 C5.04427,-0.760417 5.40625,-0.609375 5.84375,-0.609375 C6.16667,-0.609375 6.44271,-0.692708 6.67188,-0.859375 C6.90104,-1.02604 7.07813,-1.29688 7.20313,-1.67188 M4.32813,-3.09375 L7.21875,-3.09375 C7.17708,-3.53125 7.06771,-3.85938 6.89063,-4.07813 C6.60938,-4.41146 6.24479,-4.57813 5.79688,-4.57813 C5.39063,-4.57813 5.05208,-4.44271 4.78125,-4.17188 C4.51042,-3.90104 4.35938,-3.54167 4.32813,-3.09375 M9.875,0 L9.875,-4.5 L9.09375,-4.5 L9.09375,-5.1875 L9.875,-5.1875 L9.875,-5.73438 C9.875,-6.08854 9.90625,-6.34896 9.96875,-6.51563 C10.0521,-6.74479 10.2005,-6.92969 10.4141,-7.07031 C10.6276,-7.21094 10.9271,-7.28125 11.3125,-7.28125 C11.5521,-7.28125 11.8229,-7.25 12.125,-7.1875 L12,-6.42188 C11.8125,-6.45313 11.6354,-6.46875 11.4688,-6.46875 C11.2083,-6.46875 11.0234,-6.41406 10.9141,-6.30469 C10.8047,-6.19531 10.75,-5.98438 10.75,-5.67188 L10.75,-5.1875 L11.75,-5.1875 L11.75,-4.5 L10.75,-4.5 L10.75,0 L9.875,0"/>
</g>

<g fill="#212121" fill-opacity="1" stroke="none" transform="matrix(0.75,0,0,0.75,243,123.431)"
font-family="MS Shell Dlg 2" font-size="8.25" font-weight="400" font-style="normal" 
>
<path vector-effect="none" fill-rule="evenodd" d="M5.875,-2.51563 L6.82813,-2.26563 C6.63021,-1.49479 6.27344,-0.903646 5.75781,-0.492188 C5.24219,-0.0807292 4.60938,0.125 3.85938,0.125 C3.08854,0.125 2.46094,-0.0338542 1.97656,-0.351563 C1.49219,-0.669271 1.125,-1.125 0.875,-1.71875 C0.625,-2.3125 0.5,-2.95313 0.5,-3.64063 C0.5,-4.38021 0.643229,-5.02865 0.929688,-5.58594 C1.21615,-6.14323 1.6224,-6.5651 2.14844,-6.85156 C2.67448,-7.13802 3.25,-7.28125 3.875,-7.28125 C4.59375,-7.28125 5.19792,-7.09896 5.6875,-6.73438 C6.17708,-6.36979 6.51563,-5.85938 6.70313,-5.20313 L5.76563,-4.96875 C5.59896,-5.48958 5.35938,-5.86979 5.04688,-6.10938 C4.73438,-6.34896 4.33854,-6.46875 3.85938,-6.46875 C3.30729,-6.46875 2.84635,-6.33594 2.47656,-6.07031 C2.10677,-5.80469 1.84635,-5.45052 1.69531,-5.00781 C1.54427,-4.5651 1.46875,-4.10938 1.46875,-3.64063 C1.46875,-3.02604 1.55729,-2.49219 1.73438,-2.03906 C1.91146,-1.58594 2.1875,-1.2474 2.5625,-1.02344 C2.9375,-0.799479 3.34375,-0.6875 3.78125,-0.6875 C4.3125,-0.6875 4.76302,-0.841146 5.13281,-1.14844 C5.5026,-1.45573 5.75,-1.91146 5.875,-2.51563 M7.32813,-2.59375 C7.32813,-3.55208 7.59896,-4.26563 8.14063,-4.73438 C8.57813,-5.10938 9.11979,-5.29688 9.76563,-5.29688 C10.474,-5.29688 11.0547,-5.0651 11.5078,-4.60156 C11.9609,-4.13802 12.1875,-3.49479 12.1875,-2.67188 C12.1875,-2.00521 12.0885,-1.47917 11.8906,-1.09375 C11.6927,-0.708333 11.401,-0.408854 11.0156,-0.195313 C10.6302,0.0182292 10.2135,0.125 9.76563,0.125 C9.03646,0.125 8.44792,-0.109375 8,-0.578125 C7.55208,-1.04688 7.32813,-1.71875 7.32813,-2.59375 M8.23438,-2.59375 C8.23438,-1.92708 8.38021,-1.42969 8.67188,-1.10156 C8.96354,-0.773438 9.32813,-0.609375 9.76563,-0.609375 C10.2031,-0.609375 10.5651,-0.776042 10.8516,-1.10938 C11.138,-1.44271 11.2813,-1.94792 11.2813,-2.625 C11.2813,-3.26042 11.1354,-3.74479 10.8438,-4.07813 C10.5521,-4.41146 10.1927,-4.57813 9.76563,-4.57813 C9.32813,-4.57813 8.96354,-4.41406 8.67188,-4.08594 C8.38021,-3.75781 8.23438,-3.26042 8.23438,-2.59375 M13.6563,0 L13.6563,-5.1875 L14.4531,-5.1875 L14.4531,-4.45313 C14.8281,-5.01563 15.375,-5.29688 16.0938,-5.29688 C16.4063,-5.29688 16.6953,-5.24219 16.9609,-5.13281 C17.2266,-5.02344 17.4245,-4.8776 17.5547,-4.69531 C17.6849,-4.51302 17.776,-4.29688 17.8281,-4.04688 C17.8594,-3.88021 17.875,-3.59375 17.875,-3.1875 L17.875,0 L17,0 L17,-3.15625 C17,-3.51042 16.9661,-3.77604 16.8984,-3.95313 C16.8307,-4.13021 16.7083,-4.27344 16.5313,-4.38281 C16.3542,-4.49219 16.151,-4.54688 15.9219,-4.54688 C15.5469,-4.54688 15.2214,-4.42708 14.9453,-4.1875 C14.6693,-3.94792 14.5313,-3.49479 14.5313,-2.82813 L14.5313,0 L13.6563,0 M21.5781,-0.78125 L21.7031,-0.015625 C21.4531,0.0364583 21.2344,0.0625 21.0469,0.0625 C20.724,0.0625 20.474,0.0130208 20.2969,-0.0859375 C20.1198,-0.184896 19.9974,-0.317708 19.9297,-0.484375 C19.862,-0.651042 19.8281,-0.994792 19.8281,-1.51563 L19.8281,-4.5 L19.1719,-4.5 L19.1719,-5.1875 L19.8281,-5.1875 L19.8281,-6.46875 L20.6875,-7 L20.6875,-5.1875 L21.5781,-5.1875 L21.5781,-4.5 L20.6875,-4.5 L20.6875,-1.46875 C20.6875,-1.21875 20.7031,-1.05729 20.7344,-0.984375 C20.7656,-0.911458 20.8177,-0.854167 20.8906,-0.8125 C20.9635,-0.770833 21.0625,-0.75 21.1875,-0.75 C21.2917,-0.75 21.4219,-0.760417 21.5781,-0.78125 M22.6563,0 L22.6563,-5.1875 L23.4375,-5.1875 L23.4375,-4.40625 C23.6458,-4.77083 23.8333,-5.01042 24,-5.125 C24.1667,-5.23958 24.3542,-5.29688 24.5625,-5.29688 C24.8646,-5.29688 25.1667,-5.20313 25.4688,-5.01563 L25.1719,-4.20313 C24.9531,-4.32813 24.7344,-4.39063 24.5156,-4.39063 C24.3281,-4.39063 24.1563,-4.33333 24,-4.21875 C23.8438,-4.10417 23.7344,-3.94271 23.6719,-3.73438 C23.5781,-3.42188 23.5313,-3.08333 23.5313,-2.71875 L23.5313,0 L22.6563,0 M25.3281,-2.59375 C25.3281,-3.55208 25.599,-4.26563 26.1406,-4.73438 C26.5781,-5.10938 27.1198,-5.29688 27.7656,-5.29688 C28.474,-5.29688 29.0547,-5.0651 29.5078,-4.60156 C29.9609,-4.13802 30.1875,-3.49479 30.1875,-2.67188 C30.1875,-2.00521 30.0885,-1.47917 29.8906,-1.09375 C29.6927,-0.708333 29.401,-0.408854 29.0156,-0.195313 C28.6302,0.0182292 28.2135,0.125 27.7656,0.125 C27.0365,0.125 26.4479,-0.109375 26,-0.578125 C25.5521,-1.04688 25.3281,-1.71875 25.3281,-2.59375 M26.2344,-2.59375 C26.2344,-1.92708 26.3802,-1.42969 26.6719,-1.10156 C26.9635,-0.773438 27.3281,-0.609375 27.7656,-0.609375 C28.2031,-0.609375 28.5651,-0.776042 28.8516,-1.10938 C29.138,-1.44271 29.2813,-1.94792 29.2813,-2.625 C29.2813,-3.26042 29.1354,-3.74479 28.8438,-4.07813 C28.5521,-4.41146 28.1927,-4.57813 27.7656,-4.57813 C27.3281,-4.57813 26.9635,-4.41406 26.6719,-4.08594 C26.3802,-3.75781 26.2344,-3.26042 26.2344,-2.59375 M31.6406,0 L31.6406,-7.15625 L32.5156,-7.15625 L32.5156,0 L31.6406,0 M36.3125,-1.54688 L37.1719,-1.6875 C37.224,-1.33333 37.362,-1.0651 37.5859,-0.882813 C37.8099,-0.700521 38.1198,-0.609375 38.5156,-0.609375 C38.9219,-0.609375 39.224,-0.690104 39.4219,-0.851563 C39.6198,-1.01302 39.7188,-1.20833 39.7188,-1.4375 C39.7188,-1.63542 39.6302,-1.79167 39.4531,-1.90625 C39.3281,-1.97917 39.026,-2.07813 38.5469,-2.20313 C37.9115,-2.35938 37.4688,-2.4974 37.2188,-2.61719 C36.9688,-2.73698 36.7786,-2.90104 36.6484,-3.10938 C36.5182,-3.31771 36.4531,-3.55208 36.4531,-3.8125 C36.4531,-4.04167 36.5052,-4.25521 36.6094,-4.45313 C36.7135,-4.65104 36.8594,-4.8125 37.0469,-4.9375 C37.1823,-5.04167 37.3672,-5.1276 37.6016,-5.19531 C37.8359,-5.26302 38.0885,-5.29688 38.3594,-5.29688 C38.7656,-5.29688 39.1224,-5.23958 39.4297,-5.125 C39.737,-5.01042 39.9661,-4.85156 40.1172,-4.64844 C40.2682,-4.44531 40.3698,-4.17708 40.4219,-3.84375 L39.5625,-3.73438 C39.5208,-3.99479 39.4063,-4.20052 39.2188,-4.35156 C39.0313,-4.5026 38.7656,-4.57813 38.4219,-4.57813 C38.026,-4.57813 37.7396,-4.51302 37.5625,-4.38281 C37.3854,-4.2526 37.2969,-4.09375 37.2969,-3.90625 C37.2969,-3.79167 37.3333,-3.69271 37.4063,-3.60938 C37.4792,-3.51563 37.5938,-3.4375 37.75,-3.375 C37.8333,-3.34375 38.0938,-3.26563 38.5313,-3.14063 C39.1458,-2.97396 39.5755,-2.83854 39.8203,-2.73438 C40.0651,-2.63021 40.2578,-2.47656 40.3984,-2.27344 C40.5391,-2.07031 40.6094,-1.82292 40.6094,-1.53125 C40.6094,-1.22917 40.526,-0.950521 40.3594,-0.695313 C40.1927,-0.440104 39.9479,-0.239583 39.625,-0.09375 C39.3021,0.0520833 38.9375,0.125 38.5313,0.125 C37.8542,0.125 37.3385,-0.015625 36.9844,-0.296875 C36.6302,-0.578125 36.4063,-0.994792 36.3125,-1.54688 M43.5781,-0.78125 L43.7031,-0.015625 C43.4531,0.0364583 43.2344,0.0625 43.0469,0.0625 C42.724,0.0625 42.474,0.0130208 42.2969,-0.0859375 C42.1198,-0.184896 41.9974,-0.317708 41.9297,-0.484375 C41.862,-0.651042 41.8281,-0.994792 41.8281,-1.51563 L41.8281,-4.5 L41.1719,-4.5 L41.1719,-5.1875 L41.8281,-5.1875 L41.8281,-6.46875 L42.6875,-7 L42.6875,-5.1875 L43.5781,-5.1875 L43.5781,-4.5 L42.6875,-4.5 L42.6875,-1.46875 C42.6875,-1.21875 42.7031,-1.05729 42.7344,-0.984375 C42.7656,-0.911458 42.8177,-0.854167 42.8906,-0.8125 C42.9635,-0.770833 43.0625,-0.75 43.1875,-0.75 C43.2917,-0.75 43.4219,-0.760417 43.5781,-0.78125 M48.0469,-0.640625 C47.724,-0.359375 47.4115,-0.161458 47.1094,-0.046875 C46.8073,0.0677083 46.4844,0.125 46.1406,0.125 C45.5677,0.125 45.1276,-0.015625 44.8203,-0.296875 C44.513,-0.578125 44.3594,-0.9375 44.3594,-1.375 C44.3594,-1.625 44.4167,-1.85417 44.5313,-2.0625 C44.6458,-2.27083 44.7969,-2.4401 44.9844,-2.57031 C45.1719,-2.70052 45.3854,-2.79688 45.625,-2.85938 C45.7917,-2.90104 46.0521,-2.94271 46.4063,-2.98438 C47.1146,-3.06771 47.6354,-3.17188 47.9688,-3.29688 C47.9688,-3.41146 47.9688,-3.48438 47.9688,-3.51563 C47.9688,-3.88021 47.8854,-4.13542 47.7188,-4.28125 C47.5,-4.47917 47.1667,-4.57813 46.7188,-4.57813 C46.3125,-4.57813 46.0104,-4.50521 45.8125,-4.35938 C45.6146,-4.21354 45.4688,-3.95833 45.375,-3.59375 L44.5156,-3.70313 C44.5885,-4.07813 44.7161,-4.3776 44.8984,-4.60156 C45.0807,-4.82552 45.3411,-4.9974 45.6797,-5.11719 C46.0182,-5.23698 46.4115,-5.29688 46.8594,-5.29688 C47.2969,-5.29688 47.6536,-5.24479 47.9297,-5.14063 C48.2057,-5.03646 48.4089,-4.90625 48.5391,-4.75 C48.6693,-4.59375 48.7604,-4.39583 48.8125,-4.15625 C48.8438,-4.01042 48.8594,-3.73958 48.8594,-3.34375 L48.8594,-2.17188 C48.8594,-1.35938 48.8776,-0.84375 48.9141,-0.625 C48.9505,-0.40625 49.026,-0.197917 49.1406,0 L48.2188,0 C48.125,-0.1875 48.0677,-0.401042 48.0469,-0.640625 M47.9688,-2.60938 C47.6458,-2.47396 47.1667,-2.35938 46.5313,-2.26563 C46.1771,-2.21354 45.9245,-2.15625 45.7734,-2.09375 C45.6224,-2.03125 45.5052,-1.9375 45.4219,-1.8125 C45.3385,-1.6875 45.2969,-1.54688 45.2969,-1.39063 C45.2969,-1.16146 45.3854,-0.96875 45.5625,-0.8125 C45.7396,-0.65625 46,-0.578125 46.3438,-0.578125 C46.6875,-0.578125 46.9896,-0.651042 47.25,-0.796875 C47.5104,-0.942708 47.7031,-1.14583 47.8281,-1.40625 C47.9219,-1.60417 47.9688,-1.89583 47.9688,-2.28125 L47.9688,-2.60938 M50.6563,0 L50.6563,-5.1875 L51.4375,-5.1875 L51.4375,-4.40625 C51.6458,-4.77083 51.8333,-5.01042 52,-5.125 C52.1667,-5.23958 52.3542,-5.29688 52.5625,-5.29688 C52.8646,-5.29688 53.1667,-5.20313 53.4688,-5.01563 L53.1719,-4.20313 C52.9531,-4.32813 52.7344,-4.39063 52.5156,-4.39063 C52.3281,-4.39063 52.1563,-4.33333 52,-4.21875 C51.8438,-4.10417 51.7344,-3.94271 51.6719,-3.73438 C51.5781,-3.42188 51.5313,-3.08333 51.5313,-2.71875 L51.5313,0 L50.6563,0 M55.5781,-0.78125 L55.7031,-0.015625 C55.4531,0.0364583 55.2344,0.0625 55.0469,0.0625 C54.724,0.0625 54.474,0.0130208 54.2969,-0.0859375 C54.1198,-0.184896 53.9974,-0.317708 53.9297,-0.484375 C53.862,-0.651042 53.8281,-0.994792 53.8281,-1.51563 L53.8281,-4.5 L53.1719,-4.5 L53.1719,-5.1875 L53.8281,-5.1875 L53.8281,-6.46875 L54.6875,-7 L54.6875,-5.1875 L55.5781,-5.1875 L55.5781,-4.5 L54.6875,-4.5 L54.6875,-1.46875 C54.6875,-1.21875 54.7031,-1.05729 54.7344,-0.984375 C54.7656,-0.911458 54.8177,-0.854167 54.8906,-0.8125 C54.9635,-0.770833 55.0625,-0.75 55.1875,-0.75 C55.2917,-0.75 55.4219,-0.760417 55.5781,-0.78125 "/>
</g>

<g fill="none" stroke="#212121" stroke-opacity="1" stroke-width="0.666667" stroke-linecap="butt" stroke-linejoin="miter" stroke-miterlimit="5" transform="matrix(0.75,0,0,0.75,0,0)"
font-family="MS Shell Dlg 2" font-size="8.25" font-weight="400" font-style="normal" 
>
<path vector-effect="none" fill-rule="evenodd" d="M277,169 L277,116 L388,116 L388,169 L277,169"/>
</g>
</g>
</svg>
