<?xml version="1.0" encoding="UTF-8" standalone="no"?>
<svg width="170.039mm" height="56.0917mm"
 viewBox="0 0 482 159"
 xmlns="http://www.w3.org/2000/svg" xmlns:xlink="http://www.w3.org/1999/xlink"  version="1.2" baseProfile="tiny">
<title>Qt SVG Document</title>
<desc>MATLAB, The MathWorks, Inc. Version 25.2.0.3123386 R2025b Update 3</desc>
<defs>
</defs>
<g fill="none" stroke="black" stroke-width="1" fill-rule="evenodd" stroke-linecap="square" stroke-linejoin="bevel" >

<g fill="#ffffff" fill-opacity="1" stroke="none" transform="matrix(0.75,0,0,0.75,0,0)"
font-family="MS Shell Dlg 2" font-size="8.25" font-weight="400" font-style="normal" 
>
<path vector-effect="none" fill-rule="evenodd" d="M0,0 L644,0 L644,213 L0,213 L0,0"/>
</g>

<g fill="#ffffff" fill-opacity="1" stroke="none" transform="matrix(7.5e-05,0,0,7.5e-05,0,0)"
font-family="MS Shell Dlg 2" font-size="8.25" font-weight="400" font-style="normal" 
>
<path vector-effect="none" fill-rule="evenodd" d="M840000,180000 L840000,1.78e+06 L5.82e+06,1.78e+06 L5.82e+06,180000 L840000,180000"/>
</g>

<g fill="#212121" fill-opacity="0.14902" stroke="#212121" stroke-opacity="0.14902" stroke-width="0.666667" stroke-linecap="butt" stroke-linejoin="round" transform="matrix(0.75,0,0,0.75,0,0)"
font-family="MS Shell Dlg 2" font-size="8.25" font-weight="400" font-style="normal" 
>
<polyline fill="none" vector-effect="none" points="84,18 84,178 " />
<polyline fill="none" vector-effect="none" points="146.25,18 146.25,178 " />
<polyline fill="none" vector-effect="none" points="208.5,18 208.5,178 " />
<polyline fill="none" vector-effect="none" points="270.75,18 270.75,178 " />
<polyline fill="none" vector-effect="none" points="333,18 333,178 " />
<polyline fill="none" vector-effect="none" points="395.25,18 395.25,178 " />
<polyline fill="none" vector-effect="none" points="457.5,18 457.5,178 " />
<polyline fill="none" vector-effect="none" points="519.75,18 519.75,178 " />
<polyline fill="none" vector-effect="none" points="582,18 582,178 " />
</g>

<g fill="#212121" fill-opacity="0.14902" stroke="#212121" stroke-opacity="0.14902" stroke-dasharray="1,3" stroke-dashoffset="0" stroke-width="0.666667" stroke-linecap="butt" stroke-linejoin="round" transform="matrix(0.75,0,0,0.75,0,0)"
font-family="MS Shell Dlg 2" font-size="8.25" font-weight="400" font-style="normal" 
>
<polyline fill="none" vector-effect="none" points="96.45,18 96.45,178 " />
<polyline fill="none" vector-effect="none" points="108.9,18 108.9,178 " />
<polyline fill="none" vector-effect="none" points="121.35,18 121.35,178 " />
<polyline fill="none" vector-effect="none" points="133.8,18 133.8,178 " />
<polyline fill="none" vector-effect="none" points="158.7,18 158.7,178 " />
<polyline fill="none" vector-effect="none" points="171.15,18 171.15,178 " />
<polyline fill="none" vector-effect="none" points="183.6,18 183.6,178 " />
<polyline fill="none" vector-effect="none" points="196.05,18 196.05,178 " />
<polyline fill="none" vector-effect="none" points="220.95,18 220.95,178 " />
<polyline fill="none" vector-effect="none" points="233.4,18 233.4,178 " />
<polyline fill="none" vector-effect="none" points="245.85,18 245.85,178 " />
<polyline fill="none" vector-effect="none" points="258.3,18 258.3,178 " />
<polyline fill="none" vector-effect="none" points="283.2,18 283.2,178 " />
<polyline fill="none" vector-effect="none" points="295.65,18 295.65,178 " />
<polyline fill="none" vector-effect="none" points="308.1,18 308.1,178 " />
<polyline fill="none" vector-effect="none" points="320.55,18 320.55,178 " />
<polyline fill="none" vector-effect="none" points="345.45,18 345.45,178 " />
<polyline fill="none" vector-effect="none" points="357.9,18 357.9,178 " />
<polyline fill="none" vector-effect="none" points="370.35,18 370.35,178 " />
<polyline fill="none" vector-effect="none" points="382.8,18 382.8,178 " />
<polyline fill="none" vector-effect="none" points="407.7,18 407.7,178 " />
<polyline fill="none" vector-effect="none" points="420.15,18 420.15,178 " />
<polyline fill="none" vector-effect="none" points="432.6,18 432.6,178 " />
<polyline fill="none" vector-effect="none" points="445.05,18 445.05,178 " />
<polyline fill="none" vector-effect="none" points="469.95,18 469.95,178 " />
<polyline fill="none" vector-effect="none" points="482.4,18 482.4,178 " />
<polyline fill="none" vector-effect="none" points="494.85,18 494.85,178 " />
<polyline fill="none" vector-effect="none" points="507.3,18 507.3,178 " />
<polyline fill="none" vector-effect="none" points="532.2,18 532.2,178 " />
<polyline fill="none" vector-effect="none" points="544.65,18 544.65,178 " />
<polyline fill="none" vector-effect="none" points="557.1,18 557.1,178 " />
<polyline fill="none" vector-effect="none" points="569.55,18 569.55,178 " />
</g>

<g fill="#212121" fill-opacity="0.14902" stroke="#212121" stroke-opacity="0.14902" stroke-width="0.666667" stroke-linecap="butt" stroke-linejoin="round" transform="matrix(0.75,0,0,0.75,0,0)"
font-family="MS Shell Dlg 2" font-size="8.25" font-weight="400" font-style="normal" 
>
<polyline fill="none" vector-effect="none" points="84,178 582,178 " />
<polyline fill="none" vector-effect="none" points="84,151.333 582,151.333 " />
<polyline fill="none" vector-effect="none" points="84,124.667 582,124.667 " />
<polyline fill="none" vector-effect="none" points="84,98 582,98 " />
<polyline fill="none" vector-effect="none" points="84,71.3333 582,71.3333 " />
<polyline fill="none" vector-effect="none" points="84,44.6667 582,44.6667 " />
<polyline fill="none" vector-effect="none" points="84,18 582,18 " />
</g>

<g fill="#212121" fill-opacity="0.14902" stroke="#212121" stroke-opacity="0.14902" stroke-dasharray="1,3" stroke-dashoffset="0" stroke-width="0.666667" stroke-linecap="butt" stroke-linejoin="round" transform="matrix(0.75,0,0,0.75,0,0)"
font-family="MS Shell Dlg 2" font-size="8.25" font-weight="400" font-style="normal" 
>
<polyline fill="none" vector-effect="none" points="84,172.667 582,172.667 " />
<polyline fill="none" vector-effect="none" points="84,167.333 582,167.333 " />
<polyline fill="none" vector-effect="none" points="84,162 582,162 " />
<polyline fill="none" vector-effect="none" points="84,156.667 582,156.667 " />
<polyline fill="none" vector-effect="none" points="84,146 582,146 " />
<polyline fill="none" vector-effect="none" points="84,140.667 582,140.667 " />
<polyline fill="none" vector-effect="none" points="84,135.333 582,135.333 " />
<polyline fill="none" vector-effect="none" points="84,130 582,130 " />
<polyline fill="none" vector-effect="none" points="84,119.333 582,119.333 " />
<polyline fill="none" vector-effect="none" points="84,114 582,114 " />
<polyline fill="none" vector-effect="none" points="84,108.667 582,108.667 " />
<polyline fill="none" vector-effect="none" points="84,103.333 582,103.333 " />
<polyline fill="none" vector-effect="none" points="84,92.6667 582,92.6667 " />
<polyline fill="none" vector-effect="none" points="84,87.3333 582,87.3333 " />
<polyline fill="none" vector-effect="none" points="84,82 582,82 " />
<polyline fill="none" vector-effect="none" points="84,76.6667 582,76.6667 " />
<polyline fill="none" vector-effect="none" points="84,66 582,66 " />
<polyline fill="none" vector-effect="none" points="84,60.6667 582,60.6667 " />
<polyline fill="none" vector-effect="none" points="84,55.3333 582,55.3333 " />
<polyline fill="none" vector-effect="none" points="84,50 582,50 " />
<polyline fill="none" vector-effect="none" points="84,39.3333 582,39.3333 " />
<polyline fill="none" vector-effect="none" points="84,34 582,34 " />
<polyline fill="none" vector-effect="none" points="84,28.6667 582,28.6667 " />
<polyline fill="none" vector-effect="none" points="84,23.3333 582,23.3333 " />
</g>

<g fill="#212121" fill-opacity="1" stroke="none" transform="matrix(0.75,0,0,0.75,241.473,155.616)"
font-family="MS Shell Dlg 2" font-size="8.25" font-weight="400" font-style="normal" 
>
<path vector-effect="none" fill-rule="evenodd" d="M1.32813,-1.5625 L1.32813,-5.14063 L0.25,-5.14063 L0.25,-5.48438 C0.8125,-5.48438 1.22656,-5.75 1.49219,-6.28125 C1.75781,-6.8125 1.89063,-7.38542 1.89063,-8 L2.26563,-8 L2.26563,-5.60938 L4.10938,-5.60938 L4.10938,-5.14063 L2.26563,-5.14063 L2.26563,-1.59375 C2.26563,-1.22917 2.32813,-0.911458 2.45313,-0.640625 C2.57813,-0.369792 2.79688,-0.234375 3.10938,-0.234375 C3.40104,-0.234375 3.61198,-0.377604 3.74219,-0.664063 C3.8724,-0.950521 3.9375,-1.26042 3.9375,-1.59375 L3.9375,-2.35938 L4.3125,-2.35938 L4.3125,-1.5625 C4.3125,-1.29167 4.26302,-1.02344 4.16406,-0.757813 C4.0651,-0.492188 3.91927,-0.276042 3.72656,-0.109375 C3.53385,0.0572917 3.29688,0.140625 3.01563,0.140625 C2.49479,0.140625 2.08333,-0.0130208 1.78125,-0.320313 C1.47917,-0.627604 1.32813,-1.04167 1.32813,-1.5625 "/>
</g>

<g fill="#212121" fill-opacity="1" stroke="none" transform="matrix(0.75,0,0,0.75,248.623,155.616)"
font-family="MS Shell Dlg 2" font-size="8.25" font-weight="400" font-style="normal" 
>
<path vector-effect="none" fill-rule="evenodd" d="M1.53125,3.25 L1.53125,-9.75 L3.3125,-9.75 L3.3125,-9.23438 L2.0625,-9.23438 L2.0625,2.73438 L3.3125,2.73438 L3.3125,3.25 L1.53125,3.25"/>
</g>

<g fill="#212121" fill-opacity="1" stroke="none" transform="matrix(0.75,0,0,0.75,251.373,155.616)"
font-family="MS Shell Dlg 2" font-size="8.25" font-weight="400" font-style="normal" 
>
<path vector-effect="none" fill-rule="evenodd" d="M0.4375,0.03125 L0.4375,-2.09375 C0.4375,-2.15625 0.473958,-2.1875 0.546875,-2.1875 L0.703125,-2.1875 C0.755208,-2.1875 0.791667,-2.15625 0.8125,-2.09375 C1.05208,-0.833333 1.63542,-0.203125 2.5625,-0.203125 C2.96875,-0.203125 3.3099,-0.296875 3.58594,-0.484375 C3.86198,-0.671875 4,-0.958333 4,-1.34375 C4,-1.625 3.89323,-1.86458 3.67969,-2.0625 C3.46615,-2.26042 3.20833,-2.39583 2.90625,-2.46875 L2.04688,-2.64063 C1.75521,-2.70313 1.48958,-2.79948 1.25,-2.92969 C1.01042,-3.0599 0.815104,-3.23438 0.664063,-3.45313 C0.513021,-3.67188 0.4375,-3.92188 0.4375,-4.20313 C0.4375,-4.58854 0.536458,-4.90104 0.734375,-5.14063 C0.932292,-5.38021 1.19271,-5.55469 1.51563,-5.66406 C1.83854,-5.77344 2.1875,-5.82813 2.5625,-5.82813 C3,-5.82813 3.38542,-5.71354 3.71875,-5.48438 L4.09375,-5.79688 C4.09375,-5.81771 4.11458,-5.82813 4.15625,-5.82813 L4.25,-5.82813 C4.28125,-5.82813 4.30729,-5.8151 4.32813,-5.78906 C4.34896,-5.76302 4.35938,-5.73958 4.35938,-5.71875 L4.35938,-4.03125 C4.35938,-3.94792 4.32292,-3.90625 4.25,-3.90625 L4.09375,-3.90625 C4.02083,-3.90625 3.98438,-3.94792 3.98438,-4.03125 C3.98438,-4.47917 3.85677,-4.84115 3.60156,-5.11719 C3.34635,-5.39323 2.99479,-5.53125 2.54688,-5.53125 C2.16146,-5.53125 1.82552,-5.45833 1.53906,-5.3125 C1.2526,-5.16667 1.10938,-4.92188 1.10938,-4.57813 C1.10938,-4.32813 1.21094,-4.1276 1.41406,-3.97656 C1.61719,-3.82552 1.85938,-3.71354 2.14063,-3.64063 L3.01563,-3.48438 C3.30729,-3.41146 3.58333,-3.29427 3.84375,-3.13281 C4.10417,-2.97135 4.30729,-2.76823 4.45313,-2.52344 C4.59896,-2.27865 4.67188,-2 4.67188,-1.6875 C4.67188,-1.375 4.61979,-1.10417 4.51563,-0.875 C4.41146,-0.645833 4.26302,-0.453125 4.07031,-0.296875 C3.8776,-0.140625 3.64844,-0.0286458 3.38281,0.0390625 C3.11719,0.106771 2.84375,0.140625 2.5625,0.140625 C2.02083,0.140625 1.55729,-0.0416667 1.17188,-0.40625 L0.6875,0.109375 C0.6875,0.130208 0.666667,0.140625 0.625,0.140625 L0.546875,0.140625 C0.473958,0.140625 0.4375,0.104167 0.4375,0.03125 "/>
</g>

<g fill="#212121" fill-opacity="1" stroke="none" transform="matrix(0.75,0,0,0.75,255.278,155.616)"
font-family="MS Shell Dlg 2" font-size="8.25" font-weight="400" font-style="normal" 
>
<path vector-effect="none" fill-rule="evenodd" d="M0.28125,3.25 L0.28125,2.73438 L1.54688,2.73438 L1.54688,-9.23438 L0.28125,-9.23438 L0.28125,-9.75 L2.0625,-9.75 L2.0625,3.25 L0.28125,3.25"/>
</g>

<g fill="#212121" fill-opacity="1" stroke="#212121" stroke-opacity="1" stroke-width="0.666667" stroke-linecap="square" stroke-linejoin="round" transform="matrix(0.75,0,0,0.75,0,0)"
font-family="MS Shell Dlg 2" font-size="8.25" font-weight="400" font-style="normal" 
>
<polyline fill="none" vector-effect="none" points="84,178 582,178 " />
<polyline fill="none" vector-effect="none" points="84,18 582,18 " />
<polyline fill="none" vector-effect="none" points="84,178 84,173.02 " />
<polyline fill="none" vector-effect="none" points="84,22.98 84,18 " />
<polyline fill="none" vector-effect="none" points="146.25,178 146.25,173.02 " />
<polyline fill="none" vector-effect="none" points="146.25,22.98 146.25,18 " />
<polyline fill="none" vector-effect="none" points="208.5,178 208.5,173.02 " />
<polyline fill="none" vector-effect="none" points="208.5,22.98 208.5,18 " />
<polyline fill="none" vector-effect="none" points="270.75,178 270.75,173.02 " />
<polyline fill="none" vector-effect="none" points="270.75,22.98 270.75,18 " />
<polyline fill="none" vector-effect="none" points="333,178 333,173.02 " />
<polyline fill="none" vector-effect="none" points="333,22.98 333,18 " />
<polyline fill="none" vector-effect="none" points="395.25,178 395.25,173.02 " />
<polyline fill="none" vector-effect="none" points="395.25,22.98 395.25,18 " />
<polyline fill="none" vector-effect="none" points="457.5,178 457.5,173.02 " />
<polyline fill="none" vector-effect="none" points="457.5,22.98 457.5,18 " />
<polyline fill="none" vector-effect="none" points="519.75,178 519.75,173.02 " />
<polyline fill="none" vector-effect="none" points="519.75,22.98 519.75,18 " />
<polyline fill="none" vector-effect="none" points="582,178 582,173.02 " />
<polyline fill="none" vector-effect="none" points="582,22.98 582,18 " />
</g>

<g fill="#212121" fill-opacity="1" stroke="none" transform="matrix(0.75,0,0,0.75,60.375,144.55)"
font-family="MS Shell Dlg 2" font-size="8.25" font-weight="400" font-style="normal" 
>
<path vector-effect="none" fill-rule="evenodd" d="M0.5,-4.23438 C0.5,-5.25521 0.604167,-6.07552 0.8125,-6.69531 C1.02083,-7.3151 1.33073,-7.79167 1.74219,-8.125 C2.15365,-8.45833 2.67188,-8.625 3.29688,-8.625 C3.75521,-8.625 4.15885,-8.53125 4.50781,-8.34375 C4.85677,-8.15625 5.14583,-7.88802 5.375,-7.53906 C5.60417,-7.1901 5.78125,-6.76563 5.90625,-6.26563 C6.03125,-5.76563 6.09375,-5.08854 6.09375,-4.23438 C6.09375,-3.22396 5.99219,-2.41146 5.78906,-1.79688 C5.58594,-1.18229 5.27865,-0.705729 4.86719,-0.367188 C4.45573,-0.0286458 3.93229,0.140625 3.29688,0.140625 C2.47396,0.140625 1.82292,-0.15625 1.34375,-0.75 C0.78125,-1.45833 0.5,-2.61979 0.5,-4.23438 M1.57813,-4.23438 C1.57813,-2.82813 1.74479,-1.89063 2.07813,-1.42188 C2.41146,-0.953125 2.81771,-0.71875 3.29688,-0.71875 C3.78646,-0.71875 4.19531,-0.953125 4.52344,-1.42188 C4.85156,-1.89063 5.01563,-2.82813 5.01563,-4.23438 C5.01563,-5.65104 4.85156,-6.59115 4.52344,-7.05469 C4.19531,-7.51823 3.78125,-7.75 3.28125,-7.75 C2.80208,-7.75 2.41667,-7.54688 2.125,-7.14063 C1.76042,-6.61979 1.57813,-5.65104 1.57813,-4.23438 "/>
</g>

<g fill="#212121" fill-opacity="1" stroke="none" transform="matrix(0.75,0,0,0.75,107.063,144.55)"
font-family="MS Shell Dlg 2" font-size="8.25" font-weight="400" font-style="normal" 
>
<path vector-effect="none" fill-rule="evenodd" d="M0.5,-2.25 L1.60938,-2.34375 C1.69271,-1.80208 1.88281,-1.39583 2.17969,-1.125 C2.47656,-0.854167 2.83854,-0.71875 3.26563,-0.71875 C3.76563,-0.71875 4.19271,-0.911458 4.54688,-1.29688 C4.90104,-1.68229 5.07813,-2.1875 5.07813,-2.8125 C5.07813,-3.41667 4.90885,-3.89323 4.57031,-4.24219 C4.23177,-4.59115 3.78646,-4.76563 3.23438,-4.76563 C2.90104,-4.76563 2.59635,-4.6875 2.32031,-4.53125 C2.04427,-4.375 1.82813,-4.17708 1.67188,-3.9375 L0.6875,-4.0625 L1.51563,-8.46875 L5.79688,-8.46875 L5.79688,-7.46875 L2.35938,-7.46875 L1.90625,-5.15625 C2.41667,-5.52083 2.95313,-5.70313 3.51563,-5.70313 C4.26563,-5.70313 4.89844,-5.44271 5.41406,-4.92188 C5.92969,-4.40104 6.1875,-3.72917 6.1875,-2.90625 C6.1875,-2.13542 5.96354,-1.46354 5.51563,-0.890625 C4.96354,-0.203125 4.21354,0.140625 3.26563,0.140625 C2.48438,0.140625 1.84635,-0.078125 1.35156,-0.515625 C0.856771,-0.953125 0.572917,-1.53125 0.5,-2.25 "/>
</g>

<g fill="#212121" fill-opacity="1" stroke="none" transform="matrix(0.75,0,0,0.75,151.125,144.55)"
font-family="MS Shell Dlg 2" font-size="8.25" font-weight="400" font-style="normal" 
>
<path vector-effect="none" fill-rule="evenodd" d="M4.46875,0 L3.42188,0 L3.42188,-6.71875 C3.16146,-6.47917 2.82552,-6.23698 2.41406,-5.99219 C2.0026,-5.7474 1.63542,-5.56771 1.3125,-5.45313 L1.3125,-6.46875 C1.89583,-6.75 2.40885,-7.08594 2.85156,-7.47656 C3.29427,-7.86719 3.60938,-8.25 3.79688,-8.625 L4.46875,-8.625 L4.46875,0 M7.5,-4.23438 C7.5,-5.25521 7.60417,-6.07552 7.8125,-6.69531 C8.02083,-7.3151 8.33073,-7.79167 8.74219,-8.125 C9.15365,-8.45833 9.67188,-8.625 10.2969,-8.625 C10.7552,-8.625 11.1589,-8.53125 11.5078,-8.34375 C11.8568,-8.15625 12.1458,-7.88802 12.375,-7.53906 C12.6042,-7.1901 12.7813,-6.76563 12.9063,-6.26563 C13.0313,-5.76563 13.0938,-5.08854 13.0938,-4.23438 C13.0938,-3.22396 12.9922,-2.41146 12.7891,-1.79688 C12.5859,-1.18229 12.2786,-0.705729 11.8672,-0.367188 C11.4557,-0.0286458 10.9323,0.140625 10.2969,0.140625 C9.47396,0.140625 8.82292,-0.15625 8.34375,-0.75 C7.78125,-1.45833 7.5,-2.61979 7.5,-4.23438 M8.57813,-4.23438 C8.57813,-2.82813 8.74479,-1.89063 9.07813,-1.42188 C9.41146,-0.953125 9.81771,-0.71875 10.2969,-0.71875 C10.7865,-0.71875 11.1953,-0.953125 11.5234,-1.42188 C11.8516,-1.89063 12.0156,-2.82813 12.0156,-4.23438 C12.0156,-5.65104 11.8516,-6.59115 11.5234,-7.05469 C11.1953,-7.51823 10.7813,-7.75 10.2813,-7.75 C9.80208,-7.75 9.41667,-7.54688 9.125,-7.14063 C8.76042,-6.61979 8.57813,-5.65104 8.57813,-4.23438 "/>
</g>

<g fill="#212121" fill-opacity="1" stroke="none" transform="matrix(0.75,0,0,0.75,197.813,144.55)"
font-family="MS Shell Dlg 2" font-size="8.25" font-weight="400" font-style="normal" 
>
<path vector-effect="none" fill-rule="evenodd" d="M4.46875,0 L3.42188,0 L3.42188,-6.71875 C3.16146,-6.47917 2.82552,-6.23698 2.41406,-5.99219 C2.0026,-5.7474 1.63542,-5.56771 1.3125,-5.45313 L1.3125,-6.46875 C1.89583,-6.75 2.40885,-7.08594 2.85156,-7.47656 C3.29427,-7.86719 3.60938,-8.25 3.79688,-8.625 L4.46875,-8.625 L4.46875,0 M7.5,-2.25 L8.60938,-2.34375 C8.69271,-1.80208 8.88281,-1.39583 9.17969,-1.125 C9.47656,-0.854167 9.83854,-0.71875 10.2656,-0.71875 C10.7656,-0.71875 11.1927,-0.911458 11.5469,-1.29688 C11.901,-1.68229 12.0781,-2.1875 12.0781,-2.8125 C12.0781,-3.41667 11.9089,-3.89323 11.5703,-4.24219 C11.2318,-4.59115 10.7865,-4.76563 10.2344,-4.76563 C9.90104,-4.76563 9.59635,-4.6875 9.32031,-4.53125 C9.04427,-4.375 8.82813,-4.17708 8.67188,-3.9375 L7.6875,-4.0625 L8.51563,-8.46875 L12.7969,-8.46875 L12.7969,-7.46875 L9.35938,-7.46875 L8.90625,-5.15625 C9.41667,-5.52083 9.95313,-5.70313 10.5156,-5.70313 C11.2656,-5.70313 11.8984,-5.44271 12.4141,-4.92188 C12.9297,-4.40104 13.1875,-3.72917 13.1875,-2.90625 C13.1875,-2.13542 12.9635,-1.46354 12.5156,-0.890625 C11.9635,-0.203125 11.2135,0.140625 10.2656,0.140625 C9.48438,0.140625 8.84635,-0.078125 8.35156,-0.515625 C7.85677,-0.953125 7.57292,-1.53125 7.5,-2.25 "/>
</g>

<g fill="#212121" fill-opacity="1" stroke="none" transform="matrix(0.75,0,0,0.75,244.5,144.55)"
font-family="MS Shell Dlg 2" font-size="8.25" font-weight="400" font-style="normal" 
>
<path vector-effect="none" fill-rule="evenodd" d="M6.04688,-1.01563 L6.04688,0 L0.359375,0 C0.359375,-0.25 0.401042,-0.494792 0.484375,-0.734375 C0.630208,-1.11979 0.861979,-1.5 1.17969,-1.875 C1.4974,-2.25 1.95833,-2.68229 2.5625,-3.17188 C3.5,-3.94271 4.13281,-4.55208 4.46094,-5 C4.78906,-5.44792 4.95313,-5.86979 4.95313,-6.26563 C4.95313,-6.68229 4.80208,-7.03385 4.5,-7.32031 C4.19792,-7.60677 3.80729,-7.75 3.32813,-7.75 C2.81771,-7.75 2.41146,-7.59896 2.10938,-7.29688 C1.80729,-6.99479 1.65104,-6.57292 1.64063,-6.03125 L0.5625,-6.14063 C0.635417,-6.95313 0.914063,-7.57031 1.39844,-7.99219 C1.88281,-8.41406 2.53646,-8.625 3.35938,-8.625 C4.18229,-8.625 4.83333,-8.39583 5.3125,-7.9375 C5.79167,-7.47917 6.03125,-6.91146 6.03125,-6.23438 C6.03125,-5.89063 5.96094,-5.55469 5.82031,-5.22656 C5.67969,-4.89844 5.44531,-4.54948 5.11719,-4.17969 C4.78906,-3.8099 4.25,-3.30729 3.5,-2.67188 C2.86458,-2.14063 2.45573,-1.77865 2.27344,-1.58594 C2.09115,-1.39323 1.94271,-1.20313 1.82813,-1.01563 L6.04688,-1.01563 M7.5,-4.23438 C7.5,-5.25521 7.60417,-6.07552 7.8125,-6.69531 C8.02083,-7.3151 8.33073,-7.79167 8.74219,-8.125 C9.15365,-8.45833 9.67188,-8.625 10.2969,-8.625 C10.7552,-8.625 11.1589,-8.53125 11.5078,-8.34375 C11.8568,-8.15625 12.1458,-7.88802 12.375,-7.53906 C12.6042,-7.1901 12.7813,-6.76563 12.9063,-6.26563 C13.0313,-5.76563 13.0938,-5.08854 13.0938,-4.23438 C13.0938,-3.22396 12.9922,-2.41146 12.7891,-1.79688 C12.5859,-1.18229 12.2786,-0.705729 11.8672,-0.367188 C11.4557,-0.0286458 10.9323,0.140625 10.2969,0.140625 C9.47396,0.140625 8.82292,-0.15625 8.34375,-0.75 C7.78125,-1.45833 7.5,-2.61979 7.5,-4.23438 M8.57813,-4.23438 C8.57813,-2.82813 8.74479,-1.89063 9.07813,-1.42188 C9.41146,-0.953125 9.81771,-0.71875 10.2969,-0.71875 C10.7865,-0.71875 11.1953,-0.953125 11.5234,-1.42188 C11.8516,-1.89063 12.0156,-2.82813 12.0156,-4.23438 C12.0156,-5.65104 11.8516,-6.59115 11.5234,-7.05469 C11.1953,-7.51823 10.7813,-7.75 10.2813,-7.75 C9.80208,-7.75 9.41667,-7.54688 9.125,-7.14063 C8.76042,-6.61979 8.57813,-5.65104 8.57813,-4.23438 "/>
</g>

<g fill="#212121" fill-opacity="1" stroke="none" transform="matrix(0.75,0,0,0.75,291.188,144.55)"
font-family="MS Shell Dlg 2" font-size="8.25" font-weight="400" font-style="normal" 
>
<path vector-effect="none" fill-rule="evenodd" d="M6.04688,-1.01563 L6.04688,0 L0.359375,0 C0.359375,-0.25 0.401042,-0.494792 0.484375,-0.734375 C0.630208,-1.11979 0.861979,-1.5 1.17969,-1.875 C1.4974,-2.25 1.95833,-2.68229 2.5625,-3.17188 C3.5,-3.94271 4.13281,-4.55208 4.46094,-5 C4.78906,-5.44792 4.95313,-5.86979 4.95313,-6.26563 C4.95313,-6.68229 4.80208,-7.03385 4.5,-7.32031 C4.19792,-7.60677 3.80729,-7.75 3.32813,-7.75 C2.81771,-7.75 2.41146,-7.59896 2.10938,-7.29688 C1.80729,-6.99479 1.65104,-6.57292 1.64063,-6.03125 L0.5625,-6.14063 C0.635417,-6.95313 0.914063,-7.57031 1.39844,-7.99219 C1.88281,-8.41406 2.53646,-8.625 3.35938,-8.625 C4.18229,-8.625 4.83333,-8.39583 5.3125,-7.9375 C5.79167,-7.47917 6.03125,-6.91146 6.03125,-6.23438 C6.03125,-5.89063 5.96094,-5.55469 5.82031,-5.22656 C5.67969,-4.89844 5.44531,-4.54948 5.11719,-4.17969 C4.78906,-3.8099 4.25,-3.30729 3.5,-2.67188 C2.86458,-2.14063 2.45573,-1.77865 2.27344,-1.58594 C2.09115,-1.39323 1.94271,-1.20313 1.82813,-1.01563 L6.04688,-1.01563 M7.5,-2.25 L8.60938,-2.34375 C8.69271,-1.80208 8.88281,-1.39583 9.17969,-1.125 C9.47656,-0.854167 9.83854,-0.71875 10.2656,-0.71875 C10.7656,-0.71875 11.1927,-0.911458 11.5469,-1.29688 C11.901,-1.68229 12.0781,-2.1875 12.0781,-2.8125 C12.0781,-3.41667 11.9089,-3.89323 11.5703,-4.24219 C11.2318,-4.59115 10.7865,-4.76563 10.2344,-4.76563 C9.90104,-4.76563 9.59635,-4.6875 9.32031,-4.53125 C9.04427,-4.375 8.82813,-4.17708 8.67188,-3.9375 L7.6875,-4.0625 L8.51563,-8.46875 L12.7969,-8.46875 L12.7969,-7.46875 L9.35938,-7.46875 L8.90625,-5.15625 C9.41667,-5.52083 9.95313,-5.70313 10.5156,-5.70313 C11.2656,-5.70313 11.8984,-5.44271 12.4141,-4.92188 C12.9297,-4.40104 13.1875,-3.72917 13.1875,-2.90625 C13.1875,-2.13542 12.9635,-1.46354 12.5156,-0.890625 C11.9635,-0.203125 11.2135,0.140625 10.2656,0.140625 C9.48438,0.140625 8.84635,-0.078125 8.35156,-0.515625 C7.85677,-0.953125 7.57292,-1.53125 7.5,-2.25 "/>
</g>

<g fill="#212121" fill-opacity="1" stroke="none" transform="matrix(0.75,0,0,0.75,337.875,144.55)"
font-family="MS Shell Dlg 2" font-size="8.25" font-weight="400" font-style="normal" 
>
<path vector-effect="none" fill-rule="evenodd" d="M0.5,-2.26563 L1.5625,-2.40625 C1.67708,-1.8125 1.88021,-1.38281 2.17188,-1.11719 C2.46354,-0.851563 2.81771,-0.71875 3.23438,-0.71875 C3.73438,-0.71875 4.15625,-0.890625 4.5,-1.23438 C4.84375,-1.57813 5.01563,-2.00521 5.01563,-2.51563 C5.01563,-2.99479 4.85677,-3.39323 4.53906,-3.71094 C4.22135,-4.02865 3.81771,-4.1875 3.32813,-4.1875 C3.13021,-4.1875 2.88021,-4.14583 2.57813,-4.0625 L2.70313,-5 C2.77604,-4.98958 2.83333,-4.98438 2.875,-4.98438 C3.32292,-4.98438 3.72656,-5.10156 4.08594,-5.33594 C4.44531,-5.57031 4.625,-5.93229 4.625,-6.42188 C4.625,-6.80729 4.49479,-7.1276 4.23438,-7.38281 C3.97396,-7.63802 3.63542,-7.76563 3.21875,-7.76563 C2.8125,-7.76563 2.47135,-7.63542 2.19531,-7.375 C1.91927,-7.11458 1.74479,-6.72917 1.67188,-6.21875 L0.609375,-6.40625 C0.734375,-7.10417 1.02604,-7.64844 1.48438,-8.03906 C1.94271,-8.42969 2.51042,-8.625 3.1875,-8.625 C3.65625,-8.625 4.08854,-8.52344 4.48438,-8.32031 C4.88021,-8.11719 5.18229,-7.84375 5.39063,-7.5 C5.59896,-7.15625 5.70313,-6.78646 5.70313,-6.39063 C5.70313,-6.02604 5.60417,-5.6901 5.40625,-5.38281 C5.20833,-5.07552 4.91667,-4.83333 4.53125,-4.65625 C5.03125,-4.54167 5.42188,-4.29948 5.70313,-3.92969 C5.98438,-3.5599 6.125,-3.09375 6.125,-2.53125 C6.125,-1.78125 5.85156,-1.14583 5.30469,-0.625 C4.75781,-0.104167 4.06771,0.15625 3.23438,0.15625 C2.48438,0.15625 1.85938,-0.0703125 1.35938,-0.523438 C0.859375,-0.976563 0.572917,-1.55729 0.5,-2.26563 M7.5,-4.23438 C7.5,-5.25521 7.60417,-6.07552 7.8125,-6.69531 C8.02083,-7.3151 8.33073,-7.79167 8.74219,-8.125 C9.15365,-8.45833 9.67188,-8.625 10.2969,-8.625 C10.7552,-8.625 11.1589,-8.53125 11.5078,-8.34375 C11.8568,-8.15625 12.1458,-7.88802 12.375,-7.53906 C12.6042,-7.1901 12.7813,-6.76563 12.9063,-6.26563 C13.0313,-5.76563 13.0938,-5.08854 13.0938,-4.23438 C13.0938,-3.22396 12.9922,-2.41146 12.7891,-1.79688 C12.5859,-1.18229 12.2786,-0.705729 11.8672,-0.367188 C11.4557,-0.0286458 10.9323,0.140625 10.2969,0.140625 C9.47396,0.140625 8.82292,-0.15625 8.34375,-0.75 C7.78125,-1.45833 7.5,-2.61979 7.5,-4.23438 M8.57813,-4.23438 C8.57813,-2.82813 8.74479,-1.89063 9.07813,-1.42188 C9.41146,-0.953125 9.81771,-0.71875 10.2969,-0.71875 C10.7865,-0.71875 11.1953,-0.953125 11.5234,-1.42188 C11.8516,-1.89063 12.0156,-2.82813 12.0156,-4.23438 C12.0156,-5.65104 11.8516,-6.59115 11.5234,-7.05469 C11.1953,-7.51823 10.7813,-7.75 10.2813,-7.75 C9.80208,-7.75 9.41667,-7.54688 9.125,-7.14063 C8.76042,-6.61979 8.57813,-5.65104 8.57813,-4.23438 "/>
</g>

<g fill="#212121" fill-opacity="1" stroke="none" transform="matrix(0.75,0,0,0.75,384.563,144.55)"
font-family="MS Shell Dlg 2" font-size="8.25" font-weight="400" font-style="normal" 
>
<path vector-effect="none" fill-rule="evenodd" d="M0.5,-2.26563 L1.5625,-2.40625 C1.67708,-1.8125 1.88021,-1.38281 2.17188,-1.11719 C2.46354,-0.851563 2.81771,-0.71875 3.23438,-0.71875 C3.73438,-0.71875 4.15625,-0.890625 4.5,-1.23438 C4.84375,-1.57813 5.01563,-2.00521 5.01563,-2.51563 C5.01563,-2.99479 4.85677,-3.39323 4.53906,-3.71094 C4.22135,-4.02865 3.81771,-4.1875 3.32813,-4.1875 C3.13021,-4.1875 2.88021,-4.14583 2.57813,-4.0625 L2.70313,-5 C2.77604,-4.98958 2.83333,-4.98438 2.875,-4.98438 C3.32292,-4.98438 3.72656,-5.10156 4.08594,-5.33594 C4.44531,-5.57031 4.625,-5.93229 4.625,-6.42188 C4.625,-6.80729 4.49479,-7.1276 4.23438,-7.38281 C3.97396,-7.63802 3.63542,-7.76563 3.21875,-7.76563 C2.8125,-7.76563 2.47135,-7.63542 2.19531,-7.375 C1.91927,-7.11458 1.74479,-6.72917 1.67188,-6.21875 L0.609375,-6.40625 C0.734375,-7.10417 1.02604,-7.64844 1.48438,-8.03906 C1.94271,-8.42969 2.51042,-8.625 3.1875,-8.625 C3.65625,-8.625 4.08854,-8.52344 4.48438,-8.32031 C4.88021,-8.11719 5.18229,-7.84375 5.39063,-7.5 C5.59896,-7.15625 5.70313,-6.78646 5.70313,-6.39063 C5.70313,-6.02604 5.60417,-5.6901 5.40625,-5.38281 C5.20833,-5.07552 4.91667,-4.83333 4.53125,-4.65625 C5.03125,-4.54167 5.42188,-4.29948 5.70313,-3.92969 C5.98438,-3.5599 6.125,-3.09375 6.125,-2.53125 C6.125,-1.78125 5.85156,-1.14583 5.30469,-0.625 C4.75781,-0.104167 4.06771,0.15625 3.23438,0.15625 C2.48438,0.15625 1.85938,-0.0703125 1.35938,-0.523438 C0.859375,-0.976563 0.572917,-1.55729 0.5,-2.26563 M7.5,-2.25 L8.60938,-2.34375 C8.69271,-1.80208 8.88281,-1.39583 9.17969,-1.125 C9.47656,-0.854167 9.83854,-0.71875 10.2656,-0.71875 C10.7656,-0.71875 11.1927,-0.911458 11.5469,-1.29688 C11.901,-1.68229 12.0781,-2.1875 12.0781,-2.8125 C12.0781,-3.41667 11.9089,-3.89323 11.5703,-4.24219 C11.2318,-4.59115 10.7865,-4.76563 10.2344,-4.76563 C9.90104,-4.76563 9.59635,-4.6875 9.32031,-4.53125 C9.04427,-4.375 8.82813,-4.17708 8.67188,-3.9375 L7.6875,-4.0625 L8.51563,-8.46875 L12.7969,-8.46875 L12.7969,-7.46875 L9.35938,-7.46875 L8.90625,-5.15625 C9.41667,-5.52083 9.95313,-5.70313 10.5156,-5.70313 C11.2656,-5.70313 11.8984,-5.44271 12.4141,-4.92188 C12.9297,-4.40104 13.1875,-3.72917 13.1875,-2.90625 C13.1875,-2.13542 12.9635,-1.46354 12.5156,-0.890625 C11.9635,-0.203125 11.2135,0.140625 10.2656,0.140625 C9.48438,0.140625 8.84635,-0.078125 8.35156,-0.515625 C7.85677,-0.953125 7.57292,-1.53125 7.5,-2.25 "/>
</g>

<g fill="#212121" fill-opacity="1" stroke="none" transform="matrix(0.75,0,0,0.75,431.25,144.55)"
font-family="MS Shell Dlg 2" font-size="8.25" font-weight="400" font-style="normal" 
>
<path vector-effect="none" fill-rule="evenodd" d="M3.875,0 L3.875,-2.0625 L0.15625,-2.0625 L0.15625,-3.03125 L4.07813,-8.59375 L4.9375,-8.59375 L4.9375,-3.03125 L6.09375,-3.03125 L6.09375,-2.0625 L4.9375,-2.0625 L4.9375,0 L3.875,0 M3.875,-3.03125 L3.875,-6.89063 L1.1875,-3.03125 L3.875,-3.03125 M7.5,-4.23438 C7.5,-5.25521 7.60417,-6.07552 7.8125,-6.69531 C8.02083,-7.3151 8.33073,-7.79167 8.74219,-8.125 C9.15365,-8.45833 9.67188,-8.625 10.2969,-8.625 C10.7552,-8.625 11.1589,-8.53125 11.5078,-8.34375 C11.8568,-8.15625 12.1458,-7.88802 12.375,-7.53906 C12.6042,-7.1901 12.7813,-6.76563 12.9063,-6.26563 C13.0313,-5.76563 13.0938,-5.08854 13.0938,-4.23438 C13.0938,-3.22396 12.9922,-2.41146 12.7891,-1.79688 C12.5859,-1.18229 12.2786,-0.705729 11.8672,-0.367188 C11.4557,-0.0286458 10.9323,0.140625 10.2969,0.140625 C9.47396,0.140625 8.82292,-0.15625 8.34375,-0.75 C7.78125,-1.45833 7.5,-2.61979 7.5,-4.23438 M8.57813,-4.23438 C8.57813,-2.82813 8.74479,-1.89063 9.07813,-1.42188 C9.41146,-0.953125 9.81771,-0.71875 10.2969,-0.71875 C10.7865,-0.71875 11.1953,-0.953125 11.5234,-1.42188 C11.8516,-1.89063 12.0156,-2.82813 12.0156,-4.23438 C12.0156,-5.65104 11.8516,-6.59115 11.5234,-7.05469 C11.1953,-7.51823 10.7813,-7.75 10.2813,-7.75 C9.80208,-7.75 9.41667,-7.54688 9.125,-7.14063 C8.76042,-6.61979 8.57813,-5.65104 8.57813,-4.23438 "/>
</g>

<g fill="#212121" fill-opacity="1" stroke="none" transform="matrix(0,-0.75,0.75,0,45.45,97.1249)"
font-family="MS Shell Dlg 2" font-size="8.25" font-weight="400" font-style="normal" 
>
<path vector-effect="none" fill-rule="evenodd" d="M5.28125,0 L5.28125,-0.984375 C4.75,-0.223958 4.03646,0.15625 3.14063,0.15625 C2.74479,0.15625 2.3724,0.078125 2.02344,-0.078125 C1.67448,-0.234375 1.41667,-0.427083 1.25,-0.65625 C1.08333,-0.885417 0.96875,-1.16667 0.90625,-1.5 C0.854167,-1.71875 0.828125,-2.07292 0.828125,-2.5625 L0.828125,-6.73438 L1.96875,-6.73438 L1.96875,-3 C1.96875,-2.40625 1.99479,-2.00521 2.04688,-1.79688 C2.11979,-1.49479 2.27083,-1.25781 2.5,-1.08594 C2.72917,-0.914063 3.01563,-0.828125 3.35938,-0.828125 C3.70313,-0.828125 4.02604,-0.916667 4.32813,-1.09375 C4.63021,-1.27083 4.84375,-1.51042 4.96875,-1.8125 C5.09375,-2.11458 5.15625,-2.55208 5.15625,-3.125 L5.15625,-6.73438 L6.29688,-6.73438 L6.29688,0 L5.28125,0 M11.875,2.57813 L11.875,-9.3125 L14.4063,-9.3125 L14.4063,-8.35938 L13.0313,-8.35938 L13.0313,1.64063 L14.4063,1.64063 L14.4063,2.57813 L11.875,2.57813 M15.75,-7.07813 C15.75,-7.73438 15.9193,-8.29688 16.2578,-8.76563 C16.5964,-9.23438 17.0781,-9.46875 17.7031,-9.46875 C18.2969,-9.46875 18.7839,-9.26042 19.1641,-8.84375 C19.5443,-8.42708 19.7344,-7.8125 19.7344,-7 C19.7344,-6.21875 19.5417,-5.61458 19.1563,-5.1875 C18.7708,-4.76042 18.2917,-4.54688 17.7188,-4.54688 C17.1563,-4.54688 16.6875,-4.75521 16.3125,-5.17188 C15.9375,-5.58854 15.75,-6.22396 15.75,-7.07813 M17.75,-8.67188 C17.4583,-8.67188 17.2188,-8.54948 17.0313,-8.30469 C16.8438,-8.0599 16.75,-7.60938 16.75,-6.95313 C16.75,-6.35938 16.8464,-5.9401 17.0391,-5.69531 C17.2318,-5.45052 17.4688,-5.32813 17.75,-5.32813 C18.0313,-5.32813 18.2656,-5.45052 18.4531,-5.69531 C18.6406,-5.9401 18.7344,-6.39063 18.7344,-7.04688 C18.7344,-7.65104 18.6406,-8.07292 18.4531,-8.3125 C18.2656,-8.55208 18.0313,-8.67188 17.75,-8.67188 M17.75,0.34375 L22.8438,-9.46875 L23.7656,-9.46875 L18.6875,0.34375 L17.75,0.34375 M21.7656,-2.1875 C21.7656,-2.85417 21.9349,-3.41927 22.2734,-3.88281 C22.612,-4.34635 23.099,-4.57813 23.7344,-4.57813 C24.3177,-4.57813 24.8021,-4.36979 25.1875,-3.95313 C25.5729,-3.53646 25.7656,-2.92188 25.7656,-2.10938 C25.7656,-1.32813 25.5703,-0.723958 25.1797,-0.296875 C24.7891,0.130208 24.3073,0.34375 23.7344,0.34375 C23.1719,0.34375 22.7031,0.132813 22.3281,-0.289063 C21.9531,-0.710938 21.7656,-1.34375 21.7656,-2.1875 M23.7656,-3.79688 C23.474,-3.79688 23.2344,-3.67188 23.0469,-3.42188 C22.8594,-3.17188 22.7656,-2.71875 22.7656,-2.0625 C22.7656,-1.47917 22.862,-1.0625 23.0547,-0.8125 C23.2474,-0.5625 23.4844,-0.4375 23.7656,-0.4375 C24.0573,-0.4375 24.2969,-0.5625 24.4844,-0.8125 C24.6719,-1.0625 24.7656,-1.51042 24.7656,-2.15625 C24.7656,-2.76042 24.6693,-3.1849 24.4766,-3.42969 C24.2839,-3.67448 24.0469,-3.79688 23.7656,-3.79688 M28,0 L28,-9.3125 L31.5156,-9.3125 C32.1302,-9.3125 32.599,-9.28125 32.9219,-9.21875 C33.3802,-9.14583 33.7656,-9.0026 34.0781,-8.78906 C34.3906,-8.57552 34.6406,-8.27604 34.8281,-7.89063 C35.0156,-7.50521 35.1094,-7.07813 35.1094,-6.60938 C35.1094,-5.81771 34.8568,-5.14844 34.3516,-4.60156 C33.8464,-4.05469 32.9375,-3.78125 31.625,-3.78125 L29.2344,-3.78125 L29.2344,0 L28,0 M29.2344,-4.875 L31.6406,-4.875 C32.4323,-4.875 32.9974,-5.02344 33.3359,-5.32031 C33.6745,-5.61719 33.8438,-6.03646 33.8438,-6.57813 C33.8438,-6.96354 33.7448,-7.29427 33.5469,-7.57031 C33.349,-7.84635 33.0885,-8.03125 32.7656,-8.125 C32.5573,-8.17708 32.1719,-8.20313 31.6094,-8.20313 L29.2344,-8.20313 L29.2344,-4.875 M38.625,0 L36.1563,-9.3125 L37.4219,-9.3125 L38.8438,-3.20313 C38.9896,-2.56771 39.1198,-1.93229 39.2344,-1.29688 C39.474,-2.29688 39.6146,-2.86979 39.6563,-3.01563 L41.4219,-9.3125 L42.9063,-9.3125 L44.2344,-4.59375 C44.5677,-3.42708 44.8125,-2.32813 44.9688,-1.29688 C45.0833,-1.89063 45.2344,-2.56771 45.4219,-3.32813 L46.8906,-9.3125 L48.125,-9.3125 L45.5781,0 L44.3906,0 L42.4219,-7.09375 C42.2552,-7.6875 42.1563,-8.05208 42.125,-8.1875 C42.0313,-7.76042 41.9427,-7.39583 41.8594,-7.09375 L39.8906,0 L38.625,0 M48.9688,0 L48.9688,-9.3125 L50.8125,-9.3125 L53.0156,-2.71875 C53.224,-2.10417 53.375,-1.64583 53.4688,-1.34375 C53.5729,-1.67708 53.7344,-2.17188 53.9531,-2.82813 L56.1875,-9.3125 L57.8438,-9.3125 L57.8438,0 L56.6563,0 L56.6563,-7.78125 L53.9531,0 L52.8438,0 L50.1563,-7.92188 L50.1563,0 L48.9688,0 M61.7656,2.57813 L59.25,2.57813 L59.25,1.64063 L60.625,1.64063 L60.625,-8.35938 L59.25,-8.35938 L59.25,-9.3125 L61.7656,-9.3125 L61.7656,2.57813"/>
</g>

<g fill="#212121" fill-opacity="1" stroke="#212121" stroke-opacity="1" stroke-width="0.666667" stroke-linecap="square" stroke-linejoin="round" transform="matrix(0.75,0,0,0.75,0,0)"
font-family="MS Shell Dlg 2" font-size="8.25" font-weight="400" font-style="normal" 
>
<polyline fill="none" vector-effect="none" points="84,178 84,18 " />
<polyline fill="none" vector-effect="none" points="582,178 582,18 " />
<polyline fill="none" vector-effect="none" points="84,178 88.98,178 " />
<polyline fill="none" vector-effect="none" points="577.02,178 582,178 " />
<polyline fill="none" vector-effect="none" points="84,151.333 88.98,151.333 " />
<polyline fill="none" vector-effect="none" points="577.02,151.333 582,151.333 " />
<polyline fill="none" vector-effect="none" points="84,124.667 88.98,124.667 " />
<polyline fill="none" vector-effect="none" points="577.02,124.667 582,124.667 " />
<polyline fill="none" vector-effect="none" points="84,98 88.98,98 " />
<polyline fill="none" vector-effect="none" points="577.02,98 582,98 " />
<polyline fill="none" vector-effect="none" points="84,71.3333 88.98,71.3333 " />
<polyline fill="none" vector-effect="none" points="577.02,71.3333 582,71.3333 " />
<polyline fill="none" vector-effect="none" points="84,44.6667 88.98,44.6667 " />
<polyline fill="none" vector-effect="none" points="577.02,44.6667 582,44.6667 " />
<polyline fill="none" vector-effect="none" points="84,18 88.98,18 " />
<polyline fill="none" vector-effect="none" points="577.02,18 582,18 " />
</g>

<g fill="#212121" fill-opacity="1" stroke="none" transform="matrix(0.75,0,0,0.75,54.95,136.5)"
font-family="MS Shell Dlg 2" font-size="8.25" font-weight="400" font-style="normal" 
>
<path vector-effect="none" fill-rule="evenodd" d="M0.5,-4.23438 C0.5,-5.25521 0.604167,-6.07552 0.8125,-6.69531 C1.02083,-7.3151 1.33073,-7.79167 1.74219,-8.125 C2.15365,-8.45833 2.67188,-8.625 3.29688,-8.625 C3.75521,-8.625 4.15885,-8.53125 4.50781,-8.34375 C4.85677,-8.15625 5.14583,-7.88802 5.375,-7.53906 C5.60417,-7.1901 5.78125,-6.76563 5.90625,-6.26563 C6.03125,-5.76563 6.09375,-5.08854 6.09375,-4.23438 C6.09375,-3.22396 5.99219,-2.41146 5.78906,-1.79688 C5.58594,-1.18229 5.27865,-0.705729 4.86719,-0.367188 C4.45573,-0.0286458 3.93229,0.140625 3.29688,0.140625 C2.47396,0.140625 1.82292,-0.15625 1.34375,-0.75 C0.78125,-1.45833 0.5,-2.61979 0.5,-4.23438 M1.57813,-4.23438 C1.57813,-2.82813 1.74479,-1.89063 2.07813,-1.42188 C2.41146,-0.953125 2.81771,-0.71875 3.29688,-0.71875 C3.78646,-0.71875 4.19531,-0.953125 4.52344,-1.42188 C4.85156,-1.89063 5.01563,-2.82813 5.01563,-4.23438 C5.01563,-5.65104 4.85156,-6.59115 4.52344,-7.05469 C4.19531,-7.51823 3.78125,-7.75 3.28125,-7.75 C2.80208,-7.75 2.41667,-7.54688 2.125,-7.14063 C1.76042,-6.61979 1.57813,-5.65104 1.57813,-4.23438 "/>
</g>

<g fill="#212121" fill-opacity="1" stroke="none" transform="matrix(0.75,0,0,0.75,54.95,116.5)"
font-family="MS Shell Dlg 2" font-size="8.25" font-weight="400" font-style="normal" 
>
<path vector-effect="none" fill-rule="evenodd" d="M0.5,-2.25 L1.60938,-2.34375 C1.69271,-1.80208 1.88281,-1.39583 2.17969,-1.125 C2.47656,-0.854167 2.83854,-0.71875 3.26563,-0.71875 C3.76563,-0.71875 4.19271,-0.911458 4.54688,-1.29688 C4.90104,-1.68229 5.07813,-2.1875 5.07813,-2.8125 C5.07813,-3.41667 4.90885,-3.89323 4.57031,-4.24219 C4.23177,-4.59115 3.78646,-4.76563 3.23438,-4.76563 C2.90104,-4.76563 2.59635,-4.6875 2.32031,-4.53125 C2.04427,-4.375 1.82813,-4.17708 1.67188,-3.9375 L0.6875,-4.0625 L1.51563,-8.46875 L5.79688,-8.46875 L5.79688,-7.46875 L2.35938,-7.46875 L1.90625,-5.15625 C2.41667,-5.52083 2.95313,-5.70313 3.51563,-5.70313 C4.26563,-5.70313 4.89844,-5.44271 5.41406,-4.92188 C5.92969,-4.40104 6.1875,-3.72917 6.1875,-2.90625 C6.1875,-2.13542 5.96354,-1.46354 5.51563,-0.890625 C4.96354,-0.203125 4.21354,0.140625 3.26563,0.140625 C2.48438,0.140625 1.84635,-0.078125 1.35156,-0.515625 C0.856771,-0.953125 0.572917,-1.53125 0.5,-2.25 "/>
</g>

<g fill="#212121" fill-opacity="1" stroke="none" transform="matrix(0.75,0,0,0.75,49.7,96.5)"
font-family="MS Shell Dlg 2" font-size="8.25" font-weight="400" font-style="normal" 
>
<path vector-effect="none" fill-rule="evenodd" d="M4.46875,0 L3.42188,0 L3.42188,-6.71875 C3.16146,-6.47917 2.82552,-6.23698 2.41406,-5.99219 C2.0026,-5.7474 1.63542,-5.56771 1.3125,-5.45313 L1.3125,-6.46875 C1.89583,-6.75 2.40885,-7.08594 2.85156,-7.47656 C3.29427,-7.86719 3.60938,-8.25 3.79688,-8.625 L4.46875,-8.625 L4.46875,0 M7.5,-4.23438 C7.5,-5.25521 7.60417,-6.07552 7.8125,-6.69531 C8.02083,-7.3151 8.33073,-7.79167 8.74219,-8.125 C9.15365,-8.45833 9.67188,-8.625 10.2969,-8.625 C10.7552,-8.625 11.1589,-8.53125 11.5078,-8.34375 C11.8568,-8.15625 12.1458,-7.88802 12.375,-7.53906 C12.6042,-7.1901 12.7813,-6.76563 12.9063,-6.26563 C13.0313,-5.76563 13.0938,-5.08854 13.0938,-4.23438 C13.0938,-3.22396 12.9922,-2.41146 12.7891,-1.79688 C12.5859,-1.18229 12.2786,-0.705729 11.8672,-0.367188 C11.4557,-0.0286458 10.9323,0.140625 10.2969,0.140625 C9.47396,0.140625 8.82292,-0.15625 8.34375,-0.75 C7.78125,-1.45833 7.5,-2.61979 7.5,-4.23438 M8.57813,-4.23438 C8.57813,-2.82813 8.74479,-1.89063 9.07813,-1.42188 C9.41146,-0.953125 9.81771,-0.71875 10.2969,-0.71875 C10.7865,-0.71875 11.1953,-0.953125 11.5234,-1.42188 C11.8516,-1.89063 12.0156,-2.82813 12.0156,-4.23438 C12.0156,-5.65104 11.8516,-6.59115 11.5234,-7.05469 C11.1953,-7.51823 10.7813,-7.75 10.2813,-7.75 C9.80208,-7.75 9.41667,-7.54688 9.125,-7.14063 C8.76042,-6.61979 8.57813,-5.65104 8.57813,-4.23438 "/>
</g>

<g fill="#212121" fill-opacity="1" stroke="none" transform="matrix(0.75,0,0,0.75,49.7,76.5)"
font-family="MS Shell Dlg 2" font-size="8.25" font-weight="400" font-style="normal" 
>
<path vector-effect="none" fill-rule="evenodd" d="M4.46875,0 L3.42188,0 L3.42188,-6.71875 C3.16146,-6.47917 2.82552,-6.23698 2.41406,-5.99219 C2.0026,-5.7474 1.63542,-5.56771 1.3125,-5.45313 L1.3125,-6.46875 C1.89583,-6.75 2.40885,-7.08594 2.85156,-7.47656 C3.29427,-7.86719 3.60938,-8.25 3.79688,-8.625 L4.46875,-8.625 L4.46875,0 M7.5,-2.25 L8.60938,-2.34375 C8.69271,-1.80208 8.88281,-1.39583 9.17969,-1.125 C9.47656,-0.854167 9.83854,-0.71875 10.2656,-0.71875 C10.7656,-0.71875 11.1927,-0.911458 11.5469,-1.29688 C11.901,-1.68229 12.0781,-2.1875 12.0781,-2.8125 C12.0781,-3.41667 11.9089,-3.89323 11.5703,-4.24219 C11.2318,-4.59115 10.7865,-4.76563 10.2344,-4.76563 C9.90104,-4.76563 9.59635,-4.6875 9.32031,-4.53125 C9.04427,-4.375 8.82813,-4.17708 8.67188,-3.9375 L7.6875,-4.0625 L8.51563,-8.46875 L12.7969,-8.46875 L12.7969,-7.46875 L9.35938,-7.46875 L8.90625,-5.15625 C9.41667,-5.52083 9.95313,-5.70313 10.5156,-5.70313 C11.2656,-5.70313 11.8984,-5.44271 12.4141,-4.92188 C12.9297,-4.40104 13.1875,-3.72917 13.1875,-2.90625 C13.1875,-2.13542 12.9635,-1.46354 12.5156,-0.890625 C11.9635,-0.203125 11.2135,0.140625 10.2656,0.140625 C9.48438,0.140625 8.84635,-0.078125 8.35156,-0.515625 C7.85677,-0.953125 7.57292,-1.53125 7.5,-2.25 "/>
</g>

<g fill="#212121" fill-opacity="1" stroke="none" transform="matrix(0.75,0,0,0.75,49.7,56.5)"
font-family="MS Shell Dlg 2" font-size="8.25" font-weight="400" font-style="normal" 
>
<path vector-effect="none" fill-rule="evenodd" d="M6.04688,-1.01563 L6.04688,0 L0.359375,0 C0.359375,-0.25 0.401042,-0.494792 0.484375,-0.734375 C0.630208,-1.11979 0.861979,-1.5 1.17969,-1.875 C1.4974,-2.25 1.95833,-2.68229 2.5625,-3.17188 C3.5,-3.94271 4.13281,-4.55208 4.46094,-5 C4.78906,-5.44792 4.95313,-5.86979 4.95313,-6.26563 C4.95313,-6.68229 4.80208,-7.03385 4.5,-7.32031 C4.19792,-7.60677 3.80729,-7.75 3.32813,-7.75 C2.81771,-7.75 2.41146,-7.59896 2.10938,-7.29688 C1.80729,-6.99479 1.65104,-6.57292 1.64063,-6.03125 L0.5625,-6.14063 C0.635417,-6.95313 0.914063,-7.57031 1.39844,-7.99219 C1.88281,-8.41406 2.53646,-8.625 3.35938,-8.625 C4.18229,-8.625 4.83333,-8.39583 5.3125,-7.9375 C5.79167,-7.47917 6.03125,-6.91146 6.03125,-6.23438 C6.03125,-5.89063 5.96094,-5.55469 5.82031,-5.22656 C5.67969,-4.89844 5.44531,-4.54948 5.11719,-4.17969 C4.78906,-3.8099 4.25,-3.30729 3.5,-2.67188 C2.86458,-2.14063 2.45573,-1.77865 2.27344,-1.58594 C2.09115,-1.39323 1.94271,-1.20313 1.82813,-1.01563 L6.04688,-1.01563 M7.5,-4.23438 C7.5,-5.25521 7.60417,-6.07552 7.8125,-6.69531 C8.02083,-7.3151 8.33073,-7.79167 8.74219,-8.125 C9.15365,-8.45833 9.67188,-8.625 10.2969,-8.625 C10.7552,-8.625 11.1589,-8.53125 11.5078,-8.34375 C11.8568,-8.15625 12.1458,-7.88802 12.375,-7.53906 C12.6042,-7.1901 12.7813,-6.76563 12.9063,-6.26563 C13.0313,-5.76563 13.0938,-5.08854 13.0938,-4.23438 C13.0938,-3.22396 12.9922,-2.41146 12.7891,-1.79688 C12.5859,-1.18229 12.2786,-0.705729 11.8672,-0.367188 C11.4557,-0.0286458 10.9323,0.140625 10.2969,0.140625 C9.47396,0.140625 8.82292,-0.15625 8.34375,-0.75 C7.78125,-1.45833 7.5,-2.61979 7.5,-4.23438 M8.57813,-4.23438 C8.57813,-2.82813 8.74479,-1.89063 9.07813,-1.42188 C9.41146,-0.953125 9.81771,-0.71875 10.2969,-0.71875 C10.7865,-0.71875 11.1953,-0.953125 11.5234,-1.42188 C11.8516,-1.89063 12.0156,-2.82813 12.0156,-4.23438 C12.0156,-5.65104 11.8516,-6.59115 11.5234,-7.05469 C11.1953,-7.51823 10.7813,-7.75 10.2813,-7.75 C9.80208,-7.75 9.41667,-7.54688 9.125,-7.14063 C8.76042,-6.61979 8.57813,-5.65104 8.57813,-4.23438 "/>
</g>

<g fill="#212121" fill-opacity="1" stroke="none" transform="matrix(0.75,0,0,0.75,49.7,36.5)"
font-family="MS Shell Dlg 2" font-size="8.25" font-weight="400" font-style="normal" 
>
<path vector-effect="none" fill-rule="evenodd" d="M6.04688,-1.01563 L6.04688,0 L0.359375,0 C0.359375,-0.25 0.401042,-0.494792 0.484375,-0.734375 C0.630208,-1.11979 0.861979,-1.5 1.17969,-1.875 C1.4974,-2.25 1.95833,-2.68229 2.5625,-3.17188 C3.5,-3.94271 4.13281,-4.55208 4.46094,-5 C4.78906,-5.44792 4.95313,-5.86979 4.95313,-6.26563 C4.95313,-6.68229 4.80208,-7.03385 4.5,-7.32031 C4.19792,-7.60677 3.80729,-7.75 3.32813,-7.75 C2.81771,-7.75 2.41146,-7.59896 2.10938,-7.29688 C1.80729,-6.99479 1.65104,-6.57292 1.64063,-6.03125 L0.5625,-6.14063 C0.635417,-6.95313 0.914063,-7.57031 1.39844,-7.99219 C1.88281,-8.41406 2.53646,-8.625 3.35938,-8.625 C4.18229,-8.625 4.83333,-8.39583 5.3125,-7.9375 C5.79167,-7.47917 6.03125,-6.91146 6.03125,-6.23438 C6.03125,-5.89063 5.96094,-5.55469 5.82031,-5.22656 C5.67969,-4.89844 5.44531,-4.54948 5.11719,-4.17969 C4.78906,-3.8099 4.25,-3.30729 3.5,-2.67188 C2.86458,-2.14063 2.45573,-1.77865 2.27344,-1.58594 C2.09115,-1.39323 1.94271,-1.20313 1.82813,-1.01563 L6.04688,-1.01563 M7.5,-2.25 L8.60938,-2.34375 C8.69271,-1.80208 8.88281,-1.39583 9.17969,-1.125 C9.47656,-0.854167 9.83854,-0.71875 10.2656,-0.71875 C10.7656,-0.71875 11.1927,-0.911458 11.5469,-1.29688 C11.901,-1.68229 12.0781,-2.1875 12.0781,-2.8125 C12.0781,-3.41667 11.9089,-3.89323 11.5703,-4.24219 C11.2318,-4.59115 10.7865,-4.76563 10.2344,-4.76563 C9.90104,-4.76563 9.59635,-4.6875 9.32031,-4.53125 C9.04427,-4.375 8.82813,-4.17708 8.67188,-3.9375 L7.6875,-4.0625 L8.51563,-8.46875 L12.7969,-8.46875 L12.7969,-7.46875 L9.35938,-7.46875 L8.90625,-5.15625 C9.41667,-5.52083 9.95313,-5.70313 10.5156,-5.70313 C11.2656,-5.70313 11.8984,-5.44271 12.4141,-4.92188 C12.9297,-4.40104 13.1875,-3.72917 13.1875,-2.90625 C13.1875,-2.13542 12.9635,-1.46354 12.5156,-0.890625 C11.9635,-0.203125 11.2135,0.140625 10.2656,0.140625 C9.48438,0.140625 8.84635,-0.078125 8.35156,-0.515625 C7.85677,-0.953125 7.57292,-1.53125 7.5,-2.25 "/>
</g>

<g fill="#212121" fill-opacity="1" stroke="none" transform="matrix(0.75,0,0,0.75,49.7,16.5)"
font-family="MS Shell Dlg 2" font-size="8.25" font-weight="400" font-style="normal" 
>
<path vector-effect="none" fill-rule="evenodd" d="M0.5,-2.26563 L1.5625,-2.40625 C1.67708,-1.8125 1.88021,-1.38281 2.17188,-1.11719 C2.46354,-0.851563 2.81771,-0.71875 3.23438,-0.71875 C3.73438,-0.71875 4.15625,-0.890625 4.5,-1.23438 C4.84375,-1.57813 5.01563,-2.00521 5.01563,-2.51563 C5.01563,-2.99479 4.85677,-3.39323 4.53906,-3.71094 C4.22135,-4.02865 3.81771,-4.1875 3.32813,-4.1875 C3.13021,-4.1875 2.88021,-4.14583 2.57813,-4.0625 L2.70313,-5 C2.77604,-4.98958 2.83333,-4.98438 2.875,-4.98438 C3.32292,-4.98438 3.72656,-5.10156 4.08594,-5.33594 C4.44531,-5.57031 4.625,-5.93229 4.625,-6.42188 C4.625,-6.80729 4.49479,-7.1276 4.23438,-7.38281 C3.97396,-7.63802 3.63542,-7.76563 3.21875,-7.76563 C2.8125,-7.76563 2.47135,-7.63542 2.19531,-7.375 C1.91927,-7.11458 1.74479,-6.72917 1.67188,-6.21875 L0.609375,-6.40625 C0.734375,-7.10417 1.02604,-7.64844 1.48438,-8.03906 C1.94271,-8.42969 2.51042,-8.625 3.1875,-8.625 C3.65625,-8.625 4.08854,-8.52344 4.48438,-8.32031 C4.88021,-8.11719 5.18229,-7.84375 5.39063,-7.5 C5.59896,-7.15625 5.70313,-6.78646 5.70313,-6.39063 C5.70313,-6.02604 5.60417,-5.6901 5.40625,-5.38281 C5.20833,-5.07552 4.91667,-4.83333 4.53125,-4.65625 C5.03125,-4.54167 5.42188,-4.29948 5.70313,-3.92969 C5.98438,-3.5599 6.125,-3.09375 6.125,-2.53125 C6.125,-1.78125 5.85156,-1.14583 5.30469,-0.625 C4.75781,-0.104167 4.06771,0.15625 3.23438,0.15625 C2.48438,0.15625 1.85938,-0.0703125 1.35938,-0.523438 C0.859375,-0.976563 0.572917,-1.55729 0.5,-2.26563 M7.5,-4.23438 C7.5,-5.25521 7.60417,-6.07552 7.8125,-6.69531 C8.02083,-7.3151 8.33073,-7.79167 8.74219,-8.125 C9.15365,-8.45833 9.67188,-8.625 10.2969,-8.625 C10.7552,-8.625 11.1589,-8.53125 11.5078,-8.34375 C11.8568,-8.15625 12.1458,-7.88802 12.375,-7.53906 C12.6042,-7.1901 12.7813,-6.76563 12.9063,-6.26563 C13.0313,-5.76563 13.0938,-5.08854 13.0938,-4.23438 C13.0938,-3.22396 12.9922,-2.41146 12.7891,-1.79688 C12.5859,-1.18229 12.2786,-0.705729 11.8672,-0.367188 C11.4557,-0.0286458 10.9323,0.140625 10.2969,0.140625 C9.47396,0.140625 8.82292,-0.15625 8.34375,-0.75 C7.78125,-1.45833 7.5,-2.61979 7.5,-4.23438 M8.57813,-4.23438 C8.57813,-2.82813 8.74479,-1.89063 9.07813,-1.42188 C9.41146,-0.953125 9.81771,-0.71875 10.2969,-0.71875 C10.7865,-0.71875 11.1953,-0.953125 11.5234,-1.42188 C11.8516,-1.89063 12.0156,-2.82813 12.0156,-4.23438 C12.0156,-5.65104 11.8516,-6.59115 11.5234,-7.05469 C11.1953,-7.51823 10.7813,-7.75 10.2813,-7.75 C9.80208,-7.75 9.41667,-7.54688 9.125,-7.14063 C8.76042,-6.61979 8.57813,-5.65104 8.57813,-4.23438 "/>
</g>

<g fill="#212121" fill-opacity="1" stroke="none" transform="matrix(0.75,0,0,0.75,219,9.39375)"
font-family="MS Shell Dlg 2" font-size="8.25" font-weight="400" font-style="normal" 
>
<path vector-effect="none" fill-rule="evenodd" d="M6.90625,-3.42188 L8.71875,-2.84375 C8.4375,-1.83333 7.97396,-1.08073 7.32813,-0.585938 C6.68229,-0.0911458 5.85938,0.15625 4.85938,0.15625 C3.61979,0.15625 2.60156,-0.265625 1.80469,-1.10938 C1.00781,-1.95313 0.609375,-3.10938 0.609375,-4.57813 C0.609375,-6.11979 1.01042,-7.32031 1.8125,-8.17969 C2.61458,-9.03906 3.66667,-9.46875 4.96875,-9.46875 C6.10417,-9.46875 7.03125,-9.13021 7.75,-8.45313 C8.16667,-8.05729 8.48438,-7.48438 8.70313,-6.73438 L6.84375,-6.29688 C6.72917,-6.77604 6.4974,-7.15625 6.14844,-7.4375 C5.79948,-7.71875 5.375,-7.85938 4.875,-7.85938 C4.1875,-7.85938 3.6276,-7.61198 3.19531,-7.11719 C2.76302,-6.6224 2.54688,-5.81771 2.54688,-4.70313 C2.54688,-3.53646 2.76042,-2.70313 3.1875,-2.20313 C3.61458,-1.70313 4.16667,-1.45313 4.84375,-1.45313 C5.34375,-1.45313 5.77344,-1.61198 6.13281,-1.92969 C6.49219,-2.2474 6.75,-2.74479 6.90625,-3.42188 M9.51563,-3.46875 C9.51563,-4.0625 9.66146,-4.63542 9.95313,-5.1875 C10.2448,-5.73958 10.6589,-6.16146 11.1953,-6.45313 C11.7318,-6.74479 12.3333,-6.89063 13,-6.89063 C14.0104,-6.89063 14.8438,-6.5599 15.5,-5.89844 C16.1563,-5.23698 16.4844,-4.40104 16.4844,-3.39063 C16.4844,-2.36979 16.1536,-1.52344 15.4922,-0.851563 C14.8307,-0.179688 14,0.15625 13,0.15625 C12.3854,0.15625 11.7969,0.015625 11.2344,-0.265625 C10.6719,-0.546875 10.2448,-0.955729 9.95313,-1.49219 C9.66146,-2.02865 9.51563,-2.6875 9.51563,-3.46875 M11.3438,-3.375 C11.3438,-2.70833 11.5026,-2.19531 11.8203,-1.83594 C12.138,-1.47656 12.5313,-1.29688 13,-1.29688 C13.4688,-1.29688 13.8594,-1.47656 14.1719,-1.83594 C14.4844,-2.19531 14.6406,-2.71354 14.6406,-3.39063 C14.6406,-4.04688 14.4844,-4.55208 14.1719,-4.90625 C13.8594,-5.26042 13.4688,-5.4375 13,-5.4375 C12.5313,-5.4375 12.138,-5.26042 11.8203,-4.90625 C11.5026,-4.55208 11.3438,-4.04167 11.3438,-3.375 M24.0625,0 L22.2813,0 L22.2813,-3.4375 C22.2813,-4.16667 22.2422,-4.63802 22.1641,-4.85156 C22.0859,-5.0651 21.9609,-5.23177 21.7891,-5.35156 C21.6172,-5.47135 21.4115,-5.53125 21.1719,-5.53125 C20.8698,-5.53125 20.5964,-5.44531 20.3516,-5.27344 C20.1068,-5.10156 19.9375,-4.8776 19.8438,-4.60156 C19.75,-4.32552 19.7031,-3.80729 19.7031,-3.04688 L19.7031,0 L17.9219,0 L17.9219,-6.73438 L19.5781,-6.73438 L19.5781,-5.75 C20.1615,-6.51042 20.901,-6.89063 21.7969,-6.89063 C22.1927,-6.89063 22.5521,-6.82031 22.875,-6.67969 C23.1979,-6.53906 23.4453,-6.35938 23.6172,-6.14063 C23.7891,-5.92188 23.9063,-5.67188 23.9688,-5.39063 C24.0313,-5.10938 24.0625,-4.70833 24.0625,-4.1875 L24.0625,0 M29.0313,-6.73438 L29.0313,-5.3125 L27.8125,-5.3125 L27.8125,-2.60938 C27.8125,-2.05729 27.8229,-1.73438 27.8438,-1.64063 C27.8646,-1.54688 27.9167,-1.47135 28,-1.41406 C28.0833,-1.35677 28.1823,-1.32813 28.2969,-1.32813 C28.4635,-1.32813 28.7031,-1.38542 29.0156,-1.5 L29.1719,-0.109375 C28.7552,0.0677083 28.2865,0.15625 27.7656,0.15625 C27.4427,0.15625 27.151,0.101563 26.8906,-0.0078125 C26.6302,-0.117188 26.4401,-0.257813 26.3203,-0.429688 C26.2005,-0.601563 26.1198,-0.833333 26.0781,-1.125 C26.0365,-1.33333 26.0156,-1.75 26.0156,-2.375 L26.0156,-5.3125 L25.2031,-5.3125 L25.2031,-6.73438 L26.0156,-6.73438 L26.0156,-8.07813 L27.8125,-9.125 L27.8125,-6.73438 L29.0313,-6.73438 M31.6406,0 L29.8594,0 L29.8594,-6.73438 L31.5156,-6.73438 L31.5156,-5.78125 C31.7969,-6.23958 32.0521,-6.53906 32.2813,-6.67969 C32.5104,-6.82031 32.7656,-6.89063 33.0469,-6.89063 C33.4531,-6.89063 33.8438,-6.78125 34.2188,-6.5625 L33.6719,-5 C33.3698,-5.19792 33.0885,-5.29688 32.8281,-5.29688 C32.5781,-5.29688 32.3672,-5.22656 32.1953,-5.08594 C32.0234,-4.94531 31.888,-4.69531 31.7891,-4.33594 C31.6901,-3.97656 31.6406,-3.22396 31.6406,-2.07813 L31.6406,0 M34.5156,-3.46875 C34.5156,-4.0625 34.6615,-4.63542 34.9531,-5.1875 C35.2448,-5.73958 35.6589,-6.16146 36.1953,-6.45313 C36.7318,-6.74479 37.3333,-6.89063 38,-6.89063 C39.0104,-6.89063 39.8438,-6.5599 40.5,-5.89844 C41.1563,-5.23698 41.4844,-4.40104 41.4844,-3.39063 C41.4844,-2.36979 41.1536,-1.52344 40.4922,-0.851563 C39.8307,-0.179688 39,0.15625 38,0.15625 C37.3854,0.15625 36.7969,0.015625 36.2344,-0.265625 C35.6719,-0.546875 35.2448,-0.955729 34.9531,-1.49219 C34.6615,-2.02865 34.5156,-2.6875 34.5156,-3.46875 M36.3438,-3.375 C36.3438,-2.70833 36.5026,-2.19531 36.8203,-1.83594 C37.138,-1.47656 37.5313,-1.29688 38,-1.29688 C38.4688,-1.29688 38.8594,-1.47656 39.1719,-1.83594 C39.4844,-2.19531 39.6406,-2.71354 39.6406,-3.39063 C39.6406,-4.04688 39.4844,-4.55208 39.1719,-4.90625 C38.8594,-5.26042 38.4688,-5.4375 38,-5.4375 C37.5313,-5.4375 37.138,-5.26042 36.8203,-4.90625 C36.5026,-4.55208 36.3438,-4.04167 36.3438,-3.375 M42.9375,0 L42.9375,-9.3125 L44.7188,-9.3125 L44.7188,0 L42.9375,0 M50.9375,-7.65625 L50.9375,-9.3125 L52.7188,-9.3125 L52.7188,-7.65625 L50.9375,-7.65625 M50.9375,0 L50.9375,-6.73438 L52.7188,-6.73438 L52.7188,0 L50.9375,0 M61.0625,0 L59.2813,0 L59.2813,-3.4375 C59.2813,-4.16667 59.2422,-4.63802 59.1641,-4.85156 C59.0859,-5.0651 58.9609,-5.23177 58.7891,-5.35156 C58.6172,-5.47135 58.4115,-5.53125 58.1719,-5.53125 C57.8698,-5.53125 57.5964,-5.44531 57.3516,-5.27344 C57.1068,-5.10156 56.9375,-4.8776 56.8438,-4.60156 C56.75,-4.32552 56.7031,-3.80729 56.7031,-3.04688 L56.7031,0 L54.9219,0 L54.9219,-6.73438 L56.5781,-6.73438 L56.5781,-5.75 C57.1615,-6.51042 57.901,-6.89063 58.7969,-6.89063 C59.1927,-6.89063 59.5521,-6.82031 59.875,-6.67969 C60.1979,-6.53906 60.4453,-6.35938 60.6172,-6.14063 C60.7891,-5.92188 60.9063,-5.67188 60.9688,-5.39063 C61.0313,-5.10938 61.0625,-4.70833 61.0625,-4.1875 L61.0625,0 M62.875,-6.73438 L64.5469,-6.73438 L64.5469,-5.75 C64.7656,-6.09375 65.0573,-6.36979 65.4219,-6.57813 C65.7865,-6.78646 66.1927,-6.89063 66.6406,-6.89063 C67.4323,-6.89063 68.099,-6.58333 68.6406,-5.96875 C69.1823,-5.35417 69.4531,-4.5 69.4531,-3.40625 C69.4531,-2.28125 69.1797,-1.40625 68.6328,-0.78125 C68.0859,-0.15625 67.4219,0.15625 66.6406,0.15625 C66.2656,0.15625 65.9271,0.0807292 65.625,-0.0703125 C65.3229,-0.221354 65.0052,-0.473958 64.6719,-0.828125 L64.6719,2.5625 L62.875,2.5625 L62.875,-6.73438 M64.6406,-3.48438 C64.6406,-2.72396 64.7917,-2.16406 65.0938,-1.80469 C65.3958,-1.44531 65.7656,-1.26563 66.2031,-1.26563 C66.6094,-1.26563 66.9505,-1.43229 67.2266,-1.76563 C67.5026,-2.09896 67.6406,-2.64063 67.6406,-3.39063 C67.6406,-4.09896 67.5,-4.625 67.2188,-4.96875 C66.9375,-5.3125 66.5885,-5.48438 66.1719,-5.48438 C65.7344,-5.48438 65.3698,-5.3151 65.0781,-4.97656 C64.7865,-4.63802 64.6406,-4.14063 64.6406,-3.48438 M75.375,0 L75.375,-1.01563 C75.125,-0.651042 74.7995,-0.364583 74.3984,-0.15625 C73.9974,0.0520833 73.5781,0.15625 73.1406,0.15625 C72.6823,0.15625 72.2734,0.0572917 71.9141,-0.140625 C71.5547,-0.338542 71.2943,-0.619792 71.1328,-0.984375 C70.9714,-1.34896 70.8906,-1.84375 70.8906,-2.46875 L70.8906,-6.73438 L72.6719,-6.73438 L72.6719,-3.64063 C72.6719,-2.69271 72.7057,-2.11198 72.7734,-1.89844 C72.8411,-1.6849 72.9609,-1.51563 73.1328,-1.39063 C73.3047,-1.26563 73.526,-1.20313 73.7969,-1.20313 C74.099,-1.20313 74.3724,-1.28646 74.6172,-1.45313 C74.862,-1.61979 75.0286,-1.82813 75.1172,-2.07813 C75.2057,-2.32813 75.25,-2.93229 75.25,-3.89063 L75.25,-6.73438 L77.0313,-6.73438 L77.0313,0 L75.375,0 M82.0313,-6.73438 L82.0313,-5.3125 L80.8125,-5.3125 L80.8125,-2.60938 C80.8125,-2.05729 80.8229,-1.73438 80.8438,-1.64063 C80.8646,-1.54688 80.9167,-1.47135 81,-1.41406 C81.0833,-1.35677 81.1823,-1.32813 81.2969,-1.32813 C81.4635,-1.32813 81.7031,-1.38542 82.0156,-1.5 L82.1719,-0.109375 C81.7552,0.0677083 81.2865,0.15625 80.7656,0.15625 C80.4427,0.15625 80.151,0.101563 79.8906,-0.0078125 C79.6302,-0.117188 79.4401,-0.257813 79.3203,-0.429688 C79.2005,-0.601563 79.1198,-0.833333 79.0781,-1.125 C79.0365,-1.33333 79.0156,-1.75 79.0156,-2.375 L79.0156,-5.3125 L78.2031,-5.3125 L78.2031,-6.73438 L79.0156,-6.73438 L79.0156,-8.07813 L80.8125,-9.125 L80.8125,-6.73438 L82.0313,-6.73438"/>
</g>

<g fill="none" stroke="#1171be" stroke-opacity="1" stroke-width="1.33333" stroke-linecap="butt" stroke-linejoin="miter" stroke-miterlimit="5" transform="matrix(0.75,0,0,0.75,0,0)"
font-family="MS Shell Dlg 2" font-size="8.25" font-weight="400" font-style="normal" 
>
<polyline fill="none" vector-effect="none" points="84,178 84.6225,178 84.6225,18 85.245,18 85.245,18 85.8675,18 85.8675,18 86.49,18 86.49,18 87.1125,18 87.1125,18 87.735,18 87.735,18 88.3575,18 88.3575,18 88.98,18 88.98,18 89.6025,18 89.6025,18 90.225,18 90.225,18 90.8475,18 90.8475,18 91.47,18 91.47,18 92.0925,18 92.0925,18 92.715,18 92.715,18 93.3375,18 93.3375,18 93.96,18 93.96,18 94.5825,18 94.5825,18 95.205,18 95.205,18 95.8275,18 95.8275,18 96.45,18 96.45,18 97.0725,18 97.0725,18 97.695,18 97.695,18 98.3175,18 98.3175,18 98.94,18 98.94,18 99.5625,18 99.5625,18 100.185,18 100.185,18 100.808,18 100.808,18 101.43,18 101.43,18 102.052,18 102.052,18 102.675,18 102.675,18 103.298,18 103.298,18 103.92,18 103.92,18 104.543,18 104.543,18 105.165,18 105.165,18 105.787,18 105.787,18 106.41,18 106.41,18 107.033,18 107.033,18 107.655,18 107.655,18 108.278,18 108.278,18 108.9,18 108.9,18 109.522,18 109.522,18 110.145,18 110.145,18 110.768,18 110.768,18 111.39,18 111.39,18 112.012,18 112.012,18 112.635,18 112.635,18 113.257,18 113.257,18 113.88,18 113.88,18 114.503,18 114.503,18 115.125,18 115.125,18 115.747,18 115.747,18 116.37,18 116.37,18 116.993,18 116.993,18 117.615,18 117.615,18 118.238,18 118.238,18 118.86,18 118.86,18 119.482,18 119.482,18 120.105,18 120.105,18 120.728,18 120.728,18 121.35,18 121.35,18 121.972,18 121.972,18 122.595,18 122.595,18 123.217,18 123.217,18 123.84,18 123.84,18 124.463,18 124.463,18 125.085,18 125.085,18 125.707,18 125.707,18 126.33,18 126.33,18 126.952,18 126.952,18 127.575,18 127.575,18 128.197,18 128.197,18 128.82,18 128.82,18 129.443,18 129.443,18 130.065,18 130.065,18 130.688,18 130.688,18 131.31,18 131.31,18 131.932,18 131.932,18 132.555,18 132.555,18 133.178,18 133.178,18 133.8,18 133.8,18 134.423,18 134.423,18 135.045,18 135.045,18 135.667,18 135.667,18 136.29,18 136.29,18 136.913,18 136.913,18 137.535,18 137.535,18 138.158,18 138.158,18 138.78,18 138.78,18 139.402,18 139.402,18 140.025,18 140.025,18 140.648,18 140.648,18 141.27,18 141.27,18 141.893,18 141.893,18 142.515,18 142.515,18 143.137,18 143.137,18 143.76,18 143.76,18 144.382,18 144.382,18 145.005,18 145.005,18 145.628,18 145.628,18 146.25,18 146.25,18 146.872,18 146.872,18 147.495,18 147.495,18 148.118,18 148.118,18 148.74,18 148.74,18 149.363,18 149.363,18 149.985,18 149.985,18 150.607,18 150.607,18 151.23,18 151.23,18 151.852,18 151.852,18 152.475,18 152.475,18 153.098,18 153.098,18 153.72,18 153.72,18 154.342,18 154.342,18 154.965,18 154.965,18 155.587,18 155.587,18 156.21,18 156.21,18 156.833,18 156.833,18 157.455,18 157.455,18 158.077,18 158.077,18 158.7,18 158.7,18 159.323,18 159.323,18 159.945,18 159.945,18 160.568,18 160.568,18 161.19,18 161.19,18 161.813,18 161.813,18 162.435,18 162.435,18 163.057,18 163.057,18 163.68,18 163.68,18 164.302,18 164.302,18 164.925,18 164.925,18 165.548,18 165.548,18 166.17,18 166.17,18 166.792,18 166.792,18 167.415,18 167.415,18 168.038,18 168.038,18 168.66,18 168.66,18 169.283,18 169.283,18 169.905,18 169.905,18 170.527,18 170.527,18 171.15,18 171.15,18 171.773,18 171.773,18 172.395,18 172.395,18 173.018,18 173.018,18 173.64,18 173.64,18 174.262,18 174.262,18 174.885,18 174.885,18 175.507,18 175.507,18 176.13,18 176.13,18 176.753,18 176.753,18 177.375,18 177.375,18 177.997,18 177.997,18 178.62,18 178.62,18 179.243,18 179.243,18 179.865,18 179.865,18 180.488,18 180.488,18 181.11,18 181.11,18 181.732,18 181.732,18 182.355,18 182.355,18 182.977,18 182.977,18 183.6,18 183.6,18 184.223,18 184.223,18 184.845,18 184.845,18 185.467,18 185.467,18 186.09,18 186.09,18 186.712,18 186.712,18 187.335,18 187.335,18 187.958,18 187.958,18 188.58,18 188.58,18 189.202,18 189.202,18 189.825,18 189.825,18 190.448,18 190.448,18 191.07,18 191.07,18 191.692,18 191.692,18 192.315,18 192.315,18 192.938,18 192.938,18 193.56,18 193.56,18 194.183,18 194.183,18 194.805,18 194.805,18 195.427,18 195.427,18 196.05,18 196.05,18 196.673,18 196.673,18 197.295,18 197.295,18 197.917,18 197.917,18 198.54,18 198.54,18 199.163,18 199.163,18 199.785,18 199.785,18 200.408,18 200.408,18 201.03,18 201.03,18 201.652,18 201.652,18 202.275,18 202.275,18 202.898,18 202.898,18 203.52,18 203.52,18 204.143,18 204.143,18 204.765,18 204.765,18 205.387,18 205.387,18 206.01,18 206.01,18 206.633,18 206.633,18 207.255,18 207.255,18 207.878,18 207.878,18 208.5,18 208.5,124.897 209.122,124.897 209.122,83.2868 209.745,83.2868 209.745,58.6037 210.367,58.6037 210.367,49.3697 210.99,49.3697 210.99,51.9127 211.613,51.9127 211.613,61.0858 212.235,61.0858 212.235,71.6189 212.857,71.6189 212.857,79.238 213.48,79.238 213.48,82.764 214.102,82.764 214.102,82.1265 214.725,82.1265 214.725,78.6614 215.348,78.6614 215.348,74.1227 215.97,74.1227 215.97,69.7881 216.592,69.7881 216.592,66.2732 217.215,66.2732 217.215,63.6929 217.837,63.6929 217.837,62.144 218.46,62.144 218.46,61.4352 219.083,61.4352 219.083,61.2418 219.705,61.2418 219.705,61.3718 220.327,61.3718 220.327,61.6417 220.95,61.6417 220.95,61.9302 221.573,61.9302 221.573,62.1649 222.195,62.1649 222.195,62.3346 222.817,62.3346 222.817,62.4322 223.44,62.4322 223.44,62.4206 224.063,62.4206 224.063,62.2938 224.685,62.2938 224.685,62.0871 225.308,62.0871 225.308,61.8981 225.93,61.8981 225.93,61.7813 226.552,61.7813 226.552,61.7468 227.175,61.7468 227.175,61.7617 227.798,61.7617 227.798,61.7655 228.42,61.7655 228.42,61.717 229.042,61.717 229.042,61.6297 229.665,61.6297 229.665,61.5345 230.288,61.5345 230.288,61.4769 230.91,61.4769 230.91,61.4718 231.533,61.4718 231.533,61.4931 232.155,61.4931 232.155,61.5153 232.777,61.5153 232.777,61.5282 233.4,61.5282 233.4,61.5147 234.023,61.5147 234.023,61.4865 234.645,61.4865 234.645,61.45 235.268,61.45 235.268,61.4466 235.89,61.4466 235.89,61.4484 236.512,61.4484 236.512,61.4581 237.135,61.4581 237.135,61.4635 237.758,61.4635 237.758,61.4653 238.38,61.4653 238.38,61.4586 239.003,61.4586 239.003,61.4382 239.625,61.4382 239.625,61.4308 240.247,61.4308 240.247,61.4276 240.87,61.4276 240.87,61.4289 241.492,61.4289 241.492,61.4366 242.115,61.4366 242.115,61.4343 242.738,61.4343 242.738,61.4345 243.36,61.4345 243.36,61.4253 243.982,61.4253 243.982,61.418 244.605,61.418 244.605,61.4151 245.227,61.4151 245.227,61.4262 245.85,61.4262 245.85,61.43 246.473,61.43 246.473,61.4306 247.095,61.4306 247.095,61.4319 247.717,61.4319 247.717,61.4286 248.34,61.4286 248.34,61.4318 248.962,61.4318 248.962,61.4231 249.585,61.4231 249.585,61.4233 250.208,61.4233 250.208,61.4229 250.83,61.4229 250.83,61.4241 251.452,61.4241 251.452,61.4264 252.075,61.4264 252.075,61.4307 252.698,61.4307 252.698,61.4235 253.32,61.4235 253.32,61.4229 253.942,61.4229 253.942,61.4216 254.565,61.4216 254.565,61.4282 255.188,61.4282 255.188,61.4296 255.81,61.4296 255.81,61.4254 256.432,61.4254 256.432,61.4278 257.055,61.4278 257.055,61.423 257.677,61.423 257.677,61.4147 258.3,61.4147 258.3,61.4127 258.923,61.4127 258.923,61.4192 259.545,61.4192 259.545,61.425 260.167,61.425 260.167,61.4291 260.79,61.4291 260.79,61.4316 261.413,61.4316 261.413,61.426 262.035,61.426 262.035,61.4223 262.658,61.4223 262.658,61.42 263.28,61.42 263.28,61.4172 263.902,61.4172 263.902,61.4228 264.525,61.4228 264.525,61.4153 265.147,61.4153 265.147,61.4115 265.77,61.4115 265.77,61.4256 266.392,61.4256 266.392,61.4268 267.015,61.4268 267.015,61.4252 267.638,61.4252 267.638,61.4251 268.26,61.4251 268.26,61.4218 268.883,61.4218 268.883,61.4211 269.505,61.4211 269.505,61.4241 270.128,61.4241 270.128,61.4232 270.75,61.4232 270.75,70.221 271.372,70.221 271.372,74.7503 271.995,74.7503 271.995,77.4144 272.617,77.4144 272.617,78.7069 273.24,78.7069 273.24,79.3635 273.862,79.3635 273.862,80.2865 274.485,80.2865 274.485,82.2028 275.108,82.2028 275.108,85.3186 275.73,85.3186 275.73,89.376 276.353,89.376 276.353,93.1789 276.975,93.1789 276.975,95.4106 277.598,95.4106 277.598,96.4619 278.22,96.4619 278.22,96.5091 278.842,96.5091 278.842,96.1725 279.465,96.1725 279.465,96.1121 280.087,96.1121 280.087,96.5305 280.71,96.5305 280.71,97.2026 281.333,97.2026 281.333,97.7751 281.955,97.7751 281.955,97.9777 282.577,97.9777 282.577,97.807 283.2,97.807 283.2,97.5112 283.822,97.5112 283.822,97.3912 284.445,97.3912 284.445,97.6133 285.068,97.6133 285.068,98.063 285.69,98.063 285.69,98.4608 286.313,98.4608 286.313,98.5736 286.935,98.5736 286.935,98.3817 287.557,98.3817 287.557,98.0597 288.18,98.0597 288.18,97.854 288.803,97.854 288.803,97.9145 289.425,97.9145 289.425,98.1686 290.047,98.1686 290.047,98.4151 290.67,98.4151 290.67,98.4902 291.292,98.4902 291.292,98.3589 291.915,98.3589 291.915,98.1058 292.538,98.1058 292.538,97.9298 293.16,97.9298 293.16,97.9742 293.783,97.9742 293.783,98.1563 294.405,98.1563 294.405,98.3431 295.027,98.3431 295.027,98.3958 295.65,98.3958 295.65,98.2981 296.272,98.2981 296.272,98.1199 296.895,98.1199 296.895,98.0088 297.517,98.0088 297.517,98.0187 298.14,98.0187 298.14,98.1222 298.763,98.1222 298.763,98.2312 299.385,98.2312 299.385,98.2719 300.008,98.2719 300.008,98.2318 300.63,98.2318 300.63,98.1478 301.253,98.1478 301.253,98.0798 301.875,98.0798 301.875,98.0604 302.497,98.0604 302.497,98.1073 303.12,98.1073 303.12,98.167 303.742,98.167 303.742,98.1929 304.365,98.1929 304.365,98.1792 304.987,98.1792 304.987,98.1391 305.61,98.1391 305.61,98.0949 306.233,98.0949 306.233,98.0906 306.855,98.0906 306.855,98.1103 307.478,98.1103 307.478,98.1381 308.1,98.1381 308.1,98.1553 308.723,98.1553 308.723,98.1428 309.345,98.1428 309.345,98.1264 309.967,98.1264 309.967,98.1015 310.59,98.1015 310.59,98.0966 311.212,98.0966 311.212,98.1102 311.835,98.1102 311.835,98.1184 312.458,98.1184 312.458,98.1218 313.08,98.1218 313.08,98.1252 313.703,98.1252 313.703,98.1235 314.325,98.1235 314.325,98.1068 314.947,98.1068 314.947,98.1028 315.57,98.1028 315.57,98.1065 316.193,98.1065 316.193,98.1135 316.815,98.1135 316.815,98.1248 317.438,98.1248 317.438,98.1175 318.06,98.1175 318.06,98.1104 318.682,98.1104 318.682,98.1116 319.305,98.1116 319.305,98.1053 319.928,98.1053 319.928,98.1031 320.55,98.1031 320.55,98.1051 321.172,98.1051 321.172,98.1161 321.795,98.1161 321.795,98.1136 322.417,98.1136 322.417,98.1165 323.04,98.1165 323.04,98.1081 323.663,98.1081 323.663,98.1077 324.285,98.1077 324.285,98.1125 324.908,98.1125 324.908,98.112 325.53,98.112 325.53,98.113 326.152,98.113 326.152,98.1137 326.775,98.1137 326.775,98.1111 327.397,98.1111 327.397,98.1053 328.02,98.1053 328.02,98.1123 328.642,98.1123 328.642,98.1092 329.265,98.1092 329.265,98.1082 329.888,98.1082 329.888,98.1092 330.51,98.1092 330.51,98.1085 331.133,98.1085 331.133,98.1103 331.755,98.1103 331.755,98.1106 332.378,98.1106 332.378,98.1093 333,98.1093 333,93.7125 333.622,93.7125 333.622,91.6576 334.245,91.6576 334.245,90.8435 334.867,90.8435 334.867,90.3581 335.49,90.3581 335.49,89.6733 336.112,89.6733 336.112,88.5885 336.735,88.5885 336.735,87.1567 337.358,87.1567 337.358,85.5743 337.98,85.5743 337.98,84.0192 338.603,84.0192 338.603,82.6641 339.225,82.6641 339.225,81.6226 339.848,81.6226 339.848,80.8989 340.47,80.8989 340.47,80.4652 341.092,80.4652 341.092,80.2392 341.715,80.2392 341.715,80.1447 342.337,80.1447 342.337,80.1005 342.96,80.1005 342.96,80.0612 343.583,80.0612 343.583,80.0061 344.205,80.0061 344.205,79.9227 344.828,79.9227 344.828,79.8296 345.45,79.8296 345.45,79.7242 346.072,79.7242 346.072,79.6303 346.695,79.6303 346.695,79.5464 347.318,79.5464 347.318,79.4868 347.94,79.4868 347.94,79.4468 348.563,79.4468 348.563,79.4298 349.185,79.4298 349.185,79.4202 349.807,79.4202 349.807,79.4171 350.43,79.4171 350.43,79.4127 351.053,79.4127 351.053,79.3987 351.675,79.3987 351.675,79.3876 352.297,79.3876 352.297,79.3782 352.92,79.3782 352.92,79.3713 353.542,79.3713 353.542,79.3705 354.165,79.3705 354.165,79.3735 354.788,79.3735 354.788,79.3689 355.41,79.3689 355.41,79.3684 356.033,79.3684 356.033,79.3802 356.655,79.3802 356.655,79.3841 357.277,79.3841 357.277,79.3852 357.9,79.3852 357.9,79.3812 358.522,79.3812 358.522,79.374 359.145,79.374 359.145,79.377 359.767,79.377 359.767,79.3593 360.39,79.3593 360.39,79.3622 361.013,79.3622 361.013,79.3589 361.635,79.3589 361.635,79.3604 362.258,79.3604 362.258,79.3712 362.88,79.3712 362.88,79.3807 363.503,79.3807 363.503,79.3836 364.125,79.3836 364.125,79.3867 364.747,79.3867 364.747,79.3921 365.37,79.3921 365.37,79.3846 365.992,79.3846 365.992,79.3837 366.615,79.3837 366.615,79.3742 367.237,79.3742 367.237,79.3757 367.86,79.3757 367.86,79.3781 368.483,79.3781 368.483,79.384 369.105,79.384 369.105,79.386 369.728,79.386 369.728,79.3956 370.35,79.3956 370.35,79.3926 370.973,79.3926 370.973,79.395 371.595,79.395 371.595,79.3978 372.217,79.3978 372.217,79.3914 372.84,79.3914 372.84,79.395 373.462,79.395 373.462,79.3933 374.085,79.3933 374.085,79.3915 374.708,79.3915 374.708,79.394 375.33,79.394 375.33,79.4 375.953,79.4 375.953,79.3992 376.575,79.3992 376.575,79.4085 377.197,79.4085 377.197,79.4057 377.82,79.4057 377.82,79.412 378.443,79.412 378.443,79.4077 379.065,79.4077 379.065,79.3946 379.688,79.3946 379.688,79.3907 380.31,79.3907 380.31,79.3956 380.932,79.3956 380.932,79.3991 381.555,79.3991 381.555,79.4033 382.178,79.4033 382.178,79.4015 382.8,79.4015 382.8,79.4018 383.422,79.4018 383.422,79.4013 384.045,79.4013 384.045,79.4016 384.667,79.4016 384.667,79.3993 385.29,79.3993 385.29,79.3993 385.913,79.3993 385.913,79.3944 386.535,79.3944 386.535,79.3999 387.158,79.3999 387.158,79.4046 387.78,79.4046 387.78,79.4028 388.402,79.4028 388.402,79.4002 389.025,79.4002 389.025,79.394 389.647,79.394 389.647,79.3925 390.27,79.3925 390.27,79.4025 390.892,79.4025 390.892,79.4115 391.515,79.4115 391.515,79.4111 392.138,79.4111 392.138,79.4128 392.76,79.4128 392.76,79.4075 393.383,79.4075 393.383,79.3922 394.005,79.3922 394.005,79.3894 394.628,79.3894 394.628,79.398 395.25,79.398 395.25,75.0036 395.872,75.0036 395.872,72.9526 396.495,72.9526 396.495,72.1591 397.117,72.1591 397.117,71.7234 397.74,71.7234 397.74,71.109 398.362,71.109 398.362,70.1014 398.985,70.1014 398.985,68.768 399.608,68.768 399.608,67.266 400.23,67.266 400.23,65.7917 400.853,65.7917 400.853,64.4654 401.475,64.4654 401.475,63.4198 402.098,63.4198 402.098,62.6776 402.72,62.6776 402.72,62.2353 403.342,62.2353 403.342,62.0453 403.965,62.0453 403.965,62.0029 404.587,62.0029 404.587,62.0186 405.21,62.0186 405.21,62.0137 405.833,62.0137 405.833,61.949 406.455,61.949 406.455,61.8313 407.078,61.8313 407.078,61.7199 407.7,61.7199 407.7,61.6368 408.322,61.6368 408.322,61.5835 408.945,61.5835 408.945,61.5499 409.568,61.5499 409.568,61.5129 410.19,61.5129 410.19,61.4723 410.813,61.4723 410.813,61.4226 411.435,61.4226 411.435,61.395 412.057,61.395 412.057,61.395 412.68,61.395 412.68,61.4213 413.303,61.4213 413.303,61.4461 413.925,61.4461 413.925,61.4126 414.547,61.4126 414.547,61.3734 415.17,61.3734 415.17,61.3321 415.792,61.3321 415.792,61.3264 416.415,61.3264 416.415,61.3507 417.038,61.3507 417.038,61.3902 417.66,61.3902 417.66,61.4179 418.283,61.4179 418.283,61.3995 418.905,61.3995 418.905,61.3701 419.527,61.3701 419.527,61.3474 420.15,61.3474 420.15,61.3303 420.772,61.3303 420.772,61.3459 421.395,61.3459 421.395,61.3743 422.017,61.3743 422.017,61.3929 422.64,61.3929 422.64,61.3936 423.263,61.3936 423.263,61.3889 423.885,61.3889 423.885,61.3701 424.508,61.3701 424.508,61.3657 425.13,61.3657 425.13,61.3678 425.753,61.3678 425.753,61.3786 426.375,61.3786 426.375,61.3871 426.997,61.3871 426.997,61.4014 427.62,61.4014 427.62,61.4103 428.242,61.4103 428.242,61.4038 428.865,61.4038 428.865,61.3965 429.487,61.3965 429.487,61.3927 430.11,61.3927 430.11,61.3916 430.733,61.3916 430.733,61.3958 431.355,61.3958 431.355,61.403 431.978,61.403 431.978,61.4147 432.6,61.4147 432.6,61.4121 433.223,61.4121 433.223,61.4048 433.845,61.4048 433.845,61.4017 434.467,61.4017 434.467,61.4109 435.09,61.4109 435.09,61.4128 435.712,61.4128 435.712,61.4198 436.335,61.4198 436.335,61.4279 436.958,61.4279 436.958,61.4311 437.58,61.4311 437.58,61.4289 438.203,61.4289 438.203,61.4221 438.825,61.4221 438.825,61.414 439.447,61.414 439.447,61.4086 440.07,61.4086 440.07,61.4089 440.693,61.4089 440.693,61.4101 441.315,61.4101 441.315,61.4142 441.938,61.4142 441.938,61.4308 442.56,61.4308 442.56,61.4349 443.182,61.4349 443.182,61.4318 443.805,61.4318 443.805,61.4211 444.428,61.4211 444.428,61.418 445.05,61.418 445.05,61.4222 445.672,61.4222 445.672,61.4225 446.295,61.4225 446.295,61.4135 446.917,61.4135 446.917,61.4156 447.54,61.4156 447.54,61.4207 448.163,61.4207 448.163,61.4158 448.785,61.4158 448.785,61.4192 449.408,61.4192 449.408,61.4231 450.03,61.4231 450.03,61.4178 450.652,61.4178 450.652,61.4207 451.275,61.4207 451.275,61.4234 451.897,61.4234 451.897,61.4326 452.52,61.4326 452.52,61.4262 453.142,61.4262 453.142,61.4222 453.765,61.4222 453.765,61.4224 454.388,61.4224 454.388,61.4168 455.01,61.4168 455.01,61.4162 455.633,61.4162 455.633,61.4111 456.255,61.4111 456.255,61.4212 456.878,61.4212 456.878,61.4296 457.5,61.4296 457.5,52.6163 458.122,52.6163 458.122,48.5203 458.745,48.5203 458.745,46.9635 459.367,46.9635 459.367,46.2096 459.99,46.2096 459.99,45.2079 460.612,45.2079 460.612,43.521 461.235,43.521 461.235,41.2159 461.858,41.2159 461.858,38.5614 462.48,38.5614 462.48,35.8977 463.103,35.8977 463.103,33.4989 463.725,33.4989 463.725,31.5405 464.348,31.5405 464.348,30.0988 464.97,30.0988 464.97,29.1738 465.592,29.1738 465.592,28.6979 466.215,28.6979 466.215,28.5523 466.837,28.5523 466.837,28.5872 467.46,28.5872 467.46,28.7024 468.083,28.7024 468.083,28.8102 468.705,28.8102 468.705,28.8349 469.328,28.8349 469.328,28.7712 469.95,28.7712 469.95,28.6459 470.572,28.6459 470.572,28.4941 471.195,28.4941 471.195,28.3467 471.818,28.3467 471.818,28.2379 472.44,28.2379 472.44,28.1711 473.063,28.1711 473.063,28.1286 473.685,28.1286 473.685,28.1197 474.307,28.1197 474.307,28.1183 474.93,28.1183 474.93,28.1218 475.553,28.1218 475.553,28.1266 476.175,28.1266 476.175,28.1301 476.797,28.1301 476.797,28.1335 477.42,28.1335 477.42,28.1276 478.042,28.1276 478.042,28.1282 478.665,28.1282 478.665,28.1221 479.288,28.1221 479.288,28.1138 479.91,28.1138 479.91,28.1055 480.533,28.1055 480.533,28.107 481.155,28.107 481.155,28.1033 481.777,28.1033 481.777,28.1163 482.4,28.1163 482.4,28.1062 483.022,28.1062 483.022,28.1096 483.645,28.1096 483.645,28.1123 484.268,28.1123 484.268,28.1131 484.89,28.1131 484.89,28.1183 485.513,28.1183 485.513,28.1151 486.135,28.1151 486.135,28.1209 486.757,28.1209 486.757,28.1197 487.38,28.1197 487.38,28.1175 488.003,28.1175 488.003,28.111 488.625,28.111 488.625,28.1152 489.247,28.1152 489.247,28.1235 489.87,28.1235 489.87,28.1185 490.493,28.1185 490.493,28.1174 491.115,28.1174 491.115,28.1142 491.737,28.1142 491.737,28.1167 492.36,28.1167 492.36,28.11 492.982,28.11 492.982,28.1246 493.605,28.1246 493.605,28.129 494.228,28.129 494.228,28.1296 494.85,28.1296 494.85,28.1293 495.473,28.1293 495.473,28.1381 496.095,28.1381 496.095,28.1328 496.718,28.1328 496.718,28.1336 497.34,28.1336 497.34,28.1285 497.962,28.1285 497.962,28.1284 498.585,28.1284 498.585,28.1262 499.207,28.1262 499.207,28.1279 499.83,28.1279 499.83,28.1224 500.453,28.1224 500.453,28.1344 501.075,28.1344 501.075,28.1349 501.697,28.1349 501.697,28.131 502.32,28.131 502.32,28.1353 502.943,28.1353 502.943,28.1322 503.565,28.1322 503.565,28.1234 504.188,28.1234 504.188,28.1283 504.81,28.1283 504.81,28.1271 505.432,28.1271 505.432,28.1277 506.055,28.1277 506.055,28.1272 506.678,28.1272 506.678,28.1212 507.3,28.1212 507.3,28.1283 507.922,28.1283 507.922,28.1318 508.545,28.1318 508.545,28.128 509.168,28.128 509.168,28.1305 509.79,28.1305 509.79,28.1303 510.413,28.1303 510.413,28.1338 511.035,28.1338 511.035,28.1278 511.657,28.1278 511.657,28.1286 512.28,28.1286 512.28,28.1294 512.903,28.1294 512.903,28.123 513.525,28.123 513.525,28.1292 514.147,28.1292 514.147,28.1283 514.77,28.1283 514.77,28.1295 515.393,28.1295 515.393,28.1335 516.015,28.1335 516.015,28.1284 516.638,28.1284 516.638,28.1274 517.26,28.1274 517.26,28.1249 517.883,28.1249 517.883,28.1316 518.505,28.1316 518.505,28.1297 519.128,28.1297 519.128,28.1313 519.75,28.1313 519.75,63.3425 520.372,63.3425 520.372,80.2592 520.995,80.2592 520.995,86.6428 521.617,86.6428 521.617,89.2388 522.24,89.2388 522.24,92.9454 522.862,92.9454 522.862,100.328 523.485,100.328 523.485,111.657 524.107,111.657 524.107,125.467 524.73,125.467 524.73,139.553 525.353,139.553 525.353,151.887 525.975,151.887 525.975,161.027 526.597,161.027 526.597,166.196 527.22,166.196 527.22,168.757 527.843,168.757 527.843,169.681 528.465,169.681 528.465,170.268 529.088,170.268 529.088,170.455 529.71,170.455 529.71,170.758 530.332,170.758 530.332,171.391 530.955,171.391 530.955,172.374 531.578,172.374 531.578,173.603 532.2,173.603 532.2,174.94 532.823,174.94 532.823,176.141 533.445,176.141 533.445,176.924 534.068,176.924 534.068,177.028 534.69,177.028 534.69,177.206 535.313,177.206 535.313,177.33 535.935,177.33 535.935,177.646 536.557,177.646 536.557,177.816 537.18,177.816 537.18,177.904 537.802,177.904 537.802,177.952 538.425,177.952 538.425,177.994 539.047,177.994 539.047,178 539.67,178 539.67,178 540.293,178 540.293,178 540.915,178 540.915,178 541.537,178 541.537,178 542.16,178 542.16,178 542.782,178 542.782,178 543.405,178 543.405,178 544.028,178 544.028,178 544.65,178 544.65,178 545.272,178 545.272,178 545.895,178 545.895,178 546.518,178 546.518,178 547.14,178 547.14,178 547.763,178 547.763,178 548.385,178 548.385,178 549.008,178 549.008,178 549.63,178 549.63,178 550.253,178 550.253,178 550.875,178 550.875,178 551.497,178 551.497,178 552.12,178 552.12,178 552.742,178 552.742,178 553.365,178 553.365,178 553.987,178 553.987,178 554.61,178 554.61,178 555.232,178 555.232,178 555.855,178 555.855,178 556.478,178 556.478,178 557.1,178 557.1,178 557.722,178 557.722,178 558.345,178 558.345,178 558.968,178 558.968,178 559.59,178 559.59,178 560.213,178 560.213,178 560.835,178 560.835,178 561.457,178 561.457,178 562.08,178 562.08,178 562.703,178 562.703,178 563.325,178 563.325,178 563.948,178 563.948,178 564.57,178 564.57,178 565.193,178 565.193,178 565.815,178 565.815,178 566.438,178 566.438,178 567.06,178 567.06,178 567.682,178 567.682,178 568.305,178 568.305,178 568.927,178 568.927,178 569.55,178 569.55,178 570.172,178 570.172,178 570.795,178 570.795,178 571.418,178 571.418,178 572.04,178 572.04,178 572.662,178 572.662,178 573.285,178 573.285,178 573.907,178 573.907,178 574.53,178 574.53,178 575.153,178 575.153,178 575.775,178 575.775,178 576.397,178 576.397,178 577.02,178 577.02,178 577.643,178 577.643,178 578.265,178 578.265,178 578.888,178 578.888,178 579.51,178 579.51,178 580.133,178 580.133,178 580.755,178 580.755,178 581.378,178 581.378,178 582,178 582,178 " />
</g>

<g fill="#ffffff" fill-opacity="1" stroke="none" transform="matrix(7.5e-05,0,0,7.5e-05,0,0)"
font-family="MS Shell Dlg 2" font-size="8.25" font-weight="400" font-style="normal" 
>
<path vector-effect="none" fill-rule="evenodd" d="M950000,1.54e+06 L950000,1.7e+06 L1.53e+06,1.7e+06 L1.53e+06,1.54e+06 L950000,1.54e+06"/>
</g>

<g fill="#1171be" fill-opacity="1" stroke="#1171be" stroke-opacity="1" stroke-width="1.33333" stroke-linecap="butt" stroke-linejoin="round" transform="matrix(0.75,0,0,0.75,0,0)"
font-family="MS Shell Dlg 2" font-size="8.25" font-weight="400" font-style="normal" 
>
<polyline fill="none" vector-effect="none" points="99,162 139,162 " />
</g>

<g fill="#212121" fill-opacity="1" stroke="none" transform="matrix(0.75,0,0,0.75,106.5,124.125)"
font-family="MS Shell Dlg 2" font-size="8.25" font-weight="400" font-style="normal" 
>
<path vector-effect="none" fill-rule="evenodd" d="M4.0625,0 L4.0625,-0.765625 C3.65625,-0.171875 3.10417,0.125 2.40625,0.125 C2.10417,0.125 1.82031,0.0651042 1.55469,-0.0546875 C1.28906,-0.174479 1.09115,-0.322917 0.960938,-0.5 C0.830729,-0.677083 0.739583,-0.895833 0.6875,-1.15625 C0.65625,-1.32292 0.640625,-1.59375 0.640625,-1.96875 L0.640625,-5.1875 L1.51563,-5.1875 L1.51563,-2.3125 C1.51563,-1.85417 1.53646,-1.54167 1.57813,-1.375 C1.63021,-1.14583 1.74479,-0.966146 1.92188,-0.835938 C2.09896,-0.705729 2.32292,-0.640625 2.59375,-0.640625 C2.85417,-0.640625 3.09896,-0.708333 3.32813,-0.84375 C3.55729,-0.979167 3.72135,-1.16406 3.82031,-1.39844 C3.91927,-1.63281 3.96875,-1.96875 3.96875,-2.40625 L3.96875,-5.1875 L4.84375,-5.1875 L4.84375,0 L4.0625,0"/>
</g>

<g fill="none" stroke="#212121" stroke-opacity="1" stroke-width="0.666667" stroke-linecap="butt" stroke-linejoin="miter" stroke-miterlimit="5" transform="matrix(0.75,0,0,0.75,0,0)"
font-family="MS Shell Dlg 2" font-size="8.25" font-weight="400" font-style="normal" 
>
<path vector-effect="none" fill-rule="evenodd" d="M95,170 L95,154 L153,154 L153,170 L95,170"/>
</g>
</g>
</svg>
