<?xml version="1.0" encoding="UTF-8" standalone="no"?>
<svg width="170.039mm" height="56.0917mm"
 viewBox="0 0 482 159"
 xmlns="http://www.w3.org/2000/svg" xmlns:xlink="http://www.w3.org/1999/xlink"  version="1.2" baseProfile="tiny">
<title>Qt SVG Document</title>
<desc>MATLAB, The MathWorks, Inc. Version 25.2.0.3123386 R2025b Update 3</desc>
<defs>
</defs>
<g fill="none" stroke="black" stroke-width="1" fill-rule="evenodd" stroke-linecap="square" stroke-linejoin="bevel" >

<g fill="#ffffff" fill-opacity="1" stroke="none" transform="matrix(0.75,0,0,0.75,0,0)"
font-family="MS Shell Dlg 2" font-size="8.25" font-weight="400" font-style="normal" 
>
<path vector-effect="none" fill-rule="evenodd" d="M0,0 L644,0 L644,213 L0,213 L0,0"/>
</g>

<g fill="#ffffff" fill-opacity="1" stroke="none" transform="matrix(7.5e-05,0,0,7.5e-05,0,0)"
font-family="MS Shell Dlg 2" font-size="8.25" font-weight="400" font-style="normal" 
>
<path vector-effect="none" fill-rule="evenodd" d="M840000,360000 L840000,1.78e+06 L5.82e+06,1.78e+06 L5.82e+06,360000 L840000,360000"/>
</g>

<g fill="#212121" fill-opacity="0.14902" stroke="#212121" stroke-opacity="0.14902" stroke-width="0.666667" stroke-linecap="butt" stroke-linejoin="round" transform="matrix(0.75,0,0,0.75,0,0)"
font-family="MS Shell Dlg 2" font-size="8.25" font-weight="400" font-style="normal" 
>
<polyline fill="none" vector-effect="none" points="84,36 84,178 " />
<polyline fill="none" vector-effect="none" points="133.8,36 133.8,178 " />
<polyline fill="none" vector-effect="none" points="183.6,36 183.6,178 " />
<polyline fill="none" vector-effect="none" points="233.4,36 233.4,178 " />
<polyline fill="none" vector-effect="none" points="283.2,36 283.2,178 " />
<polyline fill="none" vector-effect="none" points="333,36 333,178 " />
<polyline fill="none" vector-effect="none" points="382.8,36 382.8,178 " />
<polyline fill="none" vector-effect="none" points="432.6,36 432.6,178 " />
<polyline fill="none" vector-effect="none" points="482.4,36 482.4,178 " />
<polyline fill="none" vector-effect="none" points="532.2,36 532.2,178 " />
<polyline fill="none" vector-effect="none" points="582,36 582,178 " />
</g>

<g fill="#212121" fill-opacity="0.14902" stroke="#212121" stroke-opacity="0.14902" stroke-dasharray="1,3" stroke-dashoffset="0" stroke-width="0.666667" stroke-linecap="butt" stroke-linejoin="round" transform="matrix(0.75,0,0,0.75,0,0)"
font-family="MS Shell Dlg 2" font-size="8.25" font-weight="400" font-style="normal" 
>
<polyline fill="none" vector-effect="none" points="93.96,36 93.96,178 " />
<polyline fill="none" vector-effect="none" points="103.92,36 103.92,178 " />
<polyline fill="none" vector-effect="none" points="113.88,36 113.88,178 " />
<polyline fill="none" vector-effect="none" points="123.84,36 123.84,178 " />
<polyline fill="none" vector-effect="none" points="143.76,36 143.76,178 " />
<polyline fill="none" vector-effect="none" points="153.72,36 153.72,178 " />
<polyline fill="none" vector-effect="none" points="163.68,36 163.68,178 " />
<polyline fill="none" vector-effect="none" points="173.64,36 173.64,178 " />
<polyline fill="none" vector-effect="none" points="193.56,36 193.56,178 " />
<polyline fill="none" vector-effect="none" points="203.52,36 203.52,178 " />
<polyline fill="none" vector-effect="none" points="213.48,36 213.48,178 " />
<polyline fill="none" vector-effect="none" points="223.44,36 223.44,178 " />
<polyline fill="none" vector-effect="none" points="243.36,36 243.36,178 " />
<polyline fill="none" vector-effect="none" points="253.32,36 253.32,178 " />
<polyline fill="none" vector-effect="none" points="263.28,36 263.28,178 " />
<polyline fill="none" vector-effect="none" points="273.24,36 273.24,178 " />
<polyline fill="none" vector-effect="none" points="293.16,36 293.16,178 " />
<polyline fill="none" vector-effect="none" points="303.12,36 303.12,178 " />
<polyline fill="none" vector-effect="none" points="313.08,36 313.08,178 " />
<polyline fill="none" vector-effect="none" points="323.04,36 323.04,178 " />
<polyline fill="none" vector-effect="none" points="342.96,36 342.96,178 " />
<polyline fill="none" vector-effect="none" points="352.92,36 352.92,178 " />
<polyline fill="none" vector-effect="none" points="362.88,36 362.88,178 " />
<polyline fill="none" vector-effect="none" points="372.84,36 372.84,178 " />
<polyline fill="none" vector-effect="none" points="392.76,36 392.76,178 " />
<polyline fill="none" vector-effect="none" points="402.72,36 402.72,178 " />
<polyline fill="none" vector-effect="none" points="412.68,36 412.68,178 " />
<polyline fill="none" vector-effect="none" points="422.64,36 422.64,178 " />
<polyline fill="none" vector-effect="none" points="442.56,36 442.56,178 " />
<polyline fill="none" vector-effect="none" points="452.52,36 452.52,178 " />
<polyline fill="none" vector-effect="none" points="462.48,36 462.48,178 " />
<polyline fill="none" vector-effect="none" points="472.44,36 472.44,178 " />
<polyline fill="none" vector-effect="none" points="492.36,36 492.36,178 " />
<polyline fill="none" vector-effect="none" points="502.32,36 502.32,178 " />
<polyline fill="none" vector-effect="none" points="512.28,36 512.28,178 " />
<polyline fill="none" vector-effect="none" points="522.24,36 522.24,178 " />
<polyline fill="none" vector-effect="none" points="542.16,36 542.16,178 " />
<polyline fill="none" vector-effect="none" points="552.12,36 552.12,178 " />
<polyline fill="none" vector-effect="none" points="562.08,36 562.08,178 " />
<polyline fill="none" vector-effect="none" points="572.04,36 572.04,178 " />
</g>

<g fill="#212121" fill-opacity="0.14902" stroke="#212121" stroke-opacity="0.14902" stroke-width="0.666667" stroke-linecap="butt" stroke-linejoin="round" transform="matrix(0.75,0,0,0.75,0,0)"
font-family="MS Shell Dlg 2" font-size="8.25" font-weight="400" font-style="normal" 
>
<polyline fill="none" vector-effect="none" points="84,178 582,178 " />
<polyline fill="none" vector-effect="none" points="84,142.5 582,142.5 " />
<polyline fill="none" vector-effect="none" points="84,107 582,107 " />
<polyline fill="none" vector-effect="none" points="84,71.5 582,71.5 " />
<polyline fill="none" vector-effect="none" points="84,36 582,36 " />
</g>

<g fill="#212121" fill-opacity="0.14902" stroke="#212121" stroke-opacity="0.14902" stroke-dasharray="1,3" stroke-dashoffset="0" stroke-width="0.666667" stroke-linecap="butt" stroke-linejoin="round" transform="matrix(0.75,0,0,0.75,0,0)"
font-family="MS Shell Dlg 2" font-size="8.25" font-weight="400" font-style="normal" 
>
<polyline fill="none" vector-effect="none" points="84,169.125 582,169.125 " />
<polyline fill="none" vector-effect="none" points="84,160.25 582,160.25 " />
<polyline fill="none" vector-effect="none" points="84,151.375 582,151.375 " />
<polyline fill="none" vector-effect="none" points="84,133.625 582,133.625 " />
<polyline fill="none" vector-effect="none" points="84,124.75 582,124.75 " />
<polyline fill="none" vector-effect="none" points="84,115.875 582,115.875 " />
<polyline fill="none" vector-effect="none" points="84,98.125 582,98.125 " />
<polyline fill="none" vector-effect="none" points="84,89.25 582,89.25 " />
<polyline fill="none" vector-effect="none" points="84,80.375 582,80.375 " />
<polyline fill="none" vector-effect="none" points="84,62.625 582,62.625 " />
<polyline fill="none" vector-effect="none" points="84,53.75 582,53.75 " />
<polyline fill="none" vector-effect="none" points="84,44.875 582,44.875 " />
</g>

<g fill="#212121" fill-opacity="1" stroke="none" transform="matrix(0.75,0,0,0.75,241.473,155.616)"
font-family="MS Shell Dlg 2" font-size="8.25" font-weight="400" font-style="normal" 
>
<path vector-effect="none" fill-rule="evenodd" d="M1.32813,-1.5625 L1.32813,-5.14063 L0.25,-5.14063 L0.25,-5.48438 C0.8125,-5.48438 1.22656,-5.75 1.49219,-6.28125 C1.75781,-6.8125 1.89063,-7.38542 1.89063,-8 L2.26563,-8 L2.26563,-5.60938 L4.10938,-5.60938 L4.10938,-5.14063 L2.26563,-5.14063 L2.26563,-1.59375 C2.26563,-1.22917 2.32813,-0.911458 2.45313,-0.640625 C2.57813,-0.369792 2.79688,-0.234375 3.10938,-0.234375 C3.40104,-0.234375 3.61198,-0.377604 3.74219,-0.664063 C3.8724,-0.950521 3.9375,-1.26042 3.9375,-1.59375 L3.9375,-2.35938 L4.3125,-2.35938 L4.3125,-1.5625 C4.3125,-1.29167 4.26302,-1.02344 4.16406,-0.757813 C4.0651,-0.492188 3.91927,-0.276042 3.72656,-0.109375 C3.53385,0.0572917 3.29688,0.140625 3.01563,0.140625 C2.49479,0.140625 2.08333,-0.0130208 1.78125,-0.320313 C1.47917,-0.627604 1.32813,-1.04167 1.32813,-1.5625 "/>
</g>

<g fill="#212121" fill-opacity="1" stroke="none" transform="matrix(0.75,0,0,0.75,248.623,155.616)"
font-family="MS Shell Dlg 2" font-size="8.25" font-weight="400" font-style="normal" 
>
<path vector-effect="none" fill-rule="evenodd" d="M1.53125,3.25 L1.53125,-9.75 L3.3125,-9.75 L3.3125,-9.23438 L2.0625,-9.23438 L2.0625,2.73438 L3.3125,2.73438 L3.3125,3.25 L1.53125,3.25"/>
</g>

<g fill="#212121" fill-opacity="1" stroke="none" transform="matrix(0.75,0,0,0.75,251.373,155.616)"
font-family="MS Shell Dlg 2" font-size="8.25" font-weight="400" font-style="normal" 
>
<path vector-effect="none" fill-rule="evenodd" d="M0.4375,0.03125 L0.4375,-2.09375 C0.4375,-2.15625 0.473958,-2.1875 0.546875,-2.1875 L0.703125,-2.1875 C0.755208,-2.1875 0.791667,-2.15625 0.8125,-2.09375 C1.05208,-0.833333 1.63542,-0.203125 2.5625,-0.203125 C2.96875,-0.203125 3.3099,-0.296875 3.58594,-0.484375 C3.86198,-0.671875 4,-0.958333 4,-1.34375 C4,-1.625 3.89323,-1.86458 3.67969,-2.0625 C3.46615,-2.26042 3.20833,-2.39583 2.90625,-2.46875 L2.04688,-2.64063 C1.75521,-2.70313 1.48958,-2.79948 1.25,-2.92969 C1.01042,-3.0599 0.815104,-3.23438 0.664063,-3.45313 C0.513021,-3.67188 0.4375,-3.92188 0.4375,-4.20313 C0.4375,-4.58854 0.536458,-4.90104 0.734375,-5.14063 C0.932292,-5.38021 1.19271,-5.55469 1.51563,-5.66406 C1.83854,-5.77344 2.1875,-5.82813 2.5625,-5.82813 C3,-5.82813 3.38542,-5.71354 3.71875,-5.48438 L4.09375,-5.79688 C4.09375,-5.81771 4.11458,-5.82813 4.15625,-5.82813 L4.25,-5.82813 C4.28125,-5.82813 4.30729,-5.8151 4.32813,-5.78906 C4.34896,-5.76302 4.35938,-5.73958 4.35938,-5.71875 L4.35938,-4.03125 C4.35938,-3.94792 4.32292,-3.90625 4.25,-3.90625 L4.09375,-3.90625 C4.02083,-3.90625 3.98438,-3.94792 3.98438,-4.03125 C3.98438,-4.47917 3.85677,-4.84115 3.60156,-5.11719 C3.34635,-5.39323 2.99479,-5.53125 2.54688,-5.53125 C2.16146,-5.53125 1.82552,-5.45833 1.53906,-5.3125 C1.2526,-5.16667 1.10938,-4.92188 1.10938,-4.57813 C1.10938,-4.32813 1.21094,-4.1276 1.41406,-3.97656 C1.61719,-3.82552 1.85938,-3.71354 2.14063,-3.64063 L3.01563,-3.48438 C3.30729,-3.41146 3.58333,-3.29427 3.84375,-3.13281 C4.10417,-2.97135 4.30729,-2.76823 4.45313,-2.52344 C4.59896,-2.27865 4.67188,-2 4.67188,-1.6875 C4.67188,-1.375 4.61979,-1.10417 4.51563,-0.875 C4.41146,-0.645833 4.26302,-0.453125 4.07031,-0.296875 C3.8776,-0.140625 3.64844,-0.0286458 3.38281,0.0390625 C3.11719,0.106771 2.84375,0.140625 2.5625,0.140625 C2.02083,0.140625 1.55729,-0.0416667 1.17188,-0.40625 L0.6875,0.109375 C0.6875,0.130208 0.666667,0.140625 0.625,0.140625 L0.546875,0.140625 C0.473958,0.140625 0.4375,0.104167 0.4375,0.03125 "/>
</g>

<g fill="#212121" fill-opacity="1" stroke="none" transform="matrix(0.75,0,0,0.75,255.278,155.616)"
font-family="MS Shell Dlg 2" font-size="8.25" font-weight="400" font-style="normal" 
>
<path vector-effect="none" fill-rule="evenodd" d="M0.28125,3.25 L0.28125,2.73438 L1.54688,2.73438 L1.54688,-9.23438 L0.28125,-9.23438 L0.28125,-9.75 L2.0625,-9.75 L2.0625,3.25 L0.28125,3.25"/>
</g>

<g fill="#212121" fill-opacity="1" stroke="#212121" stroke-opacity="1" stroke-width="0.666667" stroke-linecap="square" stroke-linejoin="round" transform="matrix(0.75,0,0,0.75,0,0)"
font-family="MS Shell Dlg 2" font-size="8.25" font-weight="400" font-style="normal" 
>
<polyline fill="none" vector-effect="none" points="84,178 582,178 " />
<polyline fill="none" vector-effect="none" points="84,36 582,36 " />
<polyline fill="none" vector-effect="none" points="84,178 84,173.02 " />
<polyline fill="none" vector-effect="none" points="84,40.98 84,36 " />
<polyline fill="none" vector-effect="none" points="133.8,178 133.8,173.02 " />
<polyline fill="none" vector-effect="none" points="133.8,40.98 133.8,36 " />
<polyline fill="none" vector-effect="none" points="183.6,178 183.6,173.02 " />
<polyline fill="none" vector-effect="none" points="183.6,40.98 183.6,36 " />
<polyline fill="none" vector-effect="none" points="233.4,178 233.4,173.02 " />
<polyline fill="none" vector-effect="none" points="233.4,40.98 233.4,36 " />
<polyline fill="none" vector-effect="none" points="283.2,178 283.2,173.02 " />
<polyline fill="none" vector-effect="none" points="283.2,40.98 283.2,36 " />
<polyline fill="none" vector-effect="none" points="333,178 333,173.02 " />
<polyline fill="none" vector-effect="none" points="333,40.98 333,36 " />
<polyline fill="none" vector-effect="none" points="382.8,178 382.8,173.02 " />
<polyline fill="none" vector-effect="none" points="382.8,40.98 382.8,36 " />
<polyline fill="none" vector-effect="none" points="432.6,178 432.6,173.02 " />
<polyline fill="none" vector-effect="none" points="432.6,40.98 432.6,36 " />
<polyline fill="none" vector-effect="none" points="482.4,178 482.4,173.02 " />
<polyline fill="none" vector-effect="none" points="482.4,40.98 482.4,36 " />
<polyline fill="none" vector-effect="none" points="532.2,178 532.2,173.02 " />
<polyline fill="none" vector-effect="none" points="532.2,40.98 532.2,36 " />
<polyline fill="none" vector-effect="none" points="582,178 582,173.02 " />
<polyline fill="none" vector-effect="none" points="582,40.98 582,36 " />
</g>

<g fill="#212121" fill-opacity="1" stroke="none" transform="matrix(0.75,0,0,0.75,60.375,144.55)"
font-family="MS Shell Dlg 2" font-size="8.25" font-weight="400" font-style="normal" 
>
<path vector-effect="none" fill-rule="evenodd" d="M0.5,-4.23438 C0.5,-5.25521 0.604167,-6.07552 0.8125,-6.69531 C1.02083,-7.3151 1.33073,-7.79167 1.74219,-8.125 C2.15365,-8.45833 2.67188,-8.625 3.29688,-8.625 C3.75521,-8.625 4.15885,-8.53125 4.50781,-8.34375 C4.85677,-8.15625 5.14583,-7.88802 5.375,-7.53906 C5.60417,-7.1901 5.78125,-6.76563 5.90625,-6.26563 C6.03125,-5.76563 6.09375,-5.08854 6.09375,-4.23438 C6.09375,-3.22396 5.99219,-2.41146 5.78906,-1.79688 C5.58594,-1.18229 5.27865,-0.705729 4.86719,-0.367188 C4.45573,-0.0286458 3.93229,0.140625 3.29688,0.140625 C2.47396,0.140625 1.82292,-0.15625 1.34375,-0.75 C0.78125,-1.45833 0.5,-2.61979 0.5,-4.23438 M1.57813,-4.23438 C1.57813,-2.82813 1.74479,-1.89063 2.07813,-1.42188 C2.41146,-0.953125 2.81771,-0.71875 3.29688,-0.71875 C3.78646,-0.71875 4.19531,-0.953125 4.52344,-1.42188 C4.85156,-1.89063 5.01563,-2.82813 5.01563,-4.23438 C5.01563,-5.65104 4.85156,-6.59115 4.52344,-7.05469 C4.19531,-7.51823 3.78125,-7.75 3.28125,-7.75 C2.80208,-7.75 2.41667,-7.54688 2.125,-7.14063 C1.76042,-6.61979 1.57813,-5.65104 1.57813,-4.23438 "/>
</g>

<g fill="#212121" fill-opacity="1" stroke="none" transform="matrix(0.75,0,0,0.75,97.725,144.55)"
font-family="MS Shell Dlg 2" font-size="8.25" font-weight="400" font-style="normal" 
>
<path vector-effect="none" fill-rule="evenodd" d="M4.46875,0 L3.42188,0 L3.42188,-6.71875 C3.16146,-6.47917 2.82552,-6.23698 2.41406,-5.99219 C2.0026,-5.7474 1.63542,-5.56771 1.3125,-5.45313 L1.3125,-6.46875 C1.89583,-6.75 2.40885,-7.08594 2.85156,-7.47656 C3.29427,-7.86719 3.60938,-8.25 3.79688,-8.625 L4.46875,-8.625 L4.46875,0"/>
</g>

<g fill="#212121" fill-opacity="1" stroke="none" transform="matrix(0.75,0,0,0.75,135.075,144.55)"
font-family="MS Shell Dlg 2" font-size="8.25" font-weight="400" font-style="normal" 
>
<path vector-effect="none" fill-rule="evenodd" d="M6.04688,-1.01563 L6.04688,0 L0.359375,0 C0.359375,-0.25 0.401042,-0.494792 0.484375,-0.734375 C0.630208,-1.11979 0.861979,-1.5 1.17969,-1.875 C1.4974,-2.25 1.95833,-2.68229 2.5625,-3.17188 C3.5,-3.94271 4.13281,-4.55208 4.46094,-5 C4.78906,-5.44792 4.95313,-5.86979 4.95313,-6.26563 C4.95313,-6.68229 4.80208,-7.03385 4.5,-7.32031 C4.19792,-7.60677 3.80729,-7.75 3.32813,-7.75 C2.81771,-7.75 2.41146,-7.59896 2.10938,-7.29688 C1.80729,-6.99479 1.65104,-6.57292 1.64063,-6.03125 L0.5625,-6.14063 C0.635417,-6.95313 0.914063,-7.57031 1.39844,-7.99219 C1.88281,-8.41406 2.53646,-8.625 3.35938,-8.625 C4.18229,-8.625 4.83333,-8.39583 5.3125,-7.9375 C5.79167,-7.47917 6.03125,-6.91146 6.03125,-6.23438 C6.03125,-5.89063 5.96094,-5.55469 5.82031,-5.22656 C5.67969,-4.89844 5.44531,-4.54948 5.11719,-4.17969 C4.78906,-3.8099 4.25,-3.30729 3.5,-2.67188 C2.86458,-2.14063 2.45573,-1.77865 2.27344,-1.58594 C2.09115,-1.39323 1.94271,-1.20313 1.82813,-1.01563 L6.04688,-1.01563"/>
</g>

<g fill="#212121" fill-opacity="1" stroke="none" transform="matrix(0.75,0,0,0.75,172.425,144.55)"
font-family="MS Shell Dlg 2" font-size="8.25" font-weight="400" font-style="normal" 
>
<path vector-effect="none" fill-rule="evenodd" d="M0.5,-2.26563 L1.5625,-2.40625 C1.67708,-1.8125 1.88021,-1.38281 2.17188,-1.11719 C2.46354,-0.851563 2.81771,-0.71875 3.23438,-0.71875 C3.73438,-0.71875 4.15625,-0.890625 4.5,-1.23438 C4.84375,-1.57813 5.01563,-2.00521 5.01563,-2.51563 C5.01563,-2.99479 4.85677,-3.39323 4.53906,-3.71094 C4.22135,-4.02865 3.81771,-4.1875 3.32813,-4.1875 C3.13021,-4.1875 2.88021,-4.14583 2.57813,-4.0625 L2.70313,-5 C2.77604,-4.98958 2.83333,-4.98438 2.875,-4.98438 C3.32292,-4.98438 3.72656,-5.10156 4.08594,-5.33594 C4.44531,-5.57031 4.625,-5.93229 4.625,-6.42188 C4.625,-6.80729 4.49479,-7.1276 4.23438,-7.38281 C3.97396,-7.63802 3.63542,-7.76563 3.21875,-7.76563 C2.8125,-7.76563 2.47135,-7.63542 2.19531,-7.375 C1.91927,-7.11458 1.74479,-6.72917 1.67188,-6.21875 L0.609375,-6.40625 C0.734375,-7.10417 1.02604,-7.64844 1.48438,-8.03906 C1.94271,-8.42969 2.51042,-8.625 3.1875,-8.625 C3.65625,-8.625 4.08854,-8.52344 4.48438,-8.32031 C4.88021,-8.11719 5.18229,-7.84375 5.39063,-7.5 C5.59896,-7.15625 5.70313,-6.78646 5.70313,-6.39063 C5.70313,-6.02604 5.60417,-5.6901 5.40625,-5.38281 C5.20833,-5.07552 4.91667,-4.83333 4.53125,-4.65625 C5.03125,-4.54167 5.42188,-4.29948 5.70313,-3.92969 C5.98438,-3.5599 6.125,-3.09375 6.125,-2.53125 C6.125,-1.78125 5.85156,-1.14583 5.30469,-0.625 C4.75781,-0.104167 4.06771,0.15625 3.23438,0.15625 C2.48438,0.15625 1.85938,-0.0703125 1.35938,-0.523438 C0.859375,-0.976563 0.572917,-1.55729 0.5,-2.26563 "/>
</g>

<g fill="#212121" fill-opacity="1" stroke="none" transform="matrix(0.75,0,0,0.75,209.775,144.55)"
font-family="MS Shell Dlg 2" font-size="8.25" font-weight="400" font-style="normal" 
>
<path vector-effect="none" fill-rule="evenodd" d="M3.875,0 L3.875,-2.0625 L0.15625,-2.0625 L0.15625,-3.03125 L4.07813,-8.59375 L4.9375,-8.59375 L4.9375,-3.03125 L6.09375,-3.03125 L6.09375,-2.0625 L4.9375,-2.0625 L4.9375,0 L3.875,0 M3.875,-3.03125 L3.875,-6.89063 L1.1875,-3.03125 L3.875,-3.03125"/>
</g>

<g fill="#212121" fill-opacity="1" stroke="none" transform="matrix(0.75,0,0,0.75,247.125,144.55)"
font-family="MS Shell Dlg 2" font-size="8.25" font-weight="400" font-style="normal" 
>
<path vector-effect="none" fill-rule="evenodd" d="M0.5,-2.25 L1.60938,-2.34375 C1.69271,-1.80208 1.88281,-1.39583 2.17969,-1.125 C2.47656,-0.854167 2.83854,-0.71875 3.26563,-0.71875 C3.76563,-0.71875 4.19271,-0.911458 4.54688,-1.29688 C4.90104,-1.68229 5.07813,-2.1875 5.07813,-2.8125 C5.07813,-3.41667 4.90885,-3.89323 4.57031,-4.24219 C4.23177,-4.59115 3.78646,-4.76563 3.23438,-4.76563 C2.90104,-4.76563 2.59635,-4.6875 2.32031,-4.53125 C2.04427,-4.375 1.82813,-4.17708 1.67188,-3.9375 L0.6875,-4.0625 L1.51563,-8.46875 L5.79688,-8.46875 L5.79688,-7.46875 L2.35938,-7.46875 L1.90625,-5.15625 C2.41667,-5.52083 2.95313,-5.70313 3.51563,-5.70313 C4.26563,-5.70313 4.89844,-5.44271 5.41406,-4.92188 C5.92969,-4.40104 6.1875,-3.72917 6.1875,-2.90625 C6.1875,-2.13542 5.96354,-1.46354 5.51563,-0.890625 C4.96354,-0.203125 4.21354,0.140625 3.26563,0.140625 C2.48438,0.140625 1.84635,-0.078125 1.35156,-0.515625 C0.856771,-0.953125 0.572917,-1.53125 0.5,-2.25 "/>
</g>

<g fill="#212121" fill-opacity="1" stroke="none" transform="matrix(0.75,0,0,0.75,284.475,144.55)"
font-family="MS Shell Dlg 2" font-size="8.25" font-weight="400" font-style="normal" 
>
<path vector-effect="none" fill-rule="evenodd" d="M5.96875,-6.48438 L4.92188,-6.40625 C4.82813,-6.82292 4.69792,-7.125 4.53125,-7.3125 C4.23958,-7.61458 3.88542,-7.76563 3.46875,-7.76563 C3.13542,-7.76563 2.83854,-7.67188 2.57813,-7.48438 C2.25521,-7.23438 1.9974,-6.8776 1.80469,-6.41406 C1.61198,-5.95052 1.51042,-5.29167 1.5,-4.4375 C1.75,-4.82292 2.0599,-5.10938 2.42969,-5.29688 C2.79948,-5.48438 3.1875,-5.57813 3.59375,-5.57813 C4.29167,-5.57813 4.88802,-5.31771 5.38281,-4.79688 C5.8776,-4.27604 6.125,-3.60938 6.125,-2.79688 C6.125,-2.25521 6.00781,-1.7526 5.77344,-1.28906 C5.53906,-0.825521 5.21875,-0.471354 4.8125,-0.226563 C4.40625,0.0182292 3.94792,0.140625 3.4375,0.140625 C2.55208,0.140625 1.83333,-0.182292 1.28125,-0.828125 C0.729167,-1.47396 0.453125,-2.53646 0.453125,-4.01563 C0.453125,-5.68229 0.760417,-6.89063 1.375,-7.64063 C1.90625,-8.29688 2.625,-8.625 3.53125,-8.625 C4.20833,-8.625 4.76302,-8.4349 5.19531,-8.05469 C5.6276,-7.67448 5.88542,-7.15104 5.96875,-6.48438 M1.67188,-2.78125 C1.67188,-2.41667 1.7474,-2.07031 1.89844,-1.74219 C2.04948,-1.41406 2.26302,-1.16146 2.53906,-0.984375 C2.8151,-0.807292 3.10938,-0.71875 3.42188,-0.71875 C3.85938,-0.71875 4.23958,-0.898438 4.5625,-1.25781 C4.88542,-1.61719 5.04688,-2.10417 5.04688,-2.71875 C5.04688,-3.3125 4.88802,-3.78125 4.57031,-4.125 C4.2526,-4.46875 3.85417,-4.64063 3.375,-4.64063 C2.89583,-4.64063 2.49219,-4.46875 2.16406,-4.125 C1.83594,-3.78125 1.67188,-3.33333 1.67188,-2.78125 "/>
</g>

<g fill="#212121" fill-opacity="1" stroke="none" transform="matrix(0.75,0,0,0.75,321.825,144.55)"
font-family="MS Shell Dlg 2" font-size="8.25" font-weight="400" font-style="normal" 
>
<path vector-effect="none" fill-rule="evenodd" d="M0.5625,-7.46875 L0.5625,-8.48438 L6.125,-8.48438 L6.125,-7.65625 C5.58333,-7.07292 5.04427,-6.29948 4.50781,-5.33594 C3.97135,-4.3724 3.55729,-3.38021 3.26563,-2.35938 C3.04688,-1.64063 2.91146,-0.854167 2.85938,0 L1.76563,0 C1.77604,-0.677083 1.90885,-1.49479 2.16406,-2.45313 C2.41927,-3.41146 2.78385,-4.33333 3.25781,-5.21875 C3.73177,-6.10417 4.23958,-6.85417 4.78125,-7.46875 L0.5625,-7.46875"/>
</g>

<g fill="#212121" fill-opacity="1" stroke="none" transform="matrix(0.75,0,0,0.75,359.175,144.55)"
font-family="MS Shell Dlg 2" font-size="8.25" font-weight="400" font-style="normal" 
>
<path vector-effect="none" fill-rule="evenodd" d="M2.125,-4.65625 C1.6875,-4.82292 1.36198,-5.05469 1.14844,-5.35156 C0.934896,-5.64844 0.828125,-6 0.828125,-6.40625 C0.828125,-7.03125 1.05469,-7.55729 1.50781,-7.98438 C1.96094,-8.41146 2.55729,-8.625 3.29688,-8.625 C4.04688,-8.625 4.65104,-8.40625 5.10938,-7.96875 C5.56771,-7.53125 5.79688,-7 5.79688,-6.375 C5.79688,-5.97917 5.69271,-5.63542 5.48438,-5.34375 C5.27604,-5.05208 4.95833,-4.82292 4.53125,-4.65625 C5.0625,-4.48958 5.46354,-4.21354 5.73438,-3.82813 C6.00521,-3.44271 6.14063,-2.98438 6.14063,-2.45313 C6.14063,-1.72396 5.88281,-1.10938 5.36719,-0.609375 C4.85156,-0.109375 4.16667,0.140625 3.3125,0.140625 C2.46875,0.140625 1.78646,-0.109375 1.26563,-0.609375 C0.744792,-1.10938 0.484375,-1.73438 0.484375,-2.48438 C0.484375,-3.04688 0.627604,-3.51563 0.914063,-3.89063 C1.20052,-4.26563 1.60417,-4.52083 2.125,-4.65625 M1.90625,-6.45313 C1.90625,-6.04688 2.03906,-5.71354 2.30469,-5.45313 C2.57031,-5.19271 2.91146,-5.0625 3.32813,-5.0625 C3.73438,-5.0625 4.06771,-5.1901 4.32813,-5.44531 C4.58854,-5.70052 4.71875,-6.01563 4.71875,-6.39063 C4.71875,-6.77604 4.58333,-7.10156 4.3125,-7.36719 C4.04167,-7.63281 3.70833,-7.76563 3.3125,-7.76563 C2.90625,-7.76563 2.57031,-7.63542 2.30469,-7.375 C2.03906,-7.11458 1.90625,-6.80729 1.90625,-6.45313 M1.57813,-2.48438 C1.57813,-2.18229 1.64844,-1.89063 1.78906,-1.60938 C1.92969,-1.32813 2.14063,-1.10938 2.42188,-0.953125 C2.70313,-0.796875 3.00521,-0.71875 3.32813,-0.71875 C3.82813,-0.71875 4.24219,-0.880208 4.57031,-1.20313 C4.89844,-1.52604 5.0625,-1.9375 5.0625,-2.4375 C5.0625,-2.94792 4.89583,-3.36979 4.5625,-3.70313 C4.22917,-4.03646 3.80729,-4.20313 3.29688,-4.20313 C2.79688,-4.20313 2.38542,-4.03906 2.0625,-3.71094 C1.73958,-3.38281 1.57813,-2.97396 1.57813,-2.48438 "/>
</g>

<g fill="#212121" fill-opacity="1" stroke="none" transform="matrix(0.75,0,0,0.75,396.525,144.55)"
font-family="MS Shell Dlg 2" font-size="8.25" font-weight="400" font-style="normal" 
>
<path vector-effect="none" fill-rule="evenodd" d="M0.65625,-1.98438 L1.67188,-2.07813 C1.75521,-1.59896 1.91927,-1.2526 2.16406,-1.03906 C2.40885,-0.825521 2.71875,-0.71875 3.09375,-0.71875 C3.41667,-0.71875 3.70052,-0.794271 3.94531,-0.945313 C4.1901,-1.09635 4.39063,-1.29427 4.54688,-1.53906 C4.70313,-1.78385 4.83333,-2.11719 4.9375,-2.53906 C5.04167,-2.96094 5.09375,-3.39063 5.09375,-3.82813 C5.09375,-3.88021 5.09375,-3.95313 5.09375,-4.04688 C4.88542,-3.71354 4.59896,-3.4401 4.23438,-3.22656 C3.86979,-3.01302 3.47396,-2.90625 3.04688,-2.90625 C2.32813,-2.90625 1.72396,-3.16406 1.23438,-3.67969 C0.744792,-4.19531 0.5,-4.875 0.5,-5.71875 C0.5,-6.59375 0.757813,-7.29688 1.27344,-7.82813 C1.78906,-8.35938 2.43229,-8.625 3.20313,-8.625 C3.75521,-8.625 4.26302,-8.47396 4.72656,-8.17188 C5.1901,-7.86979 5.54167,-7.4401 5.78125,-6.88281 C6.02083,-6.32552 6.14063,-5.52083 6.14063,-4.46875 C6.14063,-3.375 6.02344,-2.5026 5.78906,-1.85156 C5.55469,-1.20052 5.20052,-0.705729 4.72656,-0.367188 C4.2526,-0.0286458 3.70313,0.140625 3.07813,0.140625 C2.40104,0.140625 1.84896,-0.0442708 1.42188,-0.414063 C0.994792,-0.783854 0.739583,-1.30729 0.65625,-1.98438 M4.96875,-5.78125 C4.96875,-6.38542 4.8099,-6.86458 4.49219,-7.21875 C4.17448,-7.57292 3.78646,-7.75 3.32813,-7.75 C2.85938,-7.75 2.45052,-7.5599 2.10156,-7.17969 C1.7526,-6.79948 1.57813,-6.30208 1.57813,-5.6875 C1.57813,-5.14583 1.74479,-4.70313 2.07813,-4.35938 C2.41146,-4.01563 2.81771,-3.84375 3.29688,-3.84375 C3.78646,-3.84375 4.1875,-4.01563 4.5,-4.35938 C4.8125,-4.70313 4.96875,-5.17708 4.96875,-5.78125 "/>
</g>

<g fill="#212121" fill-opacity="1" stroke="none" transform="matrix(0.75,0,0,0.75,431.25,144.55)"
font-family="MS Shell Dlg 2" font-size="8.25" font-weight="400" font-style="normal" 
>
<path vector-effect="none" fill-rule="evenodd" d="M4.46875,0 L3.42188,0 L3.42188,-6.71875 C3.16146,-6.47917 2.82552,-6.23698 2.41406,-5.99219 C2.0026,-5.7474 1.63542,-5.56771 1.3125,-5.45313 L1.3125,-6.46875 C1.89583,-6.75 2.40885,-7.08594 2.85156,-7.47656 C3.29427,-7.86719 3.60938,-8.25 3.79688,-8.625 L4.46875,-8.625 L4.46875,0 M7.5,-4.23438 C7.5,-5.25521 7.60417,-6.07552 7.8125,-6.69531 C8.02083,-7.3151 8.33073,-7.79167 8.74219,-8.125 C9.15365,-8.45833 9.67188,-8.625 10.2969,-8.625 C10.7552,-8.625 11.1589,-8.53125 11.5078,-8.34375 C11.8568,-8.15625 12.1458,-7.88802 12.375,-7.53906 C12.6042,-7.1901 12.7813,-6.76563 12.9063,-6.26563 C13.0313,-5.76563 13.0938,-5.08854 13.0938,-4.23438 C13.0938,-3.22396 12.9922,-2.41146 12.7891,-1.79688 C12.5859,-1.18229 12.2786,-0.705729 11.8672,-0.367188 C11.4557,-0.0286458 10.9323,0.140625 10.2969,0.140625 C9.47396,0.140625 8.82292,-0.15625 8.34375,-0.75 C7.78125,-1.45833 7.5,-2.61979 7.5,-4.23438 M8.57813,-4.23438 C8.57813,-2.82813 8.74479,-1.89063 9.07813,-1.42188 C9.41146,-0.953125 9.81771,-0.71875 10.2969,-0.71875 C10.7865,-0.71875 11.1953,-0.953125 11.5234,-1.42188 C11.8516,-1.89063 12.0156,-2.82813 12.0156,-4.23438 C12.0156,-5.65104 11.8516,-6.59115 11.5234,-7.05469 C11.1953,-7.51823 10.7813,-7.75 10.2813,-7.75 C9.80208,-7.75 9.41667,-7.54688 9.125,-7.14063 C8.76042,-6.61979 8.57813,-5.65104 8.57813,-4.23438 "/>
</g>

<g fill="#212121" fill-opacity="1" stroke="none" transform="matrix(0,-0.75,0.75,0,44.136,104.528)"
font-family="MS Shell Dlg 2" font-size="8.25" font-weight="400" font-style="normal" 
>
<path vector-effect="none" fill-rule="evenodd" d="M1.375,-1.42188 C1.375,-1.70313 1.41406,-1.99219 1.49219,-2.28906 C1.57031,-2.58594 1.67708,-2.91667 1.8125,-3.28125 C1.94792,-3.64583 2.06771,-3.96354 2.17188,-4.23438 C2.28646,-4.55729 2.34375,-4.81771 2.34375,-5.01563 C2.34375,-5.27604 2.25,-5.40625 2.0625,-5.40625 C1.71875,-5.40625 1.4349,-5.22917 1.21094,-4.875 C0.986979,-4.52083 0.822917,-4.13021 0.71875,-3.70313 C0.697917,-3.64063 0.661458,-3.60938 0.609375,-3.60938 L0.453125,-3.60938 C0.380208,-3.60938 0.34375,-3.65104 0.34375,-3.73438 L0.34375,-3.76563 C0.489583,-4.28646 0.705729,-4.7474 0.992188,-5.14844 C1.27865,-5.54948 1.64063,-5.75 2.07813,-5.75 C2.39063,-5.75 2.65365,-5.64844 2.86719,-5.44531 C3.08073,-5.24219 3.1875,-4.98438 3.1875,-4.67188 C3.1875,-4.50521 3.15104,-4.33333 3.07813,-4.15625 C3.03646,-4.05208 2.94792,-3.82292 2.8125,-3.46875 C2.67708,-3.11458 2.57552,-2.82031 2.50781,-2.58594 C2.4401,-2.35156 2.38281,-2.1224 2.33594,-1.89844 C2.28906,-1.67448 2.26563,-1.45313 2.26563,-1.23438 C2.26563,-0.942708 2.32552,-0.697917 2.44531,-0.5 C2.5651,-0.302083 2.76563,-0.203125 3.04688,-0.203125 C3.59896,-0.203125 4.08333,-0.546875 4.5,-1.23438 C4.51042,-1.26563 4.51823,-1.29688 4.52344,-1.32813 C4.52865,-1.35938 4.53125,-1.39063 4.53125,-1.42188 L5.46875,-5.1875 C5.5,-5.30208 5.56771,-5.40104 5.67188,-5.48438 C5.77604,-5.56771 5.89063,-5.60938 6.01563,-5.60938 C6.11979,-5.60938 6.21094,-5.57552 6.28906,-5.50781 C6.36719,-5.4401 6.40625,-5.34896 6.40625,-5.23438 C6.40625,-5.18229 6.40625,-5.15104 6.40625,-5.14063 L5.45313,-1.39063 C5.40104,-1.14063 5.375,-0.932292 5.375,-0.765625 C5.375,-0.390625 5.5,-0.203125 5.75,-0.203125 C6.02083,-0.203125 6.22656,-0.375 6.36719,-0.71875 C6.50781,-1.0625 6.625,-1.46354 6.71875,-1.92188 C6.73958,-1.96354 6.77604,-1.98438 6.82813,-1.98438 L6.98438,-1.98438 C7.01563,-1.98438 7.04167,-1.97135 7.0625,-1.94531 C7.08333,-1.91927 7.09375,-1.89063 7.09375,-1.85938 C7,-1.48438 6.91146,-1.16406 6.82813,-0.898438 C6.74479,-0.632813 6.60938,-0.393229 6.42188,-0.179688 C6.23438,0.0338542 6,0.140625 5.71875,0.140625 C5.44792,0.140625 5.20313,0.0651042 4.98438,-0.0859375 C4.76563,-0.236979 4.61458,-0.442708 4.53125,-0.703125 C4.33333,-0.442708 4.10417,-0.236979 3.84375,-0.0859375 C3.58333,0.0651042 3.30729,0.140625 3.01563,0.140625 C2.51563,0.140625 2.11719,0.00520833 1.82031,-0.265625 C1.52344,-0.536458 1.375,-0.921875 1.375,-1.42188 "/>
</g>

<g fill="#212121" fill-opacity="1" stroke="none" transform="matrix(0,-0.75,0.75,0,44.136,98.8611)"
font-family="MS Shell Dlg 2" font-size="8.25" font-weight="400" font-style="normal" 
>
<path vector-effect="none" fill-rule="evenodd" d="M1.53125,3.25 L1.53125,-9.75 L3.3125,-9.75 L3.3125,-9.23438 L2.0625,-9.23438 L2.0625,2.73438 L3.3125,2.73438 L3.3125,3.25 L1.53125,3.25"/>
</g>

<g fill="#212121" fill-opacity="1" stroke="none" transform="matrix(0,-0.75,0.75,0,44.136,96.1111)"
font-family="MS Shell Dlg 2" font-size="8.25" font-weight="400" font-style="normal" 
>
<path vector-effect="none" fill-rule="evenodd" d="M1.8125,0.46875 C1.8125,0.416667 1.82292,0.375 1.84375,0.34375 L7.73438,-8.4375 C7.21354,-8.14583 6.64063,-8 6.01563,-8 C5.33854,-8 4.6875,-8.17708 4.0625,-8.53125 C4.23958,-8.11458 4.32813,-7.65104 4.32813,-7.14063 C4.32813,-6.85938 4.29427,-6.57031 4.22656,-6.27344 C4.15885,-5.97656 4.05729,-5.69531 3.92188,-5.42969 C3.78646,-5.16406 3.61198,-4.94531 3.39844,-4.77344 C3.1849,-4.60156 2.9375,-4.51563 2.65625,-4.51563 C2.25,-4.51563 1.90104,-4.65104 1.60938,-4.92188 C1.31771,-5.19271 1.09896,-5.53125 0.953125,-5.9375 C0.807292,-6.34375 0.734375,-6.74479 0.734375,-7.14063 C0.734375,-7.52604 0.807292,-7.92188 0.953125,-8.32813 C1.09896,-8.73438 1.31771,-9.07292 1.60938,-9.34375 C1.90104,-9.61458 2.25,-9.75 2.65625,-9.75 C2.97917,-9.75 3.27083,-9.61979 3.53125,-9.35938 C4.22917,-8.67188 5.05729,-8.32813 6.01563,-8.32813 C6.52604,-8.32813 7.00521,-8.44271 7.45313,-8.67188 C7.90104,-8.90104 8.26563,-9.22917 8.54688,-9.65625 C8.58854,-9.71875 8.65625,-9.75 8.75,-9.75 C8.82292,-9.75 8.88281,-9.72656 8.92969,-9.67969 C8.97656,-9.63281 9,-9.56771 9,-9.48438 C9,-9.44271 8.98958,-9.40104 8.96875,-9.35938 L2.26563,0.65625 C2.22396,0.708333 2.15625,0.734375 2.0625,0.734375 C2,0.734375 1.94271,0.705729 1.89063,0.648438 C1.83854,0.591146 1.8125,0.53125 1.8125,0.46875 M2.65625,-4.84375 C3.08333,-4.84375 3.40625,-5.09896 3.625,-5.60938 C3.84375,-6.11979 3.95313,-6.63021 3.95313,-7.14063 C3.95313,-7.42188 3.90885,-7.74219 3.82031,-8.10156 C3.73177,-8.46094 3.58854,-8.76823 3.39063,-9.02344 C3.19271,-9.27865 2.94792,-9.40625 2.65625,-9.40625 C2.21875,-9.40625 1.93229,-9.16667 1.79688,-8.6875 C1.66146,-8.20833 1.59375,-7.6875 1.59375,-7.125 C1.59375,-6.57292 1.66406,-6.05469 1.80469,-5.57031 C1.94531,-5.08594 2.22917,-4.84375 2.65625,-4.84375 M8.40625,0.734375 C8,0.734375 7.65104,0.598958 7.35938,0.328125 C7.06771,0.0572917 6.84896,-0.283854 6.70313,-0.695313 C6.55729,-1.10677 6.48438,-1.50521 6.48438,-1.89063 C6.48438,-2.27604 6.55729,-2.67448 6.70313,-3.08594 C6.84896,-3.4974 7.06771,-3.83854 7.35938,-4.10938 C7.65104,-4.38021 8,-4.51563 8.40625,-4.51563 C8.78125,-4.51563 9.09635,-4.3724 9.35156,-4.08594 C9.60677,-3.79948 9.79427,-3.45573 9.91406,-3.05469 C10.0339,-2.65365 10.0938,-2.26563 10.0938,-1.89063 C10.0938,-1.61979 10.0599,-1.33594 9.99219,-1.03906 C9.92448,-0.742188 9.82292,-0.458333 9.6875,-0.1875 C9.55208,0.0833333 9.3776,0.304688 9.16406,0.476563 C8.95052,0.648438 8.69792,0.734375 8.40625,0.734375 M8.40625,0.390625 C8.69792,0.390625 8.94531,0.260417 9.14844,0 C9.35156,-0.260417 9.4974,-0.570313 9.58594,-0.929688 C9.67448,-1.28906 9.71875,-1.61458 9.71875,-1.90625 C9.71875,-2.40625 9.60677,-2.90885 9.38281,-3.41406 C9.15885,-3.91927 8.83333,-4.17188 8.40625,-4.17188 C7.97917,-4.17188 7.69531,-3.93229 7.55469,-3.45313 C7.41406,-2.97396 7.34375,-2.45313 7.34375,-1.89063 C7.34375,-1.33854 7.41667,-0.820313 7.5625,-0.335938 C7.70833,0.148438 7.98958,0.390625 8.40625,0.390625 "/>
</g>

<g fill="#212121" fill-opacity="1" stroke="none" transform="matrix(0,-0.75,0.75,0,44.136,87.8611)"
font-family="MS Shell Dlg 2" font-size="8.25" font-weight="400" font-style="normal" 
>
<path vector-effect="none" fill-rule="evenodd" d="M0.640625,0 C0.557292,0 0.515625,-0.0572917 0.515625,-0.171875 C0.515625,-0.192708 0.520833,-0.229167 0.53125,-0.28125 C0.541667,-0.333333 0.559896,-0.375 0.585938,-0.40625 C0.611979,-0.4375 0.640625,-0.453125 0.671875,-0.453125 C1.20313,-0.453125 1.57292,-0.484375 1.78125,-0.546875 C1.89583,-0.588542 1.97917,-0.703125 2.03125,-0.890625 L3.8125,-8.03125 C3.82292,-8.11458 3.82813,-8.17708 3.82813,-8.21875 C3.82813,-8.3125 3.78125,-8.36458 3.6875,-8.375 C3.52083,-8.40625 3.20833,-8.42188 2.75,-8.42188 C2.65625,-8.42188 2.60938,-8.47917 2.60938,-8.59375 C2.61979,-8.61458 2.63021,-8.65104 2.64063,-8.70313 C2.65104,-8.75521 2.66927,-8.79688 2.69531,-8.82813 C2.72135,-8.85938 2.75,-8.875 2.78125,-8.875 L7.26563,-8.875 C7.68229,-8.875 8.08333,-8.80208 8.46875,-8.65625 C8.85417,-8.51042 9.16927,-8.28906 9.41406,-7.99219 C9.65885,-7.69531 9.78125,-7.33333 9.78125,-6.90625 C9.78125,-6.35417 9.58594,-5.86198 9.19531,-5.42969 C8.80469,-4.9974 8.32031,-4.66146 7.74219,-4.42188 C7.16406,-4.18229 6.60417,-4.0625 6.0625,-4.0625 L3.95313,-4.0625 L3.15625,-0.84375 C3.14583,-0.760417 3.14063,-0.697917 3.14063,-0.65625 C3.14063,-0.625 3.14583,-0.598958 3.15625,-0.578125 C3.16667,-0.557292 3.17969,-0.541667 3.19531,-0.53125 C3.21094,-0.520833 3.23958,-0.515625 3.28125,-0.515625 C3.44792,-0.473958 3.76563,-0.453125 4.23438,-0.453125 C4.31771,-0.453125 4.35938,-0.395833 4.35938,-0.28125 C4.32813,-0.166667 4.30469,-0.0911458 4.28906,-0.0546875 C4.27344,-0.0182292 4.21875,0 4.125,0 L0.640625,0 M4.01563,-4.4375 L5.84375,-4.4375 C6.6875,-4.4375 7.32813,-4.66667 7.76563,-5.125 C7.98438,-5.34375 8.16667,-5.66667 8.3125,-6.09375 C8.45833,-6.52083 8.53125,-6.90625 8.53125,-7.25 C8.53125,-7.67708 8.36719,-7.97917 8.03906,-8.15625 C7.71094,-8.33333 7.30729,-8.42188 6.82813,-8.42188 L5.57813,-8.42188 C5.33854,-8.42188 5.18229,-8.40104 5.10938,-8.35938 C5.03646,-8.31771 4.96875,-8.19271 4.90625,-7.98438 L4.01563,-4.4375"/>
</g>

<g fill="#212121" fill-opacity="1" stroke="none" transform="matrix(0,-0.75,0.75,0,44.136,80.1302)"
font-family="MS Shell Dlg 2" font-size="8.25" font-weight="400" font-style="normal" 
>
<path vector-effect="none" fill-rule="evenodd" d="M2.3125,0.140625 L1.71875,-8.14063 C1.6875,-8.26563 1.59115,-8.34375 1.42969,-8.375 C1.26823,-8.40625 1.06771,-8.42188 0.828125,-8.42188 C0.744792,-8.42188 0.703125,-8.47917 0.703125,-8.59375 C0.734375,-8.70833 0.757813,-8.78385 0.773438,-8.82031 C0.789063,-8.85677 0.838542,-8.875 0.921875,-8.875 L4.01563,-8.875 C4.09896,-8.875 4.14063,-8.81771 4.14063,-8.70313 C4.10938,-8.51563 4.05729,-8.42188 3.98438,-8.42188 C3.28646,-8.42188 2.91667,-8.30208 2.875,-8.0625 L3.34375,-1.5 L6.59375,-7.15625 L6.53125,-8.14063 C6.5,-8.26563 6.40365,-8.34375 6.24219,-8.375 C6.08073,-8.40625 5.88021,-8.42188 5.64063,-8.42188 C5.55729,-8.42188 5.51563,-8.47917 5.51563,-8.59375 C5.53646,-8.70833 5.55729,-8.78385 5.57813,-8.82031 C5.59896,-8.85677 5.65104,-8.875 5.73438,-8.875 L8.82813,-8.875 C8.91146,-8.875 8.95313,-8.81771 8.95313,-8.70313 C8.95313,-8.68229 8.94531,-8.64844 8.92969,-8.60156 C8.91406,-8.55469 8.89583,-8.51302 8.875,-8.47656 C8.85417,-8.4401 8.82292,-8.42188 8.78125,-8.42188 C8.08333,-8.42188 7.71875,-8.30208 7.6875,-8.0625 L7.6875,-7.96875 L8.15625,-1.5 L11.6875,-7.67188 C11.7396,-7.76563 11.7656,-7.85417 11.7656,-7.9375 C11.7656,-8.11458 11.6771,-8.23958 11.5,-8.3125 C11.3229,-8.38542 11.1302,-8.42188 10.9219,-8.42188 C10.8385,-8.42188 10.7969,-8.47917 10.7969,-8.59375 C10.8073,-8.66667 10.8177,-8.72135 10.8281,-8.75781 C10.8385,-8.79427 10.8594,-8.82292 10.8906,-8.84375 C10.9219,-8.86458 10.9635,-8.875 11.0156,-8.875 L13.5,-8.875 C13.5833,-8.875 13.625,-8.81771 13.625,-8.70313 C13.6146,-8.68229 13.6042,-8.64583 13.5938,-8.59375 C13.5833,-8.54167 13.5677,-8.5 13.5469,-8.46875 C13.526,-8.4375 13.4948,-8.42188 13.4531,-8.42188 C12.8385,-8.42188 12.3698,-8.14063 12.0469,-7.57813 C12.026,-7.55729 12.0156,-7.54688 12.0156,-7.54688 L7.60938,0.140625 C7.55729,0.234375 7.47917,0.28125 7.375,0.28125 L7.28125,0.28125 C7.17708,0.28125 7.125,0.234375 7.125,0.140625 L6.625,-6.54688 L2.8125,0.140625 C2.73958,0.234375 2.66146,0.28125 2.57813,0.28125 L2.46875,0.28125 C2.36458,0.28125 2.3125,0.234375 2.3125,0.140625 "/>
</g>

<g fill="#212121" fill-opacity="1" stroke="none" transform="matrix(0,-0.75,0.75,0,44.136,69.4052)"
font-family="MS Shell Dlg 2" font-size="8.25" font-weight="400" font-style="normal" 
>
<path vector-effect="none" fill-rule="evenodd" d="M0.65625,0 C0.572917,0 0.53125,-0.0572917 0.53125,-0.171875 C0.541667,-0.192708 0.552083,-0.229167 0.5625,-0.28125 C0.572917,-0.333333 0.588542,-0.375 0.609375,-0.40625 C0.630208,-0.4375 0.661458,-0.453125 0.703125,-0.453125 C1.52604,-0.453125 2.00521,-0.71875 2.14063,-1.25 L3.82813,-8.03125 C3.84896,-8.11458 3.85938,-8.17708 3.85938,-8.21875 C3.85938,-8.3125 3.80729,-8.36458 3.70313,-8.375 C3.53646,-8.40625 3.22396,-8.42188 2.76563,-8.42188 C2.68229,-8.42188 2.64063,-8.47917 2.64063,-8.59375 C2.64063,-8.61458 2.64844,-8.65104 2.66406,-8.70313 C2.67969,-8.75521 2.69792,-8.79688 2.71875,-8.82813 C2.73958,-8.85938 2.77083,-8.875 2.8125,-8.875 L5.09375,-8.875 C5.19792,-8.875 5.25521,-8.82813 5.26563,-8.73438 L6.28125,-1.28125 L11.0156,-8.73438 C11.0781,-8.82813 11.1615,-8.875 11.2656,-8.875 L13.4688,-8.875 C13.5521,-8.875 13.5938,-8.81771 13.5938,-8.70313 C13.5938,-8.68229 13.5859,-8.64583 13.5703,-8.59375 C13.5547,-8.54167 13.5365,-8.5 13.5156,-8.46875 C13.4948,-8.4375 13.4688,-8.42188 13.4375,-8.42188 C12.9063,-8.42188 12.5365,-8.39063 12.3281,-8.32813 C12.2135,-8.29688 12.1302,-8.18229 12.0781,-7.98438 L10.2969,-0.84375 C10.276,-0.760417 10.2656,-0.697917 10.2656,-0.65625 C10.2656,-0.625 10.2708,-0.598958 10.2813,-0.578125 C10.2917,-0.557292 10.3073,-0.541667 10.3281,-0.53125 C10.349,-0.520833 10.3802,-0.515625 10.4219,-0.515625 C10.5885,-0.473958 10.901,-0.453125 11.3594,-0.453125 C11.4427,-0.453125 11.4844,-0.395833 11.4844,-0.28125 C11.4531,-0.166667 11.4297,-0.0911458 11.4141,-0.0546875 C11.3984,-0.0182292 11.3542,0 11.2813,0 L7.875,0 C7.79167,0 7.75,-0.0572917 7.75,-0.171875 C7.75,-0.192708 7.75781,-0.229167 7.77344,-0.28125 C7.78906,-0.333333 7.80729,-0.375 7.82813,-0.40625 C7.84896,-0.4375 7.88021,-0.453125 7.92188,-0.453125 C8.44271,-0.453125 8.80729,-0.484375 9.01563,-0.546875 C9.13021,-0.588542 9.21354,-0.703125 9.26563,-0.890625 L11.1406,-8.42188 L5.89063,-0.140625 C5.83854,-0.046875 5.75,0 5.625,0 C5.52083,0 5.46354,-0.046875 5.45313,-0.140625 L4.34375,-8.32813 L2.5625,-1.1875 C2.55208,-1.16667 2.54427,-1.14063 2.53906,-1.10938 C2.53385,-1.07813 2.52604,-1.04167 2.51563,-1 C2.51563,-0.78125 2.61458,-0.635417 2.8125,-0.5625 C3.01042,-0.489583 3.25,-0.453125 3.53125,-0.453125 C3.625,-0.453125 3.67188,-0.395833 3.67188,-0.28125 C3.64063,-0.166667 3.61458,-0.0911458 3.59375,-0.0546875 C3.57292,-0.0182292 3.52604,0 3.45313,0 L0.65625,0"/>
</g>

<g fill="#212121" fill-opacity="1" stroke="none" transform="matrix(0,-0.75,0.75,0,44.136,58.7214)"
font-family="MS Shell Dlg 2" font-size="8.25" font-weight="400" font-style="normal" 
>
<path vector-effect="none" fill-rule="evenodd" d="M0.28125,3.25 L0.28125,2.73438 L1.54688,2.73438 L1.54688,-9.23438 L0.28125,-9.23438 L0.28125,-9.75 L2.0625,-9.75 L2.0625,3.25 L0.28125,3.25"/>
</g>

<g fill="#212121" fill-opacity="1" stroke="#212121" stroke-opacity="1" stroke-width="0.666667" stroke-linecap="square" stroke-linejoin="round" transform="matrix(0.75,0,0,0.75,0,0)"
font-family="MS Shell Dlg 2" font-size="8.25" font-weight="400" font-style="normal" 
>
<polyline fill="none" vector-effect="none" points="84,178 84,36 " />
<polyline fill="none" vector-effect="none" points="582,178 582,36 " />
<polyline fill="none" vector-effect="none" points="84,178 88.98,178 " />
<polyline fill="none" vector-effect="none" points="577.02,178 582,178 " />
<polyline fill="none" vector-effect="none" points="84,142.5 88.98,142.5 " />
<polyline fill="none" vector-effect="none" points="577.02,142.5 582,142.5 " />
<polyline fill="none" vector-effect="none" points="84,107 88.98,107 " />
<polyline fill="none" vector-effect="none" points="577.02,107 582,107 " />
<polyline fill="none" vector-effect="none" points="84,71.5 88.98,71.5 " />
<polyline fill="none" vector-effect="none" points="577.02,71.5 582,71.5 " />
<polyline fill="none" vector-effect="none" points="84,36 88.98,36 " />
<polyline fill="none" vector-effect="none" points="577.02,36 582,36 " />
</g>

<g fill="#212121" fill-opacity="1" stroke="none" transform="matrix(0.75,0,0,0.75,54.95,136.5)"
font-family="MS Shell Dlg 2" font-size="8.25" font-weight="400" font-style="normal" 
>
<path vector-effect="none" fill-rule="evenodd" d="M0.5,-4.23438 C0.5,-5.25521 0.604167,-6.07552 0.8125,-6.69531 C1.02083,-7.3151 1.33073,-7.79167 1.74219,-8.125 C2.15365,-8.45833 2.67188,-8.625 3.29688,-8.625 C3.75521,-8.625 4.15885,-8.53125 4.50781,-8.34375 C4.85677,-8.15625 5.14583,-7.88802 5.375,-7.53906 C5.60417,-7.1901 5.78125,-6.76563 5.90625,-6.26563 C6.03125,-5.76563 6.09375,-5.08854 6.09375,-4.23438 C6.09375,-3.22396 5.99219,-2.41146 5.78906,-1.79688 C5.58594,-1.18229 5.27865,-0.705729 4.86719,-0.367188 C4.45573,-0.0286458 3.93229,0.140625 3.29688,0.140625 C2.47396,0.140625 1.82292,-0.15625 1.34375,-0.75 C0.78125,-1.45833 0.5,-2.61979 0.5,-4.23438 M1.57813,-4.23438 C1.57813,-2.82813 1.74479,-1.89063 2.07813,-1.42188 C2.41146,-0.953125 2.81771,-0.71875 3.29688,-0.71875 C3.78646,-0.71875 4.19531,-0.953125 4.52344,-1.42188 C4.85156,-1.89063 5.01563,-2.82813 5.01563,-4.23438 C5.01563,-5.65104 4.85156,-6.59115 4.52344,-7.05469 C4.19531,-7.51823 3.78125,-7.75 3.28125,-7.75 C2.80208,-7.75 2.41667,-7.54688 2.125,-7.14063 C1.76042,-6.61979 1.57813,-5.65104 1.57813,-4.23438 "/>
</g>

<g fill="#212121" fill-opacity="1" stroke="none" transform="matrix(0.75,0,0,0.75,49.7,109.875)"
font-family="MS Shell Dlg 2" font-size="8.25" font-weight="400" font-style="normal" 
>
<path vector-effect="none" fill-rule="evenodd" d="M6.04688,-1.01563 L6.04688,0 L0.359375,0 C0.359375,-0.25 0.401042,-0.494792 0.484375,-0.734375 C0.630208,-1.11979 0.861979,-1.5 1.17969,-1.875 C1.4974,-2.25 1.95833,-2.68229 2.5625,-3.17188 C3.5,-3.94271 4.13281,-4.55208 4.46094,-5 C4.78906,-5.44792 4.95313,-5.86979 4.95313,-6.26563 C4.95313,-6.68229 4.80208,-7.03385 4.5,-7.32031 C4.19792,-7.60677 3.80729,-7.75 3.32813,-7.75 C2.81771,-7.75 2.41146,-7.59896 2.10938,-7.29688 C1.80729,-6.99479 1.65104,-6.57292 1.64063,-6.03125 L0.5625,-6.14063 C0.635417,-6.95313 0.914063,-7.57031 1.39844,-7.99219 C1.88281,-8.41406 2.53646,-8.625 3.35938,-8.625 C4.18229,-8.625 4.83333,-8.39583 5.3125,-7.9375 C5.79167,-7.47917 6.03125,-6.91146 6.03125,-6.23438 C6.03125,-5.89063 5.96094,-5.55469 5.82031,-5.22656 C5.67969,-4.89844 5.44531,-4.54948 5.11719,-4.17969 C4.78906,-3.8099 4.25,-3.30729 3.5,-2.67188 C2.86458,-2.14063 2.45573,-1.77865 2.27344,-1.58594 C2.09115,-1.39323 1.94271,-1.20313 1.82813,-1.01563 L6.04688,-1.01563 M7.5,-4.23438 C7.5,-5.25521 7.60417,-6.07552 7.8125,-6.69531 C8.02083,-7.3151 8.33073,-7.79167 8.74219,-8.125 C9.15365,-8.45833 9.67188,-8.625 10.2969,-8.625 C10.7552,-8.625 11.1589,-8.53125 11.5078,-8.34375 C11.8568,-8.15625 12.1458,-7.88802 12.375,-7.53906 C12.6042,-7.1901 12.7813,-6.76563 12.9063,-6.26563 C13.0313,-5.76563 13.0938,-5.08854 13.0938,-4.23438 C13.0938,-3.22396 12.9922,-2.41146 12.7891,-1.79688 C12.5859,-1.18229 12.2786,-0.705729 11.8672,-0.367188 C11.4557,-0.0286458 10.9323,0.140625 10.2969,0.140625 C9.47396,0.140625 8.82292,-0.15625 8.34375,-0.75 C7.78125,-1.45833 7.5,-2.61979 7.5,-4.23438 M8.57813,-4.23438 C8.57813,-2.82813 8.74479,-1.89063 9.07813,-1.42188 C9.41146,-0.953125 9.81771,-0.71875 10.2969,-0.71875 C10.7865,-0.71875 11.1953,-0.953125 11.5234,-1.42188 C11.8516,-1.89063 12.0156,-2.82813 12.0156,-4.23438 C12.0156,-5.65104 11.8516,-6.59115 11.5234,-7.05469 C11.1953,-7.51823 10.7813,-7.75 10.2813,-7.75 C9.80208,-7.75 9.41667,-7.54688 9.125,-7.14063 C8.76042,-6.61979 8.57813,-5.65104 8.57813,-4.23438 "/>
</g>

<g fill="#212121" fill-opacity="1" stroke="none" transform="matrix(0.75,0,0,0.75,49.7,83.25)"
font-family="MS Shell Dlg 2" font-size="8.25" font-weight="400" font-style="normal" 
>
<path vector-effect="none" fill-rule="evenodd" d="M3.875,0 L3.875,-2.0625 L0.15625,-2.0625 L0.15625,-3.03125 L4.07813,-8.59375 L4.9375,-8.59375 L4.9375,-3.03125 L6.09375,-3.03125 L6.09375,-2.0625 L4.9375,-2.0625 L4.9375,0 L3.875,0 M3.875,-3.03125 L3.875,-6.89063 L1.1875,-3.03125 L3.875,-3.03125 M7.5,-4.23438 C7.5,-5.25521 7.60417,-6.07552 7.8125,-6.69531 C8.02083,-7.3151 8.33073,-7.79167 8.74219,-8.125 C9.15365,-8.45833 9.67188,-8.625 10.2969,-8.625 C10.7552,-8.625 11.1589,-8.53125 11.5078,-8.34375 C11.8568,-8.15625 12.1458,-7.88802 12.375,-7.53906 C12.6042,-7.1901 12.7813,-6.76563 12.9063,-6.26563 C13.0313,-5.76563 13.0938,-5.08854 13.0938,-4.23438 C13.0938,-3.22396 12.9922,-2.41146 12.7891,-1.79688 C12.5859,-1.18229 12.2786,-0.705729 11.8672,-0.367188 C11.4557,-0.0286458 10.9323,0.140625 10.2969,0.140625 C9.47396,0.140625 8.82292,-0.15625 8.34375,-0.75 C7.78125,-1.45833 7.5,-2.61979 7.5,-4.23438 M8.57813,-4.23438 C8.57813,-2.82813 8.74479,-1.89063 9.07813,-1.42188 C9.41146,-0.953125 9.81771,-0.71875 10.2969,-0.71875 C10.7865,-0.71875 11.1953,-0.953125 11.5234,-1.42188 C11.8516,-1.89063 12.0156,-2.82813 12.0156,-4.23438 C12.0156,-5.65104 11.8516,-6.59115 11.5234,-7.05469 C11.1953,-7.51823 10.7813,-7.75 10.2813,-7.75 C9.80208,-7.75 9.41667,-7.54688 9.125,-7.14063 C8.76042,-6.61979 8.57813,-5.65104 8.57813,-4.23438 "/>
</g>

<g fill="#212121" fill-opacity="1" stroke="none" transform="matrix(0.75,0,0,0.75,49.7,56.625)"
font-family="MS Shell Dlg 2" font-size="8.25" font-weight="400" font-style="normal" 
>
<path vector-effect="none" fill-rule="evenodd" d="M5.96875,-6.48438 L4.92188,-6.40625 C4.82813,-6.82292 4.69792,-7.125 4.53125,-7.3125 C4.23958,-7.61458 3.88542,-7.76563 3.46875,-7.76563 C3.13542,-7.76563 2.83854,-7.67188 2.57813,-7.48438 C2.25521,-7.23438 1.9974,-6.8776 1.80469,-6.41406 C1.61198,-5.95052 1.51042,-5.29167 1.5,-4.4375 C1.75,-4.82292 2.0599,-5.10938 2.42969,-5.29688 C2.79948,-5.48438 3.1875,-5.57813 3.59375,-5.57813 C4.29167,-5.57813 4.88802,-5.31771 5.38281,-4.79688 C5.8776,-4.27604 6.125,-3.60938 6.125,-2.79688 C6.125,-2.25521 6.00781,-1.7526 5.77344,-1.28906 C5.53906,-0.825521 5.21875,-0.471354 4.8125,-0.226563 C4.40625,0.0182292 3.94792,0.140625 3.4375,0.140625 C2.55208,0.140625 1.83333,-0.182292 1.28125,-0.828125 C0.729167,-1.47396 0.453125,-2.53646 0.453125,-4.01563 C0.453125,-5.68229 0.760417,-6.89063 1.375,-7.64063 C1.90625,-8.29688 2.625,-8.625 3.53125,-8.625 C4.20833,-8.625 4.76302,-8.4349 5.19531,-8.05469 C5.6276,-7.67448 5.88542,-7.15104 5.96875,-6.48438 M1.67188,-2.78125 C1.67188,-2.41667 1.7474,-2.07031 1.89844,-1.74219 C2.04948,-1.41406 2.26302,-1.16146 2.53906,-0.984375 C2.8151,-0.807292 3.10938,-0.71875 3.42188,-0.71875 C3.85938,-0.71875 4.23958,-0.898438 4.5625,-1.25781 C4.88542,-1.61719 5.04688,-2.10417 5.04688,-2.71875 C5.04688,-3.3125 4.88802,-3.78125 4.57031,-4.125 C4.2526,-4.46875 3.85417,-4.64063 3.375,-4.64063 C2.89583,-4.64063 2.49219,-4.46875 2.16406,-4.125 C1.83594,-3.78125 1.67188,-3.33333 1.67188,-2.78125 M7.5,-4.23438 C7.5,-5.25521 7.60417,-6.07552 7.8125,-6.69531 C8.02083,-7.3151 8.33073,-7.79167 8.74219,-8.125 C9.15365,-8.45833 9.67188,-8.625 10.2969,-8.625 C10.7552,-8.625 11.1589,-8.53125 11.5078,-8.34375 C11.8568,-8.15625 12.1458,-7.88802 12.375,-7.53906 C12.6042,-7.1901 12.7813,-6.76563 12.9063,-6.26563 C13.0313,-5.76563 13.0938,-5.08854 13.0938,-4.23438 C13.0938,-3.22396 12.9922,-2.41146 12.7891,-1.79688 C12.5859,-1.18229 12.2786,-0.705729 11.8672,-0.367188 C11.4557,-0.0286458 10.9323,0.140625 10.2969,0.140625 C9.47396,0.140625 8.82292,-0.15625 8.34375,-0.75 C7.78125,-1.45833 7.5,-2.61979 7.5,-4.23438 M8.57813,-4.23438 C8.57813,-2.82813 8.74479,-1.89063 9.07813,-1.42188 C9.41146,-0.953125 9.81771,-0.71875 10.2969,-0.71875 C10.7865,-0.71875 11.1953,-0.953125 11.5234,-1.42188 C11.8516,-1.89063 12.0156,-2.82813 12.0156,-4.23438 C12.0156,-5.65104 11.8516,-6.59115 11.5234,-7.05469 C11.1953,-7.51823 10.7813,-7.75 10.2813,-7.75 C9.80208,-7.75 9.41667,-7.54688 9.125,-7.14063 C8.76042,-6.61979 8.57813,-5.65104 8.57813,-4.23438 "/>
</g>

<g fill="#212121" fill-opacity="1" stroke="none" transform="matrix(0.75,0,0,0.75,49.7,30)"
font-family="MS Shell Dlg 2" font-size="8.25" font-weight="400" font-style="normal" 
>
<path vector-effect="none" fill-rule="evenodd" d="M2.125,-4.65625 C1.6875,-4.82292 1.36198,-5.05469 1.14844,-5.35156 C0.934896,-5.64844 0.828125,-6 0.828125,-6.40625 C0.828125,-7.03125 1.05469,-7.55729 1.50781,-7.98438 C1.96094,-8.41146 2.55729,-8.625 3.29688,-8.625 C4.04688,-8.625 4.65104,-8.40625 5.10938,-7.96875 C5.56771,-7.53125 5.79688,-7 5.79688,-6.375 C5.79688,-5.97917 5.69271,-5.63542 5.48438,-5.34375 C5.27604,-5.05208 4.95833,-4.82292 4.53125,-4.65625 C5.0625,-4.48958 5.46354,-4.21354 5.73438,-3.82813 C6.00521,-3.44271 6.14063,-2.98438 6.14063,-2.45313 C6.14063,-1.72396 5.88281,-1.10938 5.36719,-0.609375 C4.85156,-0.109375 4.16667,0.140625 3.3125,0.140625 C2.46875,0.140625 1.78646,-0.109375 1.26563,-0.609375 C0.744792,-1.10938 0.484375,-1.73438 0.484375,-2.48438 C0.484375,-3.04688 0.627604,-3.51563 0.914063,-3.89063 C1.20052,-4.26563 1.60417,-4.52083 2.125,-4.65625 M1.90625,-6.45313 C1.90625,-6.04688 2.03906,-5.71354 2.30469,-5.45313 C2.57031,-5.19271 2.91146,-5.0625 3.32813,-5.0625 C3.73438,-5.0625 4.06771,-5.1901 4.32813,-5.44531 C4.58854,-5.70052 4.71875,-6.01563 4.71875,-6.39063 C4.71875,-6.77604 4.58333,-7.10156 4.3125,-7.36719 C4.04167,-7.63281 3.70833,-7.76563 3.3125,-7.76563 C2.90625,-7.76563 2.57031,-7.63542 2.30469,-7.375 C2.03906,-7.11458 1.90625,-6.80729 1.90625,-6.45313 M1.57813,-2.48438 C1.57813,-2.18229 1.64844,-1.89063 1.78906,-1.60938 C1.92969,-1.32813 2.14063,-1.10938 2.42188,-0.953125 C2.70313,-0.796875 3.00521,-0.71875 3.32813,-0.71875 C3.82813,-0.71875 4.24219,-0.880208 4.57031,-1.20313 C4.89844,-1.52604 5.0625,-1.9375 5.0625,-2.4375 C5.0625,-2.94792 4.89583,-3.36979 4.5625,-3.70313 C4.22917,-4.03646 3.80729,-4.20313 3.29688,-4.20313 C2.79688,-4.20313 2.38542,-4.03906 2.0625,-3.71094 C1.73958,-3.38281 1.57813,-2.97396 1.57813,-2.48438 M7.5,-4.23438 C7.5,-5.25521 7.60417,-6.07552 7.8125,-6.69531 C8.02083,-7.3151 8.33073,-7.79167 8.74219,-8.125 C9.15365,-8.45833 9.67188,-8.625 10.2969,-8.625 C10.7552,-8.625 11.1589,-8.53125 11.5078,-8.34375 C11.8568,-8.15625 12.1458,-7.88802 12.375,-7.53906 C12.6042,-7.1901 12.7813,-6.76563 12.9063,-6.26563 C13.0313,-5.76563 13.0938,-5.08854 13.0938,-4.23438 C13.0938,-3.22396 12.9922,-2.41146 12.7891,-1.79688 C12.5859,-1.18229 12.2786,-0.705729 11.8672,-0.367188 C11.4557,-0.0286458 10.9323,0.140625 10.2969,0.140625 C9.47396,0.140625 8.82292,-0.15625 8.34375,-0.75 C7.78125,-1.45833 7.5,-2.61979 7.5,-4.23438 M8.57813,-4.23438 C8.57813,-2.82813 8.74479,-1.89063 9.07813,-1.42188 C9.41146,-0.953125 9.81771,-0.71875 10.2969,-0.71875 C10.7865,-0.71875 11.1953,-0.953125 11.5234,-1.42188 C11.8516,-1.89063 12.0156,-2.82813 12.0156,-4.23438 C12.0156,-5.65104 11.8516,-6.59115 11.5234,-7.05469 C11.1953,-7.51823 10.7813,-7.75 10.2813,-7.75 C9.80208,-7.75 9.41667,-7.54688 9.125,-7.14063 C8.76042,-6.61979 8.57813,-5.65104 8.57813,-4.23438 "/>
</g>

<g fill="#212121" fill-opacity="1" stroke="none" transform="matrix(0.75,0,0,0.75,219,9.68139)"
font-family="MS Shell Dlg 2" font-size="8.25" font-weight="400" font-style="normal" 
>
<path vector-effect="none" fill-rule="evenodd" d="M6.90625,-3.42188 L8.71875,-2.84375 C8.4375,-1.83333 7.97396,-1.08073 7.32813,-0.585938 C6.68229,-0.0911458 5.85938,0.15625 4.85938,0.15625 C3.61979,0.15625 2.60156,-0.265625 1.80469,-1.10938 C1.00781,-1.95313 0.609375,-3.10938 0.609375,-4.57813 C0.609375,-6.11979 1.01042,-7.32031 1.8125,-8.17969 C2.61458,-9.03906 3.66667,-9.46875 4.96875,-9.46875 C6.10417,-9.46875 7.03125,-9.13021 7.75,-8.45313 C8.16667,-8.05729 8.48438,-7.48438 8.70313,-6.73438 L6.84375,-6.29688 C6.72917,-6.77604 6.4974,-7.15625 6.14844,-7.4375 C5.79948,-7.71875 5.375,-7.85938 4.875,-7.85938 C4.1875,-7.85938 3.6276,-7.61198 3.19531,-7.11719 C2.76302,-6.6224 2.54688,-5.81771 2.54688,-4.70313 C2.54688,-3.53646 2.76042,-2.70313 3.1875,-2.20313 C3.61458,-1.70313 4.16667,-1.45313 4.84375,-1.45313 C5.34375,-1.45313 5.77344,-1.61198 6.13281,-1.92969 C6.49219,-2.2474 6.75,-2.74479 6.90625,-3.42188 M9.51563,-3.46875 C9.51563,-4.0625 9.66146,-4.63542 9.95313,-5.1875 C10.2448,-5.73958 10.6589,-6.16146 11.1953,-6.45313 C11.7318,-6.74479 12.3333,-6.89063 13,-6.89063 C14.0104,-6.89063 14.8438,-6.5599 15.5,-5.89844 C16.1563,-5.23698 16.4844,-4.40104 16.4844,-3.39063 C16.4844,-2.36979 16.1536,-1.52344 15.4922,-0.851563 C14.8307,-0.179688 14,0.15625 13,0.15625 C12.3854,0.15625 11.7969,0.015625 11.2344,-0.265625 C10.6719,-0.546875 10.2448,-0.955729 9.95313,-1.49219 C9.66146,-2.02865 9.51563,-2.6875 9.51563,-3.46875 M11.3438,-3.375 C11.3438,-2.70833 11.5026,-2.19531 11.8203,-1.83594 C12.138,-1.47656 12.5313,-1.29688 13,-1.29688 C13.4688,-1.29688 13.8594,-1.47656 14.1719,-1.83594 C14.4844,-2.19531 14.6406,-2.71354 14.6406,-3.39063 C14.6406,-4.04688 14.4844,-4.55208 14.1719,-4.90625 C13.8594,-5.26042 13.4688,-5.4375 13,-5.4375 C12.5313,-5.4375 12.138,-5.26042 11.8203,-4.90625 C11.5026,-4.55208 11.3438,-4.04167 11.3438,-3.375 M24.0625,0 L22.2813,0 L22.2813,-3.4375 C22.2813,-4.16667 22.2422,-4.63802 22.1641,-4.85156 C22.0859,-5.0651 21.9609,-5.23177 21.7891,-5.35156 C21.6172,-5.47135 21.4115,-5.53125 21.1719,-5.53125 C20.8698,-5.53125 20.5964,-5.44531 20.3516,-5.27344 C20.1068,-5.10156 19.9375,-4.8776 19.8438,-4.60156 C19.75,-4.32552 19.7031,-3.80729 19.7031,-3.04688 L19.7031,0 L17.9219,0 L17.9219,-6.73438 L19.5781,-6.73438 L19.5781,-5.75 C20.1615,-6.51042 20.901,-6.89063 21.7969,-6.89063 C22.1927,-6.89063 22.5521,-6.82031 22.875,-6.67969 C23.1979,-6.53906 23.4453,-6.35938 23.6172,-6.14063 C23.7891,-5.92188 23.9063,-5.67188 23.9688,-5.39063 C24.0313,-5.10938 24.0625,-4.70833 24.0625,-4.1875 L24.0625,0 M29.0313,-6.73438 L29.0313,-5.3125 L27.8125,-5.3125 L27.8125,-2.60938 C27.8125,-2.05729 27.8229,-1.73438 27.8438,-1.64063 C27.8646,-1.54688 27.9167,-1.47135 28,-1.41406 C28.0833,-1.35677 28.1823,-1.32813 28.2969,-1.32813 C28.4635,-1.32813 28.7031,-1.38542 29.0156,-1.5 L29.1719,-0.109375 C28.7552,0.0677083 28.2865,0.15625 27.7656,0.15625 C27.4427,0.15625 27.151,0.101563 26.8906,-0.0078125 C26.6302,-0.117188 26.4401,-0.257813 26.3203,-0.429688 C26.2005,-0.601563 26.1198,-0.833333 26.0781,-1.125 C26.0365,-1.33333 26.0156,-1.75 26.0156,-2.375 L26.0156,-5.3125 L25.2031,-5.3125 L25.2031,-6.73438 L26.0156,-6.73438 L26.0156,-8.07813 L27.8125,-9.125 L27.8125,-6.73438 L29.0313,-6.73438 M31.6406,0 L29.8594,0 L29.8594,-6.73438 L31.5156,-6.73438 L31.5156,-5.78125 C31.7969,-6.23958 32.0521,-6.53906 32.2813,-6.67969 C32.5104,-6.82031 32.7656,-6.89063 33.0469,-6.89063 C33.4531,-6.89063 33.8438,-6.78125 34.2188,-6.5625 L33.6719,-5 C33.3698,-5.19792 33.0885,-5.29688 32.8281,-5.29688 C32.5781,-5.29688 32.3672,-5.22656 32.1953,-5.08594 C32.0234,-4.94531 31.888,-4.69531 31.7891,-4.33594 C31.6901,-3.97656 31.6406,-3.22396 31.6406,-2.07813 L31.6406,0 M34.5156,-3.46875 C34.5156,-4.0625 34.6615,-4.63542 34.9531,-5.1875 C35.2448,-5.73958 35.6589,-6.16146 36.1953,-6.45313 C36.7318,-6.74479 37.3333,-6.89063 38,-6.89063 C39.0104,-6.89063 39.8438,-6.5599 40.5,-5.89844 C41.1563,-5.23698 41.4844,-4.40104 41.4844,-3.39063 C41.4844,-2.36979 41.1536,-1.52344 40.4922,-0.851563 C39.8307,-0.179688 39,0.15625 38,0.15625 C37.3854,0.15625 36.7969,0.015625 36.2344,-0.265625 C35.6719,-0.546875 35.2448,-0.955729 34.9531,-1.49219 C34.6615,-2.02865 34.5156,-2.6875 34.5156,-3.46875 M36.3438,-3.375 C36.3438,-2.70833 36.5026,-2.19531 36.8203,-1.83594 C37.138,-1.47656 37.5313,-1.29688 38,-1.29688 C38.4688,-1.29688 38.8594,-1.47656 39.1719,-1.83594 C39.4844,-2.19531 39.6406,-2.71354 39.6406,-3.39063 C39.6406,-4.04688 39.4844,-4.55208 39.1719,-4.90625 C38.8594,-5.26042 38.4688,-5.4375 38,-5.4375 C37.5313,-5.4375 37.138,-5.26042 36.8203,-4.90625 C36.5026,-4.55208 36.3438,-4.04167 36.3438,-3.375 M42.9375,0 L42.9375,-9.3125 L44.7188,-9.3125 L44.7188,0 L42.9375,0 M50.9375,-7.65625 L50.9375,-9.3125 L52.7188,-9.3125 L52.7188,-7.65625 L50.9375,-7.65625 M50.9375,0 L50.9375,-6.73438 L52.7188,-6.73438 L52.7188,0 L50.9375,0 M61.0625,0 L59.2813,0 L59.2813,-3.4375 C59.2813,-4.16667 59.2422,-4.63802 59.1641,-4.85156 C59.0859,-5.0651 58.9609,-5.23177 58.7891,-5.35156 C58.6172,-5.47135 58.4115,-5.53125 58.1719,-5.53125 C57.8698,-5.53125 57.5964,-5.44531 57.3516,-5.27344 C57.1068,-5.10156 56.9375,-4.8776 56.8438,-4.60156 C56.75,-4.32552 56.7031,-3.80729 56.7031,-3.04688 L56.7031,0 L54.9219,0 L54.9219,-6.73438 L56.5781,-6.73438 L56.5781,-5.75 C57.1615,-6.51042 57.901,-6.89063 58.7969,-6.89063 C59.1927,-6.89063 59.5521,-6.82031 59.875,-6.67969 C60.1979,-6.53906 60.4453,-6.35938 60.6172,-6.14063 C60.7891,-5.92188 60.9063,-5.67188 60.9688,-5.39063 C61.0313,-5.10938 61.0625,-4.70833 61.0625,-4.1875 L61.0625,0 M62.875,-6.73438 L64.5469,-6.73438 L64.5469,-5.75 C64.7656,-6.09375 65.0573,-6.36979 65.4219,-6.57813 C65.7865,-6.78646 66.1927,-6.89063 66.6406,-6.89063 C67.4323,-6.89063 68.099,-6.58333 68.6406,-5.96875 C69.1823,-5.35417 69.4531,-4.5 69.4531,-3.40625 C69.4531,-2.28125 69.1797,-1.40625 68.6328,-0.78125 C68.0859,-0.15625 67.4219,0.15625 66.6406,0.15625 C66.2656,0.15625 65.9271,0.0807292 65.625,-0.0703125 C65.3229,-0.221354 65.0052,-0.473958 64.6719,-0.828125 L64.6719,2.5625 L62.875,2.5625 L62.875,-6.73438 M64.6406,-3.48438 C64.6406,-2.72396 64.7917,-2.16406 65.0938,-1.80469 C65.3958,-1.44531 65.7656,-1.26563 66.2031,-1.26563 C66.6094,-1.26563 66.9505,-1.43229 67.2266,-1.76563 C67.5026,-2.09896 67.6406,-2.64063 67.6406,-3.39063 C67.6406,-4.09896 67.5,-4.625 67.2188,-4.96875 C66.9375,-5.3125 66.5885,-5.48438 66.1719,-5.48438 C65.7344,-5.48438 65.3698,-5.3151 65.0781,-4.97656 C64.7865,-4.63802 64.6406,-4.14063 64.6406,-3.48438 M75.375,0 L75.375,-1.01563 C75.125,-0.651042 74.7995,-0.364583 74.3984,-0.15625 C73.9974,0.0520833 73.5781,0.15625 73.1406,0.15625 C72.6823,0.15625 72.2734,0.0572917 71.9141,-0.140625 C71.5547,-0.338542 71.2943,-0.619792 71.1328,-0.984375 C70.9714,-1.34896 70.8906,-1.84375 70.8906,-2.46875 L70.8906,-6.73438 L72.6719,-6.73438 L72.6719,-3.64063 C72.6719,-2.69271 72.7057,-2.11198 72.7734,-1.89844 C72.8411,-1.6849 72.9609,-1.51563 73.1328,-1.39063 C73.3047,-1.26563 73.526,-1.20313 73.7969,-1.20313 C74.099,-1.20313 74.3724,-1.28646 74.6172,-1.45313 C74.862,-1.61979 75.0286,-1.82813 75.1172,-2.07813 C75.2057,-2.32813 75.25,-2.93229 75.25,-3.89063 L75.25,-6.73438 L77.0313,-6.73438 L77.0313,0 L75.375,0 M82.0313,-6.73438 L82.0313,-5.3125 L80.8125,-5.3125 L80.8125,-2.60938 C80.8125,-2.05729 80.8229,-1.73438 80.8438,-1.64063 C80.8646,-1.54688 80.9167,-1.47135 81,-1.41406 C81.0833,-1.35677 81.1823,-1.32813 81.2969,-1.32813 C81.4635,-1.32813 81.7031,-1.38542 82.0156,-1.5 L82.1719,-0.109375 C81.7552,0.0677083 81.2865,0.15625 80.7656,0.15625 C80.4427,0.15625 80.151,0.101563 79.8906,-0.0078125 C79.6302,-0.117188 79.4401,-0.257813 79.3203,-0.429688 C79.2005,-0.601563 79.1198,-0.833333 79.0781,-1.125 C79.0365,-1.33333 79.0156,-1.75 79.0156,-2.375 L79.0156,-5.3125 L78.2031,-5.3125 L78.2031,-6.73438 L79.0156,-6.73438 L79.0156,-8.07813 L80.8125,-9.125 L80.8125,-6.73438 L82.0313,-6.73438"/>
</g>

<g fill="#212121" fill-opacity="1" stroke="none" transform="matrix(0.75,0,0,0.75,227.625,22.8806)"
font-family="MS Shell Dlg 2" font-size="8.25" font-weight="400" font-style="normal" 
>
<path vector-effect="none" fill-rule="evenodd" d="M0.40625,-2.01563 L1.53125,-2.1875 C1.59375,-1.73958 1.77083,-1.39323 2.0625,-1.14844 C2.35417,-0.903646 2.76042,-0.78125 3.28125,-0.78125 C3.80208,-0.78125 4.1901,-0.888021 4.44531,-1.10156 C4.70052,-1.3151 4.82813,-1.56771 4.82813,-1.85938 C4.82813,-2.11979 4.71354,-2.32292 4.48438,-2.46875 C4.32813,-2.57292 3.9375,-2.70313 3.3125,-2.85938 C2.47917,-3.06771 1.90104,-3.25 1.57813,-3.40625 C1.25521,-3.5625 1.01042,-3.77604 0.84375,-4.04688 C0.677083,-4.31771 0.59375,-4.61979 0.59375,-4.95313 C0.59375,-5.25521 0.661458,-5.53385 0.796875,-5.78906 C0.932292,-6.04427 1.11979,-6.25521 1.35938,-6.42188 C1.53646,-6.55729 1.77865,-6.66927 2.08594,-6.75781 C2.39323,-6.84635 2.72396,-6.89063 3.07813,-6.89063 C3.59896,-6.89063 4.0599,-6.8151 4.46094,-6.66406 C4.86198,-6.51302 5.15885,-6.30729 5.35156,-6.04688 C5.54427,-5.78646 5.67708,-5.4375 5.75,-5 L4.625,-4.84375 C4.57292,-5.19792 4.42708,-5.47135 4.1875,-5.66406 C3.94792,-5.85677 3.60417,-5.95313 3.15625,-5.95313 C2.63542,-5.95313 2.26042,-5.86719 2.03125,-5.69531 C1.80208,-5.52344 1.6875,-5.31771 1.6875,-5.07813 C1.6875,-4.93229 1.73438,-4.80208 1.82813,-4.6875 C1.92188,-4.5625 2.06771,-4.45833 2.26563,-4.375 C2.38021,-4.33333 2.71875,-4.23958 3.28125,-4.09375 C4.09375,-3.875 4.65885,-3.69792 4.97656,-3.5625 C5.29427,-3.42708 5.54427,-3.22656 5.72656,-2.96094 C5.90885,-2.69531 6,-2.36979 6,-1.98438 C6,-1.59896 5.88802,-1.23958 5.66406,-0.90625 C5.4401,-0.572917 5.11979,-0.3125 4.70313,-0.125 C4.28646,0.0625 3.8125,0.15625 3.28125,0.15625 C2.40625,0.15625 1.73958,-0.0260417 1.28125,-0.390625 C0.822917,-0.755208 0.53125,-1.29688 0.40625,-2.01563 M7.85938,-7.98438 L7.85938,-9.3125 L9,-9.3125 L9,-7.98438 L7.85938,-7.98438 M7.85938,0 L7.85938,-6.73438 L9,-6.73438 L9,0 L7.85938,0 M10.8594,0 L10.8594,-6.73438 L11.875,-6.73438 L11.875,-5.79688 C12.0938,-6.13021 12.3776,-6.39583 12.7266,-6.59375 C13.0755,-6.79167 13.474,-6.89063 13.9219,-6.89063 C14.4219,-6.89063 14.8307,-6.78646 15.1484,-6.57813 C15.4661,-6.36979 15.6927,-6.08333 15.8281,-5.71875 C16.3594,-6.5 17.0521,-6.89063 17.9063,-6.89063 C18.5729,-6.89063 19.0859,-6.70573 19.4453,-6.33594 C19.8047,-5.96615 19.9844,-5.39583 19.9844,-4.625 L19.9844,0 L18.8594,0 L18.8594,-4.25 C18.8594,-4.70833 18.8229,-5.03646 18.75,-5.23438 C18.6771,-5.43229 18.5417,-5.59375 18.3438,-5.71875 C18.1458,-5.84375 17.9167,-5.90625 17.6563,-5.90625 C17.1771,-5.90625 16.7813,-5.7474 16.4688,-5.42969 C16.1563,-5.11198 16,-4.60938 16,-3.92188 L16,0 L14.8594,0 L14.8594,-4.375 C14.8594,-4.88542 14.7656,-5.26823 14.5781,-5.52344 C14.3906,-5.77865 14.0885,-5.90625 13.6719,-5.90625 C13.349,-5.90625 13.0521,-5.82031 12.7813,-5.64844 C12.5104,-5.47656 12.3125,-5.22917 12.1875,-4.90625 C12.0625,-4.58333 12,-4.11458 12,-3.5 L12,0 L10.8594,0 M26.2813,0 L26.2813,-0.984375 C25.75,-0.223958 25.0365,0.15625 24.1406,0.15625 C23.7448,0.15625 23.3724,0.078125 23.0234,-0.078125 C22.6745,-0.234375 22.4167,-0.427083 22.25,-0.65625 C22.0833,-0.885417 21.9688,-1.16667 21.9063,-1.5 C21.8542,-1.71875 21.8281,-2.07292 21.8281,-2.5625 L21.8281,-6.73438 L22.9688,-6.73438 L22.9688,-3 C22.9688,-2.40625 22.9948,-2.00521 23.0469,-1.79688 C23.1198,-1.49479 23.2708,-1.25781 23.5,-1.08594 C23.7292,-0.914063 24.0156,-0.828125 24.3594,-0.828125 C24.7031,-0.828125 25.026,-0.916667 25.3281,-1.09375 C25.6302,-1.27083 25.8438,-1.51042 25.9688,-1.8125 C26.0938,-2.11458 26.1563,-2.55208 26.1563,-3.125 L26.1563,-6.73438 L27.2969,-6.73438 L27.2969,0 L26.2813,0 M28.8281,0 L28.8281,-9.3125 L29.9688,-9.3125 L29.9688,0 L28.8281,0 M36.25,-0.828125 C35.8333,-0.473958 35.4297,-0.221354 35.0391,-0.0703125 C34.6484,0.0807292 34.2292,0.15625 33.7813,0.15625 C33.0313,0.15625 32.4583,-0.0260417 32.0625,-0.390625 C31.6667,-0.755208 31.4688,-1.21875 31.4688,-1.78125 C31.4688,-2.10417 31.5443,-2.40365 31.6953,-2.67969 C31.8464,-2.95573 32.0443,-3.17708 32.2891,-3.34375 C32.5339,-3.51042 32.8073,-3.63542 33.1094,-3.71875 C33.3281,-3.77083 33.6667,-3.82813 34.125,-3.89063 C35.0417,-3.99479 35.7188,-4.125 36.1563,-4.28125 C36.1667,-4.4375 36.1719,-4.53646 36.1719,-4.57813 C36.1719,-5.04688 36.0625,-5.375 35.8438,-5.5625 C35.5521,-5.82292 35.1198,-5.95313 34.5469,-5.95313 C34.0052,-5.95313 33.6068,-5.85938 33.3516,-5.67188 C33.0964,-5.48438 32.9063,-5.15104 32.7813,-4.67188 L31.6719,-4.8125 C31.7656,-5.29167 31.9297,-5.67969 32.1641,-5.97656 C32.3984,-6.27344 32.737,-6.5 33.1797,-6.65625 C33.6224,-6.8125 34.1302,-6.89063 34.7031,-6.89063 C35.2865,-6.89063 35.7578,-6.82292 36.1172,-6.6875 C36.4766,-6.55208 36.7396,-6.38281 36.9063,-6.17969 C37.0729,-5.97656 37.1927,-5.71875 37.2656,-5.40625 C37.2969,-5.20833 37.3125,-4.85417 37.3125,-4.34375 L37.3125,-2.82813 C37.3125,-1.76563 37.3385,-1.09375 37.3906,-0.8125 C37.4427,-0.53125 37.5365,-0.260417 37.6719,0 L36.4844,0 C36.3698,-0.239583 36.2917,-0.515625 36.25,-0.828125 M36.1563,-3.39063 C35.7396,-3.21354 35.1198,-3.06771 34.2969,-2.95313 C33.8281,-2.88021 33.4948,-2.80208 33.2969,-2.71875 C33.099,-2.63542 32.9479,-2.51302 32.8438,-2.35156 C32.7396,-2.1901 32.6875,-2.01042 32.6875,-1.8125 C32.6875,-1.51042 32.8021,-1.25781 33.0313,-1.05469 C33.2604,-0.851563 33.599,-0.75 34.0469,-0.75 C34.4844,-0.75 34.875,-0.846354 35.2188,-1.03906 C35.5625,-1.23177 35.8177,-1.49479 35.9844,-1.82813 C36.099,-2.07813 36.1563,-2.45833 36.1563,-2.96875 L36.1563,-3.39063 M41.3594,-1.01563 L41.5156,-0.015625 C41.1927,0.0572917 40.9063,0.09375 40.6563,0.09375 C40.2396,0.09375 39.9167,0.0260417 39.6875,-0.109375 C39.4583,-0.244792 39.2969,-0.419271 39.2031,-0.632813 C39.1094,-0.846354 39.0625,-1.29167 39.0625,-1.96875 L39.0625,-5.85938 L38.2344,-5.85938 L38.2344,-6.73438 L39.0625,-6.73438 L39.0625,-8.40625 L40.2031,-9.09375 L40.2031,-6.73438 L41.3594,-6.73438 L41.3594,-5.85938 L40.2031,-5.85938 L40.2031,-1.90625 C40.2031,-1.58333 40.224,-1.375 40.2656,-1.28125 C40.3073,-1.1875 40.3724,-1.11458 40.4609,-1.0625 C40.5495,-1.01042 40.6771,-0.984375 40.8438,-0.984375 C40.9792,-0.984375 41.151,-0.994792 41.3594,-1.01563 M42.8594,-7.98438 L42.8594,-9.3125 L44,-9.3125 L44,-7.98438 L42.8594,-7.98438 M42.8594,0 L42.8594,-6.73438 L44,-6.73438 L44,0 L42.8594,0 M45.4375,-3.375 C45.4375,-4.625 45.7813,-5.54688 46.4688,-6.14063 C47.0521,-6.64063 47.7604,-6.89063 48.5938,-6.89063 C49.5208,-6.89063 50.2786,-6.58854 50.8672,-5.98438 C51.4557,-5.38021 51.75,-4.54167 51.75,-3.46875 C51.75,-2.60417 51.6198,-1.92188 51.3594,-1.42188 C51.099,-0.921875 50.7188,-0.533854 50.2188,-0.257813 C49.7188,0.0182292 49.1771,0.15625 48.5938,0.15625 C47.6458,0.15625 46.8828,-0.145833 46.3047,-0.75 C45.7266,-1.35417 45.4375,-2.22917 45.4375,-3.375 M46.6094,-3.375 C46.6094,-2.51042 46.7969,-1.86198 47.1719,-1.42969 C47.5469,-0.997396 48.0208,-0.78125 48.5938,-0.78125 C49.1563,-0.78125 49.6276,-0.997396 50.0078,-1.42969 C50.388,-1.86198 50.5781,-2.52083 50.5781,-3.40625 C50.5781,-4.23958 50.388,-4.8724 50.0078,-5.30469 C49.6276,-5.73698 49.1563,-5.95313 48.5938,-5.95313 C48.0208,-5.95313 47.5469,-5.73958 47.1719,-5.3125 C46.7969,-4.88542 46.6094,-4.23958 46.6094,-3.375 M52.8594,0 L52.8594,-6.73438 L53.8906,-6.73438 L53.8906,-5.78125 C54.3802,-6.52083 55.0938,-6.89063 56.0313,-6.89063 C56.4375,-6.89063 56.8099,-6.81771 57.1484,-6.67188 C57.487,-6.52604 57.7422,-6.33594 57.9141,-6.10156 C58.0859,-5.86719 58.2031,-5.58333 58.2656,-5.25 C58.3073,-5.04167 58.3281,-4.67188 58.3281,-4.14063 L58.3281,0 L57.1875,0 L57.1875,-4.09375 C57.1875,-4.5625 57.1432,-4.91146 57.0547,-5.14063 C56.9661,-5.36979 56.8099,-5.55469 56.5859,-5.69531 C56.362,-5.83594 56.099,-5.90625 55.7969,-5.90625 C55.3073,-5.90625 54.8854,-5.7526 54.5313,-5.44531 C54.1771,-5.13802 54,-4.55208 54,-3.6875 L54,0 L52.8594,0"/>
</g>

<g fill="none" stroke="#1171be" stroke-opacity="1" stroke-width="2" stroke-linecap="butt" stroke-linejoin="miter" stroke-miterlimit="5" transform="matrix(0.75,0,0,0.75,0,0)"
font-family="MS Shell Dlg 2" font-size="8.25" font-weight="400" font-style="normal" 
>
<polyline fill="none" vector-effect="none" points="84,178 86.49,178 86.49,124.75 88.98,124.75 88.98,173.584 91.47,173.584 91.47,166.253 93.96,166.253 93.96,155.616 96.45,155.616 96.45,164.279 98.94,164.279 98.94,157.686 101.43,157.686 101.43,147.626 103.92,147.626 103.92,143.35 106.41,143.35 106.41,142.697 108.9,142.697 108.9,145.458 111.39,145.458 111.39,146.052 113.88,146.052 113.88,145.846 116.37,145.846 116.37,147.228 118.86,147.228 118.86,148.403 121.35,148.403 121.35,147.947 123.84,147.947 123.84,147.313 126.33,147.313 126.33,146.239 128.82,146.239 128.82,145.195 131.31,145.195 131.31,146.587 133.8,146.587 133.8,145.852 136.29,145.852 136.29,146.044 138.78,146.044 138.78,146.88 141.27,146.88 141.27,146.777 143.76,146.777 143.76,146.724 146.25,146.724 146.25,145.822 148.74,145.822 148.74,146.29 151.23,146.29 151.23,145.658 153.72,145.658 153.72,146.741 156.21,146.741 156.21,146.325 158.7,146.325 158.7,147.27 161.19,147.27 161.19,146.304 163.68,146.304 163.68,145.398 166.17,145.398 166.17,146.156 168.66,146.156 168.66,147.811 171.15,147.811 171.15,146.168 173.64,146.168 173.64,145.288 176.13,145.288 176.13,147.202 178.62,147.202 178.62,146.693 181.11,146.693 181.11,145.532 183.6,145.532 183.6,146.167 186.09,146.167 186.09,146.926 188.58,146.926 188.58,145.97 191.07,145.97 191.07,147.033 193.56,147.033 193.56,145.91 196.05,145.91 196.05,146.219 198.54,146.219 198.54,146.979 201.03,146.979 201.03,145.484 203.52,145.484 203.52,147.193 206.01,147.193 206.01,146.218 208.5,146.218 208.5,146.554 210.99,146.554 210.99,146.418 213.48,146.418 213.48,145.077 215.97,145.077 215.97,146.759 218.46,146.759 218.46,147.323 220.95,147.323 220.95,145.63 223.44,145.63 223.44,145.469 225.93,145.469 225.93,145.936 228.42,145.936 228.42,147.307 230.91,147.307 230.91,145.9 233.4,145.9 233.4,145.185 235.89,145.185 235.89,147.153 238.38,147.153 238.38,145.74 240.87,145.74 240.87,146.072 243.36,146.072 243.36,146.099 245.85,146.099 245.85,146.258 248.34,146.258 248.34,146.902 250.83,146.902 250.83,140.099 253.32,140.099 253.32,141.808 255.81,141.808 255.81,144.023 258.3,144.023 258.3,143.253 260.79,143.253 260.79,142.193 263.28,142.193 263.28,140.986 265.77,140.986 265.77,139.704 268.26,139.704 268.26,141.741 270.75,141.741 270.75,139.086 273.24,139.086 273.24,138.139 275.73,138.139 275.73,139.248 278.22,139.248 278.22,138.246 280.71,138.246 280.71,138.927 283.2,138.927 283.2,140.96 285.69,140.96 285.69,137.397 288.18,137.397 288.18,136.809 290.67,136.809 290.67,137.758 293.16,137.758 293.16,138.667 295.65,138.667 295.65,137.645 298.14,137.645 298.14,136.902 300.63,136.902 300.63,137.034 303.12,137.034 303.12,136.874 305.61,136.874 305.61,137.538 308.1,137.538 308.1,137.651 310.59,137.651 310.59,136.878 313.08,136.878 313.08,139.419 315.57,139.419 315.57,136.65 318.06,136.65 318.06,136.328 320.55,136.328 320.55,135.893 323.04,135.893 323.04,136.428 325.53,136.428 325.53,138.923 328.02,138.923 328.02,137.548 330.51,137.548 330.51,136.752 333,136.752 333,137.206 335.49,137.206 335.49,136.663 337.98,136.663 337.98,137.627 340.47,137.627 340.47,135.744 342.96,135.744 342.96,139.602 345.45,139.602 345.45,135.998 347.94,135.998 347.94,136.808 350.43,136.808 350.43,138.339 352.92,138.339 352.92,136.979 355.41,136.979 355.41,136.943 357.9,136.943 357.9,135.622 360.39,135.622 360.39,139.478 362.88,139.478 362.88,137.008 365.37,137.008 365.37,136.12 367.86,136.12 367.86,137.479 370.35,137.479 370.35,138.461 372.84,138.461 372.84,135.063 375.33,135.063 375.33,138.276 377.82,138.276 377.82,137.591 380.31,137.591 380.31,135.711 382.8,135.711 382.8,137.305 385.29,137.305 385.29,135.613 387.78,135.613 387.78,138.313 390.27,138.313 390.27,136.866 392.76,136.866 392.76,137.128 395.25,137.128 395.25,136.94 397.74,136.94 397.74,137.314 400.23,137.314 400.23,136.34 402.72,136.34 402.72,136.277 405.21,136.277 405.21,138.514 407.7,138.514 407.7,135.665 410.19,135.665 410.19,136.619 412.68,136.619 412.68,137.874 415.17,137.874 415.17,159.831 417.66,159.831 417.66,155.237 420.15,155.237 420.15,144.757 422.64,144.757 422.64,149.792 425.13,149.792 425.13,151.705 427.62,151.705 427.62,154.194 430.11,154.194 430.11,159.035 432.6,159.035 432.6,164.399 435.09,164.399 435.09,168.514 437.58,168.514 437.58,170.569 440.07,170.569 440.07,173.031 442.56,173.031 442.56,174.155 445.05,174.155 445.05,173.111 447.54,173.111 447.54,174.111 450.03,174.111 450.03,175.395 452.52,175.395 452.52,177.216 455.01,177.216 455.01,176.246 457.5,176.246 457.5,178 459.99,178 459.99,178 462.48,178 462.48,178 464.97,178 464.97,178 467.46,178 467.46,178 469.95,178 469.95,178 472.44,178 472.44,178 474.93,178 474.93,178 477.42,178 477.42,178 479.91,178 479.91,178 482.4,178 482.4,178 484.89,178 484.89,178 487.38,178 487.38,178 489.87,178 489.87,178 492.36,178 492.36,178 494.85,178 494.85,178 497.34,178 497.34,178 499.83,178 499.83,178 502.32,178 502.32,178 504.81,178 504.81,178 507.3,178 507.3,47.3214 509.79,47.3214 509.79,178 512.28,178 512.28,178 514.77,178 514.77,178 517.26,178 517.26,178 519.75,178 519.75,178 522.24,178 522.24,178 524.73,178 524.73,178 527.22,178 527.22,176.848 529.71,176.848 529.71,149.62 532.2,149.62 532.2,178 534.69,178 534.69,178 537.18,178 537.18,178 539.67,178 539.67,178 542.16,178 542.16,178 544.65,178 544.65,178 547.14,178 547.14,178 549.63,178 549.63,178 552.12,178 552.12,178 554.61,178 554.61,178 557.1,178 557.1,178 559.59,178 559.59,178 562.08,178 562.08,178 564.57,178 564.57,178 567.06,178 567.06,178 569.55,178 569.55,178 572.04,178 572.04,178 574.53,178 574.53,178 577.02,178 577.02,178 579.51,178 579.51,178 582,178 582,178 " />
</g>

<g fill="#ffffff" fill-opacity="1" stroke="none" transform="matrix(7.5e-05,0,0,7.5e-05,0,0)"
font-family="MS Shell Dlg 2" font-size="8.25" font-weight="400" font-style="normal" 
>
<path vector-effect="none" fill-rule="evenodd" d="M950000,1.54e+06 L950000,1.7e+06 L1.53e+06,1.7e+06 L1.53e+06,1.54e+06 L950000,1.54e+06"/>
</g>

<g fill="#1171be" fill-opacity="1" stroke="#1171be" stroke-opacity="1" stroke-width="2" stroke-linecap="butt" stroke-linejoin="round" transform="matrix(0.75,0,0,0.75,0,0)"
font-family="MS Shell Dlg 2" font-size="8.25" font-weight="400" font-style="normal" 
>
<polyline fill="none" vector-effect="none" points="99,162 139,162 " />
</g>

<g fill="#212121" fill-opacity="1" stroke="none" transform="matrix(0.75,0,0,0.75,106.5,124.125)"
font-family="MS Shell Dlg 2" font-size="8.25" font-weight="400" font-style="normal" 
>
<path vector-effect="none" fill-rule="evenodd" d="M4.0625,0 L4.0625,-0.765625 C3.65625,-0.171875 3.10417,0.125 2.40625,0.125 C2.10417,0.125 1.82031,0.0651042 1.55469,-0.0546875 C1.28906,-0.174479 1.09115,-0.322917 0.960938,-0.5 C0.830729,-0.677083 0.739583,-0.895833 0.6875,-1.15625 C0.65625,-1.32292 0.640625,-1.59375 0.640625,-1.96875 L0.640625,-5.1875 L1.51563,-5.1875 L1.51563,-2.3125 C1.51563,-1.85417 1.53646,-1.54167 1.57813,-1.375 C1.63021,-1.14583 1.74479,-0.966146 1.92188,-0.835938 C2.09896,-0.705729 2.32292,-0.640625 2.59375,-0.640625 C2.85417,-0.640625 3.09896,-0.708333 3.32813,-0.84375 C3.55729,-0.979167 3.72135,-1.16406 3.82031,-1.39844 C3.91927,-1.63281 3.96875,-1.96875 3.96875,-2.40625 L3.96875,-5.1875 L4.84375,-5.1875 L4.84375,0 L4.0625,0"/>
</g>

<g fill="none" stroke="#212121" stroke-opacity="1" stroke-width="0.666667" stroke-linecap="butt" stroke-linejoin="miter" stroke-miterlimit="5" transform="matrix(0.75,0,0,0.75,0,0)"
font-family="MS Shell Dlg 2" font-size="8.25" font-weight="400" font-style="normal" 
>
<path vector-effect="none" fill-rule="evenodd" d="M95,170 L95,154 L153,154 L153,170 L95,170"/>
</g>
</g>
</svg>
