<?xml version="1.0" encoding="UTF-8" standalone="no"?>
<svg width="170.039mm" height="56.0917mm"
 viewBox="0 0 482 159"
 xmlns="http://www.w3.org/2000/svg" xmlns:xlink="http://www.w3.org/1999/xlink"  version="1.2" baseProfile="tiny">
<title>Qt SVG Document</title>
<desc>MATLAB, The MathWorks, Inc. Version 25.2.0.3123386 R2025b Update 3</desc>
<defs>
</defs>
<g fill="none" stroke="black" stroke-width="1" fill-rule="evenodd" stroke-linecap="square" stroke-linejoin="bevel" >

<g fill="#ffffff" fill-opacity="1" stroke="none" transform="matrix(0.75,0,0,0.75,0,0)"
font-family="MS Shell Dlg 2" font-size="8.25" font-weight="400" font-style="normal" 
>
<path vector-effect="none" fill-rule="evenodd" d="M0,0 L644,0 L644,213 L0,213 L0,0"/>
</g>

<g fill="#ffffff" fill-opacity="1" stroke="none" transform="matrix(7.5e-05,0,0,7.5e-05,0,0)"
font-family="MS Shell Dlg 2" font-size="8.25" font-weight="400" font-style="normal" 
>
<path vector-effect="none" fill-rule="evenodd" d="M840000,180000 L840000,1.78e+06 L5.82e+06,1.78e+06 L5.82e+06,180000 L840000,180000"/>
</g>

<g fill="#212121" fill-opacity="0.14902" stroke="#212121" stroke-opacity="0.14902" stroke-width="0.666667" stroke-linecap="butt" stroke-linejoin="round" transform="matrix(0.75,0,0,0.75,0,0)"
font-family="MS Shell Dlg 2" font-size="8.25" font-weight="400" font-style="normal" 
>
<polyline fill="none" vector-effect="none" points="84,18 84,178 " />
<polyline fill="none" vector-effect="none" points="146.25,18 146.25,178 " />
<polyline fill="none" vector-effect="none" points="208.5,18 208.5,178 " />
<polyline fill="none" vector-effect="none" points="270.75,18 270.75,178 " />
<polyline fill="none" vector-effect="none" points="333,18 333,178 " />
<polyline fill="none" vector-effect="none" points="395.25,18 395.25,178 " />
<polyline fill="none" vector-effect="none" points="457.5,18 457.5,178 " />
<polyline fill="none" vector-effect="none" points="519.75,18 519.75,178 " />
<polyline fill="none" vector-effect="none" points="582,18 582,178 " />
</g>

<g fill="#212121" fill-opacity="0.14902" stroke="#212121" stroke-opacity="0.14902" stroke-dasharray="1,3" stroke-dashoffset="0" stroke-width="0.666667" stroke-linecap="butt" stroke-linejoin="round" transform="matrix(0.75,0,0,0.75,0,0)"
font-family="MS Shell Dlg 2" font-size="8.25" font-weight="400" font-style="normal" 
>
<polyline fill="none" vector-effect="none" points="96.45,18 96.45,178 " />
<polyline fill="none" vector-effect="none" points="108.9,18 108.9,178 " />
<polyline fill="none" vector-effect="none" points="121.35,18 121.35,178 " />
<polyline fill="none" vector-effect="none" points="133.8,18 133.8,178 " />
<polyline fill="none" vector-effect="none" points="158.7,18 158.7,178 " />
<polyline fill="none" vector-effect="none" points="171.15,18 171.15,178 " />
<polyline fill="none" vector-effect="none" points="183.6,18 183.6,178 " />
<polyline fill="none" vector-effect="none" points="196.05,18 196.05,178 " />
<polyline fill="none" vector-effect="none" points="220.95,18 220.95,178 " />
<polyline fill="none" vector-effect="none" points="233.4,18 233.4,178 " />
<polyline fill="none" vector-effect="none" points="245.85,18 245.85,178 " />
<polyline fill="none" vector-effect="none" points="258.3,18 258.3,178 " />
<polyline fill="none" vector-effect="none" points="283.2,18 283.2,178 " />
<polyline fill="none" vector-effect="none" points="295.65,18 295.65,178 " />
<polyline fill="none" vector-effect="none" points="308.1,18 308.1,178 " />
<polyline fill="none" vector-effect="none" points="320.55,18 320.55,178 " />
<polyline fill="none" vector-effect="none" points="345.45,18 345.45,178 " />
<polyline fill="none" vector-effect="none" points="357.9,18 357.9,178 " />
<polyline fill="none" vector-effect="none" points="370.35,18 370.35,178 " />
<polyline fill="none" vector-effect="none" points="382.8,18 382.8,178 " />
<polyline fill="none" vector-effect="none" points="407.7,18 407.7,178 " />
<polyline fill="none" vector-effect="none" points="420.15,18 420.15,178 " />
<polyline fill="none" vector-effect="none" points="432.6,18 432.6,178 " />
<polyline fill="none" vector-effect="none" points="445.05,18 445.05,178 " />
<polyline fill="none" vector-effect="none" points="469.95,18 469.95,178 " />
<polyline fill="none" vector-effect="none" points="482.4,18 482.4,178 " />
<polyline fill="none" vector-effect="none" points="494.85,18 494.85,178 " />
<polyline fill="none" vector-effect="none" points="507.3,18 507.3,178 " />
<polyline fill="none" vector-effect="none" points="532.2,18 532.2,178 " />
<polyline fill="none" vector-effect="none" points="544.65,18 544.65,178 " />
<polyline fill="none" vector-effect="none" points="557.1,18 557.1,178 " />
<polyline fill="none" vector-effect="none" points="569.55,18 569.55,178 " />
</g>

<g fill="#212121" fill-opacity="0.14902" stroke="#212121" stroke-opacity="0.14902" stroke-width="0.666667" stroke-linecap="butt" stroke-linejoin="round" transform="matrix(0.75,0,0,0.75,0,0)"
font-family="MS Shell Dlg 2" font-size="8.25" font-weight="400" font-style="normal" 
>
<polyline fill="none" vector-effect="none" points="84,178 582,178 " />
<polyline fill="none" vector-effect="none" points="84,138 582,138 " />
<polyline fill="none" vector-effect="none" points="84,98 582,98 " />
<polyline fill="none" vector-effect="none" points="84,58 582,58 " />
<polyline fill="none" vector-effect="none" points="84,18 582,18 " />
</g>

<g fill="#212121" fill-opacity="0.14902" stroke="#212121" stroke-opacity="0.14902" stroke-dasharray="1,3" stroke-dashoffset="0" stroke-width="0.666667" stroke-linecap="butt" stroke-linejoin="round" transform="matrix(0.75,0,0,0.75,0,0)"
font-family="MS Shell Dlg 2" font-size="8.25" font-weight="400" font-style="normal" 
>
<polyline fill="none" vector-effect="none" points="84,170 582,170 " />
<polyline fill="none" vector-effect="none" points="84,162 582,162 " />
<polyline fill="none" vector-effect="none" points="84,154 582,154 " />
<polyline fill="none" vector-effect="none" points="84,146 582,146 " />
<polyline fill="none" vector-effect="none" points="84,130 582,130 " />
<polyline fill="none" vector-effect="none" points="84,122 582,122 " />
<polyline fill="none" vector-effect="none" points="84,114 582,114 " />
<polyline fill="none" vector-effect="none" points="84,106 582,106 " />
<polyline fill="none" vector-effect="none" points="84,90 582,90 " />
<polyline fill="none" vector-effect="none" points="84,82 582,82 " />
<polyline fill="none" vector-effect="none" points="84,74 582,74 " />
<polyline fill="none" vector-effect="none" points="84,66 582,66 " />
<polyline fill="none" vector-effect="none" points="84,50 582,50 " />
<polyline fill="none" vector-effect="none" points="84,42 582,42 " />
<polyline fill="none" vector-effect="none" points="84,34 582,34 " />
<polyline fill="none" vector-effect="none" points="84,26 582,26 " />
</g>

<g fill="#212121" fill-opacity="1" stroke="none" transform="matrix(0.75,0,0,0.75,241.473,155.616)"
font-family="MS Shell Dlg 2" font-size="8.25" font-weight="400" font-style="normal" 
>
<path vector-effect="none" fill-rule="evenodd" d="M1.32813,-1.5625 L1.32813,-5.14063 L0.25,-5.14063 L0.25,-5.48438 C0.8125,-5.48438 1.22656,-5.75 1.49219,-6.28125 C1.75781,-6.8125 1.89063,-7.38542 1.89063,-8 L2.26563,-8 L2.26563,-5.60938 L4.10938,-5.60938 L4.10938,-5.14063 L2.26563,-5.14063 L2.26563,-1.59375 C2.26563,-1.22917 2.32813,-0.911458 2.45313,-0.640625 C2.57813,-0.369792 2.79688,-0.234375 3.10938,-0.234375 C3.40104,-0.234375 3.61198,-0.377604 3.74219,-0.664063 C3.8724,-0.950521 3.9375,-1.26042 3.9375,-1.59375 L3.9375,-2.35938 L4.3125,-2.35938 L4.3125,-1.5625 C4.3125,-1.29167 4.26302,-1.02344 4.16406,-0.757813 C4.0651,-0.492188 3.91927,-0.276042 3.72656,-0.109375 C3.53385,0.0572917 3.29688,0.140625 3.01563,0.140625 C2.49479,0.140625 2.08333,-0.0130208 1.78125,-0.320313 C1.47917,-0.627604 1.32813,-1.04167 1.32813,-1.5625 "/>
</g>

<g fill="#212121" fill-opacity="1" stroke="none" transform="matrix(0.75,0,0,0.75,248.623,155.616)"
font-family="MS Shell Dlg 2" font-size="8.25" font-weight="400" font-style="normal" 
>
<path vector-effect="none" fill-rule="evenodd" d="M1.53125,3.25 L1.53125,-9.75 L3.3125,-9.75 L3.3125,-9.23438 L2.0625,-9.23438 L2.0625,2.73438 L3.3125,2.73438 L3.3125,3.25 L1.53125,3.25"/>
</g>

<g fill="#212121" fill-opacity="1" stroke="none" transform="matrix(0.75,0,0,0.75,251.373,155.616)"
font-family="MS Shell Dlg 2" font-size="8.25" font-weight="400" font-style="normal" 
>
<path vector-effect="none" fill-rule="evenodd" d="M0.4375,0.03125 L0.4375,-2.09375 C0.4375,-2.15625 0.473958,-2.1875 0.546875,-2.1875 L0.703125,-2.1875 C0.755208,-2.1875 0.791667,-2.15625 0.8125,-2.09375 C1.05208,-0.833333 1.63542,-0.203125 2.5625,-0.203125 C2.96875,-0.203125 3.3099,-0.296875 3.58594,-0.484375 C3.86198,-0.671875 4,-0.958333 4,-1.34375 C4,-1.625 3.89323,-1.86458 3.67969,-2.0625 C3.46615,-2.26042 3.20833,-2.39583 2.90625,-2.46875 L2.04688,-2.64063 C1.75521,-2.70313 1.48958,-2.79948 1.25,-2.92969 C1.01042,-3.0599 0.815104,-3.23438 0.664063,-3.45313 C0.513021,-3.67188 0.4375,-3.92188 0.4375,-4.20313 C0.4375,-4.58854 0.536458,-4.90104 0.734375,-5.14063 C0.932292,-5.38021 1.19271,-5.55469 1.51563,-5.66406 C1.83854,-5.77344 2.1875,-5.82813 2.5625,-5.82813 C3,-5.82813 3.38542,-5.71354 3.71875,-5.48438 L4.09375,-5.79688 C4.09375,-5.81771 4.11458,-5.82813 4.15625,-5.82813 L4.25,-5.82813 C4.28125,-5.82813 4.30729,-5.8151 4.32813,-5.78906 C4.34896,-5.76302 4.35938,-5.73958 4.35938,-5.71875 L4.35938,-4.03125 C4.35938,-3.94792 4.32292,-3.90625 4.25,-3.90625 L4.09375,-3.90625 C4.02083,-3.90625 3.98438,-3.94792 3.98438,-4.03125 C3.98438,-4.47917 3.85677,-4.84115 3.60156,-5.11719 C3.34635,-5.39323 2.99479,-5.53125 2.54688,-5.53125 C2.16146,-5.53125 1.82552,-5.45833 1.53906,-5.3125 C1.2526,-5.16667 1.10938,-4.92188 1.10938,-4.57813 C1.10938,-4.32813 1.21094,-4.1276 1.41406,-3.97656 C1.61719,-3.82552 1.85938,-3.71354 2.14063,-3.64063 L3.01563,-3.48438 C3.30729,-3.41146 3.58333,-3.29427 3.84375,-3.13281 C4.10417,-2.97135 4.30729,-2.76823 4.45313,-2.52344 C4.59896,-2.27865 4.67188,-2 4.67188,-1.6875 C4.67188,-1.375 4.61979,-1.10417 4.51563,-0.875 C4.41146,-0.645833 4.26302,-0.453125 4.07031,-0.296875 C3.8776,-0.140625 3.64844,-0.0286458 3.38281,0.0390625 C3.11719,0.106771 2.84375,0.140625 2.5625,0.140625 C2.02083,0.140625 1.55729,-0.0416667 1.17188,-0.40625 L0.6875,0.109375 C0.6875,0.130208 0.666667,0.140625 0.625,0.140625 L0.546875,0.140625 C0.473958,0.140625 0.4375,0.104167 0.4375,0.03125 "/>
</g>

<g fill="#212121" fill-opacity="1" stroke="none" transform="matrix(0.75,0,0,0.75,255.278,155.616)"
font-family="MS Shell Dlg 2" font-size="8.25" font-weight="400" font-style="normal" 
>
<path vector-effect="none" fill-rule="evenodd" d="M0.28125,3.25 L0.28125,2.73438 L1.54688,2.73438 L1.54688,-9.23438 L0.28125,-9.23438 L0.28125,-9.75 L2.0625,-9.75 L2.0625,3.25 L0.28125,3.25"/>
</g>

<g fill="#212121" fill-opacity="1" stroke="#212121" stroke-opacity="1" stroke-width="0.666667" stroke-linecap="square" stroke-linejoin="round" transform="matrix(0.75,0,0,0.75,0,0)"
font-family="MS Shell Dlg 2" font-size="8.25" font-weight="400" font-style="normal" 
>
<polyline fill="none" vector-effect="none" points="84,178 582,178 " />
<polyline fill="none" vector-effect="none" points="84,18 582,18 " />
<polyline fill="none" vector-effect="none" points="84,178 84,173.02 " />
<polyline fill="none" vector-effect="none" points="84,22.98 84,18 " />
<polyline fill="none" vector-effect="none" points="146.25,178 146.25,173.02 " />
<polyline fill="none" vector-effect="none" points="146.25,22.98 146.25,18 " />
<polyline fill="none" vector-effect="none" points="208.5,178 208.5,173.02 " />
<polyline fill="none" vector-effect="none" points="208.5,22.98 208.5,18 " />
<polyline fill="none" vector-effect="none" points="270.75,178 270.75,173.02 " />
<polyline fill="none" vector-effect="none" points="270.75,22.98 270.75,18 " />
<polyline fill="none" vector-effect="none" points="333,178 333,173.02 " />
<polyline fill="none" vector-effect="none" points="333,22.98 333,18 " />
<polyline fill="none" vector-effect="none" points="395.25,178 395.25,173.02 " />
<polyline fill="none" vector-effect="none" points="395.25,22.98 395.25,18 " />
<polyline fill="none" vector-effect="none" points="457.5,178 457.5,173.02 " />
<polyline fill="none" vector-effect="none" points="457.5,22.98 457.5,18 " />
<polyline fill="none" vector-effect="none" points="519.75,178 519.75,173.02 " />
<polyline fill="none" vector-effect="none" points="519.75,22.98 519.75,18 " />
<polyline fill="none" vector-effect="none" points="582,178 582,173.02 " />
<polyline fill="none" vector-effect="none" points="582,22.98 582,18 " />
</g>

<g fill="#212121" fill-opacity="1" stroke="none" transform="matrix(0.75,0,0,0.75,60.375,144.55)"
font-family="MS Shell Dlg 2" font-size="8.25" font-weight="400" font-style="normal" 
>
<path vector-effect="none" fill-rule="evenodd" d="M0.5,-4.23438 C0.5,-5.25521 0.604167,-6.07552 0.8125,-6.69531 C1.02083,-7.3151 1.33073,-7.79167 1.74219,-8.125 C2.15365,-8.45833 2.67188,-8.625 3.29688,-8.625 C3.75521,-8.625 4.15885,-8.53125 4.50781,-8.34375 C4.85677,-8.15625 5.14583,-7.88802 5.375,-7.53906 C5.60417,-7.1901 5.78125,-6.76563 5.90625,-6.26563 C6.03125,-5.76563 6.09375,-5.08854 6.09375,-4.23438 C6.09375,-3.22396 5.99219,-2.41146 5.78906,-1.79688 C5.58594,-1.18229 5.27865,-0.705729 4.86719,-0.367188 C4.45573,-0.0286458 3.93229,0.140625 3.29688,0.140625 C2.47396,0.140625 1.82292,-0.15625 1.34375,-0.75 C0.78125,-1.45833 0.5,-2.61979 0.5,-4.23438 M1.57813,-4.23438 C1.57813,-2.82813 1.74479,-1.89063 2.07813,-1.42188 C2.41146,-0.953125 2.81771,-0.71875 3.29688,-0.71875 C3.78646,-0.71875 4.19531,-0.953125 4.52344,-1.42188 C4.85156,-1.89063 5.01563,-2.82813 5.01563,-4.23438 C5.01563,-5.65104 4.85156,-6.59115 4.52344,-7.05469 C4.19531,-7.51823 3.78125,-7.75 3.28125,-7.75 C2.80208,-7.75 2.41667,-7.54688 2.125,-7.14063 C1.76042,-6.61979 1.57813,-5.65104 1.57813,-4.23438 "/>
</g>

<g fill="#212121" fill-opacity="1" stroke="none" transform="matrix(0.75,0,0,0.75,107.063,144.55)"
font-family="MS Shell Dlg 2" font-size="8.25" font-weight="400" font-style="normal" 
>
<path vector-effect="none" fill-rule="evenodd" d="M0.5,-2.25 L1.60938,-2.34375 C1.69271,-1.80208 1.88281,-1.39583 2.17969,-1.125 C2.47656,-0.854167 2.83854,-0.71875 3.26563,-0.71875 C3.76563,-0.71875 4.19271,-0.911458 4.54688,-1.29688 C4.90104,-1.68229 5.07813,-2.1875 5.07813,-2.8125 C5.07813,-3.41667 4.90885,-3.89323 4.57031,-4.24219 C4.23177,-4.59115 3.78646,-4.76563 3.23438,-4.76563 C2.90104,-4.76563 2.59635,-4.6875 2.32031,-4.53125 C2.04427,-4.375 1.82813,-4.17708 1.67188,-3.9375 L0.6875,-4.0625 L1.51563,-8.46875 L5.79688,-8.46875 L5.79688,-7.46875 L2.35938,-7.46875 L1.90625,-5.15625 C2.41667,-5.52083 2.95313,-5.70313 3.51563,-5.70313 C4.26563,-5.70313 4.89844,-5.44271 5.41406,-4.92188 C5.92969,-4.40104 6.1875,-3.72917 6.1875,-2.90625 C6.1875,-2.13542 5.96354,-1.46354 5.51563,-0.890625 C4.96354,-0.203125 4.21354,0.140625 3.26563,0.140625 C2.48438,0.140625 1.84635,-0.078125 1.35156,-0.515625 C0.856771,-0.953125 0.572917,-1.53125 0.5,-2.25 "/>
</g>

<g fill="#212121" fill-opacity="1" stroke="none" transform="matrix(0.75,0,0,0.75,151.125,144.55)"
font-family="MS Shell Dlg 2" font-size="8.25" font-weight="400" font-style="normal" 
>
<path vector-effect="none" fill-rule="evenodd" d="M4.46875,0 L3.42188,0 L3.42188,-6.71875 C3.16146,-6.47917 2.82552,-6.23698 2.41406,-5.99219 C2.0026,-5.7474 1.63542,-5.56771 1.3125,-5.45313 L1.3125,-6.46875 C1.89583,-6.75 2.40885,-7.08594 2.85156,-7.47656 C3.29427,-7.86719 3.60938,-8.25 3.79688,-8.625 L4.46875,-8.625 L4.46875,0 M7.5,-4.23438 C7.5,-5.25521 7.60417,-6.07552 7.8125,-6.69531 C8.02083,-7.3151 8.33073,-7.79167 8.74219,-8.125 C9.15365,-8.45833 9.67188,-8.625 10.2969,-8.625 C10.7552,-8.625 11.1589,-8.53125 11.5078,-8.34375 C11.8568,-8.15625 12.1458,-7.88802 12.375,-7.53906 C12.6042,-7.1901 12.7813,-6.76563 12.9063,-6.26563 C13.0313,-5.76563 13.0938,-5.08854 13.0938,-4.23438 C13.0938,-3.22396 12.9922,-2.41146 12.7891,-1.79688 C12.5859,-1.18229 12.2786,-0.705729 11.8672,-0.367188 C11.4557,-0.0286458 10.9323,0.140625 10.2969,0.140625 C9.47396,0.140625 8.82292,-0.15625 8.34375,-0.75 C7.78125,-1.45833 7.5,-2.61979 7.5,-4.23438 M8.57813,-4.23438 C8.57813,-2.82813 8.74479,-1.89063 9.07813,-1.42188 C9.41146,-0.953125 9.81771,-0.71875 10.2969,-0.71875 C10.7865,-0.71875 11.1953,-0.953125 11.5234,-1.42188 C11.8516,-1.89063 12.0156,-2.82813 12.0156,-4.23438 C12.0156,-5.65104 11.8516,-6.59115 11.5234,-7.05469 C11.1953,-7.51823 10.7813,-7.75 10.2813,-7.75 C9.80208,-7.75 9.41667,-7.54688 9.125,-7.14063 C8.76042,-6.61979 8.57813,-5.65104 8.57813,-4.23438 "/>
</g>

<g fill="#212121" fill-opacity="1" stroke="none" transform="matrix(0.75,0,0,0.75,197.813,144.55)"
font-family="MS Shell Dlg 2" font-size="8.25" font-weight="400" font-style="normal" 
>
<path vector-effect="none" fill-rule="evenodd" d="M4.46875,0 L3.42188,0 L3.42188,-6.71875 C3.16146,-6.47917 2.82552,-6.23698 2.41406,-5.99219 C2.0026,-5.7474 1.63542,-5.56771 1.3125,-5.45313 L1.3125,-6.46875 C1.89583,-6.75 2.40885,-7.08594 2.85156,-7.47656 C3.29427,-7.86719 3.60938,-8.25 3.79688,-8.625 L4.46875,-8.625 L4.46875,0 M7.5,-2.25 L8.60938,-2.34375 C8.69271,-1.80208 8.88281,-1.39583 9.17969,-1.125 C9.47656,-0.854167 9.83854,-0.71875 10.2656,-0.71875 C10.7656,-0.71875 11.1927,-0.911458 11.5469,-1.29688 C11.901,-1.68229 12.0781,-2.1875 12.0781,-2.8125 C12.0781,-3.41667 11.9089,-3.89323 11.5703,-4.24219 C11.2318,-4.59115 10.7865,-4.76563 10.2344,-4.76563 C9.90104,-4.76563 9.59635,-4.6875 9.32031,-4.53125 C9.04427,-4.375 8.82813,-4.17708 8.67188,-3.9375 L7.6875,-4.0625 L8.51563,-8.46875 L12.7969,-8.46875 L12.7969,-7.46875 L9.35938,-7.46875 L8.90625,-5.15625 C9.41667,-5.52083 9.95313,-5.70313 10.5156,-5.70313 C11.2656,-5.70313 11.8984,-5.44271 12.4141,-4.92188 C12.9297,-4.40104 13.1875,-3.72917 13.1875,-2.90625 C13.1875,-2.13542 12.9635,-1.46354 12.5156,-0.890625 C11.9635,-0.203125 11.2135,0.140625 10.2656,0.140625 C9.48438,0.140625 8.84635,-0.078125 8.35156,-0.515625 C7.85677,-0.953125 7.57292,-1.53125 7.5,-2.25 "/>
</g>

<g fill="#212121" fill-opacity="1" stroke="none" transform="matrix(0.75,0,0,0.75,244.5,144.55)"
font-family="MS Shell Dlg 2" font-size="8.25" font-weight="400" font-style="normal" 
>
<path vector-effect="none" fill-rule="evenodd" d="M6.04688,-1.01563 L6.04688,0 L0.359375,0 C0.359375,-0.25 0.401042,-0.494792 0.484375,-0.734375 C0.630208,-1.11979 0.861979,-1.5 1.17969,-1.875 C1.4974,-2.25 1.95833,-2.68229 2.5625,-3.17188 C3.5,-3.94271 4.13281,-4.55208 4.46094,-5 C4.78906,-5.44792 4.95313,-5.86979 4.95313,-6.26563 C4.95313,-6.68229 4.80208,-7.03385 4.5,-7.32031 C4.19792,-7.60677 3.80729,-7.75 3.32813,-7.75 C2.81771,-7.75 2.41146,-7.59896 2.10938,-7.29688 C1.80729,-6.99479 1.65104,-6.57292 1.64063,-6.03125 L0.5625,-6.14063 C0.635417,-6.95313 0.914063,-7.57031 1.39844,-7.99219 C1.88281,-8.41406 2.53646,-8.625 3.35938,-8.625 C4.18229,-8.625 4.83333,-8.39583 5.3125,-7.9375 C5.79167,-7.47917 6.03125,-6.91146 6.03125,-6.23438 C6.03125,-5.89063 5.96094,-5.55469 5.82031,-5.22656 C5.67969,-4.89844 5.44531,-4.54948 5.11719,-4.17969 C4.78906,-3.8099 4.25,-3.30729 3.5,-2.67188 C2.86458,-2.14063 2.45573,-1.77865 2.27344,-1.58594 C2.09115,-1.39323 1.94271,-1.20313 1.82813,-1.01563 L6.04688,-1.01563 M7.5,-4.23438 C7.5,-5.25521 7.60417,-6.07552 7.8125,-6.69531 C8.02083,-7.3151 8.33073,-7.79167 8.74219,-8.125 C9.15365,-8.45833 9.67188,-8.625 10.2969,-8.625 C10.7552,-8.625 11.1589,-8.53125 11.5078,-8.34375 C11.8568,-8.15625 12.1458,-7.88802 12.375,-7.53906 C12.6042,-7.1901 12.7813,-6.76563 12.9063,-6.26563 C13.0313,-5.76563 13.0938,-5.08854 13.0938,-4.23438 C13.0938,-3.22396 12.9922,-2.41146 12.7891,-1.79688 C12.5859,-1.18229 12.2786,-0.705729 11.8672,-0.367188 C11.4557,-0.0286458 10.9323,0.140625 10.2969,0.140625 C9.47396,0.140625 8.82292,-0.15625 8.34375,-0.75 C7.78125,-1.45833 7.5,-2.61979 7.5,-4.23438 M8.57813,-4.23438 C8.57813,-2.82813 8.74479,-1.89063 9.07813,-1.42188 C9.41146,-0.953125 9.81771,-0.71875 10.2969,-0.71875 C10.7865,-0.71875 11.1953,-0.953125 11.5234,-1.42188 C11.8516,-1.89063 12.0156,-2.82813 12.0156,-4.23438 C12.0156,-5.65104 11.8516,-6.59115 11.5234,-7.05469 C11.1953,-7.51823 10.7813,-7.75 10.2813,-7.75 C9.80208,-7.75 9.41667,-7.54688 9.125,-7.14063 C8.76042,-6.61979 8.57813,-5.65104 8.57813,-4.23438 "/>
</g>

<g fill="#212121" fill-opacity="1" stroke="none" transform="matrix(0.75,0,0,0.75,291.188,144.55)"
font-family="MS Shell Dlg 2" font-size="8.25" font-weight="400" font-style="normal" 
>
<path vector-effect="none" fill-rule="evenodd" d="M6.04688,-1.01563 L6.04688,0 L0.359375,0 C0.359375,-0.25 0.401042,-0.494792 0.484375,-0.734375 C0.630208,-1.11979 0.861979,-1.5 1.17969,-1.875 C1.4974,-2.25 1.95833,-2.68229 2.5625,-3.17188 C3.5,-3.94271 4.13281,-4.55208 4.46094,-5 C4.78906,-5.44792 4.95313,-5.86979 4.95313,-6.26563 C4.95313,-6.68229 4.80208,-7.03385 4.5,-7.32031 C4.19792,-7.60677 3.80729,-7.75 3.32813,-7.75 C2.81771,-7.75 2.41146,-7.59896 2.10938,-7.29688 C1.80729,-6.99479 1.65104,-6.57292 1.64063,-6.03125 L0.5625,-6.14063 C0.635417,-6.95313 0.914063,-7.57031 1.39844,-7.99219 C1.88281,-8.41406 2.53646,-8.625 3.35938,-8.625 C4.18229,-8.625 4.83333,-8.39583 5.3125,-7.9375 C5.79167,-7.47917 6.03125,-6.91146 6.03125,-6.23438 C6.03125,-5.89063 5.96094,-5.55469 5.82031,-5.22656 C5.67969,-4.89844 5.44531,-4.54948 5.11719,-4.17969 C4.78906,-3.8099 4.25,-3.30729 3.5,-2.67188 C2.86458,-2.14063 2.45573,-1.77865 2.27344,-1.58594 C2.09115,-1.39323 1.94271,-1.20313 1.82813,-1.01563 L6.04688,-1.01563 M7.5,-2.25 L8.60938,-2.34375 C8.69271,-1.80208 8.88281,-1.39583 9.17969,-1.125 C9.47656,-0.854167 9.83854,-0.71875 10.2656,-0.71875 C10.7656,-0.71875 11.1927,-0.911458 11.5469,-1.29688 C11.901,-1.68229 12.0781,-2.1875 12.0781,-2.8125 C12.0781,-3.41667 11.9089,-3.89323 11.5703,-4.24219 C11.2318,-4.59115 10.7865,-4.76563 10.2344,-4.76563 C9.90104,-4.76563 9.59635,-4.6875 9.32031,-4.53125 C9.04427,-4.375 8.82813,-4.17708 8.67188,-3.9375 L7.6875,-4.0625 L8.51563,-8.46875 L12.7969,-8.46875 L12.7969,-7.46875 L9.35938,-7.46875 L8.90625,-5.15625 C9.41667,-5.52083 9.95313,-5.70313 10.5156,-5.70313 C11.2656,-5.70313 11.8984,-5.44271 12.4141,-4.92188 C12.9297,-4.40104 13.1875,-3.72917 13.1875,-2.90625 C13.1875,-2.13542 12.9635,-1.46354 12.5156,-0.890625 C11.9635,-0.203125 11.2135,0.140625 10.2656,0.140625 C9.48438,0.140625 8.84635,-0.078125 8.35156,-0.515625 C7.85677,-0.953125 7.57292,-1.53125 7.5,-2.25 "/>
</g>

<g fill="#212121" fill-opacity="1" stroke="none" transform="matrix(0.75,0,0,0.75,337.875,144.55)"
font-family="MS Shell Dlg 2" font-size="8.25" font-weight="400" font-style="normal" 
>
<path vector-effect="none" fill-rule="evenodd" d="M0.5,-2.26563 L1.5625,-2.40625 C1.67708,-1.8125 1.88021,-1.38281 2.17188,-1.11719 C2.46354,-0.851563 2.81771,-0.71875 3.23438,-0.71875 C3.73438,-0.71875 4.15625,-0.890625 4.5,-1.23438 C4.84375,-1.57813 5.01563,-2.00521 5.01563,-2.51563 C5.01563,-2.99479 4.85677,-3.39323 4.53906,-3.71094 C4.22135,-4.02865 3.81771,-4.1875 3.32813,-4.1875 C3.13021,-4.1875 2.88021,-4.14583 2.57813,-4.0625 L2.70313,-5 C2.77604,-4.98958 2.83333,-4.98438 2.875,-4.98438 C3.32292,-4.98438 3.72656,-5.10156 4.08594,-5.33594 C4.44531,-5.57031 4.625,-5.93229 4.625,-6.42188 C4.625,-6.80729 4.49479,-7.1276 4.23438,-7.38281 C3.97396,-7.63802 3.63542,-7.76563 3.21875,-7.76563 C2.8125,-7.76563 2.47135,-7.63542 2.19531,-7.375 C1.91927,-7.11458 1.74479,-6.72917 1.67188,-6.21875 L0.609375,-6.40625 C0.734375,-7.10417 1.02604,-7.64844 1.48438,-8.03906 C1.94271,-8.42969 2.51042,-8.625 3.1875,-8.625 C3.65625,-8.625 4.08854,-8.52344 4.48438,-8.32031 C4.88021,-8.11719 5.18229,-7.84375 5.39063,-7.5 C5.59896,-7.15625 5.70313,-6.78646 5.70313,-6.39063 C5.70313,-6.02604 5.60417,-5.6901 5.40625,-5.38281 C5.20833,-5.07552 4.91667,-4.83333 4.53125,-4.65625 C5.03125,-4.54167 5.42188,-4.29948 5.70313,-3.92969 C5.98438,-3.5599 6.125,-3.09375 6.125,-2.53125 C6.125,-1.78125 5.85156,-1.14583 5.30469,-0.625 C4.75781,-0.104167 4.06771,0.15625 3.23438,0.15625 C2.48438,0.15625 1.85938,-0.0703125 1.35938,-0.523438 C0.859375,-0.976563 0.572917,-1.55729 0.5,-2.26563 M7.5,-4.23438 C7.5,-5.25521 7.60417,-6.07552 7.8125,-6.69531 C8.02083,-7.3151 8.33073,-7.79167 8.74219,-8.125 C9.15365,-8.45833 9.67188,-8.625 10.2969,-8.625 C10.7552,-8.625 11.1589,-8.53125 11.5078,-8.34375 C11.8568,-8.15625 12.1458,-7.88802 12.375,-7.53906 C12.6042,-7.1901 12.7813,-6.76563 12.9063,-6.26563 C13.0313,-5.76563 13.0938,-5.08854 13.0938,-4.23438 C13.0938,-3.22396 12.9922,-2.41146 12.7891,-1.79688 C12.5859,-1.18229 12.2786,-0.705729 11.8672,-0.367188 C11.4557,-0.0286458 10.9323,0.140625 10.2969,0.140625 C9.47396,0.140625 8.82292,-0.15625 8.34375,-0.75 C7.78125,-1.45833 7.5,-2.61979 7.5,-4.23438 M8.57813,-4.23438 C8.57813,-2.82813 8.74479,-1.89063 9.07813,-1.42188 C9.41146,-0.953125 9.81771,-0.71875 10.2969,-0.71875 C10.7865,-0.71875 11.1953,-0.953125 11.5234,-1.42188 C11.8516,-1.89063 12.0156,-2.82813 12.0156,-4.23438 C12.0156,-5.65104 11.8516,-6.59115 11.5234,-7.05469 C11.1953,-7.51823 10.7813,-7.75 10.2813,-7.75 C9.80208,-7.75 9.41667,-7.54688 9.125,-7.14063 C8.76042,-6.61979 8.57813,-5.65104 8.57813,-4.23438 "/>
</g>

<g fill="#212121" fill-opacity="1" stroke="none" transform="matrix(0.75,0,0,0.75,384.563,144.55)"
font-family="MS Shell Dlg 2" font-size="8.25" font-weight="400" font-style="normal" 
>
<path vector-effect="none" fill-rule="evenodd" d="M0.5,-2.26563 L1.5625,-2.40625 C1.67708,-1.8125 1.88021,-1.38281 2.17188,-1.11719 C2.46354,-0.851563 2.81771,-0.71875 3.23438,-0.71875 C3.73438,-0.71875 4.15625,-0.890625 4.5,-1.23438 C4.84375,-1.57813 5.01563,-2.00521 5.01563,-2.51563 C5.01563,-2.99479 4.85677,-3.39323 4.53906,-3.71094 C4.22135,-4.02865 3.81771,-4.1875 3.32813,-4.1875 C3.13021,-4.1875 2.88021,-4.14583 2.57813,-4.0625 L2.70313,-5 C2.77604,-4.98958 2.83333,-4.98438 2.875,-4.98438 C3.32292,-4.98438 3.72656,-5.10156 4.08594,-5.33594 C4.44531,-5.57031 4.625,-5.93229 4.625,-6.42188 C4.625,-6.80729 4.49479,-7.1276 4.23438,-7.38281 C3.97396,-7.63802 3.63542,-7.76563 3.21875,-7.76563 C2.8125,-7.76563 2.47135,-7.63542 2.19531,-7.375 C1.91927,-7.11458 1.74479,-6.72917 1.67188,-6.21875 L0.609375,-6.40625 C0.734375,-7.10417 1.02604,-7.64844 1.48438,-8.03906 C1.94271,-8.42969 2.51042,-8.625 3.1875,-8.625 C3.65625,-8.625 4.08854,-8.52344 4.48438,-8.32031 C4.88021,-8.11719 5.18229,-7.84375 5.39063,-7.5 C5.59896,-7.15625 5.70313,-6.78646 5.70313,-6.39063 C5.70313,-6.02604 5.60417,-5.6901 5.40625,-5.38281 C5.20833,-5.07552 4.91667,-4.83333 4.53125,-4.65625 C5.03125,-4.54167 5.42188,-4.29948 5.70313,-3.92969 C5.98438,-3.5599 6.125,-3.09375 6.125,-2.53125 C6.125,-1.78125 5.85156,-1.14583 5.30469,-0.625 C4.75781,-0.104167 4.06771,0.15625 3.23438,0.15625 C2.48438,0.15625 1.85938,-0.0703125 1.35938,-0.523438 C0.859375,-0.976563 0.572917,-1.55729 0.5,-2.26563 M7.5,-2.25 L8.60938,-2.34375 C8.69271,-1.80208 8.88281,-1.39583 9.17969,-1.125 C9.47656,-0.854167 9.83854,-0.71875 10.2656,-0.71875 C10.7656,-0.71875 11.1927,-0.911458 11.5469,-1.29688 C11.901,-1.68229 12.0781,-2.1875 12.0781,-2.8125 C12.0781,-3.41667 11.9089,-3.89323 11.5703,-4.24219 C11.2318,-4.59115 10.7865,-4.76563 10.2344,-4.76563 C9.90104,-4.76563 9.59635,-4.6875 9.32031,-4.53125 C9.04427,-4.375 8.82813,-4.17708 8.67188,-3.9375 L7.6875,-4.0625 L8.51563,-8.46875 L12.7969,-8.46875 L12.7969,-7.46875 L9.35938,-7.46875 L8.90625,-5.15625 C9.41667,-5.52083 9.95313,-5.70313 10.5156,-5.70313 C11.2656,-5.70313 11.8984,-5.44271 12.4141,-4.92188 C12.9297,-4.40104 13.1875,-3.72917 13.1875,-2.90625 C13.1875,-2.13542 12.9635,-1.46354 12.5156,-0.890625 C11.9635,-0.203125 11.2135,0.140625 10.2656,0.140625 C9.48438,0.140625 8.84635,-0.078125 8.35156,-0.515625 C7.85677,-0.953125 7.57292,-1.53125 7.5,-2.25 "/>
</g>

<g fill="#212121" fill-opacity="1" stroke="none" transform="matrix(0.75,0,0,0.75,431.25,144.55)"
font-family="MS Shell Dlg 2" font-size="8.25" font-weight="400" font-style="normal" 
>
<path vector-effect="none" fill-rule="evenodd" d="M3.875,0 L3.875,-2.0625 L0.15625,-2.0625 L0.15625,-3.03125 L4.07813,-8.59375 L4.9375,-8.59375 L4.9375,-3.03125 L6.09375,-3.03125 L6.09375,-2.0625 L4.9375,-2.0625 L4.9375,0 L3.875,0 M3.875,-3.03125 L3.875,-6.89063 L1.1875,-3.03125 L3.875,-3.03125 M7.5,-4.23438 C7.5,-5.25521 7.60417,-6.07552 7.8125,-6.69531 C8.02083,-7.3151 8.33073,-7.79167 8.74219,-8.125 C9.15365,-8.45833 9.67188,-8.625 10.2969,-8.625 C10.7552,-8.625 11.1589,-8.53125 11.5078,-8.34375 C11.8568,-8.15625 12.1458,-7.88802 12.375,-7.53906 C12.6042,-7.1901 12.7813,-6.76563 12.9063,-6.26563 C13.0313,-5.76563 13.0938,-5.08854 13.0938,-4.23438 C13.0938,-3.22396 12.9922,-2.41146 12.7891,-1.79688 C12.5859,-1.18229 12.2786,-0.705729 11.8672,-0.367188 C11.4557,-0.0286458 10.9323,0.140625 10.2969,0.140625 C9.47396,0.140625 8.82292,-0.15625 8.34375,-0.75 C7.78125,-1.45833 7.5,-2.61979 7.5,-4.23438 M8.57813,-4.23438 C8.57813,-2.82813 8.74479,-1.89063 9.07813,-1.42188 C9.41146,-0.953125 9.81771,-0.71875 10.2969,-0.71875 C10.7865,-0.71875 11.1953,-0.953125 11.5234,-1.42188 C11.8516,-1.89063 12.0156,-2.82813 12.0156,-4.23438 C12.0156,-5.65104 11.8516,-6.59115 11.5234,-7.05469 C11.1953,-7.51823 10.7813,-7.75 10.2813,-7.75 C9.80208,-7.75 9.41667,-7.54688 9.125,-7.14063 C8.76042,-6.61979 8.57813,-5.65104 8.57813,-4.23438 "/>
</g>

<g fill="#212121" fill-opacity="1" stroke="none" transform="matrix(0,-0.75,0.75,0,45.45,97.1249)"
font-family="MS Shell Dlg 2" font-size="8.25" font-weight="400" font-style="normal" 
>
<path vector-effect="none" fill-rule="evenodd" d="M5.28125,0 L5.28125,-0.984375 C4.75,-0.223958 4.03646,0.15625 3.14063,0.15625 C2.74479,0.15625 2.3724,0.078125 2.02344,-0.078125 C1.67448,-0.234375 1.41667,-0.427083 1.25,-0.65625 C1.08333,-0.885417 0.96875,-1.16667 0.90625,-1.5 C0.854167,-1.71875 0.828125,-2.07292 0.828125,-2.5625 L0.828125,-6.73438 L1.96875,-6.73438 L1.96875,-3 C1.96875,-2.40625 1.99479,-2.00521 2.04688,-1.79688 C2.11979,-1.49479 2.27083,-1.25781 2.5,-1.08594 C2.72917,-0.914063 3.01563,-0.828125 3.35938,-0.828125 C3.70313,-0.828125 4.02604,-0.916667 4.32813,-1.09375 C4.63021,-1.27083 4.84375,-1.51042 4.96875,-1.8125 C5.09375,-2.11458 5.15625,-2.55208 5.15625,-3.125 L5.15625,-6.73438 L6.29688,-6.73438 L6.29688,0 L5.28125,0 M11.875,2.57813 L11.875,-9.3125 L14.4063,-9.3125 L14.4063,-8.35938 L13.0313,-8.35938 L13.0313,1.64063 L14.4063,1.64063 L14.4063,2.57813 L11.875,2.57813 M15.75,-7.07813 C15.75,-7.73438 15.9193,-8.29688 16.2578,-8.76563 C16.5964,-9.23438 17.0781,-9.46875 17.7031,-9.46875 C18.2969,-9.46875 18.7839,-9.26042 19.1641,-8.84375 C19.5443,-8.42708 19.7344,-7.8125 19.7344,-7 C19.7344,-6.21875 19.5417,-5.61458 19.1563,-5.1875 C18.7708,-4.76042 18.2917,-4.54688 17.7188,-4.54688 C17.1563,-4.54688 16.6875,-4.75521 16.3125,-5.17188 C15.9375,-5.58854 15.75,-6.22396 15.75,-7.07813 M17.75,-8.67188 C17.4583,-8.67188 17.2188,-8.54948 17.0313,-8.30469 C16.8438,-8.0599 16.75,-7.60938 16.75,-6.95313 C16.75,-6.35938 16.8464,-5.9401 17.0391,-5.69531 C17.2318,-5.45052 17.4688,-5.32813 17.75,-5.32813 C18.0313,-5.32813 18.2656,-5.45052 18.4531,-5.69531 C18.6406,-5.9401 18.7344,-6.39063 18.7344,-7.04688 C18.7344,-7.65104 18.6406,-8.07292 18.4531,-8.3125 C18.2656,-8.55208 18.0313,-8.67188 17.75,-8.67188 M17.75,0.34375 L22.8438,-9.46875 L23.7656,-9.46875 L18.6875,0.34375 L17.75,0.34375 M21.7656,-2.1875 C21.7656,-2.85417 21.9349,-3.41927 22.2734,-3.88281 C22.612,-4.34635 23.099,-4.57813 23.7344,-4.57813 C24.3177,-4.57813 24.8021,-4.36979 25.1875,-3.95313 C25.5729,-3.53646 25.7656,-2.92188 25.7656,-2.10938 C25.7656,-1.32813 25.5703,-0.723958 25.1797,-0.296875 C24.7891,0.130208 24.3073,0.34375 23.7344,0.34375 C23.1719,0.34375 22.7031,0.132813 22.3281,-0.289063 C21.9531,-0.710938 21.7656,-1.34375 21.7656,-2.1875 M23.7656,-3.79688 C23.474,-3.79688 23.2344,-3.67188 23.0469,-3.42188 C22.8594,-3.17188 22.7656,-2.71875 22.7656,-2.0625 C22.7656,-1.47917 22.862,-1.0625 23.0547,-0.8125 C23.2474,-0.5625 23.4844,-0.4375 23.7656,-0.4375 C24.0573,-0.4375 24.2969,-0.5625 24.4844,-0.8125 C24.6719,-1.0625 24.7656,-1.51042 24.7656,-2.15625 C24.7656,-2.76042 24.6693,-3.1849 24.4766,-3.42969 C24.2839,-3.67448 24.0469,-3.79688 23.7656,-3.79688 M28,0 L28,-9.3125 L31.5156,-9.3125 C32.1302,-9.3125 32.599,-9.28125 32.9219,-9.21875 C33.3802,-9.14583 33.7656,-9.0026 34.0781,-8.78906 C34.3906,-8.57552 34.6406,-8.27604 34.8281,-7.89063 C35.0156,-7.50521 35.1094,-7.07813 35.1094,-6.60938 C35.1094,-5.81771 34.8568,-5.14844 34.3516,-4.60156 C33.8464,-4.05469 32.9375,-3.78125 31.625,-3.78125 L29.2344,-3.78125 L29.2344,0 L28,0 M29.2344,-4.875 L31.6406,-4.875 C32.4323,-4.875 32.9974,-5.02344 33.3359,-5.32031 C33.6745,-5.61719 33.8438,-6.03646 33.8438,-6.57813 C33.8438,-6.96354 33.7448,-7.29427 33.5469,-7.57031 C33.349,-7.84635 33.0885,-8.03125 32.7656,-8.125 C32.5573,-8.17708 32.1719,-8.20313 31.6094,-8.20313 L29.2344,-8.20313 L29.2344,-4.875 M38.625,0 L36.1563,-9.3125 L37.4219,-9.3125 L38.8438,-3.20313 C38.9896,-2.56771 39.1198,-1.93229 39.2344,-1.29688 C39.474,-2.29688 39.6146,-2.86979 39.6563,-3.01563 L41.4219,-9.3125 L42.9063,-9.3125 L44.2344,-4.59375 C44.5677,-3.42708 44.8125,-2.32813 44.9688,-1.29688 C45.0833,-1.89063 45.2344,-2.56771 45.4219,-3.32813 L46.8906,-9.3125 L48.125,-9.3125 L45.5781,0 L44.3906,0 L42.4219,-7.09375 C42.2552,-7.6875 42.1563,-8.05208 42.125,-8.1875 C42.0313,-7.76042 41.9427,-7.39583 41.8594,-7.09375 L39.8906,0 L38.625,0 M48.9688,0 L48.9688,-9.3125 L50.8125,-9.3125 L53.0156,-2.71875 C53.224,-2.10417 53.375,-1.64583 53.4688,-1.34375 C53.5729,-1.67708 53.7344,-2.17188 53.9531,-2.82813 L56.1875,-9.3125 L57.8438,-9.3125 L57.8438,0 L56.6563,0 L56.6563,-7.78125 L53.9531,0 L52.8438,0 L50.1563,-7.92188 L50.1563,0 L48.9688,0 M61.7656,2.57813 L59.25,2.57813 L59.25,1.64063 L60.625,1.64063 L60.625,-8.35938 L59.25,-8.35938 L59.25,-9.3125 L61.7656,-9.3125 L61.7656,2.57813"/>
</g>

<g fill="#212121" fill-opacity="1" stroke="#212121" stroke-opacity="1" stroke-width="0.666667" stroke-linecap="square" stroke-linejoin="round" transform="matrix(0.75,0,0,0.75,0,0)"
font-family="MS Shell Dlg 2" font-size="8.25" font-weight="400" font-style="normal" 
>
<polyline fill="none" vector-effect="none" points="84,178 84,18 " />
<polyline fill="none" vector-effect="none" points="582,178 582,18 " />
<polyline fill="none" vector-effect="none" points="84,178 88.98,178 " />
<polyline fill="none" vector-effect="none" points="577.02,178 582,178 " />
<polyline fill="none" vector-effect="none" points="84,138 88.98,138 " />
<polyline fill="none" vector-effect="none" points="577.02,138 582,138 " />
<polyline fill="none" vector-effect="none" points="84,98 88.98,98 " />
<polyline fill="none" vector-effect="none" points="577.02,98 582,98 " />
<polyline fill="none" vector-effect="none" points="84,58 88.98,58 " />
<polyline fill="none" vector-effect="none" points="577.02,58 582,58 " />
<polyline fill="none" vector-effect="none" points="84,18 88.98,18 " />
<polyline fill="none" vector-effect="none" points="577.02,18 582,18 " />
</g>

<g fill="#212121" fill-opacity="1" stroke="none" transform="matrix(0.75,0,0,0.75,54.95,136.5)"
font-family="MS Shell Dlg 2" font-size="8.25" font-weight="400" font-style="normal" 
>
<path vector-effect="none" fill-rule="evenodd" d="M0.5,-4.23438 C0.5,-5.25521 0.604167,-6.07552 0.8125,-6.69531 C1.02083,-7.3151 1.33073,-7.79167 1.74219,-8.125 C2.15365,-8.45833 2.67188,-8.625 3.29688,-8.625 C3.75521,-8.625 4.15885,-8.53125 4.50781,-8.34375 C4.85677,-8.15625 5.14583,-7.88802 5.375,-7.53906 C5.60417,-7.1901 5.78125,-6.76563 5.90625,-6.26563 C6.03125,-5.76563 6.09375,-5.08854 6.09375,-4.23438 C6.09375,-3.22396 5.99219,-2.41146 5.78906,-1.79688 C5.58594,-1.18229 5.27865,-0.705729 4.86719,-0.367188 C4.45573,-0.0286458 3.93229,0.140625 3.29688,0.140625 C2.47396,0.140625 1.82292,-0.15625 1.34375,-0.75 C0.78125,-1.45833 0.5,-2.61979 0.5,-4.23438 M1.57813,-4.23438 C1.57813,-2.82813 1.74479,-1.89063 2.07813,-1.42188 C2.41146,-0.953125 2.81771,-0.71875 3.29688,-0.71875 C3.78646,-0.71875 4.19531,-0.953125 4.52344,-1.42188 C4.85156,-1.89063 5.01563,-2.82813 5.01563,-4.23438 C5.01563,-5.65104 4.85156,-6.59115 4.52344,-7.05469 C4.19531,-7.51823 3.78125,-7.75 3.28125,-7.75 C2.80208,-7.75 2.41667,-7.54688 2.125,-7.14063 C1.76042,-6.61979 1.57813,-5.65104 1.57813,-4.23438 "/>
</g>

<g fill="#212121" fill-opacity="1" stroke="none" transform="matrix(0.75,0,0,0.75,49.7,106.5)"
font-family="MS Shell Dlg 2" font-size="8.25" font-weight="400" font-style="normal" 
>
<path vector-effect="none" fill-rule="evenodd" d="M4.46875,0 L3.42188,0 L3.42188,-6.71875 C3.16146,-6.47917 2.82552,-6.23698 2.41406,-5.99219 C2.0026,-5.7474 1.63542,-5.56771 1.3125,-5.45313 L1.3125,-6.46875 C1.89583,-6.75 2.40885,-7.08594 2.85156,-7.47656 C3.29427,-7.86719 3.60938,-8.25 3.79688,-8.625 L4.46875,-8.625 L4.46875,0 M7.5,-4.23438 C7.5,-5.25521 7.60417,-6.07552 7.8125,-6.69531 C8.02083,-7.3151 8.33073,-7.79167 8.74219,-8.125 C9.15365,-8.45833 9.67188,-8.625 10.2969,-8.625 C10.7552,-8.625 11.1589,-8.53125 11.5078,-8.34375 C11.8568,-8.15625 12.1458,-7.88802 12.375,-7.53906 C12.6042,-7.1901 12.7813,-6.76563 12.9063,-6.26563 C13.0313,-5.76563 13.0938,-5.08854 13.0938,-4.23438 C13.0938,-3.22396 12.9922,-2.41146 12.7891,-1.79688 C12.5859,-1.18229 12.2786,-0.705729 11.8672,-0.367188 C11.4557,-0.0286458 10.9323,0.140625 10.2969,0.140625 C9.47396,0.140625 8.82292,-0.15625 8.34375,-0.75 C7.78125,-1.45833 7.5,-2.61979 7.5,-4.23438 M8.57813,-4.23438 C8.57813,-2.82813 8.74479,-1.89063 9.07813,-1.42188 C9.41146,-0.953125 9.81771,-0.71875 10.2969,-0.71875 C10.7865,-0.71875 11.1953,-0.953125 11.5234,-1.42188 C11.8516,-1.89063 12.0156,-2.82813 12.0156,-4.23438 C12.0156,-5.65104 11.8516,-6.59115 11.5234,-7.05469 C11.1953,-7.51823 10.7813,-7.75 10.2813,-7.75 C9.80208,-7.75 9.41667,-7.54688 9.125,-7.14063 C8.76042,-6.61979 8.57813,-5.65104 8.57813,-4.23438 "/>
</g>

<g fill="#212121" fill-opacity="1" stroke="none" transform="matrix(0.75,0,0,0.75,49.7,76.5)"
font-family="MS Shell Dlg 2" font-size="8.25" font-weight="400" font-style="normal" 
>
<path vector-effect="none" fill-rule="evenodd" d="M6.04688,-1.01563 L6.04688,0 L0.359375,0 C0.359375,-0.25 0.401042,-0.494792 0.484375,-0.734375 C0.630208,-1.11979 0.861979,-1.5 1.17969,-1.875 C1.4974,-2.25 1.95833,-2.68229 2.5625,-3.17188 C3.5,-3.94271 4.13281,-4.55208 4.46094,-5 C4.78906,-5.44792 4.95313,-5.86979 4.95313,-6.26563 C4.95313,-6.68229 4.80208,-7.03385 4.5,-7.32031 C4.19792,-7.60677 3.80729,-7.75 3.32813,-7.75 C2.81771,-7.75 2.41146,-7.59896 2.10938,-7.29688 C1.80729,-6.99479 1.65104,-6.57292 1.64063,-6.03125 L0.5625,-6.14063 C0.635417,-6.95313 0.914063,-7.57031 1.39844,-7.99219 C1.88281,-8.41406 2.53646,-8.625 3.35938,-8.625 C4.18229,-8.625 4.83333,-8.39583 5.3125,-7.9375 C5.79167,-7.47917 6.03125,-6.91146 6.03125,-6.23438 C6.03125,-5.89063 5.96094,-5.55469 5.82031,-5.22656 C5.67969,-4.89844 5.44531,-4.54948 5.11719,-4.17969 C4.78906,-3.8099 4.25,-3.30729 3.5,-2.67188 C2.86458,-2.14063 2.45573,-1.77865 2.27344,-1.58594 C2.09115,-1.39323 1.94271,-1.20313 1.82813,-1.01563 L6.04688,-1.01563 M7.5,-4.23438 C7.5,-5.25521 7.60417,-6.07552 7.8125,-6.69531 C8.02083,-7.3151 8.33073,-7.79167 8.74219,-8.125 C9.15365,-8.45833 9.67188,-8.625 10.2969,-8.625 C10.7552,-8.625 11.1589,-8.53125 11.5078,-8.34375 C11.8568,-8.15625 12.1458,-7.88802 12.375,-7.53906 C12.6042,-7.1901 12.7813,-6.76563 12.9063,-6.26563 C13.0313,-5.76563 13.0938,-5.08854 13.0938,-4.23438 C13.0938,-3.22396 12.9922,-2.41146 12.7891,-1.79688 C12.5859,-1.18229 12.2786,-0.705729 11.8672,-0.367188 C11.4557,-0.0286458 10.9323,0.140625 10.2969,0.140625 C9.47396,0.140625 8.82292,-0.15625 8.34375,-0.75 C7.78125,-1.45833 7.5,-2.61979 7.5,-4.23438 M8.57813,-4.23438 C8.57813,-2.82813 8.74479,-1.89063 9.07813,-1.42188 C9.41146,-0.953125 9.81771,-0.71875 10.2969,-0.71875 C10.7865,-0.71875 11.1953,-0.953125 11.5234,-1.42188 C11.8516,-1.89063 12.0156,-2.82813 12.0156,-4.23438 C12.0156,-5.65104 11.8516,-6.59115 11.5234,-7.05469 C11.1953,-7.51823 10.7813,-7.75 10.2813,-7.75 C9.80208,-7.75 9.41667,-7.54688 9.125,-7.14063 C8.76042,-6.61979 8.57813,-5.65104 8.57813,-4.23438 "/>
</g>

<g fill="#212121" fill-opacity="1" stroke="none" transform="matrix(0.75,0,0,0.75,49.7,46.5)"
font-family="MS Shell Dlg 2" font-size="8.25" font-weight="400" font-style="normal" 
>
<path vector-effect="none" fill-rule="evenodd" d="M0.5,-2.26563 L1.5625,-2.40625 C1.67708,-1.8125 1.88021,-1.38281 2.17188,-1.11719 C2.46354,-0.851563 2.81771,-0.71875 3.23438,-0.71875 C3.73438,-0.71875 4.15625,-0.890625 4.5,-1.23438 C4.84375,-1.57813 5.01563,-2.00521 5.01563,-2.51563 C5.01563,-2.99479 4.85677,-3.39323 4.53906,-3.71094 C4.22135,-4.02865 3.81771,-4.1875 3.32813,-4.1875 C3.13021,-4.1875 2.88021,-4.14583 2.57813,-4.0625 L2.70313,-5 C2.77604,-4.98958 2.83333,-4.98438 2.875,-4.98438 C3.32292,-4.98438 3.72656,-5.10156 4.08594,-5.33594 C4.44531,-5.57031 4.625,-5.93229 4.625,-6.42188 C4.625,-6.80729 4.49479,-7.1276 4.23438,-7.38281 C3.97396,-7.63802 3.63542,-7.76563 3.21875,-7.76563 C2.8125,-7.76563 2.47135,-7.63542 2.19531,-7.375 C1.91927,-7.11458 1.74479,-6.72917 1.67188,-6.21875 L0.609375,-6.40625 C0.734375,-7.10417 1.02604,-7.64844 1.48438,-8.03906 C1.94271,-8.42969 2.51042,-8.625 3.1875,-8.625 C3.65625,-8.625 4.08854,-8.52344 4.48438,-8.32031 C4.88021,-8.11719 5.18229,-7.84375 5.39063,-7.5 C5.59896,-7.15625 5.70313,-6.78646 5.70313,-6.39063 C5.70313,-6.02604 5.60417,-5.6901 5.40625,-5.38281 C5.20833,-5.07552 4.91667,-4.83333 4.53125,-4.65625 C5.03125,-4.54167 5.42188,-4.29948 5.70313,-3.92969 C5.98438,-3.5599 6.125,-3.09375 6.125,-2.53125 C6.125,-1.78125 5.85156,-1.14583 5.30469,-0.625 C4.75781,-0.104167 4.06771,0.15625 3.23438,0.15625 C2.48438,0.15625 1.85938,-0.0703125 1.35938,-0.523438 C0.859375,-0.976563 0.572917,-1.55729 0.5,-2.26563 M7.5,-4.23438 C7.5,-5.25521 7.60417,-6.07552 7.8125,-6.69531 C8.02083,-7.3151 8.33073,-7.79167 8.74219,-8.125 C9.15365,-8.45833 9.67188,-8.625 10.2969,-8.625 C10.7552,-8.625 11.1589,-8.53125 11.5078,-8.34375 C11.8568,-8.15625 12.1458,-7.88802 12.375,-7.53906 C12.6042,-7.1901 12.7813,-6.76563 12.9063,-6.26563 C13.0313,-5.76563 13.0938,-5.08854 13.0938,-4.23438 C13.0938,-3.22396 12.9922,-2.41146 12.7891,-1.79688 C12.5859,-1.18229 12.2786,-0.705729 11.8672,-0.367188 C11.4557,-0.0286458 10.9323,0.140625 10.2969,0.140625 C9.47396,0.140625 8.82292,-0.15625 8.34375,-0.75 C7.78125,-1.45833 7.5,-2.61979 7.5,-4.23438 M8.57813,-4.23438 C8.57813,-2.82813 8.74479,-1.89063 9.07813,-1.42188 C9.41146,-0.953125 9.81771,-0.71875 10.2969,-0.71875 C10.7865,-0.71875 11.1953,-0.953125 11.5234,-1.42188 C11.8516,-1.89063 12.0156,-2.82813 12.0156,-4.23438 C12.0156,-5.65104 11.8516,-6.59115 11.5234,-7.05469 C11.1953,-7.51823 10.7813,-7.75 10.2813,-7.75 C9.80208,-7.75 9.41667,-7.54688 9.125,-7.14063 C8.76042,-6.61979 8.57813,-5.65104 8.57813,-4.23438 "/>
</g>

<g fill="#212121" fill-opacity="1" stroke="none" transform="matrix(0.75,0,0,0.75,49.7,16.5)"
font-family="MS Shell Dlg 2" font-size="8.25" font-weight="400" font-style="normal" 
>
<path vector-effect="none" fill-rule="evenodd" d="M3.875,0 L3.875,-2.0625 L0.15625,-2.0625 L0.15625,-3.03125 L4.07813,-8.59375 L4.9375,-8.59375 L4.9375,-3.03125 L6.09375,-3.03125 L6.09375,-2.0625 L4.9375,-2.0625 L4.9375,0 L3.875,0 M3.875,-3.03125 L3.875,-6.89063 L1.1875,-3.03125 L3.875,-3.03125 M7.5,-4.23438 C7.5,-5.25521 7.60417,-6.07552 7.8125,-6.69531 C8.02083,-7.3151 8.33073,-7.79167 8.74219,-8.125 C9.15365,-8.45833 9.67188,-8.625 10.2969,-8.625 C10.7552,-8.625 11.1589,-8.53125 11.5078,-8.34375 C11.8568,-8.15625 12.1458,-7.88802 12.375,-7.53906 C12.6042,-7.1901 12.7813,-6.76563 12.9063,-6.26563 C13.0313,-5.76563 13.0938,-5.08854 13.0938,-4.23438 C13.0938,-3.22396 12.9922,-2.41146 12.7891,-1.79688 C12.5859,-1.18229 12.2786,-0.705729 11.8672,-0.367188 C11.4557,-0.0286458 10.9323,0.140625 10.2969,0.140625 C9.47396,0.140625 8.82292,-0.15625 8.34375,-0.75 C7.78125,-1.45833 7.5,-2.61979 7.5,-4.23438 M8.57813,-4.23438 C8.57813,-2.82813 8.74479,-1.89063 9.07813,-1.42188 C9.41146,-0.953125 9.81771,-0.71875 10.2969,-0.71875 C10.7865,-0.71875 11.1953,-0.953125 11.5234,-1.42188 C11.8516,-1.89063 12.0156,-2.82813 12.0156,-4.23438 C12.0156,-5.65104 11.8516,-6.59115 11.5234,-7.05469 C11.1953,-7.51823 10.7813,-7.75 10.2813,-7.75 C9.80208,-7.75 9.41667,-7.54688 9.125,-7.14063 C8.76042,-6.61979 8.57813,-5.65104 8.57813,-4.23438 "/>
</g>

<g fill="#212121" fill-opacity="1" stroke="none" transform="matrix(0.75,0,0,0.75,219,9.39375)"
font-family="MS Shell Dlg 2" font-size="8.25" font-weight="400" font-style="normal" 
>
<path vector-effect="none" fill-rule="evenodd" d="M6.90625,-3.42188 L8.71875,-2.84375 C8.4375,-1.83333 7.97396,-1.08073 7.32813,-0.585938 C6.68229,-0.0911458 5.85938,0.15625 4.85938,0.15625 C3.61979,0.15625 2.60156,-0.265625 1.80469,-1.10938 C1.00781,-1.95313 0.609375,-3.10938 0.609375,-4.57813 C0.609375,-6.11979 1.01042,-7.32031 1.8125,-8.17969 C2.61458,-9.03906 3.66667,-9.46875 4.96875,-9.46875 C6.10417,-9.46875 7.03125,-9.13021 7.75,-8.45313 C8.16667,-8.05729 8.48438,-7.48438 8.70313,-6.73438 L6.84375,-6.29688 C6.72917,-6.77604 6.4974,-7.15625 6.14844,-7.4375 C5.79948,-7.71875 5.375,-7.85938 4.875,-7.85938 C4.1875,-7.85938 3.6276,-7.61198 3.19531,-7.11719 C2.76302,-6.6224 2.54688,-5.81771 2.54688,-4.70313 C2.54688,-3.53646 2.76042,-2.70313 3.1875,-2.20313 C3.61458,-1.70313 4.16667,-1.45313 4.84375,-1.45313 C5.34375,-1.45313 5.77344,-1.61198 6.13281,-1.92969 C6.49219,-2.2474 6.75,-2.74479 6.90625,-3.42188 M9.51563,-3.46875 C9.51563,-4.0625 9.66146,-4.63542 9.95313,-5.1875 C10.2448,-5.73958 10.6589,-6.16146 11.1953,-6.45313 C11.7318,-6.74479 12.3333,-6.89063 13,-6.89063 C14.0104,-6.89063 14.8438,-6.5599 15.5,-5.89844 C16.1563,-5.23698 16.4844,-4.40104 16.4844,-3.39063 C16.4844,-2.36979 16.1536,-1.52344 15.4922,-0.851563 C14.8307,-0.179688 14,0.15625 13,0.15625 C12.3854,0.15625 11.7969,0.015625 11.2344,-0.265625 C10.6719,-0.546875 10.2448,-0.955729 9.95313,-1.49219 C9.66146,-2.02865 9.51563,-2.6875 9.51563,-3.46875 M11.3438,-3.375 C11.3438,-2.70833 11.5026,-2.19531 11.8203,-1.83594 C12.138,-1.47656 12.5313,-1.29688 13,-1.29688 C13.4688,-1.29688 13.8594,-1.47656 14.1719,-1.83594 C14.4844,-2.19531 14.6406,-2.71354 14.6406,-3.39063 C14.6406,-4.04688 14.4844,-4.55208 14.1719,-4.90625 C13.8594,-5.26042 13.4688,-5.4375 13,-5.4375 C12.5313,-5.4375 12.138,-5.26042 11.8203,-4.90625 C11.5026,-4.55208 11.3438,-4.04167 11.3438,-3.375 M24.0625,0 L22.2813,0 L22.2813,-3.4375 C22.2813,-4.16667 22.2422,-4.63802 22.1641,-4.85156 C22.0859,-5.0651 21.9609,-5.23177 21.7891,-5.35156 C21.6172,-5.47135 21.4115,-5.53125 21.1719,-5.53125 C20.8698,-5.53125 20.5964,-5.44531 20.3516,-5.27344 C20.1068,-5.10156 19.9375,-4.8776 19.8438,-4.60156 C19.75,-4.32552 19.7031,-3.80729 19.7031,-3.04688 L19.7031,0 L17.9219,0 L17.9219,-6.73438 L19.5781,-6.73438 L19.5781,-5.75 C20.1615,-6.51042 20.901,-6.89063 21.7969,-6.89063 C22.1927,-6.89063 22.5521,-6.82031 22.875,-6.67969 C23.1979,-6.53906 23.4453,-6.35938 23.6172,-6.14063 C23.7891,-5.92188 23.9063,-5.67188 23.9688,-5.39063 C24.0313,-5.10938 24.0625,-4.70833 24.0625,-4.1875 L24.0625,0 M29.0313,-6.73438 L29.0313,-5.3125 L27.8125,-5.3125 L27.8125,-2.60938 C27.8125,-2.05729 27.8229,-1.73438 27.8438,-1.64063 C27.8646,-1.54688 27.9167,-1.47135 28,-1.41406 C28.0833,-1.35677 28.1823,-1.32813 28.2969,-1.32813 C28.4635,-1.32813 28.7031,-1.38542 29.0156,-1.5 L29.1719,-0.109375 C28.7552,0.0677083 28.2865,0.15625 27.7656,0.15625 C27.4427,0.15625 27.151,0.101563 26.8906,-0.0078125 C26.6302,-0.117188 26.4401,-0.257813 26.3203,-0.429688 C26.2005,-0.601563 26.1198,-0.833333 26.0781,-1.125 C26.0365,-1.33333 26.0156,-1.75 26.0156,-2.375 L26.0156,-5.3125 L25.2031,-5.3125 L25.2031,-6.73438 L26.0156,-6.73438 L26.0156,-8.07813 L27.8125,-9.125 L27.8125,-6.73438 L29.0313,-6.73438 M31.6406,0 L29.8594,0 L29.8594,-6.73438 L31.5156,-6.73438 L31.5156,-5.78125 C31.7969,-6.23958 32.0521,-6.53906 32.2813,-6.67969 C32.5104,-6.82031 32.7656,-6.89063 33.0469,-6.89063 C33.4531,-6.89063 33.8438,-6.78125 34.2188,-6.5625 L33.6719,-5 C33.3698,-5.19792 33.0885,-5.29688 32.8281,-5.29688 C32.5781,-5.29688 32.3672,-5.22656 32.1953,-5.08594 C32.0234,-4.94531 31.888,-4.69531 31.7891,-4.33594 C31.6901,-3.97656 31.6406,-3.22396 31.6406,-2.07813 L31.6406,0 M34.5156,-3.46875 C34.5156,-4.0625 34.6615,-4.63542 34.9531,-5.1875 C35.2448,-5.73958 35.6589,-6.16146 36.1953,-6.45313 C36.7318,-6.74479 37.3333,-6.89063 38,-6.89063 C39.0104,-6.89063 39.8438,-6.5599 40.5,-5.89844 C41.1563,-5.23698 41.4844,-4.40104 41.4844,-3.39063 C41.4844,-2.36979 41.1536,-1.52344 40.4922,-0.851563 C39.8307,-0.179688 39,0.15625 38,0.15625 C37.3854,0.15625 36.7969,0.015625 36.2344,-0.265625 C35.6719,-0.546875 35.2448,-0.955729 34.9531,-1.49219 C34.6615,-2.02865 34.5156,-2.6875 34.5156,-3.46875 M36.3438,-3.375 C36.3438,-2.70833 36.5026,-2.19531 36.8203,-1.83594 C37.138,-1.47656 37.5313,-1.29688 38,-1.29688 C38.4688,-1.29688 38.8594,-1.47656 39.1719,-1.83594 C39.4844,-2.19531 39.6406,-2.71354 39.6406,-3.39063 C39.6406,-4.04688 39.4844,-4.55208 39.1719,-4.90625 C38.8594,-5.26042 38.4688,-5.4375 38,-5.4375 C37.5313,-5.4375 37.138,-5.26042 36.8203,-4.90625 C36.5026,-4.55208 36.3438,-4.04167 36.3438,-3.375 M42.9375,0 L42.9375,-9.3125 L44.7188,-9.3125 L44.7188,0 L42.9375,0 M50.9375,-7.65625 L50.9375,-9.3125 L52.7188,-9.3125 L52.7188,-7.65625 L50.9375,-7.65625 M50.9375,0 L50.9375,-6.73438 L52.7188,-6.73438 L52.7188,0 L50.9375,0 M61.0625,0 L59.2813,0 L59.2813,-3.4375 C59.2813,-4.16667 59.2422,-4.63802 59.1641,-4.85156 C59.0859,-5.0651 58.9609,-5.23177 58.7891,-5.35156 C58.6172,-5.47135 58.4115,-5.53125 58.1719,-5.53125 C57.8698,-5.53125 57.5964,-5.44531 57.3516,-5.27344 C57.1068,-5.10156 56.9375,-4.8776 56.8438,-4.60156 C56.75,-4.32552 56.7031,-3.80729 56.7031,-3.04688 L56.7031,0 L54.9219,0 L54.9219,-6.73438 L56.5781,-6.73438 L56.5781,-5.75 C57.1615,-6.51042 57.901,-6.89063 58.7969,-6.89063 C59.1927,-6.89063 59.5521,-6.82031 59.875,-6.67969 C60.1979,-6.53906 60.4453,-6.35938 60.6172,-6.14063 C60.7891,-5.92188 60.9063,-5.67188 60.9688,-5.39063 C61.0313,-5.10938 61.0625,-4.70833 61.0625,-4.1875 L61.0625,0 M62.875,-6.73438 L64.5469,-6.73438 L64.5469,-5.75 C64.7656,-6.09375 65.0573,-6.36979 65.4219,-6.57813 C65.7865,-6.78646 66.1927,-6.89063 66.6406,-6.89063 C67.4323,-6.89063 68.099,-6.58333 68.6406,-5.96875 C69.1823,-5.35417 69.4531,-4.5 69.4531,-3.40625 C69.4531,-2.28125 69.1797,-1.40625 68.6328,-0.78125 C68.0859,-0.15625 67.4219,0.15625 66.6406,0.15625 C66.2656,0.15625 65.9271,0.0807292 65.625,-0.0703125 C65.3229,-0.221354 65.0052,-0.473958 64.6719,-0.828125 L64.6719,2.5625 L62.875,2.5625 L62.875,-6.73438 M64.6406,-3.48438 C64.6406,-2.72396 64.7917,-2.16406 65.0938,-1.80469 C65.3958,-1.44531 65.7656,-1.26563 66.2031,-1.26563 C66.6094,-1.26563 66.9505,-1.43229 67.2266,-1.76563 C67.5026,-2.09896 67.6406,-2.64063 67.6406,-3.39063 C67.6406,-4.09896 67.5,-4.625 67.2188,-4.96875 C66.9375,-5.3125 66.5885,-5.48438 66.1719,-5.48438 C65.7344,-5.48438 65.3698,-5.3151 65.0781,-4.97656 C64.7865,-4.63802 64.6406,-4.14063 64.6406,-3.48438 M75.375,0 L75.375,-1.01563 C75.125,-0.651042 74.7995,-0.364583 74.3984,-0.15625 C73.9974,0.0520833 73.5781,0.15625 73.1406,0.15625 C72.6823,0.15625 72.2734,0.0572917 71.9141,-0.140625 C71.5547,-0.338542 71.2943,-0.619792 71.1328,-0.984375 C70.9714,-1.34896 70.8906,-1.84375 70.8906,-2.46875 L70.8906,-6.73438 L72.6719,-6.73438 L72.6719,-3.64063 C72.6719,-2.69271 72.7057,-2.11198 72.7734,-1.89844 C72.8411,-1.6849 72.9609,-1.51563 73.1328,-1.39063 C73.3047,-1.26563 73.526,-1.20313 73.7969,-1.20313 C74.099,-1.20313 74.3724,-1.28646 74.6172,-1.45313 C74.862,-1.61979 75.0286,-1.82813 75.1172,-2.07813 C75.2057,-2.32813 75.25,-2.93229 75.25,-3.89063 L75.25,-6.73438 L77.0313,-6.73438 L77.0313,0 L75.375,0 M82.0313,-6.73438 L82.0313,-5.3125 L80.8125,-5.3125 L80.8125,-2.60938 C80.8125,-2.05729 80.8229,-1.73438 80.8438,-1.64063 C80.8646,-1.54688 80.9167,-1.47135 81,-1.41406 C81.0833,-1.35677 81.1823,-1.32813 81.2969,-1.32813 C81.4635,-1.32813 81.7031,-1.38542 82.0156,-1.5 L82.1719,-0.109375 C81.7552,0.0677083 81.2865,0.15625 80.7656,0.15625 C80.4427,0.15625 80.151,0.101563 79.8906,-0.0078125 C79.6302,-0.117188 79.4401,-0.257813 79.3203,-0.429688 C79.2005,-0.601563 79.1198,-0.833333 79.0781,-1.125 C79.0365,-1.33333 79.0156,-1.75 79.0156,-2.375 L79.0156,-5.3125 L78.2031,-5.3125 L78.2031,-6.73438 L79.0156,-6.73438 L79.0156,-8.07813 L80.8125,-9.125 L80.8125,-6.73438 L82.0313,-6.73438"/>
</g>

<g fill="none" stroke="#1171be" stroke-opacity="1" stroke-width="1.33333" stroke-linecap="butt" stroke-linejoin="miter" stroke-miterlimit="5" transform="matrix(0.75,0,0,0.75,0,0)"
font-family="MS Shell Dlg 2" font-size="8.25" font-weight="400" font-style="normal" 
>
<polyline fill="none" vector-effect="none" points="84,178 84.6225,178 84.6225,58 85.245,58 85.245,58 85.8675,58 85.8675,58 86.49,58 86.49,58 87.1125,58 87.1125,58 87.735,58 87.735,58 88.3575,58 88.3575,58 88.98,58 88.98,58 89.6025,58 89.6025,58 90.225,58 90.225,58 90.8475,58 90.8475,58 91.47,58 91.47,58 92.0925,58 92.0925,58 92.715,58 92.715,58 93.3375,58 93.3375,58 93.96,58 93.96,58 94.5825,58 94.5825,58 95.205,58 95.205,58 95.8275,58 95.8275,58 96.45,58 96.45,58 97.0725,58 97.0725,58 97.695,58 97.695,58 98.3175,58 98.3175,58 98.94,58 98.94,58 99.5625,58 99.5625,58 100.185,58 100.185,58 100.808,58 100.808,58 101.43,58 101.43,58 102.052,58 102.052,58 102.675,58 102.675,58 103.298,58 103.298,58 103.92,58 103.92,58 104.543,58 104.543,58 105.165,58 105.165,58 105.787,58 105.787,58 106.41,58 106.41,58 107.033,58 107.033,58 107.655,58 107.655,58 108.278,58 108.278,58 108.9,58 108.9,58 109.522,58 109.522,58 110.145,58 110.145,58 110.768,58 110.768,58 111.39,58 111.39,58 112.012,58 112.012,58 112.635,58 112.635,58 113.257,58 113.257,58 113.88,58 113.88,58 114.503,58 114.503,58 115.125,58 115.125,58 115.747,58 115.747,58 116.37,58 116.37,58 116.993,58 116.993,58 117.615,58 117.615,58 118.238,58 118.238,58 118.86,58 118.86,58 119.482,58 119.482,58 120.105,58 120.105,58 120.728,58 120.728,58 121.35,58 121.35,58 121.972,58 121.972,58 122.595,58 122.595,58 123.217,58 123.217,58 123.84,58 123.84,58 124.463,58 124.463,58 125.085,58 125.085,58 125.707,58 125.707,58 126.33,58 126.33,58 126.952,58 126.952,58 127.575,58 127.575,58 128.197,58 128.197,58 128.82,58 128.82,58 129.443,58 129.443,58 130.065,58 130.065,58 130.688,58 130.688,58 131.31,58 131.31,58 131.932,58 131.932,58 132.555,58 132.555,58 133.178,58 133.178,58 133.8,58 133.8,58 134.423,58 134.423,58 135.045,58 135.045,58 135.667,58 135.667,58 136.29,58 136.29,58 136.913,58 136.913,58 137.535,58 137.535,58 138.158,58 138.158,58 138.78,58 138.78,58 139.402,58 139.402,58 140.025,58 140.025,58 140.648,58 140.648,58 141.27,58 141.27,58 141.893,58 141.893,58 142.515,58 142.515,58 143.137,58 143.137,58 143.76,58 143.76,58 144.382,58 144.382,58 145.005,58 145.005,58 145.628,58 145.628,58 146.25,58 146.25,58 146.872,58 146.872,58 147.495,58 147.495,58 148.118,58 148.118,58 148.74,58 148.74,58 149.363,58 149.363,58 149.985,58 149.985,58 150.607,58 150.607,58 151.23,58 151.23,58 151.852,58 151.852,58 152.475,58 152.475,58 153.098,58 153.098,58 153.72,58 153.72,58 154.342,58 154.342,58 154.965,58 154.965,58 155.587,58 155.587,58 156.21,58 156.21,58 156.833,58 156.833,58 157.455,58 157.455,58 158.077,58 158.077,58 158.7,58 158.7,58 159.323,58 159.323,58 159.945,58 159.945,58 160.568,58 160.568,58 161.19,58 161.19,58 161.813,58 161.813,58 162.435,58 162.435,58 163.057,58 163.057,58 163.68,58 163.68,58 164.302,58 164.302,58 164.925,58 164.925,58 165.548,58 165.548,58 166.17,58 166.17,58 166.792,58 166.792,58 167.415,58 167.415,58 168.038,58 168.038,58 168.66,58 168.66,58 169.283,58 169.283,58 169.905,58 169.905,58 170.527,58 170.527,58 171.15,58 171.15,58 171.773,58 171.773,58 172.395,58 172.395,58 173.018,58 173.018,58 173.64,58 173.64,58 174.262,58 174.262,58 174.885,58 174.885,58 175.507,58 175.507,58 176.13,58 176.13,58 176.753,58 176.753,58 177.375,58 177.375,58 177.997,58 177.997,58 178.62,58 178.62,58 179.243,58 179.243,58 179.865,58 179.865,58 180.488,58 180.488,58 181.11,58 181.11,58 181.732,58 181.732,58 182.355,58 182.355,58 182.977,58 182.977,58 183.6,58 183.6,58 184.223,58 184.223,58 184.845,58 184.845,58 185.467,58 185.467,58 186.09,58 186.09,58 186.712,58 186.712,58 187.335,58 187.335,58 187.958,58 187.958,58 188.58,58 188.58,58 189.202,58 189.202,58 189.825,58 189.825,58 190.448,58 190.448,58 191.07,58 191.07,58 191.692,58 191.692,58 192.315,58 192.315,58 192.938,58 192.938,58 193.56,58 193.56,58 194.183,58 194.183,58 194.805,58 194.805,58 195.427,58 195.427,58 196.05,58 196.05,58 196.673,58 196.673,58 197.295,58 197.295,58 197.917,58 197.917,58 198.54,58 198.54,58 199.163,58 199.163,58 199.785,58 199.785,58 200.408,58 200.408,58 201.03,58 201.03,58 201.652,58 201.652,58 202.275,58 202.275,58 202.898,58 202.898,58 203.52,58 203.52,58 204.143,58 204.143,58 204.765,58 204.765,58 205.387,58 205.387,58 206.01,58 206.01,58 206.633,58 206.633,58 207.255,58 207.255,58 207.878,58 207.878,58 208.5,58 208.5,133.523 209.122,133.523 209.122,103.807 209.745,103.807 209.745,88.3769 210.367,88.3769 210.367,80.4249 210.99,80.4249 210.99,78.2695 211.613,78.2695 211.613,80.2999 212.235,80.2999 212.235,84.0227 212.857,84.0227 212.857,87.7686 213.48,87.7686 213.48,89.204 214.102,89.204 214.102,89.52 214.725,89.52 214.725,87.6874 215.348,87.6874 215.348,84.067 215.97,84.067 215.97,80.2789 216.592,80.2789 216.592,76.4133 217.215,76.4133 217.215,73.0434 217.837,73.0434 217.837,71.6238 218.46,71.6238 218.46,71.6639 219.083,71.6639 219.083,72.5063 219.705,72.5063 219.705,72.1891 220.327,72.1891 220.327,72.7128 220.95,72.7128 220.95,72.9028 221.573,72.9028 221.573,72.8757 222.195,72.8757 222.195,73.4874 222.817,73.4874 222.817,73.1405 223.44,73.1405 223.44,71.3825 224.063,71.3825 224.063,71.4325 224.685,71.4325 224.685,70.8531 225.308,70.8531 225.308,71.1906 225.93,71.1906 225.93,71.4771 226.552,71.4771 226.552,70.9568 227.175,70.9568 227.175,71.5875 227.798,71.5875 227.798,71.003 228.42,71.003 228.42,70.8856 229.042,70.8856 229.042,71.2305 229.665,71.2305 229.665,70.6853 230.288,70.6853 230.288,70.9545 230.91,70.9545 230.91,70.9923 231.533,70.9923 231.533,71.2492 232.155,71.2492 232.155,70.8461 232.777,70.8461 232.777,70.6434 233.4,70.6434 233.4,70.79 234.023,70.79 234.023,70.2649 234.645,70.2649 234.645,70.9127 235.268,70.9127 235.268,71.2051 235.89,71.2051 235.89,71.394 236.512,71.394 236.512,71.3341 237.135,71.3341 237.135,71.0411 237.758,71.0411 237.758,70.7465 238.38,70.7465 238.38,70.5782 239.003,70.5782 239.003,70.6377 239.625,70.6377 239.625,71.0578 240.247,71.0578 240.247,71.0292 240.87,71.0292 240.87,71.6793 241.492,71.6793 241.492,70.9535 242.115,70.9535 242.115,70.9755 242.738,70.9755 242.738,70.8869 243.36,70.8869 243.36,71.248 243.982,71.248 243.982,70.8893 244.605,70.8893 244.605,71.6383 245.227,71.6383 245.227,71.011 245.85,71.011 245.85,71.3525 246.473,71.3525 246.473,71.18 247.095,71.18 247.095,71.3911 247.717,71.3911 247.717,71.0821 248.34,71.0821 248.34,71.1491 248.962,71.1491 248.962,70.8295 249.585,70.8295 249.585,71.4901 250.208,71.4901 250.208,71.282 250.83,71.282 250.83,70.8776 251.452,70.8776 251.452,71.2307 252.075,71.2307 252.075,71.2565 252.698,71.2565 252.698,71.7547 253.32,71.7547 253.32,70.9756 253.942,70.9756 253.942,71.0806 254.565,71.0806 254.565,71.6057 255.188,71.6057 255.188,71.2065 255.81,71.2065 255.81,71.212 256.432,71.212 256.432,71.0014 257.055,71.0014 257.055,71.1911 257.677,71.1911 257.677,71.5956 258.3,71.5956 258.3,71.7023 258.923,71.7023 258.923,71.2153 259.545,71.2153 259.545,70.8985 260.167,70.8985 260.167,71.274 260.79,71.274 260.79,70.8054 261.413,70.8054 261.413,70.9157 262.035,70.9157 262.035,70.9852 262.658,70.9852 262.658,70.9613 263.28,70.9613 263.28,71.3226 263.902,71.3226 263.902,70.6604 264.525,70.6604 264.525,70.4358 265.147,70.4358 265.147,70.8802 265.77,70.8802 265.77,70.9207 266.392,70.9207 266.392,70.9189 267.015,70.9189 267.015,70.4248 267.638,70.4248 267.638,70.7322 268.26,70.7322 268.26,70.394 268.883,70.394 268.883,70.3945 269.505,70.3945 269.505,71.0411 270.128,71.0411 270.128,70.9863 270.75,70.9863 270.75,76.8877 271.372,76.8877 271.372,81.5509 271.995,81.5509 271.995,83.5126 272.617,83.5126 272.617,84.2224 273.24,84.2224 273.24,85.2933 273.862,85.2933 273.862,86.7066 274.485,86.7066 274.485,88.6483 275.108,88.6483 275.108,91.0337 275.73,91.0337 275.73,93.7657 276.353,93.7657 276.353,96.7448 276.975,96.7448 276.975,98.9933 277.598,98.9933 277.598,100.422 278.22,100.422 278.22,100.666 278.842,100.666 278.842,101.189 279.465,101.189 279.465,101.45 280.087,101.45 280.087,101.992 280.71,101.992 280.71,102.441 281.333,102.441 281.333,103.273 281.955,103.273 281.955,103.295 282.577,103.295 282.577,103.587 283.2,103.587 283.2,103.492 283.822,103.492 283.822,103.228 284.445,103.228 284.445,103.543 285.068,103.543 285.068,103.947 285.69,103.947 285.69,104.262 286.313,104.262 286.313,103.711 286.935,103.711 286.935,104.596 287.557,104.596 287.557,104.639 288.18,104.639 288.18,104.627 288.803,104.627 288.803,104.534 289.425,104.534 289.425,104.49 290.047,104.49 290.047,104.448 290.67,104.448 290.67,104.688 291.292,104.688 291.292,104.935 291.915,104.935 291.915,104.688 292.538,104.688 292.538,104.428 293.16,104.428 293.16,104.937 293.783,104.937 293.783,104.778 294.405,104.778 294.405,104.621 295.027,104.621 295.027,104.429 295.65,104.429 295.65,104.869 296.272,104.869 296.272,104.558 296.895,104.558 296.895,104.199 297.517,104.199 297.517,104.989 298.14,104.989 298.14,105.689 298.763,105.689 298.763,105.322 299.385,105.322 299.385,103.877 300.008,103.877 300.008,104.78 300.63,104.78 300.63,104.49 301.253,104.49 301.253,105.041 301.875,105.041 301.875,104.45 302.497,104.45 302.497,104.703 303.12,104.703 303.12,104.74 303.742,104.74 303.742,104.778 304.365,104.778 304.365,104.509 304.987,104.509 304.987,104.403 305.61,104.403 305.61,104.522 306.233,104.522 306.233,104.71 306.855,104.71 306.855,104.218 307.478,104.218 307.478,104.612 308.1,104.612 308.1,105.47 308.723,105.47 308.723,104.874 309.345,104.874 309.345,104.654 309.967,104.654 309.967,105 310.59,105 310.59,104.625 311.212,104.625 311.212,104.61 311.835,104.61 311.835,104.206 312.458,104.206 312.458,104.426 313.08,104.426 313.08,104.954 313.703,104.954 313.703,104.802 314.325,104.802 314.325,105.537 314.947,105.537 314.947,104.918 315.57,104.918 315.57,105.375 316.193,105.375 316.193,104.12 316.815,104.12 316.815,104.517 317.438,104.517 317.438,104.217 318.06,104.217 318.06,104.809 318.682,104.809 318.682,105.263 319.305,105.263 319.305,104.954 319.928,104.954 319.928,104.285 320.55,104.285 320.55,104.993 321.172,104.993 321.172,104.838 321.795,104.838 321.795,104.621 322.417,104.621 322.417,104.531 323.04,104.531 323.04,104.766 323.663,104.766 323.663,104.492 324.285,104.492 324.285,104.959 324.908,104.959 324.908,104.783 325.53,104.783 325.53,105.006 326.152,105.006 326.152,104.835 326.775,104.835 326.775,104.16 327.397,104.16 327.397,104.738 328.02,104.738 328.02,104.723 328.642,104.723 328.642,104.739 329.265,104.739 329.265,104.728 329.888,104.728 329.888,104.525 330.51,104.525 330.51,104.862 331.133,104.862 331.133,104.461 331.755,104.461 331.755,104.826 332.378,104.826 332.378,104.579 333,104.579 333,101.312 333.622,101.312 333.622,99.7298 334.245,99.7298 334.245,98.1727 334.867,98.1727 334.867,97.8122 335.49,97.8122 335.49,96.9534 336.112,96.9534 336.112,96.6129 336.735,96.6129 336.735,95.6078 337.358,95.6078 337.358,94.1497 337.98,94.1497 337.98,92.9885 338.603,92.9885 338.603,92.1137 339.225,92.1137 339.225,89.8971 339.848,89.8971 339.848,88.7981 340.47,88.7981 340.47,88.6462 341.092,88.6462 341.092,89.1428 341.715,89.1428 341.715,89.0162 342.337,89.0162 342.337,88.804 342.96,88.804 342.96,88.9857 343.583,88.9857 343.583,89.1274 344.205,89.1274 344.205,89.1003 344.828,89.1003 344.828,87.9098 345.45,87.9098 345.45,87.4846 346.072,87.4846 346.072,87.9601 346.695,87.9601 346.695,87.9158 347.318,87.9158 347.318,88.1565 347.94,88.1565 347.94,87.5749 348.563,87.5749 348.563,87.7567 349.185,87.7567 349.185,87.3657 349.807,87.3657 349.807,87.3288 350.43,87.3288 350.43,87.423 351.053,87.423 351.053,87.7189 351.675,87.7189 351.675,88.2193 352.297,88.2193 352.297,87.8568 352.92,87.8568 352.92,88.0208 353.542,88.0208 353.542,87.7831 354.165,87.7831 354.165,87.2118 354.788,87.2118 354.788,87.5335 355.41,87.5335 355.41,87.7223 356.033,87.7223 356.033,87.6882 356.655,87.6882 356.655,86.9459 357.277,86.9459 357.277,87.6726 357.9,87.6726 357.9,87.4592 358.522,87.4592 358.522,87.1304 359.145,87.1304 359.145,87.606 359.767,87.606 359.767,87.4496 360.39,87.4496 360.39,88.0485 361.013,88.0485 361.013,87.6275 361.635,87.6275 361.635,87.6836 362.258,87.6836 362.258,87.3405 362.88,87.3405 362.88,87.5296 363.503,87.5296 363.503,88.0416 364.125,88.0416 364.125,87.5232 364.747,87.5232 364.747,87.2332 365.37,87.2332 365.37,87.7981 365.992,87.7981 365.992,87.4578 366.615,87.4578 366.615,87.3945 367.237,87.3945 367.237,87.3388 367.86,87.3388 367.86,86.8271 368.483,86.8271 368.483,86.8214 369.105,86.8214 369.105,87.3492 369.728,87.3492 369.728,87.7829 370.35,87.7829 370.35,87.3296 370.973,87.3296 370.973,87.91 371.595,87.91 371.595,87.0807 372.217,87.0807 372.217,87.1164 372.84,87.1164 372.84,87.3572 373.462,87.3572 373.462,87.3721 374.085,87.3721 374.085,87.5659 374.708,87.5659 374.708,87.899 375.33,87.899 375.33,86.6672 375.953,86.6672 375.953,86.96 376.575,86.96 376.575,87.2484 377.197,87.2484 377.197,87.1122 377.82,87.1122 377.82,87.5168 378.443,87.5168 378.443,86.5826 379.065,86.5826 379.065,87.418 379.688,87.418 379.688,87.8372 380.31,87.8372 380.31,87.8219 380.932,87.8219 380.932,88.2737 381.555,88.2737 381.555,87.8113 382.178,87.8113 382.178,87.8017 382.8,87.8017 382.8,87.6468 383.422,87.6468 383.422,87.3497 384.045,87.3497 384.045,87.2045 384.667,87.2045 384.667,87.0495 385.29,87.0495 385.29,87.3443 385.913,87.3443 385.913,87.1028 386.535,87.1028 386.535,87.1813 387.158,87.1813 387.158,87.4392 387.78,87.4392 387.78,87.8874 388.402,87.8874 388.402,88.4026 389.025,88.4026 389.025,88.1939 389.647,88.1939 389.647,88.5324 390.27,88.5324 390.27,87.5303 390.892,87.5303 390.892,87.3567 391.515,87.3567 391.515,87.1455 392.138,87.1455 392.138,87.0652 392.76,87.0652 392.76,87.1558 393.383,87.1558 393.383,86.6507 394.005,86.6507 394.005,87.388 394.628,87.388 394.628,87.6724 395.25,87.6724 395.25,84.0076 395.872,84.0076 395.872,81.5925 396.495,81.5925 396.495,80.5516 397.117,80.5516 397.117,81.0298 397.74,81.0298 397.74,81.1147 398.362,81.1147 398.362,79.1335 398.985,79.1335 398.985,78.3022 399.608,78.3022 399.608,76.8039 400.23,76.8039 400.23,75.5569 400.853,75.5569 400.853,74.5269 401.475,74.5269 401.475,73.0072 402.098,73.0072 402.098,72.7517 402.72,72.7517 402.72,72.5767 403.342,72.5767 403.342,72.5541 403.965,72.5541 403.965,72.1323 404.587,72.1323 404.587,71.9887 405.21,71.9887 405.21,71.0421 405.833,71.0421 405.833,71.2452 406.455,71.2452 406.455,71.1954 407.078,71.1954 407.078,71.386 407.7,71.386 407.7,71.3996 408.322,71.3996 408.322,71.8255 408.945,71.8255 408.945,71.7375 409.568,71.7375 409.568,71.4622 410.19,71.4622 410.19,70.9079 410.813,70.9079 410.813,71.0738 411.435,71.0738 411.435,70.7406 412.057,70.7406 412.057,70.8298 412.68,70.8298 412.68,70.8627 413.303,70.8627 413.303,70.3084 413.925,70.3084 413.925,70.8901 414.547,70.8901 414.547,70.9046 415.17,70.9046 415.17,70.5837 415.792,70.5837 415.792,71.5366 416.415,71.5366 416.415,70.7957 417.038,70.7957 417.038,70.6849 417.66,70.6849 417.66,70.6582 418.283,70.6582 418.283,70.9998 418.905,70.9998 418.905,70.6462 419.527,70.6462 419.527,70.5803 420.15,70.5803 420.15,70.6216 420.772,70.6216 420.772,70.8389 421.395,70.8389 421.395,71.3858 422.017,71.3858 422.017,71.246 422.64,71.246 422.64,70.7359 423.263,70.7359 423.263,70.9088 423.885,70.9088 423.885,70.6972 424.508,70.6972 424.508,70.5592 425.13,70.5592 425.13,71.2053 425.753,71.2053 425.753,70.8924 426.375,70.8924 426.375,70.986 426.997,70.986 426.997,70.8368 427.62,70.8368 427.62,71.1035 428.242,71.1035 428.242,71.0601 428.865,71.0601 428.865,70.7335 429.487,70.7335 429.487,70.4153 430.11,70.4153 430.11,71.1044 430.733,71.1044 430.733,71.6043 431.355,71.6043 431.355,70.5708 431.978,70.5708 431.978,71.0488 432.6,71.0488 432.6,71.1609 433.223,71.1609 433.223,70.8246 433.845,70.8246 433.845,71.1786 434.467,71.1786 434.467,71.0759 435.09,71.0759 435.09,71.4026 435.712,71.4026 435.712,70.5775 436.335,70.5775 436.335,71.2242 436.958,71.2242 436.958,71.3484 437.58,71.3484 437.58,70.5862 438.203,70.5862 438.203,69.8381 438.825,69.8381 438.825,70.0724 439.447,70.0724 439.447,70.127 440.07,70.127 440.07,70.8068 440.693,70.8068 440.693,70.8747 441.315,70.8747 441.315,70.6592 441.938,70.6592 441.938,70.4045 442.56,70.4045 442.56,70.1736 443.182,70.1736 443.182,71.1708 443.805,71.1708 443.805,71.7355 444.428,71.7355 444.428,71.0244 445.05,71.0244 445.05,70.9817 445.672,70.9817 445.672,70.5072 446.295,70.5072 446.295,71.2923 446.917,71.2923 446.917,70.8608 447.54,70.8608 447.54,70.7641 448.163,70.7641 448.163,70.19 448.785,70.19 448.785,70.6007 449.408,70.6007 449.408,71.1971 450.03,71.1971 450.03,71.3521 450.652,71.3521 450.652,71.0652 451.275,71.0652 451.275,70.8164 451.897,70.8164 451.897,70.3814 452.52,70.3814 452.52,70.7822 453.142,70.7822 453.142,70.6877 453.765,70.6877 453.765,71.2032 454.388,71.2032 454.388,70.6865 455.01,70.6865 455.01,70.7102 455.633,70.7102 455.633,71.1302 456.255,71.1302 456.255,70.9955 456.878,70.9955 456.878,70.6784 457.5,70.6784 457.5,63.9771 458.122,63.9771 458.122,60.4923 458.745,60.4923 458.745,59.0306 459.367,59.0306 459.367,57.4675 459.99,57.4675 459.99,56.1336 460.612,56.1336 460.612,55.0482 461.235,55.0482 461.235,53.8294 461.858,53.8294 461.858,51.936 462.48,51.936 462.48,49.6011 463.103,49.6011 463.103,46.7235 463.725,46.7235 463.725,44.416 464.348,44.416 464.348,43.4924 464.97,43.4924 464.97,42.0137 465.592,42.0137 465.592,41.5248 466.215,41.5248 466.215,41.6074 466.837,41.6074 466.837,42.1267 467.46,42.1267 467.46,40.4462 468.083,40.4462 468.083,40.7102 468.705,40.7102 468.705,40.9755 469.328,40.9755 469.328,40.6768 469.95,40.6768 469.95,41.2389 470.572,41.2389 470.572,42.1507 471.195,42.1507 471.195,41.6086 471.818,41.6086 471.818,40.5842 472.44,40.5842 472.44,40.6926 473.063,40.6926 473.063,40.3373 473.685,40.3373 473.685,39.9673 474.307,39.9673 474.307,40.0684 474.93,40.0684 474.93,40.265 475.553,40.265 475.553,40.0301 476.175,40.0301 476.175,40.1398 476.797,40.1398 476.797,40.2271 477.42,40.2271 477.42,40.2367 478.042,40.2367 478.042,39.7428 478.665,39.7428 478.665,40.2231 479.288,40.2231 479.288,40.4984 479.91,40.4984 479.91,40.2072 480.533,40.2072 480.533,39.9836 481.155,39.9836 481.155,39.9405 481.777,39.9405 481.777,39.9847 482.4,39.9847 482.4,39.7789 483.022,39.7789 483.022,39.8539 483.645,39.8539 483.645,40.2533 484.268,40.2533 484.268,39.7423 484.89,39.7423 484.89,40.3365 485.513,40.3365 485.513,40.4146 486.135,40.4146 486.135,39.7417 486.757,39.7417 486.757,40.4656 487.38,40.4656 487.38,39.6857 488.003,39.6857 488.003,40.0017 488.625,40.0017 488.625,40.1558 489.247,40.1558 489.247,40.2974 489.87,40.2974 489.87,40.7256 490.493,40.7256 490.493,40.0033 491.115,40.0033 491.115,39.7048 491.737,39.7048 491.737,39.9915 492.36,39.9915 492.36,40.2398 492.982,40.2398 492.982,40.1227 493.605,40.1227 493.605,40.3051 494.228,40.3051 494.228,40.3937 494.85,40.3937 494.85,40.3784 495.473,40.3784 495.473,40.7959 496.095,40.7959 496.095,40.0413 496.718,40.0413 496.718,40.4082 497.34,40.4082 497.34,40.2343 497.962,40.2343 497.962,40.0932 498.585,40.0932 498.585,40.0023 499.207,40.0023 499.207,40.0319 499.83,40.0319 499.83,39.8274 500.453,39.8274 500.453,39.4899 501.075,39.4899 501.075,40.3581 501.697,40.3581 501.697,39.6889 502.32,39.6889 502.32,40.1157 502.943,40.1157 502.943,40.9023 503.565,40.9023 503.565,40.1926 504.188,40.1926 504.188,39.9488 504.81,39.9488 504.81,39.9911 505.432,39.9911 505.432,40.1775 506.055,40.1775 506.055,39.9951 506.678,39.9951 506.678,40.3087 507.3,40.3087 507.3,40.103 507.922,40.103 507.922,40.1866 508.545,40.1866 508.545,40.2504 509.168,40.2504 509.168,40.2072 509.79,40.2072 509.79,39.9858 510.413,39.9858 510.413,40.4044 511.035,40.4044 511.035,40.2557 511.657,40.2557 511.657,40.1784 512.28,40.1784 512.28,40.3374 512.903,40.3374 512.903,39.9882 513.525,39.9882 513.525,40.032 514.147,40.032 514.147,40.2916 514.77,40.2916 514.77,40.0027 515.393,40.0027 515.393,40.0436 516.015,40.0436 516.015,40.459 516.638,40.459 516.638,40.0683 517.26,40.0683 517.26,39.8545 517.883,39.8545 517.883,40.0764 518.505,40.0764 518.505,39.9841 519.128,39.9841 519.128,40.2117 519.75,40.2117 519.75,66.5523 520.372,66.5523 520.372,79.9555 520.995,79.9555 520.995,87.6347 521.617,87.6347 521.617,92.4326 522.24,92.4326 522.24,95.9701 522.862,95.9701 522.862,101.444 523.485,101.444 523.485,109.72 524.107,109.72 524.107,119.793 524.73,119.793 524.73,131.811 525.353,131.811 525.353,143.057 525.975,143.057 525.975,152.134 526.597,152.134 526.597,158.295 527.22,158.295 527.22,161.976 527.843,161.976 527.843,163.607 528.465,163.607 528.465,164.2 529.088,164.2 529.088,164.307 529.71,164.307 529.71,165.015 530.332,165.015 530.332,166.083 530.955,166.083 530.955,167.793 531.578,167.793 531.578,168.406 532.2,168.406 532.2,169.027 532.823,169.027 532.823,171.186 533.445,171.186 533.445,173.217 534.068,173.217 534.068,174.555 534.69,174.555 534.69,174.829 535.313,174.829 535.313,175.724 535.935,175.724 535.935,175.642 536.557,175.642 536.557,176.276 537.18,176.276 537.18,176.287 537.802,176.287 537.802,176.364 538.425,176.364 538.425,175.927 539.047,175.927 539.047,175.912 539.67,175.912 539.67,176.763 540.293,176.763 540.293,176.867 540.915,176.867 540.915,177.388 541.537,177.388 541.537,177.293 542.16,177.293 542.16,177.35 542.782,177.35 542.782,176.975 543.405,176.975 543.405,177.508 544.028,177.508 544.028,177.584 544.65,177.584 544.65,177.694 545.272,177.694 545.272,177.762 545.895,177.762 545.895,177.766 546.518,177.766 546.518,177.833 547.14,177.833 547.14,177.854 547.763,177.854 547.763,177.758 548.385,177.758 548.385,177.386 549.008,177.386 549.008,178 549.63,178 549.63,177.451 550.253,177.451 550.253,178 550.875,178 550.875,177.349 551.497,177.349 551.497,178 552.12,178 552.12,178 552.742,178 552.742,178 553.365,178 553.365,177.92 553.987,177.92 553.987,178 554.61,178 554.61,178 555.232,178 555.232,178 555.855,178 555.855,178 556.478,178 556.478,178 557.1,178 557.1,177.919 557.722,177.919 557.722,177.996 558.345,177.996 558.345,178 558.968,178 558.968,178 559.59,178 559.59,178 560.213,178 560.213,177.895 560.835,177.895 560.835,178 561.457,178 561.457,178 562.08,178 562.08,178 562.703,178 562.703,178 563.325,178 563.325,178 563.948,178 563.948,178 564.57,178 564.57,178 565.193,178 565.193,178 565.815,178 565.815,178 566.438,178 566.438,178 567.06,178 567.06,178 567.682,178 567.682,178 568.305,178 568.305,178 568.927,178 568.927,178 569.55,178 569.55,178 570.172,178 570.172,178 570.795,178 570.795,178 571.418,178 571.418,178 572.04,178 572.04,178 572.662,178 572.662,178 573.285,178 573.285,178 573.907,178 573.907,178 574.53,178 574.53,178 575.153,178 575.153,178 575.775,178 575.775,178 576.397,178 576.397,178 577.02,178 577.02,178 577.643,178 577.643,178 578.265,178 578.265,178 578.888,178 578.888,178 579.51,178 579.51,178 580.133,178 580.133,178 580.755,178 580.755,178 581.378,178 581.378,178 582,178 582,178 " />
</g>

<g fill="#ffffff" fill-opacity="1" stroke="none" transform="matrix(7.5e-05,0,0,7.5e-05,0,0)"
font-family="MS Shell Dlg 2" font-size="8.25" font-weight="400" font-style="normal" 
>
<path vector-effect="none" fill-rule="evenodd" d="M950000,1.54e+06 L950000,1.7e+06 L1.53e+06,1.7e+06 L1.53e+06,1.54e+06 L950000,1.54e+06"/>
</g>

<g fill="#1171be" fill-opacity="1" stroke="#1171be" stroke-opacity="1" stroke-width="1.33333" stroke-linecap="butt" stroke-linejoin="round" transform="matrix(0.75,0,0,0.75,0,0)"
font-family="MS Shell Dlg 2" font-size="8.25" font-weight="400" font-style="normal" 
>
<polyline fill="none" vector-effect="none" points="99,162 139,162 " />
</g>

<g fill="#212121" fill-opacity="1" stroke="none" transform="matrix(0.75,0,0,0.75,106.5,124.125)"
font-family="MS Shell Dlg 2" font-size="8.25" font-weight="400" font-style="normal" 
>
<path vector-effect="none" fill-rule="evenodd" d="M4.0625,0 L4.0625,-0.765625 C3.65625,-0.171875 3.10417,0.125 2.40625,0.125 C2.10417,0.125 1.82031,0.0651042 1.55469,-0.0546875 C1.28906,-0.174479 1.09115,-0.322917 0.960938,-0.5 C0.830729,-0.677083 0.739583,-0.895833 0.6875,-1.15625 C0.65625,-1.32292 0.640625,-1.59375 0.640625,-1.96875 L0.640625,-5.1875 L1.51563,-5.1875 L1.51563,-2.3125 C1.51563,-1.85417 1.53646,-1.54167 1.57813,-1.375 C1.63021,-1.14583 1.74479,-0.966146 1.92188,-0.835938 C2.09896,-0.705729 2.32292,-0.640625 2.59375,-0.640625 C2.85417,-0.640625 3.09896,-0.708333 3.32813,-0.84375 C3.55729,-0.979167 3.72135,-1.16406 3.82031,-1.39844 C3.91927,-1.63281 3.96875,-1.96875 3.96875,-2.40625 L3.96875,-5.1875 L4.84375,-5.1875 L4.84375,0 L4.0625,0"/>
</g>

<g fill="none" stroke="#212121" stroke-opacity="1" stroke-width="0.666667" stroke-linecap="butt" stroke-linejoin="miter" stroke-miterlimit="5" transform="matrix(0.75,0,0,0.75,0,0)"
font-family="MS Shell Dlg 2" font-size="8.25" font-weight="400" font-style="normal" 
>
<path vector-effect="none" fill-rule="evenodd" d="M95,170 L95,154 L153,154 L153,170 L95,170"/>
</g>
</g>
</svg>
