<?xml version="1.0" encoding="UTF-8" standalone="no"?>
<svg width="170.039mm" height="56.0917mm"
 viewBox="0 0 482 159"
 xmlns="http://www.w3.org/2000/svg" xmlns:xlink="http://www.w3.org/1999/xlink"  version="1.2" baseProfile="tiny">
<title>Qt SVG Document</title>
<desc>MATLAB, The MathWorks, Inc. Version 25.2.0.3123386 R2025b Update 3</desc>
<defs>
</defs>
<g fill="none" stroke="black" stroke-width="1" fill-rule="evenodd" stroke-linecap="square" stroke-linejoin="bevel" >

<g fill="#ffffff" fill-opacity="1" stroke="none" transform="matrix(0.75,0,0,0.75,0,0)"
font-family="MS Shell Dlg 2" font-size="8.25" font-weight="400" font-style="normal" 
>
<path vector-effect="none" fill-rule="evenodd" d="M0,0 L644,0 L644,213 L0,213 L0,0"/>
</g>

<g fill="#ffffff" fill-opacity="1" stroke="none" transform="matrix(7.5e-05,0,0,7.5e-05,0,0)"
font-family="MS Shell Dlg 2" font-size="8.25" font-weight="400" font-style="normal" 
>
<path vector-effect="none" fill-rule="evenodd" d="M840000,360000 L840000,1.78e+06 L5.82e+06,1.78e+06 L5.82e+06,360000 L840000,360000"/>
</g>

<g fill="#212121" fill-opacity="0.14902" stroke="#212121" stroke-opacity="0.14902" stroke-width="0.666667" stroke-linecap="butt" stroke-linejoin="round" transform="matrix(0.75,0,0,0.75,0,0)"
font-family="MS Shell Dlg 2" font-size="8.25" font-weight="400" font-style="normal" 
>
<polyline fill="none" vector-effect="none" points="84,36 84,178 " />
<polyline fill="none" vector-effect="none" points="133.8,36 133.8,178 " />
<polyline fill="none" vector-effect="none" points="183.6,36 183.6,178 " />
<polyline fill="none" vector-effect="none" points="233.4,36 233.4,178 " />
<polyline fill="none" vector-effect="none" points="283.2,36 283.2,178 " />
<polyline fill="none" vector-effect="none" points="333,36 333,178 " />
<polyline fill="none" vector-effect="none" points="382.8,36 382.8,178 " />
<polyline fill="none" vector-effect="none" points="432.6,36 432.6,178 " />
<polyline fill="none" vector-effect="none" points="482.4,36 482.4,178 " />
<polyline fill="none" vector-effect="none" points="532.2,36 532.2,178 " />
<polyline fill="none" vector-effect="none" points="582,36 582,178 " />
</g>

<g fill="#212121" fill-opacity="0.14902" stroke="#212121" stroke-opacity="0.14902" stroke-dasharray="1,3" stroke-dashoffset="0" stroke-width="0.666667" stroke-linecap="butt" stroke-linejoin="round" transform="matrix(0.75,0,0,0.75,0,0)"
font-family="MS Shell Dlg 2" font-size="8.25" font-weight="400" font-style="normal" 
>
<polyline fill="none" vector-effect="none" points="96.45,36 96.45,178 " />
<polyline fill="none" vector-effect="none" points="108.9,36 108.9,178 " />
<polyline fill="none" vector-effect="none" points="121.35,36 121.35,178 " />
<polyline fill="none" vector-effect="none" points="146.25,36 146.25,178 " />
<polyline fill="none" vector-effect="none" points="158.7,36 158.7,178 " />
<polyline fill="none" vector-effect="none" points="171.15,36 171.15,178 " />
<polyline fill="none" vector-effect="none" points="196.05,36 196.05,178 " />
<polyline fill="none" vector-effect="none" points="208.5,36 208.5,178 " />
<polyline fill="none" vector-effect="none" points="220.95,36 220.95,178 " />
<polyline fill="none" vector-effect="none" points="245.85,36 245.85,178 " />
<polyline fill="none" vector-effect="none" points="258.3,36 258.3,178 " />
<polyline fill="none" vector-effect="none" points="270.75,36 270.75,178 " />
<polyline fill="none" vector-effect="none" points="295.65,36 295.65,178 " />
<polyline fill="none" vector-effect="none" points="308.1,36 308.1,178 " />
<polyline fill="none" vector-effect="none" points="320.55,36 320.55,178 " />
<polyline fill="none" vector-effect="none" points="345.45,36 345.45,178 " />
<polyline fill="none" vector-effect="none" points="357.9,36 357.9,178 " />
<polyline fill="none" vector-effect="none" points="370.35,36 370.35,178 " />
<polyline fill="none" vector-effect="none" points="395.25,36 395.25,178 " />
<polyline fill="none" vector-effect="none" points="407.7,36 407.7,178 " />
<polyline fill="none" vector-effect="none" points="420.15,36 420.15,178 " />
<polyline fill="none" vector-effect="none" points="445.05,36 445.05,178 " />
<polyline fill="none" vector-effect="none" points="457.5,36 457.5,178 " />
<polyline fill="none" vector-effect="none" points="469.95,36 469.95,178 " />
<polyline fill="none" vector-effect="none" points="494.85,36 494.85,178 " />
<polyline fill="none" vector-effect="none" points="507.3,36 507.3,178 " />
<polyline fill="none" vector-effect="none" points="519.75,36 519.75,178 " />
<polyline fill="none" vector-effect="none" points="544.65,36 544.65,178 " />
<polyline fill="none" vector-effect="none" points="557.1,36 557.1,178 " />
<polyline fill="none" vector-effect="none" points="569.55,36 569.55,178 " />
</g>

<g fill="#212121" fill-opacity="0.14902" stroke="#212121" stroke-opacity="0.14902" stroke-width="0.666667" stroke-linecap="butt" stroke-linejoin="round" transform="matrix(0.75,0,0,0.75,0,0)"
font-family="MS Shell Dlg 2" font-size="8.25" font-weight="400" font-style="normal" 
>
<polyline fill="none" vector-effect="none" points="84,178 582,178 " />
<polyline fill="none" vector-effect="none" points="84,142.5 582,142.5 " />
<polyline fill="none" vector-effect="none" points="84,107 582,107 " />
<polyline fill="none" vector-effect="none" points="84,71.5 582,71.5 " />
<polyline fill="none" vector-effect="none" points="84,36 582,36 " />
</g>

<g fill="#212121" fill-opacity="0.14902" stroke="#212121" stroke-opacity="0.14902" stroke-dasharray="1,3" stroke-dashoffset="0" stroke-width="0.666667" stroke-linecap="butt" stroke-linejoin="round" transform="matrix(0.75,0,0,0.75,0,0)"
font-family="MS Shell Dlg 2" font-size="8.25" font-weight="400" font-style="normal" 
>
<polyline fill="none" vector-effect="none" points="84,170.9 582,170.9 " />
<polyline fill="none" vector-effect="none" points="84,163.8 582,163.8 " />
<polyline fill="none" vector-effect="none" points="84,156.7 582,156.7 " />
<polyline fill="none" vector-effect="none" points="84,149.6 582,149.6 " />
<polyline fill="none" vector-effect="none" points="84,135.4 582,135.4 " />
<polyline fill="none" vector-effect="none" points="84,128.3 582,128.3 " />
<polyline fill="none" vector-effect="none" points="84,121.2 582,121.2 " />
<polyline fill="none" vector-effect="none" points="84,114.1 582,114.1 " />
<polyline fill="none" vector-effect="none" points="84,99.9 582,99.9 " />
<polyline fill="none" vector-effect="none" points="84,92.8 582,92.8 " />
<polyline fill="none" vector-effect="none" points="84,85.7 582,85.7 " />
<polyline fill="none" vector-effect="none" points="84,78.6 582,78.6 " />
<polyline fill="none" vector-effect="none" points="84,64.4 582,64.4 " />
<polyline fill="none" vector-effect="none" points="84,57.3 582,57.3 " />
<polyline fill="none" vector-effect="none" points="84,50.2 582,50.2 " />
<polyline fill="none" vector-effect="none" points="84,43.1 582,43.1 " />
</g>

<g fill="#212121" fill-opacity="1" stroke="none" transform="matrix(0.75,0,0,0.75,241.473,155.616)"
font-family="MS Shell Dlg 2" font-size="8.25" font-weight="400" font-style="normal" 
>
<path vector-effect="none" fill-rule="evenodd" d="M1.32813,-1.5625 L1.32813,-5.14063 L0.25,-5.14063 L0.25,-5.48438 C0.8125,-5.48438 1.22656,-5.75 1.49219,-6.28125 C1.75781,-6.8125 1.89063,-7.38542 1.89063,-8 L2.26563,-8 L2.26563,-5.60938 L4.10938,-5.60938 L4.10938,-5.14063 L2.26563,-5.14063 L2.26563,-1.59375 C2.26563,-1.22917 2.32813,-0.911458 2.45313,-0.640625 C2.57813,-0.369792 2.79688,-0.234375 3.10938,-0.234375 C3.40104,-0.234375 3.61198,-0.377604 3.74219,-0.664063 C3.8724,-0.950521 3.9375,-1.26042 3.9375,-1.59375 L3.9375,-2.35938 L4.3125,-2.35938 L4.3125,-1.5625 C4.3125,-1.29167 4.26302,-1.02344 4.16406,-0.757813 C4.0651,-0.492188 3.91927,-0.276042 3.72656,-0.109375 C3.53385,0.0572917 3.29688,0.140625 3.01563,0.140625 C2.49479,0.140625 2.08333,-0.0130208 1.78125,-0.320313 C1.47917,-0.627604 1.32813,-1.04167 1.32813,-1.5625 "/>
</g>

<g fill="#212121" fill-opacity="1" stroke="none" transform="matrix(0.75,0,0,0.75,248.623,155.616)"
font-family="MS Shell Dlg 2" font-size="8.25" font-weight="400" font-style="normal" 
>
<path vector-effect="none" fill-rule="evenodd" d="M1.53125,3.25 L1.53125,-9.75 L3.3125,-9.75 L3.3125,-9.23438 L2.0625,-9.23438 L2.0625,2.73438 L3.3125,2.73438 L3.3125,3.25 L1.53125,3.25"/>
</g>

<g fill="#212121" fill-opacity="1" stroke="none" transform="matrix(0.75,0,0,0.75,251.373,155.616)"
font-family="MS Shell Dlg 2" font-size="8.25" font-weight="400" font-style="normal" 
>
<path vector-effect="none" fill-rule="evenodd" d="M0.4375,0.03125 L0.4375,-2.09375 C0.4375,-2.15625 0.473958,-2.1875 0.546875,-2.1875 L0.703125,-2.1875 C0.755208,-2.1875 0.791667,-2.15625 0.8125,-2.09375 C1.05208,-0.833333 1.63542,-0.203125 2.5625,-0.203125 C2.96875,-0.203125 3.3099,-0.296875 3.58594,-0.484375 C3.86198,-0.671875 4,-0.958333 4,-1.34375 C4,-1.625 3.89323,-1.86458 3.67969,-2.0625 C3.46615,-2.26042 3.20833,-2.39583 2.90625,-2.46875 L2.04688,-2.64063 C1.75521,-2.70313 1.48958,-2.79948 1.25,-2.92969 C1.01042,-3.0599 0.815104,-3.23438 0.664063,-3.45313 C0.513021,-3.67188 0.4375,-3.92188 0.4375,-4.20313 C0.4375,-4.58854 0.536458,-4.90104 0.734375,-5.14063 C0.932292,-5.38021 1.19271,-5.55469 1.51563,-5.66406 C1.83854,-5.77344 2.1875,-5.82813 2.5625,-5.82813 C3,-5.82813 3.38542,-5.71354 3.71875,-5.48438 L4.09375,-5.79688 C4.09375,-5.81771 4.11458,-5.82813 4.15625,-5.82813 L4.25,-5.82813 C4.28125,-5.82813 4.30729,-5.8151 4.32813,-5.78906 C4.34896,-5.76302 4.35938,-5.73958 4.35938,-5.71875 L4.35938,-4.03125 C4.35938,-3.94792 4.32292,-3.90625 4.25,-3.90625 L4.09375,-3.90625 C4.02083,-3.90625 3.98438,-3.94792 3.98438,-4.03125 C3.98438,-4.47917 3.85677,-4.84115 3.60156,-5.11719 C3.34635,-5.39323 2.99479,-5.53125 2.54688,-5.53125 C2.16146,-5.53125 1.82552,-5.45833 1.53906,-5.3125 C1.2526,-5.16667 1.10938,-4.92188 1.10938,-4.57813 C1.10938,-4.32813 1.21094,-4.1276 1.41406,-3.97656 C1.61719,-3.82552 1.85938,-3.71354 2.14063,-3.64063 L3.01563,-3.48438 C3.30729,-3.41146 3.58333,-3.29427 3.84375,-3.13281 C4.10417,-2.97135 4.30729,-2.76823 4.45313,-2.52344 C4.59896,-2.27865 4.67188,-2 4.67188,-1.6875 C4.67188,-1.375 4.61979,-1.10417 4.51563,-0.875 C4.41146,-0.645833 4.26302,-0.453125 4.07031,-0.296875 C3.8776,-0.140625 3.64844,-0.0286458 3.38281,0.0390625 C3.11719,0.106771 2.84375,0.140625 2.5625,0.140625 C2.02083,0.140625 1.55729,-0.0416667 1.17188,-0.40625 L0.6875,0.109375 C0.6875,0.130208 0.666667,0.140625 0.625,0.140625 L0.546875,0.140625 C0.473958,0.140625 0.4375,0.104167 0.4375,0.03125 "/>
</g>

<g fill="#212121" fill-opacity="1" stroke="none" transform="matrix(0.75,0,0,0.75,255.278,155.616)"
font-family="MS Shell Dlg 2" font-size="8.25" font-weight="400" font-style="normal" 
>
<path vector-effect="none" fill-rule="evenodd" d="M0.28125,3.25 L0.28125,2.73438 L1.54688,2.73438 L1.54688,-9.23438 L0.28125,-9.23438 L0.28125,-9.75 L2.0625,-9.75 L2.0625,3.25 L0.28125,3.25"/>
</g>

<g fill="#212121" fill-opacity="1" stroke="#212121" stroke-opacity="1" stroke-width="0.666667" stroke-linecap="square" stroke-linejoin="round" transform="matrix(0.75,0,0,0.75,0,0)"
font-family="MS Shell Dlg 2" font-size="8.25" font-weight="400" font-style="normal" 
>
<polyline fill="none" vector-effect="none" points="84,178 582,178 " />
<polyline fill="none" vector-effect="none" points="84,36 582,36 " />
<polyline fill="none" vector-effect="none" points="84,178 84,173.02 " />
<polyline fill="none" vector-effect="none" points="84,40.98 84,36 " />
<polyline fill="none" vector-effect="none" points="133.8,178 133.8,173.02 " />
<polyline fill="none" vector-effect="none" points="133.8,40.98 133.8,36 " />
<polyline fill="none" vector-effect="none" points="183.6,178 183.6,173.02 " />
<polyline fill="none" vector-effect="none" points="183.6,40.98 183.6,36 " />
<polyline fill="none" vector-effect="none" points="233.4,178 233.4,173.02 " />
<polyline fill="none" vector-effect="none" points="233.4,40.98 233.4,36 " />
<polyline fill="none" vector-effect="none" points="283.2,178 283.2,173.02 " />
<polyline fill="none" vector-effect="none" points="283.2,40.98 283.2,36 " />
<polyline fill="none" vector-effect="none" points="333,178 333,173.02 " />
<polyline fill="none" vector-effect="none" points="333,40.98 333,36 " />
<polyline fill="none" vector-effect="none" points="382.8,178 382.8,173.02 " />
<polyline fill="none" vector-effect="none" points="382.8,40.98 382.8,36 " />
<polyline fill="none" vector-effect="none" points="432.6,178 432.6,173.02 " />
<polyline fill="none" vector-effect="none" points="432.6,40.98 432.6,36 " />
<polyline fill="none" vector-effect="none" points="482.4,178 482.4,173.02 " />
<polyline fill="none" vector-effect="none" points="482.4,40.98 482.4,36 " />
<polyline fill="none" vector-effect="none" points="532.2,178 532.2,173.02 " />
<polyline fill="none" vector-effect="none" points="532.2,40.98 532.2,36 " />
<polyline fill="none" vector-effect="none" points="582,178 582,173.02 " />
<polyline fill="none" vector-effect="none" points="582,40.98 582,36 " />
</g>

<g fill="#212121" fill-opacity="1" stroke="none" transform="matrix(0.75,0,0,0.75,60.375,144.55)"
font-family="MS Shell Dlg 2" font-size="8.25" font-weight="400" font-style="normal" 
>
<path vector-effect="none" fill-rule="evenodd" d="M0.5,-4.23438 C0.5,-5.25521 0.604167,-6.07552 0.8125,-6.69531 C1.02083,-7.3151 1.33073,-7.79167 1.74219,-8.125 C2.15365,-8.45833 2.67188,-8.625 3.29688,-8.625 C3.75521,-8.625 4.15885,-8.53125 4.50781,-8.34375 C4.85677,-8.15625 5.14583,-7.88802 5.375,-7.53906 C5.60417,-7.1901 5.78125,-6.76563 5.90625,-6.26563 C6.03125,-5.76563 6.09375,-5.08854 6.09375,-4.23438 C6.09375,-3.22396 5.99219,-2.41146 5.78906,-1.79688 C5.58594,-1.18229 5.27865,-0.705729 4.86719,-0.367188 C4.45573,-0.0286458 3.93229,0.140625 3.29688,0.140625 C2.47396,0.140625 1.82292,-0.15625 1.34375,-0.75 C0.78125,-1.45833 0.5,-2.61979 0.5,-4.23438 M1.57813,-4.23438 C1.57813,-2.82813 1.74479,-1.89063 2.07813,-1.42188 C2.41146,-0.953125 2.81771,-0.71875 3.29688,-0.71875 C3.78646,-0.71875 4.19531,-0.953125 4.52344,-1.42188 C4.85156,-1.89063 5.01563,-2.82813 5.01563,-4.23438 C5.01563,-5.65104 4.85156,-6.59115 4.52344,-7.05469 C4.19531,-7.51823 3.78125,-7.75 3.28125,-7.75 C2.80208,-7.75 2.41667,-7.54688 2.125,-7.14063 C1.76042,-6.61979 1.57813,-5.65104 1.57813,-4.23438 "/>
</g>

<g fill="#212121" fill-opacity="1" stroke="none" transform="matrix(0.75,0,0,0.75,97.725,144.55)"
font-family="MS Shell Dlg 2" font-size="8.25" font-weight="400" font-style="normal" 
>
<path vector-effect="none" fill-rule="evenodd" d="M6.04688,-1.01563 L6.04688,0 L0.359375,0 C0.359375,-0.25 0.401042,-0.494792 0.484375,-0.734375 C0.630208,-1.11979 0.861979,-1.5 1.17969,-1.875 C1.4974,-2.25 1.95833,-2.68229 2.5625,-3.17188 C3.5,-3.94271 4.13281,-4.55208 4.46094,-5 C4.78906,-5.44792 4.95313,-5.86979 4.95313,-6.26563 C4.95313,-6.68229 4.80208,-7.03385 4.5,-7.32031 C4.19792,-7.60677 3.80729,-7.75 3.32813,-7.75 C2.81771,-7.75 2.41146,-7.59896 2.10938,-7.29688 C1.80729,-6.99479 1.65104,-6.57292 1.64063,-6.03125 L0.5625,-6.14063 C0.635417,-6.95313 0.914063,-7.57031 1.39844,-7.99219 C1.88281,-8.41406 2.53646,-8.625 3.35938,-8.625 C4.18229,-8.625 4.83333,-8.39583 5.3125,-7.9375 C5.79167,-7.47917 6.03125,-6.91146 6.03125,-6.23438 C6.03125,-5.89063 5.96094,-5.55469 5.82031,-5.22656 C5.67969,-4.89844 5.44531,-4.54948 5.11719,-4.17969 C4.78906,-3.8099 4.25,-3.30729 3.5,-2.67188 C2.86458,-2.14063 2.45573,-1.77865 2.27344,-1.58594 C2.09115,-1.39323 1.94271,-1.20313 1.82813,-1.01563 L6.04688,-1.01563"/>
</g>

<g fill="#212121" fill-opacity="1" stroke="none" transform="matrix(0.75,0,0,0.75,135.075,144.55)"
font-family="MS Shell Dlg 2" font-size="8.25" font-weight="400" font-style="normal" 
>
<path vector-effect="none" fill-rule="evenodd" d="M3.875,0 L3.875,-2.0625 L0.15625,-2.0625 L0.15625,-3.03125 L4.07813,-8.59375 L4.9375,-8.59375 L4.9375,-3.03125 L6.09375,-3.03125 L6.09375,-2.0625 L4.9375,-2.0625 L4.9375,0 L3.875,0 M3.875,-3.03125 L3.875,-6.89063 L1.1875,-3.03125 L3.875,-3.03125"/>
</g>

<g fill="#212121" fill-opacity="1" stroke="none" transform="matrix(0.75,0,0,0.75,172.425,144.55)"
font-family="MS Shell Dlg 2" font-size="8.25" font-weight="400" font-style="normal" 
>
<path vector-effect="none" fill-rule="evenodd" d="M5.96875,-6.48438 L4.92188,-6.40625 C4.82813,-6.82292 4.69792,-7.125 4.53125,-7.3125 C4.23958,-7.61458 3.88542,-7.76563 3.46875,-7.76563 C3.13542,-7.76563 2.83854,-7.67188 2.57813,-7.48438 C2.25521,-7.23438 1.9974,-6.8776 1.80469,-6.41406 C1.61198,-5.95052 1.51042,-5.29167 1.5,-4.4375 C1.75,-4.82292 2.0599,-5.10938 2.42969,-5.29688 C2.79948,-5.48438 3.1875,-5.57813 3.59375,-5.57813 C4.29167,-5.57813 4.88802,-5.31771 5.38281,-4.79688 C5.8776,-4.27604 6.125,-3.60938 6.125,-2.79688 C6.125,-2.25521 6.00781,-1.7526 5.77344,-1.28906 C5.53906,-0.825521 5.21875,-0.471354 4.8125,-0.226563 C4.40625,0.0182292 3.94792,0.140625 3.4375,0.140625 C2.55208,0.140625 1.83333,-0.182292 1.28125,-0.828125 C0.729167,-1.47396 0.453125,-2.53646 0.453125,-4.01563 C0.453125,-5.68229 0.760417,-6.89063 1.375,-7.64063 C1.90625,-8.29688 2.625,-8.625 3.53125,-8.625 C4.20833,-8.625 4.76302,-8.4349 5.19531,-8.05469 C5.6276,-7.67448 5.88542,-7.15104 5.96875,-6.48438 M1.67188,-2.78125 C1.67188,-2.41667 1.7474,-2.07031 1.89844,-1.74219 C2.04948,-1.41406 2.26302,-1.16146 2.53906,-0.984375 C2.8151,-0.807292 3.10938,-0.71875 3.42188,-0.71875 C3.85938,-0.71875 4.23958,-0.898438 4.5625,-1.25781 C4.88542,-1.61719 5.04688,-2.10417 5.04688,-2.71875 C5.04688,-3.3125 4.88802,-3.78125 4.57031,-4.125 C4.2526,-4.46875 3.85417,-4.64063 3.375,-4.64063 C2.89583,-4.64063 2.49219,-4.46875 2.16406,-4.125 C1.83594,-3.78125 1.67188,-3.33333 1.67188,-2.78125 "/>
</g>

<g fill="#212121" fill-opacity="1" stroke="none" transform="matrix(0.75,0,0,0.75,209.775,144.55)"
font-family="MS Shell Dlg 2" font-size="8.25" font-weight="400" font-style="normal" 
>
<path vector-effect="none" fill-rule="evenodd" d="M2.125,-4.65625 C1.6875,-4.82292 1.36198,-5.05469 1.14844,-5.35156 C0.934896,-5.64844 0.828125,-6 0.828125,-6.40625 C0.828125,-7.03125 1.05469,-7.55729 1.50781,-7.98438 C1.96094,-8.41146 2.55729,-8.625 3.29688,-8.625 C4.04688,-8.625 4.65104,-8.40625 5.10938,-7.96875 C5.56771,-7.53125 5.79688,-7 5.79688,-6.375 C5.79688,-5.97917 5.69271,-5.63542 5.48438,-5.34375 C5.27604,-5.05208 4.95833,-4.82292 4.53125,-4.65625 C5.0625,-4.48958 5.46354,-4.21354 5.73438,-3.82813 C6.00521,-3.44271 6.14063,-2.98438 6.14063,-2.45313 C6.14063,-1.72396 5.88281,-1.10938 5.36719,-0.609375 C4.85156,-0.109375 4.16667,0.140625 3.3125,0.140625 C2.46875,0.140625 1.78646,-0.109375 1.26563,-0.609375 C0.744792,-1.10938 0.484375,-1.73438 0.484375,-2.48438 C0.484375,-3.04688 0.627604,-3.51563 0.914063,-3.89063 C1.20052,-4.26563 1.60417,-4.52083 2.125,-4.65625 M1.90625,-6.45313 C1.90625,-6.04688 2.03906,-5.71354 2.30469,-5.45313 C2.57031,-5.19271 2.91146,-5.0625 3.32813,-5.0625 C3.73438,-5.0625 4.06771,-5.1901 4.32813,-5.44531 C4.58854,-5.70052 4.71875,-6.01563 4.71875,-6.39063 C4.71875,-6.77604 4.58333,-7.10156 4.3125,-7.36719 C4.04167,-7.63281 3.70833,-7.76563 3.3125,-7.76563 C2.90625,-7.76563 2.57031,-7.63542 2.30469,-7.375 C2.03906,-7.11458 1.90625,-6.80729 1.90625,-6.45313 M1.57813,-2.48438 C1.57813,-2.18229 1.64844,-1.89063 1.78906,-1.60938 C1.92969,-1.32813 2.14063,-1.10938 2.42188,-0.953125 C2.70313,-0.796875 3.00521,-0.71875 3.32813,-0.71875 C3.82813,-0.71875 4.24219,-0.880208 4.57031,-1.20313 C4.89844,-1.52604 5.0625,-1.9375 5.0625,-2.4375 C5.0625,-2.94792 4.89583,-3.36979 4.5625,-3.70313 C4.22917,-4.03646 3.80729,-4.20313 3.29688,-4.20313 C2.79688,-4.20313 2.38542,-4.03906 2.0625,-3.71094 C1.73958,-3.38281 1.57813,-2.97396 1.57813,-2.48438 "/>
</g>

<g fill="#212121" fill-opacity="1" stroke="none" transform="matrix(0.75,0,0,0.75,244.5,144.55)"
font-family="MS Shell Dlg 2" font-size="8.25" font-weight="400" font-style="normal" 
>
<path vector-effect="none" fill-rule="evenodd" d="M4.46875,0 L3.42188,0 L3.42188,-6.71875 C3.16146,-6.47917 2.82552,-6.23698 2.41406,-5.99219 C2.0026,-5.7474 1.63542,-5.56771 1.3125,-5.45313 L1.3125,-6.46875 C1.89583,-6.75 2.40885,-7.08594 2.85156,-7.47656 C3.29427,-7.86719 3.60938,-8.25 3.79688,-8.625 L4.46875,-8.625 L4.46875,0 M7.5,-4.23438 C7.5,-5.25521 7.60417,-6.07552 7.8125,-6.69531 C8.02083,-7.3151 8.33073,-7.79167 8.74219,-8.125 C9.15365,-8.45833 9.67188,-8.625 10.2969,-8.625 C10.7552,-8.625 11.1589,-8.53125 11.5078,-8.34375 C11.8568,-8.15625 12.1458,-7.88802 12.375,-7.53906 C12.6042,-7.1901 12.7813,-6.76563 12.9063,-6.26563 C13.0313,-5.76563 13.0938,-5.08854 13.0938,-4.23438 C13.0938,-3.22396 12.9922,-2.41146 12.7891,-1.79688 C12.5859,-1.18229 12.2786,-0.705729 11.8672,-0.367188 C11.4557,-0.0286458 10.9323,0.140625 10.2969,0.140625 C9.47396,0.140625 8.82292,-0.15625 8.34375,-0.75 C7.78125,-1.45833 7.5,-2.61979 7.5,-4.23438 M8.57813,-4.23438 C8.57813,-2.82813 8.74479,-1.89063 9.07813,-1.42188 C9.41146,-0.953125 9.81771,-0.71875 10.2969,-0.71875 C10.7865,-0.71875 11.1953,-0.953125 11.5234,-1.42188 C11.8516,-1.89063 12.0156,-2.82813 12.0156,-4.23438 C12.0156,-5.65104 11.8516,-6.59115 11.5234,-7.05469 C11.1953,-7.51823 10.7813,-7.75 10.2813,-7.75 C9.80208,-7.75 9.41667,-7.54688 9.125,-7.14063 C8.76042,-6.61979 8.57813,-5.65104 8.57813,-4.23438 "/>
</g>

<g fill="#212121" fill-opacity="1" stroke="none" transform="matrix(0.75,0,0,0.75,281.85,144.55)"
font-family="MS Shell Dlg 2" font-size="8.25" font-weight="400" font-style="normal" 
>
<path vector-effect="none" fill-rule="evenodd" d="M4.46875,0 L3.42188,0 L3.42188,-6.71875 C3.16146,-6.47917 2.82552,-6.23698 2.41406,-5.99219 C2.0026,-5.7474 1.63542,-5.56771 1.3125,-5.45313 L1.3125,-6.46875 C1.89583,-6.75 2.40885,-7.08594 2.85156,-7.47656 C3.29427,-7.86719 3.60938,-8.25 3.79688,-8.625 L4.46875,-8.625 L4.46875,0 M13.0469,-1.01563 L13.0469,0 L7.35938,0 C7.35938,-0.25 7.40104,-0.494792 7.48438,-0.734375 C7.63021,-1.11979 7.86198,-1.5 8.17969,-1.875 C8.4974,-2.25 8.95833,-2.68229 9.5625,-3.17188 C10.5,-3.94271 11.1328,-4.55208 11.4609,-5 C11.7891,-5.44792 11.9531,-5.86979 11.9531,-6.26563 C11.9531,-6.68229 11.8021,-7.03385 11.5,-7.32031 C11.1979,-7.60677 10.8073,-7.75 10.3281,-7.75 C9.81771,-7.75 9.41146,-7.59896 9.10938,-7.29688 C8.80729,-6.99479 8.65104,-6.57292 8.64063,-6.03125 L7.5625,-6.14063 C7.63542,-6.95313 7.91406,-7.57031 8.39844,-7.99219 C8.88281,-8.41406 9.53646,-8.625 10.3594,-8.625 C11.1823,-8.625 11.8333,-8.39583 12.3125,-7.9375 C12.7917,-7.47917 13.0313,-6.91146 13.0313,-6.23438 C13.0313,-5.89063 12.9609,-5.55469 12.8203,-5.22656 C12.6797,-4.89844 12.4453,-4.54948 12.1172,-4.17969 C11.7891,-3.8099 11.25,-3.30729 10.5,-2.67188 C9.86458,-2.14063 9.45573,-1.77865 9.27344,-1.58594 C9.09115,-1.39323 8.94271,-1.20313 8.82813,-1.01563 L13.0469,-1.01563"/>
</g>

<g fill="#212121" fill-opacity="1" stroke="none" transform="matrix(0.75,0,0,0.75,319.2,144.55)"
font-family="MS Shell Dlg 2" font-size="8.25" font-weight="400" font-style="normal" 
>
<path vector-effect="none" fill-rule="evenodd" d="M4.46875,0 L3.42188,0 L3.42188,-6.71875 C3.16146,-6.47917 2.82552,-6.23698 2.41406,-5.99219 C2.0026,-5.7474 1.63542,-5.56771 1.3125,-5.45313 L1.3125,-6.46875 C1.89583,-6.75 2.40885,-7.08594 2.85156,-7.47656 C3.29427,-7.86719 3.60938,-8.25 3.79688,-8.625 L4.46875,-8.625 L4.46875,0 M10.875,0 L10.875,-2.0625 L7.15625,-2.0625 L7.15625,-3.03125 L11.0781,-8.59375 L11.9375,-8.59375 L11.9375,-3.03125 L13.0938,-3.03125 L13.0938,-2.0625 L11.9375,-2.0625 L11.9375,0 L10.875,0 M10.875,-3.03125 L10.875,-6.89063 L8.1875,-3.03125 L10.875,-3.03125"/>
</g>

<g fill="#212121" fill-opacity="1" stroke="none" transform="matrix(0.75,0,0,0.75,356.55,144.55)"
font-family="MS Shell Dlg 2" font-size="8.25" font-weight="400" font-style="normal" 
>
<path vector-effect="none" fill-rule="evenodd" d="M4.46875,0 L3.42188,0 L3.42188,-6.71875 C3.16146,-6.47917 2.82552,-6.23698 2.41406,-5.99219 C2.0026,-5.7474 1.63542,-5.56771 1.3125,-5.45313 L1.3125,-6.46875 C1.89583,-6.75 2.40885,-7.08594 2.85156,-7.47656 C3.29427,-7.86719 3.60938,-8.25 3.79688,-8.625 L4.46875,-8.625 L4.46875,0 M12.9688,-6.48438 L11.9219,-6.40625 C11.8281,-6.82292 11.6979,-7.125 11.5313,-7.3125 C11.2396,-7.61458 10.8854,-7.76563 10.4688,-7.76563 C10.1354,-7.76563 9.83854,-7.67188 9.57813,-7.48438 C9.25521,-7.23438 8.9974,-6.8776 8.80469,-6.41406 C8.61198,-5.95052 8.51042,-5.29167 8.5,-4.4375 C8.75,-4.82292 9.0599,-5.10938 9.42969,-5.29688 C9.79948,-5.48438 10.1875,-5.57813 10.5938,-5.57813 C11.2917,-5.57813 11.888,-5.31771 12.3828,-4.79688 C12.8776,-4.27604 13.125,-3.60938 13.125,-2.79688 C13.125,-2.25521 13.0078,-1.7526 12.7734,-1.28906 C12.5391,-0.825521 12.2188,-0.471354 11.8125,-0.226563 C11.4063,0.0182292 10.9479,0.140625 10.4375,0.140625 C9.55208,0.140625 8.83333,-0.182292 8.28125,-0.828125 C7.72917,-1.47396 7.45313,-2.53646 7.45313,-4.01563 C7.45313,-5.68229 7.76042,-6.89063 8.375,-7.64063 C8.90625,-8.29688 9.625,-8.625 10.5313,-8.625 C11.2083,-8.625 11.763,-8.4349 12.1953,-8.05469 C12.6276,-7.67448 12.8854,-7.15104 12.9688,-6.48438 M8.67188,-2.78125 C8.67188,-2.41667 8.7474,-2.07031 8.89844,-1.74219 C9.04948,-1.41406 9.26302,-1.16146 9.53906,-0.984375 C9.8151,-0.807292 10.1094,-0.71875 10.4219,-0.71875 C10.8594,-0.71875 11.2396,-0.898438 11.5625,-1.25781 C11.8854,-1.61719 12.0469,-2.10417 12.0469,-2.71875 C12.0469,-3.3125 11.888,-3.78125 11.5703,-4.125 C11.2526,-4.46875 10.8542,-4.64063 10.375,-4.64063 C9.89583,-4.64063 9.49219,-4.46875 9.16406,-4.125 C8.83594,-3.78125 8.67188,-3.33333 8.67188,-2.78125 "/>
</g>

<g fill="#212121" fill-opacity="1" stroke="none" transform="matrix(0.75,0,0,0.75,393.9,144.55)"
font-family="MS Shell Dlg 2" font-size="8.25" font-weight="400" font-style="normal" 
>
<path vector-effect="none" fill-rule="evenodd" d="M4.46875,0 L3.42188,0 L3.42188,-6.71875 C3.16146,-6.47917 2.82552,-6.23698 2.41406,-5.99219 C2.0026,-5.7474 1.63542,-5.56771 1.3125,-5.45313 L1.3125,-6.46875 C1.89583,-6.75 2.40885,-7.08594 2.85156,-7.47656 C3.29427,-7.86719 3.60938,-8.25 3.79688,-8.625 L4.46875,-8.625 L4.46875,0 M9.125,-4.65625 C8.6875,-4.82292 8.36198,-5.05469 8.14844,-5.35156 C7.9349,-5.64844 7.82813,-6 7.82813,-6.40625 C7.82813,-7.03125 8.05469,-7.55729 8.50781,-7.98438 C8.96094,-8.41146 9.55729,-8.625 10.2969,-8.625 C11.0469,-8.625 11.651,-8.40625 12.1094,-7.96875 C12.5677,-7.53125 12.7969,-7 12.7969,-6.375 C12.7969,-5.97917 12.6927,-5.63542 12.4844,-5.34375 C12.276,-5.05208 11.9583,-4.82292 11.5313,-4.65625 C12.0625,-4.48958 12.4635,-4.21354 12.7344,-3.82813 C13.0052,-3.44271 13.1406,-2.98438 13.1406,-2.45313 C13.1406,-1.72396 12.8828,-1.10938 12.3672,-0.609375 C11.8516,-0.109375 11.1667,0.140625 10.3125,0.140625 C9.46875,0.140625 8.78646,-0.109375 8.26563,-0.609375 C7.74479,-1.10938 7.48438,-1.73438 7.48438,-2.48438 C7.48438,-3.04688 7.6276,-3.51563 7.91406,-3.89063 C8.20052,-4.26563 8.60417,-4.52083 9.125,-4.65625 M8.90625,-6.45313 C8.90625,-6.04688 9.03906,-5.71354 9.30469,-5.45313 C9.57031,-5.19271 9.91146,-5.0625 10.3281,-5.0625 C10.7344,-5.0625 11.0677,-5.1901 11.3281,-5.44531 C11.5885,-5.70052 11.7188,-6.01563 11.7188,-6.39063 C11.7188,-6.77604 11.5833,-7.10156 11.3125,-7.36719 C11.0417,-7.63281 10.7083,-7.76563 10.3125,-7.76563 C9.90625,-7.76563 9.57031,-7.63542 9.30469,-7.375 C9.03906,-7.11458 8.90625,-6.80729 8.90625,-6.45313 M8.57813,-2.48438 C8.57813,-2.18229 8.64844,-1.89063 8.78906,-1.60938 C8.92969,-1.32813 9.14063,-1.10938 9.42188,-0.953125 C9.70313,-0.796875 10.0052,-0.71875 10.3281,-0.71875 C10.8281,-0.71875 11.2422,-0.880208 11.5703,-1.20313 C11.8984,-1.52604 12.0625,-1.9375 12.0625,-2.4375 C12.0625,-2.94792 11.8958,-3.36979 11.5625,-3.70313 C11.2292,-4.03646 10.8073,-4.20313 10.2969,-4.20313 C9.79688,-4.20313 9.38542,-4.03906 9.0625,-3.71094 C8.73958,-3.38281 8.57813,-2.97396 8.57813,-2.48438 "/>
</g>

<g fill="#212121" fill-opacity="1" stroke="none" transform="matrix(0.75,0,0,0.75,431.25,144.55)"
font-family="MS Shell Dlg 2" font-size="8.25" font-weight="400" font-style="normal" 
>
<path vector-effect="none" fill-rule="evenodd" d="M6.04688,-1.01563 L6.04688,0 L0.359375,0 C0.359375,-0.25 0.401042,-0.494792 0.484375,-0.734375 C0.630208,-1.11979 0.861979,-1.5 1.17969,-1.875 C1.4974,-2.25 1.95833,-2.68229 2.5625,-3.17188 C3.5,-3.94271 4.13281,-4.55208 4.46094,-5 C4.78906,-5.44792 4.95313,-5.86979 4.95313,-6.26563 C4.95313,-6.68229 4.80208,-7.03385 4.5,-7.32031 C4.19792,-7.60677 3.80729,-7.75 3.32813,-7.75 C2.81771,-7.75 2.41146,-7.59896 2.10938,-7.29688 C1.80729,-6.99479 1.65104,-6.57292 1.64063,-6.03125 L0.5625,-6.14063 C0.635417,-6.95313 0.914063,-7.57031 1.39844,-7.99219 C1.88281,-8.41406 2.53646,-8.625 3.35938,-8.625 C4.18229,-8.625 4.83333,-8.39583 5.3125,-7.9375 C5.79167,-7.47917 6.03125,-6.91146 6.03125,-6.23438 C6.03125,-5.89063 5.96094,-5.55469 5.82031,-5.22656 C5.67969,-4.89844 5.44531,-4.54948 5.11719,-4.17969 C4.78906,-3.8099 4.25,-3.30729 3.5,-2.67188 C2.86458,-2.14063 2.45573,-1.77865 2.27344,-1.58594 C2.09115,-1.39323 1.94271,-1.20313 1.82813,-1.01563 L6.04688,-1.01563 M7.5,-4.23438 C7.5,-5.25521 7.60417,-6.07552 7.8125,-6.69531 C8.02083,-7.3151 8.33073,-7.79167 8.74219,-8.125 C9.15365,-8.45833 9.67188,-8.625 10.2969,-8.625 C10.7552,-8.625 11.1589,-8.53125 11.5078,-8.34375 C11.8568,-8.15625 12.1458,-7.88802 12.375,-7.53906 C12.6042,-7.1901 12.7813,-6.76563 12.9063,-6.26563 C13.0313,-5.76563 13.0938,-5.08854 13.0938,-4.23438 C13.0938,-3.22396 12.9922,-2.41146 12.7891,-1.79688 C12.5859,-1.18229 12.2786,-0.705729 11.8672,-0.367188 C11.4557,-0.0286458 10.9323,0.140625 10.2969,0.140625 C9.47396,0.140625 8.82292,-0.15625 8.34375,-0.75 C7.78125,-1.45833 7.5,-2.61979 7.5,-4.23438 M8.57813,-4.23438 C8.57813,-2.82813 8.74479,-1.89063 9.07813,-1.42188 C9.41146,-0.953125 9.81771,-0.71875 10.2969,-0.71875 C10.7865,-0.71875 11.1953,-0.953125 11.5234,-1.42188 C11.8516,-1.89063 12.0156,-2.82813 12.0156,-4.23438 C12.0156,-5.65104 11.8516,-6.59115 11.5234,-7.05469 C11.1953,-7.51823 10.7813,-7.75 10.2813,-7.75 C9.80208,-7.75 9.41667,-7.54688 9.125,-7.14063 C8.76042,-6.61979 8.57813,-5.65104 8.57813,-4.23438 "/>
</g>

<g fill="#212121" fill-opacity="1" stroke="none" transform="matrix(0,-0.75,0.75,0,45.45,103.875)"
font-family="MS Shell Dlg 2" font-size="8.25" font-weight="400" font-style="normal" 
>
<path vector-effect="none" fill-rule="evenodd" d="M5.28125,0 L5.28125,-0.984375 C4.75,-0.223958 4.03646,0.15625 3.14063,0.15625 C2.74479,0.15625 2.3724,0.078125 2.02344,-0.078125 C1.67448,-0.234375 1.41667,-0.427083 1.25,-0.65625 C1.08333,-0.885417 0.96875,-1.16667 0.90625,-1.5 C0.854167,-1.71875 0.828125,-2.07292 0.828125,-2.5625 L0.828125,-6.73438 L1.96875,-6.73438 L1.96875,-3 C1.96875,-2.40625 1.99479,-2.00521 2.04688,-1.79688 C2.11979,-1.49479 2.27083,-1.25781 2.5,-1.08594 C2.72917,-0.914063 3.01563,-0.828125 3.35938,-0.828125 C3.70313,-0.828125 4.02604,-0.916667 4.32813,-1.09375 C4.63021,-1.27083 4.84375,-1.51042 4.96875,-1.8125 C5.09375,-2.11458 5.15625,-2.55208 5.15625,-3.125 L5.15625,-6.73438 L6.29688,-6.73438 L6.29688,0 L5.28125,0 M11.875,2.57813 L11.875,-9.3125 L14.4063,-9.3125 L14.4063,-8.35938 L13.0313,-8.35938 L13.0313,1.64063 L14.4063,1.64063 L14.4063,2.57813 L11.875,2.57813 M15.75,-7.07813 C15.75,-7.73438 15.9193,-8.29688 16.2578,-8.76563 C16.5964,-9.23438 17.0781,-9.46875 17.7031,-9.46875 C18.2969,-9.46875 18.7839,-9.26042 19.1641,-8.84375 C19.5443,-8.42708 19.7344,-7.8125 19.7344,-7 C19.7344,-6.21875 19.5417,-5.61458 19.1563,-5.1875 C18.7708,-4.76042 18.2917,-4.54688 17.7188,-4.54688 C17.1563,-4.54688 16.6875,-4.75521 16.3125,-5.17188 C15.9375,-5.58854 15.75,-6.22396 15.75,-7.07813 M17.75,-8.67188 C17.4583,-8.67188 17.2188,-8.54948 17.0313,-8.30469 C16.8438,-8.0599 16.75,-7.60938 16.75,-6.95313 C16.75,-6.35938 16.8464,-5.9401 17.0391,-5.69531 C17.2318,-5.45052 17.4688,-5.32813 17.75,-5.32813 C18.0313,-5.32813 18.2656,-5.45052 18.4531,-5.69531 C18.6406,-5.9401 18.7344,-6.39063 18.7344,-7.04688 C18.7344,-7.65104 18.6406,-8.07292 18.4531,-8.3125 C18.2656,-8.55208 18.0313,-8.67188 17.75,-8.67188 M17.75,0.34375 L22.8438,-9.46875 L23.7656,-9.46875 L18.6875,0.34375 L17.75,0.34375 M21.7656,-2.1875 C21.7656,-2.85417 21.9349,-3.41927 22.2734,-3.88281 C22.612,-4.34635 23.099,-4.57813 23.7344,-4.57813 C24.3177,-4.57813 24.8021,-4.36979 25.1875,-3.95313 C25.5729,-3.53646 25.7656,-2.92188 25.7656,-2.10938 C25.7656,-1.32813 25.5703,-0.723958 25.1797,-0.296875 C24.7891,0.130208 24.3073,0.34375 23.7344,0.34375 C23.1719,0.34375 22.7031,0.132813 22.3281,-0.289063 C21.9531,-0.710938 21.7656,-1.34375 21.7656,-2.1875 M23.7656,-3.79688 C23.474,-3.79688 23.2344,-3.67188 23.0469,-3.42188 C22.8594,-3.17188 22.7656,-2.71875 22.7656,-2.0625 C22.7656,-1.47917 22.862,-1.0625 23.0547,-0.8125 C23.2474,-0.5625 23.4844,-0.4375 23.7656,-0.4375 C24.0573,-0.4375 24.2969,-0.5625 24.4844,-0.8125 C24.6719,-1.0625 24.7656,-1.51042 24.7656,-2.15625 C24.7656,-2.76042 24.6693,-3.1849 24.4766,-3.42969 C24.2839,-3.67448 24.0469,-3.79688 23.7656,-3.79688 M28,0 L28,-9.3125 L31.5156,-9.3125 C32.1302,-9.3125 32.599,-9.28125 32.9219,-9.21875 C33.3802,-9.14583 33.7656,-9.0026 34.0781,-8.78906 C34.3906,-8.57552 34.6406,-8.27604 34.8281,-7.89063 C35.0156,-7.50521 35.1094,-7.07813 35.1094,-6.60938 C35.1094,-5.81771 34.8568,-5.14844 34.3516,-4.60156 C33.8464,-4.05469 32.9375,-3.78125 31.625,-3.78125 L29.2344,-3.78125 L29.2344,0 L28,0 M29.2344,-4.875 L31.6406,-4.875 C32.4323,-4.875 32.9974,-5.02344 33.3359,-5.32031 C33.6745,-5.61719 33.8438,-6.03646 33.8438,-6.57813 C33.8438,-6.96354 33.7448,-7.29427 33.5469,-7.57031 C33.349,-7.84635 33.0885,-8.03125 32.7656,-8.125 C32.5573,-8.17708 32.1719,-8.20313 31.6094,-8.20313 L29.2344,-8.20313 L29.2344,-4.875 M38.625,0 L36.1563,-9.3125 L37.4219,-9.3125 L38.8438,-3.20313 C38.9896,-2.56771 39.1198,-1.93229 39.2344,-1.29688 C39.474,-2.29688 39.6146,-2.86979 39.6563,-3.01563 L41.4219,-9.3125 L42.9063,-9.3125 L44.2344,-4.59375 C44.5677,-3.42708 44.8125,-2.32813 44.9688,-1.29688 C45.0833,-1.89063 45.2344,-2.56771 45.4219,-3.32813 L46.8906,-9.3125 L48.125,-9.3125 L45.5781,0 L44.3906,0 L42.4219,-7.09375 C42.2552,-7.6875 42.1563,-8.05208 42.125,-8.1875 C42.0313,-7.76042 41.9427,-7.39583 41.8594,-7.09375 L39.8906,0 L38.625,0 M48.9688,0 L48.9688,-9.3125 L50.8125,-9.3125 L53.0156,-2.71875 C53.224,-2.10417 53.375,-1.64583 53.4688,-1.34375 C53.5729,-1.67708 53.7344,-2.17188 53.9531,-2.82813 L56.1875,-9.3125 L57.8438,-9.3125 L57.8438,0 L56.6563,0 L56.6563,-7.78125 L53.9531,0 L52.8438,0 L50.1563,-7.92188 L50.1563,0 L48.9688,0 M61.7656,2.57813 L59.25,2.57813 L59.25,1.64063 L60.625,1.64063 L60.625,-8.35938 L59.25,-8.35938 L59.25,-9.3125 L61.7656,-9.3125 L61.7656,2.57813"/>
</g>

<g fill="#212121" fill-opacity="1" stroke="#212121" stroke-opacity="1" stroke-width="0.666667" stroke-linecap="square" stroke-linejoin="round" transform="matrix(0.75,0,0,0.75,0,0)"
font-family="MS Shell Dlg 2" font-size="8.25" font-weight="400" font-style="normal" 
>
<polyline fill="none" vector-effect="none" points="84,178 84,36 " />
<polyline fill="none" vector-effect="none" points="582,178 582,36 " />
<polyline fill="none" vector-effect="none" points="84,178 88.98,178 " />
<polyline fill="none" vector-effect="none" points="577.02,178 582,178 " />
<polyline fill="none" vector-effect="none" points="84,142.5 88.98,142.5 " />
<polyline fill="none" vector-effect="none" points="577.02,142.5 582,142.5 " />
<polyline fill="none" vector-effect="none" points="84,107 88.98,107 " />
<polyline fill="none" vector-effect="none" points="577.02,107 582,107 " />
<polyline fill="none" vector-effect="none" points="84,71.5 88.98,71.5 " />
<polyline fill="none" vector-effect="none" points="577.02,71.5 582,71.5 " />
<polyline fill="none" vector-effect="none" points="84,36 88.98,36 " />
<polyline fill="none" vector-effect="none" points="577.02,36 582,36 " />
</g>

<g fill="#212121" fill-opacity="1" stroke="none" transform="matrix(0.75,0,0,0.75,54.95,136.5)"
font-family="MS Shell Dlg 2" font-size="8.25" font-weight="400" font-style="normal" 
>
<path vector-effect="none" fill-rule="evenodd" d="M0.5,-4.23438 C0.5,-5.25521 0.604167,-6.07552 0.8125,-6.69531 C1.02083,-7.3151 1.33073,-7.79167 1.74219,-8.125 C2.15365,-8.45833 2.67188,-8.625 3.29688,-8.625 C3.75521,-8.625 4.15885,-8.53125 4.50781,-8.34375 C4.85677,-8.15625 5.14583,-7.88802 5.375,-7.53906 C5.60417,-7.1901 5.78125,-6.76563 5.90625,-6.26563 C6.03125,-5.76563 6.09375,-5.08854 6.09375,-4.23438 C6.09375,-3.22396 5.99219,-2.41146 5.78906,-1.79688 C5.58594,-1.18229 5.27865,-0.705729 4.86719,-0.367188 C4.45573,-0.0286458 3.93229,0.140625 3.29688,0.140625 C2.47396,0.140625 1.82292,-0.15625 1.34375,-0.75 C0.78125,-1.45833 0.5,-2.61979 0.5,-4.23438 M1.57813,-4.23438 C1.57813,-2.82813 1.74479,-1.89063 2.07813,-1.42188 C2.41146,-0.953125 2.81771,-0.71875 3.29688,-0.71875 C3.78646,-0.71875 4.19531,-0.953125 4.52344,-1.42188 C4.85156,-1.89063 5.01563,-2.82813 5.01563,-4.23438 C5.01563,-5.65104 4.85156,-6.59115 4.52344,-7.05469 C4.19531,-7.51823 3.78125,-7.75 3.28125,-7.75 C2.80208,-7.75 2.41667,-7.54688 2.125,-7.14063 C1.76042,-6.61979 1.57813,-5.65104 1.57813,-4.23438 "/>
</g>

<g fill="#212121" fill-opacity="1" stroke="none" transform="matrix(0.75,0,0,0.75,49.7,109.875)"
font-family="MS Shell Dlg 2" font-size="8.25" font-weight="400" font-style="normal" 
>
<path vector-effect="none" fill-rule="evenodd" d="M4.46875,0 L3.42188,0 L3.42188,-6.71875 C3.16146,-6.47917 2.82552,-6.23698 2.41406,-5.99219 C2.0026,-5.7474 1.63542,-5.56771 1.3125,-5.45313 L1.3125,-6.46875 C1.89583,-6.75 2.40885,-7.08594 2.85156,-7.47656 C3.29427,-7.86719 3.60938,-8.25 3.79688,-8.625 L4.46875,-8.625 L4.46875,0 M7.5,-4.23438 C7.5,-5.25521 7.60417,-6.07552 7.8125,-6.69531 C8.02083,-7.3151 8.33073,-7.79167 8.74219,-8.125 C9.15365,-8.45833 9.67188,-8.625 10.2969,-8.625 C10.7552,-8.625 11.1589,-8.53125 11.5078,-8.34375 C11.8568,-8.15625 12.1458,-7.88802 12.375,-7.53906 C12.6042,-7.1901 12.7813,-6.76563 12.9063,-6.26563 C13.0313,-5.76563 13.0938,-5.08854 13.0938,-4.23438 C13.0938,-3.22396 12.9922,-2.41146 12.7891,-1.79688 C12.5859,-1.18229 12.2786,-0.705729 11.8672,-0.367188 C11.4557,-0.0286458 10.9323,0.140625 10.2969,0.140625 C9.47396,0.140625 8.82292,-0.15625 8.34375,-0.75 C7.78125,-1.45833 7.5,-2.61979 7.5,-4.23438 M8.57813,-4.23438 C8.57813,-2.82813 8.74479,-1.89063 9.07813,-1.42188 C9.41146,-0.953125 9.81771,-0.71875 10.2969,-0.71875 C10.7865,-0.71875 11.1953,-0.953125 11.5234,-1.42188 C11.8516,-1.89063 12.0156,-2.82813 12.0156,-4.23438 C12.0156,-5.65104 11.8516,-6.59115 11.5234,-7.05469 C11.1953,-7.51823 10.7813,-7.75 10.2813,-7.75 C9.80208,-7.75 9.41667,-7.54688 9.125,-7.14063 C8.76042,-6.61979 8.57813,-5.65104 8.57813,-4.23438 "/>
</g>

<g fill="#212121" fill-opacity="1" stroke="none" transform="matrix(0.75,0,0,0.75,49.7,83.25)"
font-family="MS Shell Dlg 2" font-size="8.25" font-weight="400" font-style="normal" 
>
<path vector-effect="none" fill-rule="evenodd" d="M6.04688,-1.01563 L6.04688,0 L0.359375,0 C0.359375,-0.25 0.401042,-0.494792 0.484375,-0.734375 C0.630208,-1.11979 0.861979,-1.5 1.17969,-1.875 C1.4974,-2.25 1.95833,-2.68229 2.5625,-3.17188 C3.5,-3.94271 4.13281,-4.55208 4.46094,-5 C4.78906,-5.44792 4.95313,-5.86979 4.95313,-6.26563 C4.95313,-6.68229 4.80208,-7.03385 4.5,-7.32031 C4.19792,-7.60677 3.80729,-7.75 3.32813,-7.75 C2.81771,-7.75 2.41146,-7.59896 2.10938,-7.29688 C1.80729,-6.99479 1.65104,-6.57292 1.64063,-6.03125 L0.5625,-6.14063 C0.635417,-6.95313 0.914063,-7.57031 1.39844,-7.99219 C1.88281,-8.41406 2.53646,-8.625 3.35938,-8.625 C4.18229,-8.625 4.83333,-8.39583 5.3125,-7.9375 C5.79167,-7.47917 6.03125,-6.91146 6.03125,-6.23438 C6.03125,-5.89063 5.96094,-5.55469 5.82031,-5.22656 C5.67969,-4.89844 5.44531,-4.54948 5.11719,-4.17969 C4.78906,-3.8099 4.25,-3.30729 3.5,-2.67188 C2.86458,-2.14063 2.45573,-1.77865 2.27344,-1.58594 C2.09115,-1.39323 1.94271,-1.20313 1.82813,-1.01563 L6.04688,-1.01563 M7.5,-4.23438 C7.5,-5.25521 7.60417,-6.07552 7.8125,-6.69531 C8.02083,-7.3151 8.33073,-7.79167 8.74219,-8.125 C9.15365,-8.45833 9.67188,-8.625 10.2969,-8.625 C10.7552,-8.625 11.1589,-8.53125 11.5078,-8.34375 C11.8568,-8.15625 12.1458,-7.88802 12.375,-7.53906 C12.6042,-7.1901 12.7813,-6.76563 12.9063,-6.26563 C13.0313,-5.76563 13.0938,-5.08854 13.0938,-4.23438 C13.0938,-3.22396 12.9922,-2.41146 12.7891,-1.79688 C12.5859,-1.18229 12.2786,-0.705729 11.8672,-0.367188 C11.4557,-0.0286458 10.9323,0.140625 10.2969,0.140625 C9.47396,0.140625 8.82292,-0.15625 8.34375,-0.75 C7.78125,-1.45833 7.5,-2.61979 7.5,-4.23438 M8.57813,-4.23438 C8.57813,-2.82813 8.74479,-1.89063 9.07813,-1.42188 C9.41146,-0.953125 9.81771,-0.71875 10.2969,-0.71875 C10.7865,-0.71875 11.1953,-0.953125 11.5234,-1.42188 C11.8516,-1.89063 12.0156,-2.82813 12.0156,-4.23438 C12.0156,-5.65104 11.8516,-6.59115 11.5234,-7.05469 C11.1953,-7.51823 10.7813,-7.75 10.2813,-7.75 C9.80208,-7.75 9.41667,-7.54688 9.125,-7.14063 C8.76042,-6.61979 8.57813,-5.65104 8.57813,-4.23438 "/>
</g>

<g fill="#212121" fill-opacity="1" stroke="none" transform="matrix(0.75,0,0,0.75,49.7,56.625)"
font-family="MS Shell Dlg 2" font-size="8.25" font-weight="400" font-style="normal" 
>
<path vector-effect="none" fill-rule="evenodd" d="M0.5,-2.26563 L1.5625,-2.40625 C1.67708,-1.8125 1.88021,-1.38281 2.17188,-1.11719 C2.46354,-0.851563 2.81771,-0.71875 3.23438,-0.71875 C3.73438,-0.71875 4.15625,-0.890625 4.5,-1.23438 C4.84375,-1.57813 5.01563,-2.00521 5.01563,-2.51563 C5.01563,-2.99479 4.85677,-3.39323 4.53906,-3.71094 C4.22135,-4.02865 3.81771,-4.1875 3.32813,-4.1875 C3.13021,-4.1875 2.88021,-4.14583 2.57813,-4.0625 L2.70313,-5 C2.77604,-4.98958 2.83333,-4.98438 2.875,-4.98438 C3.32292,-4.98438 3.72656,-5.10156 4.08594,-5.33594 C4.44531,-5.57031 4.625,-5.93229 4.625,-6.42188 C4.625,-6.80729 4.49479,-7.1276 4.23438,-7.38281 C3.97396,-7.63802 3.63542,-7.76563 3.21875,-7.76563 C2.8125,-7.76563 2.47135,-7.63542 2.19531,-7.375 C1.91927,-7.11458 1.74479,-6.72917 1.67188,-6.21875 L0.609375,-6.40625 C0.734375,-7.10417 1.02604,-7.64844 1.48438,-8.03906 C1.94271,-8.42969 2.51042,-8.625 3.1875,-8.625 C3.65625,-8.625 4.08854,-8.52344 4.48438,-8.32031 C4.88021,-8.11719 5.18229,-7.84375 5.39063,-7.5 C5.59896,-7.15625 5.70313,-6.78646 5.70313,-6.39063 C5.70313,-6.02604 5.60417,-5.6901 5.40625,-5.38281 C5.20833,-5.07552 4.91667,-4.83333 4.53125,-4.65625 C5.03125,-4.54167 5.42188,-4.29948 5.70313,-3.92969 C5.98438,-3.5599 6.125,-3.09375 6.125,-2.53125 C6.125,-1.78125 5.85156,-1.14583 5.30469,-0.625 C4.75781,-0.104167 4.06771,0.15625 3.23438,0.15625 C2.48438,0.15625 1.85938,-0.0703125 1.35938,-0.523438 C0.859375,-0.976563 0.572917,-1.55729 0.5,-2.26563 M7.5,-4.23438 C7.5,-5.25521 7.60417,-6.07552 7.8125,-6.69531 C8.02083,-7.3151 8.33073,-7.79167 8.74219,-8.125 C9.15365,-8.45833 9.67188,-8.625 10.2969,-8.625 C10.7552,-8.625 11.1589,-8.53125 11.5078,-8.34375 C11.8568,-8.15625 12.1458,-7.88802 12.375,-7.53906 C12.6042,-7.1901 12.7813,-6.76563 12.9063,-6.26563 C13.0313,-5.76563 13.0938,-5.08854 13.0938,-4.23438 C13.0938,-3.22396 12.9922,-2.41146 12.7891,-1.79688 C12.5859,-1.18229 12.2786,-0.705729 11.8672,-0.367188 C11.4557,-0.0286458 10.9323,0.140625 10.2969,0.140625 C9.47396,0.140625 8.82292,-0.15625 8.34375,-0.75 C7.78125,-1.45833 7.5,-2.61979 7.5,-4.23438 M8.57813,-4.23438 C8.57813,-2.82813 8.74479,-1.89063 9.07813,-1.42188 C9.41146,-0.953125 9.81771,-0.71875 10.2969,-0.71875 C10.7865,-0.71875 11.1953,-0.953125 11.5234,-1.42188 C11.8516,-1.89063 12.0156,-2.82813 12.0156,-4.23438 C12.0156,-5.65104 11.8516,-6.59115 11.5234,-7.05469 C11.1953,-7.51823 10.7813,-7.75 10.2813,-7.75 C9.80208,-7.75 9.41667,-7.54688 9.125,-7.14063 C8.76042,-6.61979 8.57813,-5.65104 8.57813,-4.23438 "/>
</g>

<g fill="#212121" fill-opacity="1" stroke="none" transform="matrix(0.75,0,0,0.75,49.7,30)"
font-family="MS Shell Dlg 2" font-size="8.25" font-weight="400" font-style="normal" 
>
<path vector-effect="none" fill-rule="evenodd" d="M3.875,0 L3.875,-2.0625 L0.15625,-2.0625 L0.15625,-3.03125 L4.07813,-8.59375 L4.9375,-8.59375 L4.9375,-3.03125 L6.09375,-3.03125 L6.09375,-2.0625 L4.9375,-2.0625 L4.9375,0 L3.875,0 M3.875,-3.03125 L3.875,-6.89063 L1.1875,-3.03125 L3.875,-3.03125 M7.5,-4.23438 C7.5,-5.25521 7.60417,-6.07552 7.8125,-6.69531 C8.02083,-7.3151 8.33073,-7.79167 8.74219,-8.125 C9.15365,-8.45833 9.67188,-8.625 10.2969,-8.625 C10.7552,-8.625 11.1589,-8.53125 11.5078,-8.34375 C11.8568,-8.15625 12.1458,-7.88802 12.375,-7.53906 C12.6042,-7.1901 12.7813,-6.76563 12.9063,-6.26563 C13.0313,-5.76563 13.0938,-5.08854 13.0938,-4.23438 C13.0938,-3.22396 12.9922,-2.41146 12.7891,-1.79688 C12.5859,-1.18229 12.2786,-0.705729 11.8672,-0.367188 C11.4557,-0.0286458 10.9323,0.140625 10.2969,0.140625 C9.47396,0.140625 8.82292,-0.15625 8.34375,-0.75 C7.78125,-1.45833 7.5,-2.61979 7.5,-4.23438 M8.57813,-4.23438 C8.57813,-2.82813 8.74479,-1.89063 9.07813,-1.42188 C9.41146,-0.953125 9.81771,-0.71875 10.2969,-0.71875 C10.7865,-0.71875 11.1953,-0.953125 11.5234,-1.42188 C11.8516,-1.89063 12.0156,-2.82813 12.0156,-4.23438 C12.0156,-5.65104 11.8516,-6.59115 11.5234,-7.05469 C11.1953,-7.51823 10.7813,-7.75 10.2813,-7.75 C9.80208,-7.75 9.41667,-7.54688 9.125,-7.14063 C8.76042,-6.61979 8.57813,-5.65104 8.57813,-4.23438 "/>
</g>

<g fill="#212121" fill-opacity="1" stroke="none" transform="matrix(0.75,0,0,0.75,219,9.68139)"
font-family="MS Shell Dlg 2" font-size="8.25" font-weight="400" font-style="normal" 
>
<path vector-effect="none" fill-rule="evenodd" d="M6.90625,-3.42188 L8.71875,-2.84375 C8.4375,-1.83333 7.97396,-1.08073 7.32813,-0.585938 C6.68229,-0.0911458 5.85938,0.15625 4.85938,0.15625 C3.61979,0.15625 2.60156,-0.265625 1.80469,-1.10938 C1.00781,-1.95313 0.609375,-3.10938 0.609375,-4.57813 C0.609375,-6.11979 1.01042,-7.32031 1.8125,-8.17969 C2.61458,-9.03906 3.66667,-9.46875 4.96875,-9.46875 C6.10417,-9.46875 7.03125,-9.13021 7.75,-8.45313 C8.16667,-8.05729 8.48438,-7.48438 8.70313,-6.73438 L6.84375,-6.29688 C6.72917,-6.77604 6.4974,-7.15625 6.14844,-7.4375 C5.79948,-7.71875 5.375,-7.85938 4.875,-7.85938 C4.1875,-7.85938 3.6276,-7.61198 3.19531,-7.11719 C2.76302,-6.6224 2.54688,-5.81771 2.54688,-4.70313 C2.54688,-3.53646 2.76042,-2.70313 3.1875,-2.20313 C3.61458,-1.70313 4.16667,-1.45313 4.84375,-1.45313 C5.34375,-1.45313 5.77344,-1.61198 6.13281,-1.92969 C6.49219,-2.2474 6.75,-2.74479 6.90625,-3.42188 M9.51563,-3.46875 C9.51563,-4.0625 9.66146,-4.63542 9.95313,-5.1875 C10.2448,-5.73958 10.6589,-6.16146 11.1953,-6.45313 C11.7318,-6.74479 12.3333,-6.89063 13,-6.89063 C14.0104,-6.89063 14.8438,-6.5599 15.5,-5.89844 C16.1563,-5.23698 16.4844,-4.40104 16.4844,-3.39063 C16.4844,-2.36979 16.1536,-1.52344 15.4922,-0.851563 C14.8307,-0.179688 14,0.15625 13,0.15625 C12.3854,0.15625 11.7969,0.015625 11.2344,-0.265625 C10.6719,-0.546875 10.2448,-0.955729 9.95313,-1.49219 C9.66146,-2.02865 9.51563,-2.6875 9.51563,-3.46875 M11.3438,-3.375 C11.3438,-2.70833 11.5026,-2.19531 11.8203,-1.83594 C12.138,-1.47656 12.5313,-1.29688 13,-1.29688 C13.4688,-1.29688 13.8594,-1.47656 14.1719,-1.83594 C14.4844,-2.19531 14.6406,-2.71354 14.6406,-3.39063 C14.6406,-4.04688 14.4844,-4.55208 14.1719,-4.90625 C13.8594,-5.26042 13.4688,-5.4375 13,-5.4375 C12.5313,-5.4375 12.138,-5.26042 11.8203,-4.90625 C11.5026,-4.55208 11.3438,-4.04167 11.3438,-3.375 M24.0625,0 L22.2813,0 L22.2813,-3.4375 C22.2813,-4.16667 22.2422,-4.63802 22.1641,-4.85156 C22.0859,-5.0651 21.9609,-5.23177 21.7891,-5.35156 C21.6172,-5.47135 21.4115,-5.53125 21.1719,-5.53125 C20.8698,-5.53125 20.5964,-5.44531 20.3516,-5.27344 C20.1068,-5.10156 19.9375,-4.8776 19.8438,-4.60156 C19.75,-4.32552 19.7031,-3.80729 19.7031,-3.04688 L19.7031,0 L17.9219,0 L17.9219,-6.73438 L19.5781,-6.73438 L19.5781,-5.75 C20.1615,-6.51042 20.901,-6.89063 21.7969,-6.89063 C22.1927,-6.89063 22.5521,-6.82031 22.875,-6.67969 C23.1979,-6.53906 23.4453,-6.35938 23.6172,-6.14063 C23.7891,-5.92188 23.9063,-5.67188 23.9688,-5.39063 C24.0313,-5.10938 24.0625,-4.70833 24.0625,-4.1875 L24.0625,0 M29.0313,-6.73438 L29.0313,-5.3125 L27.8125,-5.3125 L27.8125,-2.60938 C27.8125,-2.05729 27.8229,-1.73438 27.8438,-1.64063 C27.8646,-1.54688 27.9167,-1.47135 28,-1.41406 C28.0833,-1.35677 28.1823,-1.32813 28.2969,-1.32813 C28.4635,-1.32813 28.7031,-1.38542 29.0156,-1.5 L29.1719,-0.109375 C28.7552,0.0677083 28.2865,0.15625 27.7656,0.15625 C27.4427,0.15625 27.151,0.101563 26.8906,-0.0078125 C26.6302,-0.117188 26.4401,-0.257813 26.3203,-0.429688 C26.2005,-0.601563 26.1198,-0.833333 26.0781,-1.125 C26.0365,-1.33333 26.0156,-1.75 26.0156,-2.375 L26.0156,-5.3125 L25.2031,-5.3125 L25.2031,-6.73438 L26.0156,-6.73438 L26.0156,-8.07813 L27.8125,-9.125 L27.8125,-6.73438 L29.0313,-6.73438 M31.6406,0 L29.8594,0 L29.8594,-6.73438 L31.5156,-6.73438 L31.5156,-5.78125 C31.7969,-6.23958 32.0521,-6.53906 32.2813,-6.67969 C32.5104,-6.82031 32.7656,-6.89063 33.0469,-6.89063 C33.4531,-6.89063 33.8438,-6.78125 34.2188,-6.5625 L33.6719,-5 C33.3698,-5.19792 33.0885,-5.29688 32.8281,-5.29688 C32.5781,-5.29688 32.3672,-5.22656 32.1953,-5.08594 C32.0234,-4.94531 31.888,-4.69531 31.7891,-4.33594 C31.6901,-3.97656 31.6406,-3.22396 31.6406,-2.07813 L31.6406,0 M34.5156,-3.46875 C34.5156,-4.0625 34.6615,-4.63542 34.9531,-5.1875 C35.2448,-5.73958 35.6589,-6.16146 36.1953,-6.45313 C36.7318,-6.74479 37.3333,-6.89063 38,-6.89063 C39.0104,-6.89063 39.8438,-6.5599 40.5,-5.89844 C41.1563,-5.23698 41.4844,-4.40104 41.4844,-3.39063 C41.4844,-2.36979 41.1536,-1.52344 40.4922,-0.851563 C39.8307,-0.179688 39,0.15625 38,0.15625 C37.3854,0.15625 36.7969,0.015625 36.2344,-0.265625 C35.6719,-0.546875 35.2448,-0.955729 34.9531,-1.49219 C34.6615,-2.02865 34.5156,-2.6875 34.5156,-3.46875 M36.3438,-3.375 C36.3438,-2.70833 36.5026,-2.19531 36.8203,-1.83594 C37.138,-1.47656 37.5313,-1.29688 38,-1.29688 C38.4688,-1.29688 38.8594,-1.47656 39.1719,-1.83594 C39.4844,-2.19531 39.6406,-2.71354 39.6406,-3.39063 C39.6406,-4.04688 39.4844,-4.55208 39.1719,-4.90625 C38.8594,-5.26042 38.4688,-5.4375 38,-5.4375 C37.5313,-5.4375 37.138,-5.26042 36.8203,-4.90625 C36.5026,-4.55208 36.3438,-4.04167 36.3438,-3.375 M42.9375,0 L42.9375,-9.3125 L44.7188,-9.3125 L44.7188,0 L42.9375,0 M50.9375,-7.65625 L50.9375,-9.3125 L52.7188,-9.3125 L52.7188,-7.65625 L50.9375,-7.65625 M50.9375,0 L50.9375,-6.73438 L52.7188,-6.73438 L52.7188,0 L50.9375,0 M61.0625,0 L59.2813,0 L59.2813,-3.4375 C59.2813,-4.16667 59.2422,-4.63802 59.1641,-4.85156 C59.0859,-5.0651 58.9609,-5.23177 58.7891,-5.35156 C58.6172,-5.47135 58.4115,-5.53125 58.1719,-5.53125 C57.8698,-5.53125 57.5964,-5.44531 57.3516,-5.27344 C57.1068,-5.10156 56.9375,-4.8776 56.8438,-4.60156 C56.75,-4.32552 56.7031,-3.80729 56.7031,-3.04688 L56.7031,0 L54.9219,0 L54.9219,-6.73438 L56.5781,-6.73438 L56.5781,-5.75 C57.1615,-6.51042 57.901,-6.89063 58.7969,-6.89063 C59.1927,-6.89063 59.5521,-6.82031 59.875,-6.67969 C60.1979,-6.53906 60.4453,-6.35938 60.6172,-6.14063 C60.7891,-5.92188 60.9063,-5.67188 60.9688,-5.39063 C61.0313,-5.10938 61.0625,-4.70833 61.0625,-4.1875 L61.0625,0 M62.875,-6.73438 L64.5469,-6.73438 L64.5469,-5.75 C64.7656,-6.09375 65.0573,-6.36979 65.4219,-6.57813 C65.7865,-6.78646 66.1927,-6.89063 66.6406,-6.89063 C67.4323,-6.89063 68.099,-6.58333 68.6406,-5.96875 C69.1823,-5.35417 69.4531,-4.5 69.4531,-3.40625 C69.4531,-2.28125 69.1797,-1.40625 68.6328,-0.78125 C68.0859,-0.15625 67.4219,0.15625 66.6406,0.15625 C66.2656,0.15625 65.9271,0.0807292 65.625,-0.0703125 C65.3229,-0.221354 65.0052,-0.473958 64.6719,-0.828125 L64.6719,2.5625 L62.875,2.5625 L62.875,-6.73438 M64.6406,-3.48438 C64.6406,-2.72396 64.7917,-2.16406 65.0938,-1.80469 C65.3958,-1.44531 65.7656,-1.26563 66.2031,-1.26563 C66.6094,-1.26563 66.9505,-1.43229 67.2266,-1.76563 C67.5026,-2.09896 67.6406,-2.64063 67.6406,-3.39063 C67.6406,-4.09896 67.5,-4.625 67.2188,-4.96875 C66.9375,-5.3125 66.5885,-5.48438 66.1719,-5.48438 C65.7344,-5.48438 65.3698,-5.3151 65.0781,-4.97656 C64.7865,-4.63802 64.6406,-4.14063 64.6406,-3.48438 M75.375,0 L75.375,-1.01563 C75.125,-0.651042 74.7995,-0.364583 74.3984,-0.15625 C73.9974,0.0520833 73.5781,0.15625 73.1406,0.15625 C72.6823,0.15625 72.2734,0.0572917 71.9141,-0.140625 C71.5547,-0.338542 71.2943,-0.619792 71.1328,-0.984375 C70.9714,-1.34896 70.8906,-1.84375 70.8906,-2.46875 L70.8906,-6.73438 L72.6719,-6.73438 L72.6719,-3.64063 C72.6719,-2.69271 72.7057,-2.11198 72.7734,-1.89844 C72.8411,-1.6849 72.9609,-1.51563 73.1328,-1.39063 C73.3047,-1.26563 73.526,-1.20313 73.7969,-1.20313 C74.099,-1.20313 74.3724,-1.28646 74.6172,-1.45313 C74.862,-1.61979 75.0286,-1.82813 75.1172,-2.07813 C75.2057,-2.32813 75.25,-2.93229 75.25,-3.89063 L75.25,-6.73438 L77.0313,-6.73438 L77.0313,0 L75.375,0 M82.0313,-6.73438 L82.0313,-5.3125 L80.8125,-5.3125 L80.8125,-2.60938 C80.8125,-2.05729 80.8229,-1.73438 80.8438,-1.64063 C80.8646,-1.54688 80.9167,-1.47135 81,-1.41406 C81.0833,-1.35677 81.1823,-1.32813 81.2969,-1.32813 C81.4635,-1.32813 81.7031,-1.38542 82.0156,-1.5 L82.1719,-0.109375 C81.7552,0.0677083 81.2865,0.15625 80.7656,0.15625 C80.4427,0.15625 80.151,0.101563 79.8906,-0.0078125 C79.6302,-0.117188 79.4401,-0.257813 79.3203,-0.429688 C79.2005,-0.601563 79.1198,-0.833333 79.0781,-1.125 C79.0365,-1.33333 79.0156,-1.75 79.0156,-2.375 L79.0156,-5.3125 L78.2031,-5.3125 L78.2031,-6.73438 L79.0156,-6.73438 L79.0156,-8.07813 L80.8125,-9.125 L80.8125,-6.73438 L82.0313,-6.73438"/>
</g>

<g fill="#212121" fill-opacity="1" stroke="none" transform="matrix(0.75,0,0,0.75,227.625,22.8806)"
font-family="MS Shell Dlg 2" font-size="8.25" font-weight="400" font-style="normal" 
>
<path vector-effect="none" fill-rule="evenodd" d="M0.40625,-2.01563 L1.53125,-2.1875 C1.59375,-1.73958 1.77083,-1.39323 2.0625,-1.14844 C2.35417,-0.903646 2.76042,-0.78125 3.28125,-0.78125 C3.80208,-0.78125 4.1901,-0.888021 4.44531,-1.10156 C4.70052,-1.3151 4.82813,-1.56771 4.82813,-1.85938 C4.82813,-2.11979 4.71354,-2.32292 4.48438,-2.46875 C4.32813,-2.57292 3.9375,-2.70313 3.3125,-2.85938 C2.47917,-3.06771 1.90104,-3.25 1.57813,-3.40625 C1.25521,-3.5625 1.01042,-3.77604 0.84375,-4.04688 C0.677083,-4.31771 0.59375,-4.61979 0.59375,-4.95313 C0.59375,-5.25521 0.661458,-5.53385 0.796875,-5.78906 C0.932292,-6.04427 1.11979,-6.25521 1.35938,-6.42188 C1.53646,-6.55729 1.77865,-6.66927 2.08594,-6.75781 C2.39323,-6.84635 2.72396,-6.89063 3.07813,-6.89063 C3.59896,-6.89063 4.0599,-6.8151 4.46094,-6.66406 C4.86198,-6.51302 5.15885,-6.30729 5.35156,-6.04688 C5.54427,-5.78646 5.67708,-5.4375 5.75,-5 L4.625,-4.84375 C4.57292,-5.19792 4.42708,-5.47135 4.1875,-5.66406 C3.94792,-5.85677 3.60417,-5.95313 3.15625,-5.95313 C2.63542,-5.95313 2.26042,-5.86719 2.03125,-5.69531 C1.80208,-5.52344 1.6875,-5.31771 1.6875,-5.07813 C1.6875,-4.93229 1.73438,-4.80208 1.82813,-4.6875 C1.92188,-4.5625 2.06771,-4.45833 2.26563,-4.375 C2.38021,-4.33333 2.71875,-4.23958 3.28125,-4.09375 C4.09375,-3.875 4.65885,-3.69792 4.97656,-3.5625 C5.29427,-3.42708 5.54427,-3.22656 5.72656,-2.96094 C5.90885,-2.69531 6,-2.36979 6,-1.98438 C6,-1.59896 5.88802,-1.23958 5.66406,-0.90625 C5.4401,-0.572917 5.11979,-0.3125 4.70313,-0.125 C4.28646,0.0625 3.8125,0.15625 3.28125,0.15625 C2.40625,0.15625 1.73958,-0.0260417 1.28125,-0.390625 C0.822917,-0.755208 0.53125,-1.29688 0.40625,-2.01563 M7.85938,-7.98438 L7.85938,-9.3125 L9,-9.3125 L9,-7.98438 L7.85938,-7.98438 M7.85938,0 L7.85938,-6.73438 L9,-6.73438 L9,0 L7.85938,0 M10.8594,0 L10.8594,-6.73438 L11.875,-6.73438 L11.875,-5.79688 C12.0938,-6.13021 12.3776,-6.39583 12.7266,-6.59375 C13.0755,-6.79167 13.474,-6.89063 13.9219,-6.89063 C14.4219,-6.89063 14.8307,-6.78646 15.1484,-6.57813 C15.4661,-6.36979 15.6927,-6.08333 15.8281,-5.71875 C16.3594,-6.5 17.0521,-6.89063 17.9063,-6.89063 C18.5729,-6.89063 19.0859,-6.70573 19.4453,-6.33594 C19.8047,-5.96615 19.9844,-5.39583 19.9844,-4.625 L19.9844,0 L18.8594,0 L18.8594,-4.25 C18.8594,-4.70833 18.8229,-5.03646 18.75,-5.23438 C18.6771,-5.43229 18.5417,-5.59375 18.3438,-5.71875 C18.1458,-5.84375 17.9167,-5.90625 17.6563,-5.90625 C17.1771,-5.90625 16.7813,-5.7474 16.4688,-5.42969 C16.1563,-5.11198 16,-4.60938 16,-3.92188 L16,0 L14.8594,0 L14.8594,-4.375 C14.8594,-4.88542 14.7656,-5.26823 14.5781,-5.52344 C14.3906,-5.77865 14.0885,-5.90625 13.6719,-5.90625 C13.349,-5.90625 13.0521,-5.82031 12.7813,-5.64844 C12.5104,-5.47656 12.3125,-5.22917 12.1875,-4.90625 C12.0625,-4.58333 12,-4.11458 12,-3.5 L12,0 L10.8594,0 M26.2813,0 L26.2813,-0.984375 C25.75,-0.223958 25.0365,0.15625 24.1406,0.15625 C23.7448,0.15625 23.3724,0.078125 23.0234,-0.078125 C22.6745,-0.234375 22.4167,-0.427083 22.25,-0.65625 C22.0833,-0.885417 21.9688,-1.16667 21.9063,-1.5 C21.8542,-1.71875 21.8281,-2.07292 21.8281,-2.5625 L21.8281,-6.73438 L22.9688,-6.73438 L22.9688,-3 C22.9688,-2.40625 22.9948,-2.00521 23.0469,-1.79688 C23.1198,-1.49479 23.2708,-1.25781 23.5,-1.08594 C23.7292,-0.914063 24.0156,-0.828125 24.3594,-0.828125 C24.7031,-0.828125 25.026,-0.916667 25.3281,-1.09375 C25.6302,-1.27083 25.8438,-1.51042 25.9688,-1.8125 C26.0938,-2.11458 26.1563,-2.55208 26.1563,-3.125 L26.1563,-6.73438 L27.2969,-6.73438 L27.2969,0 L26.2813,0 M28.8281,0 L28.8281,-9.3125 L29.9688,-9.3125 L29.9688,0 L28.8281,0 M36.25,-0.828125 C35.8333,-0.473958 35.4297,-0.221354 35.0391,-0.0703125 C34.6484,0.0807292 34.2292,0.15625 33.7813,0.15625 C33.0313,0.15625 32.4583,-0.0260417 32.0625,-0.390625 C31.6667,-0.755208 31.4688,-1.21875 31.4688,-1.78125 C31.4688,-2.10417 31.5443,-2.40365 31.6953,-2.67969 C31.8464,-2.95573 32.0443,-3.17708 32.2891,-3.34375 C32.5339,-3.51042 32.8073,-3.63542 33.1094,-3.71875 C33.3281,-3.77083 33.6667,-3.82813 34.125,-3.89063 C35.0417,-3.99479 35.7188,-4.125 36.1563,-4.28125 C36.1667,-4.4375 36.1719,-4.53646 36.1719,-4.57813 C36.1719,-5.04688 36.0625,-5.375 35.8438,-5.5625 C35.5521,-5.82292 35.1198,-5.95313 34.5469,-5.95313 C34.0052,-5.95313 33.6068,-5.85938 33.3516,-5.67188 C33.0964,-5.48438 32.9063,-5.15104 32.7813,-4.67188 L31.6719,-4.8125 C31.7656,-5.29167 31.9297,-5.67969 32.1641,-5.97656 C32.3984,-6.27344 32.737,-6.5 33.1797,-6.65625 C33.6224,-6.8125 34.1302,-6.89063 34.7031,-6.89063 C35.2865,-6.89063 35.7578,-6.82292 36.1172,-6.6875 C36.4766,-6.55208 36.7396,-6.38281 36.9063,-6.17969 C37.0729,-5.97656 37.1927,-5.71875 37.2656,-5.40625 C37.2969,-5.20833 37.3125,-4.85417 37.3125,-4.34375 L37.3125,-2.82813 C37.3125,-1.76563 37.3385,-1.09375 37.3906,-0.8125 C37.4427,-0.53125 37.5365,-0.260417 37.6719,0 L36.4844,0 C36.3698,-0.239583 36.2917,-0.515625 36.25,-0.828125 M36.1563,-3.39063 C35.7396,-3.21354 35.1198,-3.06771 34.2969,-2.95313 C33.8281,-2.88021 33.4948,-2.80208 33.2969,-2.71875 C33.099,-2.63542 32.9479,-2.51302 32.8438,-2.35156 C32.7396,-2.1901 32.6875,-2.01042 32.6875,-1.8125 C32.6875,-1.51042 32.8021,-1.25781 33.0313,-1.05469 C33.2604,-0.851563 33.599,-0.75 34.0469,-0.75 C34.4844,-0.75 34.875,-0.846354 35.2188,-1.03906 C35.5625,-1.23177 35.8177,-1.49479 35.9844,-1.82813 C36.099,-2.07813 36.1563,-2.45833 36.1563,-2.96875 L36.1563,-3.39063 M41.3594,-1.01563 L41.5156,-0.015625 C41.1927,0.0572917 40.9063,0.09375 40.6563,0.09375 C40.2396,0.09375 39.9167,0.0260417 39.6875,-0.109375 C39.4583,-0.244792 39.2969,-0.419271 39.2031,-0.632813 C39.1094,-0.846354 39.0625,-1.29167 39.0625,-1.96875 L39.0625,-5.85938 L38.2344,-5.85938 L38.2344,-6.73438 L39.0625,-6.73438 L39.0625,-8.40625 L40.2031,-9.09375 L40.2031,-6.73438 L41.3594,-6.73438 L41.3594,-5.85938 L40.2031,-5.85938 L40.2031,-1.90625 C40.2031,-1.58333 40.224,-1.375 40.2656,-1.28125 C40.3073,-1.1875 40.3724,-1.11458 40.4609,-1.0625 C40.5495,-1.01042 40.6771,-0.984375 40.8438,-0.984375 C40.9792,-0.984375 41.151,-0.994792 41.3594,-1.01563 M42.8594,-7.98438 L42.8594,-9.3125 L44,-9.3125 L44,-7.98438 L42.8594,-7.98438 M42.8594,0 L42.8594,-6.73438 L44,-6.73438 L44,0 L42.8594,0 M45.4375,-3.375 C45.4375,-4.625 45.7813,-5.54688 46.4688,-6.14063 C47.0521,-6.64063 47.7604,-6.89063 48.5938,-6.89063 C49.5208,-6.89063 50.2786,-6.58854 50.8672,-5.98438 C51.4557,-5.38021 51.75,-4.54167 51.75,-3.46875 C51.75,-2.60417 51.6198,-1.92188 51.3594,-1.42188 C51.099,-0.921875 50.7188,-0.533854 50.2188,-0.257813 C49.7188,0.0182292 49.1771,0.15625 48.5938,0.15625 C47.6458,0.15625 46.8828,-0.145833 46.3047,-0.75 C45.7266,-1.35417 45.4375,-2.22917 45.4375,-3.375 M46.6094,-3.375 C46.6094,-2.51042 46.7969,-1.86198 47.1719,-1.42969 C47.5469,-0.997396 48.0208,-0.78125 48.5938,-0.78125 C49.1563,-0.78125 49.6276,-0.997396 50.0078,-1.42969 C50.388,-1.86198 50.5781,-2.52083 50.5781,-3.40625 C50.5781,-4.23958 50.388,-4.8724 50.0078,-5.30469 C49.6276,-5.73698 49.1563,-5.95313 48.5938,-5.95313 C48.0208,-5.95313 47.5469,-5.73958 47.1719,-5.3125 C46.7969,-4.88542 46.6094,-4.23958 46.6094,-3.375 M52.8594,0 L52.8594,-6.73438 L53.8906,-6.73438 L53.8906,-5.78125 C54.3802,-6.52083 55.0938,-6.89063 56.0313,-6.89063 C56.4375,-6.89063 56.8099,-6.81771 57.1484,-6.67188 C57.487,-6.52604 57.7422,-6.33594 57.9141,-6.10156 C58.0859,-5.86719 58.2031,-5.58333 58.2656,-5.25 C58.3073,-5.04167 58.3281,-4.67188 58.3281,-4.14063 L58.3281,0 L57.1875,0 L57.1875,-4.09375 C57.1875,-4.5625 57.1432,-4.91146 57.0547,-5.14063 C56.9661,-5.36979 56.8099,-5.55469 56.5859,-5.69531 C56.362,-5.83594 56.099,-5.90625 55.7969,-5.90625 C55.3073,-5.90625 54.8854,-5.7526 54.5313,-5.44531 C54.1771,-5.13802 54,-4.55208 54,-3.6875 L54,0 L52.8594,0"/>
</g>

<g fill="none" stroke="#1171be" stroke-opacity="1" stroke-width="2" stroke-linecap="butt" stroke-linejoin="miter" stroke-miterlimit="5" transform="matrix(0.75,0,0,0.75,0,0)"
font-family="MS Shell Dlg 2" font-size="8.25" font-weight="400" font-style="normal" 
>
<polyline fill="none" vector-effect="none" points="84,178 85.245,178 85.245,71.5 86.49,71.5 86.49,71.5 87.735,71.5 87.735,71.5 88.98,71.5 88.98,71.5 90.225,71.5 90.225,71.5 91.47,71.5 91.47,71.5 92.715,71.5 92.715,71.5 93.96,71.5 93.96,71.5 95.205,71.5 95.205,71.5 96.45,71.5 96.45,71.5 97.695,71.5 97.695,71.5 98.94,71.5 98.94,71.5 100.185,71.5 100.185,71.5 101.43,71.5 101.43,71.5 102.675,71.5 102.675,71.5 103.92,71.5 103.92,71.5 105.165,71.5 105.165,71.5 106.41,71.5 106.41,71.5 107.655,71.5 107.655,71.5 108.9,71.5 108.9,71.5 110.145,71.5 110.145,71.5 111.39,71.5 111.39,71.5 112.635,71.5 112.635,71.5 113.88,71.5 113.88,71.5 115.125,71.5 115.125,71.5 116.37,71.5 116.37,71.5 117.615,71.5 117.615,71.5 118.86,71.5 118.86,71.5 120.105,71.5 120.105,71.5 121.35,71.5 121.35,71.5 122.595,71.5 122.595,71.5 123.84,71.5 123.84,71.5 125.085,71.5 125.085,71.5 126.33,71.5 126.33,71.5 127.575,71.5 127.575,71.5 128.82,71.5 128.82,71.5 130.065,71.5 130.065,71.5 131.31,71.5 131.31,71.5 132.555,71.5 132.555,71.5 133.8,71.5 133.8,71.5 135.045,71.5 135.045,71.5 136.29,71.5 136.29,71.5 137.535,71.5 137.535,71.5 138.78,71.5 138.78,71.5 140.025,71.5 140.025,71.5 141.27,71.5 141.27,71.5 142.515,71.5 142.515,71.5 143.76,71.5 143.76,71.5 145.005,71.5 145.005,71.5 146.25,71.5 146.25,71.5 147.495,71.5 147.495,71.5 148.74,71.5 148.74,71.5 149.985,71.5 149.985,71.5 151.23,71.5 151.23,71.5 152.475,71.5 152.475,71.5 153.72,71.5 153.72,71.5 154.965,71.5 154.965,71.5 156.21,71.5 156.21,71.5 157.455,71.5 157.455,71.5 158.7,71.5 158.7,71.5 159.945,71.5 159.945,71.5 161.19,71.5 161.19,71.5 162.435,71.5 162.435,71.5 163.68,71.5 163.68,71.5 164.925,71.5 164.925,71.5 166.17,71.5 166.17,71.5 167.415,71.5 167.415,71.5 168.66,71.5 168.66,71.5 169.905,71.5 169.905,71.5 171.15,71.5 171.15,71.5 172.395,71.5 172.395,71.5 173.64,71.5 173.64,71.5 174.885,71.5 174.885,71.5 176.13,71.5 176.13,71.5 177.375,71.5 177.375,71.5 178.62,71.5 178.62,71.5 179.865,71.5 179.865,71.5 181.11,71.5 181.11,71.5 182.355,71.5 182.355,71.5 183.6,71.5 183.6,71.5 184.845,71.5 184.845,71.5 186.09,71.5 186.09,71.5 187.335,71.5 187.335,71.5 188.58,71.5 188.58,71.5 189.825,71.5 189.825,71.5 191.07,71.5 191.07,71.5 192.315,71.5 192.315,71.5 193.56,71.5 193.56,71.5 194.805,71.5 194.805,71.5 196.05,71.5 196.05,71.5 197.295,71.5 197.295,71.5 198.54,71.5 198.54,71.5 199.785,71.5 199.785,71.5 201.03,71.5 201.03,71.5 202.275,71.5 202.275,71.5 203.52,71.5 203.52,71.5 204.765,71.5 204.765,71.5 206.01,71.5 206.01,71.5 207.255,71.5 207.255,71.5 208.5,71.5 208.5,71.5 209.745,71.5 209.745,71.5 210.99,71.5 210.99,71.5 212.235,71.5 212.235,71.5 213.48,71.5 213.48,71.5 214.725,71.5 214.725,71.5 215.97,71.5 215.97,71.5 217.215,71.5 217.215,71.5 218.46,71.5 218.46,71.5 219.705,71.5 219.705,71.5 220.95,71.5 220.95,71.5 222.195,71.5 222.195,71.5 223.44,71.5 223.44,71.5 224.685,71.5 224.685,71.5 225.93,71.5 225.93,71.5 227.175,71.5 227.175,71.5 228.42,71.5 228.42,71.5 229.665,71.5 229.665,71.5 230.91,71.5 230.91,71.5 232.155,71.5 232.155,71.5 233.4,71.5 233.4,71.5 234.645,71.5 234.645,71.5 235.89,71.5 235.89,71.5 237.135,71.5 237.135,71.5 238.38,71.5 238.38,71.5 239.625,71.5 239.625,71.5 240.87,71.5 240.87,71.5 242.115,71.5 242.115,71.5 243.36,71.5 243.36,71.5 244.605,71.5 244.605,71.5 245.85,71.5 245.85,71.5 247.095,71.5 247.095,71.5 248.34,71.5 248.34,71.5 249.585,71.5 249.585,71.5 250.83,71.5 250.83,71.5 252.075,71.5 252.075,71.5 253.32,71.5 253.32,71.5 254.565,71.5 254.565,71.5 255.81,71.5 255.81,71.5 257.055,71.5 257.055,71.5 258.3,71.5 258.3,71.5 259.545,71.5 259.545,71.5 260.79,71.5 260.79,71.5 262.035,71.5 262.035,71.5 263.28,71.5 263.28,71.5 264.525,71.5 264.525,71.5 265.77,71.5 265.77,71.5 267.015,71.5 267.015,71.5 268.26,71.5 268.26,71.5 269.505,71.5 269.505,71.5 270.75,71.5 270.75,71.5 271.995,71.5 271.995,71.5 273.24,71.5 273.24,71.5 274.485,71.5 274.485,71.5 275.73,71.5 275.73,71.5 276.975,71.5 276.975,71.5 278.22,71.5 278.22,71.5 279.465,71.5 279.465,71.5 280.71,71.5 280.71,71.5 281.955,71.5 281.955,71.5 283.2,71.5 283.2,71.5 284.445,71.5 284.445,71.5 285.69,71.5 285.69,71.5 286.935,71.5 286.935,71.5 288.18,71.5 288.18,71.5 289.425,71.5 289.425,71.5 290.67,71.5 290.67,71.5 291.915,71.5 291.915,71.5 293.16,71.5 293.16,71.5 294.405,71.5 294.405,71.5 295.65,71.5 295.65,71.5 296.895,71.5 296.895,71.5 298.14,71.5 298.14,71.5 299.385,71.5 299.385,71.5 300.63,71.5 300.63,71.5 301.875,71.5 301.875,71.5 303.12,71.5 303.12,71.5 304.365,71.5 304.365,71.5 305.61,71.5 305.61,71.5 306.855,71.5 306.855,71.5 308.1,71.5 308.1,71.5 309.345,71.5 309.345,71.5 310.59,71.5 310.59,71.5 311.835,71.5 311.835,71.5 313.08,71.5 313.08,71.5 314.325,71.5 314.325,71.5 315.57,71.5 315.57,71.5 316.815,71.5 316.815,71.5 318.06,71.5 318.06,71.5 319.305,71.5 319.305,71.5 320.55,71.5 320.55,71.5 321.795,71.5 321.795,71.5 323.04,71.5 323.04,71.5 324.285,71.5 324.285,71.5 325.53,71.5 325.53,71.5 326.775,71.5 326.775,71.5 328.02,71.5 328.02,71.5 329.265,71.5 329.265,71.5 330.51,71.5 330.51,71.5 331.755,71.5 331.755,71.5 333,71.5 333,178 334.245,178 334.245,178 335.49,178 335.49,157.891 336.735,157.891 336.735,119.529 337.98,119.529 337.98,110.772 339.225,110.772 339.225,118.785 340.47,118.785 340.47,131.578 341.715,131.578 341.715,141.34 342.96,141.34 342.96,145.388 344.205,145.388 344.205,143.647 345.45,143.647 345.45,137.29 346.695,137.29 346.695,128.091 347.94,128.091 347.94,117.807 349.185,117.807 349.185,108.036 350.43,108.036 350.43,99.698 351.675,99.698 351.675,94.8123 352.92,94.8123 352.92,91.4531 354.165,91.4531 354.165,88.1373 355.41,88.1373 355.41,86.5164 356.655,86.5164 356.655,87.9395 357.9,87.9395 357.9,90.8871 359.145,90.8871 359.145,93.3109 360.39,93.3109 360.39,94.1174 361.635,94.1174 361.635,93.2773 362.88,93.2773 362.88,91.311 364.125,91.311 364.125,88.8679 365.37,88.8679 365.37,86.5286 366.615,86.5286 366.615,84.5234 367.86,84.5234 367.86,83.2686 369.105,83.2686 369.105,82.6893 370.35,82.6893 370.35,82.698 371.595,82.698 371.595,83.0906 372.84,83.0906 372.84,83.6948 374.085,83.6948 374.085,84.1894 375.33,84.1894 375.33,84.4824 376.575,84.4824 376.575,84.4819 377.82,84.4819 377.82,84.2717 379.065,84.2717 379.065,83.9078 380.31,83.9078 380.31,83.5287 381.555,83.5287 381.555,83.1281 382.8,83.1281 382.8,82.7954 384.045,82.7954 384.045,82.5968 385.29,82.5968 385.29,82.6143 386.535,82.6143 386.535,82.6765 387.78,82.6765 387.78,82.6499 389.025,82.6499 389.025,82.6612 390.27,82.6612 390.27,82.685 391.515,82.685 391.515,82.6715 392.76,82.6715 392.76,82.6203 394.005,82.6203 394.005,82.6582 395.25,82.6582 395.25,82.6304 396.495,82.6304 396.495,82.6044 397.74,82.6044 397.74,82.6053 398.985,82.6053 398.985,82.6067 400.23,82.6067 400.23,82.6281 401.475,82.6281 401.475,82.6387 402.72,82.6387 402.72,82.6017 403.965,82.6017 403.965,82.5767 405.21,82.5767 405.21,82.5942 406.455,82.5942 406.455,82.5969 407.7,82.5969 407.7,82.6284 408.945,82.6284 408.945,82.5576 410.19,82.5576 410.19,82.5735 411.435,82.5735 411.435,82.5908 412.68,82.5908 412.68,82.6157 413.925,82.6157 413.925,82.5875 415.17,82.5875 415.17,76.7048 416.415,76.7048 416.415,73.8912 417.66,73.8912 417.66,72.6266 418.905,72.6266 418.905,71.683 420.15,71.683 420.15,70.6607 421.395,70.6607 421.395,69.3895 422.64,69.3895 422.64,67.7672 423.885,67.7672 423.885,66.0498 425.13,66.0498 425.13,64.2126 426.375,64.2126 426.375,62.3565 427.62,62.3565 427.62,60.7129 428.865,60.7129 428.865,59.3781 430.11,59.3781 430.11,58.4777 431.355,58.4777 431.355,57.8847 432.6,57.8847 432.6,57.6488 433.845,57.6488 433.845,57.4352 435.09,57.4352 435.09,57.2176 436.335,57.2176 436.335,56.922 437.58,56.922 437.58,56.7093 438.825,56.7093 438.825,56.555 440.07,56.555 440.07,56.4496 441.315,56.4496 441.315,56.3523 442.56,56.3523 442.56,56.129 443.805,56.129 443.805,55.8898 445.05,55.8898 445.05,55.7171 446.295,55.7171 446.295,55.5502 447.54,55.5502 447.54,55.367 448.785,55.367 448.785,55.2072 450.03,55.2072 450.03,55.1828 451.275,55.1828 451.275,55.2057 452.52,55.2057 452.52,55.2027 453.765,55.2027 453.765,55.18 455.01,55.18 455.01,55.1049 456.255,55.1049 456.255,55.0748 457.5,55.0748 457.5,55.1042 458.745,55.1042 458.745,55.0903 459.99,55.0903 459.99,55.088 461.235,55.088 461.235,55.0952 462.48,55.0952 462.48,55.0362 463.725,55.0362 463.725,55.0081 464.97,55.0081 464.97,55.0384 466.215,55.0384 466.215,55.0349 467.46,55.0349 467.46,55.0889 468.705,55.0889 468.705,55.044 469.95,55.044 469.95,54.9953 471.195,54.9953 471.195,55.0149 472.44,55.0149 472.44,55.0434 473.685,55.0434 473.685,55.0904 474.93,55.0904 474.93,55.0879 476.175,55.0879 476.175,55.0687 477.42,55.0687 477.42,55.1195 478.665,55.1195 478.665,55.0694 479.91,55.0694 479.91,55.0625 481.155,55.0625 481.155,55.1644 482.4,55.1644 482.4,55.1932 483.645,55.1932 483.645,55.1621 484.89,55.1621 484.89,55.1826 486.135,55.1826 486.135,55.2145 487.38,55.2145 487.38,55.2363 488.625,55.2363 488.625,55.2058 489.87,55.2058 489.87,55.2492 491.115,55.2492 491.115,55.2525 492.36,55.2525 492.36,55.3064 493.605,55.3064 493.605,55.2585 494.85,55.2585 494.85,55.2893 496.095,55.2893 496.095,55.3273 497.34,55.3273 497.34,78.7252 498.585,78.7252 498.585,89.8842 499.83,89.8842 499.83,94.8474 501.075,94.8474 501.075,98.0312 502.32,98.0312 502.32,101.567 503.565,101.567 503.565,106.904 504.81,106.904 504.81,114.328 506.055,114.328 506.055,123.251 507.3,123.251 507.3,132.791 508.545,132.791 508.545,141.729 509.79,141.729 509.79,148.958 511.035,148.958 511.035,154.413 512.28,154.413 512.28,158.039 513.525,158.039 513.525,160.012 514.77,160.012 514.77,160.93 516.015,160.93 516.015,161.889 517.26,161.889 517.26,162.657 518.505,162.657 518.505,163.538 519.75,163.538 519.75,164.815 520.995,164.815 520.995,166.473 522.24,166.473 522.24,168.48 523.485,168.48 523.485,170.512 524.73,170.512 524.73,171.742 525.975,171.742 525.975,172.773 527.22,172.773 527.22,173.695 528.465,173.695 528.465,174.421 529.71,174.421 529.71,174.817 530.955,174.817 530.955,175.019 532.2,175.019 532.2,175.465 533.445,175.465 533.445,175.647 534.69,175.647 534.69,175.663 535.935,175.663 535.935,175.693 537.18,175.693 537.18,176.091 538.425,176.091 538.425,176.59 539.67,176.59 539.67,176.986 540.915,176.986 540.915,177.153 542.16,177.153 542.16,177.191 543.405,177.191 543.405,177.292 544.65,177.292 544.65,177.42 545.895,177.42 545.895,177.504 547.14,177.504 547.14,177.67 548.385,177.67 548.385,177.737 549.63,177.737 549.63,177.877 550.875,177.877 550.875,177.962 552.12,177.962 552.12,178 553.365,178 553.365,178 554.61,178 554.61,178 555.855,178 555.855,178 557.1,178 557.1,178 558.345,178 558.345,178 559.59,178 559.59,178 560.835,178 560.835,178 562.08,178 562.08,178 563.325,178 563.325,178 564.57,178 564.57,178 565.815,178 565.815,178 567.06,178 567.06,178 568.305,178 568.305,178 569.55,178 569.55,178 570.795,178 570.795,178 572.04,178 572.04,178 573.285,178 573.285,178 574.53,178 574.53,178 575.775,178 575.775,178 577.02,178 577.02,178 578.265,178 578.265,178 579.51,178 579.51,178 580.755,178 580.755,178 582,178 582,178 " />
</g>

<g fill="#ffffff" fill-opacity="1" stroke="none" transform="matrix(7.5e-05,0,0,7.5e-05,0,0)"
font-family="MS Shell Dlg 2" font-size="8.25" font-weight="400" font-style="normal" 
>
<path vector-effect="none" fill-rule="evenodd" d="M950000,1.54e+06 L950000,1.7e+06 L1.53e+06,1.7e+06 L1.53e+06,1.54e+06 L950000,1.54e+06"/>
</g>

<g fill="#1171be" fill-opacity="1" stroke="#1171be" stroke-opacity="1" stroke-width="2" stroke-linecap="butt" stroke-linejoin="round" transform="matrix(0.75,0,0,0.75,0,0)"
font-family="MS Shell Dlg 2" font-size="8.25" font-weight="400" font-style="normal" 
>
<polyline fill="none" vector-effect="none" points="99,162 139,162 " />
</g>

<g fill="#212121" fill-opacity="1" stroke="none" transform="matrix(0.75,0,0,0.75,106.5,124.125)"
font-family="MS Shell Dlg 2" font-size="8.25" font-weight="400" font-style="normal" 
>
<path vector-effect="none" fill-rule="evenodd" d="M4.0625,0 L4.0625,-0.765625 C3.65625,-0.171875 3.10417,0.125 2.40625,0.125 C2.10417,0.125 1.82031,0.0651042 1.55469,-0.0546875 C1.28906,-0.174479 1.09115,-0.322917 0.960938,-0.5 C0.830729,-0.677083 0.739583,-0.895833 0.6875,-1.15625 C0.65625,-1.32292 0.640625,-1.59375 0.640625,-1.96875 L0.640625,-5.1875 L1.51563,-5.1875 L1.51563,-2.3125 C1.51563,-1.85417 1.53646,-1.54167 1.57813,-1.375 C1.63021,-1.14583 1.74479,-0.966146 1.92188,-0.835938 C2.09896,-0.705729 2.32292,-0.640625 2.59375,-0.640625 C2.85417,-0.640625 3.09896,-0.708333 3.32813,-0.84375 C3.55729,-0.979167 3.72135,-1.16406 3.82031,-1.39844 C3.91927,-1.63281 3.96875,-1.96875 3.96875,-2.40625 L3.96875,-5.1875 L4.84375,-5.1875 L4.84375,0 L4.0625,0"/>
</g>

<g fill="none" stroke="#212121" stroke-opacity="1" stroke-width="0.666667" stroke-linecap="butt" stroke-linejoin="miter" stroke-miterlimit="5" transform="matrix(0.75,0,0,0.75,0,0)"
font-family="MS Shell Dlg 2" font-size="8.25" font-weight="400" font-style="normal" 
>
<path vector-effect="none" fill-rule="evenodd" d="M95,170 L95,154 L153,154 L153,170 L95,170"/>
</g>
</g>
</svg>
