<?xml version="1.0" encoding="UTF-8" standalone="no"?>
<svg width="338.314mm" height="322.086mm"
 viewBox="0 0 959 913"
 xmlns="http://www.w3.org/2000/svg" xmlns:xlink="http://www.w3.org/1999/xlink"  version="1.2" baseProfile="tiny">
<title>Qt SVG Document</title>
<desc>MATLAB, The MathWorks, Inc. Version 25.2.0.2998904 R2025b</desc>
<defs>
</defs>
<g fill="none" stroke="black" stroke-width="1" fill-rule="evenodd" stroke-linecap="square" stroke-linejoin="bevel" >

<g fill="#ffffff" fill-opacity="1" stroke="none" transform="matrix(0.75,0,0,0.75,0,0)"
font-family="MS Shell Dlg 2" font-size="8.25" font-weight="400" font-style="normal" 
>
<path vector-effect="none" fill-rule="evenodd" d="M0,0 L1279,0 L1279,1218 L0,1218 L0,0"/>
</g>

<g fill="#ffffff" fill-opacity="1" stroke="none" transform="matrix(7.5e-05,0,0,7.5e-05,0,0)"
font-family="MS Shell Dlg 2" font-size="8.25" font-weight="400" font-style="normal" 
>
<path vector-effect="none" fill-rule="evenodd" d="M1.66e+06,910000 L1.66e+06,1.083e+07 L1.157e+07,1.083e+07 L1.157e+07,910000 L1.66e+06,910000"/>
</g>

<g fill="#212121" fill-opacity="0.14902" stroke="#212121" stroke-opacity="0.14902" stroke-dasharray="1,3" stroke-dashoffset="0" stroke-width="0.666667" stroke-linecap="butt" stroke-linejoin="round" transform="matrix(0.75,0,0,0.75,0,0)"
font-family="MS Shell Dlg 2" font-size="8.25" font-weight="400" font-style="normal" 
>
<polyline fill="none" vector-effect="none" points="166,91 166,1083 " />
<polyline fill="none" vector-effect="none" points="201.393,91 201.393,1083 " />
<polyline fill="none" vector-effect="none" points="236.786,91 236.786,1083 " />
<polyline fill="none" vector-effect="none" points="272.179,91 272.179,1083 " />
<polyline fill="none" vector-effect="none" points="307.571,91 307.571,1083 " />
<polyline fill="none" vector-effect="none" points="342.964,91 342.964,1083 " />
<polyline fill="none" vector-effect="none" points="378.357,91 378.357,1083 " />
<polyline fill="none" vector-effect="none" points="413.75,91 413.75,1083 " />
<polyline fill="none" vector-effect="none" points="449.143,91 449.143,1083 " />
<polyline fill="none" vector-effect="none" points="484.536,91 484.536,1083 " />
<polyline fill="none" vector-effect="none" points="519.929,91 519.929,1083 " />
<polyline fill="none" vector-effect="none" points="555.321,91 555.321,1083 " />
<polyline fill="none" vector-effect="none" points="590.714,91 590.714,1083 " />
<polyline fill="none" vector-effect="none" points="626.107,91 626.107,1083 " />
<polyline fill="none" vector-effect="none" points="661.5,91 661.5,1083 " />
<polyline fill="none" vector-effect="none" points="696.893,91 696.893,1083 " />
<polyline fill="none" vector-effect="none" points="732.286,91 732.286,1083 " />
<polyline fill="none" vector-effect="none" points="767.679,91 767.679,1083 " />
<polyline fill="none" vector-effect="none" points="803.071,91 803.071,1083 " />
<polyline fill="none" vector-effect="none" points="838.464,91 838.464,1083 " />
<polyline fill="none" vector-effect="none" points="873.857,91 873.857,1083 " />
<polyline fill="none" vector-effect="none" points="909.25,91 909.25,1083 " />
<polyline fill="none" vector-effect="none" points="944.643,91 944.643,1083 " />
<polyline fill="none" vector-effect="none" points="980.036,91 980.036,1083 " />
<polyline fill="none" vector-effect="none" points="1015.43,91 1015.43,1083 " />
<polyline fill="none" vector-effect="none" points="1050.82,91 1050.82,1083 " />
<polyline fill="none" vector-effect="none" points="1086.21,91 1086.21,1083 " />
<polyline fill="none" vector-effect="none" points="1121.61,91 1121.61,1083 " />
<polyline fill="none" vector-effect="none" points="1157,91 1157,1083 " />
<polyline fill="none" vector-effect="none" points="166,1083 1157,1083 " />
<polyline fill="none" vector-effect="none" points="166,1033.4 1157,1033.4 " />
<polyline fill="none" vector-effect="none" points="166,983.8 1157,983.8 " />
<polyline fill="none" vector-effect="none" points="166,934.2 1157,934.2 " />
<polyline fill="none" vector-effect="none" points="166,884.6 1157,884.6 " />
<polyline fill="none" vector-effect="none" points="166,835 1157,835 " />
<polyline fill="none" vector-effect="none" points="166,785.4 1157,785.4 " />
<polyline fill="none" vector-effect="none" points="166,735.8 1157,735.8 " />
<polyline fill="none" vector-effect="none" points="166,686.2 1157,686.2 " />
<polyline fill="none" vector-effect="none" points="166,636.6 1157,636.6 " />
<polyline fill="none" vector-effect="none" points="166,587 1157,587 " />
<polyline fill="none" vector-effect="none" points="166,537.4 1157,537.4 " />
<polyline fill="none" vector-effect="none" points="166,487.8 1157,487.8 " />
<polyline fill="none" vector-effect="none" points="166,438.2 1157,438.2 " />
<polyline fill="none" vector-effect="none" points="166,388.6 1157,388.6 " />
<polyline fill="none" vector-effect="none" points="166,339 1157,339 " />
<polyline fill="none" vector-effect="none" points="166,289.4 1157,289.4 " />
<polyline fill="none" vector-effect="none" points="166,239.8 1157,239.8 " />
<polyline fill="none" vector-effect="none" points="166,190.2 1157,190.2 " />
<polyline fill="none" vector-effect="none" points="166,140.6 1157,140.6 " />
<polyline fill="none" vector-effect="none" points="166,91 1157,91 " />
</g>

<g fill="#212121" fill-opacity="1" stroke="#212121" stroke-opacity="1" stroke-width="1" stroke-linecap="square" stroke-linejoin="bevel" transform="matrix(0.75,0,0,0.75,487.5,838.25)"
font-family="Helvetica" font-size="14" font-weight="400" font-style="normal" 
>
<text fill="#212121" fill-opacity="1" stroke="none" xml:space="preserve" x="0" y="0" font-family="Helvetica" font-size="14" font-weight="400" font-style="normal" 
 >t [s]</text>
</g>

<g fill="#212121" fill-opacity="1" stroke="#212121" stroke-opacity="1" stroke-width="0.666667" stroke-linecap="square" stroke-linejoin="round" transform="matrix(0.75,0,0,0.75,0,0)"
font-family="Helvetica" font-size="14" font-weight="400" font-style="normal" 
>
<polyline fill="none" vector-effect="none" points="166,1083 1157,1083 " />
<polyline fill="none" vector-effect="none" points="166,91 1157,91 " />
<polyline fill="none" vector-effect="none" points="166,1083 166,1073.08 " />
<polyline fill="none" vector-effect="none" points="166,100.92 166,91 " />
<polyline fill="none" vector-effect="none" points="307.571,1083 307.571,1073.08 " />
<polyline fill="none" vector-effect="none" points="307.571,100.92 307.571,91 " />
<polyline fill="none" vector-effect="none" points="449.143,1083 449.143,1073.08 " />
<polyline fill="none" vector-effect="none" points="449.143,100.92 449.143,91 " />
<polyline fill="none" vector-effect="none" points="590.714,1083 590.714,1073.08 " />
<polyline fill="none" vector-effect="none" points="590.714,100.92 590.714,91 " />
<polyline fill="none" vector-effect="none" points="732.286,1083 732.286,1073.08 " />
<polyline fill="none" vector-effect="none" points="732.286,100.92 732.286,91 " />
<polyline fill="none" vector-effect="none" points="873.857,1083 873.857,1073.08 " />
<polyline fill="none" vector-effect="none" points="873.857,100.92 873.857,91 " />
<polyline fill="none" vector-effect="none" points="1015.43,1083 1015.43,1073.08 " />
<polyline fill="none" vector-effect="none" points="1015.43,100.92 1015.43,91 " />
<polyline fill="none" vector-effect="none" points="1157,1083 1157,1073.08 " />
<polyline fill="none" vector-effect="none" points="1157,100.92 1157,91 " />
</g>

<g fill="#212121" fill-opacity="1" stroke="#212121" stroke-opacity="1" stroke-width="1" stroke-linecap="square" stroke-linejoin="bevel" transform="matrix(0.75,0,0,0.75,121.875,825.25)"
font-family="Helvetica" font-size="13" font-weight="400" font-style="normal" 
>
<text fill="#212121" fill-opacity="1" stroke="none" xml:space="preserve" x="0" y="0" font-family="Helvetica" font-size="13" font-weight="400" font-style="normal" 
 >0</text>
</g>

<g fill="#212121" fill-opacity="1" stroke="#212121" stroke-opacity="1" stroke-width="1" stroke-linecap="square" stroke-linejoin="bevel" transform="matrix(0.75,0,0,0.75,228.054,825.25)"
font-family="Helvetica" font-size="13" font-weight="400" font-style="normal" 
>
<text fill="#212121" fill-opacity="1" stroke="none" xml:space="preserve" x="0" y="0" font-family="Helvetica" font-size="13" font-weight="400" font-style="normal" 
 >2</text>
</g>

<g fill="#212121" fill-opacity="1" stroke="#212121" stroke-opacity="1" stroke-width="1" stroke-linecap="square" stroke-linejoin="bevel" transform="matrix(0.75,0,0,0.75,334.232,825.25)"
font-family="Helvetica" font-size="13" font-weight="400" font-style="normal" 
>
<text fill="#212121" fill-opacity="1" stroke="none" xml:space="preserve" x="0" y="0" font-family="Helvetica" font-size="13" font-weight="400" font-style="normal" 
 >4</text>
</g>

<g fill="#212121" fill-opacity="1" stroke="#212121" stroke-opacity="1" stroke-width="1" stroke-linecap="square" stroke-linejoin="bevel" transform="matrix(0.75,0,0,0.75,440.411,825.25)"
font-family="Helvetica" font-size="13" font-weight="400" font-style="normal" 
>
<text fill="#212121" fill-opacity="1" stroke="none" xml:space="preserve" x="0" y="0" font-family="Helvetica" font-size="13" font-weight="400" font-style="normal" 
 >6</text>
</g>

<g fill="#212121" fill-opacity="1" stroke="#212121" stroke-opacity="1" stroke-width="1" stroke-linecap="square" stroke-linejoin="bevel" transform="matrix(0.75,0,0,0.75,546.589,825.25)"
font-family="Helvetica" font-size="13" font-weight="400" font-style="normal" 
>
<text fill="#212121" fill-opacity="1" stroke="none" xml:space="preserve" x="0" y="0" font-family="Helvetica" font-size="13" font-weight="400" font-style="normal" 
 >8</text>
</g>

<g fill="#212121" fill-opacity="1" stroke="#212121" stroke-opacity="1" stroke-width="1" stroke-linecap="square" stroke-linejoin="bevel" transform="matrix(0.75,0,0,0.75,650.143,825.25)"
font-family="Helvetica" font-size="13" font-weight="400" font-style="normal" 
>
<text fill="#212121" fill-opacity="1" stroke="none" xml:space="preserve" x="0" y="0" font-family="Helvetica" font-size="13" font-weight="400" font-style="normal" 
 >10</text>
</g>

<g fill="#212121" fill-opacity="1" stroke="#212121" stroke-opacity="1" stroke-width="1" stroke-linecap="square" stroke-linejoin="bevel" transform="matrix(0.75,0,0,0.75,756.321,825.25)"
font-family="Helvetica" font-size="13" font-weight="400" font-style="normal" 
>
<text fill="#212121" fill-opacity="1" stroke="none" xml:space="preserve" x="0" y="0" font-family="Helvetica" font-size="13" font-weight="400" font-style="normal" 
 >12</text>
</g>

<g fill="#212121" fill-opacity="1" stroke="#212121" stroke-opacity="1" stroke-width="1" stroke-linecap="square" stroke-linejoin="bevel" transform="matrix(0.75,0,0,0.75,862.5,825.25)"
font-family="Helvetica" font-size="13" font-weight="400" font-style="normal" 
>
<text fill="#212121" fill-opacity="1" stroke="none" xml:space="preserve" x="0" y="0" font-family="Helvetica" font-size="13" font-weight="400" font-style="normal" 
 >14</text>
</g>

<g fill="#212121" fill-opacity="1" stroke="#212121" stroke-opacity="1" stroke-width="1" stroke-linecap="square" stroke-linejoin="bevel" transform="matrix(0,-0.75,0.75,0,104,459.375)"
font-family="Helvetica" font-size="14" font-weight="400" font-style="normal" 
>
<text fill="#212121" fill-opacity="1" stroke="none" xml:space="preserve" x="0" y="0" font-family="Helvetica" font-size="14" font-weight="400" font-style="normal" 
 >value [-]</text>
</g>

<g fill="#212121" fill-opacity="1" stroke="#212121" stroke-opacity="1" stroke-width="0.666667" stroke-linecap="square" stroke-linejoin="round" transform="matrix(0.75,0,0,0.75,0,0)"
font-family="Helvetica" font-size="14" font-weight="400" font-style="normal" 
>
<polyline fill="none" vector-effect="none" points="166,1083 166,91 " />
<polyline fill="none" vector-effect="none" points="1157,1083 1157,91 " />
<polyline fill="none" vector-effect="none" points="166,1083 175.92,1083 " />
<polyline fill="none" vector-effect="none" points="1147.08,1083 1157,1083 " />
<polyline fill="none" vector-effect="none" points="166,835 175.92,835 " />
<polyline fill="none" vector-effect="none" points="1147.08,835 1157,835 " />
<polyline fill="none" vector-effect="none" points="166,587 175.92,587 " />
<polyline fill="none" vector-effect="none" points="1147.08,587 1157,587 " />
<polyline fill="none" vector-effect="none" points="166,339 175.92,339 " />
<polyline fill="none" vector-effect="none" points="1147.08,339 1157,339 " />
<polyline fill="none" vector-effect="none" points="166,91 175.92,91 " />
<polyline fill="none" vector-effect="none" points="1147.08,91 1157,91 " />
</g>

<g fill="#212121" fill-opacity="1" stroke="#212121" stroke-opacity="1" stroke-width="1" stroke-linecap="square" stroke-linejoin="bevel" transform="matrix(0.75,0,0,0.75,110,815.625)"
font-family="Helvetica" font-size="13" font-weight="400" font-style="normal" 
>
<text fill="#212121" fill-opacity="1" stroke="none" xml:space="preserve" x="0" y="0" font-family="Helvetica" font-size="13" font-weight="400" font-style="normal" 
 >25</text>
</g>

<g fill="#212121" fill-opacity="1" stroke="#212121" stroke-opacity="1" stroke-width="1" stroke-linecap="square" stroke-linejoin="bevel" transform="matrix(0.75,0,0,0.75,110,629.625)"
font-family="Helvetica" font-size="13" font-weight="400" font-style="normal" 
>
<text fill="#212121" fill-opacity="1" stroke="none" xml:space="preserve" x="0" y="0" font-family="Helvetica" font-size="13" font-weight="400" font-style="normal" 
 >30</text>
</g>

<g fill="#212121" fill-opacity="1" stroke="#212121" stroke-opacity="1" stroke-width="1" stroke-linecap="square" stroke-linejoin="bevel" transform="matrix(0.75,0,0,0.75,110,443.625)"
font-family="Helvetica" font-size="13" font-weight="400" font-style="normal" 
>
<text fill="#212121" fill-opacity="1" stroke="none" xml:space="preserve" x="0" y="0" font-family="Helvetica" font-size="13" font-weight="400" font-style="normal" 
 >35</text>
</g>

<g fill="#212121" fill-opacity="1" stroke="#212121" stroke-opacity="1" stroke-width="1" stroke-linecap="square" stroke-linejoin="bevel" transform="matrix(0.75,0,0,0.75,110,257.625)"
font-family="Helvetica" font-size="13" font-weight="400" font-style="normal" 
>
<text fill="#212121" fill-opacity="1" stroke="none" xml:space="preserve" x="0" y="0" font-family="Helvetica" font-size="13" font-weight="400" font-style="normal" 
 >40</text>
</g>

<g fill="#212121" fill-opacity="1" stroke="#212121" stroke-opacity="1" stroke-width="1" stroke-linecap="square" stroke-linejoin="bevel" transform="matrix(0.75,0,0,0.75,110,71.625)"
font-family="Helvetica" font-size="13" font-weight="400" font-style="normal" 
>
<text fill="#212121" fill-opacity="1" stroke="none" xml:space="preserve" x="0" y="0" font-family="Helvetica" font-size="13" font-weight="400" font-style="normal" 
 >45</text>
</g>

<g fill="#212121" fill-opacity="1" stroke="#212121" stroke-opacity="1" stroke-width="1" stroke-linecap="square" stroke-linejoin="bevel" transform="matrix(0.75,0,0,0.75,459.375,63.9375)"
font-family="Helvetica" font-size="14" font-weight="700" font-style="normal" 
>
<text fill="#212121" fill-opacity="1" stroke="none" xml:space="preserve" x="0" y="0" font-family="Helvetica" font-size="14" font-weight="700" font-style="normal" 
 >Plot real data</text>
</g>

<g fill="none" stroke="#1171be" stroke-opacity="1" stroke-width="0.666667" stroke-linecap="butt" stroke-linejoin="round" transform="matrix(0.75,0,0,0.75,0,0)"
font-family="Helvetica" font-size="14" font-weight="700" font-style="normal" 
>
<polyline fill="none" vector-effect="none" points="166,96.456 169.539,92.984 173.079,92.984 176.618,92.984 180.157,92.984 183.696,96.456 187.236,96.456 190.775,96.456 194.314,99.928 197.854,96.456 201.393,96.456 204.932,96.456 208.471,92.984 212.011,96.456 215.55,96.456 219.089,96.456 222.629,96.456 226.168,96.456 229.707,96.456 233.246,96.456 236.786,96.456 240.325,96.456 243.864,96.456 247.404,99.928 251.651,96.456 254.482,92.984 258.021,92.984 261.561,96.456 265.808,99.928 269.347,99.928 272.179,96.456 275.718,92.984 279.965,92.984 283.504,96.456 287.044,96.456 290.583,96.456 294.122,96.456 297.661,96.456 300.493,92.984 304.74,96.456 308.279,96.456 311.819,99.928 315.358,106.376 318.897,112.824 322.436,125.72 325.268,139.112 329.515,152.008 333.054,178.296 336.594,214.008 340.133,263.112 343.672,322.136 347.211,387.608 350.751,459.528 354.29,511.608 357.829,550.792 361.369,564.184 364.908,557.24 368.447,544.344 371.986,527.976 375.526,525 379.065,527.976 382.604,544.344 386.144,557.24 389.683,567.16 393.222,570.632 396.761,570.632 400.301,570.632 403.84,570.632 407.379,577.08 410.919,577.08 414.458,580.552 417.997,583.528 421.536,583.528 425.076,589.976 428.615,589.976 432.154,593.448 435.694,593.448 439.233,596.92 442.772,596.92 446.311,603.368 449.851,603.368 453.39,603.368 456.929,603.368 460.469,606.344 464.008,606.344 467.547,606.344 471.086,606.344 474.626,606.344 478.165,606.344 481.704,609.816 485.244,606.344 488.783,603.368 492.322,603.368 495.861,603.368 499.401,596.92 502.94,593.448 506.479,596.92 510.019,596.92 513.558,603.368 517.097,603.368 520.636,603.368 524.176,606.344 527.715,603.368 531.254,603.368 534.794,603.368 538.333,603.368 541.872,603.368 545.411,603.368 548.951,603.368 552.49,596.92 556.029,593.448 559.569,596.92 563.108,596.92 566.647,596.92 570.186,596.92 573.726,593.448 577.265,596.92 580.804,596.92 584.344,603.368 587.883,603.368 591.422,603.368 594.961,596.92 598.501,596.92 602.04,596.92 605.579,596.92 609.119,596.92 612.658,596.92 616.197,593.448 619.736,596.92 623.276,593.448 626.815,593.448 630.354,593.448 633.894,593.448 637.433,593.448 640.972,593.448 644.511,589.976 648.051,589.976 651.59,589.976 655.129,589.976 658.669,589.976 662.208,589.976 665.747,583.528 669.286,580.552 672.826,570.632 676.365,554.264 679.904,527.976 683.444,501.688 686.983,475.896 690.522,449.608 694.061,433.24 697.601,420.344 701.14,410.424 704.679,400.504 708.219,397.032 711.758,394.056 715.297,387.608 718.836,384.136 722.376,374.216 725.915,367.768 729.454,361.32 732.994,357.848 736.533,354.872 740.072,354.872 743.611,354.872 747.151,348.424 750.69,348.424 754.229,344.952 757.769,344.952 761.308,344.952 764.847,344.952 768.386,344.952 771.926,344.952 775.465,344.952 779.004,344.952 782.544,348.424 786.083,348.424 789.622,348.424 793.161,344.952 796.701,344.952 800.24,344.952 803.779,348.424 807.319,344.952 810.858,344.952 814.397,344.952 817.936,344.952 821.476,344.952 825.015,344.952 828.554,344.952 832.094,344.952 835.633,344.952 839.172,344.952 842.711,344.952 846.251,344.952 849.79,344.952 853.329,344.952 856.869,344.952 860.408,344.952 863.947,344.952 867.486,344.952 871.026,344.952 874.565,344.952 878.104,344.952 881.644,348.424 885.183,344.952 888.722,344.952 892.261,344.952 895.801,344.952 899.34,341.48 902.879,335.032 906.419,332.056 909.958,328.584 913.497,328.584 917.036,328.584 920.576,328.584 924.115,328.584 927.654,332.056 931.194,332.056 934.733,332.056 938.272,332.056 941.811,332.056 945.351,335.032 948.89,335.032 952.429,335.032 955.969,335.032 959.508,335.032 963.047,335.032 966.586,335.032 970.126,335.032 973.665,341.48 977.204,341.48 980.744,341.48 984.283,341.48 987.822,341.48 991.361,341.48 994.901,341.48 998.44,335.032 1001.98,341.48 1005.52,341.48 1009.06,341.48 1012.6,341.48 1016.14,341.48 " />
</g>

<g fill="none" stroke="#000000" stroke-opacity="1" stroke-dasharray="10,6" stroke-dashoffset="0" stroke-width="0.666667" stroke-linecap="butt" stroke-linejoin="round" transform="matrix(0.75,0,0,0.75,0,0)"
font-family="Helvetica" font-size="14" font-weight="700" font-style="normal" 
>
<polyline fill="none" vector-effect="none" points="166,578.072 169.539,577.576 173.079,581.048 176.618,577.576 180.157,577.08 183.696,577.08 187.236,573.112 190.775,576.088 194.314,576.088 197.854,571.624 201.393,578.568 204.932,574.6 208.471,574.104 212.011,577.576 215.55,569.64 219.089,573.112 222.629,572.616 226.168,572.12 229.707,571.624 233.246,571.624 236.786,571.128 240.325,570.632 243.864,570.136 247.404,569.64 251.651,565.176 254.482,572.12 258.021,572.12 261.561,568.648 265.808,564.184 269.347,563.688 272.179,566.664 275.718,569.64 279.965,569.64 283.504,566.168 287.044,561.704 290.583,565.176 294.122,564.68 297.661,564.184 300.493,563.688 304.74,609.816 308.279,639.08 311.819,679.256 315.358,712.488 318.897,745.224 322.436,780.936 325.268,808.216 329.515,841.448 333.054,874.184 336.594,890.552 340.133,908.408 343.672,918.328 347.211,927.256 350.751,934.696 354.29,936.68 357.829,962.472 361.369,978.344 364.908,1007.11 368.447,1030.92 371.986,1040.34 375.526,1048.78 379.065,1039.35 382.604,1037.37 386.144,1026.46 389.683,1031.91 393.222,1036.38 396.761,1044.31 400.301,1049.27 403.84,1050.76 407.379,1051.75 410.919,1045.8 414.458,1053.24 417.997,1050.26 421.536,1050.76 425.076,1054.23 428.615,1047.29 432.154,1053.74 435.694,1049.77 439.233,1052.74 442.772,1048.28 446.311,1051.26 449.851,1043.32 453.39,1048.78 456.929,1047.29 460.469,1046.3 464.008,1041.83 467.547,1043.32 471.086,1041.83 474.626,1040.34 478.165,1038.86 481.704,1037.37 485.244,1031.91 488.783,1037.86 492.322,1036.38 495.861,1031.91 499.401,1030.92 502.94,1036.87 506.479,1033.4 510.019,1024.97 513.558,1027.94 517.097,1020.01 520.636,1025.46 524.176,1024.47 527.715,1019.51 531.254,1024.47 534.794,1020.5 538.333,1019.02 541.872,1018.02 545.411,1016.54 548.951,1015.54 552.49,1014.06 556.029,1020.5 559.569,1016.54 563.108,1008.6 566.647,1011.58 570.186,1011.08 573.726,1010.09 577.265,1013.06 580.804,1005.13 584.344,1008.1 587.883,1000.17 591.422,1005.62 594.961,1004.14 598.501,1010.58 602.04,1003.14 605.579,1002.15 609.119,1001.66 612.658,1000.66 616.197,1000.17 619.736,1003.14 623.276,995.208 626.815,1002.15 630.354,997.688 633.894,997.192 637.433,996.696 640.972,996.2 644.511,995.704 648.051,999.176 651.59,995.704 655.129,995.208 658.669,973.88 662.208,955.032 665.747,936.184 669.286,924.776 672.826,902.952 676.365,893.032 679.904,883.608 683.444,880.136 686.983,868.232 690.522,857.816 694.061,850.376 697.601,833.016 701.14,823.592 704.679,815.16 708.219,810.696 711.758,799.288 715.297,794.824 718.836,794.824 722.376,788.376 725.915,792.84 729.454,786.888 732.994,785.4 736.533,780.936 740.072,778.952 743.611,774.984 747.151,773.496 750.69,779.944 754.229,772.008 757.769,775.48 761.308,771.512 764.847,771.016 768.386,770.52 771.926,770.024 775.465,769.528 779.004,769.032 782.544,768.536 786.083,764.568 789.622,767.048 793.161,766.552 796.701,770.024 800.24,765.56 803.779,765.064 807.319,761.096 810.858,767.544 814.397,763.576 817.936,763.08 821.476,762.584 825.015,762.088 828.554,762.088 832.094,761.592 835.633,761.096 839.172,760.6 842.711,760.104 846.251,759.608 849.79,759.112 853.329,758.616 856.869,758.12 860.408,757.624 863.947,757.624 867.486,757.128 871.026,756.632 874.565,756.136 878.104,755.64 881.644,755.144 885.183,750.68 888.722,757.624 892.261,753.656 895.801,753.16 899.34,752.664 902.879,756.136 906.419,759.608 909.958,756.632 913.497,758.12 917.036,755.144 920.576,755.64 924.115,756.632 927.654,757.624 931.194,754.152 934.733,758.616 938.272,759.112 941.811,759.608 945.351,760.104 948.89,757.128 952.429,760.6 955.969,760.6 959.508,761.096 963.047,761.592 966.586,761.592 970.126,762.088 973.665,762.088 977.204,755.144 980.744,762.088 984.283,761.592 987.822,761.592 991.361,761.096 994.901,761.096 998.44,761.096 1001.98,768.04 1005.52,754.152 1009.06,761.096 1012.6,760.6 1016.14,760.6 " />
</g>

<g fill="#ffffff" fill-opacity="1" stroke="none" transform="matrix(7.5e-05,0,0,7.5e-05,0,0)"
font-family="Helvetica" font-size="14" font-weight="700" font-style="normal" 
>
<path vector-effect="none" fill-rule="evenodd" d="M1.088e+07,1.04e+07 L1.088e+07,1.072e+07 L1.146e+07,1.072e+07 L1.146e+07,1.04e+07 L1.088e+07,1.04e+07"/>
</g>

<g fill="#1171be" fill-opacity="1" stroke="#1171be" stroke-opacity="1" stroke-width="0.666667" stroke-linecap="butt" stroke-linejoin="round" transform="matrix(0.75,0,0,0.75,0,0)"
font-family="Helvetica" font-size="14" font-weight="700" font-style="normal" 
>
<polyline fill="none" vector-effect="none" points="1092,1048.86 1132,1048.86 " />
</g>

<g fill="#000000" fill-opacity="1" stroke="#000000" stroke-opacity="1" stroke-dasharray="10,6" stroke-dashoffset="0" stroke-width="0.666667" stroke-linecap="butt" stroke-linejoin="round" transform="matrix(0.75,0,0,0.75,0,0)"
font-family="Helvetica" font-size="14" font-weight="700" font-style="normal" 
>
<polyline fill="none" vector-effect="none" points="1092,1063.14 1132,1063.14 " />
</g>

<g fill="#212121" fill-opacity="1" stroke="#212121" stroke-opacity="1" stroke-width="1" stroke-linecap="square" stroke-linejoin="bevel" transform="matrix(0.75,0,0,0.75,851.25,789.646)"
font-family="Helvetica" font-size="12" font-weight="400" font-style="normal" 
>
<text fill="#212121" fill-opacity="1" stroke="none" xml:space="preserve" x="0" y="0" font-family="Helvetica" font-size="12" font-weight="400" font-style="normal" 
 >y</text>
</g>

<g fill="#212121" fill-opacity="1" stroke="#212121" stroke-opacity="1" stroke-width="1" stroke-linecap="square" stroke-linejoin="bevel" transform="matrix(0.75,0,0,0.75,851.25,800.354)"
font-family="Helvetica" font-size="12" font-weight="400" font-style="normal" 
>
<text fill="#212121" fill-opacity="1" stroke="none" xml:space="preserve" x="0" y="0" font-family="Helvetica" font-size="12" font-weight="400" font-style="normal" 
 >u</text>
</g>

<g fill="none" stroke="#212121" stroke-opacity="1" stroke-width="0.666667" stroke-linecap="butt" stroke-linejoin="miter" stroke-miterlimit="2" transform="matrix(0.75,0,0,0.75,0,0)"
font-family="Helvetica" font-size="12" font-weight="400" font-style="normal" 
>
<path vector-effect="none" fill-rule="evenodd" d="M1088,1072 L1088,1040 L1146,1040 L1146,1072 L1088,1072"/>
</g>
</g>
</svg>
