<?xml version="1.0" encoding="UTF-8" standalone="no"?>
<svg width="338.314mm" height="322.086mm"
 viewBox="0 0 959 913"
 xmlns="http://www.w3.org/2000/svg" xmlns:xlink="http://www.w3.org/1999/xlink"  version="1.2" baseProfile="tiny">
<title>Qt SVG Document</title>
<desc>MATLAB, The MathWorks, Inc. Version 25.2.0.2998904 R2025b</desc>
<defs>
</defs>
<g fill="none" stroke="black" stroke-width="1" fill-rule="evenodd" stroke-linecap="square" stroke-linejoin="bevel" >

<g fill="#ffffff" fill-opacity="1" stroke="none" transform="matrix(0.75,0,0,0.75,0,0)"
font-family="MS Shell Dlg 2" font-size="8.25" font-weight="400" font-style="normal" 
>
<path vector-effect="none" fill-rule="evenodd" d="M0,0 L1279,0 L1279,1218 L0,1218 L0,0"/>
</g>

<g fill="#ffffff" fill-opacity="1" stroke="none" transform="matrix(7.5e-05,0,0,7.5e-05,0,0)"
font-family="MS Shell Dlg 2" font-size="8.25" font-weight="400" font-style="normal" 
>
<path vector-effect="none" fill-rule="evenodd" d="M1.66e+06,910000 L1.66e+06,1.083e+07 L1.157e+07,1.083e+07 L1.157e+07,910000 L1.66e+06,910000"/>
</g>

<g fill="#212121" fill-opacity="0.14902" stroke="#212121" stroke-opacity="0.14902" stroke-dasharray="1,3" stroke-dashoffset="0" stroke-width="0.666667" stroke-linecap="butt" stroke-linejoin="round" transform="matrix(0.75,0,0,0.75,0,0)"
font-family="MS Shell Dlg 2" font-size="8.25" font-weight="400" font-style="normal" 
>
<polyline fill="none" vector-effect="none" points="166,91 166,1083 " />
<polyline fill="none" vector-effect="none" points="201.393,91 201.393,1083 " />
<polyline fill="none" vector-effect="none" points="236.786,91 236.786,1083 " />
<polyline fill="none" vector-effect="none" points="272.179,91 272.179,1083 " />
<polyline fill="none" vector-effect="none" points="307.571,91 307.571,1083 " />
<polyline fill="none" vector-effect="none" points="342.964,91 342.964,1083 " />
<polyline fill="none" vector-effect="none" points="378.357,91 378.357,1083 " />
<polyline fill="none" vector-effect="none" points="413.75,91 413.75,1083 " />
<polyline fill="none" vector-effect="none" points="449.143,91 449.143,1083 " />
<polyline fill="none" vector-effect="none" points="484.536,91 484.536,1083 " />
<polyline fill="none" vector-effect="none" points="519.929,91 519.929,1083 " />
<polyline fill="none" vector-effect="none" points="555.321,91 555.321,1083 " />
<polyline fill="none" vector-effect="none" points="590.714,91 590.714,1083 " />
<polyline fill="none" vector-effect="none" points="626.107,91 626.107,1083 " />
<polyline fill="none" vector-effect="none" points="661.5,91 661.5,1083 " />
<polyline fill="none" vector-effect="none" points="696.893,91 696.893,1083 " />
<polyline fill="none" vector-effect="none" points="732.286,91 732.286,1083 " />
<polyline fill="none" vector-effect="none" points="767.679,91 767.679,1083 " />
<polyline fill="none" vector-effect="none" points="803.071,91 803.071,1083 " />
<polyline fill="none" vector-effect="none" points="838.464,91 838.464,1083 " />
<polyline fill="none" vector-effect="none" points="873.857,91 873.857,1083 " />
<polyline fill="none" vector-effect="none" points="909.25,91 909.25,1083 " />
<polyline fill="none" vector-effect="none" points="944.643,91 944.643,1083 " />
<polyline fill="none" vector-effect="none" points="980.036,91 980.036,1083 " />
<polyline fill="none" vector-effect="none" points="1015.43,91 1015.43,1083 " />
<polyline fill="none" vector-effect="none" points="1050.82,91 1050.82,1083 " />
<polyline fill="none" vector-effect="none" points="1086.21,91 1086.21,1083 " />
<polyline fill="none" vector-effect="none" points="1121.61,91 1121.61,1083 " />
<polyline fill="none" vector-effect="none" points="1157,91 1157,1083 " />
<polyline fill="none" vector-effect="none" points="166,1083 1157,1083 " />
<polyline fill="none" vector-effect="none" points="166,1049.93 1157,1049.93 " />
<polyline fill="none" vector-effect="none" points="166,1016.87 1157,1016.87 " />
<polyline fill="none" vector-effect="none" points="166,983.8 1157,983.8 " />
<polyline fill="none" vector-effect="none" points="166,950.733 1157,950.733 " />
<polyline fill="none" vector-effect="none" points="166,917.667 1157,917.667 " />
<polyline fill="none" vector-effect="none" points="166,884.6 1157,884.6 " />
<polyline fill="none" vector-effect="none" points="166,851.533 1157,851.533 " />
<polyline fill="none" vector-effect="none" points="166,818.467 1157,818.467 " />
<polyline fill="none" vector-effect="none" points="166,785.4 1157,785.4 " />
<polyline fill="none" vector-effect="none" points="166,752.333 1157,752.333 " />
<polyline fill="none" vector-effect="none" points="166,719.267 1157,719.267 " />
<polyline fill="none" vector-effect="none" points="166,686.2 1157,686.2 " />
<polyline fill="none" vector-effect="none" points="166,653.133 1157,653.133 " />
<polyline fill="none" vector-effect="none" points="166,620.067 1157,620.067 " />
<polyline fill="none" vector-effect="none" points="166,587 1157,587 " />
<polyline fill="none" vector-effect="none" points="166,553.933 1157,553.933 " />
<polyline fill="none" vector-effect="none" points="166,520.867 1157,520.867 " />
<polyline fill="none" vector-effect="none" points="166,487.8 1157,487.8 " />
<polyline fill="none" vector-effect="none" points="166,454.733 1157,454.733 " />
<polyline fill="none" vector-effect="none" points="166,421.667 1157,421.667 " />
<polyline fill="none" vector-effect="none" points="166,388.6 1157,388.6 " />
<polyline fill="none" vector-effect="none" points="166,355.533 1157,355.533 " />
<polyline fill="none" vector-effect="none" points="166,322.467 1157,322.467 " />
<polyline fill="none" vector-effect="none" points="166,289.4 1157,289.4 " />
<polyline fill="none" vector-effect="none" points="166,256.333 1157,256.333 " />
<polyline fill="none" vector-effect="none" points="166,223.267 1157,223.267 " />
<polyline fill="none" vector-effect="none" points="166,190.2 1157,190.2 " />
<polyline fill="none" vector-effect="none" points="166,157.133 1157,157.133 " />
<polyline fill="none" vector-effect="none" points="166,124.067 1157,124.067 " />
<polyline fill="none" vector-effect="none" points="166,91 1157,91 " />
</g>

<g fill="#212121" fill-opacity="1" stroke="#212121" stroke-opacity="1" stroke-width="1" stroke-linecap="square" stroke-linejoin="bevel" transform="matrix(0.75,0,0,0.75,487.5,838.25)"
font-family="Helvetica" font-size="14" font-weight="400" font-style="normal" 
>
<text fill="#212121" fill-opacity="1" stroke="none" xml:space="preserve" x="0" y="0" font-family="Helvetica" font-size="14" font-weight="400" font-style="normal" 
 >t [s]</text>
</g>

<g fill="#212121" fill-opacity="1" stroke="#212121" stroke-opacity="1" stroke-width="0.666667" stroke-linecap="square" stroke-linejoin="round" transform="matrix(0.75,0,0,0.75,0,0)"
font-family="Helvetica" font-size="14" font-weight="400" font-style="normal" 
>
<polyline fill="none" vector-effect="none" points="166,1083 1157,1083 " />
<polyline fill="none" vector-effect="none" points="166,91 1157,91 " />
<polyline fill="none" vector-effect="none" points="166,1083 166,1073.08 " />
<polyline fill="none" vector-effect="none" points="166,100.92 166,91 " />
<polyline fill="none" vector-effect="none" points="307.571,1083 307.571,1073.08 " />
<polyline fill="none" vector-effect="none" points="307.571,100.92 307.571,91 " />
<polyline fill="none" vector-effect="none" points="449.143,1083 449.143,1073.08 " />
<polyline fill="none" vector-effect="none" points="449.143,100.92 449.143,91 " />
<polyline fill="none" vector-effect="none" points="590.714,1083 590.714,1073.08 " />
<polyline fill="none" vector-effect="none" points="590.714,100.92 590.714,91 " />
<polyline fill="none" vector-effect="none" points="732.286,1083 732.286,1073.08 " />
<polyline fill="none" vector-effect="none" points="732.286,100.92 732.286,91 " />
<polyline fill="none" vector-effect="none" points="873.857,1083 873.857,1073.08 " />
<polyline fill="none" vector-effect="none" points="873.857,100.92 873.857,91 " />
<polyline fill="none" vector-effect="none" points="1015.43,1083 1015.43,1073.08 " />
<polyline fill="none" vector-effect="none" points="1015.43,100.92 1015.43,91 " />
<polyline fill="none" vector-effect="none" points="1157,1083 1157,1073.08 " />
<polyline fill="none" vector-effect="none" points="1157,100.92 1157,91 " />
</g>

<g fill="#212121" fill-opacity="1" stroke="#212121" stroke-opacity="1" stroke-width="1" stroke-linecap="square" stroke-linejoin="bevel" transform="matrix(0.75,0,0,0.75,121.875,825.25)"
font-family="Helvetica" font-size="13" font-weight="400" font-style="normal" 
>
<text fill="#212121" fill-opacity="1" stroke="none" xml:space="preserve" x="0" y="0" font-family="Helvetica" font-size="13" font-weight="400" font-style="normal" 
 >0</text>
</g>

<g fill="#212121" fill-opacity="1" stroke="#212121" stroke-opacity="1" stroke-width="1" stroke-linecap="square" stroke-linejoin="bevel" transform="matrix(0.75,0,0,0.75,228.054,825.25)"
font-family="Helvetica" font-size="13" font-weight="400" font-style="normal" 
>
<text fill="#212121" fill-opacity="1" stroke="none" xml:space="preserve" x="0" y="0" font-family="Helvetica" font-size="13" font-weight="400" font-style="normal" 
 >2</text>
</g>

<g fill="#212121" fill-opacity="1" stroke="#212121" stroke-opacity="1" stroke-width="1" stroke-linecap="square" stroke-linejoin="bevel" transform="matrix(0.75,0,0,0.75,334.232,825.25)"
font-family="Helvetica" font-size="13" font-weight="400" font-style="normal" 
>
<text fill="#212121" fill-opacity="1" stroke="none" xml:space="preserve" x="0" y="0" font-family="Helvetica" font-size="13" font-weight="400" font-style="normal" 
 >4</text>
</g>

<g fill="#212121" fill-opacity="1" stroke="#212121" stroke-opacity="1" stroke-width="1" stroke-linecap="square" stroke-linejoin="bevel" transform="matrix(0.75,0,0,0.75,440.411,825.25)"
font-family="Helvetica" font-size="13" font-weight="400" font-style="normal" 
>
<text fill="#212121" fill-opacity="1" stroke="none" xml:space="preserve" x="0" y="0" font-family="Helvetica" font-size="13" font-weight="400" font-style="normal" 
 >6</text>
</g>

<g fill="#212121" fill-opacity="1" stroke="#212121" stroke-opacity="1" stroke-width="1" stroke-linecap="square" stroke-linejoin="bevel" transform="matrix(0.75,0,0,0.75,546.589,825.25)"
font-family="Helvetica" font-size="13" font-weight="400" font-style="normal" 
>
<text fill="#212121" fill-opacity="1" stroke="none" xml:space="preserve" x="0" y="0" font-family="Helvetica" font-size="13" font-weight="400" font-style="normal" 
 >8</text>
</g>

<g fill="#212121" fill-opacity="1" stroke="#212121" stroke-opacity="1" stroke-width="1" stroke-linecap="square" stroke-linejoin="bevel" transform="matrix(0.75,0,0,0.75,650.143,825.25)"
font-family="Helvetica" font-size="13" font-weight="400" font-style="normal" 
>
<text fill="#212121" fill-opacity="1" stroke="none" xml:space="preserve" x="0" y="0" font-family="Helvetica" font-size="13" font-weight="400" font-style="normal" 
 >10</text>
</g>

<g fill="#212121" fill-opacity="1" stroke="#212121" stroke-opacity="1" stroke-width="1" stroke-linecap="square" stroke-linejoin="bevel" transform="matrix(0.75,0,0,0.75,756.321,825.25)"
font-family="Helvetica" font-size="13" font-weight="400" font-style="normal" 
>
<text fill="#212121" fill-opacity="1" stroke="none" xml:space="preserve" x="0" y="0" font-family="Helvetica" font-size="13" font-weight="400" font-style="normal" 
 >12</text>
</g>

<g fill="#212121" fill-opacity="1" stroke="#212121" stroke-opacity="1" stroke-width="1" stroke-linecap="square" stroke-linejoin="bevel" transform="matrix(0.75,0,0,0.75,862.5,825.25)"
font-family="Helvetica" font-size="13" font-weight="400" font-style="normal" 
>
<text fill="#212121" fill-opacity="1" stroke="none" xml:space="preserve" x="0" y="0" font-family="Helvetica" font-size="13" font-weight="400" font-style="normal" 
 >14</text>
</g>

<g fill="#212121" fill-opacity="1" stroke="#212121" stroke-opacity="1" stroke-width="1" stroke-linecap="square" stroke-linejoin="bevel" transform="matrix(0,-0.75,0.75,0,100.25,459.375)"
font-family="Helvetica" font-size="14" font-weight="400" font-style="normal" 
>
<text fill="#212121" fill-opacity="1" stroke="none" xml:space="preserve" x="0" y="0" font-family="Helvetica" font-size="14" font-weight="400" font-style="normal" 
 >value [-]</text>
</g>

<g fill="#212121" fill-opacity="1" stroke="#212121" stroke-opacity="1" stroke-width="0.666667" stroke-linecap="square" stroke-linejoin="round" transform="matrix(0.75,0,0,0.75,0,0)"
font-family="Helvetica" font-size="14" font-weight="400" font-style="normal" 
>
<polyline fill="none" vector-effect="none" points="166,1083 166,91 " />
<polyline fill="none" vector-effect="none" points="1157,1083 1157,91 " />
<polyline fill="none" vector-effect="none" points="166,1083 175.92,1083 " />
<polyline fill="none" vector-effect="none" points="1147.08,1083 1157,1083 " />
<polyline fill="none" vector-effect="none" points="166,917.667 175.92,917.667 " />
<polyline fill="none" vector-effect="none" points="1147.08,917.667 1157,917.667 " />
<polyline fill="none" vector-effect="none" points="166,752.333 175.92,752.333 " />
<polyline fill="none" vector-effect="none" points="1147.08,752.333 1157,752.333 " />
<polyline fill="none" vector-effect="none" points="166,587 175.92,587 " />
<polyline fill="none" vector-effect="none" points="1147.08,587 1157,587 " />
<polyline fill="none" vector-effect="none" points="166,421.667 175.92,421.667 " />
<polyline fill="none" vector-effect="none" points="1147.08,421.667 1157,421.667 " />
<polyline fill="none" vector-effect="none" points="166,256.333 175.92,256.333 " />
<polyline fill="none" vector-effect="none" points="1147.08,256.333 1157,256.333 " />
<polyline fill="none" vector-effect="none" points="166,91 175.92,91 " />
<polyline fill="none" vector-effect="none" points="1147.08,91 1157,91 " />
</g>

<g fill="#212121" fill-opacity="1" stroke="#212121" stroke-opacity="1" stroke-width="1" stroke-linecap="square" stroke-linejoin="bevel" transform="matrix(0.75,0,0,0.75,107,815.625)"
font-family="Helvetica" font-size="13" font-weight="400" font-style="normal" 
>
<text fill="#212121" fill-opacity="1" stroke="none" xml:space="preserve" x="0" y="0" font-family="Helvetica" font-size="13" font-weight="400" font-style="normal" 
 >-10</text>
</g>

<g fill="#212121" fill-opacity="1" stroke="#212121" stroke-opacity="1" stroke-width="1" stroke-linecap="square" stroke-linejoin="bevel" transform="matrix(0.75,0,0,0.75,115.25,691.625)"
font-family="Helvetica" font-size="13" font-weight="400" font-style="normal" 
>
<text fill="#212121" fill-opacity="1" stroke="none" xml:space="preserve" x="0" y="0" font-family="Helvetica" font-size="13" font-weight="400" font-style="normal" 
 >0</text>
</g>

<g fill="#212121" fill-opacity="1" stroke="#212121" stroke-opacity="1" stroke-width="1" stroke-linecap="square" stroke-linejoin="bevel" transform="matrix(0.75,0,0,0.75,110,567.625)"
font-family="Helvetica" font-size="13" font-weight="400" font-style="normal" 
>
<text fill="#212121" fill-opacity="1" stroke="none" xml:space="preserve" x="0" y="0" font-family="Helvetica" font-size="13" font-weight="400" font-style="normal" 
 >10</text>
</g>

<g fill="#212121" fill-opacity="1" stroke="#212121" stroke-opacity="1" stroke-width="1" stroke-linecap="square" stroke-linejoin="bevel" transform="matrix(0.75,0,0,0.75,110,443.625)"
font-family="Helvetica" font-size="13" font-weight="400" font-style="normal" 
>
<text fill="#212121" fill-opacity="1" stroke="none" xml:space="preserve" x="0" y="0" font-family="Helvetica" font-size="13" font-weight="400" font-style="normal" 
 >20</text>
</g>

<g fill="#212121" fill-opacity="1" stroke="#212121" stroke-opacity="1" stroke-width="1" stroke-linecap="square" stroke-linejoin="bevel" transform="matrix(0.75,0,0,0.75,110,319.625)"
font-family="Helvetica" font-size="13" font-weight="400" font-style="normal" 
>
<text fill="#212121" fill-opacity="1" stroke="none" xml:space="preserve" x="0" y="0" font-family="Helvetica" font-size="13" font-weight="400" font-style="normal" 
 >30</text>
</g>

<g fill="#212121" fill-opacity="1" stroke="#212121" stroke-opacity="1" stroke-width="1" stroke-linecap="square" stroke-linejoin="bevel" transform="matrix(0.75,0,0,0.75,110,195.625)"
font-family="Helvetica" font-size="13" font-weight="400" font-style="normal" 
>
<text fill="#212121" fill-opacity="1" stroke="none" xml:space="preserve" x="0" y="0" font-family="Helvetica" font-size="13" font-weight="400" font-style="normal" 
 >40</text>
</g>

<g fill="#212121" fill-opacity="1" stroke="#212121" stroke-opacity="1" stroke-width="1" stroke-linecap="square" stroke-linejoin="bevel" transform="matrix(0.75,0,0,0.75,110,71.625)"
font-family="Helvetica" font-size="13" font-weight="400" font-style="normal" 
>
<text fill="#212121" fill-opacity="1" stroke="none" xml:space="preserve" x="0" y="0" font-family="Helvetica" font-size="13" font-weight="400" font-style="normal" 
 >50</text>
</g>

<g fill="#212121" fill-opacity="1" stroke="#212121" stroke-opacity="1" stroke-width="1" stroke-linecap="square" stroke-linejoin="bevel" transform="matrix(0.75,0,0,0.75,438.375,49.875)"
font-family="Helvetica" font-size="14" font-weight="700" font-style="normal" 
>
<text fill="#212121" fill-opacity="1" stroke="none" xml:space="preserve" x="0" y="0" font-family="Helvetica" font-size="14" font-weight="700" font-style="normal" 
 >Model/Real response</text>
</g>

<g fill="#212121" fill-opacity="1" stroke="#212121" stroke-opacity="1" stroke-width="1" stroke-linecap="square" stroke-linejoin="bevel" transform="matrix(0.75,0,0,0.75,362.625,63.9375)"
font-family="Helvetica" font-size="14" font-weight="400" font-style="normal" 
>
<text fill="#212121" fill-opacity="1" stroke="none" xml:space="preserve" x="0" y="0" font-family="Helvetica" font-size="14" font-weight="400" font-style="normal" 
 >MSE20: 0.7544 | MSE30: 910.2128  MSESS: 0.0047062</text>
</g>

<g fill="none" stroke="#1171be" stroke-opacity="1" stroke-width="0.666667" stroke-linecap="butt" stroke-linejoin="round" transform="matrix(0.75,0,0,0.75,0,0)"
font-family="Helvetica" font-size="14" font-weight="400" font-style="normal" 
>
<polyline fill="none" vector-effect="none" points="166,175.485 169.542,174.328 173.084,174.328 176.627,174.328 180.169,174.328 183.711,175.485 187.253,175.485 190.796,175.485 194.338,176.643 197.88,175.485 201.422,175.485 204.965,175.485 208.507,174.328 212.049,175.485 215.591,175.485 219.134,175.485 222.676,175.485 226.218,175.485 229.76,175.485 233.302,175.485 236.845,175.485 240.387,175.485 243.929,175.485 247.471,176.643 251.014,175.485 254.556,174.328 258.098,174.328 261.64,175.485 265.183,176.643 268.725,176.643 272.267,175.485 275.809,174.328 279.352,174.328 282.894,175.485 286.436,175.485 289.978,175.485 293.52,175.485 297.063,175.485 300.605,174.328 304.147,175.485 307.689,175.485 311.232,176.643 314.774,178.792 318.316,180.941 321.858,185.24 325.401,189.704 328.943,194.003 332.485,202.765 336.027,214.669 339.57,231.037 343.112,250.712 346.654,272.536 350.196,296.509 353.738,313.869 357.281,326.931 360.823,331.395 364.365,329.08 367.907,324.781 371.45,319.325 374.992,318.333 378.534,319.325 382.076,324.781 385.619,329.08 389.161,332.387 392.703,333.544 396.245,333.544 399.788,333.544 403.33,333.544 406.872,335.693 410.414,335.693 413.956,336.851 417.499,337.843 421.041,337.843 424.583,339.992 428.125,339.992 431.668,341.149 435.21,341.149 438.752,342.307 442.294,342.307 445.837,344.456 449.379,344.456 452.921,344.456 456.463,344.456 460.005,345.448 463.548,345.448 467.09,345.448 470.632,345.448 474.174,345.448 477.717,345.448 481.259,346.605 484.801,345.448 488.343,344.456 491.886,344.456 495.428,344.456 498.97,342.307 502.512,341.149 506.055,342.307 509.597,342.307 513.139,344.456 516.681,344.456 520.224,344.456 523.766,345.448 527.308,344.456 530.85,344.456 534.392,344.456 537.935,344.456 541.477,344.456 545.019,344.456 548.561,344.456 552.104,342.307 555.646,341.149 559.188,342.307 562.73,342.307 566.273,342.307 569.815,342.307 573.357,341.149 576.899,342.307 580.442,342.307 583.984,344.456 587.526,344.456 591.068,344.456 594.61,342.307 598.153,342.307 601.695,342.307 605.237,342.307 608.779,342.307 612.322,342.307 615.864,341.149 619.406,342.307 622.948,341.149 626.491,341.149 630.033,341.149 633.575,341.149 637.117,341.149 640.659,341.149 644.202,339.992 647.744,339.992 651.286,339.992 654.828,339.992 658.371,339.992 661.913,339.992 665.455,337.843 668.997,336.851 672.54,333.544 676.082,328.088 679.624,319.325 683.166,310.563 686.709,301.965 690.251,293.203 693.793,287.747 697.335,283.448 700.878,280.141 704.42,276.835 707.962,275.677 711.504,274.685 715.046,272.536 718.589,271.379 722.131,268.072 725.673,265.923 729.215,263.773 732.758,262.616 736.3,261.624 739.842,261.624 743.384,261.624 746.927,259.475 750.469,259.475 754.011,258.317 757.553,258.317 761.095,258.317 764.638,258.317 768.18,258.317 771.722,258.317 775.264,258.317 778.807,258.317 782.349,259.475 785.891,259.475 789.433,259.475 792.976,258.317 796.518,258.317 800.06,258.317 803.602,259.475 807.145,258.317 810.687,258.317 814.229,258.317 817.771,258.317 821.314,258.317 824.856,258.317 828.398,258.317 831.94,258.317 835.482,258.317 839.025,258.317 842.567,258.317 846.109,258.317 849.651,258.317 853.194,258.317 856.736,258.317 860.278,258.317 863.82,258.317 867.363,258.317 870.905,258.317 874.447,258.317 877.989,258.317 881.531,259.475 885.074,258.317 888.616,258.317 892.158,258.317 895.7,258.317 899.243,257.16 902.785,255.011 906.327,254.019 909.869,252.861 913.412,252.861 916.954,252.861 920.496,252.861 924.038,252.861 927.581,254.019 931.123,254.019 934.665,254.019 938.207,254.019 941.749,254.019 945.292,255.011 948.834,255.011 952.376,255.011 955.918,255.011 959.461,255.011 963.003,255.011 966.545,255.011 970.087,255.011 973.63,257.16 977.172,257.16 980.714,257.16 984.256,257.16 987.799,257.16 991.341,257.16 994.883,257.16 998.425,255.011 1001.97,257.16 1005.51,257.16 1009.05,257.16 1012.59,257.16 1016.14,257.16 " />
</g>

<g fill="none" stroke="#dd5400" stroke-opacity="1" stroke-width="0.666667" stroke-linecap="butt" stroke-linejoin="round" transform="matrix(0.75,0,0,0.75,0,0)"
font-family="Helvetica" font-size="14" font-weight="400" font-style="normal" 
>
<polyline fill="none" vector-effect="none" points="166,917.667 169.542,802.418 173.084,678.968 176.627,579.23 180.169,498.716 183.711,433.832 187.253,381.459 190.796,339.159 194.338,305.227 197.88,277.784 201.422,255.648 204.965,238.047 208.507,223.681 212.049,212.167 215.591,202.846 219.134,195.043 222.676,188.891 226.218,183.91 229.76,179.857 233.302,176.565 236.845,173.898 240.387,171.71 243.929,169.907 247.471,168.412 251.014,167.055 254.556,165.926 258.098,165.357 261.64,164.828 265.183,164.097 268.725,163.25 272.267,162.609 275.809,162.328 279.352,162.267 282.894,162.131 286.436,161.717 289.978,161.238 293.52,160.999 297.063,160.78 300.605,160.563 304.147,161.666 307.689,165.758 311.232,171.882 314.774,179.943 318.316,189.237 321.858,199.553 325.401,210.606 328.943,221.999 332.485,233.923 336.027,245.811 339.57,256.866 343.112,267.037 346.654,276.065 350.196,284.047 353.738,290.951 357.281,297.374 360.823,304.333 364.365,311.673 367.907,319.806 371.45,327.964 374.992,335.356 378.534,341.515 382.076,345.968 385.619,349.106 389.161,351.217 392.703,353.282 396.245,355.421 399.788,357.71 403.33,359.884 406.872,361.759 410.414,363.159 413.956,364.194 417.499,365.303 421.041,366.086 424.583,366.829 428.125,367.412 431.668,367.72 435.21,368.16 438.752,368.42 442.294,368.641 445.837,368.684 449.379,368.631 452.921,368.344 456.463,368.322 460.005,368.22 463.548,367.955 467.09,367.549 470.632,367.239 474.174,366.877 477.717,366.46 481.259,366 484.801,365.392 488.343,364.783 491.886,364.536 495.428,364.158 498.97,363.589 502.512,363.231 506.055,363.146 509.597,362.684 513.139,361.948 516.681,361.251 520.224,360.446 523.766,360.019 527.308,359.505 530.85,358.972 534.392,358.667 537.935,358.194 541.477,357.692 545.019,357.189 548.561,356.675 552.104,356.162 555.646,355.85 559.188,355.813 562.73,355.38 566.273,354.691 569.815,354.244 573.357,353.841 576.899,353.548 580.442,353.237 583.984,352.673 587.526,352.117 591.068,351.426 594.61,351.076 598.153,350.922 601.695,350.914 605.237,350.522 608.779,350.111 612.322,349.723 615.864,349.343 619.406,349.091 622.948,348.815 626.491,348.393 630.033,348.252 633.575,347.922 637.117,347.6 640.659,347.298 644.202,347.013 647.744,346.855 651.286,346.806 654.828,346.587 658.371,345.768 661.913,343.474 665.455,340.037 668.997,335.898 672.54,331.283 676.082,326.115 679.624,321.087 683.166,316.413 686.709,312.095 690.251,307.695 693.793,303.356 697.335,298.945 700.878,294.2 704.42,289.586 707.962,285.27 711.504,281.207 715.046,277.202 718.589,273.701 722.131,270.681 725.673,268.042 729.215,265.953 732.758,263.938 736.3,262.09 739.842,260.308 743.384,258.641 746.927,257.044 750.469,255.848 754.011,254.985 757.553,254.006 761.095,253.252 764.638,252.44 768.18,251.731 771.722,251.118 775.264,250.583 778.807,250.11 782.349,249.688 785.891,249.208 789.433,248.685 792.976,248.362 796.518,248.184 800.06,248.091 803.602,247.787 807.145,247.386 810.687,247.039 814.229,246.963 817.771,246.709 821.314,246.45 824.856,246.199 828.398,245.97 831.94,245.769 835.482,245.567 839.025,245.364 842.567,245.158 846.109,244.951 849.651,244.742 853.194,244.532 856.736,244.322 860.278,244.111 863.82,243.914 867.363,243.738 870.905,243.558 874.447,243.371 877.989,243.178 881.531,242.982 885.074,242.67 888.616,242.383 892.158,242.38 895.7,242.186 899.243,241.975 902.785,241.875 906.327,242.07 909.869,242.336 913.412,242.453 916.954,242.527 920.496,242.454 924.038,242.437 927.581,242.504 931.123,242.515 934.665,242.475 938.207,242.673 941.749,242.89 945.292,243.107 948.834,243.224 952.376,243.266 955.918,243.467 959.461,243.656 963.003,243.848 966.545,244.031 970.087,244.193 973.63,244.35 977.172,244.282 980.714,244.066 984.256,244.208 987.799,244.324 991.341,244.402 994.883,244.439 998.425,244.467 1001.97,244.686 1005.51,244.827 1009.05,244.449 1012.59,244.433 1016.14,244.422 " />
</g>

<g fill="none" stroke="#edb120" stroke-opacity="1" stroke-width="0.666667" stroke-linecap="butt" stroke-linejoin="round" transform="matrix(0.75,0,0,0.75,0,0)"
font-family="Helvetica" font-size="14" font-weight="400" font-style="normal" 
>
<polyline fill="none" vector-effect="none" points="166,917.667 169.542,917.667 173.084,917.667 176.627,917.667 180.169,917.668 183.711,917.67 187.253,917.672 190.796,917.674 194.338,917.678 197.88,917.682 201.422,917.687 204.965,917.693 208.507,917.701 212.049,917.708 215.591,917.717 219.134,917.727 222.676,917.738 226.218,917.749 229.76,917.762 233.302,917.775 236.845,917.789 240.387,917.804 243.929,917.82 247.471,917.836 251.014,917.853 254.556,917.871 258.098,917.889 261.64,917.907 265.183,917.926 268.725,917.945 272.267,917.965 275.809,917.985 279.352,918.005 282.894,918.025 286.436,918.046 289.978,918.066 293.52,918.086 297.063,918.107 300.605,918.127 304.147,918.147 307.689,918.167 311.232,918.186 314.774,918.206 318.316,918.225 321.858,918.244 325.401,918.262 328.943,918.28 332.485,918.297 336.027,918.314 339.57,918.33 343.112,918.346 346.654,918.36 350.196,918.375 353.738,918.388 357.281,918.401 360.823,918.414 364.365,918.425 367.907,918.436 371.45,918.446 374.992,918.455 378.534,918.464 382.076,918.472 385.619,918.479 389.161,918.485 392.703,918.491 396.245,918.496 399.788,918.5 403.33,918.504 406.872,918.507 410.414,918.509 413.956,918.511 417.499,918.512 421.041,918.513 424.583,918.513 428.125,918.513 431.668,918.512 435.21,918.511 438.752,918.509 442.294,918.507 445.837,918.505 449.379,918.502 452.921,918.5 456.463,918.496 460.005,918.493 463.548,918.49 467.09,918.486 470.632,918.482 474.174,918.478 477.717,918.474 481.259,918.47 484.801,918.466 488.343,918.461 491.886,918.457 495.428,918.453 498.97,918.449 502.512,918.445 506.055,918.441 509.597,918.437 513.139,918.433 516.681,918.429 520.224,918.425 523.766,918.422 527.308,918.418 530.85,918.415 534.392,918.412 537.935,918.409 541.477,918.406 545.019,918.403 548.561,918.401 552.104,918.398 555.646,918.396 559.188,918.394 562.73,918.392 566.273,918.39 569.815,918.389 573.357,918.387 576.899,918.386 580.442,918.385 583.984,918.384 587.526,918.383 591.068,918.382 594.61,918.382 598.153,918.381 601.695,918.381 605.237,918.381 608.779,918.381 612.322,918.381 615.864,918.381 619.406,918.381 622.948,918.381 626.491,918.382 630.033,918.382 633.575,918.383 637.117,918.383 640.659,918.384 644.202,918.384 647.744,918.385 651.286,918.386 654.828,918.387 658.371,918.388 661.913,918.388 665.455,918.389 668.997,918.39 672.54,918.391 676.082,918.392 679.624,918.393 683.166,918.394 686.709,918.395 690.251,918.396 693.793,918.398 697.335,918.399 700.878,918.4 704.42,918.401 707.962,918.403 711.504,918.404 715.046,918.405 718.589,918.407 722.131,918.409 725.673,918.41 729.215,918.412 732.758,918.414 736.3,918.416 739.842,918.418 743.384,918.42 746.927,918.422 750.469,918.424 754.011,918.426 757.553,918.428 761.095,918.431 764.638,918.433 768.18,918.435 771.722,918.438 775.264,918.44 778.807,918.443 782.349,918.445 785.891,918.448 789.433,918.45 792.976,918.453 796.518,918.455 800.06,918.458 803.602,918.461 807.145,918.463 810.687,918.466 814.229,918.468 817.771,918.471 821.314,918.473 824.856,918.476 828.398,918.478 831.94,918.481 835.482,918.483 839.025,918.485 842.567,918.488 846.109,918.49 849.651,918.492 853.194,918.494 856.736,918.496 860.278,918.498 863.82,918.5 867.363,918.502 870.905,918.504 874.447,918.506 877.989,918.508 881.531,918.51 885.074,918.511 888.616,918.513 892.158,918.514 895.7,918.516 899.243,918.517 902.785,918.519 906.327,918.52 909.869,918.521 913.412,918.523 916.954,918.524 920.496,918.525 924.038,918.526 927.581,918.527 931.123,918.528 934.665,918.529 938.207,918.53 941.749,918.531 945.292,918.531 948.834,918.532 952.376,918.533 955.918,918.533 959.461,918.534 963.003,918.535 966.545,918.535 970.087,918.536 973.63,918.536 977.172,918.537 980.714,918.537 984.256,918.537 987.799,918.538 991.341,918.538 994.883,918.538 998.425,918.539 1001.97,918.539 1005.51,918.539 1009.05,918.539 1012.59,918.54 1016.14,918.54 " />
</g>

<g fill="none" stroke="#8516d1" stroke-opacity="1" stroke-width="0.666667" stroke-linecap="butt" stroke-linejoin="round" transform="matrix(0.75,0,0,0.75,0,0)"
font-family="Helvetica" font-size="14" font-weight="400" font-style="normal" 
>
<polyline fill="none" vector-effect="none" points="166,917.667 169.542,961.579 173.084,929.601 176.627,840.004 180.169,713.463 183.711,570.391 187.253,429.108 190.796,303.945 194.338,204.834 197.88,137.18 201.422,101.614 204.965,95.5917 208.507,113.912 212.049,149.544 215.591,195.386 219.134,244.278 222.676,290.19 226.218,328.8 229.76,357.303 233.302,374.509 236.845,380.679 240.387,377.196 243.929,366.182 247.471,350.141 251.014,331.687 254.556,312.886 258.098,295.735 261.64,281.854 265.183,271.939 268.725,265.949 272.267,263.448 275.809,263.916 279.352,266.761 282.894,271.24 286.436,276.432 289.978,281.27 293.52,285.178 297.063,287.904 300.605,289.264 304.147,288.486 307.689,286.64 311.232,285.352 314.774,285.81 318.316,288.915 321.858,294.862 325.401,303.717 328.943,314.991 332.485,327.973 336.027,342.332 339.57,357.205 343.112,371.574 346.654,384.532 350.196,395.285 353.738,403.458 357.281,408.45 360.823,410.739 364.365,411.172 367.907,410.775 371.45,410.919 374.992,412.171 378.534,414.752 382.076,418.096 385.619,421.524 389.161,424.182 392.703,425.659 396.245,426.109 399.788,425.874 403.33,425.381 406.872,424.838 410.414,424.43 413.956,423.877 417.499,423.298 421.041,422.83 424.583,422.328 428.125,422.024 431.668,421.677 435.21,421.328 438.752,420.995 442.294,420.708 445.837,420.363 449.379,420.05 452.921,419.542 456.463,418.838 460.005,418.133 463.548,417.469 467.09,416.701 470.632,415.833 474.174,414.96 477.717,414.083 481.259,413.2 484.801,412.379 488.343,411.376 491.886,410.323 495.428,409.496 498.97,408.764 502.512,407.901 506.055,407.168 509.597,406.79 513.139,406.342 516.681,405.827 520.224,405.062 523.766,404.081 527.308,403.196 530.85,402.21 534.392,401.268 537.935,400.482 541.477,399.74 545.019,399.034 548.561,398.348 552.104,397.674 555.646,396.875 559.188,396.212 562.73,395.9 566.273,395.509 569.815,394.932 573.357,394.316 576.899,393.611 580.442,393.056 583.984,392.476 587.526,391.897 591.068,391.134 594.61,390.22 598.153,389.252 601.695,388.557 605.237,388.123 608.779,387.696 612.322,387.265 615.864,386.814 619.406,386.274 622.948,385.883 626.491,385.384 630.033,384.859 633.575,384.417 637.117,383.936 640.659,383.426 644.202,382.898 647.744,382.298 651.286,381.808 654.828,381.442 658.371,381.432 661.913,381.437 665.455,380.681 668.997,378.564 672.54,375.108 676.082,370.21 679.624,363.953 683.166,356.782 686.709,349.455 690.251,342.52 693.793,336.135 697.335,330.649 700.878,325.943 704.42,321.757 707.962,317.999 711.504,314.792 715.046,311.99 718.589,309.351 722.131,307.068 725.673,305.036 729.215,303.419 732.758,302.26 736.3,301.429 739.842,300.79 743.384,300.228 746.927,299.618 750.469,298.745 754.011,297.967 757.553,297.227 761.095,296.495 764.638,295.812 768.18,295.09 771.722,294.36 775.264,293.644 778.807,292.962 782.349,292.324 785.891,291.792 789.433,291.212 792.976,290.582 796.518,289.939 800.06,289.469 803.602,289.14 807.145,288.858 810.687,288.387 814.229,287.904 817.771,287.509 821.314,287.081 824.856,286.621 828.398,286.126 831.94,285.615 835.482,285.11 839.025,284.613 842.567,284.125 846.109,283.645 849.651,283.175 853.194,282.712 856.736,282.256 860.278,281.804 863.82,281.347 867.363,280.899 870.905,280.471 874.447,280.056 877.989,279.648 881.531,279.243 885.074,278.9 888.616,278.373 892.158,277.847 895.7,277.443 899.243,277.041 902.785,276.57 906.327,276.084 909.869,275.841 913.412,275.785 916.954,275.865 920.496,275.975 924.038,275.988 927.581,275.917 931.123,275.869 934.665,275.683 938.207,275.393 941.749,275.149 945.292,274.96 948.834,274.887 952.376,274.77 955.918,274.613 959.461,274.504 963.003,274.424 966.545,274.379 970.087,274.348 973.63,274.322 977.172,274.409 980.714,274.261 984.256,273.917 987.799,273.604 991.341,273.32 994.883,273.057 998.425,272.803 1001.97,272.446 1005.51,272.431 1009.05,272.389 1012.59,272.12 1016.14,271.851 " />
</g>

<g fill="none" stroke="#3baa32" stroke-opacity="1" stroke-width="0.666667" stroke-linecap="butt" stroke-linejoin="round" transform="matrix(0.75,0,0,0.75,0,0)"
font-family="Helvetica" font-size="14" font-weight="400" font-style="normal" 
>
<polyline fill="none" vector-effect="none" points="166,336.024 169.542,335.859 173.084,337.016 176.627,335.859 180.169,335.693 183.711,335.693 187.253,334.371 190.796,335.363 194.338,335.363 197.88,333.875 201.422,336.189 204.965,334.867 208.507,334.701 212.049,335.859 215.591,333.213 219.134,334.371 222.676,334.205 226.218,334.04 229.76,333.875 233.302,333.875 236.845,333.709 240.387,333.544 243.929,333.379 247.471,333.213 251.014,331.725 254.556,334.04 258.098,334.04 261.64,332.883 265.183,331.395 268.725,331.229 272.267,332.221 275.809,333.213 279.352,333.213 282.894,332.056 286.436,330.568 289.978,331.725 293.52,331.56 297.063,331.395 300.605,331.229 304.147,346.605 307.689,356.36 311.232,369.752 314.774,380.829 318.316,391.741 321.858,403.645 325.401,412.739 328.943,423.816 332.485,434.728 336.027,440.184 339.57,446.136 343.112,449.443 346.654,452.419 350.196,454.899 353.738,455.56 357.281,464.157 360.823,469.448 364.365,479.037 367.907,486.973 371.45,490.115 374.992,492.925 378.534,489.784 382.076,489.123 385.619,485.485 389.161,487.304 392.703,488.792 396.245,491.437 399.788,493.091 403.33,493.587 406.872,493.917 410.414,491.933 413.956,494.413 417.499,493.421 421.041,493.587 424.583,494.744 428.125,492.429 431.668,494.579 435.21,493.256 438.752,494.248 442.294,492.76 445.837,493.752 449.379,491.107 452.921,492.925 456.463,492.429 460.005,492.099 463.548,490.611 467.09,491.107 470.632,490.611 474.174,490.115 477.717,489.619 481.259,489.123 484.801,487.304 488.343,489.288 491.886,488.792 495.428,487.304 498.97,486.973 502.512,488.957 506.055,487.8 509.597,484.989 513.139,485.981 516.681,483.336 520.224,485.155 523.766,484.824 527.308,483.171 530.85,484.824 534.392,483.501 537.935,483.005 541.477,482.675 545.019,482.179 548.561,481.848 552.104,481.352 555.646,483.501 559.188,482.179 562.73,479.533 566.273,480.525 569.815,480.36 573.357,480.029 576.899,481.021 580.442,478.376 583.984,479.368 587.526,476.723 591.068,478.541 594.61,478.045 598.153,480.195 601.695,477.715 605.237,477.384 608.779,477.219 612.322,476.888 615.864,476.723 619.406,477.715 622.948,475.069 626.491,477.384 630.033,475.896 633.575,475.731 637.117,475.565 640.659,475.4 644.202,475.235 647.744,476.392 651.286,475.235 654.828,475.069 658.371,467.96 661.913,461.677 665.455,455.395 668.997,451.592 672.54,444.317 676.082,441.011 679.624,437.869 683.166,436.712 686.709,432.744 690.251,429.272 693.793,426.792 697.335,421.005 700.878,417.864 704.42,415.053 707.962,413.565 711.504,409.763 715.046,408.275 718.589,408.275 722.131,406.125 725.673,407.613 729.215,405.629 732.758,405.133 736.3,403.645 739.842,402.984 743.384,401.661 746.927,401.165 750.469,403.315 754.011,400.669 757.553,401.827 761.095,400.504 764.638,400.339 768.18,400.173 771.722,400.008 775.264,399.843 778.807,399.677 782.349,399.512 785.891,398.189 789.433,399.016 792.976,398.851 796.518,400.008 800.06,398.52 803.602,398.355 807.145,397.032 810.687,399.181 814.229,397.859 817.771,397.693 821.314,397.528 824.856,397.363 828.398,397.363 831.94,397.197 835.482,397.032 839.025,396.867 842.567,396.701 846.109,396.536 849.651,396.371 853.194,396.205 856.736,396.04 860.278,395.875 863.82,395.875 867.363,395.709 870.905,395.544 874.447,395.379 877.989,395.213 881.531,395.048 885.074,393.56 888.616,395.875 892.158,394.552 895.7,394.387 899.243,394.221 902.785,395.379 906.327,396.536 909.869,395.544 913.412,396.04 916.954,395.048 920.496,395.213 924.038,395.544 927.581,395.875 931.123,394.717 934.665,396.205 938.207,396.371 941.749,396.536 945.292,396.701 948.834,395.709 952.376,396.867 955.918,396.867 959.461,397.032 963.003,397.197 966.545,397.197 970.087,397.363 973.63,397.363 977.172,395.048 980.714,397.363 984.256,397.197 987.799,397.197 991.341,397.032 994.883,397.032 998.425,397.032 1001.97,399.347 1005.51,394.717 1009.05,397.032 1012.59,396.867 1016.14,396.867 " />
</g>

<g fill="#ffffff" fill-opacity="1" stroke="none" transform="matrix(7.5e-05,0,0,7.5e-05,0,0)"
font-family="Helvetica" font-size="14" font-weight="400" font-style="normal" 
>
<path vector-effect="none" fill-rule="evenodd" d="M1.064e+07,9.96e+06 L1.064e+07,1.072e+07 L1.146e+07,1.072e+07 L1.146e+07,9.96e+06 L1.064e+07,9.96e+06"/>
</g>

<g fill="#1171be" fill-opacity="1" stroke="#1171be" stroke-opacity="1" stroke-width="0.666667" stroke-linecap="butt" stroke-linejoin="round" transform="matrix(0.75,0,0,0.75,0,0)"
font-family="Helvetica" font-size="14" font-weight="400" font-style="normal" 
>
<polyline fill="none" vector-effect="none" points="1068,1005 1108,1005 " />
</g>

<g fill="#dd5400" fill-opacity="1" stroke="#dd5400" stroke-opacity="1" stroke-width="0.666667" stroke-linecap="butt" stroke-linejoin="round" transform="matrix(0.75,0,0,0.75,0,0)"
font-family="Helvetica" font-size="14" font-weight="400" font-style="normal" 
>
<polyline fill="none" vector-effect="none" points="1068,1019.5 1108,1019.5 " />
</g>

<g fill="#edb120" fill-opacity="1" stroke="#edb120" stroke-opacity="1" stroke-width="0.666667" stroke-linecap="butt" stroke-linejoin="round" transform="matrix(0.75,0,0,0.75,0,0)"
font-family="Helvetica" font-size="14" font-weight="400" font-style="normal" 
>
<polyline fill="none" vector-effect="none" points="1068,1034 1108,1034 " />
</g>

<g fill="#8516d1" fill-opacity="1" stroke="#8516d1" stroke-opacity="1" stroke-width="0.666667" stroke-linecap="butt" stroke-linejoin="round" transform="matrix(0.75,0,0,0.75,0,0)"
font-family="Helvetica" font-size="14" font-weight="400" font-style="normal" 
>
<polyline fill="none" vector-effect="none" points="1068,1048.5 1108,1048.5 " />
</g>

<g fill="#3baa32" fill-opacity="1" stroke="#3baa32" stroke-opacity="1" stroke-width="0.666667" stroke-linecap="butt" stroke-linejoin="round" transform="matrix(0.75,0,0,0.75,0,0)"
font-family="Helvetica" font-size="14" font-weight="400" font-style="normal" 
>
<polyline fill="none" vector-effect="none" points="1068,1063 1108,1063 " />
</g>

<g fill="#212121" fill-opacity="1" stroke="#212121" stroke-opacity="1" stroke-width="1" stroke-linecap="square" stroke-linejoin="bevel" transform="matrix(0.75,0,0,0.75,833.25,756.75)"
font-family="Helvetica" font-size="12" font-weight="400" font-style="normal" 
>
<text fill="#212121" fill-opacity="1" stroke="none" xml:space="preserve" x="0" y="0" font-family="Helvetica" font-size="12" font-weight="400" font-style="normal" 
 >y</text>
</g>

<g fill="#212121" fill-opacity="1" stroke="#212121" stroke-opacity="1" stroke-width="1" stroke-linecap="square" stroke-linejoin="bevel" transform="matrix(0.75,0,0,0.75,833.25,767.625)"
font-family="Helvetica" font-size="12" font-weight="400" font-style="normal" 
>
<text fill="#212121" fill-opacity="1" stroke="none" xml:space="preserve" x="0" y="0" font-family="Helvetica" font-size="12" font-weight="400" font-style="normal" 
 >ym20</text>
</g>

<g fill="#212121" fill-opacity="1" stroke="#212121" stroke-opacity="1" stroke-width="1" stroke-linecap="square" stroke-linejoin="bevel" transform="matrix(0.75,0,0,0.75,833.25,778.5)"
font-family="Helvetica" font-size="12" font-weight="400" font-style="normal" 
>
<text fill="#212121" fill-opacity="1" stroke="none" xml:space="preserve" x="0" y="0" font-family="Helvetica" font-size="12" font-weight="400" font-style="normal" 
 >ym30</text>
</g>

<g fill="#212121" fill-opacity="1" stroke="#212121" stroke-opacity="1" stroke-width="1" stroke-linecap="square" stroke-linejoin="bevel" transform="matrix(0.75,0,0,0.75,833.25,789.375)"
font-family="Helvetica" font-size="12" font-weight="400" font-style="normal" 
>
<text fill="#212121" fill-opacity="1" stroke="none" xml:space="preserve" x="0" y="0" font-family="Helvetica" font-size="12" font-weight="400" font-style="normal" 
 >ymss</text>
</g>

<g fill="#212121" fill-opacity="1" stroke="#212121" stroke-opacity="1" stroke-width="1" stroke-linecap="square" stroke-linejoin="bevel" transform="matrix(0.75,0,0,0.75,833.25,800.25)"
font-family="Helvetica" font-size="12" font-weight="400" font-style="normal" 
>
<text fill="#212121" fill-opacity="1" stroke="none" xml:space="preserve" x="0" y="0" font-family="Helvetica" font-size="12" font-weight="400" font-style="normal" 
 >u</text>
</g>

<g fill="none" stroke="#212121" stroke-opacity="1" stroke-width="0.666667" stroke-linecap="butt" stroke-linejoin="miter" stroke-miterlimit="2" transform="matrix(0.75,0,0,0.75,0,0)"
font-family="Helvetica" font-size="12" font-weight="400" font-style="normal" 
>
<path vector-effect="none" fill-rule="evenodd" d="M1064,1072 L1064,996 L1146,996 L1146,1072 L1064,1072"/>
</g>
</g>
</svg>
