<?xml version="1.0" encoding="UTF-8" standalone="no"?>
<svg width="677.333mm" height="324.556mm"
 viewBox="0 0 1920 920"
 xmlns="http://www.w3.org/2000/svg" xmlns:xlink="http://www.w3.org/1999/xlink"  version="1.2" baseProfile="tiny">
<title>Qt SVG Document</title>
<desc>MATLAB, The MathWorks, Inc. Version 25.2.0.2998904 R2025b</desc>
<defs>
</defs>
<g fill="none" stroke="black" stroke-width="1" fill-rule="evenodd" stroke-linecap="square" stroke-linejoin="bevel" >

<g fill="#ffffff" fill-opacity="1" stroke="none" transform="matrix(0.75,0,0,0.75,0,0)"
font-family="MS Shell Dlg 2" font-size="8.25" font-weight="400" font-style="normal" 
>
<path vector-effect="none" fill-rule="evenodd" d="M0,0 L2561,0 L2561,1227 L0,1227 L0,0"/>
</g>

<g fill="#ffffff" fill-opacity="1" stroke="none" transform="matrix(7.5e-05,0,0,7.5e-05,0,0)"
font-family="MS Shell Dlg 2" font-size="8.25" font-weight="400" font-style="normal" 
>
<path vector-effect="none" fill-rule="evenodd" d="M3.33e+06,920000 L3.33e+06,1.091e+07 L2.317e+07,1.091e+07 L2.317e+07,920000 L3.33e+06,920000"/>
</g>

<g fill="#212121" fill-opacity="0.14902" stroke="#212121" stroke-opacity="0.14902" stroke-dasharray="1,3" stroke-dashoffset="0" stroke-width="0.666667" stroke-linecap="butt" stroke-linejoin="round" transform="matrix(0.75,0,0,0.75,0,0)"
font-family="MS Shell Dlg 2" font-size="8.25" font-weight="400" font-style="normal" 
>
<polyline fill="none" vector-effect="none" points="333,92 333,1091 " />
<polyline fill="none" vector-effect="none" points="403.857,92 403.857,1091 " />
<polyline fill="none" vector-effect="none" points="474.714,92 474.714,1091 " />
<polyline fill="none" vector-effect="none" points="545.571,92 545.571,1091 " />
<polyline fill="none" vector-effect="none" points="616.429,92 616.429,1091 " />
<polyline fill="none" vector-effect="none" points="687.286,92 687.286,1091 " />
<polyline fill="none" vector-effect="none" points="758.143,92 758.143,1091 " />
<polyline fill="none" vector-effect="none" points="829,92 829,1091 " />
<polyline fill="none" vector-effect="none" points="899.857,92 899.857,1091 " />
<polyline fill="none" vector-effect="none" points="970.714,92 970.714,1091 " />
<polyline fill="none" vector-effect="none" points="1041.57,92 1041.57,1091 " />
<polyline fill="none" vector-effect="none" points="1112.43,92 1112.43,1091 " />
<polyline fill="none" vector-effect="none" points="1183.29,92 1183.29,1091 " />
<polyline fill="none" vector-effect="none" points="1254.14,92 1254.14,1091 " />
<polyline fill="none" vector-effect="none" points="1325,92 1325,1091 " />
<polyline fill="none" vector-effect="none" points="1395.86,92 1395.86,1091 " />
<polyline fill="none" vector-effect="none" points="1466.71,92 1466.71,1091 " />
<polyline fill="none" vector-effect="none" points="1537.57,92 1537.57,1091 " />
<polyline fill="none" vector-effect="none" points="1608.43,92 1608.43,1091 " />
<polyline fill="none" vector-effect="none" points="1679.29,92 1679.29,1091 " />
<polyline fill="none" vector-effect="none" points="1750.14,92 1750.14,1091 " />
<polyline fill="none" vector-effect="none" points="1821,92 1821,1091 " />
<polyline fill="none" vector-effect="none" points="1891.86,92 1891.86,1091 " />
<polyline fill="none" vector-effect="none" points="1962.71,92 1962.71,1091 " />
<polyline fill="none" vector-effect="none" points="2033.57,92 2033.57,1091 " />
<polyline fill="none" vector-effect="none" points="2104.43,92 2104.43,1091 " />
<polyline fill="none" vector-effect="none" points="2175.29,92 2175.29,1091 " />
<polyline fill="none" vector-effect="none" points="2246.14,92 2246.14,1091 " />
<polyline fill="none" vector-effect="none" points="2317,92 2317,1091 " />
<polyline fill="none" vector-effect="none" points="333,1091 2317,1091 " />
<polyline fill="none" vector-effect="none" points="333,1057.7 2317,1057.7 " />
<polyline fill="none" vector-effect="none" points="333,1024.4 2317,1024.4 " />
<polyline fill="none" vector-effect="none" points="333,991.1 2317,991.1 " />
<polyline fill="none" vector-effect="none" points="333,957.8 2317,957.8 " />
<polyline fill="none" vector-effect="none" points="333,924.5 2317,924.5 " />
<polyline fill="none" vector-effect="none" points="333,891.2 2317,891.2 " />
<polyline fill="none" vector-effect="none" points="333,857.9 2317,857.9 " />
<polyline fill="none" vector-effect="none" points="333,824.6 2317,824.6 " />
<polyline fill="none" vector-effect="none" points="333,791.3 2317,791.3 " />
<polyline fill="none" vector-effect="none" points="333,758 2317,758 " />
<polyline fill="none" vector-effect="none" points="333,724.7 2317,724.7 " />
<polyline fill="none" vector-effect="none" points="333,691.4 2317,691.4 " />
<polyline fill="none" vector-effect="none" points="333,658.1 2317,658.1 " />
<polyline fill="none" vector-effect="none" points="333,624.8 2317,624.8 " />
<polyline fill="none" vector-effect="none" points="333,591.5 2317,591.5 " />
<polyline fill="none" vector-effect="none" points="333,558.2 2317,558.2 " />
<polyline fill="none" vector-effect="none" points="333,524.9 2317,524.9 " />
<polyline fill="none" vector-effect="none" points="333,491.6 2317,491.6 " />
<polyline fill="none" vector-effect="none" points="333,458.3 2317,458.3 " />
<polyline fill="none" vector-effect="none" points="333,425 2317,425 " />
<polyline fill="none" vector-effect="none" points="333,391.7 2317,391.7 " />
<polyline fill="none" vector-effect="none" points="333,358.4 2317,358.4 " />
<polyline fill="none" vector-effect="none" points="333,325.1 2317,325.1 " />
<polyline fill="none" vector-effect="none" points="333,291.8 2317,291.8 " />
<polyline fill="none" vector-effect="none" points="333,258.5 2317,258.5 " />
<polyline fill="none" vector-effect="none" points="333,225.2 2317,225.2 " />
<polyline fill="none" vector-effect="none" points="333,191.9 2317,191.9 " />
<polyline fill="none" vector-effect="none" points="333,158.6 2317,158.6 " />
<polyline fill="none" vector-effect="none" points="333,125.3 2317,125.3 " />
<polyline fill="none" vector-effect="none" points="333,92 2317,92 " />
</g>

<g fill="#212121" fill-opacity="1" stroke="#212121" stroke-opacity="1" stroke-width="1" stroke-linecap="square" stroke-linejoin="bevel" transform="matrix(0.75,0,0,0.75,985.125,844.25)"
font-family="Helvetica" font-size="14" font-weight="400" font-style="normal" 
>
<text fill="#212121" fill-opacity="1" stroke="none" xml:space="preserve" x="0" y="0" font-family="Helvetica" font-size="14" font-weight="400" font-style="normal" 
 >t [s]</text>
</g>

<g fill="#212121" fill-opacity="1" stroke="#212121" stroke-opacity="1" stroke-width="0.666667" stroke-linecap="square" stroke-linejoin="round" transform="matrix(0.75,0,0,0.75,0,0)"
font-family="Helvetica" font-size="14" font-weight="400" font-style="normal" 
>
<polyline fill="none" vector-effect="none" points="333,1091 2317,1091 " />
<polyline fill="none" vector-effect="none" points="333,92 2317,92 " />
<polyline fill="none" vector-effect="none" points="333,1091 333,1071.16 " />
<polyline fill="none" vector-effect="none" points="333,111.84 333,92 " />
<polyline fill="none" vector-effect="none" points="616.429,1091 616.429,1071.16 " />
<polyline fill="none" vector-effect="none" points="616.429,111.84 616.429,92 " />
<polyline fill="none" vector-effect="none" points="899.857,1091 899.857,1071.16 " />
<polyline fill="none" vector-effect="none" points="899.857,111.84 899.857,92 " />
<polyline fill="none" vector-effect="none" points="1183.29,1091 1183.29,1071.16 " />
<polyline fill="none" vector-effect="none" points="1183.29,111.84 1183.29,92 " />
<polyline fill="none" vector-effect="none" points="1466.71,1091 1466.71,1071.16 " />
<polyline fill="none" vector-effect="none" points="1466.71,111.84 1466.71,92 " />
<polyline fill="none" vector-effect="none" points="1750.14,1091 1750.14,1071.16 " />
<polyline fill="none" vector-effect="none" points="1750.14,111.84 1750.14,92 " />
<polyline fill="none" vector-effect="none" points="2033.57,1091 2033.57,1071.16 " />
<polyline fill="none" vector-effect="none" points="2033.57,111.84 2033.57,92 " />
<polyline fill="none" vector-effect="none" points="2317,1091 2317,1071.16 " />
<polyline fill="none" vector-effect="none" points="2317,111.84 2317,92 " />
</g>

<g fill="#212121" fill-opacity="1" stroke="#212121" stroke-opacity="1" stroke-width="1" stroke-linecap="square" stroke-linejoin="bevel" transform="matrix(0.75,0,0,0.75,247.125,831.25)"
font-family="Helvetica" font-size="13" font-weight="400" font-style="normal" 
>
<text fill="#212121" fill-opacity="1" stroke="none" xml:space="preserve" x="0" y="0" font-family="Helvetica" font-size="13" font-weight="400" font-style="normal" 
 >0</text>
</g>

<g fill="#212121" fill-opacity="1" stroke="#212121" stroke-opacity="1" stroke-width="1" stroke-linecap="square" stroke-linejoin="bevel" transform="matrix(0.75,0,0,0.75,459.696,831.25)"
font-family="Helvetica" font-size="13" font-weight="400" font-style="normal" 
>
<text fill="#212121" fill-opacity="1" stroke="none" xml:space="preserve" x="0" y="0" font-family="Helvetica" font-size="13" font-weight="400" font-style="normal" 
 >2</text>
</g>

<g fill="#212121" fill-opacity="1" stroke="#212121" stroke-opacity="1" stroke-width="1" stroke-linecap="square" stroke-linejoin="bevel" transform="matrix(0.75,0,0,0.75,672.268,831.25)"
font-family="Helvetica" font-size="13" font-weight="400" font-style="normal" 
>
<text fill="#212121" fill-opacity="1" stroke="none" xml:space="preserve" x="0" y="0" font-family="Helvetica" font-size="13" font-weight="400" font-style="normal" 
 >4</text>
</g>

<g fill="#212121" fill-opacity="1" stroke="#212121" stroke-opacity="1" stroke-width="1" stroke-linecap="square" stroke-linejoin="bevel" transform="matrix(0.75,0,0,0.75,884.839,831.25)"
font-family="Helvetica" font-size="13" font-weight="400" font-style="normal" 
>
<text fill="#212121" fill-opacity="1" stroke="none" xml:space="preserve" x="0" y="0" font-family="Helvetica" font-size="13" font-weight="400" font-style="normal" 
 >6</text>
</g>

<g fill="#212121" fill-opacity="1" stroke="#212121" stroke-opacity="1" stroke-width="1" stroke-linecap="square" stroke-linejoin="bevel" transform="matrix(0.75,0,0,0.75,1097.41,831.25)"
font-family="Helvetica" font-size="13" font-weight="400" font-style="normal" 
>
<text fill="#212121" fill-opacity="1" stroke="none" xml:space="preserve" x="0" y="0" font-family="Helvetica" font-size="13" font-weight="400" font-style="normal" 
 >8</text>
</g>

<g fill="#212121" fill-opacity="1" stroke="#212121" stroke-opacity="1" stroke-width="1" stroke-linecap="square" stroke-linejoin="bevel" transform="matrix(0.75,0,0,0.75,1307.36,831.25)"
font-family="Helvetica" font-size="13" font-weight="400" font-style="normal" 
>
<text fill="#212121" fill-opacity="1" stroke="none" xml:space="preserve" x="0" y="0" font-family="Helvetica" font-size="13" font-weight="400" font-style="normal" 
 >10</text>
</g>

<g fill="#212121" fill-opacity="1" stroke="#212121" stroke-opacity="1" stroke-width="1" stroke-linecap="square" stroke-linejoin="bevel" transform="matrix(0.75,0,0,0.75,1519.93,831.25)"
font-family="Helvetica" font-size="13" font-weight="400" font-style="normal" 
>
<text fill="#212121" fill-opacity="1" stroke="none" xml:space="preserve" x="0" y="0" font-family="Helvetica" font-size="13" font-weight="400" font-style="normal" 
 >12</text>
</g>

<g fill="#212121" fill-opacity="1" stroke="#212121" stroke-opacity="1" stroke-width="1" stroke-linecap="square" stroke-linejoin="bevel" transform="matrix(0.75,0,0,0.75,1732.5,831.25)"
font-family="Helvetica" font-size="13" font-weight="400" font-style="normal" 
>
<text fill="#212121" fill-opacity="1" stroke="none" xml:space="preserve" x="0" y="0" font-family="Helvetica" font-size="13" font-weight="400" font-style="normal" 
 >14</text>
</g>

<g fill="#212121" fill-opacity="1" stroke="#212121" stroke-opacity="1" stroke-width="1" stroke-linecap="square" stroke-linejoin="bevel" transform="matrix(0,-0.75,0.75,0,225.5,462.75)"
font-family="Helvetica" font-size="14" font-weight="400" font-style="normal" 
>
<text fill="#212121" fill-opacity="1" stroke="none" xml:space="preserve" x="0" y="0" font-family="Helvetica" font-size="14" font-weight="400" font-style="normal" 
 >value [-]</text>
</g>

<g fill="#212121" fill-opacity="1" stroke="#212121" stroke-opacity="1" stroke-width="0.666667" stroke-linecap="square" stroke-linejoin="round" transform="matrix(0.75,0,0,0.75,0,0)"
font-family="Helvetica" font-size="14" font-weight="400" font-style="normal" 
>
<polyline fill="none" vector-effect="none" points="333,1091 333,92 " />
<polyline fill="none" vector-effect="none" points="2317,1091 2317,92 " />
<polyline fill="none" vector-effect="none" points="333,1091 352.84,1091 " />
<polyline fill="none" vector-effect="none" points="2297.16,1091 2317,1091 " />
<polyline fill="none" vector-effect="none" points="333,924.5 352.84,924.5 " />
<polyline fill="none" vector-effect="none" points="2297.16,924.5 2317,924.5 " />
<polyline fill="none" vector-effect="none" points="333,758 352.84,758 " />
<polyline fill="none" vector-effect="none" points="2297.16,758 2317,758 " />
<polyline fill="none" vector-effect="none" points="333,591.5 352.84,591.5 " />
<polyline fill="none" vector-effect="none" points="2297.16,591.5 2317,591.5 " />
<polyline fill="none" vector-effect="none" points="333,425 352.84,425 " />
<polyline fill="none" vector-effect="none" points="2297.16,425 2317,425 " />
<polyline fill="none" vector-effect="none" points="333,258.5 352.84,258.5 " />
<polyline fill="none" vector-effect="none" points="2297.16,258.5 2317,258.5 " />
<polyline fill="none" vector-effect="none" points="333,92 352.84,92 " />
<polyline fill="none" vector-effect="none" points="2297.16,92 2317,92 " />
</g>

<g fill="#212121" fill-opacity="1" stroke="#212121" stroke-opacity="1" stroke-width="1" stroke-linecap="square" stroke-linejoin="bevel" transform="matrix(0.75,0,0,0.75,232.25,821.625)"
font-family="Helvetica" font-size="13" font-weight="400" font-style="normal" 
>
<text fill="#212121" fill-opacity="1" stroke="none" xml:space="preserve" x="0" y="0" font-family="Helvetica" font-size="13" font-weight="400" font-style="normal" 
 >-10</text>
</g>

<g fill="#212121" fill-opacity="1" stroke="#212121" stroke-opacity="1" stroke-width="1" stroke-linecap="square" stroke-linejoin="bevel" transform="matrix(0.75,0,0,0.75,240.5,696.75)"
font-family="Helvetica" font-size="13" font-weight="400" font-style="normal" 
>
<text fill="#212121" fill-opacity="1" stroke="none" xml:space="preserve" x="0" y="0" font-family="Helvetica" font-size="13" font-weight="400" font-style="normal" 
 >0</text>
</g>

<g fill="#212121" fill-opacity="1" stroke="#212121" stroke-opacity="1" stroke-width="1" stroke-linecap="square" stroke-linejoin="bevel" transform="matrix(0.75,0,0,0.75,235.25,571.875)"
font-family="Helvetica" font-size="13" font-weight="400" font-style="normal" 
>
<text fill="#212121" fill-opacity="1" stroke="none" xml:space="preserve" x="0" y="0" font-family="Helvetica" font-size="13" font-weight="400" font-style="normal" 
 >10</text>
</g>

<g fill="#212121" fill-opacity="1" stroke="#212121" stroke-opacity="1" stroke-width="1" stroke-linecap="square" stroke-linejoin="bevel" transform="matrix(0.75,0,0,0.75,235.25,447)"
font-family="Helvetica" font-size="13" font-weight="400" font-style="normal" 
>
<text fill="#212121" fill-opacity="1" stroke="none" xml:space="preserve" x="0" y="0" font-family="Helvetica" font-size="13" font-weight="400" font-style="normal" 
 >20</text>
</g>

<g fill="#212121" fill-opacity="1" stroke="#212121" stroke-opacity="1" stroke-width="1" stroke-linecap="square" stroke-linejoin="bevel" transform="matrix(0.75,0,0,0.75,235.25,322.125)"
font-family="Helvetica" font-size="13" font-weight="400" font-style="normal" 
>
<text fill="#212121" fill-opacity="1" stroke="none" xml:space="preserve" x="0" y="0" font-family="Helvetica" font-size="13" font-weight="400" font-style="normal" 
 >30</text>
</g>

<g fill="#212121" fill-opacity="1" stroke="#212121" stroke-opacity="1" stroke-width="1" stroke-linecap="square" stroke-linejoin="bevel" transform="matrix(0.75,0,0,0.75,235.25,197.25)"
font-family="Helvetica" font-size="13" font-weight="400" font-style="normal" 
>
<text fill="#212121" fill-opacity="1" stroke="none" xml:space="preserve" x="0" y="0" font-family="Helvetica" font-size="13" font-weight="400" font-style="normal" 
 >40</text>
</g>

<g fill="#212121" fill-opacity="1" stroke="#212121" stroke-opacity="1" stroke-width="1" stroke-linecap="square" stroke-linejoin="bevel" transform="matrix(0.75,0,0,0.75,235.25,72.375)"
font-family="Helvetica" font-size="13" font-weight="400" font-style="normal" 
>
<text fill="#212121" fill-opacity="1" stroke="none" xml:space="preserve" x="0" y="0" font-family="Helvetica" font-size="13" font-weight="400" font-style="normal" 
 >50</text>
</g>

<g fill="#212121" fill-opacity="1" stroke="#212121" stroke-opacity="1" stroke-width="1" stroke-linecap="square" stroke-linejoin="bevel" transform="matrix(0.75,0,0,0.75,936,50.625)"
font-family="Helvetica" font-size="14" font-weight="700" font-style="normal" 
>
<text fill="#212121" fill-opacity="1" stroke="none" xml:space="preserve" x="0" y="0" font-family="Helvetica" font-size="14" font-weight="700" font-style="normal" 
 >Model/Real response</text>
</g>

<g fill="#212121" fill-opacity="1" stroke="#212121" stroke-opacity="1" stroke-width="1" stroke-linecap="square" stroke-linejoin="bevel" transform="matrix(0.75,0,0,0.75,860.25,64.6875)"
font-family="Helvetica" font-size="14" font-weight="400" font-style="normal" 
>
<text fill="#212121" fill-opacity="1" stroke="none" xml:space="preserve" x="0" y="0" font-family="Helvetica" font-size="14" font-weight="400" font-style="normal" 
 >MSE20: 0.7544 | MSE30: 910.2128  MSESS: 0.0047062</text>
</g>

<g fill="none" stroke="#1171be" stroke-opacity="1" stroke-width="0.666667" stroke-linecap="butt" stroke-linejoin="round" transform="matrix(0.75,0,0,0.75,0,0)"
font-family="Helvetica" font-size="14" font-weight="400" font-style="normal" 
>
<polyline fill="none" vector-effect="none" points="333,177.082 340.092,175.916 347.183,175.916 354.275,175.916 361.366,175.916 368.458,177.082 375.55,177.082 382.641,177.082 389.733,178.247 396.825,177.082 403.916,177.082 411.008,177.082 418.099,175.916 425.191,177.082 432.283,177.082 439.374,177.082 446.466,177.082 453.558,177.082 460.649,177.082 467.741,177.082 474.832,177.082 481.924,177.082 489.016,177.082 496.107,178.247 503.199,177.082 510.29,175.916 517.382,175.916 524.474,177.082 531.565,178.247 538.657,178.247 545.749,177.082 552.84,175.916 559.932,175.916 567.023,177.082 574.115,177.082 581.207,177.082 588.298,177.082 595.39,177.082 602.482,175.916 609.573,177.082 616.665,177.082 623.756,178.247 630.848,180.412 637.94,182.576 645.031,186.905 652.123,191.401 659.214,195.729 666.306,204.554 673.398,216.542 680.489,233.026 687.581,252.839 694.673,274.817 701.764,298.96 708.856,316.442 715.947,329.596 723.039,334.091 730.131,331.76 737.222,327.431 744.314,321.937 751.406,320.938 758.497,321.937 765.589,327.431 772.68,331.76 779.772,335.09 786.864,336.255 793.955,336.255 801.047,336.255 808.138,336.255 815.23,338.42 822.322,338.42 829.413,339.585 836.505,340.585 843.597,340.585 850.688,342.749 857.78,342.749 864.871,343.915 871.963,343.915 879.055,345.08 886.146,345.08 893.238,347.245 900.33,347.245 907.421,347.245 914.513,347.245 921.604,348.243 928.696,348.243 935.788,348.243 942.879,348.243 949.971,348.243 957.062,348.243 964.154,349.409 971.246,348.243 978.337,347.245 985.429,347.245 992.521,347.245 999.612,345.08 1006.7,343.915 1013.8,345.08 1020.89,345.08 1027.98,347.245 1035.07,347.245 1042.16,347.245 1049.25,348.243 1056.35,347.245 1063.44,347.245 1070.53,347.245 1077.62,347.245 1084.71,347.245 1091.8,347.245 1098.89,347.245 1105.99,345.08 1113.08,343.915 1120.17,345.08 1127.26,345.08 1134.35,345.08 1141.44,345.08 1148.54,343.915 1155.63,345.08 1162.72,345.08 1169.81,347.245 1176.9,347.245 1183.99,347.245 1191.09,345.08 1198.18,345.08 1205.27,345.08 1212.36,345.08 1219.45,345.08 1226.54,345.08 1233.64,343.915 1240.73,345.08 1247.82,343.915 1254.91,343.915 1262,343.915 1269.09,343.915 1276.19,343.915 1283.28,343.915 1290.37,342.749 1297.46,342.749 1304.55,342.749 1311.64,342.749 1318.73,342.749 1325.83,342.749 1332.92,340.585 1340.01,339.585 1347.1,336.255 1354.19,330.761 1361.28,321.937 1368.38,313.112 1375.47,304.454 1382.56,295.629 1389.65,290.135 1396.74,285.806 1403.83,282.476 1410.93,279.146 1418.02,277.98 1425.11,276.982 1432.2,274.817 1439.29,273.651 1446.38,270.321 1453.48,268.157 1460.57,265.993 1467.66,264.827 1474.75,263.828 1481.84,263.828 1488.93,263.828 1496.03,261.663 1503.12,261.663 1510.21,260.498 1517.3,260.498 1524.39,260.498 1531.48,260.498 1538.58,260.498 1545.67,260.498 1552.76,260.498 1559.85,260.498 1566.94,261.663 1574.03,261.663 1581.12,261.663 1588.22,260.498 1595.31,260.498 1602.4,260.498 1609.49,261.663 1616.58,260.498 1623.67,260.498 1630.77,260.498 1637.86,260.498 1644.95,260.498 1652.04,260.498 1659.13,260.498 1666.22,260.498 1673.32,260.498 1680.41,260.498 1687.5,260.498 1694.59,260.498 1701.68,260.498 1708.77,260.498 1715.87,260.498 1722.96,260.498 1730.05,260.498 1737.14,260.498 1744.23,260.498 1751.32,260.498 1758.42,260.498 1765.51,261.663 1772.6,260.498 1779.69,260.498 1786.78,260.498 1793.87,260.498 1800.97,259.332 1808.06,257.168 1815.15,256.169 1822.24,255.004 1829.33,255.004 1836.42,255.004 1843.51,255.004 1850.61,255.004 1857.7,256.169 1864.79,256.169 1871.88,256.169 1878.97,256.169 1886.06,256.169 1893.16,257.168 1900.25,257.168 1907.34,257.168 1914.43,257.168 1921.52,257.168 1928.61,257.168 1935.71,257.168 1942.8,257.168 1949.89,259.332 1956.98,259.332 1964.07,259.332 1971.16,259.332 1978.26,259.332 1985.35,259.332 1992.44,259.332 1999.53,257.168 2006.62,259.332 2013.71,259.332 2020.81,259.332 2027.9,259.332 2034.99,259.332 " />
</g>

<g fill="none" stroke="#dd5400" stroke-opacity="1" stroke-width="0.666667" stroke-linecap="butt" stroke-linejoin="round" transform="matrix(0.75,0,0,0.75,0,0)"
font-family="Helvetica" font-size="14" font-weight="400" font-style="normal" 
>
<polyline fill="none" vector-effect="none" points="333,924.5 340.092,808.438 347.183,684.117 354.275,583.675 361.366,502.593 368.458,437.251 375.55,384.509 382.641,341.91 389.733,307.739 396.825,280.102 403.916,257.81 411.008,240.085 418.099,225.617 425.191,214.022 432.283,204.636 439.374,196.777 446.466,190.582 453.558,185.566 460.649,181.484 467.741,178.169 474.832,175.483 481.924,173.28 489.016,171.463 496.107,169.959 503.199,168.592 510.29,167.455 517.382,166.882 524.474,166.349 531.565,165.613 538.657,164.76 545.749,164.114 552.84,163.831 559.932,163.77 567.023,163.633 574.115,163.216 581.207,162.734 588.298,162.493 595.39,162.273 602.482,162.054 609.573,163.165 616.665,167.285 623.756,173.452 630.848,181.571 637.94,190.93 645.031,201.319 652.123,212.45 659.214,223.923 666.306,235.932 673.398,247.903 680.489,259.036 687.581,269.279 694.673,278.371 701.764,286.409 708.856,293.362 715.947,299.83 723.039,306.839 730.131,314.231 737.222,322.42 744.314,330.636 751.406,338.08 758.497,344.283 765.589,348.767 772.68,351.927 779.772,354.054 786.864,356.133 793.955,358.286 801.047,360.592 808.138,362.781 815.23,364.67 822.322,366.079 829.413,367.121 836.505,368.238 843.597,369.027 850.688,369.775 857.78,370.362 864.871,370.672 871.963,371.116 879.055,371.378 886.146,371.6 893.238,371.644 900.33,371.59 907.421,371.302 914.513,371.279 921.604,371.176 928.696,370.909 935.788,370.501 942.879,370.189 949.971,369.823 957.062,369.404 964.154,368.94 971.246,368.328 978.337,367.715 985.429,367.467 992.521,367.085 999.612,366.513 1006.7,366.152 1013.8,366.066 1020.89,365.601 1027.98,364.86 1035.07,364.158 1042.16,363.347 1049.25,362.917 1056.35,362.4 1063.44,361.863 1070.53,361.556 1077.62,361.079 1084.71,360.574 1091.8,360.067 1098.89,359.55 1105.99,359.033 1113.08,358.719 1120.17,358.682 1127.26,358.246 1134.35,357.552 1141.44,357.101 1148.54,356.696 1155.63,356.401 1162.72,356.087 1169.81,355.52 1176.9,354.959 1183.99,354.263 1191.09,353.912 1198.18,353.756 1205.27,353.748 1212.36,353.353 1219.45,352.94 1226.54,352.548 1233.64,352.166 1240.73,351.912 1247.82,351.635 1254.91,351.209 1262,351.068 1269.09,350.735 1276.19,350.41 1283.28,350.107 1290.37,349.82 1297.46,349.66 1304.55,349.611 1311.64,349.391 1318.73,348.566 1325.83,346.255 1332.92,342.794 1340.01,338.626 1347.1,333.979 1354.19,328.774 1361.28,323.711 1368.38,319.004 1375.47,314.655 1382.56,310.224 1389.65,305.855 1396.74,301.412 1403.83,296.634 1410.93,291.987 1418.02,287.641 1425.11,283.549 1432.2,279.516 1439.29,275.991 1446.38,272.949 1453.48,270.291 1460.57,268.187 1467.66,266.159 1474.75,264.297 1481.84,262.503 1488.93,260.824 1496.03,259.216 1503.12,258.011 1510.21,257.142 1517.3,256.156 1524.39,255.397 1531.48,254.579 1538.58,253.865 1545.67,253.248 1552.76,252.709 1559.85,252.233 1566.94,251.808 1574.03,251.324 1581.12,250.798 1588.22,250.472 1595.31,250.293 1602.4,250.2 1609.49,249.893 1616.58,249.489 1623.67,249.14 1630.77,249.064 1637.86,248.808 1644.95,248.547 1652.04,248.294 1659.13,248.063 1666.22,247.861 1673.32,247.658 1680.41,247.453 1687.5,247.246 1694.59,247.037 1701.68,246.827 1708.77,246.616 1715.87,246.404 1722.96,246.191 1730.05,245.993 1737.14,245.816 1744.23,245.634 1751.32,245.446 1758.42,245.252 1765.51,245.054 1772.6,244.74 1779.69,244.451 1786.78,244.448 1793.87,244.253 1800.97,244.04 1808.06,243.94 1815.15,244.136 1822.24,244.404 1829.33,244.521 1836.42,244.597 1843.51,244.523 1850.61,244.505 1857.7,244.573 1864.79,244.584 1871.88,244.544 1878.97,244.744 1886.06,244.962 1893.16,245.18 1900.25,245.298 1907.34,245.34 1914.43,245.542 1921.52,245.733 1928.61,245.927 1935.71,246.11 1942.8,246.274 1949.89,246.432 1956.98,246.363 1964.07,246.146 1971.16,246.289 1978.26,246.406 1985.35,246.484 1992.44,246.521 1999.53,246.55 2006.62,246.77 2013.71,246.912 2020.81,246.532 2027.9,246.516 2034.99,246.505 " />
</g>

<g fill="none" stroke="#edb120" stroke-opacity="1" stroke-width="0.666667" stroke-linecap="butt" stroke-linejoin="round" transform="matrix(0.75,0,0,0.75,0,0)"
font-family="Helvetica" font-size="14" font-weight="400" font-style="normal" 
>
<polyline fill="none" vector-effect="none" points="333,924.5 340.092,924.5 347.183,924.5 354.275,924.501 361.366,924.502 368.458,924.503 375.55,924.505 382.641,924.508 389.733,924.511 396.825,924.516 403.916,924.521 411.008,924.527 418.099,924.534 425.191,924.542 432.283,924.551 439.374,924.561 446.466,924.572 453.558,924.583 460.649,924.596 467.741,924.609 474.832,924.624 481.924,924.639 489.016,924.654 496.107,924.671 503.199,924.688 510.29,924.705 517.382,924.724 524.474,924.742 531.565,924.761 538.657,924.781 545.749,924.801 552.84,924.821 559.932,924.841 567.023,924.861 574.115,924.882 581.207,924.902 588.298,924.923 595.39,924.943 602.482,924.963 609.573,924.984 616.665,925.004 623.756,925.023 630.848,925.043 637.94,925.062 645.031,925.081 652.123,925.099 659.214,925.117 666.306,925.135 673.398,925.152 680.489,925.168 687.581,925.184 694.673,925.199 701.764,925.213 708.856,925.227 715.947,925.24 723.039,925.252 730.131,925.264 737.222,925.275 744.314,925.285 751.406,925.294 758.497,925.303 765.589,925.311 772.68,925.318 779.772,925.324 786.864,925.33 793.955,925.335 801.047,925.339 808.138,925.343 815.23,925.346 822.322,925.349 829.413,925.35 836.505,925.352 843.597,925.352 850.688,925.352 857.78,925.352 864.871,925.351 871.963,925.35 879.055,925.349 886.146,925.347 893.238,925.344 900.33,925.342 907.421,925.339 914.513,925.336 921.604,925.332 928.696,925.329 935.788,925.325 942.879,925.321 949.971,925.317 957.062,925.313 964.154,925.309 971.246,925.305 978.337,925.3 985.429,925.296 992.521,925.292 999.612,925.288 1006.7,925.284 1013.8,925.279 1020.89,925.275 1027.98,925.272 1035.07,925.268 1042.16,925.264 1049.25,925.26 1056.35,925.257 1063.44,925.254 1070.53,925.25 1077.62,925.247 1084.71,925.245 1091.8,925.242 1098.89,925.239 1105.99,925.237 1113.08,925.235 1120.17,925.232 1127.26,925.231 1134.35,925.229 1141.44,925.227 1148.54,925.226 1155.63,925.224 1162.72,925.223 1169.81,925.222 1176.9,925.221 1183.99,925.221 1191.09,925.22 1198.18,925.22 1205.27,925.219 1212.36,925.219 1219.45,925.219 1226.54,925.219 1233.64,925.219 1240.73,925.219 1247.82,925.22 1254.91,925.22 1262,925.22 1269.09,925.221 1276.19,925.221 1283.28,925.222 1290.37,925.223 1297.46,925.224 1304.55,925.224 1311.64,925.225 1318.73,925.226 1325.83,925.227 1332.92,925.228 1340.01,925.229 1347.1,925.23 1354.19,925.231 1361.28,925.232 1368.38,925.233 1375.47,925.234 1382.56,925.235 1389.65,925.236 1396.74,925.237 1403.83,925.238 1410.93,925.24 1418.02,925.241 1425.11,925.243 1432.2,925.244 1439.29,925.246 1446.38,925.247 1453.48,925.249 1460.57,925.251 1467.66,925.252 1474.75,925.254 1481.84,925.256 1488.93,925.258 1496.03,925.26 1503.12,925.262 1510.21,925.265 1517.3,925.267 1524.39,925.269 1531.48,925.272 1538.58,925.274 1545.67,925.276 1552.76,925.279 1559.85,925.281 1566.94,925.284 1574.03,925.287 1581.12,925.289 1588.22,925.292 1595.31,925.294 1602.4,925.297 1609.49,925.299 1616.58,925.302 1623.67,925.305 1630.77,925.307 1637.86,925.31 1644.95,925.312 1652.04,925.315 1659.13,925.317 1666.22,925.32 1673.32,925.322 1680.41,925.324 1687.5,925.327 1694.59,925.329 1701.68,925.331 1708.77,925.333 1715.87,925.336 1722.96,925.338 1730.05,925.34 1737.14,925.342 1744.23,925.344 1751.32,925.345 1758.42,925.347 1765.51,925.349 1772.6,925.351 1779.69,925.352 1786.78,925.354 1793.87,925.355 1800.97,925.357 1808.06,925.358 1815.15,925.359 1822.24,925.361 1829.33,925.362 1836.42,925.363 1843.51,925.364 1850.61,925.365 1857.7,925.366 1864.79,925.367 1871.88,925.368 1878.97,925.369 1886.06,925.37 1893.16,925.371 1900.25,925.371 1907.34,925.372 1914.43,925.373 1921.52,925.373 1928.61,925.374 1935.71,925.375 1942.8,925.375 1949.89,925.376 1956.98,925.376 1964.07,925.376 1971.16,925.377 1978.26,925.377 1985.35,925.378 1992.44,925.378 1999.53,925.378 2006.62,925.378 2013.71,925.379 2020.81,925.379 2027.9,925.379 2034.99,925.379 " />
</g>

<g fill="none" stroke="#8516d1" stroke-opacity="1" stroke-width="0.666667" stroke-linecap="butt" stroke-linejoin="round" transform="matrix(0.75,0,0,0.75,0,0)"
font-family="Helvetica" font-size="14" font-weight="400" font-style="normal" 
>
<polyline fill="none" vector-effect="none" points="333,924.5 340.092,968.723 347.183,936.519 354.275,846.29 361.366,718.855 368.458,574.774 375.55,432.494 382.641,306.448 389.733,206.637 396.825,138.506 403.916,102.689 411.008,96.6241 418.099,115.074 425.191,150.957 432.283,197.123 439.374,246.359 446.466,292.595 453.558,331.478 460.649,360.183 467.741,377.509 474.832,383.723 481.924,380.215 489.016,369.124 496.107,352.97 503.199,334.386 510.29,315.452 517.382,298.18 524.474,284.2 531.565,274.216 538.657,268.183 545.749,265.665 552.84,266.136 559.932,269.001 567.023,273.512 574.115,278.74 581.207,283.613 588.298,287.548 595.39,290.293 602.482,291.663 609.573,290.879 616.665,289.02 623.756,287.723 630.848,288.185 637.94,291.311 645.031,297.301 652.123,306.218 659.214,317.572 666.306,330.645 673.398,345.106 680.489,360.083 687.581,374.554 694.673,387.603 701.764,398.432 708.856,406.663 715.947,411.69 723.039,413.995 730.131,414.431 737.222,414.031 744.314,414.177 751.406,415.437 758.497,418.036 765.589,421.404 772.68,424.856 779.772,427.533 786.864,429.021 793.955,429.474 801.047,429.237 808.138,428.74 815.23,428.194 822.322,427.783 829.413,427.226 836.505,426.643 843.597,426.171 850.688,425.666 857.78,425.36 864.871,425.01 871.963,424.659 879.055,424.324 886.146,424.035 893.238,423.687 900.33,423.372 907.421,422.861 914.513,422.151 921.604,421.441 928.696,420.772 935.788,419.999 942.879,419.125 949.971,418.246 957.062,417.363 964.154,416.474 971.246,415.647 978.337,414.637 985.429,413.576 992.521,412.744 999.612,412.006 1006.7,411.137 1013.8,410.399 1020.89,410.018 1027.98,409.567 1035.07,409.049 1042.16,408.278 1049.25,407.29 1056.35,406.399 1063.44,405.406 1070.53,404.457 1077.62,403.666 1084.71,402.918 1091.8,402.208 1098.89,401.517 1105.99,400.839 1113.08,400.033 1120.17,399.366 1127.26,399.052 1134.35,398.658 1141.44,398.077 1148.54,397.456 1155.63,396.746 1162.72,396.188 1169.81,395.603 1176.9,395.02 1183.99,394.252 1191.09,393.332 1198.18,392.357 1205.27,391.656 1212.36,391.22 1219.45,390.79 1226.54,390.356 1233.64,389.901 1240.73,389.358 1247.82,388.963 1254.91,388.462 1262,387.932 1269.09,387.488 1276.19,387.003 1283.28,386.489 1290.37,385.957 1297.46,385.354 1304.55,384.86 1311.64,384.491 1318.73,384.481 1325.83,384.486 1332.92,383.725 1340.01,381.593 1347.1,378.112 1354.19,373.18 1361.28,366.879 1368.38,359.658 1375.47,352.279 1382.56,345.295 1389.65,338.864 1396.74,333.34 1403.83,328.601 1410.93,324.386 1418.02,320.601 1425.11,317.371 1432.2,314.549 1439.29,311.892 1446.38,309.593 1453.48,307.546 1460.57,305.917 1467.66,304.751 1474.75,303.914 1481.84,303.271 1488.93,302.704 1496.03,302.09 1503.12,301.21 1510.21,300.428 1517.3,299.682 1524.39,298.945 1531.48,298.257 1538.58,297.531 1545.67,296.795 1552.76,296.074 1559.85,295.387 1566.94,294.744 1574.03,294.209 1581.12,293.625 1588.22,292.99 1595.31,292.343 1602.4,291.869 1609.49,291.538 1616.58,291.254 1623.67,290.78 1630.77,290.293 1637.86,289.895 1644.95,289.465 1652.04,289.002 1659.13,288.503 1666.22,287.989 1673.32,287.48 1680.41,286.979 1687.5,286.487 1694.59,286.005 1701.68,285.531 1708.77,285.065 1715.87,284.605 1722.96,284.15 1730.05,283.69 1737.14,283.239 1744.23,282.808 1751.32,282.39 1758.42,281.98 1765.51,281.571 1772.6,281.226 1779.69,280.695 1786.78,280.166 1793.87,279.759 1800.97,279.354 1808.06,278.88 1815.15,278.39 1822.24,278.146 1829.33,278.089 1836.42,278.169 1843.51,278.281 1850.61,278.294 1857.7,278.222 1864.79,278.173 1871.88,277.986 1878.97,277.694 1886.06,277.448 1893.16,277.258 1900.25,277.184 1907.34,277.066 1914.43,276.909 1921.52,276.799 1928.61,276.718 1935.71,276.673 1942.8,276.642 1949.89,276.616 1956.98,276.703 1964.07,276.555 1971.16,276.208 1978.26,275.892 1985.35,275.607 1992.44,275.342 1999.53,275.086 2006.62,274.727 2013.71,274.711 2020.81,274.669 2027.9,274.398 2034.99,274.127 " />
</g>

<g fill="none" stroke="#3baa32" stroke-opacity="1" stroke-width="0.666667" stroke-linecap="butt" stroke-linejoin="round" transform="matrix(0.75,0,0,0.75,0,0)"
font-family="Helvetica" font-size="14" font-weight="400" font-style="normal" 
>
<polyline fill="none" vector-effect="none" points="333,338.753 340.092,338.587 347.183,339.752 354.275,338.587 361.366,338.42 368.458,338.42 375.55,337.088 382.641,338.087 389.733,338.087 396.825,336.588 403.916,338.92 411.008,337.587 418.099,337.421 425.191,338.587 432.283,335.923 439.374,337.088 446.466,336.921 453.558,336.755 460.649,336.588 467.741,336.588 474.832,336.422 481.924,336.255 489.016,336.089 496.107,335.923 503.199,334.424 510.29,336.755 517.382,336.755 524.474,335.59 531.565,334.091 538.657,333.924 545.749,334.923 552.84,335.923 559.932,335.923 567.023,334.757 574.115,333.259 581.207,334.424 588.298,334.257 595.39,334.091 602.482,333.924 609.573,349.409 616.665,359.232 623.756,372.719 630.848,383.874 637.94,394.863 645.031,406.852 652.123,416.009 659.214,427.164 666.306,438.154 673.398,443.648 680.489,449.642 687.581,452.972 694.673,455.969 701.764,458.466 708.856,459.132 715.947,467.79 723.039,473.118 730.131,482.775 737.222,490.768 744.314,493.931 751.406,496.762 758.497,493.598 765.589,492.932 772.68,489.269 779.772,491.1 786.864,492.599 793.955,495.263 801.047,496.928 808.138,497.428 815.23,497.761 822.322,495.763 829.413,498.26 836.505,497.261 843.597,497.428 850.688,498.593 857.78,496.262 864.871,498.426 871.963,497.095 879.055,498.093 886.146,496.595 893.238,497.594 900.33,494.93 907.421,496.762 914.513,496.262 921.604,495.929 928.696,494.431 935.788,494.93 942.879,494.431 949.971,493.931 957.062,493.432 964.154,492.932 971.246,491.1 978.337,493.099 985.429,492.599 992.521,491.1 999.612,490.768 1006.7,492.766 1013.8,491.6 1020.89,488.77 1027.98,489.768 1035.07,487.104 1042.16,488.936 1049.25,488.603 1056.35,486.938 1063.44,488.603 1070.53,487.271 1077.62,486.771 1084.71,486.439 1091.8,485.939 1098.89,485.606 1105.99,485.107 1113.08,487.271 1120.17,485.939 1127.26,483.275 1134.35,484.274 1141.44,484.107 1148.54,483.775 1155.63,484.773 1162.72,482.109 1169.81,483.108 1176.9,480.444 1183.99,482.276 1191.09,481.776 1198.18,483.941 1205.27,481.443 1212.36,481.111 1219.45,480.944 1226.54,480.611 1233.64,480.444 1240.73,481.443 1247.82,478.779 1254.91,481.111 1262,479.612 1269.09,479.445 1276.19,479.279 1283.28,479.112 1290.37,478.946 1297.46,480.111 1304.55,478.946 1311.64,478.779 1318.73,471.62 1325.83,465.293 1332.92,458.966 1340.01,455.137 1347.1,447.811 1354.19,444.48 1361.28,441.317 1368.38,440.151 1375.47,436.155 1382.56,432.659 1389.65,430.161 1396.74,424.334 1403.83,421.171 1410.93,418.34 1418.02,416.841 1425.11,413.012 1432.2,411.514 1439.29,411.514 1446.38,409.349 1453.48,410.848 1460.57,408.85 1467.66,408.35 1474.75,406.852 1481.84,406.186 1488.93,404.854 1496.03,404.354 1503.12,406.518 1510.21,403.854 1517.3,405.02 1524.39,403.688 1531.48,403.521 1538.58,403.355 1545.67,403.189 1552.76,403.022 1559.85,402.855 1566.94,402.689 1574.03,401.357 1581.12,402.189 1588.22,402.023 1595.31,403.189 1602.4,401.69 1609.49,401.523 1616.58,400.191 1623.67,402.356 1630.77,401.024 1637.86,400.857 1644.95,400.691 1652.04,400.525 1659.13,400.525 1666.22,400.358 1673.32,400.191 1680.41,400.025 1687.5,399.858 1694.59,399.692 1701.68,399.525 1708.77,399.359 1715.87,399.193 1722.96,399.026 1730.05,399.026 1737.14,398.859 1744.23,398.693 1751.32,398.526 1758.42,398.36 1765.51,398.193 1772.6,396.695 1779.69,399.026 1786.78,397.694 1793.87,397.527 1800.97,397.361 1808.06,398.526 1815.15,399.692 1822.24,398.693 1829.33,399.193 1836.42,398.193 1843.51,398.36 1850.61,398.693 1857.7,399.026 1864.79,397.861 1871.88,399.359 1878.97,399.525 1886.06,399.692 1893.16,399.858 1900.25,398.859 1907.34,400.025 1914.43,400.025 1921.52,400.191 1928.61,400.358 1935.71,400.358 1942.8,400.525 1949.89,400.525 1956.98,398.193 1964.07,400.525 1971.16,400.358 1978.26,400.358 1985.35,400.191 1992.44,400.191 1999.53,400.191 2006.62,402.522 2013.71,397.861 2020.81,400.191 2027.9,400.025 2034.99,400.025 " />
</g>

<g fill="#ffffff" fill-opacity="1" stroke="none" transform="matrix(7.5e-05,0,0,7.5e-05,0,0)"
font-family="Helvetica" font-size="14" font-weight="400" font-style="normal" 
>
<path vector-effect="none" fill-rule="evenodd" d="M2.224e+07,1.004e+07 L2.224e+07,1.08e+07 L2.306e+07,1.08e+07 L2.306e+07,1.004e+07 L2.224e+07,1.004e+07"/>
</g>

<g fill="#1171be" fill-opacity="1" stroke="#1171be" stroke-opacity="1" stroke-width="0.666667" stroke-linecap="butt" stroke-linejoin="round" transform="matrix(0.75,0,0,0.75,0,0)"
font-family="Helvetica" font-size="14" font-weight="400" font-style="normal" 
>
<polyline fill="none" vector-effect="none" points="2228,1013 2268,1013 " />
</g>

<g fill="#dd5400" fill-opacity="1" stroke="#dd5400" stroke-opacity="1" stroke-width="0.666667" stroke-linecap="butt" stroke-linejoin="round" transform="matrix(0.75,0,0,0.75,0,0)"
font-family="Helvetica" font-size="14" font-weight="400" font-style="normal" 
>
<polyline fill="none" vector-effect="none" points="2228,1027.5 2268,1027.5 " />
</g>

<g fill="#edb120" fill-opacity="1" stroke="#edb120" stroke-opacity="1" stroke-width="0.666667" stroke-linecap="butt" stroke-linejoin="round" transform="matrix(0.75,0,0,0.75,0,0)"
font-family="Helvetica" font-size="14" font-weight="400" font-style="normal" 
>
<polyline fill="none" vector-effect="none" points="2228,1042 2268,1042 " />
</g>

<g fill="#8516d1" fill-opacity="1" stroke="#8516d1" stroke-opacity="1" stroke-width="0.666667" stroke-linecap="butt" stroke-linejoin="round" transform="matrix(0.75,0,0,0.75,0,0)"
font-family="Helvetica" font-size="14" font-weight="400" font-style="normal" 
>
<polyline fill="none" vector-effect="none" points="2228,1056.5 2268,1056.5 " />
</g>

<g fill="#3baa32" fill-opacity="1" stroke="#3baa32" stroke-opacity="1" stroke-width="0.666667" stroke-linecap="butt" stroke-linejoin="round" transform="matrix(0.75,0,0,0.75,0,0)"
font-family="Helvetica" font-size="14" font-weight="400" font-style="normal" 
>
<polyline fill="none" vector-effect="none" points="2228,1071 2268,1071 " />
</g>

<g fill="#212121" fill-opacity="1" stroke="#212121" stroke-opacity="1" stroke-width="1" stroke-linecap="square" stroke-linejoin="bevel" transform="matrix(0.75,0,0,0.75,1703.25,762.75)"
font-family="Helvetica" font-size="12" font-weight="400" font-style="normal" 
>
<text fill="#212121" fill-opacity="1" stroke="none" xml:space="preserve" x="0" y="0" font-family="Helvetica" font-size="12" font-weight="400" font-style="normal" 
 >y</text>
</g>

<g fill="#212121" fill-opacity="1" stroke="#212121" stroke-opacity="1" stroke-width="1" stroke-linecap="square" stroke-linejoin="bevel" transform="matrix(0.75,0,0,0.75,1703.25,773.625)"
font-family="Helvetica" font-size="12" font-weight="400" font-style="normal" 
>
<text fill="#212121" fill-opacity="1" stroke="none" xml:space="preserve" x="0" y="0" font-family="Helvetica" font-size="12" font-weight="400" font-style="normal" 
 >ym20</text>
</g>

<g fill="#212121" fill-opacity="1" stroke="#212121" stroke-opacity="1" stroke-width="1" stroke-linecap="square" stroke-linejoin="bevel" transform="matrix(0.75,0,0,0.75,1703.25,784.5)"
font-family="Helvetica" font-size="12" font-weight="400" font-style="normal" 
>
<text fill="#212121" fill-opacity="1" stroke="none" xml:space="preserve" x="0" y="0" font-family="Helvetica" font-size="12" font-weight="400" font-style="normal" 
 >ym30</text>
</g>

<g fill="#212121" fill-opacity="1" stroke="#212121" stroke-opacity="1" stroke-width="1" stroke-linecap="square" stroke-linejoin="bevel" transform="matrix(0.75,0,0,0.75,1703.25,795.375)"
font-family="Helvetica" font-size="12" font-weight="400" font-style="normal" 
>
<text fill="#212121" fill-opacity="1" stroke="none" xml:space="preserve" x="0" y="0" font-family="Helvetica" font-size="12" font-weight="400" font-style="normal" 
 >ymss</text>
</g>

<g fill="#212121" fill-opacity="1" stroke="#212121" stroke-opacity="1" stroke-width="1" stroke-linecap="square" stroke-linejoin="bevel" transform="matrix(0.75,0,0,0.75,1703.25,806.25)"
font-family="Helvetica" font-size="12" font-weight="400" font-style="normal" 
>
<text fill="#212121" fill-opacity="1" stroke="none" xml:space="preserve" x="0" y="0" font-family="Helvetica" font-size="12" font-weight="400" font-style="normal" 
 >u</text>
</g>

<g fill="none" stroke="#212121" stroke-opacity="1" stroke-width="0.666667" stroke-linecap="butt" stroke-linejoin="miter" stroke-miterlimit="2" transform="matrix(0.75,0,0,0.75,0,0)"
font-family="Helvetica" font-size="12" font-weight="400" font-style="normal" 
>
<path vector-effect="none" fill-rule="evenodd" d="M2224,1080 L2224,1004 L2306,1004 L2306,1080 L2224,1080"/>
</g>
</g>
</svg>
