<?xml version="1.0" encoding="UTF-8" standalone="no"?>
<svg width="284.339mm" height="171.45mm"
 viewBox="0 0 806 486"
 xmlns="http://www.w3.org/2000/svg" xmlns:xlink="http://www.w3.org/1999/xlink"  version="1.2" baseProfile="tiny">
<title>Qt SVG Document</title>
<desc>MATLAB, The MathWorks, Inc. Version 25.2.0.2998904 R2025b</desc>
<defs>
</defs>
<g fill="none" stroke="black" stroke-width="1" fill-rule="evenodd" stroke-linecap="square" stroke-linejoin="bevel" >

<g fill="#ffffff" fill-opacity="1" stroke="none" transform="matrix(0.75,0,0,0.75,0,0)"
font-family="MS Shell Dlg 2" font-size="8.25" font-weight="400" font-style="normal" 
>
<path vector-effect="none" fill-rule="evenodd" d="M0,0 L1075,0 L1075,648 L0,648 L0,0"/>
</g>

<g fill="#ffffff" fill-opacity="1" stroke="none" transform="matrix(7.5e-05,0,0,7.5e-05,0,0)"
font-family="MS Shell Dlg 2" font-size="8.25" font-weight="400" font-style="normal" 
>
<path vector-effect="none" fill-rule="evenodd" d="M1.4e+06,490000 L1.4e+06,5.76e+06 L9.72e+06,5.76e+06 L9.72e+06,490000 L1.4e+06,490000"/>
</g>

<g fill="#212121" fill-opacity="0.14902" stroke="#212121" stroke-opacity="0.14902" stroke-width="0.666667" stroke-linecap="butt" stroke-linejoin="round" transform="matrix(0.75,0,0,0.75,0,0)"
font-family="MS Shell Dlg 2" font-size="8.25" font-weight="400" font-style="normal" 
>
<polyline fill="none" vector-effect="none" points="140,49 140,576 " />
<polyline fill="none" vector-effect="none" points="223.2,49 223.2,576 " />
<polyline fill="none" vector-effect="none" points="306.4,49 306.4,576 " />
<polyline fill="none" vector-effect="none" points="389.6,49 389.6,576 " />
<polyline fill="none" vector-effect="none" points="472.8,49 472.8,576 " />
<polyline fill="none" vector-effect="none" points="556,49 556,576 " />
<polyline fill="none" vector-effect="none" points="639.2,49 639.2,576 " />
<polyline fill="none" vector-effect="none" points="722.4,49 722.4,576 " />
<polyline fill="none" vector-effect="none" points="805.6,49 805.6,576 " />
<polyline fill="none" vector-effect="none" points="888.8,49 888.8,576 " />
<polyline fill="none" vector-effect="none" points="972,49 972,576 " />
<polyline fill="none" vector-effect="none" points="140,576 972,576 " />
<polyline fill="none" vector-effect="none" points="140,523.3 972,523.3 " />
<polyline fill="none" vector-effect="none" points="140,470.6 972,470.6 " />
<polyline fill="none" vector-effect="none" points="140,417.9 972,417.9 " />
<polyline fill="none" vector-effect="none" points="140,365.2 972,365.2 " />
<polyline fill="none" vector-effect="none" points="140,312.5 972,312.5 " />
<polyline fill="none" vector-effect="none" points="140,259.8 972,259.8 " />
<polyline fill="none" vector-effect="none" points="140,207.1 972,207.1 " />
<polyline fill="none" vector-effect="none" points="140,154.4 972,154.4 " />
<polyline fill="none" vector-effect="none" points="140,101.7 972,101.7 " />
<polyline fill="none" vector-effect="none" points="140,49 972,49 " />
</g>

<g fill="#212121" fill-opacity="1" stroke="#212121" stroke-opacity="1" stroke-width="1" stroke-linecap="square" stroke-linejoin="bevel" transform="matrix(0.75,0,0,0.75,390.375,458)"
font-family="Helvetica" font-size="14" font-weight="400" font-style="normal" 
>
<text fill="#212121" fill-opacity="1" stroke="none" xml:space="preserve" x="0" y="0" font-family="Helvetica" font-size="14" font-weight="400" font-style="normal" 
 >Generation</text>
</g>

<g fill="#212121" fill-opacity="1" stroke="#212121" stroke-opacity="1" stroke-width="0.666667" stroke-linecap="square" stroke-linejoin="round" transform="matrix(0.75,0,0,0.75,0,0)"
font-family="Helvetica" font-size="14" font-weight="400" font-style="normal" 
>
<polyline fill="none" vector-effect="none" points="140,576 972,576 " />
<polyline fill="none" vector-effect="none" points="140,49 972,49 " />
<polyline fill="none" vector-effect="none" points="140,576 140,567.68 " />
<polyline fill="none" vector-effect="none" points="140,57.32 140,49 " />
<polyline fill="none" vector-effect="none" points="223.2,576 223.2,567.68 " />
<polyline fill="none" vector-effect="none" points="223.2,57.32 223.2,49 " />
<polyline fill="none" vector-effect="none" points="306.4,576 306.4,567.68 " />
<polyline fill="none" vector-effect="none" points="306.4,57.32 306.4,49 " />
<polyline fill="none" vector-effect="none" points="389.6,576 389.6,567.68 " />
<polyline fill="none" vector-effect="none" points="389.6,57.32 389.6,49 " />
<polyline fill="none" vector-effect="none" points="472.8,576 472.8,567.68 " />
<polyline fill="none" vector-effect="none" points="472.8,57.32 472.8,49 " />
<polyline fill="none" vector-effect="none" points="556,576 556,567.68 " />
<polyline fill="none" vector-effect="none" points="556,57.32 556,49 " />
<polyline fill="none" vector-effect="none" points="639.2,576 639.2,567.68 " />
<polyline fill="none" vector-effect="none" points="639.2,57.32 639.2,49 " />
<polyline fill="none" vector-effect="none" points="722.4,576 722.4,567.68 " />
<polyline fill="none" vector-effect="none" points="722.4,57.32 722.4,49 " />
<polyline fill="none" vector-effect="none" points="805.6,576 805.6,567.68 " />
<polyline fill="none" vector-effect="none" points="805.6,57.32 805.6,49 " />
<polyline fill="none" vector-effect="none" points="888.8,576 888.8,567.68 " />
<polyline fill="none" vector-effect="none" points="888.8,57.32 888.8,49 " />
<polyline fill="none" vector-effect="none" points="972,576 972,567.68 " />
<polyline fill="none" vector-effect="none" points="972,57.32 972,49 " />
</g>

<g fill="#212121" fill-opacity="1" stroke="#212121" stroke-opacity="1" stroke-width="1" stroke-linecap="square" stroke-linejoin="bevel" transform="matrix(0.75,0,0,0.75,102.375,445)"
font-family="Helvetica" font-size="13" font-weight="400" font-style="normal" 
>
<text fill="#212121" fill-opacity="1" stroke="none" xml:space="preserve" x="0" y="0" font-family="Helvetica" font-size="13" font-weight="400" font-style="normal" 
 >0</text>
</g>

<g fill="#212121" fill-opacity="1" stroke="#212121" stroke-opacity="1" stroke-width="1" stroke-linecap="square" stroke-linejoin="bevel" transform="matrix(0.75,0,0,0.75,164.775,445)"
font-family="Helvetica" font-size="13" font-weight="400" font-style="normal" 
>
<text fill="#212121" fill-opacity="1" stroke="none" xml:space="preserve" x="0" y="0" font-family="Helvetica" font-size="13" font-weight="400" font-style="normal" 
 >5</text>
</g>

<g fill="#212121" fill-opacity="1" stroke="#212121" stroke-opacity="1" stroke-width="1" stroke-linecap="square" stroke-linejoin="bevel" transform="matrix(0.75,0,0,0.75,224.55,445)"
font-family="Helvetica" font-size="13" font-weight="400" font-style="normal" 
>
<text fill="#212121" fill-opacity="1" stroke="none" xml:space="preserve" x="0" y="0" font-family="Helvetica" font-size="13" font-weight="400" font-style="normal" 
 >10</text>
</g>

<g fill="#212121" fill-opacity="1" stroke="#212121" stroke-opacity="1" stroke-width="1" stroke-linecap="square" stroke-linejoin="bevel" transform="matrix(0.75,0,0,0.75,286.95,445)"
font-family="Helvetica" font-size="13" font-weight="400" font-style="normal" 
>
<text fill="#212121" fill-opacity="1" stroke="none" xml:space="preserve" x="0" y="0" font-family="Helvetica" font-size="13" font-weight="400" font-style="normal" 
 >15</text>
</g>

<g fill="#212121" fill-opacity="1" stroke="#212121" stroke-opacity="1" stroke-width="1" stroke-linecap="square" stroke-linejoin="bevel" transform="matrix(0.75,0,0,0.75,349.35,445)"
font-family="Helvetica" font-size="13" font-weight="400" font-style="normal" 
>
<text fill="#212121" fill-opacity="1" stroke="none" xml:space="preserve" x="0" y="0" font-family="Helvetica" font-size="13" font-weight="400" font-style="normal" 
 >20</text>
</g>

<g fill="#212121" fill-opacity="1" stroke="#212121" stroke-opacity="1" stroke-width="1" stroke-linecap="square" stroke-linejoin="bevel" transform="matrix(0.75,0,0,0.75,411.75,445)"
font-family="Helvetica" font-size="13" font-weight="400" font-style="normal" 
>
<text fill="#212121" fill-opacity="1" stroke="none" xml:space="preserve" x="0" y="0" font-family="Helvetica" font-size="13" font-weight="400" font-style="normal" 
 >25</text>
</g>

<g fill="#212121" fill-opacity="1" stroke="#212121" stroke-opacity="1" stroke-width="1" stroke-linecap="square" stroke-linejoin="bevel" transform="matrix(0.75,0,0,0.75,474.15,445)"
font-family="Helvetica" font-size="13" font-weight="400" font-style="normal" 
>
<text fill="#212121" fill-opacity="1" stroke="none" xml:space="preserve" x="0" y="0" font-family="Helvetica" font-size="13" font-weight="400" font-style="normal" 
 >30</text>
</g>

<g fill="#212121" fill-opacity="1" stroke="#212121" stroke-opacity="1" stroke-width="1" stroke-linecap="square" stroke-linejoin="bevel" transform="matrix(0.75,0,0,0.75,536.55,445)"
font-family="Helvetica" font-size="13" font-weight="400" font-style="normal" 
>
<text fill="#212121" fill-opacity="1" stroke="none" xml:space="preserve" x="0" y="0" font-family="Helvetica" font-size="13" font-weight="400" font-style="normal" 
 >35</text>
</g>

<g fill="#212121" fill-opacity="1" stroke="#212121" stroke-opacity="1" stroke-width="1" stroke-linecap="square" stroke-linejoin="bevel" transform="matrix(0.75,0,0,0.75,598.95,445)"
font-family="Helvetica" font-size="13" font-weight="400" font-style="normal" 
>
<text fill="#212121" fill-opacity="1" stroke="none" xml:space="preserve" x="0" y="0" font-family="Helvetica" font-size="13" font-weight="400" font-style="normal" 
 >40</text>
</g>

<g fill="#212121" fill-opacity="1" stroke="#212121" stroke-opacity="1" stroke-width="1" stroke-linecap="square" stroke-linejoin="bevel" transform="matrix(0.75,0,0,0.75,661.35,445)"
font-family="Helvetica" font-size="13" font-weight="400" font-style="normal" 
>
<text fill="#212121" fill-opacity="1" stroke="none" xml:space="preserve" x="0" y="0" font-family="Helvetica" font-size="13" font-weight="400" font-style="normal" 
 >45</text>
</g>

<g fill="#212121" fill-opacity="1" stroke="#212121" stroke-opacity="1" stroke-width="1" stroke-linecap="square" stroke-linejoin="bevel" transform="matrix(0.75,0,0,0.75,723.75,445)"
font-family="Helvetica" font-size="13" font-weight="400" font-style="normal" 
>
<text fill="#212121" fill-opacity="1" stroke="none" xml:space="preserve" x="0" y="0" font-family="Helvetica" font-size="13" font-weight="400" font-style="normal" 
 >50</text>
</g>

<g fill="#212121" fill-opacity="1" stroke="#212121" stroke-opacity="1" stroke-width="1" stroke-linecap="square" stroke-linejoin="bevel" transform="matrix(0,-0.75,0.75,0,78.5,251.625)"
font-family="Helvetica" font-size="14" font-weight="400" font-style="normal" 
>
<text fill="#212121" fill-opacity="1" stroke="none" xml:space="preserve" x="0" y="0" font-family="Helvetica" font-size="14" font-weight="400" font-style="normal" 
 >Fitness</text>
</g>

<g fill="#212121" fill-opacity="1" stroke="#212121" stroke-opacity="1" stroke-width="0.666667" stroke-linecap="square" stroke-linejoin="round" transform="matrix(0.75,0,0,0.75,0,0)"
font-family="Helvetica" font-size="14" font-weight="400" font-style="normal" 
>
<polyline fill="none" vector-effect="none" points="140,576 140,49 " />
<polyline fill="none" vector-effect="none" points="972,576 972,49 " />
<polyline fill="none" vector-effect="none" points="140,576 148.32,576 " />
<polyline fill="none" vector-effect="none" points="963.68,576 972,576 " />
<polyline fill="none" vector-effect="none" points="140,523.3 148.32,523.3 " />
<polyline fill="none" vector-effect="none" points="963.68,523.3 972,523.3 " />
<polyline fill="none" vector-effect="none" points="140,470.6 148.32,470.6 " />
<polyline fill="none" vector-effect="none" points="963.68,470.6 972,470.6 " />
<polyline fill="none" vector-effect="none" points="140,417.9 148.32,417.9 " />
<polyline fill="none" vector-effect="none" points="963.68,417.9 972,417.9 " />
<polyline fill="none" vector-effect="none" points="140,365.2 148.32,365.2 " />
<polyline fill="none" vector-effect="none" points="963.68,365.2 972,365.2 " />
<polyline fill="none" vector-effect="none" points="140,312.5 148.32,312.5 " />
<polyline fill="none" vector-effect="none" points="963.68,312.5 972,312.5 " />
<polyline fill="none" vector-effect="none" points="140,259.8 148.32,259.8 " />
<polyline fill="none" vector-effect="none" points="963.68,259.8 972,259.8 " />
<polyline fill="none" vector-effect="none" points="140,207.1 148.32,207.1 " />
<polyline fill="none" vector-effect="none" points="963.68,207.1 972,207.1 " />
<polyline fill="none" vector-effect="none" points="140,154.4 148.32,154.4 " />
<polyline fill="none" vector-effect="none" points="963.68,154.4 972,154.4 " />
<polyline fill="none" vector-effect="none" points="140,101.7 148.32,101.7 " />
<polyline fill="none" vector-effect="none" points="963.68,101.7 972,101.7 " />
<polyline fill="none" vector-effect="none" points="140,49 148.32,49 " />
<polyline fill="none" vector-effect="none" points="963.68,49 972,49 " />
</g>

<g fill="#212121" fill-opacity="1" stroke="#212121" stroke-opacity="1" stroke-width="1" stroke-linecap="square" stroke-linejoin="bevel" transform="matrix(0.75,0,0,0.75,85.25,435.375)"
font-family="Helvetica" font-size="13" font-weight="400" font-style="normal" 
>
<text fill="#212121" fill-opacity="1" stroke="none" xml:space="preserve" x="0" y="0" font-family="Helvetica" font-size="13" font-weight="400" font-style="normal" 
 >120</text>
</g>

<g fill="#212121" fill-opacity="1" stroke="#212121" stroke-opacity="1" stroke-width="1" stroke-linecap="square" stroke-linejoin="bevel" transform="matrix(0.75,0,0,0.75,85.25,395.85)"
font-family="Helvetica" font-size="13" font-weight="400" font-style="normal" 
>
<text fill="#212121" fill-opacity="1" stroke="none" xml:space="preserve" x="0" y="0" font-family="Helvetica" font-size="13" font-weight="400" font-style="normal" 
 >140</text>
</g>

<g fill="#212121" fill-opacity="1" stroke="#212121" stroke-opacity="1" stroke-width="1" stroke-linecap="square" stroke-linejoin="bevel" transform="matrix(0.75,0,0,0.75,85.25,356.325)"
font-family="Helvetica" font-size="13" font-weight="400" font-style="normal" 
>
<text fill="#212121" fill-opacity="1" stroke="none" xml:space="preserve" x="0" y="0" font-family="Helvetica" font-size="13" font-weight="400" font-style="normal" 
 >160</text>
</g>

<g fill="#212121" fill-opacity="1" stroke="#212121" stroke-opacity="1" stroke-width="1" stroke-linecap="square" stroke-linejoin="bevel" transform="matrix(0.75,0,0,0.75,85.25,316.8)"
font-family="Helvetica" font-size="13" font-weight="400" font-style="normal" 
>
<text fill="#212121" fill-opacity="1" stroke="none" xml:space="preserve" x="0" y="0" font-family="Helvetica" font-size="13" font-weight="400" font-style="normal" 
 >180</text>
</g>

<g fill="#212121" fill-opacity="1" stroke="#212121" stroke-opacity="1" stroke-width="1" stroke-linecap="square" stroke-linejoin="bevel" transform="matrix(0.75,0,0,0.75,85.25,277.275)"
font-family="Helvetica" font-size="13" font-weight="400" font-style="normal" 
>
<text fill="#212121" fill-opacity="1" stroke="none" xml:space="preserve" x="0" y="0" font-family="Helvetica" font-size="13" font-weight="400" font-style="normal" 
 >200</text>
</g>

<g fill="#212121" fill-opacity="1" stroke="#212121" stroke-opacity="1" stroke-width="1" stroke-linecap="square" stroke-linejoin="bevel" transform="matrix(0.75,0,0,0.75,85.25,237.75)"
font-family="Helvetica" font-size="13" font-weight="400" font-style="normal" 
>
<text fill="#212121" fill-opacity="1" stroke="none" xml:space="preserve" x="0" y="0" font-family="Helvetica" font-size="13" font-weight="400" font-style="normal" 
 >220</text>
</g>

<g fill="#212121" fill-opacity="1" stroke="#212121" stroke-opacity="1" stroke-width="1" stroke-linecap="square" stroke-linejoin="bevel" transform="matrix(0.75,0,0,0.75,85.25,198.225)"
font-family="Helvetica" font-size="13" font-weight="400" font-style="normal" 
>
<text fill="#212121" fill-opacity="1" stroke="none" xml:space="preserve" x="0" y="0" font-family="Helvetica" font-size="13" font-weight="400" font-style="normal" 
 >240</text>
</g>

<g fill="#212121" fill-opacity="1" stroke="#212121" stroke-opacity="1" stroke-width="1" stroke-linecap="square" stroke-linejoin="bevel" transform="matrix(0.75,0,0,0.75,85.25,158.7)"
font-family="Helvetica" font-size="13" font-weight="400" font-style="normal" 
>
<text fill="#212121" fill-opacity="1" stroke="none" xml:space="preserve" x="0" y="0" font-family="Helvetica" font-size="13" font-weight="400" font-style="normal" 
 >260</text>
</g>

<g fill="#212121" fill-opacity="1" stroke="#212121" stroke-opacity="1" stroke-width="1" stroke-linecap="square" stroke-linejoin="bevel" transform="matrix(0.75,0,0,0.75,85.25,119.175)"
font-family="Helvetica" font-size="13" font-weight="400" font-style="normal" 
>
<text fill="#212121" fill-opacity="1" stroke="none" xml:space="preserve" x="0" y="0" font-family="Helvetica" font-size="13" font-weight="400" font-style="normal" 
 >280</text>
</g>

<g fill="#212121" fill-opacity="1" stroke="#212121" stroke-opacity="1" stroke-width="1" stroke-linecap="square" stroke-linejoin="bevel" transform="matrix(0.75,0,0,0.75,85.25,79.65)"
font-family="Helvetica" font-size="13" font-weight="400" font-style="normal" 
>
<text fill="#212121" fill-opacity="1" stroke="none" xml:space="preserve" x="0" y="0" font-family="Helvetica" font-size="13" font-weight="400" font-style="normal" 
 >300</text>
</g>

<g fill="#212121" fill-opacity="1" stroke="#212121" stroke-opacity="1" stroke-width="1" stroke-linecap="square" stroke-linejoin="bevel" transform="matrix(0.75,0,0,0.75,85.25,40.125)"
font-family="Helvetica" font-size="13" font-weight="400" font-style="normal" 
>
<text fill="#212121" fill-opacity="1" stroke="none" xml:space="preserve" x="0" y="0" font-family="Helvetica" font-size="13" font-weight="400" font-style="normal" 
 >320</text>
</g>

<g fill="#212121" fill-opacity="1" stroke="#212121" stroke-opacity="1" stroke-width="1" stroke-linecap="square" stroke-linejoin="bevel" transform="matrix(0.75,0,0,0.75,344.25,32.4375)"
font-family="Helvetica" font-size="14" font-weight="700" font-style="normal" 
>
<text fill="#212121" fill-opacity="1" stroke="none" xml:space="preserve" x="0" y="0" font-family="Helvetica" font-size="14" font-weight="700" font-style="normal" 
 >Evolution of PID Controller</text>
</g>

<g fill="none" stroke="#1171be" stroke-opacity="1" stroke-width="0.666667" stroke-linecap="butt" stroke-linejoin="miter" stroke-miterlimit="2" transform="matrix(0.75,0,0,0.75,0,0)"
font-family="Helvetica" font-size="14" font-weight="700" font-style="normal" 
>
<polyline fill="none" vector-effect="none" points="156.64,96.066 173.28,96.066 173.28,504.726 189.92,504.726 189.92,535.609 206.56,535.609 206.56,550.265 223.2,550.265 223.2,564.478 239.84,564.478 239.84,571.857 256.48,571.857 256.48,572.549 273.12,572.549 273.12,572.549 289.76,572.549 289.76,572.549 306.4,572.549 306.4,572.549 323.04,572.549 323.04,572.602 339.68,572.602 339.68,572.602 356.32,572.602 356.32,572.602 372.96,572.602 372.96,572.602 389.6,572.602 389.6,572.602 406.24,572.602 406.24,572.602 422.88,572.602 422.88,572.602 439.52,572.602 439.52,572.602 456.16,572.602 456.16,572.602 472.8,572.602 472.8,572.602 489.44,572.602 489.44,572.602 506.08,572.602 506.08,572.602 522.72,572.602 522.72,572.602 539.36,572.602 539.36,572.602 556,572.602 556,572.602 572.64,572.602 572.64,572.602 589.28,572.602 589.28,572.602 605.92,572.602 605.92,572.604 622.56,572.604 622.56,572.604 639.2,572.604 639.2,572.604 655.84,572.604 655.84,572.604 672.48,572.604 672.48,572.604 689.12,572.604 689.12,572.604 705.76,572.604 705.76,572.604 722.4,572.604 722.4,572.604 739.04,572.604 739.04,572.604 755.68,572.604 755.68,572.604 772.32,572.604 772.32,572.604 788.96,572.604 788.96,572.604 805.6,572.604 805.6,572.604 822.24,572.604 822.24,572.604 838.88,572.604 838.88,572.604 855.52,572.604 855.52,572.604 872.16,572.604 872.16,572.604 888.8,572.604 888.8,572.604 905.44,572.604 905.44,572.604 922.08,572.604 922.08,572.604 938.72,572.604 938.72,572.605 955.36,572.605 955.36,572.605 972,572.605 972,572.605 " />
</g>
</g>
</svg>
