<?xml version="1.0" encoding="UTF-8" standalone="no"?>
<svg width="338.314mm" height="322.086mm"
 viewBox="0 0 959 913"
 xmlns="http://www.w3.org/2000/svg" xmlns:xlink="http://www.w3.org/1999/xlink"  version="1.2" baseProfile="tiny">
<title>Qt SVG Document</title>
<desc>MATLAB, The MathWorks, Inc. Version 25.2.0.2998904 R2025b</desc>
<defs>
</defs>
<g fill="none" stroke="black" stroke-width="1" fill-rule="evenodd" stroke-linecap="square" stroke-linejoin="bevel" >

<g fill="#ffffff" fill-opacity="1" stroke="none" transform="matrix(0.75,0,0,0.75,0,0)"
font-family="MS Shell Dlg 2" font-size="8.25" font-weight="400" font-style="normal" 
>
<path vector-effect="none" fill-rule="evenodd" d="M0,0 L1279,0 L1279,1218 L0,1218 L0,0"/>
</g>

<g fill="#ffffff" fill-opacity="1" stroke="none" transform="matrix(7.5e-05,0,0,7.5e-05,0,0)"
font-family="MS Shell Dlg 2" font-size="8.25" font-weight="400" font-style="normal" 
>
<path vector-effect="none" fill-rule="evenodd" d="M1.66e+06,910000 L1.66e+06,1.083e+07 L1.157e+07,1.083e+07 L1.157e+07,910000 L1.66e+06,910000"/>
</g>

<g fill="#212121" fill-opacity="0.14902" stroke="#212121" stroke-opacity="0.14902" stroke-width="0.666667" stroke-linecap="butt" stroke-linejoin="round" transform="matrix(0.75,0,0,0.75,0,0)"
font-family="MS Shell Dlg 2" font-size="8.25" font-weight="400" font-style="normal" 
>
<polyline fill="none" vector-effect="none" points="166,91 166,1083 " />
<polyline fill="none" vector-effect="none" points="265.1,91 265.1,1083 " />
<polyline fill="none" vector-effect="none" points="364.2,91 364.2,1083 " />
<polyline fill="none" vector-effect="none" points="463.3,91 463.3,1083 " />
<polyline fill="none" vector-effect="none" points="562.4,91 562.4,1083 " />
<polyline fill="none" vector-effect="none" points="661.5,91 661.5,1083 " />
<polyline fill="none" vector-effect="none" points="760.6,91 760.6,1083 " />
<polyline fill="none" vector-effect="none" points="859.7,91 859.7,1083 " />
<polyline fill="none" vector-effect="none" points="958.8,91 958.8,1083 " />
<polyline fill="none" vector-effect="none" points="1057.9,91 1057.9,1083 " />
<polyline fill="none" vector-effect="none" points="1157,91 1157,1083 " />
<polyline fill="none" vector-effect="none" points="166,1083 1157,1083 " />
<polyline fill="none" vector-effect="none" points="166,972.778 1157,972.778 " />
<polyline fill="none" vector-effect="none" points="166,862.556 1157,862.556 " />
<polyline fill="none" vector-effect="none" points="166,752.333 1157,752.333 " />
<polyline fill="none" vector-effect="none" points="166,642.111 1157,642.111 " />
<polyline fill="none" vector-effect="none" points="166,531.889 1157,531.889 " />
<polyline fill="none" vector-effect="none" points="166,421.667 1157,421.667 " />
<polyline fill="none" vector-effect="none" points="166,311.444 1157,311.444 " />
<polyline fill="none" vector-effect="none" points="166,201.222 1157,201.222 " />
<polyline fill="none" vector-effect="none" points="166,91 1157,91 " />
</g>

<g fill="#212121" fill-opacity="1" stroke="#212121" stroke-opacity="1" stroke-width="1" stroke-linecap="square" stroke-linejoin="bevel" transform="matrix(0.75,0,0,0.75,469.5,838.25)"
font-family="Helvetica" font-size="14" font-weight="400" font-style="normal" 
>
<text fill="#212121" fill-opacity="1" stroke="none" xml:space="preserve" x="0" y="0" font-family="Helvetica" font-size="14" font-weight="400" font-style="normal" 
 >Generation</text>
</g>

<g fill="#212121" fill-opacity="1" stroke="#212121" stroke-opacity="1" stroke-width="0.666667" stroke-linecap="square" stroke-linejoin="round" transform="matrix(0.75,0,0,0.75,0,0)"
font-family="Helvetica" font-size="14" font-weight="400" font-style="normal" 
>
<polyline fill="none" vector-effect="none" points="166,1083 1157,1083 " />
<polyline fill="none" vector-effect="none" points="166,91 1157,91 " />
<polyline fill="none" vector-effect="none" points="166,1083 166,1073.08 " />
<polyline fill="none" vector-effect="none" points="166,100.92 166,91 " />
<polyline fill="none" vector-effect="none" points="265.1,1083 265.1,1073.08 " />
<polyline fill="none" vector-effect="none" points="265.1,100.92 265.1,91 " />
<polyline fill="none" vector-effect="none" points="364.2,1083 364.2,1073.08 " />
<polyline fill="none" vector-effect="none" points="364.2,100.92 364.2,91 " />
<polyline fill="none" vector-effect="none" points="463.3,1083 463.3,1073.08 " />
<polyline fill="none" vector-effect="none" points="463.3,100.92 463.3,91 " />
<polyline fill="none" vector-effect="none" points="562.4,1083 562.4,1073.08 " />
<polyline fill="none" vector-effect="none" points="562.4,100.92 562.4,91 " />
<polyline fill="none" vector-effect="none" points="661.5,1083 661.5,1073.08 " />
<polyline fill="none" vector-effect="none" points="661.5,100.92 661.5,91 " />
<polyline fill="none" vector-effect="none" points="760.6,1083 760.6,1073.08 " />
<polyline fill="none" vector-effect="none" points="760.6,100.92 760.6,91 " />
<polyline fill="none" vector-effect="none" points="859.7,1083 859.7,1073.08 " />
<polyline fill="none" vector-effect="none" points="859.7,100.92 859.7,91 " />
<polyline fill="none" vector-effect="none" points="958.8,1083 958.8,1073.08 " />
<polyline fill="none" vector-effect="none" points="958.8,100.92 958.8,91 " />
<polyline fill="none" vector-effect="none" points="1057.9,1083 1057.9,1073.08 " />
<polyline fill="none" vector-effect="none" points="1057.9,100.92 1057.9,91 " />
<polyline fill="none" vector-effect="none" points="1157,1083 1157,1073.08 " />
<polyline fill="none" vector-effect="none" points="1157,100.92 1157,91 " />
</g>

<g fill="#212121" fill-opacity="1" stroke="#212121" stroke-opacity="1" stroke-width="1" stroke-linecap="square" stroke-linejoin="bevel" transform="matrix(0.75,0,0,0.75,121.875,825.25)"
font-family="Helvetica" font-size="13" font-weight="400" font-style="normal" 
>
<text fill="#212121" fill-opacity="1" stroke="none" xml:space="preserve" x="0" y="0" font-family="Helvetica" font-size="13" font-weight="400" font-style="normal" 
 >0</text>
</g>

<g fill="#212121" fill-opacity="1" stroke="#212121" stroke-opacity="1" stroke-width="1" stroke-linecap="square" stroke-linejoin="bevel" transform="matrix(0.75,0,0,0.75,196.2,825.25)"
font-family="Helvetica" font-size="13" font-weight="400" font-style="normal" 
>
<text fill="#212121" fill-opacity="1" stroke="none" xml:space="preserve" x="0" y="0" font-family="Helvetica" font-size="13" font-weight="400" font-style="normal" 
 >5</text>
</g>

<g fill="#212121" fill-opacity="1" stroke="#212121" stroke-opacity="1" stroke-width="1" stroke-linecap="square" stroke-linejoin="bevel" transform="matrix(0.75,0,0,0.75,267.9,825.25)"
font-family="Helvetica" font-size="13" font-weight="400" font-style="normal" 
>
<text fill="#212121" fill-opacity="1" stroke="none" xml:space="preserve" x="0" y="0" font-family="Helvetica" font-size="13" font-weight="400" font-style="normal" 
 >10</text>
</g>

<g fill="#212121" fill-opacity="1" stroke="#212121" stroke-opacity="1" stroke-width="1" stroke-linecap="square" stroke-linejoin="bevel" transform="matrix(0.75,0,0,0.75,342.225,825.25)"
font-family="Helvetica" font-size="13" font-weight="400" font-style="normal" 
>
<text fill="#212121" fill-opacity="1" stroke="none" xml:space="preserve" x="0" y="0" font-family="Helvetica" font-size="13" font-weight="400" font-style="normal" 
 >15</text>
</g>

<g fill="#212121" fill-opacity="1" stroke="#212121" stroke-opacity="1" stroke-width="1" stroke-linecap="square" stroke-linejoin="bevel" transform="matrix(0.75,0,0,0.75,416.55,825.25)"
font-family="Helvetica" font-size="13" font-weight="400" font-style="normal" 
>
<text fill="#212121" fill-opacity="1" stroke="none" xml:space="preserve" x="0" y="0" font-family="Helvetica" font-size="13" font-weight="400" font-style="normal" 
 >20</text>
</g>

<g fill="#212121" fill-opacity="1" stroke="#212121" stroke-opacity="1" stroke-width="1" stroke-linecap="square" stroke-linejoin="bevel" transform="matrix(0.75,0,0,0.75,490.875,825.25)"
font-family="Helvetica" font-size="13" font-weight="400" font-style="normal" 
>
<text fill="#212121" fill-opacity="1" stroke="none" xml:space="preserve" x="0" y="0" font-family="Helvetica" font-size="13" font-weight="400" font-style="normal" 
 >25</text>
</g>

<g fill="#212121" fill-opacity="1" stroke="#212121" stroke-opacity="1" stroke-width="1" stroke-linecap="square" stroke-linejoin="bevel" transform="matrix(0.75,0,0,0.75,565.2,825.25)"
font-family="Helvetica" font-size="13" font-weight="400" font-style="normal" 
>
<text fill="#212121" fill-opacity="1" stroke="none" xml:space="preserve" x="0" y="0" font-family="Helvetica" font-size="13" font-weight="400" font-style="normal" 
 >30</text>
</g>

<g fill="#212121" fill-opacity="1" stroke="#212121" stroke-opacity="1" stroke-width="1" stroke-linecap="square" stroke-linejoin="bevel" transform="matrix(0.75,0,0,0.75,639.525,825.25)"
font-family="Helvetica" font-size="13" font-weight="400" font-style="normal" 
>
<text fill="#212121" fill-opacity="1" stroke="none" xml:space="preserve" x="0" y="0" font-family="Helvetica" font-size="13" font-weight="400" font-style="normal" 
 >35</text>
</g>

<g fill="#212121" fill-opacity="1" stroke="#212121" stroke-opacity="1" stroke-width="1" stroke-linecap="square" stroke-linejoin="bevel" transform="matrix(0.75,0,0,0.75,713.85,825.25)"
font-family="Helvetica" font-size="13" font-weight="400" font-style="normal" 
>
<text fill="#212121" fill-opacity="1" stroke="none" xml:space="preserve" x="0" y="0" font-family="Helvetica" font-size="13" font-weight="400" font-style="normal" 
 >40</text>
</g>

<g fill="#212121" fill-opacity="1" stroke="#212121" stroke-opacity="1" stroke-width="1" stroke-linecap="square" stroke-linejoin="bevel" transform="matrix(0.75,0,0,0.75,788.175,825.25)"
font-family="Helvetica" font-size="13" font-weight="400" font-style="normal" 
>
<text fill="#212121" fill-opacity="1" stroke="none" xml:space="preserve" x="0" y="0" font-family="Helvetica" font-size="13" font-weight="400" font-style="normal" 
 >45</text>
</g>

<g fill="#212121" fill-opacity="1" stroke="#212121" stroke-opacity="1" stroke-width="1" stroke-linecap="square" stroke-linejoin="bevel" transform="matrix(0.75,0,0,0.75,862.5,825.25)"
font-family="Helvetica" font-size="13" font-weight="400" font-style="normal" 
>
<text fill="#212121" fill-opacity="1" stroke="none" xml:space="preserve" x="0" y="0" font-family="Helvetica" font-size="13" font-weight="400" font-style="normal" 
 >50</text>
</g>

<g fill="#212121" fill-opacity="1" stroke="#212121" stroke-opacity="1" stroke-width="1" stroke-linecap="square" stroke-linejoin="bevel" transform="matrix(0,-0.75,0.75,0,92.75,457.5)"
font-family="Helvetica" font-size="14" font-weight="400" font-style="normal" 
>
<text fill="#212121" fill-opacity="1" stroke="none" xml:space="preserve" x="0" y="0" font-family="Helvetica" font-size="14" font-weight="400" font-style="normal" 
 >Fitness</text>
</g>

<g fill="#212121" fill-opacity="1" stroke="#212121" stroke-opacity="1" stroke-width="0.666667" stroke-linecap="square" stroke-linejoin="round" transform="matrix(0.75,0,0,0.75,0,0)"
font-family="Helvetica" font-size="14" font-weight="400" font-style="normal" 
>
<polyline fill="none" vector-effect="none" points="166,1083 166,91 " />
<polyline fill="none" vector-effect="none" points="1157,1083 1157,91 " />
<polyline fill="none" vector-effect="none" points="166,1083 175.92,1083 " />
<polyline fill="none" vector-effect="none" points="1147.08,1083 1157,1083 " />
<polyline fill="none" vector-effect="none" points="166,972.778 175.92,972.778 " />
<polyline fill="none" vector-effect="none" points="1147.08,972.778 1157,972.778 " />
<polyline fill="none" vector-effect="none" points="166,862.556 175.92,862.556 " />
<polyline fill="none" vector-effect="none" points="1147.08,862.556 1157,862.556 " />
<polyline fill="none" vector-effect="none" points="166,752.333 175.92,752.333 " />
<polyline fill="none" vector-effect="none" points="1147.08,752.333 1157,752.333 " />
<polyline fill="none" vector-effect="none" points="166,642.111 175.92,642.111 " />
<polyline fill="none" vector-effect="none" points="1147.08,642.111 1157,642.111 " />
<polyline fill="none" vector-effect="none" points="166,531.889 175.92,531.889 " />
<polyline fill="none" vector-effect="none" points="1147.08,531.889 1157,531.889 " />
<polyline fill="none" vector-effect="none" points="166,421.667 175.92,421.667 " />
<polyline fill="none" vector-effect="none" points="1147.08,421.667 1157,421.667 " />
<polyline fill="none" vector-effect="none" points="166,311.444 175.92,311.444 " />
<polyline fill="none" vector-effect="none" points="1147.08,311.444 1157,311.444 " />
<polyline fill="none" vector-effect="none" points="166,201.222 175.92,201.222 " />
<polyline fill="none" vector-effect="none" points="1147.08,201.222 1157,201.222 " />
<polyline fill="none" vector-effect="none" points="166,91 175.92,91 " />
<polyline fill="none" vector-effect="none" points="1147.08,91 1157,91 " />
</g>

<g fill="#212121" fill-opacity="1" stroke="#212121" stroke-opacity="1" stroke-width="1" stroke-linecap="square" stroke-linejoin="bevel" transform="matrix(0.75,0,0,0.75,104.75,815.625)"
font-family="Helvetica" font-size="13" font-weight="400" font-style="normal" 
>
<text fill="#212121" fill-opacity="1" stroke="none" xml:space="preserve" x="0" y="0" font-family="Helvetica" font-size="13" font-weight="400" font-style="normal" 
 >400</text>
</g>

<g fill="#212121" fill-opacity="1" stroke="#212121" stroke-opacity="1" stroke-width="1" stroke-linecap="square" stroke-linejoin="bevel" transform="matrix(0.75,0,0,0.75,104.75,732.958)"
font-family="Helvetica" font-size="13" font-weight="400" font-style="normal" 
>
<text fill="#212121" fill-opacity="1" stroke="none" xml:space="preserve" x="0" y="0" font-family="Helvetica" font-size="13" font-weight="400" font-style="normal" 
 >600</text>
</g>

<g fill="#212121" fill-opacity="1" stroke="#212121" stroke-opacity="1" stroke-width="1" stroke-linecap="square" stroke-linejoin="bevel" transform="matrix(0.75,0,0,0.75,104.75,650.292)"
font-family="Helvetica" font-size="13" font-weight="400" font-style="normal" 
>
<text fill="#212121" fill-opacity="1" stroke="none" xml:space="preserve" x="0" y="0" font-family="Helvetica" font-size="13" font-weight="400" font-style="normal" 
 >800</text>
</g>

<g fill="#212121" fill-opacity="1" stroke="#212121" stroke-opacity="1" stroke-width="1" stroke-linecap="square" stroke-linejoin="bevel" transform="matrix(0.75,0,0,0.75,99.5,567.625)"
font-family="Helvetica" font-size="13" font-weight="400" font-style="normal" 
>
<text fill="#212121" fill-opacity="1" stroke="none" xml:space="preserve" x="0" y="0" font-family="Helvetica" font-size="13" font-weight="400" font-style="normal" 
 >1000</text>
</g>

<g fill="#212121" fill-opacity="1" stroke="#212121" stroke-opacity="1" stroke-width="1" stroke-linecap="square" stroke-linejoin="bevel" transform="matrix(0.75,0,0,0.75,99.5,484.958)"
font-family="Helvetica" font-size="13" font-weight="400" font-style="normal" 
>
<text fill="#212121" fill-opacity="1" stroke="none" xml:space="preserve" x="0" y="0" font-family="Helvetica" font-size="13" font-weight="400" font-style="normal" 
 >1200</text>
</g>

<g fill="#212121" fill-opacity="1" stroke="#212121" stroke-opacity="1" stroke-width="1" stroke-linecap="square" stroke-linejoin="bevel" transform="matrix(0.75,0,0,0.75,99.5,402.292)"
font-family="Helvetica" font-size="13" font-weight="400" font-style="normal" 
>
<text fill="#212121" fill-opacity="1" stroke="none" xml:space="preserve" x="0" y="0" font-family="Helvetica" font-size="13" font-weight="400" font-style="normal" 
 >1400</text>
</g>

<g fill="#212121" fill-opacity="1" stroke="#212121" stroke-opacity="1" stroke-width="1" stroke-linecap="square" stroke-linejoin="bevel" transform="matrix(0.75,0,0,0.75,99.5,319.625)"
font-family="Helvetica" font-size="13" font-weight="400" font-style="normal" 
>
<text fill="#212121" fill-opacity="1" stroke="none" xml:space="preserve" x="0" y="0" font-family="Helvetica" font-size="13" font-weight="400" font-style="normal" 
 >1600</text>
</g>

<g fill="#212121" fill-opacity="1" stroke="#212121" stroke-opacity="1" stroke-width="1" stroke-linecap="square" stroke-linejoin="bevel" transform="matrix(0.75,0,0,0.75,99.5,236.958)"
font-family="Helvetica" font-size="13" font-weight="400" font-style="normal" 
>
<text fill="#212121" fill-opacity="1" stroke="none" xml:space="preserve" x="0" y="0" font-family="Helvetica" font-size="13" font-weight="400" font-style="normal" 
 >1800</text>
</g>

<g fill="#212121" fill-opacity="1" stroke="#212121" stroke-opacity="1" stroke-width="1" stroke-linecap="square" stroke-linejoin="bevel" transform="matrix(0.75,0,0,0.75,99.5,154.292)"
font-family="Helvetica" font-size="13" font-weight="400" font-style="normal" 
>
<text fill="#212121" fill-opacity="1" stroke="none" xml:space="preserve" x="0" y="0" font-family="Helvetica" font-size="13" font-weight="400" font-style="normal" 
 >2000</text>
</g>

<g fill="#212121" fill-opacity="1" stroke="#212121" stroke-opacity="1" stroke-width="1" stroke-linecap="square" stroke-linejoin="bevel" transform="matrix(0.75,0,0,0.75,99.5,71.625)"
font-family="Helvetica" font-size="13" font-weight="400" font-style="normal" 
>
<text fill="#212121" fill-opacity="1" stroke="none" xml:space="preserve" x="0" y="0" font-family="Helvetica" font-size="13" font-weight="400" font-style="normal" 
 >2200</text>
</g>

<g fill="#212121" fill-opacity="1" stroke="#212121" stroke-opacity="1" stroke-width="1" stroke-linecap="square" stroke-linejoin="bevel" transform="matrix(0.75,0,0,0.75,423.375,63.9375)"
font-family="Helvetica" font-size="14" font-weight="700" font-style="normal" 
>
<text fill="#212121" fill-opacity="1" stroke="none" xml:space="preserve" x="0" y="0" font-family="Helvetica" font-size="14" font-weight="700" font-style="normal" 
 >Evolution of PID Controller</text>
</g>

<g fill="none" stroke="#1171be" stroke-opacity="1" stroke-width="0.666667" stroke-linecap="butt" stroke-linejoin="miter" stroke-miterlimit="2" transform="matrix(0.75,0,0,0.75,0,0)"
font-family="Helvetica" font-size="14" font-weight="700" font-style="normal" 
>
<polyline fill="none" vector-effect="none" points="185.82,138.23 205.64,138.23 205.64,918.46 225.46,918.46 225.46,1011.8 245.28,1011.8 245.28,1021.85 265.1,1021.85 265.1,1026.15 284.92,1026.15 284.92,1026.15 304.74,1026.15 304.74,1026.74 324.56,1026.74 324.56,1026.74 344.38,1026.74 344.38,1026.74 364.2,1026.74 364.2,1026.74 384.02,1026.74 384.02,1027.03 403.84,1027.03 403.84,1027.03 423.66,1027.03 423.66,1027.03 443.48,1027.03 443.48,1027.03 463.3,1027.03 463.3,1027.03 483.12,1027.03 483.12,1027.05 502.94,1027.05 502.94,1027.06 522.76,1027.06 522.76,1027.06 542.58,1027.06 542.58,1027.06 562.4,1027.06 562.4,1027.44 582.22,1027.44 582.22,1027.44 602.04,1027.44 602.04,1027.64 621.86,1027.64 621.86,1027.64 641.68,1027.64 641.68,1027.64 661.5,1027.64 661.5,1027.64 681.32,1027.64 681.32,1027.68 701.14,1027.68 701.14,1027.68 720.96,1027.68 720.96,1027.71 740.78,1027.71 740.78,1027.71 760.6,1027.71 760.6,1027.8 780.42,1027.8 780.42,1027.8 800.24,1027.8 800.24,1027.8 820.06,1027.8 820.06,1027.8 839.88,1027.8 839.88,1027.8 859.7,1027.8 859.7,1027.8 879.52,1027.8 879.52,1027.8 899.34,1027.8 899.34,1027.8 919.16,1027.8 919.16,1027.8 938.98,1027.8 938.98,1027.8 958.8,1027.8 958.8,1027.8 978.62,1027.8 978.62,1027.8 998.44,1027.8 998.44,1027.8 1018.26,1027.8 1018.26,1027.8 1038.08,1027.8 1038.08,1027.8 1057.9,1027.8 1057.9,1027.8 1077.72,1027.8 1077.72,1027.8 1097.54,1027.8 1097.54,1027.8 1117.36,1027.8 1117.36,1027.8 1137.18,1027.8 1137.18,1027.8 1157,1027.8 1157,1027.8 " />
</g>
</g>
</svg>
