<?xml version="1.0" encoding="UTF-8" standalone="no"?>
<svg width="338.314mm" height="322.086mm"
 viewBox="0 0 959 913"
 xmlns="http://www.w3.org/2000/svg" xmlns:xlink="http://www.w3.org/1999/xlink"  version="1.2" baseProfile="tiny">
<title>Qt SVG Document</title>
<desc>MATLAB, The MathWorks, Inc. Version 25.2.0.2998904 R2025b</desc>
<defs>
</defs>
<g fill="none" stroke="black" stroke-width="1" fill-rule="evenodd" stroke-linecap="square" stroke-linejoin="bevel" >

<g fill="#ffffff" fill-opacity="1" stroke="none" transform="matrix(0.75,0,0,0.75,0,0)"
font-family="MS Shell Dlg 2" font-size="8.25" font-weight="400" font-style="normal" 
>
<path vector-effect="none" fill-rule="evenodd" d="M0,0 L1279,0 L1279,1218 L0,1218 L0,0"/>
</g>

<g fill="#ffffff" fill-opacity="1" stroke="none" transform="matrix(7.5e-05,0,0,7.5e-05,0,0)"
font-family="MS Shell Dlg 2" font-size="8.25" font-weight="400" font-style="normal" 
>
<path vector-effect="none" fill-rule="evenodd" d="M1.66e+06,910000 L1.66e+06,1.083e+07 L1.157e+07,1.083e+07 L1.157e+07,910000 L1.66e+06,910000"/>
</g>

<g fill="#212121" fill-opacity="0.14902" stroke="#212121" stroke-opacity="0.14902" stroke-width="0.666667" stroke-linecap="butt" stroke-linejoin="round" transform="matrix(0.75,0,0,0.75,0,0)"
font-family="MS Shell Dlg 2" font-size="8.25" font-weight="400" font-style="normal" 
>
<polyline fill="none" vector-effect="none" points="166,91 166,1083 " />
<polyline fill="none" vector-effect="none" points="265.1,91 265.1,1083 " />
<polyline fill="none" vector-effect="none" points="364.2,91 364.2,1083 " />
<polyline fill="none" vector-effect="none" points="463.3,91 463.3,1083 " />
<polyline fill="none" vector-effect="none" points="562.4,91 562.4,1083 " />
<polyline fill="none" vector-effect="none" points="661.5,91 661.5,1083 " />
<polyline fill="none" vector-effect="none" points="760.6,91 760.6,1083 " />
<polyline fill="none" vector-effect="none" points="859.7,91 859.7,1083 " />
<polyline fill="none" vector-effect="none" points="958.8,91 958.8,1083 " />
<polyline fill="none" vector-effect="none" points="1057.9,91 1057.9,1083 " />
<polyline fill="none" vector-effect="none" points="1157,91 1157,1083 " />
<polyline fill="none" vector-effect="none" points="166,1083 1157,1083 " />
<polyline fill="none" vector-effect="none" points="166,941.286 1157,941.286 " />
<polyline fill="none" vector-effect="none" points="166,799.571 1157,799.571 " />
<polyline fill="none" vector-effect="none" points="166,657.857 1157,657.857 " />
<polyline fill="none" vector-effect="none" points="166,516.143 1157,516.143 " />
<polyline fill="none" vector-effect="none" points="166,374.429 1157,374.429 " />
<polyline fill="none" vector-effect="none" points="166,232.714 1157,232.714 " />
<polyline fill="none" vector-effect="none" points="166,91 1157,91 " />
</g>

<g fill="#212121" fill-opacity="1" stroke="#212121" stroke-opacity="1" stroke-width="1" stroke-linecap="square" stroke-linejoin="bevel" transform="matrix(0.75,0,0,0.75,477.375,838.25)"
font-family="Helvetica" font-size="14" font-weight="400" font-style="normal" 
>
<text fill="#212121" fill-opacity="1" stroke="none" xml:space="preserve" x="0" y="0" font-family="Helvetica" font-size="14" font-weight="400" font-style="normal" 
 >Time [s]</text>
</g>

<g fill="#212121" fill-opacity="1" stroke="#212121" stroke-opacity="1" stroke-width="0.666667" stroke-linecap="square" stroke-linejoin="round" transform="matrix(0.75,0,0,0.75,0,0)"
font-family="Helvetica" font-size="14" font-weight="400" font-style="normal" 
>
<polyline fill="none" vector-effect="none" points="166,1083 1157,1083 " />
<polyline fill="none" vector-effect="none" points="166,1083 166,1073.08 " />
<polyline fill="none" vector-effect="none" points="265.1,1083 265.1,1073.08 " />
<polyline fill="none" vector-effect="none" points="364.2,1083 364.2,1073.08 " />
<polyline fill="none" vector-effect="none" points="463.3,1083 463.3,1073.08 " />
<polyline fill="none" vector-effect="none" points="562.4,1083 562.4,1073.08 " />
<polyline fill="none" vector-effect="none" points="661.5,1083 661.5,1073.08 " />
<polyline fill="none" vector-effect="none" points="760.6,1083 760.6,1073.08 " />
<polyline fill="none" vector-effect="none" points="859.7,1083 859.7,1073.08 " />
<polyline fill="none" vector-effect="none" points="958.8,1083 958.8,1073.08 " />
<polyline fill="none" vector-effect="none" points="1057.9,1083 1057.9,1073.08 " />
<polyline fill="none" vector-effect="none" points="1157,1083 1157,1073.08 " />
</g>

<g fill="#212121" fill-opacity="1" stroke="#212121" stroke-opacity="1" stroke-width="1" stroke-linecap="square" stroke-linejoin="bevel" transform="matrix(0.75,0,0,0.75,121.875,825.25)"
font-family="Helvetica" font-size="13" font-weight="400" font-style="normal" 
>
<text fill="#212121" fill-opacity="1" stroke="none" xml:space="preserve" x="0" y="0" font-family="Helvetica" font-size="13" font-weight="400" font-style="normal" 
 >0</text>
</g>

<g fill="#212121" fill-opacity="1" stroke="#212121" stroke-opacity="1" stroke-width="1" stroke-linecap="square" stroke-linejoin="bevel" transform="matrix(0.75,0,0,0.75,196.2,825.25)"
font-family="Helvetica" font-size="13" font-weight="400" font-style="normal" 
>
<text fill="#212121" fill-opacity="1" stroke="none" xml:space="preserve" x="0" y="0" font-family="Helvetica" font-size="13" font-weight="400" font-style="normal" 
 >2</text>
</g>

<g fill="#212121" fill-opacity="1" stroke="#212121" stroke-opacity="1" stroke-width="1" stroke-linecap="square" stroke-linejoin="bevel" transform="matrix(0.75,0,0,0.75,270.525,825.25)"
font-family="Helvetica" font-size="13" font-weight="400" font-style="normal" 
>
<text fill="#212121" fill-opacity="1" stroke="none" xml:space="preserve" x="0" y="0" font-family="Helvetica" font-size="13" font-weight="400" font-style="normal" 
 >4</text>
</g>

<g fill="#212121" fill-opacity="1" stroke="#212121" stroke-opacity="1" stroke-width="1" stroke-linecap="square" stroke-linejoin="bevel" transform="matrix(0.75,0,0,0.75,344.85,825.25)"
font-family="Helvetica" font-size="13" font-weight="400" font-style="normal" 
>
<text fill="#212121" fill-opacity="1" stroke="none" xml:space="preserve" x="0" y="0" font-family="Helvetica" font-size="13" font-weight="400" font-style="normal" 
 >6</text>
</g>

<g fill="#212121" fill-opacity="1" stroke="#212121" stroke-opacity="1" stroke-width="1" stroke-linecap="square" stroke-linejoin="bevel" transform="matrix(0.75,0,0,0.75,419.175,825.25)"
font-family="Helvetica" font-size="13" font-weight="400" font-style="normal" 
>
<text fill="#212121" fill-opacity="1" stroke="none" xml:space="preserve" x="0" y="0" font-family="Helvetica" font-size="13" font-weight="400" font-style="normal" 
 >8</text>
</g>

<g fill="#212121" fill-opacity="1" stroke="#212121" stroke-opacity="1" stroke-width="1" stroke-linecap="square" stroke-linejoin="bevel" transform="matrix(0.75,0,0,0.75,490.875,825.25)"
font-family="Helvetica" font-size="13" font-weight="400" font-style="normal" 
>
<text fill="#212121" fill-opacity="1" stroke="none" xml:space="preserve" x="0" y="0" font-family="Helvetica" font-size="13" font-weight="400" font-style="normal" 
 >10</text>
</g>

<g fill="#212121" fill-opacity="1" stroke="#212121" stroke-opacity="1" stroke-width="1" stroke-linecap="square" stroke-linejoin="bevel" transform="matrix(0.75,0,0,0.75,565.2,825.25)"
font-family="Helvetica" font-size="13" font-weight="400" font-style="normal" 
>
<text fill="#212121" fill-opacity="1" stroke="none" xml:space="preserve" x="0" y="0" font-family="Helvetica" font-size="13" font-weight="400" font-style="normal" 
 >12</text>
</g>

<g fill="#212121" fill-opacity="1" stroke="#212121" stroke-opacity="1" stroke-width="1" stroke-linecap="square" stroke-linejoin="bevel" transform="matrix(0.75,0,0,0.75,639.525,825.25)"
font-family="Helvetica" font-size="13" font-weight="400" font-style="normal" 
>
<text fill="#212121" fill-opacity="1" stroke="none" xml:space="preserve" x="0" y="0" font-family="Helvetica" font-size="13" font-weight="400" font-style="normal" 
 >14</text>
</g>

<g fill="#212121" fill-opacity="1" stroke="#212121" stroke-opacity="1" stroke-width="1" stroke-linecap="square" stroke-linejoin="bevel" transform="matrix(0.75,0,0,0.75,713.85,825.25)"
font-family="Helvetica" font-size="13" font-weight="400" font-style="normal" 
>
<text fill="#212121" fill-opacity="1" stroke="none" xml:space="preserve" x="0" y="0" font-family="Helvetica" font-size="13" font-weight="400" font-style="normal" 
 >16</text>
</g>

<g fill="#212121" fill-opacity="1" stroke="#212121" stroke-opacity="1" stroke-width="1" stroke-linecap="square" stroke-linejoin="bevel" transform="matrix(0.75,0,0,0.75,788.175,825.25)"
font-family="Helvetica" font-size="13" font-weight="400" font-style="normal" 
>
<text fill="#212121" fill-opacity="1" stroke="none" xml:space="preserve" x="0" y="0" font-family="Helvetica" font-size="13" font-weight="400" font-style="normal" 
 >18</text>
</g>

<g fill="#212121" fill-opacity="1" stroke="#212121" stroke-opacity="1" stroke-width="1" stroke-linecap="square" stroke-linejoin="bevel" transform="matrix(0.75,0,0,0.75,862.5,825.25)"
font-family="Helvetica" font-size="13" font-weight="400" font-style="normal" 
>
<text fill="#212121" fill-opacity="1" stroke="none" xml:space="preserve" x="0" y="0" font-family="Helvetica" font-size="13" font-weight="400" font-style="normal" 
 >20</text>
</g>

<g fill="#212121" fill-opacity="1" stroke="#212121" stroke-opacity="1" stroke-width="1" stroke-linecap="square" stroke-linejoin="bevel" transform="matrix(0,-0.75,0.75,0,106.25,463.875)"
font-family="Helvetica" font-size="14" font-weight="400" font-style="normal" 
>
<text fill="#212121" fill-opacity="1" stroke="none" xml:space="preserve" x="0" y="0" font-family="Helvetica" font-size="14" font-weight="400" font-style="normal" 
 >Amplitude</text>
</g>

<g fill="#212121" fill-opacity="1" stroke="#212121" stroke-opacity="1" stroke-width="0.666667" stroke-linecap="square" stroke-linejoin="round" transform="matrix(0.75,0,0,0.75,0,0)"
font-family="Helvetica" font-size="14" font-weight="400" font-style="normal" 
>
<polyline fill="none" vector-effect="none" points="166,1083 166,91 " />
<polyline fill="none" vector-effect="none" points="166,1083 175.92,1083 " />
<polyline fill="none" vector-effect="none" points="166,941.286 175.92,941.286 " />
<polyline fill="none" vector-effect="none" points="166,799.571 175.92,799.571 " />
<polyline fill="none" vector-effect="none" points="166,657.857 175.92,657.857 " />
<polyline fill="none" vector-effect="none" points="166,516.143 175.92,516.143 " />
<polyline fill="none" vector-effect="none" points="166,374.429 175.92,374.429 " />
<polyline fill="none" vector-effect="none" points="166,232.714 175.92,232.714 " />
<polyline fill="none" vector-effect="none" points="166,91 175.92,91 " />
</g>

<g fill="#212121" fill-opacity="1" stroke="#212121" stroke-opacity="1" stroke-width="1" stroke-linecap="square" stroke-linejoin="bevel" transform="matrix(0.75,0,0,0.75,112.25,815.625)"
font-family="Helvetica" font-size="13" font-weight="400" font-style="normal" 
>
<text fill="#212121" fill-opacity="1" stroke="none" xml:space="preserve" x="0" y="0" font-family="Helvetica" font-size="13" font-weight="400" font-style="normal" 
 >-8</text>
</g>

<g fill="#212121" fill-opacity="1" stroke="#212121" stroke-opacity="1" stroke-width="1" stroke-linecap="square" stroke-linejoin="bevel" transform="matrix(0.75,0,0,0.75,112.25,709.339)"
font-family="Helvetica" font-size="13" font-weight="400" font-style="normal" 
>
<text fill="#212121" fill-opacity="1" stroke="none" xml:space="preserve" x="0" y="0" font-family="Helvetica" font-size="13" font-weight="400" font-style="normal" 
 >-6</text>
</g>

<g fill="#212121" fill-opacity="1" stroke="#212121" stroke-opacity="1" stroke-width="1" stroke-linecap="square" stroke-linejoin="bevel" transform="matrix(0.75,0,0,0.75,112.25,603.054)"
font-family="Helvetica" font-size="13" font-weight="400" font-style="normal" 
>
<text fill="#212121" fill-opacity="1" stroke="none" xml:space="preserve" x="0" y="0" font-family="Helvetica" font-size="13" font-weight="400" font-style="normal" 
 >-4</text>
</g>

<g fill="#212121" fill-opacity="1" stroke="#212121" stroke-opacity="1" stroke-width="1" stroke-linecap="square" stroke-linejoin="bevel" transform="matrix(0.75,0,0,0.75,112.25,496.768)"
font-family="Helvetica" font-size="13" font-weight="400" font-style="normal" 
>
<text fill="#212121" fill-opacity="1" stroke="none" xml:space="preserve" x="0" y="0" font-family="Helvetica" font-size="13" font-weight="400" font-style="normal" 
 >-2</text>
</g>

<g fill="#212121" fill-opacity="1" stroke="#212121" stroke-opacity="1" stroke-width="1" stroke-linecap="square" stroke-linejoin="bevel" transform="matrix(0.75,0,0,0.75,115.25,390.482)"
font-family="Helvetica" font-size="13" font-weight="400" font-style="normal" 
>
<text fill="#212121" fill-opacity="1" stroke="none" xml:space="preserve" x="0" y="0" font-family="Helvetica" font-size="13" font-weight="400" font-style="normal" 
 >0</text>
</g>

<g fill="#212121" fill-opacity="1" stroke="#212121" stroke-opacity="1" stroke-width="1" stroke-linecap="square" stroke-linejoin="bevel" transform="matrix(0.75,0,0,0.75,115.25,284.196)"
font-family="Helvetica" font-size="13" font-weight="400" font-style="normal" 
>
<text fill="#212121" fill-opacity="1" stroke="none" xml:space="preserve" x="0" y="0" font-family="Helvetica" font-size="13" font-weight="400" font-style="normal" 
 >2</text>
</g>

<g fill="#212121" fill-opacity="1" stroke="#212121" stroke-opacity="1" stroke-width="1" stroke-linecap="square" stroke-linejoin="bevel" transform="matrix(0.75,0,0,0.75,115.25,177.911)"
font-family="Helvetica" font-size="13" font-weight="400" font-style="normal" 
>
<text fill="#212121" fill-opacity="1" stroke="none" xml:space="preserve" x="0" y="0" font-family="Helvetica" font-size="13" font-weight="400" font-style="normal" 
 >4</text>
</g>

<g fill="#212121" fill-opacity="1" stroke="#212121" stroke-opacity="1" stroke-width="1" stroke-linecap="square" stroke-linejoin="bevel" transform="matrix(0.75,0,0,0.75,115.25,71.625)"
font-family="Helvetica" font-size="13" font-weight="400" font-style="normal" 
>
<text fill="#212121" fill-opacity="1" stroke="none" xml:space="preserve" x="0" y="0" font-family="Helvetica" font-size="13" font-weight="400" font-style="normal" 
 >6</text>
</g>

<g fill="#212121" fill-opacity="1" stroke="#212121" stroke-opacity="1" stroke-width="1" stroke-linecap="square" stroke-linejoin="bevel" transform="matrix(0.75,0,0,0.75,417,63.9375)"
font-family="Helvetica" font-size="14" font-weight="700" font-style="normal" 
>
<text fill="#212121" fill-opacity="1" stroke="none" xml:space="preserve" x="0" y="0" font-family="Helvetica" font-size="14" font-weight="700" font-style="normal" 
 >Output and Reference Signal</text>
</g>

<g fill="none" stroke="#0000ff" stroke-opacity="1" stroke-width="0.666667" stroke-linecap="butt" stroke-linejoin="miter" stroke-miterlimit="2" transform="matrix(0.75,0,0,0.75,0,0)"
font-family="Helvetica" font-size="14" font-weight="700" font-style="normal" 
>
<polyline fill="none" vector-effect="none" points="166,516.143 167.037,516.143 167.037,515.688 168.073,515.688 168.073,512.749 169.11,512.749 169.11,505.428 170.147,505.428 170.147,492.534 171.184,492.534 171.184,473.667 172.22,473.667 172.22,449.205 173.257,449.205 173.257,420.212 174.294,420.212 174.294,388.267 175.331,388.267 175.331,355.259 176.367,355.259 176.367,323.157 177.404,323.157 177.404,293.789 178.441,293.789 178.441,268.655 179.478,268.655 179.478,248.791 180.514,248.791 180.514,234.69 181.551,234.69 181.551,226.289 182.588,226.289 182.588,223.02 183.625,223.02 183.625,223.909 184.661,223.909 184.661,227.707 185.698,227.707 185.698,233.046 186.735,233.046 186.735,238.593 187.772,238.593 187.772,243.181 188.808,243.181 188.808,245.924 189.845,245.924 189.845,246.278 190.882,246.278 190.882,244.069 191.919,244.069 191.919,239.475 192.955,239.475 192.955,232.974 193.992,232.974 193.992,225.258 195.029,225.258 195.029,217.138 196.065,217.138 196.065,209.439 197.102,209.439 197.102,202.908 198.139,202.908 198.139,198.131 199.176,198.131 199.176,195.48 200.212,195.48 200.212,195.089 201.249,195.089 201.249,196.851 202.286,196.851 202.286,200.451 203.323,200.451 203.323,205.412 204.359,205.412 204.359,211.157 205.396,211.157 205.396,217.083 206.433,217.083 206.433,222.62 207.47,222.62 207.47,227.293 208.506,227.293 208.506,230.763 209.543,230.763 209.543,232.849 210.58,232.849 210.58,233.539 211.617,233.539 211.617,232.969 212.653,232.969 212.653,231.402 213.69,231.402 213.69,229.183 214.727,229.183 214.727,226.697 215.764,226.697 215.764,224.323 216.8,224.323 216.8,222.39 217.837,222.39 217.837,221.15 218.874,221.15 218.874,220.752 219.911,220.752 219.911,221.238 220.947,221.238 220.947,222.543 221.984,222.543 221.984,224.517 223.021,224.517 223.021,226.941 224.057,226.941 224.057,229.564 225.094,229.564 225.094,232.127 226.131,232.127 226.131,234.397 227.168,234.397 227.168,236.185 228.204,236.185 228.204,237.369 229.241,237.369 229.241,237.898 230.278,237.898 230.278,237.793 231.315,237.793 231.315,237.14 232.351,237.14 232.351,236.073 233.388,236.073 233.388,234.757 234.425,234.757 234.425,233.371 235.462,233.371 235.462,232.081 236.498,232.081 236.498,231.028 237.535,231.028 237.535,230.314 238.572,230.314 238.572,229.995 239.609,229.995 239.609,230.074 240.645,230.074 240.645,230.514 241.682,230.514 241.682,231.237 242.719,231.237 242.719,232.141 243.756,232.141 243.756,233.113 244.792,233.113 244.792,234.038 245.829,234.038 245.829,234.819 246.866,234.819 246.866,235.379 247.902,235.379 247.902,235.673 248.939,235.673 248.939,235.687 249.976,235.687 249.976,235.439 251.013,235.439 251.013,234.975 252.049,234.975 252.049,234.358 253.086,234.358 253.086,233.665 254.123,233.665 254.123,232.973 255.16,232.973 255.16,232.354 256.196,232.354 256.196,231.866 257.233,231.866 257.233,231.546 258.27,231.546 258.27,231.413 259.307,231.413 259.307,231.462 260.343,231.462 260.343,231.67 261.38,231.67 261.38,231.997 262.417,231.997 262.417,232.396 263.454,232.396 263.454,232.814 264.49,232.814 264.49,233.201 265.527,233.201 265.527,233.517 266.564,233.517 266.564,233.73 267.601,233.73 267.601,233.824 268.637,233.824 268.637,233.797 269.674,233.797 269.674,234.683 270.711,234.683 270.711,241.071 271.748,241.071 271.748,257.263 272.784,257.263 272.784,285.97 273.821,285.97 273.821,328.129 274.858,328.129 274.858,382.916 275.895,382.916 275.895,447.965 276.931,447.965 276.931,519.733 277.968,519.733 277.968,593.976 279.005,593.976 279.005,666.261 280.041,666.261 280.041,732.461 281.078,732.461 281.078,789.18 282.115,789.18 282.115,834.067 283.152,834.067 283.152,865.99 284.188,865.99 284.188,885.066 285.225,885.066 285.225,892.558 286.262,892.558 286.262,890.646 287.299,890.646 287.299,882.134 288.335,882.134 288.335,870.101 289.372,870.101 289.372,857.555 290.409,857.555 290.409,847.128 291.446,847.128 291.446,840.833 292.482,840.833 292.482,839.906 293.519,839.906 293.519,844.755 294.556,844.755 294.556,854.99 295.593,854.99 295.593,869.548 296.629,869.548 296.629,886.876 297.666,886.876 297.666,905.151 298.703,905.151 298.703,922.509 299.74,922.509 299.74,937.268 300.776,937.268 300.776,948.098 301.813,948.098 301.813,954.15 302.85,954.15 302.85,955.117 303.886,955.117 303.886,951.227 304.923,951.227 304.923,943.183 305.96,943.183 305.96,932.055 306.997,932.055 306.997,919.135 308.033,919.135 308.033,905.787 309.07,905.787 309.07,893.293 310.107,893.293 310.107,882.73 311.144,882.73 311.144,874.867 312.18,874.867 312.18,870.115 313.217,870.115 313.217,868.512 314.254,868.512 314.254,869.753 315.291,869.753 315.291,873.252 316.327,873.252 316.327,878.234 317.364,878.234 317.364,883.832 318.401,883.832 318.401,889.194 319.438,889.194 319.438,893.574 320.474,893.574 320.474,896.401 321.511,896.401 321.511,897.336 322.548,897.336 322.548,896.281 323.585,896.281 323.585,893.374 324.621,893.374 324.621,888.955 325.658,888.955 325.658,883.511 326.695,883.511 326.695,877.61 327.732,877.61 327.732,871.833 328.768,871.833 328.768,866.709 329.805,866.709 329.805,862.661 330.842,862.661 330.842,859.971 331.878,859.971 331.878,858.755 332.915,858.755 332.915,858.968 333.952,858.968 333.952,860.422 334.989,860.422 334.989,862.814 336.025,862.814 336.025,865.77 337.062,865.77 337.062,868.894 338.099,868.894 338.099,871.807 339.136,871.807 339.136,874.19 340.172,874.19 340.172,875.813 341.209,875.813 341.209,876.55 342.246,876.55 342.246,876.386 343.283,876.386 343.283,875.41 344.319,875.41 344.319,873.791 345.356,873.791 345.356,871.76 346.393,871.76 346.393,869.573 347.43,869.573 347.43,867.484 348.466,867.484 348.466,865.719 349.503,865.719 349.503,864.448 350.54,864.448 350.54,863.775 351.577,863.775 351.577,863.733 352.613,863.733 352.613,864.281 353.65,864.281 353.65,865.319 354.687,865.319 354.687,866.703 355.724,866.703 355.724,868.262 356.76,868.262 356.76,869.821 357.797,869.821 357.797,871.219 358.834,871.219 358.834,872.325 359.87,872.325 359.87,873.051 360.907,873.051 360.907,873.358 361.944,873.358 361.944,873.255 362.981,873.255 362.981,872.793 364.017,872.793 364.017,872.06 365.054,872.06 365.054,871.164 366.091,871.164 366.091,870.223 367.128,870.223 367.128,869.347 368.164,869.347 368.164,868.632 369.201,868.632 369.201,868.148 370.238,868.148 370.238,867.931 371.275,867.931 371.275,867.988 372.311,867.988 372.311,868.294 373.348,868.294 373.348,868.796 374.385,868.796 374.385,869.428 375.422,869.428 375.422,870.112 376.458,870.112 376.458,870.772 377.495,870.772 377.495,871.34 378.532,871.34 378.532,871.762 379.569,871.762 379.569,872.008 380.605,872.008 380.605,872.064 381.642,872.064 381.642,871.943 382.679,871.943 382.679,871.673 383.715,871.673 383.715,871.295 384.752,871.295 384.752,870.861 385.789,870.861 385.789,870.423 386.826,870.423 386.826,870.029 387.862,870.029 387.862,869.718 388.899,869.718 388.899,869.517 389.936,869.517 389.936,869.439 390.973,869.439 390.973,869.482 392.009,869.482 392.009,869.631 393.046,869.631 393.046,869.862 394.083,869.862 394.083,870.141 395.12,870.141 395.12,870.434 396.156,870.434 396.156,870.708 397.193,870.708 397.193,870.934 398.23,870.934 398.23,871.092 399.267,871.092 399.267,871.168 400.303,871.168 400.303,871.162 401.34,871.162 401.34,871.081 402.377,871.081 402.377,870.939 403.414,870.939 403.414,870.756 404.45,870.756 404.45,870.556 405.487,870.556 405.487,870.361 406.524,870.361 406.524,870.191 407.561,870.191 407.561,870.064 408.597,870.064 408.597,869.989 409.634,869.989 409.634,869.969 410.671,869.969 410.671,870.003 411.707,870.003 411.707,870.081 412.744,870.081 412.744,870.191 413.781,870.191 413.781,870.319 414.818,870.319 414.818,870.449 415.854,870.449 415.854,870.566 416.891,870.566 416.891,870.66 417.928,870.66 417.928,870.72 418.965,870.72 418.965,870.744 420.001,870.744 420.001,870.732 421.038,870.732 421.038,870.688 422.075,870.688 422.075,870.619 423.112,870.619 423.112,870.535 424.148,870.535 424.148,870.446 425.185,870.446 425.185,869.452 426.222,869.452 426.222,863.505 427.259,863.505 427.259,848.813 428.295,848.813 428.295,823 429.332,823 429.332,785.265 430.369,785.265 430.369,736.364 431.406,736.364 431.406,678.418 432.442,678.418 432.442,614.581 433.479,614.581 433.479,548.625 434.516,548.625 434.516,484.478 435.553,484.478 435.553,425.792 436.589,425.792 436.589,375.563 437.626,375.563 437.626,335.858 438.663,335.858 438.663,307.661 439.699,307.661 439.699,290.849 440.736,290.849 440.736,284.29 441.773,284.29 441.773,286.034 442.81,286.034 442.81,293.592 443.846,293.592 443.846,304.232 444.883,304.232 444.883,315.288 445.92,315.288 445.92,324.437 446.957,324.437 446.957,329.903 447.993,329.903 447.993,330.603 449.03,330.603 449.03,326.188 450.067,326.188 450.067,317.015 451.104,317.015 451.104,304.032 452.14,304.032 452.14,288.625 453.177,288.625 453.177,272.41 454.214,272.41 454.214,257.038 455.251,257.038 455.251,243.997 456.287,243.997 456.287,234.458 457.324,234.458 457.324,229.165 458.361,229.165 458.361,228.383 459.398,228.383 459.398,231.901 460.434,231.901 460.434,239.089 461.471,239.089 461.471,248.994 462.508,248.994 462.508,260.469 463.545,260.469 463.545,272.303 464.581,272.303 464.581,283.363 465.618,283.363 465.618,292.697 466.655,292.697 466.655,299.629 467.691,299.629 467.691,303.799 468.728,303.799 468.728,305.181 469.765,305.181 469.765,304.048 470.802,304.048 470.802,300.923 471.838,300.923 471.838,296.497 472.875,296.497 472.875,291.538 473.912,291.538 473.912,286.8 474.949,286.8 474.949,282.943 475.985,282.943 475.985,280.469 477.022,280.469 477.022,279.675 478.059,279.675 478.059,280.646 479.096,280.646 479.096,283.253 480.132,283.253 480.132,287.194 481.169,287.194 481.169,292.036 482.206,292.036 482.206,297.274 483.243,297.274 483.243,302.393 484.279,302.393 484.279,306.925 485.316,306.925 485.316,310.497 486.353,310.497 486.353,312.863 487.39,312.863 487.39,313.921 488.426,313.921 488.426,313.713 489.463,313.713 489.463,312.409 490.5,312.409 490.5,310.279 491.536,310.279 491.536,307.654 492.573,307.654 492.573,304.886 493.61,304.886 493.61,302.31 494.647,302.31 494.647,300.209 495.683,300.209 495.683,298.784 496.72,298.784 496.72,298.145 497.757,298.145 497.757,298.303 498.794,298.303 498.794,299.181 499.83,299.181 499.83,300.624 500.867,300.624 500.867,302.429 501.904,302.429 501.904,304.369 502.941,304.369 502.941,306.217 503.977,306.217 503.977,307.775 505.014,307.775 505.014,308.894 506.051,308.894 506.051,309.48 507.088,309.48 507.088,309.508 508.124,309.508 508.124,309.014 509.161,309.014 509.161,308.087 510.198,308.087 510.198,306.855 511.235,306.855 511.235,305.472 512.271,305.472 512.271,304.091 513.308,304.091 513.308,302.855 514.345,302.855 514.345,301.879 515.382,301.879 515.382,301.241 516.418,301.241 516.418,300.975 517.455,300.975 517.455,301.073 518.492,301.073 518.492,301.487 519.529,301.487 519.529,302.14 520.565,302.14 520.565,302.935 521.602,302.935 521.602,303.77 522.639,303.77 522.639,304.544 523.675,304.544 523.675,305.174 524.712,305.174 524.712,305.6 525.749,305.6 525.749,305.787 526.786,305.787 526.786,305.732 527.822,305.732 527.822,305.458 528.859,305.458 528.859,305.01 529.896,305.01 529.896,304.448 530.933,304.448 530.933,303.842 531.969,303.842 531.969,303.258 533.006,303.258 533.006,302.756 534.043,302.756 534.043,302.384 535.08,302.384 535.08,302.169 536.116,302.169 536.116,302.122 537.153,302.122 537.153,302.232 538.19,302.232 538.19,302.473 539.227,302.473 539.227,302.809 540.263,302.809 540.263,303.194 541.3,303.194 541.3,303.583 542.337,303.583 542.337,303.931 543.374,303.931 543.374,304.206 544.41,304.206 544.41,304.382 545.447,304.382 545.447,304.449 546.484,304.449 546.484,304.409 547.521,304.409 547.521,304.275 548.557,304.275 548.557,304.07 549.594,304.07 549.594,303.822 550.631,303.822 550.631,303.562 551.667,303.562 551.667,303.32 552.704,303.32 552.704,303.12 553.741,303.12 553.741,302.982 554.778,302.982 554.778,302.915 555.814,302.915 555.814,302.921 556.851,302.921 556.851,302.995 557.888,302.995 557.888,303.122 558.925,303.122 558.925,303.284 559.961,303.284 559.961,303.462 560.998,303.462 560.998,303.634 562.035,303.634 562.035,303.784 563.072,303.784 563.072,303.896 564.108,303.896 564.108,303.962 565.145,303.962 565.145,303.979 566.182,303.979 566.182,303.948 567.219,303.948 567.219,303.878 568.255,303.878 568.255,303.78 569.292,303.78 569.292,303.667 570.329,303.667 570.329,303.551 571.366,303.551 571.366,303.448 572.402,303.448 572.402,303.365 573.439,303.365 573.439,303.312 574.476,303.312 574.476,303.292 575.512,303.292 575.512,303.303 576.549,303.303 576.549,303.343 577.586,303.343 577.586,303.404 578.623,303.404 578.623,303.479 579.659,303.479 579.659,303.557 580.696,303.557 580.696,303.631 581.733,303.631 581.733,303.693 582.77,303.693 582.77,303.736 583.806,303.736 583.806,303.758 584.843,303.758 584.843,303.758 585.88,303.758 585.88,303.738 586.917,303.738 586.917,303.702 587.953,303.702 587.953,303.655 588.99,303.655 588.99,303.603 590.027,303.603 590.027,303.552 591.064,303.552 591.064,303.508 592.1,303.508 592.1,303.474 593.137,303.474 593.137,303.454 594.174,303.454 594.174,303.449 595.211,303.449 595.211,303.457 596.247,303.457 596.247,303.478 597.284,303.478 597.284,303.507 598.321,303.507 598.321,303.541 599.357,303.541 599.357,303.576 600.394,303.576 600.394,303.607 601.431,303.607 601.431,303.632 602.468,303.632 602.468,303.649 603.504,303.649 603.504,303.655 604.541,303.655 604.541,303.653 605.578,303.653 605.578,303.641 606.615,303.641 606.615,303.623 607.651,303.623 607.651,303.601 608.688,303.601 608.688,303.578 609.725,303.578 609.725,303.556 610.762,303.556 610.762,303.537 611.798,303.537 611.798,303.524 612.835,303.524 612.835,303.517 613.872,303.517 613.872,303.517 614.909,303.517 614.909,303.522 615.945,303.522 615.945,303.533 616.982,303.533 616.982,303.546 618.019,303.546 618.019,303.562 619.056,303.562 619.056,303.577 620.092,303.577 620.092,303.59 621.129,303.59 621.129,303.601 622.166,303.601 622.166,303.607 623.203,303.607 623.203,303.609 624.239,303.609 624.239,303.606 625.276,303.606 625.276,303.6 626.313,303.6 626.313,303.591 627.349,303.591 627.349,303.581 628.386,303.581 628.386,303.571 629.423,303.571 629.423,303.562 630.46,303.562 630.46,303.554 631.496,303.554 631.496,303.549 632.533,303.549 632.533,303.547 633.57,303.547 633.57,303.547 634.607,303.547 634.607,303.55 635.643,303.55 635.643,303.556 636.68,303.556 636.68,303.562 637.717,303.562 637.717,303.569 638.754,303.569 638.754,303.576 639.79,303.576 639.79,303.581 640.827,303.581 640.827,303.585 641.864,303.585 641.864,303.588 642.901,303.588 642.901,303.588 643.937,303.588 643.937,303.586 644.974,303.586 644.974,303.583 646.011,303.583 646.011,303.579 647.048,303.579 647.048,303.574 648.084,303.574 648.084,303.57 649.121,303.57 649.121,303.566 650.158,303.566 650.158,303.563 651.195,303.563 651.195,303.561 652.231,303.561 652.231,303.56 653.268,303.56 653.268,303.561 654.305,303.561 654.305,303.563 655.341,303.563 655.341,303.565 656.378,303.565 656.378,303.568 657.415,303.568 657.415,303.571 658.452,303.571 658.452,303.574 659.488,303.574 659.488,303.577 660.525,303.577 660.525,303.578 661.562,303.578 661.562,303.579 662.599,303.579 662.599,303.579 663.635,303.579 663.635,303.578 664.672,303.578 664.672,303.576 665.709,303.576 665.709,303.574 666.746,303.574 666.746,303.572 667.782,303.572 667.782,303.57 668.819,303.57 668.819,303.569 669.856,303.569 669.856,303.567 670.893,303.567 670.893,303.567 671.929,303.567 671.929,303.567 672.966,303.567 672.966,303.567 674.003,303.567 674.003,303.568 675.04,303.568 675.04,303.569 676.076,303.569 676.076,303.57 677.113,303.57 677.113,303.572 678.15,303.572 678.15,303.573 679.187,303.573 679.187,303.574 680.223,303.574 680.223,303.575 681.26,303.575 681.26,303.575 682.297,303.575 682.297,303.575 683.333,303.575 683.333,303.574 684.37,303.574 684.37,303.573 685.407,303.573 685.407,303.572 686.444,303.572 686.444,303.572 687.48,303.572 687.48,303.571 688.517,303.571 688.517,303.57 689.554,303.57 689.554,303.569 690.591,303.569 690.591,303.569 691.627,303.569 691.627,303.569 692.664,303.569 692.664,303.57 693.701,303.57 693.701,303.57 694.738,303.57 694.738,303.571 695.774,303.571 695.774,303.571 696.811,303.571 696.811,303.572 697.848,303.572 697.848,303.572 698.885,303.572 698.885,303.573 699.921,303.573 699.921,303.573 700.958,303.573 700.958,303.573 701.995,303.573 701.995,303.573 703.032,303.573 703.032,303.573 704.068,303.573 704.068,303.572 705.105,303.572 705.105,303.572 706.142,303.572 706.142,303.571 707.179,303.571 707.179,303.571 708.215,303.571 708.215,303.571 709.252,303.571 709.252,303.571 710.289,303.571 710.289,303.57 711.326,303.57 711.326,303.57 712.362,303.57 712.362,303.571 713.399,303.571 713.399,303.571 714.436,303.571 714.436,303.571 715.472,303.571 715.472,303.571 716.509,303.571 716.509,303.572 717.546,303.572 717.546,303.572 718.583,303.572 718.583,303.572 719.619,303.572 719.619,303.572 720.656,303.572 720.656,303.572 721.693,303.572 721.693,303.572 722.73,303.572 722.73,303.572 723.766,303.572 723.766,303.572 724.803,303.572 724.803,303.572 725.84,303.572 725.84,303.571 726.877,303.571 726.877,303.571 727.913,303.571 727.913,303.571 728.95,303.571 728.95,303.571 729.987,303.571 729.987,303.571 731.024,303.571 731.024,303.571 732.06,303.571 732.06,303.571 733.097,303.571 733.097,303.571 734.134,303.571 734.134,303.571 735.171,303.571 735.171,303.571 736.207,303.571 736.207,303.572 737.244,303.572 737.244,303.572 738.281,303.572 738.281,303.572 739.318,303.572 739.318,303.572 740.354,303.572 740.354,303.572 741.391,303.572 741.391,303.572 742.428,303.572 742.428,303.572 743.464,303.572 743.464,303.572 744.501,303.572 744.501,303.571 745.538,303.571 745.538,303.571 746.575,303.571 746.575,303.571 747.611,303.571 747.611,303.571 748.648,303.571 748.648,303.571 749.685,303.571 749.685,303.571 750.722,303.571 750.722,303.571 751.758,303.571 751.758,303.571 752.795,303.571 752.795,303.571 753.832,303.571 753.832,303.571 754.869,303.571 754.869,303.571 755.905,303.571 755.905,303.572 756.942,303.572 756.942,303.572 757.979,303.572 757.979,303.572 759.016,303.572 759.016,303.572 760.052,303.572 760.052,303.572 761.089,303.572 761.089,303.572 762.126,303.572 762.126,303.572 763.163,303.572 763.163,303.571 764.199,303.571 764.199,303.571 765.236,303.571 765.236,303.571 766.273,303.571 766.273,303.571 767.31,303.571 767.31,303.571 768.346,303.571 768.346,303.571 769.383,303.571 769.383,303.571 770.42,303.571 770.42,303.571 771.456,303.571 771.456,303.571 772.493,303.571 772.493,303.571 773.53,303.571 773.53,303.571 774.567,303.571 774.567,303.571 775.603,303.571 775.603,303.571 776.64,303.571 776.64,303.571 777.677,303.571 777.677,303.571 778.714,303.571 778.714,303.571 779.75,303.571 779.75,303.571 780.787,303.571 780.787,303.571 781.824,303.571 781.824,303.571 782.861,303.571 782.861,303.571 783.897,303.571 783.897,303.571 784.934,303.571 784.934,303.571 785.971,303.571 785.971,303.571 787.008,303.571 787.008,303.571 788.044,303.571 788.044,303.571 789.081,303.571 789.081,303.571 790.118,303.571 790.118,303.571 791.155,303.571 791.155,303.571 792.191,303.571 792.191,303.571 793.228,303.571 793.228,303.571 794.265,303.571 794.265,303.571 795.301,303.571 795.301,303.571 796.338,303.571 796.338,303.571 797.375,303.571 797.375,303.571 798.412,303.571 798.412,303.571 799.448,303.571 799.448,303.571 800.485,303.571 800.485,303.571 801.522,303.571 801.522,303.571 802.559,303.571 802.559,303.571 803.595,303.571 803.595,303.571 804.632,303.571 804.632,303.571 805.669,303.571 805.669,303.571 806.706,303.571 806.706,303.571 807.742,303.571 807.742,303.571 808.779,303.571 808.779,303.571 809.816,303.571 809.816,303.571 810.853,303.571 810.853,303.571 811.889,303.571 811.889,303.571 812.926,303.571 812.926,303.571 813.963,303.571 813.963,303.571 815,303.571 815,303.571 816.036,303.571 816.036,303.571 817.073,303.571 817.073,303.571 818.11,303.571 818.11,303.571 819.146,303.571 819.146,303.571 820.183,303.571 820.183,303.571 821.22,303.571 821.22,303.571 822.257,303.571 822.257,303.571 823.293,303.571 823.293,303.571 824.33,303.571 824.33,303.571 825.367,303.571 825.367,303.571 826.404,303.571 826.404,303.571 827.44,303.571 827.44,303.571 828.477,303.571 828.477,303.571 829.514,303.571 829.514,303.571 830.551,303.571 830.551,303.571 831.587,303.571 831.587,303.571 832.624,303.571 832.624,303.571 833.661,303.571 833.661,303.571 834.698,303.571 834.698,303.571 835.734,303.571 835.734,303.571 836.771,303.571 836.771,303.571 837.808,303.571 837.808,303.571 838.845,303.571 838.845,303.571 839.881,303.571 839.881,303.571 840.918,303.571 840.918,303.571 841.955,303.571 841.955,303.571 842.992,303.571 842.992,303.571 844.028,303.571 844.028,303.571 845.065,303.571 845.065,303.571 846.102,303.571 846.102,303.571 847.138,303.571 847.138,303.571 848.175,303.571 848.175,303.571 849.212,303.571 849.212,303.571 850.249,303.571 850.249,303.571 851.285,303.571 851.285,303.571 852.322,303.571 852.322,303.571 853.359,303.571 853.359,303.571 854.396,303.571 854.396,303.571 855.432,303.571 855.432,303.571 856.469,303.571 856.469,303.571 857.506,303.571 857.506,303.571 858.543,303.571 858.543,303.571 859.579,303.571 859.579,303.571 860.616,303.571 860.616,303.571 861.653,303.571 861.653,303.571 862.69,303.571 862.69,303.571 863.726,303.571 863.726,303.571 864.763,303.571 864.763,303.571 865.8,303.571 865.8,303.571 866.837,303.571 866.837,303.571 867.873,303.571 867.873,303.571 868.91,303.571 868.91,303.571 869.947,303.571 869.947,303.571 870.984,303.571 870.984,303.571 872.02,303.571 872.02,303.571 873.057,303.571 873.057,303.571 874.094,303.571 874.094,303.571 875.13,303.571 875.13,303.571 876.167,303.571 876.167,303.571 877.204,303.571 877.204,303.571 878.241,303.571 878.241,303.571 879.277,303.571 879.277,303.571 880.314,303.571 880.314,303.571 881.351,303.571 881.351,303.571 882.388,303.571 882.388,303.571 883.424,303.571 883.424,303.571 884.461,303.571 884.461,303.571 885.498,303.571 885.498,303.571 886.535,303.571 886.535,303.571 887.571,303.571 887.571,303.571 888.608,303.571 888.608,303.571 889.645,303.571 889.645,303.571 890.682,303.571 890.682,303.571 891.718,303.571 891.718,303.571 892.755,303.571 892.755,303.571 893.792,303.571 893.792,303.571 894.829,303.571 894.829,303.571 895.865,303.571 895.865,303.571 896.902,303.571 896.902,303.571 897.939,303.571 897.939,303.571 898.975,303.571 898.975,303.571 900.012,303.571 900.012,303.571 901.049,303.571 901.049,303.571 902.086,303.571 902.086,303.571 903.122,303.571 903.122,303.571 904.159,303.571 904.159,303.571 905.196,303.571 905.196,303.571 906.233,303.571 906.233,303.571 907.269,303.571 907.269,303.571 908.306,303.571 908.306,303.571 909.343,303.571 909.343,303.571 910.38,303.571 910.38,303.571 911.416,303.571 911.416,303.571 912.453,303.571 912.453,303.571 913.49,303.571 913.49,303.571 914.527,303.571 914.527,303.571 915.563,303.571 915.563,303.571 916.6,303.571 916.6,303.571 917.637,303.571 917.637,303.571 918.674,303.571 918.674,303.571 919.71,303.571 919.71,303.571 920.747,303.571 920.747,303.571 921.784,303.571 921.784,303.571 922.82,303.571 922.82,303.571 923.857,303.571 923.857,303.571 924.894,303.571 924.894,303.571 925.931,303.571 925.931,303.571 926.967,303.571 926.967,303.571 928.004,303.571 928.004,303.571 929.041,303.571 929.041,303.571 930.078,303.571 930.078,303.571 931.114,303.571 931.114,303.571 932.151,303.571 932.151,303.571 933.188,303.571 933.188,303.571 934.225,303.571 934.225,303.571 935.261,303.571 935.261,303.571 936.298,303.571 936.298,303.571 937.335,303.571 937.335,303.571 938.372,303.571 938.372,303.571 939.408,303.571 939.408,303.571 940.445,303.571 940.445,303.571 941.482,303.571 941.482,303.571 942.519,303.571 942.519,303.571 943.555,303.571 943.555,303.571 944.592,303.571 944.592,303.571 945.629,303.571 945.629,303.571 946.666,303.571 946.666,303.571 947.702,303.571 947.702,303.571 948.739,303.571 948.739,303.571 949.776,303.571 949.776,303.571 950.813,303.571 950.813,303.571 951.849,303.571 951.849,303.571 952.886,303.571 952.886,303.571 953.923,303.571 953.923,303.571 954.959,303.571 954.959,303.571 955.996,303.571 955.996,303.571 957.033,303.571 957.033,303.571 958.07,303.571 958.07,303.571 959.107,303.571 959.107,303.571 960.143,303.571 960.143,303.571 961.18,303.571 961.18,303.571 962.217,303.571 962.217,303.571 963.253,303.571 963.253,303.571 964.29,303.571 964.29,303.571 965.327,303.571 965.327,303.571 966.364,303.571 966.364,303.571 967.4,303.571 967.4,303.571 968.437,303.571 968.437,303.571 969.474,303.571 969.474,303.571 970.511,303.571 970.511,303.571 971.547,303.571 971.547,303.571 972.584,303.571 972.584,303.571 973.621,303.571 973.621,303.571 974.658,303.571 974.658,303.571 975.694,303.571 975.694,303.571 976.731,303.571 976.731,303.571 977.768,303.571 977.768,303.571 978.805,303.571 978.805,303.571 979.841,303.571 979.841,303.571 980.878,303.571 980.878,303.571 981.915,303.571 981.915,303.571 982.952,303.571 982.952,303.571 983.988,303.571 983.988,303.571 985.025,303.571 985.025,303.571 986.062,303.571 986.062,303.571 987.098,303.571 987.098,303.571 988.135,303.571 988.135,303.571 989.172,303.571 989.172,303.571 990.209,303.571 990.209,303.571 991.245,303.571 991.245,303.571 992.282,303.571 992.282,303.571 993.319,303.571 993.319,303.571 994.356,303.571 994.356,303.571 995.392,303.571 995.392,303.571 996.429,303.571 996.429,303.571 997.466,303.571 997.466,303.571 998.503,303.571 998.503,303.571 999.539,303.571 999.539,303.571 1000.58,303.571 1000.58,303.571 1001.61,303.571 1001.61,303.571 1002.65,303.571 1002.65,303.571 1003.69,303.571 1003.69,303.571 1004.72,303.571 1004.72,303.571 1005.76,303.571 1005.76,303.571 1006.8,303.571 1006.8,303.571 1007.83,303.571 1007.83,303.571 1008.87,303.571 1008.87,303.571 1009.91,303.571 1009.91,303.571 1010.94,303.571 1010.94,303.571 1011.98,303.571 1011.98,303.571 1013.02,303.571 1013.02,303.571 1014.05,303.571 1014.05,303.571 1015.09,303.571 1015.09,303.571 1016.13,303.571 1016.13,303.571 1017.16,303.571 1017.16,303.571 1018.2,303.571 1018.2,303.571 1019.24,303.571 1019.24,303.571 1020.27,303.571 1020.27,303.571 1021.31,303.571 1021.31,303.571 1022.35,303.571 1022.35,303.571 1023.38,303.571 1023.38,303.571 1024.42,303.571 1024.42,303.571 1025.46,303.571 1025.46,303.571 1026.49,303.571 1026.49,303.571 1027.53,303.571 1027.53,303.571 1028.57,303.571 1028.57,303.571 1029.6,303.571 1029.6,303.571 1030.64,303.571 1030.64,303.571 1031.68,303.571 1031.68,303.571 1032.71,303.571 1032.71,303.571 1033.75,303.571 1033.75,303.571 1034.79,303.571 1034.79,303.571 1035.83,303.571 1035.83,303.571 1036.86,303.571 1036.86,303.571 1037.9,303.571 1037.9,303.571 1038.94,303.571 1038.94,303.571 1039.97,303.571 1039.97,303.571 1041.01,303.571 1041.01,303.571 1042.05,303.571 1042.05,303.571 1043.08,303.571 1043.08,303.571 1044.12,303.571 1044.12,303.571 1045.16,303.571 1045.16,303.571 1046.19,303.571 1046.19,303.571 1047.23,303.571 1047.23,303.571 1048.27,303.571 1048.27,303.571 1049.3,303.571 1049.3,303.571 1050.34,303.571 1050.34,303.571 1051.38,303.571 1051.38,303.571 1052.41,303.571 1052.41,303.571 1053.45,303.571 1053.45,303.571 1054.49,303.571 1054.49,303.571 1055.52,303.571 1055.52,303.571 1056.56,303.571 1056.56,303.571 1057.6,303.571 1057.6,303.571 1058.63,303.571 1058.63,303.571 1059.67,303.571 1059.67,303.571 1060.71,303.571 1060.71,303.571 1061.74,303.571 1061.74,303.571 1062.78,303.571 1062.78,303.571 1063.82,303.571 1063.82,303.571 1064.85,303.571 1064.85,303.571 1065.89,303.571 1065.89,303.571 1066.93,303.571 1066.93,303.571 1067.96,303.571 1067.96,303.571 1069,303.571 1069,303.571 1070.04,303.571 1070.04,303.571 1071.07,303.571 1071.07,303.571 1072.11,303.571 1072.11,303.571 1073.15,303.571 1073.15,303.571 1074.18,303.571 1074.18,303.571 1075.22,303.571 1075.22,303.571 1076.26,303.571 1076.26,303.571 1077.29,303.571 1077.29,303.571 1078.33,303.571 1078.33,303.571 1079.37,303.571 1079.37,303.571 1080.41,303.571 1080.41,303.571 1081.44,303.571 1081.44,303.571 1082.48,303.571 1082.48,303.571 1083.52,303.571 1083.52,303.571 1084.55,303.571 1084.55,303.571 1085.59,303.571 1085.59,303.571 1086.63,303.571 1086.63,303.571 1087.66,303.571 1087.66,303.571 1088.7,303.571 1088.7,303.571 1089.74,303.571 1089.74,303.571 1090.77,303.571 1090.77,303.571 1091.81,303.571 1091.81,303.571 1092.85,303.571 1092.85,303.571 1093.88,303.571 1093.88,303.571 1094.92,303.571 1094.92,303.571 1095.96,303.571 1095.96,303.571 1096.99,303.571 1096.99,303.571 1098.03,303.571 1098.03,303.571 1099.07,303.571 1099.07,303.571 1100.1,303.571 1100.1,303.571 1101.14,303.571 1101.14,303.571 1102.18,303.571 1102.18,303.571 1103.21,303.571 1103.21,303.571 1104.25,303.571 1104.25,303.571 1105.29,303.571 1105.29,303.571 1106.32,303.571 1106.32,303.571 1107.36,303.571 1107.36,303.571 1108.4,303.571 1108.4,303.571 1109.43,303.571 1109.43,303.571 1110.47,303.571 1110.47,303.571 1111.51,303.571 1111.51,303.571 1112.54,303.571 1112.54,303.571 1113.58,303.571 1113.58,303.571 1114.62,303.571 1114.62,303.571 1115.65,303.571 1115.65,303.571 1116.69,303.571 1116.69,303.571 1117.73,303.571 1117.73,303.571 1118.76,303.571 1118.76,303.571 1119.8,303.571 1119.8,303.571 1120.84,303.571 1120.84,303.571 1121.87,303.571 1121.87,303.571 1122.91,303.571 1122.91,303.571 1123.95,303.571 1123.95,303.571 1124.98,303.571 1124.98,303.571 1126.02,303.571 1126.02,303.571 1127.06,303.571 1127.06,303.571 1128.1,303.571 1128.1,303.571 1129.13,303.571 1129.13,303.571 1130.17,303.571 1130.17,303.571 1131.21,303.571 1131.21,303.571 1132.24,303.571 1132.24,303.571 1133.28,303.571 1133.28,303.571 1134.32,303.571 1134.32,303.571 1135.35,303.571 1135.35,303.571 1136.39,303.571 1136.39,303.571 1137.43,303.571 1137.43,303.571 1138.46,303.571 1138.46,303.571 1139.5,303.571 1139.5,303.571 1140.54,303.571 1140.54,303.571 1141.57,303.571 1141.57,303.571 1142.61,303.571 1142.61,303.571 1143.65,303.571 1143.65,303.571 1144.68,303.571 1144.68,303.571 1145.72,303.571 1145.72,303.571 1146.76,303.571 1146.76,303.571 1147.79,303.571 1147.79,303.571 1148.83,303.571 1148.83,303.571 1149.87,303.571 1149.87,303.571 1150.9,303.571 1150.9,303.571 1151.94,303.571 1151.94,303.571 1152.98,303.571 1152.98,303.571 1154.01,303.571 1154.01,303.571 1155.05,303.571 1155.05,303.571 1156.09,303.571 1156.09,303.571 " />
</g>

<g fill="none" stroke="#ff0000" stroke-opacity="1" stroke-dasharray="10,6" stroke-dashoffset="0" stroke-width="0.666667" stroke-linecap="butt" stroke-linejoin="miter" stroke-miterlimit="2" transform="matrix(0.75,0,0,0.75,0,0)"
font-family="Helvetica" font-size="14" font-weight="700" font-style="normal" 
>
<polyline fill="none" vector-effect="none" points="166,232.714 167.037,232.714 167.037,232.714 168.073,232.714 168.073,232.714 169.11,232.714 169.11,232.714 170.147,232.714 170.147,232.714 171.184,232.714 171.184,232.714 172.22,232.714 172.22,232.714 173.257,232.714 173.257,232.714 174.294,232.714 174.294,232.714 175.331,232.714 175.331,232.714 176.367,232.714 176.367,232.714 177.404,232.714 177.404,232.714 178.441,232.714 178.441,232.714 179.478,232.714 179.478,232.714 180.514,232.714 180.514,232.714 181.551,232.714 181.551,232.714 182.588,232.714 182.588,232.714 183.625,232.714 183.625,232.714 184.661,232.714 184.661,232.714 185.698,232.714 185.698,232.714 186.735,232.714 186.735,232.714 187.772,232.714 187.772,232.714 188.808,232.714 188.808,232.714 189.845,232.714 189.845,232.714 190.882,232.714 190.882,232.714 191.919,232.714 191.919,232.714 192.955,232.714 192.955,232.714 193.992,232.714 193.992,232.714 195.029,232.714 195.029,232.714 196.065,232.714 196.065,232.714 197.102,232.714 197.102,232.714 198.139,232.714 198.139,232.714 199.176,232.714 199.176,232.714 200.212,232.714 200.212,232.714 201.249,232.714 201.249,232.714 202.286,232.714 202.286,232.714 203.323,232.714 203.323,232.714 204.359,232.714 204.359,232.714 205.396,232.714 205.396,232.714 206.433,232.714 206.433,232.714 207.47,232.714 207.47,232.714 208.506,232.714 208.506,232.714 209.543,232.714 209.543,232.714 210.58,232.714 210.58,232.714 211.617,232.714 211.617,232.714 212.653,232.714 212.653,232.714 213.69,232.714 213.69,232.714 214.727,232.714 214.727,232.714 215.764,232.714 215.764,232.714 216.8,232.714 216.8,232.714 217.837,232.714 217.837,232.714 218.874,232.714 218.874,232.714 219.911,232.714 219.911,232.714 220.947,232.714 220.947,232.714 221.984,232.714 221.984,232.714 223.021,232.714 223.021,232.714 224.057,232.714 224.057,232.714 225.094,232.714 225.094,232.714 226.131,232.714 226.131,232.714 227.168,232.714 227.168,232.714 228.204,232.714 228.204,232.714 229.241,232.714 229.241,232.714 230.278,232.714 230.278,232.714 231.315,232.714 231.315,232.714 232.351,232.714 232.351,232.714 233.388,232.714 233.388,232.714 234.425,232.714 234.425,232.714 235.462,232.714 235.462,232.714 236.498,232.714 236.498,232.714 237.535,232.714 237.535,232.714 238.572,232.714 238.572,232.714 239.609,232.714 239.609,232.714 240.645,232.714 240.645,232.714 241.682,232.714 241.682,232.714 242.719,232.714 242.719,232.714 243.756,232.714 243.756,232.714 244.792,232.714 244.792,232.714 245.829,232.714 245.829,232.714 246.866,232.714 246.866,232.714 247.902,232.714 247.902,232.714 248.939,232.714 248.939,232.714 249.976,232.714 249.976,232.714 251.013,232.714 251.013,232.714 252.049,232.714 252.049,232.714 253.086,232.714 253.086,232.714 254.123,232.714 254.123,232.714 255.16,232.714 255.16,232.714 256.196,232.714 256.196,232.714 257.233,232.714 257.233,232.714 258.27,232.714 258.27,232.714 259.307,232.714 259.307,232.714 260.343,232.714 260.343,232.714 261.38,232.714 261.38,232.714 262.417,232.714 262.417,232.714 263.454,232.714 263.454,232.714 264.49,232.714 264.49,232.714 265.527,232.714 265.527,232.714 266.564,232.714 266.564,232.714 267.601,232.714 267.601,232.714 268.637,232.714 268.637,870.429 269.674,870.429 269.674,870.429 270.711,870.429 270.711,870.429 271.748,870.429 271.748,870.429 272.784,870.429 272.784,870.429 273.821,870.429 273.821,870.429 274.858,870.429 274.858,870.429 275.895,870.429 275.895,870.429 276.931,870.429 276.931,870.429 277.968,870.429 277.968,870.429 279.005,870.429 279.005,870.429 280.041,870.429 280.041,870.429 281.078,870.429 281.078,870.429 282.115,870.429 282.115,870.429 283.152,870.429 283.152,870.429 284.188,870.429 284.188,870.429 285.225,870.429 285.225,870.429 286.262,870.429 286.262,870.429 287.299,870.429 287.299,870.429 288.335,870.429 288.335,870.429 289.372,870.429 289.372,870.429 290.409,870.429 290.409,870.429 291.446,870.429 291.446,870.429 292.482,870.429 292.482,870.429 293.519,870.429 293.519,870.429 294.556,870.429 294.556,870.429 295.593,870.429 295.593,870.429 296.629,870.429 296.629,870.429 297.666,870.429 297.666,870.429 298.703,870.429 298.703,870.429 299.74,870.429 299.74,870.429 300.776,870.429 300.776,870.429 301.813,870.429 301.813,870.429 302.85,870.429 302.85,870.429 303.886,870.429 303.886,870.429 304.923,870.429 304.923,870.429 305.96,870.429 305.96,870.429 306.997,870.429 306.997,870.429 308.033,870.429 308.033,870.429 309.07,870.429 309.07,870.429 310.107,870.429 310.107,870.429 311.144,870.429 311.144,870.429 312.18,870.429 312.18,870.429 313.217,870.429 313.217,870.429 314.254,870.429 314.254,870.429 315.291,870.429 315.291,870.429 316.327,870.429 316.327,870.429 317.364,870.429 317.364,870.429 318.401,870.429 318.401,870.429 319.438,870.429 319.438,870.429 320.474,870.429 320.474,870.429 321.511,870.429 321.511,870.429 322.548,870.429 322.548,870.429 323.585,870.429 323.585,870.429 324.621,870.429 324.621,870.429 325.658,870.429 325.658,870.429 326.695,870.429 326.695,870.429 327.732,870.429 327.732,870.429 328.768,870.429 328.768,870.429 329.805,870.429 329.805,870.429 330.842,870.429 330.842,870.429 331.878,870.429 331.878,870.429 332.915,870.429 332.915,870.429 333.952,870.429 333.952,870.429 334.989,870.429 334.989,870.429 336.025,870.429 336.025,870.429 337.062,870.429 337.062,870.429 338.099,870.429 338.099,870.429 339.136,870.429 339.136,870.429 340.172,870.429 340.172,870.429 341.209,870.429 341.209,870.429 342.246,870.429 342.246,870.429 343.283,870.429 343.283,870.429 344.319,870.429 344.319,870.429 345.356,870.429 345.356,870.429 346.393,870.429 346.393,870.429 347.43,870.429 347.43,870.429 348.466,870.429 348.466,870.429 349.503,870.429 349.503,870.429 350.54,870.429 350.54,870.429 351.577,870.429 351.577,870.429 352.613,870.429 352.613,870.429 353.65,870.429 353.65,870.429 354.687,870.429 354.687,870.429 355.724,870.429 355.724,870.429 356.76,870.429 356.76,870.429 357.797,870.429 357.797,870.429 358.834,870.429 358.834,870.429 359.87,870.429 359.87,870.429 360.907,870.429 360.907,870.429 361.944,870.429 361.944,870.429 362.981,870.429 362.981,870.429 364.017,870.429 364.017,870.429 365.054,870.429 365.054,870.429 366.091,870.429 366.091,870.429 367.128,870.429 367.128,870.429 368.164,870.429 368.164,870.429 369.201,870.429 369.201,870.429 370.238,870.429 370.238,870.429 371.275,870.429 371.275,870.429 372.311,870.429 372.311,870.429 373.348,870.429 373.348,870.429 374.385,870.429 374.385,870.429 375.422,870.429 375.422,870.429 376.458,870.429 376.458,870.429 377.495,870.429 377.495,870.429 378.532,870.429 378.532,870.429 379.569,870.429 379.569,870.429 380.605,870.429 380.605,870.429 381.642,870.429 381.642,870.429 382.679,870.429 382.679,870.429 383.715,870.429 383.715,870.429 384.752,870.429 384.752,870.429 385.789,870.429 385.789,870.429 386.826,870.429 386.826,870.429 387.862,870.429 387.862,870.429 388.899,870.429 388.899,870.429 389.936,870.429 389.936,870.429 390.973,870.429 390.973,870.429 392.009,870.429 392.009,870.429 393.046,870.429 393.046,870.429 394.083,870.429 394.083,870.429 395.12,870.429 395.12,870.429 396.156,870.429 396.156,870.429 397.193,870.429 397.193,870.429 398.23,870.429 398.23,870.429 399.267,870.429 399.267,870.429 400.303,870.429 400.303,870.429 401.34,870.429 401.34,870.429 402.377,870.429 402.377,870.429 403.414,870.429 403.414,870.429 404.45,870.429 404.45,870.429 405.487,870.429 405.487,870.429 406.524,870.429 406.524,870.429 407.561,870.429 407.561,870.429 408.597,870.429 408.597,870.429 409.634,870.429 409.634,870.429 410.671,870.429 410.671,870.429 411.707,870.429 411.707,870.429 412.744,870.429 412.744,870.429 413.781,870.429 413.781,870.429 414.818,870.429 414.818,870.429 415.854,870.429 415.854,870.429 416.891,870.429 416.891,870.429 417.928,870.429 417.928,870.429 418.965,870.429 418.965,870.429 420.001,870.429 420.001,870.429 421.038,870.429 421.038,870.429 422.075,870.429 422.075,870.429 423.112,870.429 423.112,870.429 424.148,870.429 424.148,303.571 425.185,303.571 425.185,303.571 426.222,303.571 426.222,303.571 427.259,303.571 427.259,303.571 428.295,303.571 428.295,303.571 429.332,303.571 429.332,303.571 430.369,303.571 430.369,303.571 431.406,303.571 431.406,303.571 432.442,303.571 432.442,303.571 433.479,303.571 433.479,303.571 434.516,303.571 434.516,303.571 435.553,303.571 435.553,303.571 436.589,303.571 436.589,303.571 437.626,303.571 437.626,303.571 438.663,303.571 438.663,303.571 439.699,303.571 439.699,303.571 440.736,303.571 440.736,303.571 441.773,303.571 441.773,303.571 442.81,303.571 442.81,303.571 443.846,303.571 443.846,303.571 444.883,303.571 444.883,303.571 445.92,303.571 445.92,303.571 446.957,303.571 446.957,303.571 447.993,303.571 447.993,303.571 449.03,303.571 449.03,303.571 450.067,303.571 450.067,303.571 451.104,303.571 451.104,303.571 452.14,303.571 452.14,303.571 453.177,303.571 453.177,303.571 454.214,303.571 454.214,303.571 455.251,303.571 455.251,303.571 456.287,303.571 456.287,303.571 457.324,303.571 457.324,303.571 458.361,303.571 458.361,303.571 459.398,303.571 459.398,303.571 460.434,303.571 460.434,303.571 461.471,303.571 461.471,303.571 462.508,303.571 462.508,303.571 463.545,303.571 463.545,303.571 464.581,303.571 464.581,303.571 465.618,303.571 465.618,303.571 466.655,303.571 466.655,303.571 467.691,303.571 467.691,303.571 468.728,303.571 468.728,303.571 469.765,303.571 469.765,303.571 470.802,303.571 470.802,303.571 471.838,303.571 471.838,303.571 472.875,303.571 472.875,303.571 473.912,303.571 473.912,303.571 474.949,303.571 474.949,303.571 475.985,303.571 475.985,303.571 477.022,303.571 477.022,303.571 478.059,303.571 478.059,303.571 479.096,303.571 479.096,303.571 480.132,303.571 480.132,303.571 481.169,303.571 481.169,303.571 482.206,303.571 482.206,303.571 483.243,303.571 483.243,303.571 484.279,303.571 484.279,303.571 485.316,303.571 485.316,303.571 486.353,303.571 486.353,303.571 487.39,303.571 487.39,303.571 488.426,303.571 488.426,303.571 489.463,303.571 489.463,303.571 490.5,303.571 490.5,303.571 491.536,303.571 491.536,303.571 492.573,303.571 492.573,303.571 493.61,303.571 493.61,303.571 494.647,303.571 494.647,303.571 495.683,303.571 495.683,303.571 496.72,303.571 496.72,303.571 497.757,303.571 497.757,303.571 498.794,303.571 498.794,303.571 499.83,303.571 499.83,303.571 500.867,303.571 500.867,303.571 501.904,303.571 501.904,303.571 502.941,303.571 502.941,303.571 503.977,303.571 503.977,303.571 505.014,303.571 505.014,303.571 506.051,303.571 506.051,303.571 507.088,303.571 507.088,303.571 508.124,303.571 508.124,303.571 509.161,303.571 509.161,303.571 510.198,303.571 510.198,303.571 511.235,303.571 511.235,303.571 512.271,303.571 512.271,303.571 513.308,303.571 513.308,303.571 514.345,303.571 514.345,303.571 515.382,303.571 515.382,303.571 516.418,303.571 516.418,303.571 517.455,303.571 517.455,303.571 518.492,303.571 518.492,303.571 519.529,303.571 519.529,303.571 520.565,303.571 520.565,303.571 521.602,303.571 521.602,303.571 522.639,303.571 522.639,303.571 523.675,303.571 523.675,303.571 524.712,303.571 524.712,303.571 525.749,303.571 525.749,303.571 526.786,303.571 526.786,303.571 527.822,303.571 527.822,303.571 528.859,303.571 528.859,303.571 529.896,303.571 529.896,303.571 530.933,303.571 530.933,303.571 531.969,303.571 531.969,303.571 533.006,303.571 533.006,303.571 534.043,303.571 534.043,303.571 535.08,303.571 535.08,303.571 536.116,303.571 536.116,303.571 537.153,303.571 537.153,303.571 538.19,303.571 538.19,303.571 539.227,303.571 539.227,303.571 540.263,303.571 540.263,303.571 541.3,303.571 541.3,303.571 542.337,303.571 542.337,303.571 543.374,303.571 543.374,303.571 544.41,303.571 544.41,303.571 545.447,303.571 545.447,303.571 546.484,303.571 546.484,303.571 547.521,303.571 547.521,303.571 548.557,303.571 548.557,303.571 549.594,303.571 549.594,303.571 550.631,303.571 550.631,303.571 551.667,303.571 551.667,303.571 552.704,303.571 552.704,303.571 553.741,303.571 553.741,303.571 554.778,303.571 554.778,303.571 555.814,303.571 555.814,303.571 556.851,303.571 556.851,303.571 557.888,303.571 557.888,303.571 558.925,303.571 558.925,303.571 559.961,303.571 559.961,303.571 560.998,303.571 560.998,303.571 562.035,303.571 562.035,303.571 563.072,303.571 563.072,303.571 564.108,303.571 564.108,303.571 565.145,303.571 565.145,303.571 566.182,303.571 566.182,303.571 567.219,303.571 567.219,303.571 568.255,303.571 568.255,303.571 569.292,303.571 569.292,303.571 570.329,303.571 570.329,303.571 571.366,303.571 571.366,303.571 572.402,303.571 572.402,303.571 573.439,303.571 573.439,303.571 574.476,303.571 574.476,303.571 575.512,303.571 575.512,303.571 576.549,303.571 576.549,303.571 577.586,303.571 577.586,303.571 578.623,303.571 578.623,303.571 579.659,303.571 579.659,303.571 580.696,303.571 580.696,303.571 581.733,303.571 581.733,303.571 582.77,303.571 582.77,303.571 583.806,303.571 583.806,303.571 584.843,303.571 584.843,303.571 585.88,303.571 585.88,303.571 586.917,303.571 586.917,303.571 587.953,303.571 587.953,303.571 588.99,303.571 588.99,303.571 590.027,303.571 590.027,303.571 591.064,303.571 591.064,303.571 592.1,303.571 592.1,303.571 593.137,303.571 593.137,303.571 594.174,303.571 594.174,303.571 595.211,303.571 595.211,303.571 596.247,303.571 596.247,303.571 597.284,303.571 597.284,303.571 598.321,303.571 598.321,303.571 599.357,303.571 599.357,303.571 600.394,303.571 600.394,303.571 601.431,303.571 601.431,303.571 602.468,303.571 602.468,303.571 603.504,303.571 603.504,303.571 604.541,303.571 604.541,303.571 605.578,303.571 605.578,303.571 606.615,303.571 606.615,303.571 607.651,303.571 607.651,303.571 608.688,303.571 608.688,303.571 609.725,303.571 609.725,303.571 610.762,303.571 610.762,303.571 611.798,303.571 611.798,303.571 612.835,303.571 612.835,303.571 613.872,303.571 613.872,303.571 614.909,303.571 614.909,303.571 615.945,303.571 615.945,303.571 616.982,303.571 616.982,303.571 618.019,303.571 618.019,303.571 619.056,303.571 619.056,303.571 620.092,303.571 620.092,303.571 621.129,303.571 621.129,303.571 622.166,303.571 622.166,303.571 623.203,303.571 623.203,303.571 624.239,303.571 624.239,303.571 625.276,303.571 625.276,303.571 626.313,303.571 626.313,303.571 627.349,303.571 627.349,303.571 628.386,303.571 628.386,303.571 629.423,303.571 629.423,303.571 630.46,303.571 630.46,303.571 631.496,303.571 631.496,303.571 632.533,303.571 632.533,303.571 633.57,303.571 633.57,303.571 634.607,303.571 634.607,303.571 635.643,303.571 635.643,303.571 636.68,303.571 636.68,303.571 637.717,303.571 637.717,303.571 638.754,303.571 638.754,303.571 639.79,303.571 639.79,303.571 640.827,303.571 640.827,303.571 641.864,303.571 641.864,303.571 642.901,303.571 642.901,303.571 643.937,303.571 643.937,303.571 644.974,303.571 644.974,303.571 646.011,303.571 646.011,303.571 647.048,303.571 647.048,303.571 648.084,303.571 648.084,303.571 649.121,303.571 649.121,303.571 650.158,303.571 650.158,303.571 651.195,303.571 651.195,303.571 652.231,303.571 652.231,303.571 653.268,303.571 653.268,303.571 654.305,303.571 654.305,303.571 655.341,303.571 655.341,303.571 656.378,303.571 656.378,303.571 657.415,303.571 657.415,303.571 658.452,303.571 658.452,303.571 659.488,303.571 659.488,303.571 660.525,303.571 660.525,303.571 661.562,303.571 661.562,303.571 662.599,303.571 662.599,303.571 663.635,303.571 663.635,303.571 664.672,303.571 664.672,303.571 665.709,303.571 665.709,303.571 666.746,303.571 666.746,303.571 667.782,303.571 667.782,303.571 668.819,303.571 668.819,303.571 669.856,303.571 669.856,303.571 670.893,303.571 670.893,303.571 671.929,303.571 671.929,303.571 672.966,303.571 672.966,303.571 674.003,303.571 674.003,303.571 675.04,303.571 675.04,303.571 676.076,303.571 676.076,303.571 677.113,303.571 677.113,303.571 678.15,303.571 678.15,303.571 679.187,303.571 679.187,303.571 680.223,303.571 680.223,303.571 681.26,303.571 681.26,303.571 682.297,303.571 682.297,303.571 683.333,303.571 683.333,303.571 684.37,303.571 684.37,303.571 685.407,303.571 685.407,303.571 686.444,303.571 686.444,303.571 687.48,303.571 687.48,303.571 688.517,303.571 688.517,303.571 689.554,303.571 689.554,303.571 690.591,303.571 690.591,303.571 691.627,303.571 691.627,303.571 692.664,303.571 692.664,303.571 693.701,303.571 693.701,303.571 694.738,303.571 694.738,303.571 695.774,303.571 695.774,303.571 696.811,303.571 696.811,303.571 697.848,303.571 697.848,303.571 698.885,303.571 698.885,303.571 699.921,303.571 699.921,303.571 700.958,303.571 700.958,303.571 701.995,303.571 701.995,303.571 703.032,303.571 703.032,303.571 704.068,303.571 704.068,303.571 705.105,303.571 705.105,303.571 706.142,303.571 706.142,303.571 707.179,303.571 707.179,303.571 708.215,303.571 708.215,303.571 709.252,303.571 709.252,303.571 710.289,303.571 710.289,303.571 711.326,303.571 711.326,303.571 712.362,303.571 712.362,303.571 713.399,303.571 713.399,303.571 714.436,303.571 714.436,303.571 715.472,303.571 715.472,303.571 716.509,303.571 716.509,303.571 717.546,303.571 717.546,303.571 718.583,303.571 718.583,303.571 719.619,303.571 719.619,303.571 720.656,303.571 720.656,303.571 721.693,303.571 721.693,303.571 722.73,303.571 722.73,303.571 723.766,303.571 723.766,303.571 724.803,303.571 724.803,303.571 725.84,303.571 725.84,303.571 726.877,303.571 726.877,303.571 727.913,303.571 727.913,303.571 728.95,303.571 728.95,303.571 729.987,303.571 729.987,303.571 731.024,303.571 731.024,303.571 732.06,303.571 732.06,303.571 733.097,303.571 733.097,303.571 734.134,303.571 734.134,303.571 735.171,303.571 735.171,303.571 736.207,303.571 736.207,303.571 737.244,303.571 737.244,303.571 738.281,303.571 738.281,303.571 739.318,303.571 739.318,303.571 740.354,303.571 740.354,303.571 741.391,303.571 741.391,303.571 742.428,303.571 742.428,303.571 743.464,303.571 743.464,303.571 744.501,303.571 744.501,303.571 745.538,303.571 745.538,303.571 746.575,303.571 746.575,303.571 747.611,303.571 747.611,303.571 748.648,303.571 748.648,303.571 749.685,303.571 749.685,303.571 750.722,303.571 750.722,303.571 751.758,303.571 751.758,303.571 752.795,303.571 752.795,303.571 753.832,303.571 753.832,303.571 754.869,303.571 754.869,303.571 755.905,303.571 755.905,303.571 756.942,303.571 756.942,303.571 757.979,303.571 757.979,303.571 759.016,303.571 759.016,303.571 760.052,303.571 760.052,303.571 761.089,303.571 761.089,303.571 762.126,303.571 762.126,303.571 763.163,303.571 763.163,303.571 764.199,303.571 764.199,303.571 765.236,303.571 765.236,303.571 766.273,303.571 766.273,303.571 767.31,303.571 767.31,303.571 768.346,303.571 768.346,303.571 769.383,303.571 769.383,303.571 770.42,303.571 770.42,303.571 771.456,303.571 771.456,303.571 772.493,303.571 772.493,303.571 773.53,303.571 773.53,303.571 774.567,303.571 774.567,303.571 775.603,303.571 775.603,303.571 776.64,303.571 776.64,303.571 777.677,303.571 777.677,303.571 778.714,303.571 778.714,303.571 779.75,303.571 779.75,303.571 780.787,303.571 780.787,303.571 781.824,303.571 781.824,303.571 782.861,303.571 782.861,303.571 783.897,303.571 783.897,303.571 784.934,303.571 784.934,303.571 785.971,303.571 785.971,303.571 787.008,303.571 787.008,303.571 788.044,303.571 788.044,303.571 789.081,303.571 789.081,303.571 790.118,303.571 790.118,303.571 791.155,303.571 791.155,303.571 792.191,303.571 792.191,303.571 793.228,303.571 793.228,303.571 794.265,303.571 794.265,303.571 795.301,303.571 795.301,303.571 796.338,303.571 796.338,303.571 797.375,303.571 797.375,303.571 798.412,303.571 798.412,303.571 799.448,303.571 799.448,303.571 800.485,303.571 800.485,303.571 801.522,303.571 801.522,303.571 802.559,303.571 802.559,303.571 803.595,303.571 803.595,303.571 804.632,303.571 804.632,303.571 805.669,303.571 805.669,303.571 806.706,303.571 806.706,303.571 807.742,303.571 807.742,303.571 808.779,303.571 808.779,303.571 809.816,303.571 809.816,303.571 810.853,303.571 810.853,303.571 811.889,303.571 811.889,303.571 812.926,303.571 812.926,303.571 813.963,303.571 813.963,303.571 815,303.571 815,303.571 816.036,303.571 816.036,303.571 817.073,303.571 817.073,303.571 818.11,303.571 818.11,303.571 819.146,303.571 819.146,303.571 820.183,303.571 820.183,303.571 821.22,303.571 821.22,303.571 822.257,303.571 822.257,303.571 823.293,303.571 823.293,303.571 824.33,303.571 824.33,303.571 825.367,303.571 825.367,303.571 826.404,303.571 826.404,303.571 827.44,303.571 827.44,303.571 828.477,303.571 828.477,303.571 829.514,303.571 829.514,303.571 830.551,303.571 830.551,303.571 831.587,303.571 831.587,303.571 832.624,303.571 832.624,303.571 833.661,303.571 833.661,303.571 834.698,303.571 834.698,303.571 835.734,303.571 835.734,303.571 836.771,303.571 836.771,303.571 837.808,303.571 837.808,303.571 838.845,303.571 838.845,303.571 839.881,303.571 839.881,303.571 840.918,303.571 840.918,303.571 841.955,303.571 841.955,303.571 842.992,303.571 842.992,303.571 844.028,303.571 844.028,303.571 845.065,303.571 845.065,303.571 846.102,303.571 846.102,303.571 847.138,303.571 847.138,303.571 848.175,303.571 848.175,303.571 849.212,303.571 849.212,303.571 850.249,303.571 850.249,303.571 851.285,303.571 851.285,303.571 852.322,303.571 852.322,303.571 853.359,303.571 853.359,303.571 854.396,303.571 854.396,303.571 855.432,303.571 855.432,303.571 856.469,303.571 856.469,303.571 857.506,303.571 857.506,303.571 858.543,303.571 858.543,303.571 859.579,303.571 859.579,303.571 860.616,303.571 860.616,303.571 861.653,303.571 861.653,303.571 862.69,303.571 862.69,303.571 863.726,303.571 863.726,303.571 864.763,303.571 864.763,303.571 865.8,303.571 865.8,303.571 866.837,303.571 866.837,303.571 867.873,303.571 867.873,303.571 868.91,303.571 868.91,303.571 869.947,303.571 869.947,303.571 870.984,303.571 870.984,303.571 872.02,303.571 872.02,303.571 873.057,303.571 873.057,303.571 874.094,303.571 874.094,303.571 875.13,303.571 875.13,303.571 876.167,303.571 876.167,303.571 877.204,303.571 877.204,303.571 878.241,303.571 878.241,303.571 879.277,303.571 879.277,303.571 880.314,303.571 880.314,303.571 881.351,303.571 881.351,303.571 882.388,303.571 882.388,303.571 883.424,303.571 883.424,303.571 884.461,303.571 884.461,303.571 885.498,303.571 885.498,303.571 886.535,303.571 886.535,303.571 887.571,303.571 887.571,303.571 888.608,303.571 888.608,303.571 889.645,303.571 889.645,303.571 890.682,303.571 890.682,303.571 891.718,303.571 891.718,303.571 892.755,303.571 892.755,303.571 893.792,303.571 893.792,303.571 894.829,303.571 894.829,303.571 895.865,303.571 895.865,303.571 896.902,303.571 896.902,303.571 897.939,303.571 897.939,303.571 898.975,303.571 898.975,303.571 900.012,303.571 900.012,303.571 901.049,303.571 901.049,303.571 902.086,303.571 902.086,303.571 903.122,303.571 903.122,303.571 904.159,303.571 904.159,303.571 905.196,303.571 905.196,303.571 906.233,303.571 906.233,303.571 907.269,303.571 907.269,303.571 908.306,303.571 908.306,303.571 909.343,303.571 909.343,303.571 910.38,303.571 910.38,303.571 911.416,303.571 911.416,303.571 912.453,303.571 912.453,303.571 913.49,303.571 913.49,303.571 914.527,303.571 914.527,303.571 915.563,303.571 915.563,303.571 916.6,303.571 916.6,303.571 917.637,303.571 917.637,303.571 918.674,303.571 918.674,303.571 919.71,303.571 919.71,303.571 920.747,303.571 920.747,303.571 921.784,303.571 921.784,303.571 922.82,303.571 922.82,303.571 923.857,303.571 923.857,303.571 924.894,303.571 924.894,303.571 925.931,303.571 925.931,303.571 926.967,303.571 926.967,303.571 928.004,303.571 928.004,303.571 929.041,303.571 929.041,303.571 930.078,303.571 930.078,303.571 931.114,303.571 931.114,303.571 932.151,303.571 932.151,303.571 933.188,303.571 933.188,303.571 934.225,303.571 934.225,303.571 935.261,303.571 935.261,303.571 936.298,303.571 936.298,303.571 937.335,303.571 937.335,303.571 938.372,303.571 938.372,303.571 939.408,303.571 939.408,303.571 940.445,303.571 940.445,303.571 941.482,303.571 941.482,303.571 942.519,303.571 942.519,303.571 943.555,303.571 943.555,303.571 944.592,303.571 944.592,303.571 945.629,303.571 945.629,303.571 946.666,303.571 946.666,303.571 947.702,303.571 947.702,303.571 948.739,303.571 948.739,303.571 949.776,303.571 949.776,303.571 950.813,303.571 950.813,303.571 951.849,303.571 951.849,303.571 952.886,303.571 952.886,303.571 953.923,303.571 953.923,303.571 954.959,303.571 954.959,303.571 955.996,303.571 955.996,303.571 957.033,303.571 957.033,303.571 958.07,303.571 958.07,303.571 959.107,303.571 959.107,303.571 960.143,303.571 960.143,303.571 961.18,303.571 961.18,303.571 962.217,303.571 962.217,303.571 963.253,303.571 963.253,303.571 964.29,303.571 964.29,303.571 965.327,303.571 965.327,303.571 966.364,303.571 966.364,303.571 967.4,303.571 967.4,303.571 968.437,303.571 968.437,303.571 969.474,303.571 969.474,303.571 970.511,303.571 970.511,303.571 971.547,303.571 971.547,303.571 972.584,303.571 972.584,303.571 973.621,303.571 973.621,303.571 974.658,303.571 974.658,303.571 975.694,303.571 975.694,303.571 976.731,303.571 976.731,303.571 977.768,303.571 977.768,303.571 978.805,303.571 978.805,303.571 979.841,303.571 979.841,303.571 980.878,303.571 980.878,303.571 981.915,303.571 981.915,303.571 982.952,303.571 982.952,303.571 983.988,303.571 983.988,303.571 985.025,303.571 985.025,303.571 986.062,303.571 986.062,303.571 987.098,303.571 987.098,303.571 988.135,303.571 988.135,303.571 989.172,303.571 989.172,303.571 990.209,303.571 990.209,303.571 991.245,303.571 991.245,303.571 992.282,303.571 992.282,303.571 993.319,303.571 993.319,303.571 994.356,303.571 994.356,303.571 995.392,303.571 995.392,303.571 996.429,303.571 996.429,303.571 997.466,303.571 997.466,303.571 998.503,303.571 998.503,303.571 999.539,303.571 999.539,303.571 1000.58,303.571 1000.58,303.571 1001.61,303.571 1001.61,303.571 1002.65,303.571 1002.65,303.571 1003.69,303.571 1003.69,303.571 1004.72,303.571 1004.72,303.571 1005.76,303.571 1005.76,303.571 1006.8,303.571 1006.8,303.571 1007.83,303.571 1007.83,303.571 1008.87,303.571 1008.87,303.571 1009.91,303.571 1009.91,303.571 1010.94,303.571 1010.94,303.571 1011.98,303.571 1011.98,303.571 1013.02,303.571 1013.02,303.571 1014.05,303.571 1014.05,303.571 1015.09,303.571 1015.09,303.571 1016.13,303.571 1016.13,303.571 1017.16,303.571 1017.16,303.571 1018.2,303.571 1018.2,303.571 1019.24,303.571 1019.24,303.571 1020.27,303.571 1020.27,303.571 1021.31,303.571 1021.31,303.571 1022.35,303.571 1022.35,303.571 1023.38,303.571 1023.38,303.571 1024.42,303.571 1024.42,303.571 1025.46,303.571 1025.46,303.571 1026.49,303.571 1026.49,303.571 1027.53,303.571 1027.53,303.571 1028.57,303.571 1028.57,303.571 1029.6,303.571 1029.6,303.571 1030.64,303.571 1030.64,303.571 1031.68,303.571 1031.68,303.571 1032.71,303.571 1032.71,303.571 1033.75,303.571 1033.75,303.571 1034.79,303.571 1034.79,303.571 1035.83,303.571 1035.83,303.571 1036.86,303.571 1036.86,303.571 1037.9,303.571 1037.9,303.571 1038.94,303.571 1038.94,303.571 1039.97,303.571 1039.97,303.571 1041.01,303.571 1041.01,303.571 1042.05,303.571 1042.05,303.571 1043.08,303.571 1043.08,303.571 1044.12,303.571 1044.12,303.571 1045.16,303.571 1045.16,303.571 1046.19,303.571 1046.19,303.571 1047.23,303.571 1047.23,303.571 1048.27,303.571 1048.27,303.571 1049.3,303.571 1049.3,303.571 1050.34,303.571 1050.34,303.571 1051.38,303.571 1051.38,303.571 1052.41,303.571 1052.41,303.571 1053.45,303.571 1053.45,303.571 1054.49,303.571 1054.49,303.571 1055.52,303.571 1055.52,303.571 1056.56,303.571 1056.56,303.571 1057.6,303.571 1057.6,303.571 1058.63,303.571 1058.63,303.571 1059.67,303.571 1059.67,303.571 1060.71,303.571 1060.71,303.571 1061.74,303.571 1061.74,303.571 1062.78,303.571 1062.78,303.571 1063.82,303.571 1063.82,303.571 1064.85,303.571 1064.85,303.571 1065.89,303.571 1065.89,303.571 1066.93,303.571 1066.93,303.571 1067.96,303.571 1067.96,303.571 1069,303.571 1069,303.571 1070.04,303.571 1070.04,303.571 1071.07,303.571 1071.07,303.571 1072.11,303.571 1072.11,303.571 1073.15,303.571 1073.15,303.571 1074.18,303.571 1074.18,303.571 1075.22,303.571 1075.22,303.571 1076.26,303.571 1076.26,303.571 1077.29,303.571 1077.29,303.571 1078.33,303.571 1078.33,303.571 1079.37,303.571 1079.37,303.571 1080.41,303.571 1080.41,303.571 1081.44,303.571 1081.44,303.571 1082.48,303.571 1082.48,303.571 1083.52,303.571 1083.52,303.571 1084.55,303.571 1084.55,303.571 1085.59,303.571 1085.59,303.571 1086.63,303.571 1086.63,303.571 1087.66,303.571 1087.66,303.571 1088.7,303.571 1088.7,303.571 1089.74,303.571 1089.74,303.571 1090.77,303.571 1090.77,303.571 1091.81,303.571 1091.81,303.571 1092.85,303.571 1092.85,303.571 1093.88,303.571 1093.88,303.571 1094.92,303.571 1094.92,303.571 1095.96,303.571 1095.96,303.571 1096.99,303.571 1096.99,303.571 1098.03,303.571 1098.03,303.571 1099.07,303.571 1099.07,303.571 1100.1,303.571 1100.1,303.571 1101.14,303.571 1101.14,303.571 1102.18,303.571 1102.18,303.571 1103.21,303.571 1103.21,303.571 1104.25,303.571 1104.25,303.571 1105.29,303.571 1105.29,303.571 1106.32,303.571 1106.32,303.571 1107.36,303.571 1107.36,303.571 1108.4,303.571 1108.4,303.571 1109.43,303.571 1109.43,303.571 1110.47,303.571 1110.47,303.571 1111.51,303.571 1111.51,303.571 1112.54,303.571 1112.54,303.571 1113.58,303.571 1113.58,303.571 1114.62,303.571 1114.62,303.571 1115.65,303.571 1115.65,303.571 1116.69,303.571 1116.69,303.571 1117.73,303.571 1117.73,303.571 1118.76,303.571 1118.76,303.571 1119.8,303.571 1119.8,303.571 1120.84,303.571 1120.84,303.571 1121.87,303.571 1121.87,303.571 1122.91,303.571 1122.91,303.571 1123.95,303.571 1123.95,303.571 1124.98,303.571 1124.98,303.571 1126.02,303.571 1126.02,303.571 1127.06,303.571 1127.06,303.571 1128.1,303.571 1128.1,303.571 1129.13,303.571 1129.13,303.571 1130.17,303.571 1130.17,303.571 1131.21,303.571 1131.21,303.571 1132.24,303.571 1132.24,303.571 1133.28,303.571 1133.28,303.571 1134.32,303.571 1134.32,303.571 1135.35,303.571 1135.35,303.571 1136.39,303.571 1136.39,303.571 1137.43,303.571 1137.43,303.571 1138.46,303.571 1138.46,303.571 1139.5,303.571 1139.5,303.571 1140.54,303.571 1140.54,303.571 1141.57,303.571 1141.57,303.571 1142.61,303.571 1142.61,303.571 1143.65,303.571 1143.65,303.571 1144.68,303.571 1144.68,303.571 1145.72,303.571 1145.72,303.571 1146.76,303.571 1146.76,303.571 1147.79,303.571 1147.79,303.571 1148.83,303.571 1148.83,303.571 1149.87,303.571 1149.87,303.571 1150.9,303.571 1150.9,303.571 1151.94,303.571 1151.94,303.571 1152.98,303.571 1152.98,303.571 1154.01,303.571 1154.01,303.571 1155.05,303.571 1155.05,303.571 1156.09,303.571 1156.09,303.571 " />
</g>

<g fill="#ffffff" fill-opacity="1" stroke="none" transform="matrix(7.5e-05,0,0,7.5e-05,0,0)"
font-family="Helvetica" font-size="14" font-weight="700" font-style="normal" 
>
<path vector-effect="none" fill-rule="evenodd" d="M1.039e+07,1.02e+06 L1.039e+07,1.34e+06 L1.146e+07,1.34e+06 L1.146e+07,1.02e+06 L1.039e+07,1.02e+06"/>
</g>

<g fill="#0000ff" fill-opacity="1" stroke="#0000ff" stroke-opacity="1" stroke-width="0.666667" stroke-linecap="butt" stroke-linejoin="round" transform="matrix(0.75,0,0,0.75,0,0)"
font-family="Helvetica" font-size="14" font-weight="700" font-style="normal" 
>
<polyline fill="none" vector-effect="none" points="1043,110.862 1083,110.862 " />
</g>

<g fill="#ff0000" fill-opacity="1" stroke="#ff0000" stroke-opacity="1" stroke-dasharray="10,6" stroke-dashoffset="0" stroke-width="0.666667" stroke-linecap="butt" stroke-linejoin="round" transform="matrix(0.75,0,0,0.75,0,0)"
font-family="Helvetica" font-size="14" font-weight="700" font-style="normal" 
>
<polyline fill="none" vector-effect="none" points="1043,125.138 1083,125.138 " />
</g>

<g fill="#212121" fill-opacity="1" stroke="#212121" stroke-opacity="1" stroke-width="1" stroke-linecap="square" stroke-linejoin="bevel" transform="matrix(0.75,0,0,0.75,814.5,86.1462)"
font-family="Helvetica" font-size="12" font-weight="400" font-style="normal" 
>
<text fill="#212121" fill-opacity="1" stroke="none" xml:space="preserve" x="0" y="0" font-family="Helvetica" font-size="12" font-weight="400" font-style="normal" 
 >Output</text>
</g>

<g fill="#212121" fill-opacity="1" stroke="#212121" stroke-opacity="1" stroke-width="1" stroke-linecap="square" stroke-linejoin="bevel" transform="matrix(0.75,0,0,0.75,814.5,96.8538)"
font-family="Helvetica" font-size="12" font-weight="400" font-style="normal" 
>
<text fill="#212121" fill-opacity="1" stroke="none" xml:space="preserve" x="0" y="0" font-family="Helvetica" font-size="12" font-weight="400" font-style="normal" 
 >Reference</text>
</g>

<g fill="none" stroke="#212121" stroke-opacity="1" stroke-width="0.666667" stroke-linecap="butt" stroke-linejoin="miter" stroke-miterlimit="2" transform="matrix(0.75,0,0,0.75,0,0)"
font-family="Helvetica" font-size="12" font-weight="400" font-style="normal" 
>
<path vector-effect="none" fill-rule="evenodd" d="M1039,134 L1039,102 L1146,102 L1146,134 L1039,134"/>
</g>
</g>
</svg>
