<?xml version="1.0" encoding="UTF-8" standalone="no"?>
<svg width="284.339mm" height="171.45mm"
 viewBox="0 0 806 486"
 xmlns="http://www.w3.org/2000/svg" xmlns:xlink="http://www.w3.org/1999/xlink"  version="1.2" baseProfile="tiny">
<title>Qt SVG Document</title>
<desc>MATLAB, The MathWorks, Inc. Version 25.2.0.2998904 R2025b</desc>
<defs>
</defs>
<g fill="none" stroke="black" stroke-width="1" fill-rule="evenodd" stroke-linecap="square" stroke-linejoin="bevel" >

<g fill="#ffffff" fill-opacity="1" stroke="none" transform="matrix(0.75,0,0,0.75,0,0)"
font-family="MS Shell Dlg 2" font-size="8.25" font-weight="400" font-style="normal" 
>
<path vector-effect="none" fill-rule="evenodd" d="M0,0 L1075,0 L1075,648 L0,648 L0,0"/>
</g>

<g fill="#ffffff" fill-opacity="1" stroke="none" transform="matrix(7.5e-05,0,0,7.5e-05,0,0)"
font-family="MS Shell Dlg 2" font-size="8.25" font-weight="400" font-style="normal" 
>
<path vector-effect="none" fill-rule="evenodd" d="M1.4e+06,490000 L1.4e+06,5.76e+06 L9.72e+06,5.76e+06 L9.72e+06,490000 L1.4e+06,490000"/>
</g>

<g fill="#212121" fill-opacity="0.14902" stroke="#212121" stroke-opacity="0.14902" stroke-width="0.666667" stroke-linecap="butt" stroke-linejoin="round" transform="matrix(0.75,0,0,0.75,0,0)"
font-family="MS Shell Dlg 2" font-size="8.25" font-weight="400" font-style="normal" 
>
<polyline fill="none" vector-effect="none" points="140,49 140,576 " />
<polyline fill="none" vector-effect="none" points="223.2,49 223.2,576 " />
<polyline fill="none" vector-effect="none" points="306.4,49 306.4,576 " />
<polyline fill="none" vector-effect="none" points="389.6,49 389.6,576 " />
<polyline fill="none" vector-effect="none" points="472.8,49 472.8,576 " />
<polyline fill="none" vector-effect="none" points="556,49 556,576 " />
<polyline fill="none" vector-effect="none" points="639.2,49 639.2,576 " />
<polyline fill="none" vector-effect="none" points="722.4,49 722.4,576 " />
<polyline fill="none" vector-effect="none" points="805.6,49 805.6,576 " />
<polyline fill="none" vector-effect="none" points="888.8,49 888.8,576 " />
<polyline fill="none" vector-effect="none" points="972,49 972,576 " />
<polyline fill="none" vector-effect="none" points="140,576 972,576 " />
<polyline fill="none" vector-effect="none" points="140,500.714 972,500.714 " />
<polyline fill="none" vector-effect="none" points="140,425.429 972,425.429 " />
<polyline fill="none" vector-effect="none" points="140,350.143 972,350.143 " />
<polyline fill="none" vector-effect="none" points="140,274.857 972,274.857 " />
<polyline fill="none" vector-effect="none" points="140,199.571 972,199.571 " />
<polyline fill="none" vector-effect="none" points="140,124.286 972,124.286 " />
<polyline fill="none" vector-effect="none" points="140,49 972,49 " />
</g>

<g fill="#212121" fill-opacity="1" stroke="#212121" stroke-opacity="1" stroke-width="1" stroke-linecap="square" stroke-linejoin="bevel" transform="matrix(0.75,0,0,0.75,398.25,458)"
font-family="Helvetica" font-size="14" font-weight="400" font-style="normal" 
>
<text fill="#212121" fill-opacity="1" stroke="none" xml:space="preserve" x="0" y="0" font-family="Helvetica" font-size="14" font-weight="400" font-style="normal" 
 >Time [s]</text>
</g>

<g fill="#212121" fill-opacity="1" stroke="#212121" stroke-opacity="1" stroke-width="0.666667" stroke-linecap="square" stroke-linejoin="round" transform="matrix(0.75,0,0,0.75,0,0)"
font-family="Helvetica" font-size="14" font-weight="400" font-style="normal" 
>
<polyline fill="none" vector-effect="none" points="140,576 972,576 " />
<polyline fill="none" vector-effect="none" points="140,576 140,567.68 " />
<polyline fill="none" vector-effect="none" points="223.2,576 223.2,567.68 " />
<polyline fill="none" vector-effect="none" points="306.4,576 306.4,567.68 " />
<polyline fill="none" vector-effect="none" points="389.6,576 389.6,567.68 " />
<polyline fill="none" vector-effect="none" points="472.8,576 472.8,567.68 " />
<polyline fill="none" vector-effect="none" points="556,576 556,567.68 " />
<polyline fill="none" vector-effect="none" points="639.2,576 639.2,567.68 " />
<polyline fill="none" vector-effect="none" points="722.4,576 722.4,567.68 " />
<polyline fill="none" vector-effect="none" points="805.6,576 805.6,567.68 " />
<polyline fill="none" vector-effect="none" points="888.8,576 888.8,567.68 " />
<polyline fill="none" vector-effect="none" points="972,576 972,567.68 " />
</g>

<g fill="#212121" fill-opacity="1" stroke="#212121" stroke-opacity="1" stroke-width="1" stroke-linecap="square" stroke-linejoin="bevel" transform="matrix(0.75,0,0,0.75,102.375,445)"
font-family="Helvetica" font-size="13" font-weight="400" font-style="normal" 
>
<text fill="#212121" fill-opacity="1" stroke="none" xml:space="preserve" x="0" y="0" font-family="Helvetica" font-size="13" font-weight="400" font-style="normal" 
 >0</text>
</g>

<g fill="#212121" fill-opacity="1" stroke="#212121" stroke-opacity="1" stroke-width="1" stroke-linecap="square" stroke-linejoin="bevel" transform="matrix(0.75,0,0,0.75,164.775,445)"
font-family="Helvetica" font-size="13" font-weight="400" font-style="normal" 
>
<text fill="#212121" fill-opacity="1" stroke="none" xml:space="preserve" x="0" y="0" font-family="Helvetica" font-size="13" font-weight="400" font-style="normal" 
 >2</text>
</g>

<g fill="#212121" fill-opacity="1" stroke="#212121" stroke-opacity="1" stroke-width="1" stroke-linecap="square" stroke-linejoin="bevel" transform="matrix(0.75,0,0,0.75,227.175,445)"
font-family="Helvetica" font-size="13" font-weight="400" font-style="normal" 
>
<text fill="#212121" fill-opacity="1" stroke="none" xml:space="preserve" x="0" y="0" font-family="Helvetica" font-size="13" font-weight="400" font-style="normal" 
 >4</text>
</g>

<g fill="#212121" fill-opacity="1" stroke="#212121" stroke-opacity="1" stroke-width="1" stroke-linecap="square" stroke-linejoin="bevel" transform="matrix(0.75,0,0,0.75,289.575,445)"
font-family="Helvetica" font-size="13" font-weight="400" font-style="normal" 
>
<text fill="#212121" fill-opacity="1" stroke="none" xml:space="preserve" x="0" y="0" font-family="Helvetica" font-size="13" font-weight="400" font-style="normal" 
 >6</text>
</g>

<g fill="#212121" fill-opacity="1" stroke="#212121" stroke-opacity="1" stroke-width="1" stroke-linecap="square" stroke-linejoin="bevel" transform="matrix(0.75,0,0,0.75,351.975,445)"
font-family="Helvetica" font-size="13" font-weight="400" font-style="normal" 
>
<text fill="#212121" fill-opacity="1" stroke="none" xml:space="preserve" x="0" y="0" font-family="Helvetica" font-size="13" font-weight="400" font-style="normal" 
 >8</text>
</g>

<g fill="#212121" fill-opacity="1" stroke="#212121" stroke-opacity="1" stroke-width="1" stroke-linecap="square" stroke-linejoin="bevel" transform="matrix(0.75,0,0,0.75,411.75,445)"
font-family="Helvetica" font-size="13" font-weight="400" font-style="normal" 
>
<text fill="#212121" fill-opacity="1" stroke="none" xml:space="preserve" x="0" y="0" font-family="Helvetica" font-size="13" font-weight="400" font-style="normal" 
 >10</text>
</g>

<g fill="#212121" fill-opacity="1" stroke="#212121" stroke-opacity="1" stroke-width="1" stroke-linecap="square" stroke-linejoin="bevel" transform="matrix(0.75,0,0,0.75,474.15,445)"
font-family="Helvetica" font-size="13" font-weight="400" font-style="normal" 
>
<text fill="#212121" fill-opacity="1" stroke="none" xml:space="preserve" x="0" y="0" font-family="Helvetica" font-size="13" font-weight="400" font-style="normal" 
 >12</text>
</g>

<g fill="#212121" fill-opacity="1" stroke="#212121" stroke-opacity="1" stroke-width="1" stroke-linecap="square" stroke-linejoin="bevel" transform="matrix(0.75,0,0,0.75,536.55,445)"
font-family="Helvetica" font-size="13" font-weight="400" font-style="normal" 
>
<text fill="#212121" fill-opacity="1" stroke="none" xml:space="preserve" x="0" y="0" font-family="Helvetica" font-size="13" font-weight="400" font-style="normal" 
 >14</text>
</g>

<g fill="#212121" fill-opacity="1" stroke="#212121" stroke-opacity="1" stroke-width="1" stroke-linecap="square" stroke-linejoin="bevel" transform="matrix(0.75,0,0,0.75,598.95,445)"
font-family="Helvetica" font-size="13" font-weight="400" font-style="normal" 
>
<text fill="#212121" fill-opacity="1" stroke="none" xml:space="preserve" x="0" y="0" font-family="Helvetica" font-size="13" font-weight="400" font-style="normal" 
 >16</text>
</g>

<g fill="#212121" fill-opacity="1" stroke="#212121" stroke-opacity="1" stroke-width="1" stroke-linecap="square" stroke-linejoin="bevel" transform="matrix(0.75,0,0,0.75,661.35,445)"
font-family="Helvetica" font-size="13" font-weight="400" font-style="normal" 
>
<text fill="#212121" fill-opacity="1" stroke="none" xml:space="preserve" x="0" y="0" font-family="Helvetica" font-size="13" font-weight="400" font-style="normal" 
 >18</text>
</g>

<g fill="#212121" fill-opacity="1" stroke="#212121" stroke-opacity="1" stroke-width="1" stroke-linecap="square" stroke-linejoin="bevel" transform="matrix(0.75,0,0,0.75,723.75,445)"
font-family="Helvetica" font-size="13" font-weight="400" font-style="normal" 
>
<text fill="#212121" fill-opacity="1" stroke="none" xml:space="preserve" x="0" y="0" font-family="Helvetica" font-size="13" font-weight="400" font-style="normal" 
 >20</text>
</g>

<g fill="#212121" fill-opacity="1" stroke="#212121" stroke-opacity="1" stroke-width="1" stroke-linecap="square" stroke-linejoin="bevel" transform="matrix(0,-0.75,0.75,0,84.5,258)"
font-family="Helvetica" font-size="14" font-weight="400" font-style="normal" 
>
<text fill="#212121" fill-opacity="1" stroke="none" xml:space="preserve" x="0" y="0" font-family="Helvetica" font-size="14" font-weight="400" font-style="normal" 
 >Amplitude</text>
</g>

<g fill="#212121" fill-opacity="1" stroke="#212121" stroke-opacity="1" stroke-width="0.666667" stroke-linecap="square" stroke-linejoin="round" transform="matrix(0.75,0,0,0.75,0,0)"
font-family="Helvetica" font-size="14" font-weight="400" font-style="normal" 
>
<polyline fill="none" vector-effect="none" points="140,576 140,49 " />
<polyline fill="none" vector-effect="none" points="140,576 148.32,576 " />
<polyline fill="none" vector-effect="none" points="140,500.714 148.32,500.714 " />
<polyline fill="none" vector-effect="none" points="140,425.429 148.32,425.429 " />
<polyline fill="none" vector-effect="none" points="140,350.143 148.32,350.143 " />
<polyline fill="none" vector-effect="none" points="140,274.857 148.32,274.857 " />
<polyline fill="none" vector-effect="none" points="140,199.571 148.32,199.571 " />
<polyline fill="none" vector-effect="none" points="140,124.286 148.32,124.286 " />
<polyline fill="none" vector-effect="none" points="140,49 148.32,49 " />
</g>

<g fill="#212121" fill-opacity="1" stroke="#212121" stroke-opacity="1" stroke-width="1" stroke-linecap="square" stroke-linejoin="bevel" transform="matrix(0.75,0,0,0.75,95.75,435.375)"
font-family="Helvetica" font-size="13" font-weight="400" font-style="normal" 
>
<text fill="#212121" fill-opacity="1" stroke="none" xml:space="preserve" x="0" y="0" font-family="Helvetica" font-size="13" font-weight="400" font-style="normal" 
 >0</text>
</g>

<g fill="#212121" fill-opacity="1" stroke="#212121" stroke-opacity="1" stroke-width="1" stroke-linecap="square" stroke-linejoin="bevel" transform="matrix(0.75,0,0,0.75,90.5,378.911)"
font-family="Helvetica" font-size="13" font-weight="400" font-style="normal" 
>
<text fill="#212121" fill-opacity="1" stroke="none" xml:space="preserve" x="0" y="0" font-family="Helvetica" font-size="13" font-weight="400" font-style="normal" 
 >10</text>
</g>

<g fill="#212121" fill-opacity="1" stroke="#212121" stroke-opacity="1" stroke-width="1" stroke-linecap="square" stroke-linejoin="bevel" transform="matrix(0.75,0,0,0.75,90.5,322.446)"
font-family="Helvetica" font-size="13" font-weight="400" font-style="normal" 
>
<text fill="#212121" fill-opacity="1" stroke="none" xml:space="preserve" x="0" y="0" font-family="Helvetica" font-size="13" font-weight="400" font-style="normal" 
 >20</text>
</g>

<g fill="#212121" fill-opacity="1" stroke="#212121" stroke-opacity="1" stroke-width="1" stroke-linecap="square" stroke-linejoin="bevel" transform="matrix(0.75,0,0,0.75,90.5,265.982)"
font-family="Helvetica" font-size="13" font-weight="400" font-style="normal" 
>
<text fill="#212121" fill-opacity="1" stroke="none" xml:space="preserve" x="0" y="0" font-family="Helvetica" font-size="13" font-weight="400" font-style="normal" 
 >30</text>
</g>

<g fill="#212121" fill-opacity="1" stroke="#212121" stroke-opacity="1" stroke-width="1" stroke-linecap="square" stroke-linejoin="bevel" transform="matrix(0.75,0,0,0.75,90.5,209.518)"
font-family="Helvetica" font-size="13" font-weight="400" font-style="normal" 
>
<text fill="#212121" fill-opacity="1" stroke="none" xml:space="preserve" x="0" y="0" font-family="Helvetica" font-size="13" font-weight="400" font-style="normal" 
 >40</text>
</g>

<g fill="#212121" fill-opacity="1" stroke="#212121" stroke-opacity="1" stroke-width="1" stroke-linecap="square" stroke-linejoin="bevel" transform="matrix(0.75,0,0,0.75,90.5,153.054)"
font-family="Helvetica" font-size="13" font-weight="400" font-style="normal" 
>
<text fill="#212121" fill-opacity="1" stroke="none" xml:space="preserve" x="0" y="0" font-family="Helvetica" font-size="13" font-weight="400" font-style="normal" 
 >50</text>
</g>

<g fill="#212121" fill-opacity="1" stroke="#212121" stroke-opacity="1" stroke-width="1" stroke-linecap="square" stroke-linejoin="bevel" transform="matrix(0.75,0,0,0.75,90.5,96.5893)"
font-family="Helvetica" font-size="13" font-weight="400" font-style="normal" 
>
<text fill="#212121" fill-opacity="1" stroke="none" xml:space="preserve" x="0" y="0" font-family="Helvetica" font-size="13" font-weight="400" font-style="normal" 
 >60</text>
</g>

<g fill="#212121" fill-opacity="1" stroke="#212121" stroke-opacity="1" stroke-width="1" stroke-linecap="square" stroke-linejoin="bevel" transform="matrix(0.75,0,0,0.75,90.5,40.125)"
font-family="Helvetica" font-size="13" font-weight="400" font-style="normal" 
>
<text fill="#212121" fill-opacity="1" stroke="none" xml:space="preserve" x="0" y="0" font-family="Helvetica" font-size="13" font-weight="400" font-style="normal" 
 >70</text>
</g>

<g fill="#212121" fill-opacity="1" stroke="#212121" stroke-opacity="1" stroke-width="1" stroke-linecap="square" stroke-linejoin="bevel" transform="matrix(0.75,0,0,0.75,337.875,32.4375)"
font-family="Helvetica" font-size="14" font-weight="700" font-style="normal" 
>
<text fill="#212121" fill-opacity="1" stroke="none" xml:space="preserve" x="0" y="0" font-family="Helvetica" font-size="14" font-weight="700" font-style="normal" 
 >Output and Reference Signal</text>
</g>

<g fill="none" stroke="#0000ff" stroke-opacity="1" stroke-width="0.666667" stroke-linecap="butt" stroke-linejoin="miter" stroke-miterlimit="2" transform="matrix(0.75,0,0,0.75,0,0)"
font-family="Helvetica" font-size="14" font-weight="700" font-style="normal" 
>
<polyline fill="none" vector-effect="none" points="140,576 140.873,576 140.873,549.616 141.745,549.616 141.745,513.35 142.618,513.35 142.618,476.517 143.49,476.517 143.49,442.048 144.363,442.048 144.363,410.724 145.235,410.724 145.235,382.609 146.108,382.609 146.108,357.534 146.981,357.534 146.981,335.263 147.853,335.263 147.853,315.551 148.726,315.551 148.726,298.158 149.598,298.158 149.598,282.86 150.471,282.86 150.471,269.449 151.344,269.449 151.344,257.733 152.216,257.733 152.216,247.533 153.089,247.533 153.089,238.688 153.961,238.688 153.961,231.049 154.834,231.049 154.834,224.482 155.706,224.482 155.706,218.862 156.579,218.862 156.579,214.08 157.452,214.08 157.452,210.034 158.324,210.034 158.324,206.635 159.197,206.635 159.197,203.801 160.069,203.801 160.069,201.459 160.942,201.459 160.942,199.544 161.815,199.544 161.815,197.998 162.687,197.998 162.687,196.771 163.56,196.771 163.56,195.815 164.432,195.815 164.432,195.092 165.305,195.092 165.305,194.564 166.177,194.564 166.177,194.203 167.05,194.203 167.05,193.979 167.923,193.979 167.923,193.869 168.795,193.869 168.795,193.854 169.668,193.854 169.668,193.914 170.54,193.914 170.54,194.034 171.413,194.034 171.413,194.202 172.285,194.202 172.285,194.406 173.158,194.406 173.158,194.636 174.031,194.636 174.031,194.885 174.903,194.885 174.903,195.146 175.776,195.146 175.776,195.412 176.648,195.412 176.648,195.68 177.521,195.68 177.521,195.947 178.394,195.947 178.394,196.208 179.266,196.208 179.266,196.461 180.139,196.461 180.139,196.705 181.011,196.705 181.011,196.939 181.884,196.939 181.884,197.161 182.756,197.161 182.756,197.371 183.629,197.371 183.629,197.569 184.502,197.569 184.502,197.754 185.374,197.754 185.374,197.926 186.247,197.926 186.247,198.087 187.119,198.087 187.119,198.235 187.992,198.235 187.992,198.372 188.865,198.372 188.865,198.497 189.737,198.497 189.737,198.612 190.61,198.612 190.61,198.717 191.482,198.717 191.482,198.813 192.355,198.813 192.355,198.9 193.227,198.9 193.227,198.979 194.1,198.979 194.1,199.05 194.973,199.05 194.973,199.114 195.845,199.114 195.845,199.172 196.718,199.172 196.718,199.223 197.59,199.223 197.59,199.269 198.463,199.269 198.463,199.31 199.335,199.31 199.335,199.347 200.208,199.347 200.208,199.379 201.081,199.379 201.081,199.407 201.953,199.407 201.953,199.433 202.826,199.433 202.826,199.455 203.698,199.455 203.698,199.474 204.571,199.474 204.571,199.491 205.444,199.491 205.444,199.505 206.316,199.505 206.316,199.518 207.189,199.518 207.189,199.529 208.061,199.529 208.061,199.538 208.934,199.538 208.934,199.546 209.806,199.546 209.806,199.553 210.679,199.553 210.679,199.558 211.552,199.558 211.552,199.563 212.424,199.563 212.424,199.567 213.297,199.567 213.297,199.57 214.169,199.57 214.169,199.573 215.042,199.573 215.042,199.575 215.915,199.575 215.915,199.577 216.787,199.577 216.787,199.578 217.66,199.578 217.66,199.579 218.532,199.579 218.532,199.58 219.405,199.58 219.405,199.58 220.277,199.58 220.277,199.58 221.15,199.58 221.15,199.58 222.023,199.58 222.023,199.58 222.895,199.58 222.895,199.58 223.768,199.58 223.768,199.58 224.64,199.58 224.64,199.58 225.513,199.58 225.513,199.579 226.385,199.579 226.385,199.579 227.258,199.579 227.258,204.855 228.131,204.855 228.131,212.108 229.003,212.108 229.003,219.474 229.876,219.474 229.876,226.368 230.748,226.368 230.748,232.632 231.621,232.632 231.621,238.255 232.494,238.255 232.494,243.269 233.366,243.269 233.366,247.723 234.239,247.723 234.239,251.665 235.111,251.665 235.111,255.143 235.984,255.143 235.984,258.203 236.856,258.203 236.856,260.885 237.729,260.885 237.729,263.228 238.602,263.228 238.602,265.267 239.474,265.267 239.474,267.036 240.347,267.036 240.347,268.564 241.219,268.564 241.219,269.877 242.092,269.877 242.092,271.001 242.965,271.001 242.965,271.957 243.837,271.957 243.837,272.766 244.71,272.766 244.71,273.446 245.582,273.446 245.582,274.012 246.455,274.012 246.455,274.481 247.327,274.481 247.327,274.863 248.2,274.863 248.2,275.172 249.073,275.172 249.073,275.418 249.945,275.418 249.945,275.609 250.818,275.609 250.818,275.754 251.69,275.754 251.69,275.859 252.563,275.859 252.563,275.931 253.436,275.931 253.436,275.976 254.308,275.976 254.308,275.998 255.181,275.998 255.181,276.001 256.053,276.001 256.053,275.989 256.926,275.989 256.926,275.965 257.798,275.965 257.798,275.931 258.671,275.931 258.671,275.89 259.544,275.89 259.544,275.844 260.416,275.844 260.416,275.794 261.289,275.794 261.289,275.742 262.161,275.742 262.161,275.689 263.034,275.689 263.034,275.635 263.906,275.635 263.906,275.582 264.779,275.582 264.779,275.53 265.652,275.53 265.652,275.479 266.524,275.479 266.524,275.43 267.397,275.43 267.397,275.384 268.269,275.384 268.269,275.339 269.142,275.339 269.142,275.297 270.015,275.297 270.015,275.258 270.887,275.258 270.887,275.221 271.76,275.221 271.76,275.186 272.632,275.186 272.632,275.154 273.505,275.154 273.505,275.124 274.377,275.124 274.377,275.097 275.25,275.097 275.25,275.072 276.123,275.072 276.123,275.049 276.995,275.049 276.995,275.028 277.868,275.028 277.868,275.009 278.74,275.009 278.74,274.991 279.613,274.991 279.613,274.976 280.486,274.976 280.486,274.961 281.358,274.961 281.358,274.949 282.231,274.949 282.231,274.937 283.103,274.937 283.103,274.927 283.976,274.927 283.976,274.918 284.848,274.918 284.848,274.909 285.721,274.909 285.721,274.902 286.594,274.902 286.594,274.896 287.466,274.896 287.466,274.89 288.339,274.89 288.339,274.885 289.211,274.885 289.211,274.88 290.084,274.88 290.084,274.877 290.956,274.877 290.956,274.873 291.829,274.873 291.829,274.87 292.702,274.87 292.702,274.868 293.574,274.868 293.574,274.866 294.447,274.866 294.447,274.864 295.319,274.864 295.319,274.862 296.192,274.862 296.192,274.861 297.065,274.861 297.065,274.86 297.937,274.86 297.937,274.859 298.81,274.859 298.81,274.858 299.682,274.858 299.682,274.857 300.555,274.857 300.555,274.857 301.427,274.857 301.427,274.856 302.3,274.856 302.3,274.856 303.173,274.856 303.173,274.856 304.045,274.856 304.045,274.856 304.918,274.856 304.918,274.855 305.79,274.855 305.79,274.855 306.663,274.855 306.663,274.855 307.536,274.855 307.536,274.855 308.408,274.855 308.408,274.855 309.281,274.855 309.281,274.855 310.153,274.855 310.153,274.855 311.026,274.855 311.026,274.855 311.898,274.855 311.898,274.856 312.771,274.856 312.771,274.856 313.644,274.856 313.644,274.856 314.516,274.856 314.516,274.856 315.389,274.856 315.389,274.856 316.261,274.856 316.261,274.856 317.134,274.856 317.134,274.856 318.007,274.856 318.007,274.856 318.879,274.856 318.879,274.856 319.752,274.856 319.752,274.856 320.624,274.856 320.624,274.856 321.497,274.856 321.497,274.856 322.369,274.856 322.369,274.856 323.242,274.856 323.242,274.857 324.115,274.857 324.115,274.857 324.987,274.857 324.987,274.857 325.86,274.857 325.86,274.857 326.732,274.857 326.732,274.857 327.605,274.857 327.605,274.857 328.477,274.857 328.477,274.857 329.35,274.857 329.35,274.857 330.223,274.857 330.223,274.857 331.095,274.857 331.095,274.857 331.968,274.857 331.968,274.857 332.84,274.857 332.84,274.857 333.713,274.857 333.713,274.857 334.586,274.857 334.586,274.857 335.458,274.857 335.458,274.857 336.331,274.857 336.331,274.857 337.203,274.857 337.203,274.857 338.076,274.857 338.076,274.857 338.948,274.857 338.948,274.857 339.821,274.857 339.821,274.857 340.694,274.857 340.694,274.857 341.566,274.857 341.566,274.857 342.439,274.857 342.439,274.857 343.311,274.857 343.311,274.857 344.184,274.857 344.184,274.857 345.056,274.857 345.056,274.857 345.929,274.857 345.929,274.857 346.802,274.857 346.802,274.857 347.674,274.857 347.674,274.857 348.547,274.857 348.547,274.857 349.419,274.857 349.419,274.857 350.292,274.857 350.292,274.857 351.165,274.857 351.165,274.857 352.037,274.857 352.037,274.857 352.91,274.857 352.91,274.857 353.782,274.857 353.782,274.857 354.655,274.857 354.655,274.857 355.527,274.857 355.527,274.857 356.4,274.857 356.4,274.857 357.273,274.857 357.273,274.857 358.145,274.857 358.145,264.303 359.018,264.303 359.018,249.797 359.89,249.797 359.89,235.064 360.763,235.064 360.763,221.276 361.636,221.276 361.636,208.747 362.508,208.747 362.508,197.501 363.381,197.501 363.381,187.471 364.253,187.471 364.253,178.562 365.126,178.562 365.126,170.677 365.998,170.677 365.998,163.72 366.871,163.72 366.871,157.601 367.744,157.601 367.744,152.237 368.616,152.237 368.616,147.55 369.489,147.55 369.489,143.47 370.361,143.47 370.361,139.932 371.234,139.932 371.234,136.877 372.107,136.877 372.107,134.25 372.979,134.25 372.979,132.002 373.852,132.002 373.852,130.089 374.724,130.089 374.724,128.471 375.597,128.471 375.597,127.111 376.469,127.111 376.469,125.977 377.342,125.977 377.342,125.041 378.215,125.041 378.215,124.275 379.087,124.275 379.087,123.656 379.96,123.656 379.96,123.165 380.832,123.165 380.832,122.783 381.705,122.783 381.705,122.494 382.577,122.494 382.577,122.283 383.45,122.283 383.45,122.138 384.323,122.138 384.323,122.049 385.195,122.049 385.195,122.005 386.068,122.005 386.068,121.999 386.94,121.999 386.94,122.023 387.813,122.023 387.813,122.071 388.686,122.071 388.686,122.138 389.558,122.138 389.558,122.22 390.431,122.22 390.431,122.312 391.303,122.312 391.303,122.411 392.176,122.411 392.176,122.515 393.048,122.515 393.048,122.622 393.921,122.622 393.921,122.729 394.794,122.729 394.794,122.836 395.666,122.836 395.666,122.94 396.539,122.94 396.539,123.042 397.411,123.042 397.411,123.139 398.284,123.139 398.284,123.233 399.156,123.233 399.156,123.322 400.029,123.322 400.029,123.406 400.902,123.406 400.902,123.485 401.774,123.485 401.774,123.559 402.647,123.559 402.647,123.628 403.519,123.628 403.519,123.692 404.392,123.692 404.392,123.751 405.265,123.751 405.265,123.806 406.137,123.806 406.137,123.856 407.01,123.856 407.01,123.902 407.882,123.902 407.882,123.944 408.755,123.944 408.755,123.982 409.627,123.982 409.627,124.017 410.5,124.017 410.5,124.049 411.373,124.049 411.373,124.077 412.245,124.077 412.245,124.103 413.118,124.103 413.118,124.126 413.99,124.126 413.99,124.146 414.863,124.146 414.863,124.165 415.736,124.165 415.736,124.181 416.608,124.181 416.608,124.196 417.481,124.196 417.481,124.209 418.353,124.209 418.353,124.22 419.226,124.22 419.226,124.23 420.098,124.23 420.098,124.239 420.971,124.239 420.971,124.247 421.844,124.247 421.844,124.253 422.716,124.253 422.716,124.259 423.589,124.259 423.589,124.264 424.461,124.264 424.461,124.269 425.334,124.269 425.334,124.272 426.207,124.272 426.207,124.276 427.079,124.276 427.079,124.278 427.952,124.278 427.952,124.281 428.824,124.281 428.824,124.282 429.697,124.282 429.697,124.284 430.569,124.284 430.569,124.285 431.442,124.285 431.442,124.286 432.315,124.286 432.315,124.287 433.187,124.287 433.187,124.288 434.06,124.288 434.06,124.288 434.932,124.288 434.932,124.289 435.805,124.289 435.805,124.289 436.677,124.289 436.677,124.289 437.55,124.289 437.55,124.289 438.423,124.289 438.423,124.289 439.295,124.289 439.295,124.289 440.168,124.289 440.168,124.289 441.04,124.289 441.04,124.289 441.913,124.289 441.913,124.289 442.786,124.289 442.786,124.289 443.658,124.289 443.658,124.289 444.531,124.289 444.531,124.289 445.403,124.289 445.403,124.288 446.276,124.288 446.276,124.288 447.148,124.288 447.148,124.288 448.021,124.288 448.021,124.288 448.894,124.288 448.894,124.288 449.766,124.288 449.766,124.288 450.639,124.288 450.639,124.287 451.511,124.287 451.511,124.287 452.384,124.287 452.384,124.287 453.257,124.287 453.257,124.287 454.129,124.287 454.129,124.287 455.002,124.287 455.002,124.287 455.874,124.287 455.874,124.287 456.747,124.287 456.747,124.287 457.619,124.287 457.619,124.286 458.492,124.286 458.492,124.286 459.365,124.286 459.365,124.286 460.237,124.286 460.237,124.286 461.11,124.286 461.11,124.286 461.982,124.286 461.982,124.286 462.855,124.286 462.855,124.286 463.727,124.286 463.727,124.286 464.6,124.286 464.6,124.286 465.473,124.286 465.473,124.286 466.345,124.286 466.345,124.286 467.218,124.286 467.218,124.286 468.09,124.286 468.09,124.286 468.963,124.286 468.963,124.286 469.836,124.286 469.836,124.286 470.708,124.286 470.708,124.286 471.581,124.286 471.581,124.286 472.453,124.286 472.453,124.286 473.326,124.286 473.326,124.286 474.198,124.286 474.198,124.286 475.071,124.286 475.071,124.286 475.944,124.286 475.944,124.286 476.816,124.286 476.816,124.286 477.689,124.286 477.689,124.286 478.561,124.286 478.561,124.286 479.434,124.286 479.434,124.286 480.307,124.286 480.307,124.286 481.179,124.286 481.179,124.286 482.052,124.286 482.052,124.286 482.924,124.286 482.924,124.286 483.797,124.286 483.797,124.286 484.669,124.286 484.669,124.286 485.542,124.286 485.542,124.286 486.415,124.286 486.415,124.286 487.287,124.286 487.287,124.286 488.16,124.286 488.16,124.286 489.032,124.286 489.032,124.286 489.905,124.286 489.905,124.286 490.777,124.286 490.777,124.286 491.65,124.286 491.65,124.286 492.523,124.286 492.523,124.286 493.395,124.286 493.395,124.286 494.268,124.286 494.268,124.286 495.14,124.286 495.14,124.286 496.013,124.286 496.013,124.286 496.886,124.286 496.886,124.286 497.758,124.286 497.758,124.286 498.631,124.286 498.631,124.286 499.503,124.286 499.503,124.286 500.376,124.286 500.376,124.286 501.248,124.286 501.248,124.286 502.121,124.286 502.121,124.286 502.994,124.286 502.994,124.286 503.866,124.286 503.866,124.286 504.739,124.286 504.739,124.286 505.611,124.286 505.611,124.286 506.484,124.286 506.484,124.286 507.357,124.286 507.357,124.286 508.229,124.286 508.229,124.286 509.102,124.286 509.102,124.286 509.974,124.286 509.974,124.286 510.847,124.286 510.847,124.286 511.719,124.286 511.719,124.286 512.592,124.286 512.592,124.286 513.465,124.286 513.465,124.286 514.337,124.286 514.337,124.286 515.21,124.286 515.21,124.286 516.082,124.286 516.082,124.286 516.955,124.286 516.955,124.286 517.828,124.286 517.828,124.286 518.7,124.286 518.7,124.286 519.573,124.286 519.573,124.286 520.445,124.286 520.445,124.286 521.318,124.286 521.318,124.286 522.19,124.286 522.19,124.286 523.063,124.286 523.063,124.286 523.936,124.286 523.936,124.286 524.808,124.286 524.808,124.286 525.681,124.286 525.681,124.286 526.553,124.286 526.553,124.286 527.426,124.286 527.426,124.286 528.298,124.286 528.298,124.286 529.171,124.286 529.171,124.286 530.044,124.286 530.044,124.286 530.916,124.286 530.916,124.286 531.789,124.286 531.789,124.286 532.661,124.286 532.661,124.286 533.534,124.286 533.534,124.286 534.407,124.286 534.407,124.286 535.279,124.286 535.279,124.286 536.152,124.286 536.152,124.286 537.024,124.286 537.024,124.286 537.897,124.286 537.897,124.286 538.769,124.286 538.769,124.286 539.642,124.286 539.642,124.286 540.515,124.286 540.515,124.286 541.387,124.286 541.387,124.286 542.26,124.286 542.26,124.286 543.132,124.286 543.132,124.286 544.005,124.286 544.005,124.286 544.878,124.286 544.878,124.286 545.75,124.286 545.75,124.286 546.623,124.286 546.623,124.286 547.495,124.286 547.495,124.286 548.368,124.286 548.368,124.286 549.24,124.286 549.24,124.286 550.113,124.286 550.113,124.286 550.986,124.286 550.986,124.286 551.858,124.286 551.858,124.286 552.731,124.286 552.731,124.286 553.603,124.286 553.603,124.286 554.476,124.286 554.476,124.286 555.348,124.286 555.348,124.286 556.221,124.286 556.221,124.286 557.094,124.286 557.094,124.286 557.966,124.286 557.966,124.286 558.839,124.286 558.839,124.286 559.711,124.286 559.711,124.286 560.584,124.286 560.584,124.286 561.457,124.286 561.457,124.286 562.329,124.286 562.329,124.286 563.202,124.286 563.202,124.286 564.074,124.286 564.074,124.286 564.947,124.286 564.947,124.286 565.819,124.286 565.819,124.286 566.692,124.286 566.692,124.286 567.565,124.286 567.565,124.286 568.437,124.286 568.437,124.286 569.31,124.286 569.31,124.286 570.182,124.286 570.182,124.286 571.055,124.286 571.055,124.286 571.927,124.286 571.927,124.286 572.8,124.286 572.8,124.286 573.673,124.286 573.673,124.286 574.545,124.286 574.545,124.286 575.418,124.286 575.418,124.286 576.29,124.286 576.29,124.286 577.163,124.286 577.163,124.286 578.036,124.286 578.036,124.286 578.908,124.286 578.908,124.286 579.781,124.286 579.781,124.286 580.653,124.286 580.653,124.286 581.526,124.286 581.526,124.286 582.398,124.286 582.398,124.286 583.271,124.286 583.271,124.286 584.144,124.286 584.144,124.286 585.016,124.286 585.016,124.286 585.889,124.286 585.889,124.286 586.761,124.286 586.761,124.286 587.634,124.286 587.634,124.286 588.507,124.286 588.507,124.286 589.379,124.286 589.379,124.286 590.252,124.286 590.252,124.286 591.124,124.286 591.124,124.286 591.997,124.286 591.997,124.286 592.869,124.286 592.869,124.286 593.742,124.286 593.742,124.286 594.615,124.286 594.615,124.286 595.487,124.286 595.487,124.286 596.36,124.286 596.36,124.286 597.232,124.286 597.232,124.286 598.105,124.286 598.105,124.286 598.978,124.286 598.978,124.286 599.85,124.286 599.85,124.286 600.723,124.286 600.723,124.286 601.595,124.286 601.595,124.286 602.468,124.286 602.468,124.286 603.34,124.286 603.34,124.286 604.213,124.286 604.213,124.286 605.086,124.286 605.086,124.286 605.958,124.286 605.958,124.286 606.831,124.286 606.831,124.286 607.703,124.286 607.703,124.286 608.576,124.286 608.576,124.286 609.448,124.286 609.448,124.286 610.321,124.286 610.321,124.286 611.194,124.286 611.194,124.286 612.066,124.286 612.066,124.286 612.939,124.286 612.939,124.286 613.811,124.286 613.811,124.286 614.684,124.286 614.684,124.286 615.557,124.286 615.557,124.286 616.429,124.286 616.429,124.286 617.302,124.286 617.302,124.286 618.174,124.286 618.174,124.286 619.047,124.286 619.047,124.286 619.919,124.286 619.919,124.286 620.792,124.286 620.792,124.286 621.665,124.286 621.665,124.286 622.537,124.286 622.537,124.286 623.41,124.286 623.41,124.286 624.282,124.286 624.282,124.286 625.155,124.286 625.155,124.286 626.028,124.286 626.028,124.286 626.9,124.286 626.9,124.286 627.773,124.286 627.773,124.286 628.645,124.286 628.645,124.286 629.518,124.286 629.518,124.286 630.39,124.286 630.39,124.286 631.263,124.286 631.263,124.286 632.136,124.286 632.136,124.286 633.008,124.286 633.008,124.286 633.881,124.286 633.881,124.286 634.753,124.286 634.753,124.286 635.626,124.286 635.626,124.286 636.498,124.286 636.498,124.286 637.371,124.286 637.371,124.286 638.244,124.286 638.244,124.286 639.116,124.286 639.116,124.286 639.989,124.286 639.989,124.286 640.861,124.286 640.861,124.286 641.734,124.286 641.734,124.286 642.607,124.286 642.607,124.286 643.479,124.286 643.479,124.286 644.352,124.286 644.352,124.286 645.224,124.286 645.224,124.286 646.097,124.286 646.097,124.286 646.969,124.286 646.969,124.286 647.842,124.286 647.842,124.286 648.715,124.286 648.715,124.286 649.587,124.286 649.587,124.286 650.46,124.286 650.46,124.286 651.332,124.286 651.332,124.286 652.205,124.286 652.205,124.286 653.078,124.286 653.078,124.286 653.95,124.286 653.95,124.286 654.823,124.286 654.823,124.286 655.695,124.286 655.695,124.286 656.568,124.286 656.568,124.286 657.44,124.286 657.44,124.286 658.313,124.286 658.313,124.286 659.186,124.286 659.186,124.286 660.058,124.286 660.058,124.286 660.931,124.286 660.931,124.286 661.803,124.286 661.803,124.286 662.676,124.286 662.676,124.286 663.549,124.286 663.549,124.286 664.421,124.286 664.421,124.286 665.294,124.286 665.294,124.286 666.166,124.286 666.166,124.286 667.039,124.286 667.039,124.286 667.911,124.286 667.911,124.286 668.784,124.286 668.784,124.286 669.657,124.286 669.657,124.286 670.529,124.286 670.529,124.286 671.402,124.286 671.402,124.286 672.274,124.286 672.274,124.286 673.147,124.286 673.147,124.286 674.019,124.286 674.019,124.286 674.892,124.286 674.892,124.286 675.765,124.286 675.765,124.286 676.637,124.286 676.637,124.286 677.51,124.286 677.51,124.286 678.382,124.286 678.382,124.286 679.255,124.286 679.255,124.286 680.128,124.286 680.128,124.286 681,124.286 681,124.286 681.873,124.286 681.873,124.286 682.745,124.286 682.745,124.286 683.618,124.286 683.618,124.286 684.49,124.286 684.49,124.286 685.363,124.286 685.363,124.286 686.236,124.286 686.236,124.286 687.108,124.286 687.108,124.286 687.981,124.286 687.981,124.286 688.853,124.286 688.853,124.286 689.726,124.286 689.726,124.286 690.599,124.286 690.599,124.286 691.471,124.286 691.471,124.286 692.344,124.286 692.344,124.286 693.216,124.286 693.216,124.286 694.089,124.286 694.089,124.286 694.961,124.286 694.961,124.286 695.834,124.286 695.834,124.286 696.707,124.286 696.707,124.286 697.579,124.286 697.579,124.286 698.452,124.286 698.452,124.286 699.324,124.286 699.324,124.286 700.197,124.286 700.197,124.286 701.069,124.286 701.069,124.286 701.942,124.286 701.942,124.286 702.815,124.286 702.815,124.286 703.687,124.286 703.687,124.286 704.56,124.286 704.56,124.286 705.432,124.286 705.432,124.286 706.305,124.286 706.305,124.286 707.178,124.286 707.178,124.286 708.05,124.286 708.05,124.286 708.923,124.286 708.923,124.286 709.795,124.286 709.795,124.286 710.668,124.286 710.668,124.286 711.54,124.286 711.54,124.286 712.413,124.286 712.413,124.286 713.286,124.286 713.286,124.286 714.158,124.286 714.158,124.286 715.031,124.286 715.031,124.286 715.903,124.286 715.903,124.286 716.776,124.286 716.776,124.286 717.648,124.286 717.648,124.286 718.521,124.286 718.521,124.286 719.394,124.286 719.394,124.286 720.266,124.286 720.266,124.286 721.139,124.286 721.139,124.286 722.011,124.286 722.011,124.286 722.884,124.286 722.884,124.286 723.757,124.286 723.757,124.286 724.629,124.286 724.629,124.286 725.502,124.286 725.502,124.286 726.374,124.286 726.374,124.286 727.247,124.286 727.247,124.286 728.12,124.286 728.12,124.286 728.992,124.286 728.992,124.286 729.865,124.286 729.865,124.286 730.737,124.286 730.737,124.286 731.61,124.286 731.61,124.286 732.482,124.286 732.482,124.286 733.355,124.286 733.355,124.286 734.228,124.286 734.228,124.286 735.1,124.286 735.1,124.286 735.973,124.286 735.973,124.286 736.845,124.286 736.845,124.286 737.718,124.286 737.718,124.286 738.59,124.286 738.59,124.286 739.463,124.286 739.463,124.286 740.336,124.286 740.336,124.286 741.208,124.286 741.208,124.286 742.081,124.286 742.081,124.286 742.953,124.286 742.953,124.286 743.826,124.286 743.826,124.286 744.699,124.286 744.699,124.286 745.571,124.286 745.571,124.286 746.444,124.286 746.444,124.286 747.316,124.286 747.316,124.286 748.189,124.286 748.189,124.286 749.061,124.286 749.061,124.286 749.934,124.286 749.934,124.286 750.807,124.286 750.807,124.286 751.679,124.286 751.679,124.286 752.552,124.286 752.552,124.286 753.424,124.286 753.424,124.286 754.297,124.286 754.297,124.286 755.169,124.286 755.169,124.286 756.042,124.286 756.042,124.286 756.915,124.286 756.915,124.286 757.787,124.286 757.787,124.286 758.66,124.286 758.66,124.286 759.532,124.286 759.532,124.286 760.405,124.286 760.405,124.286 761.278,124.286 761.278,124.286 762.15,124.286 762.15,124.286 763.023,124.286 763.023,124.286 763.895,124.286 763.895,124.286 764.768,124.286 764.768,124.286 765.64,124.286 765.64,124.286 766.513,124.286 766.513,124.286 767.386,124.286 767.386,124.286 768.258,124.286 768.258,124.286 769.131,124.286 769.131,124.286 770.003,124.286 770.003,124.286 770.876,124.286 770.876,124.286 771.749,124.286 771.749,124.286 772.621,124.286 772.621,124.286 773.494,124.286 773.494,124.286 774.366,124.286 774.366,124.286 775.239,124.286 775.239,124.286 776.111,124.286 776.111,124.286 776.984,124.286 776.984,124.286 777.857,124.286 777.857,124.286 778.729,124.286 778.729,124.286 779.602,124.286 779.602,124.286 780.474,124.286 780.474,124.286 781.347,124.286 781.347,124.286 782.219,124.286 782.219,124.286 783.092,124.286 783.092,124.286 783.965,124.286 783.965,124.286 784.837,124.286 784.837,124.286 785.71,124.286 785.71,124.286 786.582,124.286 786.582,124.286 787.455,124.286 787.455,124.286 788.328,124.286 788.328,124.286 789.2,124.286 789.2,124.286 790.073,124.286 790.073,124.286 790.945,124.286 790.945,124.286 791.818,124.286 791.818,124.286 792.69,124.286 792.69,124.286 793.563,124.286 793.563,124.286 794.436,124.286 794.436,124.286 795.308,124.286 795.308,124.286 796.181,124.286 796.181,124.286 797.053,124.286 797.053,124.286 797.926,124.286 797.926,124.286 798.799,124.286 798.799,124.286 799.671,124.286 799.671,124.286 800.544,124.286 800.544,124.286 801.416,124.286 801.416,124.286 802.289,124.286 802.289,124.286 803.161,124.286 803.161,124.286 804.034,124.286 804.034,124.286 804.907,124.286 804.907,124.286 805.779,124.286 805.779,124.286 806.652,124.286 806.652,124.286 807.524,124.286 807.524,124.286 808.397,124.286 808.397,124.286 809.27,124.286 809.27,124.286 810.142,124.286 810.142,124.286 811.015,124.286 811.015,124.286 811.887,124.286 811.887,124.286 812.76,124.286 812.76,124.286 813.632,124.286 813.632,124.286 814.505,124.286 814.505,124.286 815.378,124.286 815.378,124.286 816.25,124.286 816.25,124.286 817.123,124.286 817.123,124.286 817.995,124.286 817.995,124.286 818.868,124.286 818.868,124.286 819.74,124.286 819.74,124.286 820.613,124.286 820.613,124.286 821.486,124.286 821.486,124.286 822.358,124.286 822.358,124.286 823.231,124.286 823.231,124.286 824.103,124.286 824.103,124.286 824.976,124.286 824.976,124.286 825.849,124.286 825.849,124.286 826.721,124.286 826.721,124.286 827.594,124.286 827.594,124.286 828.466,124.286 828.466,124.286 829.339,124.286 829.339,124.286 830.211,124.286 830.211,124.286 831.084,124.286 831.084,124.286 831.957,124.286 831.957,124.286 832.829,124.286 832.829,124.286 833.702,124.286 833.702,124.286 834.574,124.286 834.574,124.286 835.447,124.286 835.447,124.286 836.319,124.286 836.319,124.286 837.192,124.286 837.192,124.286 838.065,124.286 838.065,124.286 838.937,124.286 838.937,124.286 839.81,124.286 839.81,124.286 840.682,124.286 840.682,124.286 841.555,124.286 841.555,124.286 842.428,124.286 842.428,124.286 843.3,124.286 843.3,124.286 844.173,124.286 844.173,124.286 845.045,124.286 845.045,124.286 845.918,124.286 845.918,124.286 846.791,124.286 846.791,124.286 847.663,124.286 847.663,124.286 848.536,124.286 848.536,124.286 849.408,124.286 849.408,124.286 850.281,124.286 850.281,124.286 851.153,124.286 851.153,124.286 852.026,124.286 852.026,124.286 852.899,124.286 852.899,124.286 853.771,124.286 853.771,124.286 854.644,124.286 854.644,124.286 855.516,124.286 855.516,124.286 856.389,124.286 856.389,124.286 857.261,124.286 857.261,124.286 858.134,124.286 858.134,124.286 859.007,124.286 859.007,124.286 859.879,124.286 859.879,124.286 860.752,124.286 860.752,124.286 861.624,124.286 861.624,124.286 862.497,124.286 862.497,124.286 863.369,124.286 863.369,124.286 864.242,124.286 864.242,124.286 865.115,124.286 865.115,124.286 865.987,124.286 865.987,124.286 866.86,124.286 866.86,124.286 867.732,124.286 867.732,124.286 868.605,124.286 868.605,124.286 869.478,124.286 869.478,124.286 870.35,124.286 870.35,124.286 871.223,124.286 871.223,124.286 872.095,124.286 872.095,124.286 872.968,124.286 872.968,124.286 873.84,124.286 873.84,124.286 874.713,124.286 874.713,124.286 875.586,124.286 875.586,124.286 876.458,124.286 876.458,124.286 877.331,124.286 877.331,124.286 878.203,124.286 878.203,124.286 879.076,124.286 879.076,124.286 879.948,124.286 879.948,124.286 880.821,124.286 880.821,124.286 881.694,124.286 881.694,124.286 882.566,124.286 882.566,124.286 883.439,124.286 883.439,124.286 884.311,124.286 884.311,124.286 885.184,124.286 885.184,124.286 886.057,124.286 886.057,124.286 886.929,124.286 886.929,124.286 887.802,124.286 887.802,124.286 888.674,124.286 888.674,124.286 889.547,124.286 889.547,124.286 890.42,124.286 890.42,124.286 891.292,124.286 891.292,124.286 892.165,124.286 892.165,124.286 893.037,124.286 893.037,124.286 893.91,124.286 893.91,124.286 894.782,124.286 894.782,124.286 895.655,124.286 895.655,124.286 896.528,124.286 896.528,124.286 897.4,124.286 897.4,124.286 898.273,124.286 898.273,124.286 899.145,124.286 899.145,124.286 900.018,124.286 900.018,124.286 900.89,124.286 900.89,124.286 901.763,124.286 901.763,124.286 902.636,124.286 902.636,124.286 903.508,124.286 903.508,124.286 904.381,124.286 904.381,124.286 905.253,124.286 905.253,124.286 906.126,124.286 906.126,124.286 906.999,124.286 906.999,124.286 907.871,124.286 907.871,124.286 908.744,124.286 908.744,124.286 909.616,124.286 909.616,124.286 910.489,124.286 910.489,124.286 911.361,124.286 911.361,124.286 912.234,124.286 912.234,124.286 913.107,124.286 913.107,124.286 913.979,124.286 913.979,124.286 914.852,124.286 914.852,124.286 915.724,124.286 915.724,124.286 916.597,124.286 916.597,124.286 917.469,124.286 917.469,124.286 918.342,124.286 918.342,124.286 919.215,124.286 919.215,124.286 920.087,124.286 920.087,124.286 920.96,124.286 920.96,124.286 921.832,124.286 921.832,124.286 922.705,124.286 922.705,124.286 923.578,124.286 923.578,124.286 924.45,124.286 924.45,124.286 925.323,124.286 925.323,124.286 926.195,124.286 926.195,124.286 927.068,124.286 927.068,124.286 927.941,124.286 927.941,124.286 928.813,124.286 928.813,124.286 929.686,124.286 929.686,124.286 930.558,124.286 930.558,124.286 931.431,124.286 931.431,124.286 932.303,124.286 932.303,124.286 933.176,124.286 933.176,124.286 934.049,124.286 934.049,124.286 934.921,124.286 934.921,124.286 935.794,124.286 935.794,124.286 936.666,124.286 936.666,124.286 937.539,124.286 937.539,124.286 938.411,124.286 938.411,124.286 939.284,124.286 939.284,124.286 940.157,124.286 940.157,124.286 941.029,124.286 941.029,124.286 941.902,124.286 941.902,124.286 942.774,124.286 942.774,124.286 943.647,124.286 943.647,124.286 944.519,124.286 944.519,124.286 945.392,124.286 945.392,124.286 946.265,124.286 946.265,124.286 947.137,124.286 947.137,124.286 948.01,124.286 948.01,124.286 948.882,124.286 948.882,124.286 949.755,124.286 949.755,124.286 950.628,124.286 950.628,124.286 951.5,124.286 951.5,124.286 952.373,124.286 952.373,124.286 953.245,124.286 953.245,124.286 954.118,124.286 954.118,124.286 954.99,124.286 954.99,124.286 955.863,124.286 955.863,124.286 956.736,124.286 956.736,124.286 957.608,124.286 957.608,124.286 958.481,124.286 958.481,124.286 959.353,124.286 959.353,124.286 960.226,124.286 960.226,124.286 961.099,124.286 961.099,124.286 961.971,124.286 961.971,124.286 962.844,124.286 962.844,124.286 963.716,124.286 963.716,124.286 964.589,124.286 964.589,124.286 965.461,124.286 965.461,124.286 966.334,124.286 966.334,124.286 967.207,124.286 967.207,124.286 968.079,124.286 968.079,124.286 968.952,124.286 968.952,124.286 969.824,124.286 969.824,124.286 970.697,124.286 970.697,124.286 971.57,124.286 971.57,124.286 " />
</g>

<g fill="none" stroke="#ff0000" stroke-opacity="1" stroke-dasharray="10,6" stroke-dashoffset="0" stroke-width="0.666667" stroke-linecap="butt" stroke-linejoin="miter" stroke-miterlimit="2" transform="matrix(0.75,0,0,0.75,0,0)"
font-family="Helvetica" font-size="14" font-weight="700" font-style="normal" 
>
<polyline fill="none" vector-effect="none" points="140,199.571 140.873,199.571 140.873,199.571 141.745,199.571 141.745,199.571 142.618,199.571 142.618,199.571 143.49,199.571 143.49,199.571 144.363,199.571 144.363,199.571 145.235,199.571 145.235,199.571 146.108,199.571 146.108,199.571 146.981,199.571 146.981,199.571 147.853,199.571 147.853,199.571 148.726,199.571 148.726,199.571 149.598,199.571 149.598,199.571 150.471,199.571 150.471,199.571 151.344,199.571 151.344,199.571 152.216,199.571 152.216,199.571 153.089,199.571 153.089,199.571 153.961,199.571 153.961,199.571 154.834,199.571 154.834,199.571 155.706,199.571 155.706,199.571 156.579,199.571 156.579,199.571 157.452,199.571 157.452,199.571 158.324,199.571 158.324,199.571 159.197,199.571 159.197,199.571 160.069,199.571 160.069,199.571 160.942,199.571 160.942,199.571 161.815,199.571 161.815,199.571 162.687,199.571 162.687,199.571 163.56,199.571 163.56,199.571 164.432,199.571 164.432,199.571 165.305,199.571 165.305,199.571 166.177,199.571 166.177,199.571 167.05,199.571 167.05,199.571 167.923,199.571 167.923,199.571 168.795,199.571 168.795,199.571 169.668,199.571 169.668,199.571 170.54,199.571 170.54,199.571 171.413,199.571 171.413,199.571 172.285,199.571 172.285,199.571 173.158,199.571 173.158,199.571 174.031,199.571 174.031,199.571 174.903,199.571 174.903,199.571 175.776,199.571 175.776,199.571 176.648,199.571 176.648,199.571 177.521,199.571 177.521,199.571 178.394,199.571 178.394,199.571 179.266,199.571 179.266,199.571 180.139,199.571 180.139,199.571 181.011,199.571 181.011,199.571 181.884,199.571 181.884,199.571 182.756,199.571 182.756,199.571 183.629,199.571 183.629,199.571 184.502,199.571 184.502,199.571 185.374,199.571 185.374,199.571 186.247,199.571 186.247,199.571 187.119,199.571 187.119,199.571 187.992,199.571 187.992,199.571 188.865,199.571 188.865,199.571 189.737,199.571 189.737,199.571 190.61,199.571 190.61,199.571 191.482,199.571 191.482,199.571 192.355,199.571 192.355,199.571 193.227,199.571 193.227,199.571 194.1,199.571 194.1,199.571 194.973,199.571 194.973,199.571 195.845,199.571 195.845,199.571 196.718,199.571 196.718,199.571 197.59,199.571 197.59,199.571 198.463,199.571 198.463,199.571 199.335,199.571 199.335,199.571 200.208,199.571 200.208,199.571 201.081,199.571 201.081,199.571 201.953,199.571 201.953,199.571 202.826,199.571 202.826,199.571 203.698,199.571 203.698,199.571 204.571,199.571 204.571,199.571 205.444,199.571 205.444,199.571 206.316,199.571 206.316,199.571 207.189,199.571 207.189,199.571 208.061,199.571 208.061,199.571 208.934,199.571 208.934,199.571 209.806,199.571 209.806,199.571 210.679,199.571 210.679,199.571 211.552,199.571 211.552,199.571 212.424,199.571 212.424,199.571 213.297,199.571 213.297,199.571 214.169,199.571 214.169,199.571 215.042,199.571 215.042,199.571 215.915,199.571 215.915,199.571 216.787,199.571 216.787,199.571 217.66,199.571 217.66,199.571 218.532,199.571 218.532,199.571 219.405,199.571 219.405,199.571 220.277,199.571 220.277,199.571 221.15,199.571 221.15,199.571 222.023,199.571 222.023,199.571 222.895,199.571 222.895,199.571 223.768,199.571 223.768,199.571 224.64,199.571 224.64,199.571 225.513,199.571 225.513,199.571 226.385,199.571 226.385,274.857 227.258,274.857 227.258,274.857 228.131,274.857 228.131,274.857 229.003,274.857 229.003,274.857 229.876,274.857 229.876,274.857 230.748,274.857 230.748,274.857 231.621,274.857 231.621,274.857 232.494,274.857 232.494,274.857 233.366,274.857 233.366,274.857 234.239,274.857 234.239,274.857 235.111,274.857 235.111,274.857 235.984,274.857 235.984,274.857 236.856,274.857 236.856,274.857 237.729,274.857 237.729,274.857 238.602,274.857 238.602,274.857 239.474,274.857 239.474,274.857 240.347,274.857 240.347,274.857 241.219,274.857 241.219,274.857 242.092,274.857 242.092,274.857 242.965,274.857 242.965,274.857 243.837,274.857 243.837,274.857 244.71,274.857 244.71,274.857 245.582,274.857 245.582,274.857 246.455,274.857 246.455,274.857 247.327,274.857 247.327,274.857 248.2,274.857 248.2,274.857 249.073,274.857 249.073,274.857 249.945,274.857 249.945,274.857 250.818,274.857 250.818,274.857 251.69,274.857 251.69,274.857 252.563,274.857 252.563,274.857 253.436,274.857 253.436,274.857 254.308,274.857 254.308,274.857 255.181,274.857 255.181,274.857 256.053,274.857 256.053,274.857 256.926,274.857 256.926,274.857 257.798,274.857 257.798,274.857 258.671,274.857 258.671,274.857 259.544,274.857 259.544,274.857 260.416,274.857 260.416,274.857 261.289,274.857 261.289,274.857 262.161,274.857 262.161,274.857 263.034,274.857 263.034,274.857 263.906,274.857 263.906,274.857 264.779,274.857 264.779,274.857 265.652,274.857 265.652,274.857 266.524,274.857 266.524,274.857 267.397,274.857 267.397,274.857 268.269,274.857 268.269,274.857 269.142,274.857 269.142,274.857 270.015,274.857 270.015,274.857 270.887,274.857 270.887,274.857 271.76,274.857 271.76,274.857 272.632,274.857 272.632,274.857 273.505,274.857 273.505,274.857 274.377,274.857 274.377,274.857 275.25,274.857 275.25,274.857 276.123,274.857 276.123,274.857 276.995,274.857 276.995,274.857 277.868,274.857 277.868,274.857 278.74,274.857 278.74,274.857 279.613,274.857 279.613,274.857 280.486,274.857 280.486,274.857 281.358,274.857 281.358,274.857 282.231,274.857 282.231,274.857 283.103,274.857 283.103,274.857 283.976,274.857 283.976,274.857 284.848,274.857 284.848,274.857 285.721,274.857 285.721,274.857 286.594,274.857 286.594,274.857 287.466,274.857 287.466,274.857 288.339,274.857 288.339,274.857 289.211,274.857 289.211,274.857 290.084,274.857 290.084,274.857 290.956,274.857 290.956,274.857 291.829,274.857 291.829,274.857 292.702,274.857 292.702,274.857 293.574,274.857 293.574,274.857 294.447,274.857 294.447,274.857 295.319,274.857 295.319,274.857 296.192,274.857 296.192,274.857 297.065,274.857 297.065,274.857 297.937,274.857 297.937,274.857 298.81,274.857 298.81,274.857 299.682,274.857 299.682,274.857 300.555,274.857 300.555,274.857 301.427,274.857 301.427,274.857 302.3,274.857 302.3,274.857 303.173,274.857 303.173,274.857 304.045,274.857 304.045,274.857 304.918,274.857 304.918,274.857 305.79,274.857 305.79,274.857 306.663,274.857 306.663,274.857 307.536,274.857 307.536,274.857 308.408,274.857 308.408,274.857 309.281,274.857 309.281,274.857 310.153,274.857 310.153,274.857 311.026,274.857 311.026,274.857 311.898,274.857 311.898,274.857 312.771,274.857 312.771,274.857 313.644,274.857 313.644,274.857 314.516,274.857 314.516,274.857 315.389,274.857 315.389,274.857 316.261,274.857 316.261,274.857 317.134,274.857 317.134,274.857 318.007,274.857 318.007,274.857 318.879,274.857 318.879,274.857 319.752,274.857 319.752,274.857 320.624,274.857 320.624,274.857 321.497,274.857 321.497,274.857 322.369,274.857 322.369,274.857 323.242,274.857 323.242,274.857 324.115,274.857 324.115,274.857 324.987,274.857 324.987,274.857 325.86,274.857 325.86,274.857 326.732,274.857 326.732,274.857 327.605,274.857 327.605,274.857 328.477,274.857 328.477,274.857 329.35,274.857 329.35,274.857 330.223,274.857 330.223,274.857 331.095,274.857 331.095,274.857 331.968,274.857 331.968,274.857 332.84,274.857 332.84,274.857 333.713,274.857 333.713,274.857 334.586,274.857 334.586,274.857 335.458,274.857 335.458,274.857 336.331,274.857 336.331,274.857 337.203,274.857 337.203,274.857 338.076,274.857 338.076,274.857 338.948,274.857 338.948,274.857 339.821,274.857 339.821,274.857 340.694,274.857 340.694,274.857 341.566,274.857 341.566,274.857 342.439,274.857 342.439,274.857 343.311,274.857 343.311,274.857 344.184,274.857 344.184,274.857 345.056,274.857 345.056,274.857 345.929,274.857 345.929,274.857 346.802,274.857 346.802,274.857 347.674,274.857 347.674,274.857 348.547,274.857 348.547,274.857 349.419,274.857 349.419,274.857 350.292,274.857 350.292,274.857 351.165,274.857 351.165,274.857 352.037,274.857 352.037,274.857 352.91,274.857 352.91,274.857 353.782,274.857 353.782,274.857 354.655,274.857 354.655,274.857 355.527,274.857 355.527,274.857 356.4,274.857 356.4,274.857 357.273,274.857 357.273,124.286 358.145,124.286 358.145,124.286 359.018,124.286 359.018,124.286 359.89,124.286 359.89,124.286 360.763,124.286 360.763,124.286 361.636,124.286 361.636,124.286 362.508,124.286 362.508,124.286 363.381,124.286 363.381,124.286 364.253,124.286 364.253,124.286 365.126,124.286 365.126,124.286 365.998,124.286 365.998,124.286 366.871,124.286 366.871,124.286 367.744,124.286 367.744,124.286 368.616,124.286 368.616,124.286 369.489,124.286 369.489,124.286 370.361,124.286 370.361,124.286 371.234,124.286 371.234,124.286 372.107,124.286 372.107,124.286 372.979,124.286 372.979,124.286 373.852,124.286 373.852,124.286 374.724,124.286 374.724,124.286 375.597,124.286 375.597,124.286 376.469,124.286 376.469,124.286 377.342,124.286 377.342,124.286 378.215,124.286 378.215,124.286 379.087,124.286 379.087,124.286 379.96,124.286 379.96,124.286 380.832,124.286 380.832,124.286 381.705,124.286 381.705,124.286 382.577,124.286 382.577,124.286 383.45,124.286 383.45,124.286 384.323,124.286 384.323,124.286 385.195,124.286 385.195,124.286 386.068,124.286 386.068,124.286 386.94,124.286 386.94,124.286 387.813,124.286 387.813,124.286 388.686,124.286 388.686,124.286 389.558,124.286 389.558,124.286 390.431,124.286 390.431,124.286 391.303,124.286 391.303,124.286 392.176,124.286 392.176,124.286 393.048,124.286 393.048,124.286 393.921,124.286 393.921,124.286 394.794,124.286 394.794,124.286 395.666,124.286 395.666,124.286 396.539,124.286 396.539,124.286 397.411,124.286 397.411,124.286 398.284,124.286 398.284,124.286 399.156,124.286 399.156,124.286 400.029,124.286 400.029,124.286 400.902,124.286 400.902,124.286 401.774,124.286 401.774,124.286 402.647,124.286 402.647,124.286 403.519,124.286 403.519,124.286 404.392,124.286 404.392,124.286 405.265,124.286 405.265,124.286 406.137,124.286 406.137,124.286 407.01,124.286 407.01,124.286 407.882,124.286 407.882,124.286 408.755,124.286 408.755,124.286 409.627,124.286 409.627,124.286 410.5,124.286 410.5,124.286 411.373,124.286 411.373,124.286 412.245,124.286 412.245,124.286 413.118,124.286 413.118,124.286 413.99,124.286 413.99,124.286 414.863,124.286 414.863,124.286 415.736,124.286 415.736,124.286 416.608,124.286 416.608,124.286 417.481,124.286 417.481,124.286 418.353,124.286 418.353,124.286 419.226,124.286 419.226,124.286 420.098,124.286 420.098,124.286 420.971,124.286 420.971,124.286 421.844,124.286 421.844,124.286 422.716,124.286 422.716,124.286 423.589,124.286 423.589,124.286 424.461,124.286 424.461,124.286 425.334,124.286 425.334,124.286 426.207,124.286 426.207,124.286 427.079,124.286 427.079,124.286 427.952,124.286 427.952,124.286 428.824,124.286 428.824,124.286 429.697,124.286 429.697,124.286 430.569,124.286 430.569,124.286 431.442,124.286 431.442,124.286 432.315,124.286 432.315,124.286 433.187,124.286 433.187,124.286 434.06,124.286 434.06,124.286 434.932,124.286 434.932,124.286 435.805,124.286 435.805,124.286 436.677,124.286 436.677,124.286 437.55,124.286 437.55,124.286 438.423,124.286 438.423,124.286 439.295,124.286 439.295,124.286 440.168,124.286 440.168,124.286 441.04,124.286 441.04,124.286 441.913,124.286 441.913,124.286 442.786,124.286 442.786,124.286 443.658,124.286 443.658,124.286 444.531,124.286 444.531,124.286 445.403,124.286 445.403,124.286 446.276,124.286 446.276,124.286 447.148,124.286 447.148,124.286 448.021,124.286 448.021,124.286 448.894,124.286 448.894,124.286 449.766,124.286 449.766,124.286 450.639,124.286 450.639,124.286 451.511,124.286 451.511,124.286 452.384,124.286 452.384,124.286 453.257,124.286 453.257,124.286 454.129,124.286 454.129,124.286 455.002,124.286 455.002,124.286 455.874,124.286 455.874,124.286 456.747,124.286 456.747,124.286 457.619,124.286 457.619,124.286 458.492,124.286 458.492,124.286 459.365,124.286 459.365,124.286 460.237,124.286 460.237,124.286 461.11,124.286 461.11,124.286 461.982,124.286 461.982,124.286 462.855,124.286 462.855,124.286 463.727,124.286 463.727,124.286 464.6,124.286 464.6,124.286 465.473,124.286 465.473,124.286 466.345,124.286 466.345,124.286 467.218,124.286 467.218,124.286 468.09,124.286 468.09,124.286 468.963,124.286 468.963,124.286 469.836,124.286 469.836,124.286 470.708,124.286 470.708,124.286 471.581,124.286 471.581,124.286 472.453,124.286 472.453,124.286 473.326,124.286 473.326,124.286 474.198,124.286 474.198,124.286 475.071,124.286 475.071,124.286 475.944,124.286 475.944,124.286 476.816,124.286 476.816,124.286 477.689,124.286 477.689,124.286 478.561,124.286 478.561,124.286 479.434,124.286 479.434,124.286 480.307,124.286 480.307,124.286 481.179,124.286 481.179,124.286 482.052,124.286 482.052,124.286 482.924,124.286 482.924,124.286 483.797,124.286 483.797,124.286 484.669,124.286 484.669,124.286 485.542,124.286 485.542,124.286 486.415,124.286 486.415,124.286 487.287,124.286 487.287,124.286 488.16,124.286 488.16,124.286 489.032,124.286 489.032,124.286 489.905,124.286 489.905,124.286 490.777,124.286 490.777,124.286 491.65,124.286 491.65,124.286 492.523,124.286 492.523,124.286 493.395,124.286 493.395,124.286 494.268,124.286 494.268,124.286 495.14,124.286 495.14,124.286 496.013,124.286 496.013,124.286 496.886,124.286 496.886,124.286 497.758,124.286 497.758,124.286 498.631,124.286 498.631,124.286 499.503,124.286 499.503,124.286 500.376,124.286 500.376,124.286 501.248,124.286 501.248,124.286 502.121,124.286 502.121,124.286 502.994,124.286 502.994,124.286 503.866,124.286 503.866,124.286 504.739,124.286 504.739,124.286 505.611,124.286 505.611,124.286 506.484,124.286 506.484,124.286 507.357,124.286 507.357,124.286 508.229,124.286 508.229,124.286 509.102,124.286 509.102,124.286 509.974,124.286 509.974,124.286 510.847,124.286 510.847,124.286 511.719,124.286 511.719,124.286 512.592,124.286 512.592,124.286 513.465,124.286 513.465,124.286 514.337,124.286 514.337,124.286 515.21,124.286 515.21,124.286 516.082,124.286 516.082,124.286 516.955,124.286 516.955,124.286 517.828,124.286 517.828,124.286 518.7,124.286 518.7,124.286 519.573,124.286 519.573,124.286 520.445,124.286 520.445,124.286 521.318,124.286 521.318,124.286 522.19,124.286 522.19,124.286 523.063,124.286 523.063,124.286 523.936,124.286 523.936,124.286 524.808,124.286 524.808,124.286 525.681,124.286 525.681,124.286 526.553,124.286 526.553,124.286 527.426,124.286 527.426,124.286 528.298,124.286 528.298,124.286 529.171,124.286 529.171,124.286 530.044,124.286 530.044,124.286 530.916,124.286 530.916,124.286 531.789,124.286 531.789,124.286 532.661,124.286 532.661,124.286 533.534,124.286 533.534,124.286 534.407,124.286 534.407,124.286 535.279,124.286 535.279,124.286 536.152,124.286 536.152,124.286 537.024,124.286 537.024,124.286 537.897,124.286 537.897,124.286 538.769,124.286 538.769,124.286 539.642,124.286 539.642,124.286 540.515,124.286 540.515,124.286 541.387,124.286 541.387,124.286 542.26,124.286 542.26,124.286 543.132,124.286 543.132,124.286 544.005,124.286 544.005,124.286 544.878,124.286 544.878,124.286 545.75,124.286 545.75,124.286 546.623,124.286 546.623,124.286 547.495,124.286 547.495,124.286 548.368,124.286 548.368,124.286 549.24,124.286 549.24,124.286 550.113,124.286 550.113,124.286 550.986,124.286 550.986,124.286 551.858,124.286 551.858,124.286 552.731,124.286 552.731,124.286 553.603,124.286 553.603,124.286 554.476,124.286 554.476,124.286 555.348,124.286 555.348,124.286 556.221,124.286 556.221,124.286 557.094,124.286 557.094,124.286 557.966,124.286 557.966,124.286 558.839,124.286 558.839,124.286 559.711,124.286 559.711,124.286 560.584,124.286 560.584,124.286 561.457,124.286 561.457,124.286 562.329,124.286 562.329,124.286 563.202,124.286 563.202,124.286 564.074,124.286 564.074,124.286 564.947,124.286 564.947,124.286 565.819,124.286 565.819,124.286 566.692,124.286 566.692,124.286 567.565,124.286 567.565,124.286 568.437,124.286 568.437,124.286 569.31,124.286 569.31,124.286 570.182,124.286 570.182,124.286 571.055,124.286 571.055,124.286 571.927,124.286 571.927,124.286 572.8,124.286 572.8,124.286 573.673,124.286 573.673,124.286 574.545,124.286 574.545,124.286 575.418,124.286 575.418,124.286 576.29,124.286 576.29,124.286 577.163,124.286 577.163,124.286 578.036,124.286 578.036,124.286 578.908,124.286 578.908,124.286 579.781,124.286 579.781,124.286 580.653,124.286 580.653,124.286 581.526,124.286 581.526,124.286 582.398,124.286 582.398,124.286 583.271,124.286 583.271,124.286 584.144,124.286 584.144,124.286 585.016,124.286 585.016,124.286 585.889,124.286 585.889,124.286 586.761,124.286 586.761,124.286 587.634,124.286 587.634,124.286 588.507,124.286 588.507,124.286 589.379,124.286 589.379,124.286 590.252,124.286 590.252,124.286 591.124,124.286 591.124,124.286 591.997,124.286 591.997,124.286 592.869,124.286 592.869,124.286 593.742,124.286 593.742,124.286 594.615,124.286 594.615,124.286 595.487,124.286 595.487,124.286 596.36,124.286 596.36,124.286 597.232,124.286 597.232,124.286 598.105,124.286 598.105,124.286 598.978,124.286 598.978,124.286 599.85,124.286 599.85,124.286 600.723,124.286 600.723,124.286 601.595,124.286 601.595,124.286 602.468,124.286 602.468,124.286 603.34,124.286 603.34,124.286 604.213,124.286 604.213,124.286 605.086,124.286 605.086,124.286 605.958,124.286 605.958,124.286 606.831,124.286 606.831,124.286 607.703,124.286 607.703,124.286 608.576,124.286 608.576,124.286 609.448,124.286 609.448,124.286 610.321,124.286 610.321,124.286 611.194,124.286 611.194,124.286 612.066,124.286 612.066,124.286 612.939,124.286 612.939,124.286 613.811,124.286 613.811,124.286 614.684,124.286 614.684,124.286 615.557,124.286 615.557,124.286 616.429,124.286 616.429,124.286 617.302,124.286 617.302,124.286 618.174,124.286 618.174,124.286 619.047,124.286 619.047,124.286 619.919,124.286 619.919,124.286 620.792,124.286 620.792,124.286 621.665,124.286 621.665,124.286 622.537,124.286 622.537,124.286 623.41,124.286 623.41,124.286 624.282,124.286 624.282,124.286 625.155,124.286 625.155,124.286 626.028,124.286 626.028,124.286 626.9,124.286 626.9,124.286 627.773,124.286 627.773,124.286 628.645,124.286 628.645,124.286 629.518,124.286 629.518,124.286 630.39,124.286 630.39,124.286 631.263,124.286 631.263,124.286 632.136,124.286 632.136,124.286 633.008,124.286 633.008,124.286 633.881,124.286 633.881,124.286 634.753,124.286 634.753,124.286 635.626,124.286 635.626,124.286 636.498,124.286 636.498,124.286 637.371,124.286 637.371,124.286 638.244,124.286 638.244,124.286 639.116,124.286 639.116,124.286 639.989,124.286 639.989,124.286 640.861,124.286 640.861,124.286 641.734,124.286 641.734,124.286 642.607,124.286 642.607,124.286 643.479,124.286 643.479,124.286 644.352,124.286 644.352,124.286 645.224,124.286 645.224,124.286 646.097,124.286 646.097,124.286 646.969,124.286 646.969,124.286 647.842,124.286 647.842,124.286 648.715,124.286 648.715,124.286 649.587,124.286 649.587,124.286 650.46,124.286 650.46,124.286 651.332,124.286 651.332,124.286 652.205,124.286 652.205,124.286 653.078,124.286 653.078,124.286 653.95,124.286 653.95,124.286 654.823,124.286 654.823,124.286 655.695,124.286 655.695,124.286 656.568,124.286 656.568,124.286 657.44,124.286 657.44,124.286 658.313,124.286 658.313,124.286 659.186,124.286 659.186,124.286 660.058,124.286 660.058,124.286 660.931,124.286 660.931,124.286 661.803,124.286 661.803,124.286 662.676,124.286 662.676,124.286 663.549,124.286 663.549,124.286 664.421,124.286 664.421,124.286 665.294,124.286 665.294,124.286 666.166,124.286 666.166,124.286 667.039,124.286 667.039,124.286 667.911,124.286 667.911,124.286 668.784,124.286 668.784,124.286 669.657,124.286 669.657,124.286 670.529,124.286 670.529,124.286 671.402,124.286 671.402,124.286 672.274,124.286 672.274,124.286 673.147,124.286 673.147,124.286 674.019,124.286 674.019,124.286 674.892,124.286 674.892,124.286 675.765,124.286 675.765,124.286 676.637,124.286 676.637,124.286 677.51,124.286 677.51,124.286 678.382,124.286 678.382,124.286 679.255,124.286 679.255,124.286 680.128,124.286 680.128,124.286 681,124.286 681,124.286 681.873,124.286 681.873,124.286 682.745,124.286 682.745,124.286 683.618,124.286 683.618,124.286 684.49,124.286 684.49,124.286 685.363,124.286 685.363,124.286 686.236,124.286 686.236,124.286 687.108,124.286 687.108,124.286 687.981,124.286 687.981,124.286 688.853,124.286 688.853,124.286 689.726,124.286 689.726,124.286 690.599,124.286 690.599,124.286 691.471,124.286 691.471,124.286 692.344,124.286 692.344,124.286 693.216,124.286 693.216,124.286 694.089,124.286 694.089,124.286 694.961,124.286 694.961,124.286 695.834,124.286 695.834,124.286 696.707,124.286 696.707,124.286 697.579,124.286 697.579,124.286 698.452,124.286 698.452,124.286 699.324,124.286 699.324,124.286 700.197,124.286 700.197,124.286 701.069,124.286 701.069,124.286 701.942,124.286 701.942,124.286 702.815,124.286 702.815,124.286 703.687,124.286 703.687,124.286 704.56,124.286 704.56,124.286 705.432,124.286 705.432,124.286 706.305,124.286 706.305,124.286 707.178,124.286 707.178,124.286 708.05,124.286 708.05,124.286 708.923,124.286 708.923,124.286 709.795,124.286 709.795,124.286 710.668,124.286 710.668,124.286 711.54,124.286 711.54,124.286 712.413,124.286 712.413,124.286 713.286,124.286 713.286,124.286 714.158,124.286 714.158,124.286 715.031,124.286 715.031,124.286 715.903,124.286 715.903,124.286 716.776,124.286 716.776,124.286 717.648,124.286 717.648,124.286 718.521,124.286 718.521,124.286 719.394,124.286 719.394,124.286 720.266,124.286 720.266,124.286 721.139,124.286 721.139,124.286 722.011,124.286 722.011,124.286 722.884,124.286 722.884,124.286 723.757,124.286 723.757,124.286 724.629,124.286 724.629,124.286 725.502,124.286 725.502,124.286 726.374,124.286 726.374,124.286 727.247,124.286 727.247,124.286 728.12,124.286 728.12,124.286 728.992,124.286 728.992,124.286 729.865,124.286 729.865,124.286 730.737,124.286 730.737,124.286 731.61,124.286 731.61,124.286 732.482,124.286 732.482,124.286 733.355,124.286 733.355,124.286 734.228,124.286 734.228,124.286 735.1,124.286 735.1,124.286 735.973,124.286 735.973,124.286 736.845,124.286 736.845,124.286 737.718,124.286 737.718,124.286 738.59,124.286 738.59,124.286 739.463,124.286 739.463,124.286 740.336,124.286 740.336,124.286 741.208,124.286 741.208,124.286 742.081,124.286 742.081,124.286 742.953,124.286 742.953,124.286 743.826,124.286 743.826,124.286 744.699,124.286 744.699,124.286 745.571,124.286 745.571,124.286 746.444,124.286 746.444,124.286 747.316,124.286 747.316,124.286 748.189,124.286 748.189,124.286 749.061,124.286 749.061,124.286 749.934,124.286 749.934,124.286 750.807,124.286 750.807,124.286 751.679,124.286 751.679,124.286 752.552,124.286 752.552,124.286 753.424,124.286 753.424,124.286 754.297,124.286 754.297,124.286 755.169,124.286 755.169,124.286 756.042,124.286 756.042,124.286 756.915,124.286 756.915,124.286 757.787,124.286 757.787,124.286 758.66,124.286 758.66,124.286 759.532,124.286 759.532,124.286 760.405,124.286 760.405,124.286 761.278,124.286 761.278,124.286 762.15,124.286 762.15,124.286 763.023,124.286 763.023,124.286 763.895,124.286 763.895,124.286 764.768,124.286 764.768,124.286 765.64,124.286 765.64,124.286 766.513,124.286 766.513,124.286 767.386,124.286 767.386,124.286 768.258,124.286 768.258,124.286 769.131,124.286 769.131,124.286 770.003,124.286 770.003,124.286 770.876,124.286 770.876,124.286 771.749,124.286 771.749,124.286 772.621,124.286 772.621,124.286 773.494,124.286 773.494,124.286 774.366,124.286 774.366,124.286 775.239,124.286 775.239,124.286 776.111,124.286 776.111,124.286 776.984,124.286 776.984,124.286 777.857,124.286 777.857,124.286 778.729,124.286 778.729,124.286 779.602,124.286 779.602,124.286 780.474,124.286 780.474,124.286 781.347,124.286 781.347,124.286 782.219,124.286 782.219,124.286 783.092,124.286 783.092,124.286 783.965,124.286 783.965,124.286 784.837,124.286 784.837,124.286 785.71,124.286 785.71,124.286 786.582,124.286 786.582,124.286 787.455,124.286 787.455,124.286 788.328,124.286 788.328,124.286 789.2,124.286 789.2,124.286 790.073,124.286 790.073,124.286 790.945,124.286 790.945,124.286 791.818,124.286 791.818,124.286 792.69,124.286 792.69,124.286 793.563,124.286 793.563,124.286 794.436,124.286 794.436,124.286 795.308,124.286 795.308,124.286 796.181,124.286 796.181,124.286 797.053,124.286 797.053,124.286 797.926,124.286 797.926,124.286 798.799,124.286 798.799,124.286 799.671,124.286 799.671,124.286 800.544,124.286 800.544,124.286 801.416,124.286 801.416,124.286 802.289,124.286 802.289,124.286 803.161,124.286 803.161,124.286 804.034,124.286 804.034,124.286 804.907,124.286 804.907,124.286 805.779,124.286 805.779,124.286 806.652,124.286 806.652,124.286 807.524,124.286 807.524,124.286 808.397,124.286 808.397,124.286 809.27,124.286 809.27,124.286 810.142,124.286 810.142,124.286 811.015,124.286 811.015,124.286 811.887,124.286 811.887,124.286 812.76,124.286 812.76,124.286 813.632,124.286 813.632,124.286 814.505,124.286 814.505,124.286 815.378,124.286 815.378,124.286 816.25,124.286 816.25,124.286 817.123,124.286 817.123,124.286 817.995,124.286 817.995,124.286 818.868,124.286 818.868,124.286 819.74,124.286 819.74,124.286 820.613,124.286 820.613,124.286 821.486,124.286 821.486,124.286 822.358,124.286 822.358,124.286 823.231,124.286 823.231,124.286 824.103,124.286 824.103,124.286 824.976,124.286 824.976,124.286 825.849,124.286 825.849,124.286 826.721,124.286 826.721,124.286 827.594,124.286 827.594,124.286 828.466,124.286 828.466,124.286 829.339,124.286 829.339,124.286 830.211,124.286 830.211,124.286 831.084,124.286 831.084,124.286 831.957,124.286 831.957,124.286 832.829,124.286 832.829,124.286 833.702,124.286 833.702,124.286 834.574,124.286 834.574,124.286 835.447,124.286 835.447,124.286 836.319,124.286 836.319,124.286 837.192,124.286 837.192,124.286 838.065,124.286 838.065,124.286 838.937,124.286 838.937,124.286 839.81,124.286 839.81,124.286 840.682,124.286 840.682,124.286 841.555,124.286 841.555,124.286 842.428,124.286 842.428,124.286 843.3,124.286 843.3,124.286 844.173,124.286 844.173,124.286 845.045,124.286 845.045,124.286 845.918,124.286 845.918,124.286 846.791,124.286 846.791,124.286 847.663,124.286 847.663,124.286 848.536,124.286 848.536,124.286 849.408,124.286 849.408,124.286 850.281,124.286 850.281,124.286 851.153,124.286 851.153,124.286 852.026,124.286 852.026,124.286 852.899,124.286 852.899,124.286 853.771,124.286 853.771,124.286 854.644,124.286 854.644,124.286 855.516,124.286 855.516,124.286 856.389,124.286 856.389,124.286 857.261,124.286 857.261,124.286 858.134,124.286 858.134,124.286 859.007,124.286 859.007,124.286 859.879,124.286 859.879,124.286 860.752,124.286 860.752,124.286 861.624,124.286 861.624,124.286 862.497,124.286 862.497,124.286 863.369,124.286 863.369,124.286 864.242,124.286 864.242,124.286 865.115,124.286 865.115,124.286 865.987,124.286 865.987,124.286 866.86,124.286 866.86,124.286 867.732,124.286 867.732,124.286 868.605,124.286 868.605,124.286 869.478,124.286 869.478,124.286 870.35,124.286 870.35,124.286 871.223,124.286 871.223,124.286 872.095,124.286 872.095,124.286 872.968,124.286 872.968,124.286 873.84,124.286 873.84,124.286 874.713,124.286 874.713,124.286 875.586,124.286 875.586,124.286 876.458,124.286 876.458,124.286 877.331,124.286 877.331,124.286 878.203,124.286 878.203,124.286 879.076,124.286 879.076,124.286 879.948,124.286 879.948,124.286 880.821,124.286 880.821,124.286 881.694,124.286 881.694,124.286 882.566,124.286 882.566,124.286 883.439,124.286 883.439,124.286 884.311,124.286 884.311,124.286 885.184,124.286 885.184,124.286 886.057,124.286 886.057,124.286 886.929,124.286 886.929,124.286 887.802,124.286 887.802,124.286 888.674,124.286 888.674,124.286 889.547,124.286 889.547,124.286 890.42,124.286 890.42,124.286 891.292,124.286 891.292,124.286 892.165,124.286 892.165,124.286 893.037,124.286 893.037,124.286 893.91,124.286 893.91,124.286 894.782,124.286 894.782,124.286 895.655,124.286 895.655,124.286 896.528,124.286 896.528,124.286 897.4,124.286 897.4,124.286 898.273,124.286 898.273,124.286 899.145,124.286 899.145,124.286 900.018,124.286 900.018,124.286 900.89,124.286 900.89,124.286 901.763,124.286 901.763,124.286 902.636,124.286 902.636,124.286 903.508,124.286 903.508,124.286 904.381,124.286 904.381,124.286 905.253,124.286 905.253,124.286 906.126,124.286 906.126,124.286 906.999,124.286 906.999,124.286 907.871,124.286 907.871,124.286 908.744,124.286 908.744,124.286 909.616,124.286 909.616,124.286 910.489,124.286 910.489,124.286 911.361,124.286 911.361,124.286 912.234,124.286 912.234,124.286 913.107,124.286 913.107,124.286 913.979,124.286 913.979,124.286 914.852,124.286 914.852,124.286 915.724,124.286 915.724,124.286 916.597,124.286 916.597,124.286 917.469,124.286 917.469,124.286 918.342,124.286 918.342,124.286 919.215,124.286 919.215,124.286 920.087,124.286 920.087,124.286 920.96,124.286 920.96,124.286 921.832,124.286 921.832,124.286 922.705,124.286 922.705,124.286 923.578,124.286 923.578,124.286 924.45,124.286 924.45,124.286 925.323,124.286 925.323,124.286 926.195,124.286 926.195,124.286 927.068,124.286 927.068,124.286 927.941,124.286 927.941,124.286 928.813,124.286 928.813,124.286 929.686,124.286 929.686,124.286 930.558,124.286 930.558,124.286 931.431,124.286 931.431,124.286 932.303,124.286 932.303,124.286 933.176,124.286 933.176,124.286 934.049,124.286 934.049,124.286 934.921,124.286 934.921,124.286 935.794,124.286 935.794,124.286 936.666,124.286 936.666,124.286 937.539,124.286 937.539,124.286 938.411,124.286 938.411,124.286 939.284,124.286 939.284,124.286 940.157,124.286 940.157,124.286 941.029,124.286 941.029,124.286 941.902,124.286 941.902,124.286 942.774,124.286 942.774,124.286 943.647,124.286 943.647,124.286 944.519,124.286 944.519,124.286 945.392,124.286 945.392,124.286 946.265,124.286 946.265,124.286 947.137,124.286 947.137,124.286 948.01,124.286 948.01,124.286 948.882,124.286 948.882,124.286 949.755,124.286 949.755,124.286 950.628,124.286 950.628,124.286 951.5,124.286 951.5,124.286 952.373,124.286 952.373,124.286 953.245,124.286 953.245,124.286 954.118,124.286 954.118,124.286 954.99,124.286 954.99,124.286 955.863,124.286 955.863,124.286 956.736,124.286 956.736,124.286 957.608,124.286 957.608,124.286 958.481,124.286 958.481,124.286 959.353,124.286 959.353,124.286 960.226,124.286 960.226,124.286 961.099,124.286 961.099,124.286 961.971,124.286 961.971,124.286 962.844,124.286 962.844,124.286 963.716,124.286 963.716,124.286 964.589,124.286 964.589,124.286 965.461,124.286 965.461,124.286 966.334,124.286 966.334,124.286 967.207,124.286 967.207,124.286 968.079,124.286 968.079,124.286 968.952,124.286 968.952,124.286 969.824,124.286 969.824,124.286 970.697,124.286 970.697,124.286 971.57,124.286 971.57,124.286 " />
</g>

<g fill="#ffffff" fill-opacity="1" stroke="none" transform="matrix(7.5e-05,0,0,7.5e-05,0,0)"
font-family="Helvetica" font-size="14" font-weight="700" font-style="normal" 
>
<path vector-effect="none" fill-rule="evenodd" d="M8.54e+06,600000 L8.54e+06,920000 L9.61e+06,920000 L9.61e+06,600000 L8.54e+06,600000"/>
</g>

<g fill="#0000ff" fill-opacity="1" stroke="#0000ff" stroke-opacity="1" stroke-width="0.666667" stroke-linecap="butt" stroke-linejoin="round" transform="matrix(0.75,0,0,0.75,0,0)"
font-family="Helvetica" font-size="14" font-weight="700" font-style="normal" 
>
<polyline fill="none" vector-effect="none" points="858,68.8615 898,68.8615 " />
</g>

<g fill="#ff0000" fill-opacity="1" stroke="#ff0000" stroke-opacity="1" stroke-dasharray="10,6" stroke-dashoffset="0" stroke-width="0.666667" stroke-linecap="butt" stroke-linejoin="round" transform="matrix(0.75,0,0,0.75,0,0)"
font-family="Helvetica" font-size="14" font-weight="700" font-style="normal" 
>
<polyline fill="none" vector-effect="none" points="858,83.1385 898,83.1385 " />
</g>

<g fill="#212121" fill-opacity="1" stroke="#212121" stroke-opacity="1" stroke-width="1" stroke-linecap="square" stroke-linejoin="bevel" transform="matrix(0.75,0,0,0.75,675.75,54.6462)"
font-family="Helvetica" font-size="12" font-weight="400" font-style="normal" 
>
<text fill="#212121" fill-opacity="1" stroke="none" xml:space="preserve" x="0" y="0" font-family="Helvetica" font-size="12" font-weight="400" font-style="normal" 
 >Output</text>
</g>

<g fill="#212121" fill-opacity="1" stroke="#212121" stroke-opacity="1" stroke-width="1" stroke-linecap="square" stroke-linejoin="bevel" transform="matrix(0.75,0,0,0.75,675.75,65.3538)"
font-family="Helvetica" font-size="12" font-weight="400" font-style="normal" 
>
<text fill="#212121" fill-opacity="1" stroke="none" xml:space="preserve" x="0" y="0" font-family="Helvetica" font-size="12" font-weight="400" font-style="normal" 
 >Reference</text>
</g>

<g fill="none" stroke="#212121" stroke-opacity="1" stroke-width="0.666667" stroke-linecap="butt" stroke-linejoin="miter" stroke-miterlimit="2" transform="matrix(0.75,0,0,0.75,0,0)"
font-family="Helvetica" font-size="12" font-weight="400" font-style="normal" 
>
<path vector-effect="none" fill-rule="evenodd" d="M854,92 L854,60 L961,60 L961,92 L854,92"/>
</g>
</g>
</svg>
