<?xml version="1.0" encoding="UTF-8" standalone="no"?>
<svg width="284.339mm" height="171.45mm"
 viewBox="0 0 806 486"
 xmlns="http://www.w3.org/2000/svg" xmlns:xlink="http://www.w3.org/1999/xlink"  version="1.2" baseProfile="tiny">
<title>Qt SVG Document</title>
<desc>MATLAB, The MathWorks, Inc. Version 25.2.0.2998904 R2025b</desc>
<defs>
</defs>
<g fill="none" stroke="black" stroke-width="1" fill-rule="evenodd" stroke-linecap="square" stroke-linejoin="bevel" >

<g fill="#ffffff" fill-opacity="1" stroke="none" transform="matrix(0.75,0,0,0.75,0,0)"
font-family="MS Shell Dlg 2" font-size="8.25" font-weight="400" font-style="normal" 
>
<path vector-effect="none" fill-rule="evenodd" d="M0,0 L1075,0 L1075,648 L0,648 L0,0"/>
</g>

<g fill="#ffffff" fill-opacity="1" stroke="none" transform="matrix(7.5e-05,0,0,7.5e-05,0,0)"
font-family="MS Shell Dlg 2" font-size="8.25" font-weight="400" font-style="normal" 
>
<path vector-effect="none" fill-rule="evenodd" d="M1.4e+06,490000 L1.4e+06,5.76e+06 L9.72e+06,5.76e+06 L9.72e+06,490000 L1.4e+06,490000"/>
</g>

<g fill="#212121" fill-opacity="0.14902" stroke="#212121" stroke-opacity="0.14902" stroke-width="0.666667" stroke-linecap="butt" stroke-linejoin="round" transform="matrix(0.75,0,0,0.75,0,0)"
font-family="MS Shell Dlg 2" font-size="8.25" font-weight="400" font-style="normal" 
>
<polyline fill="none" vector-effect="none" points="140,49 140,576 " />
<polyline fill="none" vector-effect="none" points="223.2,49 223.2,576 " />
<polyline fill="none" vector-effect="none" points="306.4,49 306.4,576 " />
<polyline fill="none" vector-effect="none" points="389.6,49 389.6,576 " />
<polyline fill="none" vector-effect="none" points="472.8,49 472.8,576 " />
<polyline fill="none" vector-effect="none" points="556,49 556,576 " />
<polyline fill="none" vector-effect="none" points="639.2,49 639.2,576 " />
<polyline fill="none" vector-effect="none" points="722.4,49 722.4,576 " />
<polyline fill="none" vector-effect="none" points="805.6,49 805.6,576 " />
<polyline fill="none" vector-effect="none" points="888.8,49 888.8,576 " />
<polyline fill="none" vector-effect="none" points="972,49 972,576 " />
<polyline fill="none" vector-effect="none" points="140,576 972,576 " />
<polyline fill="none" vector-effect="none" points="140,470.6 972,470.6 " />
<polyline fill="none" vector-effect="none" points="140,365.2 972,365.2 " />
<polyline fill="none" vector-effect="none" points="140,259.8 972,259.8 " />
<polyline fill="none" vector-effect="none" points="140,154.4 972,154.4 " />
<polyline fill="none" vector-effect="none" points="140,49 972,49 " />
</g>

<g fill="#212121" fill-opacity="1" stroke="#212121" stroke-opacity="1" stroke-width="1" stroke-linecap="square" stroke-linejoin="bevel" transform="matrix(0.75,0,0,0.75,390.375,458)"
font-family="Helvetica" font-size="14" font-weight="400" font-style="normal" 
>
<text fill="#212121" fill-opacity="1" stroke="none" xml:space="preserve" x="0" y="0" font-family="Helvetica" font-size="14" font-weight="400" font-style="normal" 
 >Generation</text>
</g>

<g fill="#212121" fill-opacity="1" stroke="#212121" stroke-opacity="1" stroke-width="0.666667" stroke-linecap="square" stroke-linejoin="round" transform="matrix(0.75,0,0,0.75,0,0)"
font-family="Helvetica" font-size="14" font-weight="400" font-style="normal" 
>
<polyline fill="none" vector-effect="none" points="140,576 972,576 " />
<polyline fill="none" vector-effect="none" points="140,49 972,49 " />
<polyline fill="none" vector-effect="none" points="140,576 140,567.663 " />
<polyline fill="none" vector-effect="none" points="140,57.3373 140,49 " />
<polyline fill="none" vector-effect="none" points="223.2,576 223.2,567.663 " />
<polyline fill="none" vector-effect="none" points="223.2,57.3373 223.2,49 " />
<polyline fill="none" vector-effect="none" points="306.4,576 306.4,567.663 " />
<polyline fill="none" vector-effect="none" points="306.4,57.3373 306.4,49 " />
<polyline fill="none" vector-effect="none" points="389.6,576 389.6,567.663 " />
<polyline fill="none" vector-effect="none" points="389.6,57.3373 389.6,49 " />
<polyline fill="none" vector-effect="none" points="472.8,576 472.8,567.663 " />
<polyline fill="none" vector-effect="none" points="472.8,57.3373 472.8,49 " />
<polyline fill="none" vector-effect="none" points="556,576 556,567.663 " />
<polyline fill="none" vector-effect="none" points="556,57.3373 556,49 " />
<polyline fill="none" vector-effect="none" points="639.2,576 639.2,567.663 " />
<polyline fill="none" vector-effect="none" points="639.2,57.3373 639.2,49 " />
<polyline fill="none" vector-effect="none" points="722.4,576 722.4,567.663 " />
<polyline fill="none" vector-effect="none" points="722.4,57.3373 722.4,49 " />
<polyline fill="none" vector-effect="none" points="805.6,576 805.6,567.663 " />
<polyline fill="none" vector-effect="none" points="805.6,57.3373 805.6,49 " />
<polyline fill="none" vector-effect="none" points="888.8,576 888.8,567.663 " />
<polyline fill="none" vector-effect="none" points="888.8,57.3373 888.8,49 " />
<polyline fill="none" vector-effect="none" points="972,576 972,567.663 " />
<polyline fill="none" vector-effect="none" points="972,57.3373 972,49 " />
</g>

<g fill="#212121" fill-opacity="1" stroke="#212121" stroke-opacity="1" stroke-width="1" stroke-linecap="square" stroke-linejoin="bevel" transform="matrix(0.75,0,0,0.75,102.375,445.014)"
font-family="Helvetica" font-size="13" font-weight="400" font-style="normal" 
>
<text fill="#212121" fill-opacity="1" stroke="none" xml:space="preserve" x="0" y="0" font-family="Helvetica" font-size="13" font-weight="400" font-style="normal" 
 >0</text>
</g>

<g fill="#212121" fill-opacity="1" stroke="#212121" stroke-opacity="1" stroke-width="1" stroke-linecap="square" stroke-linejoin="bevel" transform="matrix(0.75,0,0,0.75,164.775,445.014)"
font-family="Helvetica" font-size="13" font-weight="400" font-style="normal" 
>
<text fill="#212121" fill-opacity="1" stroke="none" xml:space="preserve" x="0" y="0" font-family="Helvetica" font-size="13" font-weight="400" font-style="normal" 
 >5</text>
</g>

<g fill="#212121" fill-opacity="1" stroke="#212121" stroke-opacity="1" stroke-width="1" stroke-linecap="square" stroke-linejoin="bevel" transform="matrix(0.75,0,0,0.75,224.55,445.014)"
font-family="Helvetica" font-size="13" font-weight="400" font-style="normal" 
>
<text fill="#212121" fill-opacity="1" stroke="none" xml:space="preserve" x="0" y="0" font-family="Helvetica" font-size="13" font-weight="400" font-style="normal" 
 >10</text>
</g>

<g fill="#212121" fill-opacity="1" stroke="#212121" stroke-opacity="1" stroke-width="1" stroke-linecap="square" stroke-linejoin="bevel" transform="matrix(0.75,0,0,0.75,286.95,445.014)"
font-family="Helvetica" font-size="13" font-weight="400" font-style="normal" 
>
<text fill="#212121" fill-opacity="1" stroke="none" xml:space="preserve" x="0" y="0" font-family="Helvetica" font-size="13" font-weight="400" font-style="normal" 
 >15</text>
</g>

<g fill="#212121" fill-opacity="1" stroke="#212121" stroke-opacity="1" stroke-width="1" stroke-linecap="square" stroke-linejoin="bevel" transform="matrix(0.75,0,0,0.75,349.35,445.014)"
font-family="Helvetica" font-size="13" font-weight="400" font-style="normal" 
>
<text fill="#212121" fill-opacity="1" stroke="none" xml:space="preserve" x="0" y="0" font-family="Helvetica" font-size="13" font-weight="400" font-style="normal" 
 >20</text>
</g>

<g fill="#212121" fill-opacity="1" stroke="#212121" stroke-opacity="1" stroke-width="1" stroke-linecap="square" stroke-linejoin="bevel" transform="matrix(0.75,0,0,0.75,411.75,445.014)"
font-family="Helvetica" font-size="13" font-weight="400" font-style="normal" 
>
<text fill="#212121" fill-opacity="1" stroke="none" xml:space="preserve" x="0" y="0" font-family="Helvetica" font-size="13" font-weight="400" font-style="normal" 
 >25</text>
</g>

<g fill="#212121" fill-opacity="1" stroke="#212121" stroke-opacity="1" stroke-width="1" stroke-linecap="square" stroke-linejoin="bevel" transform="matrix(0.75,0,0,0.75,474.15,445.014)"
font-family="Helvetica" font-size="13" font-weight="400" font-style="normal" 
>
<text fill="#212121" fill-opacity="1" stroke="none" xml:space="preserve" x="0" y="0" font-family="Helvetica" font-size="13" font-weight="400" font-style="normal" 
 >30</text>
</g>

<g fill="#212121" fill-opacity="1" stroke="#212121" stroke-opacity="1" stroke-width="1" stroke-linecap="square" stroke-linejoin="bevel" transform="matrix(0.75,0,0,0.75,536.55,445.014)"
font-family="Helvetica" font-size="13" font-weight="400" font-style="normal" 
>
<text fill="#212121" fill-opacity="1" stroke="none" xml:space="preserve" x="0" y="0" font-family="Helvetica" font-size="13" font-weight="400" font-style="normal" 
 >35</text>
</g>

<g fill="#212121" fill-opacity="1" stroke="#212121" stroke-opacity="1" stroke-width="1" stroke-linecap="square" stroke-linejoin="bevel" transform="matrix(0.75,0,0,0.75,598.95,445.014)"
font-family="Helvetica" font-size="13" font-weight="400" font-style="normal" 
>
<text fill="#212121" fill-opacity="1" stroke="none" xml:space="preserve" x="0" y="0" font-family="Helvetica" font-size="13" font-weight="400" font-style="normal" 
 >40</text>
</g>

<g fill="#212121" fill-opacity="1" stroke="#212121" stroke-opacity="1" stroke-width="1" stroke-linecap="square" stroke-linejoin="bevel" transform="matrix(0.75,0,0,0.75,661.35,445.014)"
font-family="Helvetica" font-size="13" font-weight="400" font-style="normal" 
>
<text fill="#212121" fill-opacity="1" stroke="none" xml:space="preserve" x="0" y="0" font-family="Helvetica" font-size="13" font-weight="400" font-style="normal" 
 >45</text>
</g>

<g fill="#212121" fill-opacity="1" stroke="#212121" stroke-opacity="1" stroke-width="1" stroke-linecap="square" stroke-linejoin="bevel" transform="matrix(0.75,0,0,0.75,723.75,445.014)"
font-family="Helvetica" font-size="13" font-weight="400" font-style="normal" 
>
<text fill="#212121" fill-opacity="1" stroke="none" xml:space="preserve" x="0" y="0" font-family="Helvetica" font-size="13" font-weight="400" font-style="normal" 
 >50</text>
</g>

<g fill="#212121" fill-opacity="1" stroke="#212121" stroke-opacity="1" stroke-width="1" stroke-linecap="square" stroke-linejoin="bevel" transform="matrix(0,-0.75,0.75,0,65,251.625)"
font-family="Helvetica" font-size="14" font-weight="400" font-style="normal" 
>
<text fill="#212121" fill-opacity="1" stroke="none" xml:space="preserve" x="0" y="0" font-family="Helvetica" font-size="14" font-weight="400" font-style="normal" 
 >Fitness</text>
</g>

<g fill="#212121" fill-opacity="1" stroke="#212121" stroke-opacity="1" stroke-width="0.666667" stroke-linecap="square" stroke-linejoin="round" transform="matrix(0.75,0,0,0.75,0,0)"
font-family="Helvetica" font-size="14" font-weight="400" font-style="normal" 
>
<polyline fill="none" vector-effect="none" points="140,576 140,49 " />
<polyline fill="none" vector-effect="none" points="972,576 972,49 " />
<polyline fill="none" vector-effect="none" points="140,576 148.32,576 " />
<polyline fill="none" vector-effect="none" points="963.68,576 972,576 " />
<polyline fill="none" vector-effect="none" points="140,470.6 148.32,470.6 " />
<polyline fill="none" vector-effect="none" points="963.68,470.6 972,470.6 " />
<polyline fill="none" vector-effect="none" points="140,365.2 148.32,365.2 " />
<polyline fill="none" vector-effect="none" points="963.68,365.2 972,365.2 " />
<polyline fill="none" vector-effect="none" points="140,259.8 148.32,259.8 " />
<polyline fill="none" vector-effect="none" points="963.68,259.8 972,259.8 " />
<polyline fill="none" vector-effect="none" points="140,154.4 148.32,154.4 " />
<polyline fill="none" vector-effect="none" points="963.68,154.4 972,154.4 " />
<polyline fill="none" vector-effect="none" points="140,49 148.32,49 " />
<polyline fill="none" vector-effect="none" points="963.68,49 972,49 " />
</g>

<g fill="#212121" fill-opacity="1" stroke="#212121" stroke-opacity="1" stroke-width="1" stroke-linecap="square" stroke-linejoin="bevel" transform="matrix(0.75,0,0,0.75,80,435.375)"
font-family="Helvetica" font-size="13" font-weight="400" font-style="normal" 
>
<text fill="#212121" fill-opacity="1" stroke="none" xml:space="preserve" x="0" y="0" font-family="Helvetica" font-size="13" font-weight="400" font-style="normal" 
 >3043</text>
</g>

<g fill="#212121" fill-opacity="1" stroke="#212121" stroke-opacity="1" stroke-width="1" stroke-linecap="square" stroke-linejoin="bevel" transform="matrix(0.75,0,0,0.75,71.75,356.325)"
font-family="Helvetica" font-size="13" font-weight="400" font-style="normal" 
>
<text fill="#212121" fill-opacity="1" stroke="none" xml:space="preserve" x="0" y="0" font-family="Helvetica" font-size="13" font-weight="400" font-style="normal" 
 >3043.5</text>
</g>

<g fill="#212121" fill-opacity="1" stroke="#212121" stroke-opacity="1" stroke-width="1" stroke-linecap="square" stroke-linejoin="bevel" transform="matrix(0.75,0,0,0.75,80,277.275)"
font-family="Helvetica" font-size="13" font-weight="400" font-style="normal" 
>
<text fill="#212121" fill-opacity="1" stroke="none" xml:space="preserve" x="0" y="0" font-family="Helvetica" font-size="13" font-weight="400" font-style="normal" 
 >3044</text>
</g>

<g fill="#212121" fill-opacity="1" stroke="#212121" stroke-opacity="1" stroke-width="1" stroke-linecap="square" stroke-linejoin="bevel" transform="matrix(0.75,0,0,0.75,71.75,198.225)"
font-family="Helvetica" font-size="13" font-weight="400" font-style="normal" 
>
<text fill="#212121" fill-opacity="1" stroke="none" xml:space="preserve" x="0" y="0" font-family="Helvetica" font-size="13" font-weight="400" font-style="normal" 
 >3044.5</text>
</g>

<g fill="#212121" fill-opacity="1" stroke="#212121" stroke-opacity="1" stroke-width="1" stroke-linecap="square" stroke-linejoin="bevel" transform="matrix(0.75,0,0,0.75,80,119.175)"
font-family="Helvetica" font-size="13" font-weight="400" font-style="normal" 
>
<text fill="#212121" fill-opacity="1" stroke="none" xml:space="preserve" x="0" y="0" font-family="Helvetica" font-size="13" font-weight="400" font-style="normal" 
 >3045</text>
</g>

<g fill="#212121" fill-opacity="1" stroke="#212121" stroke-opacity="1" stroke-width="1" stroke-linecap="square" stroke-linejoin="bevel" transform="matrix(0.75,0,0,0.75,71.75,40.125)"
font-family="Helvetica" font-size="13" font-weight="400" font-style="normal" 
>
<text fill="#212121" fill-opacity="1" stroke="none" xml:space="preserve" x="0" y="0" font-family="Helvetica" font-size="13" font-weight="400" font-style="normal" 
 >3045.5</text>
</g>

<g fill="#212121" fill-opacity="1" stroke="#212121" stroke-opacity="1" stroke-width="1" stroke-linecap="square" stroke-linejoin="bevel" transform="matrix(0.75,0,0,0.75,344.25,32.4543)"
font-family="Helvetica" font-size="14" font-weight="700" font-style="normal" 
>
<text fill="#212121" fill-opacity="1" stroke="none" xml:space="preserve" x="0" y="0" font-family="Helvetica" font-size="14" font-weight="700" font-style="normal" 
 >Evolution of PID Controller</text>
</g>

<g fill="none" stroke="#1171be" stroke-opacity="1" stroke-width="0.666667" stroke-linecap="butt" stroke-linejoin="miter" stroke-miterlimit="2" transform="matrix(0.75,0,0,0.75,0,0)"
font-family="Helvetica" font-size="14" font-weight="700" font-style="normal" 
>
<polyline fill="none" vector-effect="none" points="189.92,364.943 206.56,364.943 206.56,364.943 223.2,364.943 223.2,364.943 239.84,364.943 239.84,364.943 256.48,364.943 256.48,364.943 273.12,364.943 273.12,364.943 289.76,364.943 289.76,364.943 306.4,364.943 306.4,364.943 323.04,364.943 323.04,364.943 339.68,364.943 339.68,364.943 356.32,364.943 356.32,364.943 372.96,364.943 372.96,364.943 389.6,364.943 389.6,364.943 406.24,364.943 406.24,364.943 422.88,364.943 422.88,364.943 439.52,364.943 439.52,364.943 456.16,364.943 456.16,364.943 472.8,364.943 472.8,364.943 489.44,364.943 489.44,364.943 506.08,364.943 506.08,364.943 522.72,364.943 522.72,364.943 539.36,364.943 539.36,364.943 556,364.943 556,364.943 572.64,364.943 572.64,364.943 589.28,364.943 589.28,364.943 605.92,364.943 605.92,364.943 622.56,364.943 622.56,364.943 639.2,364.943 639.2,364.943 655.84,364.943 655.84,364.943 672.48,364.943 672.48,364.943 689.12,364.943 689.12,364.943 705.76,364.943 705.76,364.943 722.4,364.943 722.4,364.943 739.04,364.943 739.04,364.943 755.68,364.943 755.68,364.943 772.32,364.943 772.32,364.943 788.96,364.943 788.96,364.943 805.6,364.943 805.6,364.943 822.24,364.943 822.24,364.943 838.88,364.943 838.88,364.943 855.52,364.943 855.52,364.943 872.16,364.943 872.16,364.943 888.8,364.943 888.8,364.943 905.44,364.943 905.44,364.943 922.08,364.943 922.08,364.943 938.72,364.943 938.72,364.943 955.36,364.943 955.36,364.943 972,364.943 972,364.943 " />
</g>
</g>
</svg>
