<?xml version="1.0" encoding="UTF-8" standalone="no"?>
<svg width="677.333mm" height="324.556mm"
 viewBox="0 0 1920 920"
 xmlns="http://www.w3.org/2000/svg" xmlns:xlink="http://www.w3.org/1999/xlink"  version="1.2" baseProfile="tiny">
<title>Qt SVG Document</title>
<desc>MATLAB, The MathWorks, Inc. Version 25.2.0.2998904 R2025b</desc>
<defs>
</defs>
<g fill="none" stroke="black" stroke-width="1" fill-rule="evenodd" stroke-linecap="square" stroke-linejoin="bevel" >

<g fill="#ffffff" fill-opacity="1" stroke="none" transform="matrix(0.75,0,0,0.75,0,0)"
font-family="MS Shell Dlg 2" font-size="8.25" font-weight="400" font-style="normal" 
>
<path vector-effect="none" fill-rule="evenodd" d="M0,0 L2561,0 L2561,1227 L0,1227 L0,0"/>
</g>

<g fill="#ffffff" fill-opacity="1" stroke="none" transform="matrix(7.5e-05,0,0,7.5e-05,0,0)"
font-family="MS Shell Dlg 2" font-size="8.25" font-weight="400" font-style="normal" 
>
<path vector-effect="none" fill-rule="evenodd" d="M3.33e+06,920000 L3.33e+06,1.091e+07 L2.317e+07,1.091e+07 L2.317e+07,920000 L3.33e+06,920000"/>
</g>

<g fill="#212121" fill-opacity="0.14902" stroke="#212121" stroke-opacity="0.14902" stroke-dasharray="1,3" stroke-dashoffset="0" stroke-width="0.666667" stroke-linecap="butt" stroke-linejoin="round" transform="matrix(0.75,0,0,0.75,0,0)"
font-family="MS Shell Dlg 2" font-size="8.25" font-weight="400" font-style="normal" 
>
<polyline fill="none" vector-effect="none" points="333,92 333,1091 " />
<polyline fill="none" vector-effect="none" points="399.133,92 399.133,1091 " />
<polyline fill="none" vector-effect="none" points="465.267,92 465.267,1091 " />
<polyline fill="none" vector-effect="none" points="531.4,92 531.4,1091 " />
<polyline fill="none" vector-effect="none" points="597.533,92 597.533,1091 " />
<polyline fill="none" vector-effect="none" points="663.667,92 663.667,1091 " />
<polyline fill="none" vector-effect="none" points="729.8,92 729.8,1091 " />
<polyline fill="none" vector-effect="none" points="795.933,92 795.933,1091 " />
<polyline fill="none" vector-effect="none" points="862.067,92 862.067,1091 " />
<polyline fill="none" vector-effect="none" points="928.2,92 928.2,1091 " />
<polyline fill="none" vector-effect="none" points="994.333,92 994.333,1091 " />
<polyline fill="none" vector-effect="none" points="1060.47,92 1060.47,1091 " />
<polyline fill="none" vector-effect="none" points="1126.6,92 1126.6,1091 " />
<polyline fill="none" vector-effect="none" points="1192.73,92 1192.73,1091 " />
<polyline fill="none" vector-effect="none" points="1258.87,92 1258.87,1091 " />
<polyline fill="none" vector-effect="none" points="1325,92 1325,1091 " />
<polyline fill="none" vector-effect="none" points="1391.13,92 1391.13,1091 " />
<polyline fill="none" vector-effect="none" points="1457.27,92 1457.27,1091 " />
<polyline fill="none" vector-effect="none" points="1523.4,92 1523.4,1091 " />
<polyline fill="none" vector-effect="none" points="1589.53,92 1589.53,1091 " />
<polyline fill="none" vector-effect="none" points="1655.67,92 1655.67,1091 " />
<polyline fill="none" vector-effect="none" points="1721.8,92 1721.8,1091 " />
<polyline fill="none" vector-effect="none" points="1787.93,92 1787.93,1091 " />
<polyline fill="none" vector-effect="none" points="1854.07,92 1854.07,1091 " />
<polyline fill="none" vector-effect="none" points="1920.2,92 1920.2,1091 " />
<polyline fill="none" vector-effect="none" points="1986.33,92 1986.33,1091 " />
<polyline fill="none" vector-effect="none" points="2052.47,92 2052.47,1091 " />
<polyline fill="none" vector-effect="none" points="2118.6,92 2118.6,1091 " />
<polyline fill="none" vector-effect="none" points="2184.73,92 2184.73,1091 " />
<polyline fill="none" vector-effect="none" points="2250.87,92 2250.87,1091 " />
<polyline fill="none" vector-effect="none" points="2317,92 2317,1091 " />
<polyline fill="none" vector-effect="none" points="333,1091 2317,1091 " />
<polyline fill="none" vector-effect="none" points="333,1057.7 2317,1057.7 " />
<polyline fill="none" vector-effect="none" points="333,1024.4 2317,1024.4 " />
<polyline fill="none" vector-effect="none" points="333,991.1 2317,991.1 " />
<polyline fill="none" vector-effect="none" points="333,957.8 2317,957.8 " />
<polyline fill="none" vector-effect="none" points="333,924.5 2317,924.5 " />
<polyline fill="none" vector-effect="none" points="333,891.2 2317,891.2 " />
<polyline fill="none" vector-effect="none" points="333,857.9 2317,857.9 " />
<polyline fill="none" vector-effect="none" points="333,824.6 2317,824.6 " />
<polyline fill="none" vector-effect="none" points="333,791.3 2317,791.3 " />
<polyline fill="none" vector-effect="none" points="333,758 2317,758 " />
<polyline fill="none" vector-effect="none" points="333,724.7 2317,724.7 " />
<polyline fill="none" vector-effect="none" points="333,691.4 2317,691.4 " />
<polyline fill="none" vector-effect="none" points="333,658.1 2317,658.1 " />
<polyline fill="none" vector-effect="none" points="333,624.8 2317,624.8 " />
<polyline fill="none" vector-effect="none" points="333,591.5 2317,591.5 " />
<polyline fill="none" vector-effect="none" points="333,558.2 2317,558.2 " />
<polyline fill="none" vector-effect="none" points="333,524.9 2317,524.9 " />
<polyline fill="none" vector-effect="none" points="333,491.6 2317,491.6 " />
<polyline fill="none" vector-effect="none" points="333,458.3 2317,458.3 " />
<polyline fill="none" vector-effect="none" points="333,425 2317,425 " />
<polyline fill="none" vector-effect="none" points="333,391.7 2317,391.7 " />
<polyline fill="none" vector-effect="none" points="333,358.4 2317,358.4 " />
<polyline fill="none" vector-effect="none" points="333,325.1 2317,325.1 " />
<polyline fill="none" vector-effect="none" points="333,291.8 2317,291.8 " />
<polyline fill="none" vector-effect="none" points="333,258.5 2317,258.5 " />
<polyline fill="none" vector-effect="none" points="333,225.2 2317,225.2 " />
<polyline fill="none" vector-effect="none" points="333,191.9 2317,191.9 " />
<polyline fill="none" vector-effect="none" points="333,158.6 2317,158.6 " />
<polyline fill="none" vector-effect="none" points="333,125.3 2317,125.3 " />
<polyline fill="none" vector-effect="none" points="333,92 2317,92 " />
</g>

<g fill="#212121" fill-opacity="1" stroke="#212121" stroke-opacity="1" stroke-width="1" stroke-linecap="square" stroke-linejoin="bevel" transform="matrix(0.75,0,0,0.75,985.125,844.25)"
font-family="Helvetica" font-size="14" font-weight="400" font-style="normal" 
>
<text fill="#212121" fill-opacity="1" stroke="none" xml:space="preserve" x="0" y="0" font-family="Helvetica" font-size="14" font-weight="400" font-style="normal" 
 >t [s]</text>
</g>

<g fill="#212121" fill-opacity="1" stroke="#212121" stroke-opacity="1" stroke-width="0.666667" stroke-linecap="square" stroke-linejoin="round" transform="matrix(0.75,0,0,0.75,0,0)"
font-family="Helvetica" font-size="14" font-weight="400" font-style="normal" 
>
<polyline fill="none" vector-effect="none" points="333,1091 2317,1091 " />
<polyline fill="none" vector-effect="none" points="333,92 2317,92 " />
<polyline fill="none" vector-effect="none" points="333,1091 333,1071.16 " />
<polyline fill="none" vector-effect="none" points="333,111.84 333,92 " />
<polyline fill="none" vector-effect="none" points="663.667,1091 663.667,1071.16 " />
<polyline fill="none" vector-effect="none" points="663.667,111.84 663.667,92 " />
<polyline fill="none" vector-effect="none" points="994.333,1091 994.333,1071.16 " />
<polyline fill="none" vector-effect="none" points="994.333,111.84 994.333,92 " />
<polyline fill="none" vector-effect="none" points="1325,1091 1325,1071.16 " />
<polyline fill="none" vector-effect="none" points="1325,111.84 1325,92 " />
<polyline fill="none" vector-effect="none" points="1655.67,1091 1655.67,1071.16 " />
<polyline fill="none" vector-effect="none" points="1655.67,111.84 1655.67,92 " />
<polyline fill="none" vector-effect="none" points="1986.33,1091 1986.33,1071.16 " />
<polyline fill="none" vector-effect="none" points="1986.33,111.84 1986.33,92 " />
<polyline fill="none" vector-effect="none" points="2317,1091 2317,1071.16 " />
<polyline fill="none" vector-effect="none" points="2317,111.84 2317,92 " />
</g>

<g fill="#212121" fill-opacity="1" stroke="#212121" stroke-opacity="1" stroke-width="1" stroke-linecap="square" stroke-linejoin="bevel" transform="matrix(0.75,0,0,0.75,247.125,831.25)"
font-family="Helvetica" font-size="13" font-weight="400" font-style="normal" 
>
<text fill="#212121" fill-opacity="1" stroke="none" xml:space="preserve" x="0" y="0" font-family="Helvetica" font-size="13" font-weight="400" font-style="normal" 
 >0</text>
</g>

<g fill="#212121" fill-opacity="1" stroke="#212121" stroke-opacity="1" stroke-width="1" stroke-linecap="square" stroke-linejoin="bevel" transform="matrix(0.75,0,0,0.75,492.5,831.25)"
font-family="Helvetica" font-size="13" font-weight="400" font-style="normal" 
>
<text fill="#212121" fill-opacity="1" stroke="none" xml:space="preserve" x="0" y="0" font-family="Helvetica" font-size="13" font-weight="400" font-style="normal" 
 >10</text>
</g>

<g fill="#212121" fill-opacity="1" stroke="#212121" stroke-opacity="1" stroke-width="1" stroke-linecap="square" stroke-linejoin="bevel" transform="matrix(0.75,0,0,0.75,740.5,831.25)"
font-family="Helvetica" font-size="13" font-weight="400" font-style="normal" 
>
<text fill="#212121" fill-opacity="1" stroke="none" xml:space="preserve" x="0" y="0" font-family="Helvetica" font-size="13" font-weight="400" font-style="normal" 
 >20</text>
</g>

<g fill="#212121" fill-opacity="1" stroke="#212121" stroke-opacity="1" stroke-width="1" stroke-linecap="square" stroke-linejoin="bevel" transform="matrix(0.75,0,0,0.75,988.5,831.25)"
font-family="Helvetica" font-size="13" font-weight="400" font-style="normal" 
>
<text fill="#212121" fill-opacity="1" stroke="none" xml:space="preserve" x="0" y="0" font-family="Helvetica" font-size="13" font-weight="400" font-style="normal" 
 >30</text>
</g>

<g fill="#212121" fill-opacity="1" stroke="#212121" stroke-opacity="1" stroke-width="1" stroke-linecap="square" stroke-linejoin="bevel" transform="matrix(0.75,0,0,0.75,1236.5,831.25)"
font-family="Helvetica" font-size="13" font-weight="400" font-style="normal" 
>
<text fill="#212121" fill-opacity="1" stroke="none" xml:space="preserve" x="0" y="0" font-family="Helvetica" font-size="13" font-weight="400" font-style="normal" 
 >40</text>
</g>

<g fill="#212121" fill-opacity="1" stroke="#212121" stroke-opacity="1" stroke-width="1" stroke-linecap="square" stroke-linejoin="bevel" transform="matrix(0.75,0,0,0.75,1484.5,831.25)"
font-family="Helvetica" font-size="13" font-weight="400" font-style="normal" 
>
<text fill="#212121" fill-opacity="1" stroke="none" xml:space="preserve" x="0" y="0" font-family="Helvetica" font-size="13" font-weight="400" font-style="normal" 
 >50</text>
</g>

<g fill="#212121" fill-opacity="1" stroke="#212121" stroke-opacity="1" stroke-width="1" stroke-linecap="square" stroke-linejoin="bevel" transform="matrix(0.75,0,0,0.75,1732.5,831.25)"
font-family="Helvetica" font-size="13" font-weight="400" font-style="normal" 
>
<text fill="#212121" fill-opacity="1" stroke="none" xml:space="preserve" x="0" y="0" font-family="Helvetica" font-size="13" font-weight="400" font-style="normal" 
 >60</text>
</g>

<g fill="#212121" fill-opacity="1" stroke="#212121" stroke-opacity="1" stroke-width="1" stroke-linecap="square" stroke-linejoin="bevel" transform="matrix(0,-0.75,0.75,0,229.25,462.75)"
font-family="Helvetica" font-size="14" font-weight="400" font-style="normal" 
>
<text fill="#212121" fill-opacity="1" stroke="none" xml:space="preserve" x="0" y="0" font-family="Helvetica" font-size="14" font-weight="400" font-style="normal" 
 >value [-]</text>
</g>

<g fill="#212121" fill-opacity="1" stroke="#212121" stroke-opacity="1" stroke-width="0.666667" stroke-linecap="square" stroke-linejoin="round" transform="matrix(0.75,0,0,0.75,0,0)"
font-family="Helvetica" font-size="14" font-weight="400" font-style="normal" 
>
<polyline fill="none" vector-effect="none" points="333,1091 333,92 " />
<polyline fill="none" vector-effect="none" points="2317,1091 2317,92 " />
<polyline fill="none" vector-effect="none" points="333,1091 352.84,1091 " />
<polyline fill="none" vector-effect="none" points="2297.16,1091 2317,1091 " />
<polyline fill="none" vector-effect="none" points="333,924.5 352.84,924.5 " />
<polyline fill="none" vector-effect="none" points="2297.16,924.5 2317,924.5 " />
<polyline fill="none" vector-effect="none" points="333,758 352.84,758 " />
<polyline fill="none" vector-effect="none" points="2297.16,758 2317,758 " />
<polyline fill="none" vector-effect="none" points="333,591.5 352.84,591.5 " />
<polyline fill="none" vector-effect="none" points="2297.16,591.5 2317,591.5 " />
<polyline fill="none" vector-effect="none" points="333,425 352.84,425 " />
<polyline fill="none" vector-effect="none" points="2297.16,425 2317,425 " />
<polyline fill="none" vector-effect="none" points="333,258.5 352.84,258.5 " />
<polyline fill="none" vector-effect="none" points="2297.16,258.5 2317,258.5 " />
<polyline fill="none" vector-effect="none" points="333,92 352.84,92 " />
<polyline fill="none" vector-effect="none" points="2297.16,92 2317,92 " />
</g>

<g fill="#212121" fill-opacity="1" stroke="#212121" stroke-opacity="1" stroke-width="1" stroke-linecap="square" stroke-linejoin="bevel" transform="matrix(0.75,0,0,0.75,235.25,821.625)"
font-family="Helvetica" font-size="13" font-weight="400" font-style="normal" 
>
<text fill="#212121" fill-opacity="1" stroke="none" xml:space="preserve" x="0" y="0" font-family="Helvetica" font-size="13" font-weight="400" font-style="normal" 
 >25</text>
</g>

<g fill="#212121" fill-opacity="1" stroke="#212121" stroke-opacity="1" stroke-width="1" stroke-linecap="square" stroke-linejoin="bevel" transform="matrix(0.75,0,0,0.75,235.25,696.75)"
font-family="Helvetica" font-size="13" font-weight="400" font-style="normal" 
>
<text fill="#212121" fill-opacity="1" stroke="none" xml:space="preserve" x="0" y="0" font-family="Helvetica" font-size="13" font-weight="400" font-style="normal" 
 >30</text>
</g>

<g fill="#212121" fill-opacity="1" stroke="#212121" stroke-opacity="1" stroke-width="1" stroke-linecap="square" stroke-linejoin="bevel" transform="matrix(0.75,0,0,0.75,235.25,571.875)"
font-family="Helvetica" font-size="13" font-weight="400" font-style="normal" 
>
<text fill="#212121" fill-opacity="1" stroke="none" xml:space="preserve" x="0" y="0" font-family="Helvetica" font-size="13" font-weight="400" font-style="normal" 
 >35</text>
</g>

<g fill="#212121" fill-opacity="1" stroke="#212121" stroke-opacity="1" stroke-width="1" stroke-linecap="square" stroke-linejoin="bevel" transform="matrix(0.75,0,0,0.75,235.25,447)"
font-family="Helvetica" font-size="13" font-weight="400" font-style="normal" 
>
<text fill="#212121" fill-opacity="1" stroke="none" xml:space="preserve" x="0" y="0" font-family="Helvetica" font-size="13" font-weight="400" font-style="normal" 
 >40</text>
</g>

<g fill="#212121" fill-opacity="1" stroke="#212121" stroke-opacity="1" stroke-width="1" stroke-linecap="square" stroke-linejoin="bevel" transform="matrix(0.75,0,0,0.75,235.25,322.125)"
font-family="Helvetica" font-size="13" font-weight="400" font-style="normal" 
>
<text fill="#212121" fill-opacity="1" stroke="none" xml:space="preserve" x="0" y="0" font-family="Helvetica" font-size="13" font-weight="400" font-style="normal" 
 >45</text>
</g>

<g fill="#212121" fill-opacity="1" stroke="#212121" stroke-opacity="1" stroke-width="1" stroke-linecap="square" stroke-linejoin="bevel" transform="matrix(0.75,0,0,0.75,235.25,197.25)"
font-family="Helvetica" font-size="13" font-weight="400" font-style="normal" 
>
<text fill="#212121" fill-opacity="1" stroke="none" xml:space="preserve" x="0" y="0" font-family="Helvetica" font-size="13" font-weight="400" font-style="normal" 
 >50</text>
</g>

<g fill="#212121" fill-opacity="1" stroke="#212121" stroke-opacity="1" stroke-width="1" stroke-linecap="square" stroke-linejoin="bevel" transform="matrix(0.75,0,0,0.75,235.25,72.375)"
font-family="Helvetica" font-size="13" font-weight="400" font-style="normal" 
>
<text fill="#212121" fill-opacity="1" stroke="none" xml:space="preserve" x="0" y="0" font-family="Helvetica" font-size="13" font-weight="400" font-style="normal" 
 >55</text>
</g>

<g fill="#212121" fill-opacity="1" stroke="#212121" stroke-opacity="1" stroke-width="1" stroke-linecap="square" stroke-linejoin="bevel" transform="matrix(0.75,0,0,0.75,957,64.6875)"
font-family="Helvetica" font-size="14" font-weight="700" font-style="normal" 
>
<text fill="#212121" fill-opacity="1" stroke="none" xml:space="preserve" x="0" y="0" font-family="Helvetica" font-size="14" font-weight="700" font-style="normal" 
 >Plot real data</text>
</g>

<g fill="none" stroke="#1171be" stroke-opacity="1" stroke-width="0.666667" stroke-linecap="butt" stroke-linejoin="round" transform="matrix(0.75,0,0,0.75,0,0)"
font-family="Helvetica" font-size="14" font-weight="700" font-style="normal" 
>
<polyline fill="none" vector-effect="none" points="333,654.77 333.661,654.77 334.323,654.77 334.984,654.77 335.645,654.77 336.307,654.77 336.968,657.101 337.629,657.101 338.291,657.101 338.952,657.101 339.613,657.101 340.275,657.101 340.936,657.101 341.597,657.101 342.259,657.101 342.92,654.77 343.581,654.77 344.243,654.77 344.904,657.101 345.565,657.101 346.557,657.101 347.219,657.101 347.88,657.101 348.872,657.101 349.533,657.101 350.195,657.101 350.856,657.101 351.517,657.101 352.179,657.101 352.84,657.101 353.501,659.099 354.163,659.099 354.824,659.099 355.485,659.099 356.147,659.099 356.808,663.428 357.469,663.428 358.131,663.428 358.792,663.428 359.453,663.428 360.445,663.428 361.107,663.428 361.768,663.428 362.429,663.428 363.091,663.428 363.752,665.759 364.413,665.759 365.075,665.759 365.736,665.759 366.397,663.428 367.059,663.428 367.72,663.428 368.381,663.428 369.043,663.428 369.704,663.428 370.365,665.759 371.027,663.428 371.688,663.428 372.349,663.428 373.011,665.759 373.672,663.428 374.333,663.428 376.317,663.428 376.979,663.428 377.64,665.759 378.301,665.759 378.963,663.428 379.624,663.428 380.285,663.428 380.947,663.428 381.939,659.099 382.6,659.099 382.931,659.099 383.592,657.101 384.584,657.101 385.245,657.101 385.907,657.101 386.568,657.101 387.229,657.101 387.891,657.101 388.552,654.77 389.213,654.77 389.875,654.77 390.536,654.77 391.197,654.77 391.859,654.77 392.52,654.77 393.181,654.77 393.843,654.77 394.504,657.101 395.165,657.101 395.827,657.101 396.488,657.101 397.48,657.101 398.141,657.101 398.803,657.101 399.464,657.101 400.125,657.101 400.787,654.77 401.448,650.441 402.109,641.45 402.771,632.792 403.432,619.472 404.093,602.156 404.755,584.507 405.416,562.529 406.408,536.222 407.069,516.575 407.731,492.266 408.392,472.619 409.053,448.31 409.715,430.994 410.376,409.016 411.037,393.698 411.699,384.707 412.36,378.047 413.021,376.049 413.683,376.049 414.344,382.709 415.005,387.038 415.667,393.698 416.328,402.356 416.989,411.014 417.651,420.005 418.312,428.663 418.973,437.321 419.965,443.981 421.619,454.97 422.28,457.301 422.941,457.301 423.603,454.97 424.264,454.97 424.925,452.639 425.587,448.31 426.248,448.31 426.909,446.312 427.571,446.312 428.232,446.312 428.893,446.312 429.555,446.312 430.216,448.31 430.877,448.31 431.539,448.31 432.531,448.31 433.192,448.31 433.853,448.31 434.515,448.31 435.176,448.31 435.837,448.31 436.499,448.31 437.16,448.31 437.821,448.31 438.483,448.31 439.144,452.639 439.805,452.639 440.467,452.639 441.128,452.639 441.789,452.639 442.451,452.639 443.112,452.639 443.773,452.639 444.765,452.639 445.427,452.639 446.088,452.639 446.749,452.639 447.411,452.639 448.072,452.639 448.733,452.639 449.395,452.639 450.056,452.639 450.717,452.639 451.379,452.639 452.04,452.639 452.701,452.639 453.363,452.639 454.024,452.639 454.685,452.639 455.347,452.639 456.339,452.639 457,452.639 457.661,452.639 458.323,452.639 458.984,452.639 459.645,452.639 460.307,452.639 460.968,452.639 461.629,452.639 462.291,452.639 462.952,452.639 463.944,452.639 464.605,452.639 465.267,452.639 466.259,452.639 466.92,452.639 467.581,452.639 468.243,452.639 468.904,452.639 469.565,452.639 470.227,452.639 470.888,452.639 471.549,452.639 472.211,452.639 472.872,452.639 473.864,452.639 474.525,452.639 475.187,452.639 475.848,452.639 476.509,452.639 477.171,452.639 477.832,454.97 478.493,454.97 479.485,454.97 480.147,454.97 480.808,454.97 481.469,452.639 482.131,452.639 482.792,454.97 483.453,454.97 484.115,454.97 484.776,452.639 485.437,452.639 486.099,452.639 486.76,452.639 487.421,452.639 488.083,452.639 488.744,452.639 489.405,452.639 490.067,452.639 490.728,452.639 491.389,452.639 492.051,452.639 492.712,452.639 493.373,452.639 494.035,452.639 494.696,452.639 495.357,454.97 496.349,454.97 497.011,454.97 497.672,454.97 498.333,454.97 498.995,454.97 499.656,454.97 500.317,454.97 500.979,454.97 501.64,454.97 502.301,454.97 502.963,454.97 503.624,454.97 504.285,454.97 504.947,454.97 505.608,454.97 506.269,454.97 506.931,454.97 507.592,454.97 508.253,454.97 508.915,454.97 509.576,454.97 510.237,454.97 512.221,454.97 512.883,454.97 513.544,454.97 514.205,454.97 514.867,454.97 515.528,454.97 516.189,454.97 516.851,454.97 517.512,454.97 518.173,454.97 519.165,454.97 519.827,454.97 520.488,454.97 521.149,454.97 521.811,454.97 522.472,454.97 523.133,454.97 524.125,454.97 524.787,454.97 525.448,454.97 526.109,454.97 526.771,454.97 527.432,454.97 528.093,457.301 528.755,454.97 529.416,454.97 530.077,454.97 530.739,454.97 531.731,457.301 532.392,457.301 533.053,457.301 533.715,457.301 534.376,457.301 535.037,461.63 535.699,461.63 536.691,461.63 537.352,461.63 538.013,461.63 538.675,461.63 539.336,461.63 539.997,461.63 540.659,457.301 541.32,457.301 541.981,457.301 542.643,457.301 543.304,457.301 543.965,457.301 544.627,457.301 545.288,457.301 545.949,457.301 546.611,457.301 547.272,457.301 547.933,454.97 548.595,454.97 549.256,454.97 549.917,454.97 550.579,454.97 551.24,454.97 551.901,454.97 552.563,457.301 553.224,457.301 553.885,457.301 554.547,457.301 555.208,457.301 556.531,457.301 557.192,457.301 557.853,457.301 558.515,457.301 559.176,457.301 559.837,457.301 560.499,457.301 561.491,457.301 562.152,457.301 562.813,454.97 563.475,454.97 564.136,454.97 564.797,457.301 565.459,457.301 566.12,457.301 566.781,457.301 567.443,457.301 568.104,457.301 568.765,457.301 569.427,457.301 570.088,457.301 570.749,457.301 571.411,457.301 572.072,457.301 572.733,457.301 573.395,457.301 574.056,457.301 574.717,457.301 575.379,457.301 576.04,457.301 576.701,457.301 577.363,457.301 578.024,457.301 578.685,457.301 579.347,457.301 580.339,457.301 581,457.301 581.661,457.301 582.323,461.63 582.984,457.301 583.645,457.301 584.307,461.63 584.968,457.301 585.629,457.301 586.291,457.301 586.952,457.301 587.613,457.301 588.275,457.301 588.936,457.301 589.597,457.301 590.259,457.301 590.92,457.301 591.581,457.301 592.243,457.301 592.904,457.301 593.565,457.301 594.227,457.301 594.888,457.301 595.549,457.301 596.211,457.301 596.872,457.301 597.533,457.301 598.195,457.301 599.187,457.301 599.848,457.301 601.832,457.301 602.493,457.301 603.155,457.301 603.816,457.301 604.477,457.301 605.139,457.301 605.8,457.301 606.461,457.301 607.123,457.301 607.784,457.301 608.445,457.301 609.107,457.301 609.768,457.301 610.429,457.301 611.091,457.301 611.752,457.301 612.413,457.301 613.075,457.301 613.736,454.97 614.397,457.301 615.059,457.301 615.72,457.301 616.712,457.301 617.373,457.301 618.035,457.301 618.696,457.301 619.357,457.301 620.019,457.301 620.68,457.301 621.341,457.301 622.003,457.301 622.664,457.301 623.325,454.97 623.987,457.301 624.648,454.97 625.309,454.97 625.971,454.97 626.632,454.97 627.624,454.97 628.285,454.97 628.947,454.97 629.608,454.97 630.269,454.97 630.931,454.97 631.592,454.97 632.253,454.97 632.915,454.97 633.576,454.97 634.237,454.97 634.899,454.97 635.56,454.97 636.221,454.97 636.883,454.97 637.544,454.97 638.205,454.97 638.867,454.97 639.528,454.97 640.189,454.97 640.851,454.97 641.512,454.97 642.504,454.97 643.165,454.97 643.827,454.97 644.488,454.97 645.149,454.97 645.811,454.97 646.472,454.97 647.133,454.97 647.795,454.97 648.456,454.97 649.448,454.97 650.109,454.97 650.771,454.97 651.432,454.97 652.093,454.97 653.085,454.97 653.747,454.97 654.408,454.97 655.069,454.97 655.731,454.97 656.392,454.97 657.053,454.97 657.715,454.97 658.376,454.97 659.037,454.97 659.699,454.97 660.36,454.97 661.021,454.97 661.683,454.97 662.344,454.97 663.005,454.97 663.667,454.97 664.659,454.97 665.32,454.97 665.981,454.97 666.643,454.97 667.304,454.97 667.965,454.97 668.627,454.97 669.288,454.97 669.949,454.97 670.611,454.97 671.272,454.97 671.933,454.97 672.595,454.97 673.256,454.97 673.917,454.97 674.579,454.97 675.24,454.97 675.901,454.97 676.563,454.97 677.224,454.97 677.885,454.97 678.547,454.97 679.208,454.97 680.2,454.97 680.861,454.97 681.523,454.97 682.184,454.97 682.845,454.97 683.507,454.97 684.499,454.97 685.16,454.97 685.821,454.97 686.483,454.97 687.144,454.97 687.805,454.97 688.467,454.97 689.128,454.97 689.789,454.97 690.451,454.97 691.112,454.97 691.773,454.97 692.765,452.639 693.427,452.639 694.088,452.639 694.749,452.639 695.411,452.639 696.072,454.97 696.733,454.97 697.395,452.639 698.056,452.639 698.717,452.639 699.379,452.639 700.04,452.639 700.701,452.639 701.363,452.639 702.024,452.639 702.685,452.639 703.347,452.639 704.008,452.639 704.669,452.639 705.331,452.639 705.992,452.639 706.984,452.639 707.645,452.639 708.307,452.639 708.968,452.639 709.629,452.639 710.291,452.639 710.952,452.639 711.613,452.639 712.275,452.639 712.936,452.639 713.597,452.639 714.259,452.639 715.251,452.639 715.912,452.639 716.573,452.639 717.235,452.639 717.896,452.639 718.557,452.639 719.219,452.639 719.88,452.639 720.541,452.639 721.203,452.639 721.864,452.639 722.525,452.639 723.187,452.639 723.848,452.639 724.509,452.639 725.171,452.639 725.832,452.639 726.493,452.639 727.155,452.639 727.816,452.639 728.477,452.639 729.139,452.639 729.8,452.639 730.461,452.639 731.123,454.97 731.784,463.628 732.776,481.277 733.437,505.586 734.099,527.564 734.76,560.198 736.744,683.408 737.405,727.031 738.067,773.318 738.728,823.934 739.389,867.557 740.051,909.515 740.712,946.811 741.373,981.776 742.365,1014.74 743.027,1034.39 743.688,1049.71 744.349,1054.37 745.011,1052.04 745.672,1045.38 746.333,1032.39 746.995,1008.08 747.656,979.778 748.317,944.48 748.979,911.513 749.64,876.548 750.301,839.252 750.963,799.625 751.624,764.66 752.285,733.691 752.947,698.726 753.608,674.417 754.269,654.77 754.931,639.452 755.592,630.461 756.253,628.463 757.245,630.461 757.907,639.452 758.568,654.77 759.229,672.419 759.891,694.397 760.552,718.373 761.213,742.682 761.875,768.989 762.536,795.296 763.197,823.934 763.859,850.241 764.52,874.217 765.181,891.866 765.843,904.853 766.504,918.173 767.165,926.831 768.157,929.162 768.819,929.162 769.48,922.502 770.141,913.844 770.803,904.853 771.464,893.864 772.125,878.546 772.787,865.559 773.448,847.91 774.109,832.592 774.771,814.943 775.432,799.625 776.093,788.636 776.755,770.987 777.416,762.329 778.077,753.671 778.739,751.34 779.4,747.011 780.061,747.011 780.723,747.011 782.045,759.998 782.707,764.66 783.368,773.318 784.029,786.305 784.691,795.296 785.352,803.954 786.013,812.945 787.005,821.603 787.667,825.932 788.328,834.59 788.989,841.25 789.651,847.91 790.312,850.241 790.973,850.241 791.635,852.239 792.296,852.239 792.957,850.241 793.619,847.91 794.28,843.581 794.941,841.25 795.603,834.59 796.264,832.592 797.256,825.932 797.917,823.934 798.579,821.603 799.24,821.603 799.901,817.274 800.563,817.274 801.224,817.274 801.885,817.274 802.547,821.603 803.539,821.603 804.2,821.603 804.861,823.934 805.523,823.934 806.184,825.932 806.845,825.932 807.507,825.932 808.168,825.932 808.829,830.261 809.491,830.261 810.152,830.261 811.144,830.261 811.805,830.261 812.467,830.261 813.128,825.932 813.789,825.932 814.451,825.932 815.112,825.932 815.773,825.932 816.435,825.932 817.096,825.932 817.757,825.932 818.419,825.932 819.08,825.932 819.741,830.261 820.403,830.261 821.064,830.261 822.056,830.261 822.717,830.261 823.379,830.261 824.04,825.932 824.701,825.932 825.363,825.932 826.024,825.932 827.347,825.932 828.008,825.932 828.669,823.934 829.331,823.934 829.992,823.934 830.653,823.934 831.645,823.934 832.307,821.603 832.968,821.603 833.629,821.603 834.291,821.603 834.952,821.603 835.613,821.603 836.275,821.603 836.936,823.934 837.597,821.603 838.259,823.934 838.92,823.934 839.581,823.934 840.243,823.934 840.904,823.934 841.565,823.934 842.227,823.934 842.888,823.934 843.549,823.934 844.211,823.934 844.872,821.603 845.864,823.934 846.525,821.603 847.187,821.603 847.848,823.934 848.509,823.934 849.171,821.603 849.832,821.603 850.493,821.603 851.155,821.603 851.816,821.603 852.477,821.603 853.139,821.603 853.8,823.934 854.461,823.934 855.123,823.934 855.784,823.934 856.445,823.934 857.107,823.934 857.768,823.934 858.429,823.934 859.091,823.934 859.752,823.934 860.413,823.934 861.075,823.934 861.736,823.934 862.397,823.934 863.389,823.934 864.051,823.934 864.712,823.934 865.373,823.934 866.035,823.934 866.696,823.934 867.357,823.934 868.019,823.934 868.68,823.934 869.341,825.932 870.003,825.932 870.664,825.932 872.317,825.932 872.979,825.932 873.64,825.932 874.301,825.932 874.963,825.932 875.624,825.932 876.285,825.932 876.947,825.932 877.939,825.932 878.6,825.932 879.261,825.932 879.923,825.932 880.584,825.932 881.245,825.932 881.907,830.261 882.568,830.261 883.229,830.261 883.891,830.261 884.552,830.261 885.213,830.261 885.875,825.932 886.536,825.932 887.197,830.261 887.859,830.261 888.52,830.261 889.181,830.261 889.843,830.261 890.504,830.261 891.165,830.261 891.827,832.592 892.488,832.592 893.48,830.261 894.141,830.261 894.803,830.261 895.464,830.261 896.125,830.261 896.787,830.261 897.448,830.261 898.109,830.261 898.771,830.261 899.432,830.261 900.093,830.261 900.755,830.261 901.416,830.261 902.077,830.261 902.739,830.261 903.731,830.261 904.392,830.261 905.053,825.932 905.715,825.932 906.376,825.932 907.037,825.932 907.699,825.932 908.36,825.932 909.021,825.932 909.683,825.932 910.344,825.932 911.005,830.261 911.667,830.261 912.328,830.261 912.989,830.261 913.651,830.261 914.312,830.261 914.973,830.261 916.957,830.261 917.949,830.261 918.611,830.261 919.272,830.261 919.933,832.592 920.595,832.592 921.256,832.592 921.917,832.592 922.579,832.592 923.24,832.592 923.901,834.59 924.563,834.59 925.224,834.59 925.885,834.59 926.547,832.592 927.208,834.59 927.869,832.592 928.531,834.59 929.192,832.592 929.853,832.592 930.515,832.592 931.176,832.592 932.168,834.59 932.829,834.59 933.491,834.59 934.152,834.59 934.813,839.252 935.805,839.252 936.467,839.252 937.128,839.252 937.789,839.252 938.451,839.252 939.112,834.59 939.773,834.59 940.435,834.59 941.096,834.59 941.757,834.59 942.419,834.59 943.08,834.59 943.741,834.59 944.403,832.592 945.064,832.592 945.725,832.592 946.717,832.592 947.379,832.592 948.04,830.261 948.701,832.592 949.363,832.592 950.024,830.261 950.685,830.261 951.347,832.592 952.008,832.592 952.669,832.592 953.331,830.261 953.992,830.261 954.653,830.261 955.315,830.261 955.976,830.261 956.637,830.261 957.299,830.261 957.96,830.261 958.621,830.261 959.283,830.261 960.275,830.261 962.259,830.261 962.92,830.261 963.912,830.261 964.573,830.261 965.235,830.261 966.227,830.261 966.888,830.261 967.549,832.592 968.211,832.592 968.872,832.592 969.533,832.592 970.525,832.592 971.187,834.59 971.848,834.59 972.509,834.59 973.171,834.59 973.832,834.59 974.493,834.59 975.155,834.59 975.816,832.592 976.477,832.592 977.139,832.592 977.8,832.592 978.461,832.592 979.123,832.592 979.784,832.592 980.445,832.592 981.107,832.592 981.768,830.261 982.429,830.261 983.091,830.261 983.752,830.261 984.413,832.592 985.405,830.261 986.067,832.592 986.728,832.592 987.389,832.592 988.051,832.592 988.712,832.592 989.373,832.592 990.035,830.261 990.696,830.261 991.357,830.261 992.019,825.932 992.68,825.932 993.341,825.932 994.003,825.932 994.664,825.932 995.325,825.932 995.987,825.932 996.648,825.932 997.309,825.932 997.971,825.932 998.632,825.932 999.293,825.932 999.955,825.932 1000.62,823.934 1001.61,823.934 1002.27,823.934 1002.93,823.934 1003.59,821.603 1004.25,821.603 1004.91,821.603 1005.58,823.934 1007.23,823.934 1007.89,823.934 1008.55,823.934 1009.21,823.934 1009.87,823.934 1010.54,823.934 1011.2,823.934 1011.86,823.934 1012.52,823.934 1013.18,823.934 1013.84,823.934 1014.5,821.603 1015.17,821.603 1015.83,821.603 1016.49,821.603 1017.15,821.603 1017.81,821.603 1018.47,821.603 1019.13,821.603 1020.13,823.934 1020.79,823.934 1021.45,823.934 1022.11,823.934 1022.77,825.932 1023.43,823.934 1024.09,823.934 1024.75,823.934 1025.42,823.934 1026.08,823.934 1026.74,823.934 1027.4,823.934 1028.39,823.934 1029.05,823.934 1029.71,823.934 1030.38,823.934 1031.04,823.934 1031.7,823.934 1032.36,823.934 1033.02,825.932 1033.68,825.932 1034.34,825.932 1035.01,825.932 1035.67,825.932 1036.33,825.932 1036.99,825.932 1037.65,825.932 1038.31,825.932 1038.97,825.932 1039.63,825.932 1040.3,825.932 1040.96,825.932 1041.62,825.932 1042.28,825.932 1042.94,825.932 1043.6,825.932 1044.26,823.934 1045.26,823.934 1045.92,823.934 1046.58,823.934 1047.24,823.934 1047.9,823.934 1048.56,823.934 1049.22,823.934 1049.89,823.934 1050.55,821.603 1051.21,823.934 1052.53,823.934 1053.19,823.934 1053.85,823.934 1054.51,823.934 1055.18,823.934 1055.84,823.934 1056.5,823.934 1057.49,823.934 1058.15,823.934 1058.81,823.934 1059.47,823.934 1060.14,823.934 1060.8,823.934 1061.46,821.603 1062.12,817.274 1062.78,808.283 1063.44,795.296 1064.1,770.987 1064.77,742.682 1065.43,703.055 1066.09,659.099 1066.75,610.814 1067.41,558.2 1068.07,505.586 1068.73,452.639 1069.73,384.707 1070.39,334.424 1071.05,296.795 1071.71,259.499 1072.37,228.863 1073.03,209.216 1073.69,198.227 1074.35,191.567 1075.02,193.898 1075.68,206.885 1076.34,220.205 1077,235.523 1077.66,255.17 1078.32,281.477 1078.98,305.786 1079.65,332.093 1080.31,358.4 1080.97,384.707 1081.63,413.345 1082.29,437.321 1082.95,470.288 1083.61,490.268 1084.27,507.584 1084.94,522.902 1085.6,531.893 1086.26,540.551 1087.25,542.882 1087.91,542.882 1088.57,536.222 1089.23,531.893 1089.9,522.902 1090.56,514.244 1091.22,501.257 1091.88,487.937 1092.54,474.617 1093.2,463.628 1093.86,452.639 1094.53,437.321 1095.19,428.663 1095.85,420.005 1097.17,411.014 1097.83,411.014 1098.49,411.014 1099.15,413.345 1099.82,417.674 1100.48,420.005 1101.14,426.332 1101.8,428.663 1102.46,435.323 1103.12,435.323 1103.78,437.321 1104.45,439.652 1105.11,439.652 1105.77,439.652 1106.43,439.652 1107.09,439.652 1108.08,439.652 1108.74,437.321 1109.41,439.652 1110.07,439.652 1110.73,439.652 1111.39,439.652 1112.05,439.652 1112.71,439.652 1113.37,439.652 1114.03,439.652 1114.7,439.652 1115.36,439.652 1116.02,439.652 1116.68,439.652 1117.34,439.652 1118,439.652 1118.66,439.652 1119.33,443.981 1119.99,443.981 1120.65,443.981 1121.31,443.981 1121.97,443.981 1122.63,443.981 1123.29,443.981 1123.95,443.981 1124.62,443.981 1125.28,443.981 1125.94,443.981 1126.6,443.981 1127.26,443.981 1127.92,443.981 1128.58,443.981 1129.25,443.981 1130.24,443.981 1130.9,443.981 1131.56,439.652 1132.22,443.981 1132.88,443.981 1133.54,443.981 1134.21,443.981 1134.87,443.981 1135.53,443.981 1136.19,443.981 1136.85,439.652 1137.51,439.652 1138.17,439.652 1138.83,439.652 1139.5,439.652 1140.16,439.652 1140.82,439.652 1141.48,439.652 1142.14,439.652 1142.8,439.652 1143.46,443.981 1144.13,443.981 1144.79,443.981 1145.45,443.981 1146.11,443.981 1146.77,443.981 1147.43,443.981 1148.09,443.981 1148.75,446.312 1149.42,446.312 1150.08,446.312 1150.74,446.312 1151.4,446.312 1152.06,446.312 1152.72,446.312 1153.38,446.312 1154.05,446.312 1154.71,446.312 1155.37,448.31 1156.03,448.31 1156.69,448.31 1157.35,448.31 1158.01,448.31 1158.67,448.31 1159.34,448.31 1160,448.31 1160.66,448.31 1161.32,448.31 1161.98,448.31 1162.64,448.31 1163.3,448.31 1163.97,448.31 1164.63,448.31 1165.29,448.31 1165.95,448.31 1166.61,448.31 1167.27,448.31 1167.93,446.312 1168.93,446.312 1169.59,448.31 1170.25,448.31 1170.91,448.31 1171.57,448.31 1172.23,448.31 1172.89,448.31 1173.89,448.31 1174.55,448.31 1175.21,448.31 1175.87,448.31 1176.53,448.31 1177.19,448.31 1177.85,448.31 1178.51,448.31 1179.18,448.31 1179.84,448.31 1180.5,448.31 1181.16,448.31 1181.82,448.31 1182.48,448.31 1183.14,448.31 1183.81,448.31 1184.47,448.31 1185.46,446.312 1186.12,446.312 1187.77,446.312 1188.43,446.312 1189.1,446.312 1189.76,446.312 1190.42,446.312 1191.08,446.312 1191.74,446.312 1192.4,446.312 1193.06,446.312 1193.73,446.312 1194.39,446.312 1195.38,446.312 1196.04,446.312 1196.7,446.312 1197.36,446.312 1198.02,446.312 1198.69,446.312 1199.35,446.312 1200.01,446.312 1200.67,446.312 1201.33,446.312 1201.99,443.981 1202.65,446.312 1203.98,446.312 1204.64,446.312 1205.3,446.312 1206.29,446.312 1206.95,446.312 1207.61,446.312 1208.27,446.312 1208.94,443.981 1209.6,443.981 1210.26,443.981 1210.92,443.981 1211.58,443.981 1212.24,443.981 1212.9,443.981 1213.57,443.981 1214.56,443.981 1215.22,443.981 1215.88,443.981 1216.54,443.981 1217.2,443.981 1217.86,443.981 1218.53,443.981 1219.19,443.981 1219.85,443.981 1220.51,443.981 1221.17,443.981 1221.83,443.981 1222.49,443.981 1223.49,443.981 1224.15,443.981 1224.81,443.981 1225.47,443.981 1226.13,443.981 1226.79,443.981 1227.45,443.981 1228.11,443.981 1228.78,443.981 1229.44,443.981 1230.1,443.981 1230.76,443.981 1233.07,443.981 1233.74,443.981 1234.4,443.981 1235.06,443.981 1235.72,443.981 1236.38,443.981 1237.04,443.981 1237.7,443.981 1238.37,443.981 1239.03,443.981 1239.69,443.981 1240.35,443.981 1241.01,446.312 1241.67,446.312 1242.33,446.312 1242.99,443.981 1243.66,443.981 1244.32,443.981 1244.98,443.981 1245.64,443.981 1246.63,443.981 1247.29,443.981 1247.95,443.981 1248.62,446.312 1249.28,446.312 1249.94,446.312 1250.6,446.312 1251.26,446.312 1251.92,443.981 1252.58,443.981 1253.25,443.981 1253.91,443.981 1254.57,443.981 1255.23,443.981 1255.89,446.312 1256.55,443.981 1257.21,443.981 1257.87,443.981 1258.87,443.981 1259.53,443.981 1260.19,443.981 1260.85,443.981 1261.51,443.981 1262.17,443.981 1262.83,443.981 1263.5,443.981 1264.16,443.981 1264.82,443.981 1265.48,443.981 1266.14,443.981 1266.8,443.981 1267.46,443.981 1268.13,443.981 1268.79,443.981 1269.45,443.981 1270.11,443.981 1270.77,443.981 1271.43,443.981 1272.09,443.981 1272.75,443.981 1273.75,443.981 1274.41,443.981 1275.07,443.981 1275.73,443.981 1276.39,443.981 1278.05,443.981 1278.71,443.981 1279.37,443.981 1280.03,443.981 1280.69,443.981 1281.35,443.981 1282.01,443.981 1282.67,443.981 1283.34,443.981 1284,443.981 1284.66,443.981 1285.32,443.981 1285.98,443.981 1286.64,443.981 1287.3,443.981 1287.97,443.981 1288.63,439.652 1289.29,439.652 1289.95,439.652 1290.61,439.652 1291.27,439.652 1291.93,439.652 1292.59,439.652 1293.26,439.652 1293.92,439.652 1294.58,443.981 1295.24,439.652 1296.23,439.652 1296.89,439.652 1297.55,439.652 1298.22,439.652 1298.88,439.652 1299.54,439.652 1300.2,439.652 1300.86,439.652 1301.52,439.652 1302.18,439.652 1302.85,439.652 1303.84,439.652 1304.5,439.652 1305.16,439.652 1305.82,439.652 1306.48,439.652 1307.14,443.981 1307.81,443.981 1308.47,443.981 1309.13,443.981 1309.79,443.981 1310.45,443.981 1311.11,443.981 1311.77,443.981 1312.43,443.981 1313.1,443.981 1313.76,443.981 1314.42,443.981 1315.08,443.981 1316.07,443.981 1316.73,443.981 1317.39,443.981 1318.06,443.981 1318.72,443.981 1319.38,443.981 1320.04,443.981 1320.7,443.981 1321.36,443.981 1323.02,443.981 1323.68,443.981 1324.67,443.981 1325.33,443.981 1325.99,443.981 1326.65,443.981 1327.31,443.981 1327.98,443.981 1328.64,443.981 1329.3,443.981 1329.96,443.981 1330.62,443.981 1331.28,443.981 1331.94,443.981 1332.61,443.981 1333.27,443.981 1333.93,443.981 1334.59,443.981 1335.25,443.981 1336.24,443.981 1336.9,443.981 1337.57,443.981 1338.23,443.981 1339.22,443.981 1339.88,443.981 1340.54,439.652 1341.2,443.981 1341.86,443.981 1342.53,443.981 1343.19,443.981 1343.85,443.981 1344.51,443.981 1345.17,443.981 1345.83,443.981 1346.49,443.981 1347.15,439.652 1347.82,443.981 1348.48,443.981 1349.14,443.981 1349.8,443.981 1350.46,443.981 1351.12,443.981 1351.78,443.981 1352.45,439.652 1353.11,439.652 1353.77,439.652 1354.43,439.652 1355.42,439.652 1356.08,439.652 1356.74,439.652 1357.41,439.652 1358.07,439.652 1358.73,439.652 1359.39,443.981 1360.05,439.652 1360.71,443.981 1361.37,439.652 1362.03,443.981 1362.7,443.981 1363.36,439.652 1364.02,439.652 1364.68,439.652 1365.67,443.981 1366.33,443.981 1368.32,443.981 1368.98,443.981 1369.64,443.981 1370.3,443.981 1370.96,443.981 1371.62,443.981 1372.29,443.981 1372.95,443.981 1373.61,443.981 1374.27,443.981 1374.93,443.981 1375.59,443.981 1376.25,443.981 1377.25,443.981 1377.91,443.981 1378.57,443.981 1379.23,443.981 1379.89,443.981 1380.55,443.981 1381.21,443.981 1381.87,443.981 1382.54,443.981 1383.2,443.981 1383.86,443.981 1384.52,443.981 1385.18,443.981 1385.84,443.981 1386.5,443.981 1387.5,443.981 1388.16,443.981 1388.82,443.981 1389.48,443.981 1390.14,443.981 1390.8,443.981 1391.46,443.981 1392.13,446.312 1392.79,454.97 1393.45,463.628 1394.11,481.277 1394.77,501.257 1395.43,527.564 1396.09,558.2 1396.75,602.156 1397.42,646.112 1398.08,689.735 1398.74,738.02 1399.4,786.305 1400.39,841.25 1401.05,887.537 1401.71,929.162 1402.38,964.127 1403.37,1010.41 1404.03,1034.39 1404.69,1049.71 1405.35,1054.37 1406.01,1054.37 1406.67,1045.38 1407.34,1032.39 1408,1008.08 1408.66,981.776 1409.65,935.822 1410.31,900.524 1410.97,861.23 1411.63,821.603 1412.96,744.68 1413.62,709.715 1414.28,676.748 1414.94,648.11 1415.6,628.463 1416.26,610.814 1416.93,604.154 1417.59,602.156 1418.25,606.485 1418.91,619.472 1419.57,637.121 1420.23,657.101 1421.22,685.406 1421.89,716.375 1422.55,742.682 1423.21,770.987 1423.87,799.625 1424.53,825.932 1425.19,852.239 1425.85,876.548 1426.51,893.864 1427.18,911.513 1427.84,920.504 1428.5,929.162 1429.16,931.493 1429.82,929.162 1430.48,926.831 1431.14,918.173 1431.81,904.853 1432.47,887.537 1433.13,869.888 1433.79,852.239 1434.45,834.59 1435.11,814.943 1435.77,797.294 1436.43,779.978 1437.1,762.329 1437.76,747.011 1438.42,736.022 1439.08,725.033 1439.74,718.373 1440.4,716.375 1441.06,711.713 1441.73,716.375 1442.39,720.704 1443.05,727.031 1443.71,736.022 1444.37,747.011 1445.03,759.998 1445.69,770.987 1446.35,781.976 1447.02,790.967 1447.68,803.954 1448.34,812.945 1449,821.603 1449.66,825.932 1450.32,832.592 1450.98,834.59 1451.65,839.252 1452.31,839.252 1453.3,834.59 1453.96,830.261 1454.62,825.932 1455.28,821.603 1455.94,814.943 1456.61,808.283 1458.26,797.294 1458.92,790.967 1459.58,790.967 1460.24,788.636 1460.9,788.636 1461.57,788.636 1462.23,790.967 1462.89,790.967 1463.55,795.296 1464.21,795.296 1464.87,797.294 1465.53,797.294 1466.19,799.625 1467.19,799.625 1467.85,799.625 1468.51,799.625 1469.17,799.625 1469.83,799.625 1470.49,799.625 1471.15,797.294 1471.82,797.294 1472.48,797.294 1473.14,797.294 1473.8,797.294 1474.46,797.294 1475.12,797.294 1475.78,797.294 1476.45,799.625 1477.11,799.625 1477.77,799.625 1478.43,803.954 1479.09,803.954 1479.75,803.954 1480.41,803.954 1481.07,806.285 1481.74,806.285 1482.4,806.285 1483.06,806.285 1483.72,806.285 1484.38,806.285 1485.04,806.285 1485.7,806.285 1486.37,806.285 1487.03,803.954 1487.69,803.954 1488.35,803.954 1489.01,803.954 1489.67,803.954 1490.33,803.954 1490.99,803.954 1491.66,803.954 1492.32,803.954 1493.31,803.954 1493.97,803.954 1494.63,799.625 1495.29,799.625 1495.95,799.625 1496.62,799.625 1497.28,799.625 1497.94,799.625 1498.6,799.625 1499.26,799.625 1499.92,797.294 1500.58,799.625 1501.25,797.294 1501.91,797.294 1503.23,799.625 1503.89,799.625 1504.88,799.625 1505.54,799.625 1506.21,799.625 1506.87,799.625 1507.53,799.625 1508.19,799.625 1508.85,799.625 1509.51,799.625 1510.17,799.625 1510.83,797.294 1511.5,797.294 1512.16,797.294 1512.82,797.294 1513.48,797.294 1514.14,797.294 1514.8,797.294 1515.46,797.294 1516.13,797.294 1516.79,797.294 1517.45,797.294 1518.11,797.294 1518.77,797.294 1519.76,797.294 1520.42,797.294 1521.09,797.294 1521.75,797.294 1522.41,797.294 1523.07,797.294 1523.73,797.294 1524.39,797.294 1525.05,797.294 1526.05,797.294 1526.71,797.294 1527.37,795.296 1528.03,795.296 1528.69,795.296 1529.35,795.296 1530.01,795.296 1530.67,795.296 1531.34,795.296 1532,795.296 1532.66,795.296 1533.32,795.296 1533.98,795.296 1534.64,795.296 1535.3,795.296 1536.3,795.296 1536.96,795.296 1537.62,797.294 1538.28,797.294 1538.94,797.294 1539.6,797.294 1540.26,797.294 1540.93,797.294 1541.59,799.625 1542.25,799.625 1542.91,799.625 1543.57,799.625 1544.23,799.625 1544.89,799.625 1545.55,797.294 1546.22,797.294 1548.2,797.294 1548.86,797.294 1549.52,795.296 1550.18,795.296 1550.85,795.296 1551.51,795.296 1552.17,795.296 1553.16,797.294 1553.82,797.294 1554.48,797.294 1555.14,797.294 1555.81,797.294 1556.47,797.294 1557.13,797.294 1557.79,797.294 1558.45,797.294 1559.11,797.294 1559.77,797.294 1560.43,797.294 1561.1,797.294 1561.76,797.294 1562.42,797.294 1563.08,799.625 1563.74,799.625 1564.4,799.625 1565.06,799.625 1565.73,803.954 1566.39,799.625 1567.05,803.954 1567.71,799.625 1568.37,799.625 1569.03,799.625 1569.69,799.625 1570.35,799.625 1571.02,799.625 1571.68,799.625 1572.34,799.625 1573,799.625 1573.66,799.625 1574.32,799.625 1574.98,799.625 1575.65,799.625 1576.31,799.625 1576.97,799.625 1577.63,799.625 1578.29,797.294 1578.95,797.294 1579.61,797.294 1580.27,797.294 1580.94,797.294 1581.6,797.294 1582.26,797.294 1582.92,797.294 1583.91,797.294 1584.57,797.294 1585.23,797.294 1585.9,799.625 1586.56,799.625 1587.22,797.294 1587.88,797.294 1588.54,797.294 1589.2,797.294 1589.86,797.294 1590.53,795.296 1591.19,795.296 1591.85,795.296 1593.17,795.296 1593.83,795.296 1594.49,795.296 1595.49,797.294 1596.15,799.625 1596.81,799.625 1597.47,803.954 1598.13,803.954 1598.79,803.954 1599.45,803.954 1600.11,803.954 1600.78,803.954 1601.44,803.954 1602.1,803.954 1603.09,803.954 1603.75,799.625 1604.41,799.625 1605.07,799.625 1605.74,799.625 1606.4,799.625 1607.06,799.625 1607.72,799.625 1608.38,799.625 1609.04,799.625 1609.7,799.625 1610.37,799.625 1611.03,803.954 1611.69,803.954 1612.35,803.954 1613.01,803.954 1613.67,803.954 1614.33,803.954 1614.99,803.954 1615.66,803.954 1616.32,799.625 1616.98,803.954 1617.97,799.625 1618.63,799.625 1619.29,799.625 1619.95,799.625 1620.62,799.625 1621.28,799.625 1621.94,799.625 1622.6,799.625 1623.26,799.625 1623.92,803.954 1624.58,803.954 1625.25,803.954 1625.91,803.954 1626.57,803.954 1627.23,806.285 1627.89,806.285 1628.55,806.285 1629.21,806.285 1629.87,806.285 1630.54,806.285 1631.2,806.285 1631.86,803.954 1632.52,803.954 1633.18,803.954 1633.84,799.625 1634.5,799.625 1635.17,799.625 1635.83,799.625 1636.49,799.625 1637.15,799.625 1638.47,799.625 1639.13,799.625 1639.79,799.625 1640.46,799.625 1641.12,799.625 1641.78,799.625 1642.44,799.625 1643.1,799.625 1643.76,799.625 1644.42,799.625 1645.42,799.625 1646.08,799.625 1646.74,799.625 1647.4,803.954 1648.06,803.954 1648.72,803.954 1649.38,803.954 1650.05,803.954 1650.71,806.285 1651.37,806.285 1652.03,806.285 1652.69,806.285 1653.68,806.285 1654.34,806.285 1655.01,806.285 1655.67,806.285 1656.33,806.285 1656.99,803.954 1657.65,803.954 1658.31,803.954 1658.97,803.954 1659.63,803.954 1660.3,803.954 1660.96,803.954 1661.62,806.285 1662.28,806.285 1662.94,806.285 1663.6,806.285 1664.26,806.285 1664.93,806.285 1665.59,806.285 1666.25,806.285 1666.91,806.285 1667.57,803.954 1668.23,803.954 1668.89,803.954 1669.55,803.954 1670.22,803.954 1670.88,803.954 1671.54,803.954 1672.53,806.285 1673.19,806.285 1673.85,806.285 1674.51,806.285 1675.18,806.285 1675.84,806.285 1676.5,806.285 1677.16,806.285 1677.82,806.285 1678.48,806.285 1679.14,806.285 1679.81,806.285 1680.47,806.285 1681.13,806.285 1681.79,806.285 1683.44,806.285 1684.1,808.283 1685.1,808.283 1685.76,808.283 1686.42,808.283 1687.08,808.283 1687.74,812.945 1688.4,812.945 1689.06,812.945 1689.73,812.945 1690.39,812.945 1691.05,812.945 1691.71,812.945 1692.37,812.945 1693.03,812.945 1693.69,812.945 1694.35,814.943 1695.02,812.945 1695.68,812.945 1696.34,812.945 1697,812.945 1697.66,812.945 1698.32,812.945 1698.98,812.945 1699.65,812.945 1700.31,814.943 1700.97,814.943 1701.63,814.943 1702.29,814.943 1702.95,814.943 1703.94,812.945 1704.61,812.945 1705.27,812.945 1705.6,812.945 1706.26,812.945 1707.25,812.945 1707.91,812.945 1708.57,812.945 1709.23,812.945 1709.9,812.945 1710.56,812.945 1711.22,812.945 1711.88,812.945 1712.54,812.945 1713.2,812.945 1713.86,812.945 1714.53,814.943 1715.19,814.943 1715.85,814.943 1716.51,814.943 1717.17,814.943 1717.83,814.943 1718.49,814.943 1719.49,814.943 1720.15,814.943 1720.81,814.943 1721.47,814.943 1722.13,812.945 1722.79,814.943 1723.45,808.283 1724.11,799.625 1724.78,786.305 1725.44,762.329 1726.1,736.022 1726.76,700.724 1727.42,657.101 1728.74,569.189 1729.41,516.575 1730.07,465.959 1730.73,413.345 1731.39,369.389 1732.05,325.433 1732.71,288.137 1733.37,255.17 1734.03,233.192 1734.7,215.876 1735.36,209.216 1736.02,209.216 1736.68,211.214 1737.34,224.534 1738,242.183 1738.66,259.499 1739.33,279.479 1739.99,303.455 1740.65,325.433 1741.31,349.742 1741.97,376.049 1742.63,402.356 1743.29,426.332 1743.95,448.31 1744.62,472.619 1745.28,490.268 1745.94,501.257 1746.6,516.575 1747.26,522.902 1747.92,525.233 1748.58,525.233 1749.25,522.902 1749.91,518.573 1750.57,509.915 1751.23,505.586 1752.22,496.595 1752.88,487.937 1753.54,479.279 1754.21,470.288 1754.87,461.63 1755.53,452.639 1756.19,443.981 1756.85,437.321 1757.51,435.323 1758.17,428.663 1758.83,426.332 1759.5,426.332 1760.16,428.663 1760.82,428.663 1761.48,430.994 1762.14,435.323 1762.8,435.323 1763.46,437.321 1764.13,439.652 1764.79,439.652 1765.45,439.652 1766.11,439.652 1766.77,439.652 1767.43,439.652 1768.09,439.652 1769.09,439.652 1769.75,439.652 1770.41,439.652 1771.07,439.652 1772.06,439.652 1773.71,439.652 1774.38,439.652 1775.04,439.652 1775.7,439.652 1776.36,439.652 1777.02,439.652 1777.68,439.652 1778.67,439.652 1779.67,439.652 1780.33,439.652 1780.99,439.652 1781.65,439.652 1782.31,439.652 1782.97,439.652 1783.63,439.652 1784.3,439.652 1784.96,439.652 1785.62,439.652 1786.28,439.652 1786.94,439.652 1787.6,439.652 1788.26,439.652 1788.93,439.652 1789.59,439.652 1790.25,439.652 1790.91,439.652 1791.57,439.652 1792.23,439.652 1792.89,439.652 1793.55,439.652 1794.22,439.652 1794.88,439.652 1795.54,439.652 1796.2,439.652 1797.19,439.652 1797.85,437.321 1798.51,437.321 1799.18,437.321 1799.84,437.321 1800.5,439.652 1801.16,437.321 1801.82,439.652 1802.48,439.652 1803.14,437.321 1803.81,439.652 1804.47,439.652 1805.13,439.652 1805.79,439.652 1806.45,439.652 1807.11,439.652 1807.77,439.652 1808.43,439.652 1809.1,439.652 1809.76,439.652 1810.42,439.652 1811.08,439.652 1811.74,439.652 1812.4,439.652 1813.06,439.652 1813.73,439.652 1814.39,439.652 1815.05,439.652 1815.71,439.652 1816.37,439.652 1817.03,439.652 1818.69,439.652 1819.35,439.652 1820.34,439.652 1821,439.652 1821.66,439.652 1822.32,439.652 1822.98,439.652 1823.65,439.652 1824.31,439.652 1824.97,439.652 1825.63,439.652 1826.29,439.652 1826.95,439.652 1827.61,439.652 1828.27,439.652 1828.94,439.652 1829.6,439.652 1830.26,439.652 1830.92,439.652 1831.58,439.652 1832.24,439.652 1832.9,439.652 1833.57,439.652 1834.23,439.652 1834.89,439.652 1835.55,439.652 1836.21,439.652 1836.87,439.652 1837.53,439.652 1838.53,439.652 1839.19,439.652 1839.85,439.652 1840.51,439.652 1841.17,439.652 1841.83,439.652 1842.49,439.652 1843.15,439.652 1843.82,439.652 1844.48,439.652 1845.14,439.652 1845.8,439.652 1846.46,439.652 1847.12,439.652 1847.78,439.652 1848.45,439.652 1849.11,439.652 1850.1,439.652 1850.76,439.652 1851.42,439.652 1852.08,439.652 1852.74,439.652 1853.41,439.652 1854.07,439.652 1854.73,437.321 1855.39,439.652 1856.05,439.652 1856.71,439.652 1857.37,439.652 1858.03,439.652 1858.7,439.652 1859.36,439.652 1860.02,439.652 1860.68,439.652 1861.34,439.652 1862,437.321 1863.99,439.652 1864.65,439.652 1865.31,437.321 1865.97,439.652 1866.63,439.652 1867.29,439.652 1867.95,439.652 1868.62,439.652 1869.28,439.652 1869.94,439.652 1870.6,439.652 1871.92,439.652 1872.58,439.652 1873.25,439.652 1873.91,437.321 1874.57,437.321 1875.23,437.321 1875.89,439.652 1876.55,439.652 1877.21,439.652 1878.21,439.652 1878.87,439.652 1879.53,439.652 1880.19,437.321 1880.85,437.321 1881.51,437.321 1882.17,439.652 1882.83,439.652 1883.5,437.321 1884.49,437.321 1885.15,437.321 1885.81,437.321 1886.47,437.321 1887.13,437.321 1887.79,437.321 1888.46,437.321 1889.12,437.321 1889.78,437.321 1890.44,439.652 1891.1,437.321 1892.09,437.321 1892.75,437.321 1893.42,437.321 1894.08,437.321 1894.74,437.321 1895.4,439.652 1896.06,437.321 1896.72,437.321 1897.38,437.321 1898.05,439.652 1898.71,439.652 1899.37,437.321 1900.03,439.652 1900.69,439.652 1901.35,439.652 1902.01,439.652 1902.67,439.652 1903.34,437.321 1904,439.652 1904.66,439.652 1905.32,439.652 1905.98,439.652 1906.64,439.652 1907.3,439.652 1908.96,439.652 1909.62,439.652 1910.28,439.652 1911.27,439.652 1911.93,439.652 1912.59,439.652 1913.26,439.652 1913.92,439.652 1914.58,439.652 1915.24,439.652 1915.9,439.652 1916.56,439.652 1917.22,439.652 1917.89,439.652 1918.55,439.652 1919.21,439.652 1920.2,439.652 1920.86,439.652 1921.52,439.652 1922.18,439.652 1922.85,439.652 1923.51,439.652 1924.17,439.652 1924.83,439.652 1925.49,439.652 1926.15,439.652 1926.81,439.652 1927.47,439.652 1928.14,439.652 1928.8,439.652 1929.46,439.652 1930.12,439.652 1930.78,439.652 1931.77,443.981 1932.43,439.652 1933.1,439.652 1933.76,439.652 1934.42,439.652 1935.08,439.652 1935.74,439.652 1936.4,439.652 1937.06,439.652 1937.73,439.652 1938.39,443.981 1939.05,439.652 1939.71,439.652 1940.37,439.652 1941.03,439.652 1941.69,439.652 1942.35,439.652 1943.02,439.652 1943.68,439.652 1944.34,439.652 1945,439.652 1945.66,439.652 1946.32,439.652 1946.98,439.652 1947.65,439.652 1948.31,439.652 1948.97,439.652 1949.63,439.652 1950.29,439.652 1950.95,439.652 1951.61,439.652 1952.27,439.652 1953.93,439.652 1954.59,439.652 1955.25,439.652 1955.91,439.652 1956.57,439.652 1957.23,439.652 1957.9,439.652 1958.56,443.981 1959.22,439.652 1959.88,443.981 1960.87,439.652 1961.53,439.652 1962.19,439.652 1962.86,443.981 1963.52,443.981 1964.18,439.652 1964.84,439.652 1965.5,439.652 1966.16,439.652 1966.82,439.652 1967.49,439.652 1968.15,439.652 1969.14,443.981 1969.8,443.981 1970.46,443.981 1971.12,443.981 1971.78,443.981 1972.45,439.652 1973.11,439.652 1973.77,443.981 1974.43,443.981 1975.09,443.981 1975.75,443.981 1976.41,443.981 1977.07,439.652 1977.74,443.981 1978.73,439.652 1979.72,443.981 1980.38,443.981 1981.04,439.652 1981.7,443.981 1982.37,443.981 1983.03,443.981 1983.69,439.652 1984.35,439.652 1985.01,439.652 1985.67,439.652 1986.33,439.652 1986.99,443.981 1987.66,443.981 1988.32,443.981 1988.98,439.652 1989.64,439.652 1990.3,439.652 1990.96,439.652 1991.62,439.652 1992.29,439.652 1992.95,443.981 1993.61,439.652 1994.27,443.981 1994.93,443.981 1995.59,443.981 1996.25,443.981 1996.91,443.981 1997.58,443.981 1998.9,443.981 1999.56,443.981 2000.22,443.981 2000.88,443.981 2001.54,439.652 2002.21,439.652 2003.2,439.652 2003.86,443.981 2004.52,443.981 2005.18,443.981 2005.84,439.652 2006.83,439.652 2007.5,439.652 2008.16,439.652 2008.82,439.652 2009.48,439.652 2010.14,439.652 2010.8,439.652 2011.46,439.652 2012.13,439.652 2012.79,439.652 2013.45,439.652 2014.11,439.652 2014.77,439.652 2015.43,439.652 2016.09,439.652 2017.09,439.652 2017.75,443.981 2018.41,443.981 2019.07,439.652 2019.73,439.652 2020.39,439.652 2021.05,443.981 2021.71,443.981 2022.38,443.981 2023.04,439.652 2023.7,439.652 2024.36,439.652 2025.02,439.652 2025.68,439.652 2026.34,439.652 2027.01,439.652 2027.67,439.652 2028.66,439.652 2029.32,439.652 2029.98,439.652 2030.64,439.652 2031.3,439.652 2031.97,439.652 2032.63,439.652 2033.62,439.652 2034.28,439.652 2034.94,439.652 2035.6,439.652 2036.26,439.652 2036.93,439.652 2037.59,439.652 2038.25,439.652 2039.24,439.652 2039.9,439.652 2040.56,439.652 2041.22,439.652 2041.89,439.652 2042.55,439.652 2044.2,439.652 2044.86,439.652 2045.52,439.652 2046.18,439.652 2046.85,439.652 2047.51,439.652 2048.17,439.652 2048.83,439.652 2049.49,439.652 2050.15,439.652 2050.81,439.652 2051.47,439.652 2052.14,439.652 2052.8,439.652 " />
</g>

<g fill="none" stroke="#000000" stroke-opacity="1" stroke-dasharray="10,6" stroke-dashoffset="0" stroke-width="0.666667" stroke-linecap="butt" stroke-linejoin="round" transform="matrix(0.75,0,0,0.75,0,0)"
font-family="Helvetica" font-size="14" font-weight="700" font-style="normal" 
>
<polyline fill="none" vector-effect="none" points="333,924.5 333.661,924.5 334.323,924.5 334.984,924.5 335.645,924.5 336.307,924.5 336.968,924.5 337.629,924.5 338.291,924.5 338.952,924.5 339.613,924.5 340.275,924.5 340.936,924.5 341.597,924.5 342.259,924.5 342.92,924.5 343.581,924.5 344.243,924.5 344.904,924.5 345.565,924.5 346.557,924.5 347.219,924.5 347.88,924.5 348.872,924.5 349.533,924.5 350.195,924.5 350.856,924.5 351.517,924.5 352.179,924.5 352.84,924.5 353.501,924.5 354.163,924.5 354.824,924.5 355.485,924.5 356.147,924.5 356.808,924.5 357.469,924.5 358.131,924.5 358.792,924.5 359.453,924.5 360.445,924.5 361.107,924.5 361.768,924.5 362.429,924.5 363.091,924.5 363.752,924.5 364.413,924.5 365.075,924.5 365.736,924.5 366.397,924.5 367.059,924.5 367.72,924.5 368.381,924.5 369.043,924.5 369.704,924.5 370.365,924.5 371.027,924.5 371.688,924.5 372.349,924.5 373.011,924.5 373.672,924.5 374.333,924.5 376.317,924.5 376.979,924.5 377.64,924.5 378.301,924.5 378.963,924.5 379.624,924.5 380.285,924.5 380.947,924.5 381.939,924.5 382.6,924.5 382.931,924.5 383.592,924.5 384.584,924.5 385.245,924.5 385.907,924.5 386.568,924.5 387.229,924.5 387.891,924.5 388.552,924.5 389.213,924.5 389.875,924.5 390.536,924.5 391.197,924.5 391.859,924.5 392.52,924.5 393.181,924.5 393.843,924.5 394.504,924.5 395.165,924.5 395.827,924.5 396.488,924.5 397.48,924.5 398.141,924.5 398.803,924.5 399.464,758 400.125,758 400.787,758 401.448,758 402.109,758 402.771,758 403.432,758 404.093,758 404.755,758 405.416,758 406.408,758 407.069,758 407.731,758 408.392,758 409.053,758 409.715,758 410.376,758 411.037,758 411.699,758 412.36,758 413.021,758 413.683,758 414.344,758 415.005,758 415.667,758 416.328,758 416.989,758 417.651,758 418.312,758 418.973,758 419.965,758 421.619,758 422.28,758 422.941,758 423.603,758 424.264,758 424.925,758 425.587,758 426.248,758 426.909,758 427.571,758 428.232,758 428.893,758 429.555,758 430.216,758 430.877,758 431.539,758 432.531,758 433.192,758 433.853,758 434.515,758 435.176,758 435.837,758 436.499,758 437.16,758 437.821,758 438.483,758 439.144,758 439.805,758 440.467,758 441.128,758 441.789,758 442.451,758 443.112,758 443.773,758 444.765,758 445.427,758 446.088,758 446.749,758 447.411,758 448.072,758 448.733,758 449.395,758 450.056,758 450.717,758 451.379,758 452.04,758 452.701,758 453.363,758 454.024,758 454.685,758 455.347,758 456.339,758 457,758 457.661,758 458.323,758 458.984,758 459.645,758 460.307,758 460.968,758 461.629,758 462.291,758 462.952,758 463.944,758 464.605,758 465.267,758 466.259,758 466.92,758 467.581,758 468.243,758 468.904,758 469.565,758 470.227,758 470.888,758 471.549,758 472.211,758 472.872,758 473.864,758 474.525,758 475.187,758 475.848,758 476.509,758 477.171,758 477.832,758 478.493,758 479.485,758 480.147,758 480.808,758 481.469,758 482.131,758 482.792,758 483.453,758 484.115,758 484.776,758 485.437,758 486.099,758 486.76,758 487.421,758 488.083,758 488.744,758 489.405,758 490.067,758 490.728,758 491.389,758 492.051,758 492.712,758 493.373,758 494.035,758 494.696,758 495.357,758 496.349,758 497.011,758 497.672,758 498.333,758 498.995,758 499.656,758 500.317,758 500.979,758 501.64,758 502.301,758 502.963,758 503.624,758 504.285,758 504.947,758 505.608,758 506.269,758 506.931,758 507.592,758 508.253,758 508.915,758 509.576,758 510.237,758 512.221,758 512.883,758 513.544,758 514.205,758 514.867,758 515.528,758 516.189,758 516.851,758 517.512,758 518.173,758 519.165,758 519.827,758 520.488,758 521.149,758 521.811,758 522.472,758 523.133,758 524.125,758 524.787,758 525.448,758 526.109,758 526.771,758 527.432,758 528.093,758 528.755,758 529.416,758 530.077,758 530.739,758 531.731,758 532.392,758 533.053,758 533.715,758 534.376,758 535.037,758 535.699,758 536.691,758 537.352,758 538.013,758 538.675,758 539.336,758 539.997,758 540.659,758 541.32,758 541.981,758 542.643,758 543.304,758 543.965,758 544.627,758 545.288,758 545.949,758 546.611,758 547.272,758 547.933,758 548.595,758 549.256,758 549.917,758 550.579,758 551.24,758 551.901,758 552.563,758 553.224,758 553.885,758 554.547,758 555.208,758 556.531,758 557.192,758 557.853,758 558.515,758 559.176,758 559.837,758 560.499,758 561.491,758 562.152,758 562.813,758 563.475,758 564.136,758 564.797,758 565.459,758 566.12,758 566.781,758 567.443,758 568.104,758 568.765,758 569.427,758 570.088,758 570.749,758 571.411,758 572.072,758 572.733,758 573.395,758 574.056,758 574.717,758 575.379,758 576.04,758 576.701,758 577.363,758 578.024,758 578.685,758 579.347,758 580.339,758 581,758 581.661,758 582.323,758 582.984,758 583.645,758 584.307,758 584.968,758 585.629,758 586.291,758 586.952,758 587.613,758 588.275,758 588.936,758 589.597,758 590.259,758 590.92,758 591.581,758 592.243,758 592.904,758 593.565,758 594.227,758 594.888,758 595.549,758 596.211,758 596.872,758 597.533,758 598.195,758 599.187,758 599.848,758 601.832,758 602.493,758 603.155,758 603.816,758 604.477,758 605.139,758 605.8,758 606.461,758 607.123,758 607.784,758 608.445,758 609.107,758 609.768,758 610.429,758 611.091,758 611.752,758 612.413,758 613.075,758 613.736,758 614.397,758 615.059,758 615.72,758 616.712,758 617.373,758 618.035,758 618.696,758 619.357,758 620.019,758 620.68,758 621.341,758 622.003,758 622.664,758 623.325,758 623.987,758 624.648,758 625.309,758 625.971,758 626.632,758 627.624,758 628.285,758 628.947,758 629.608,758 630.269,758 630.931,758 631.592,758 632.253,758 632.915,758 633.576,758 634.237,758 634.899,758 635.56,758 636.221,758 636.883,758 637.544,758 638.205,758 638.867,758 639.528,758 640.189,758 640.851,758 641.512,758 642.504,758 643.165,758 643.827,758 644.488,758 645.149,758 645.811,758 646.472,758 647.133,758 647.795,758 648.456,758 649.448,758 650.109,758 650.771,758 651.432,758 652.093,758 653.085,758 653.747,758 654.408,758 655.069,758 655.731,758 656.392,758 657.053,758 657.715,758 658.376,758 659.037,758 659.699,758 660.36,758 661.021,758 661.683,758 662.344,758 663.005,758 663.667,758 664.659,758 665.32,758 665.981,758 666.643,758 667.304,758 667.965,758 668.627,758 669.288,758 669.949,758 670.611,758 671.272,758 671.933,758 672.595,758 673.256,758 673.917,758 674.579,758 675.24,758 675.901,758 676.563,758 677.224,758 677.885,758 678.547,758 679.208,758 680.2,758 680.861,758 681.523,758 682.184,758 682.845,758 683.507,758 684.499,758 685.16,758 685.821,758 686.483,758 687.144,758 687.805,758 688.467,758 689.128,758 689.789,758 690.451,758 691.112,758 691.773,758 692.765,758 693.427,758 694.088,758 694.749,758 695.411,758 696.072,758 696.733,758 697.395,758 698.056,758 698.717,758 699.379,758 700.04,758 700.701,758 701.363,758 702.024,758 702.685,758 703.347,758 704.008,758 704.669,758 705.331,758 705.992,758 706.984,758 707.645,758 708.307,758 708.968,758 709.629,758 710.291,758 710.952,758 711.613,758 712.275,758 712.936,758 713.597,758 714.259,758 715.251,758 715.912,758 716.573,758 717.235,758 717.896,758 718.557,758 719.219,758 719.88,758 720.541,758 721.203,758 721.864,758 722.525,758 723.187,758 723.848,758 724.509,758 725.171,758 725.832,758 726.493,758 727.155,758 727.816,758 728.477,758 729.139,758 729.8,1091 730.461,1091 731.123,1091 731.784,1091 732.776,1091 733.437,1091 734.099,1091 734.76,1091 736.744,1091 737.405,1091 738.067,1091 738.728,1091 739.389,1091 740.051,1091 740.712,1091 741.373,1091 742.365,1091 743.027,1091 743.688,1091 744.349,1091 745.011,1091 745.672,1091 746.333,1091 746.995,1091 747.656,1091 748.317,1091 748.979,1091 749.64,1091 750.301,1091 750.963,1091 751.624,1091 752.285,1091 752.947,1091 753.608,1091 754.269,1091 754.931,1091 755.592,1091 756.253,1091 757.245,1091 757.907,1091 758.568,1091 759.229,1091 759.891,1091 760.552,1091 761.213,1091 761.875,1091 762.536,1091 763.197,1091 763.859,1091 764.52,1091 765.181,1091 765.843,1091 766.504,1091 767.165,1091 768.157,1091 768.819,1091 769.48,1091 770.141,1091 770.803,1091 771.464,1091 772.125,1091 772.787,1091 773.448,1091 774.109,1091 774.771,1091 775.432,1091 776.093,1091 776.755,1091 777.416,1091 778.077,1091 778.739,1091 779.4,1091 780.061,1091 780.723,1091 782.045,1091 782.707,1091 783.368,1091 784.029,1091 784.691,1091 785.352,1091 786.013,1091 787.005,1091 787.667,1091 788.328,1091 788.989,1091 789.651,1091 790.312,1091 790.973,1091 791.635,1091 792.296,1091 792.957,1091 793.619,1091 794.28,1091 794.941,1091 795.603,1091 796.264,1091 797.256,1091 797.917,1091 798.579,1091 799.24,1091 799.901,1091 800.563,1091 801.224,1091 801.885,1091 802.547,1091 803.539,1091 804.2,1091 804.861,1091 805.523,1091 806.184,1091 806.845,1091 807.507,1091 808.168,1091 808.829,1091 809.491,1091 810.152,1091 811.144,1091 811.805,1091 812.467,1091 813.128,1091 813.789,1091 814.451,1091 815.112,1091 815.773,1091 816.435,1091 817.096,1091 817.757,1091 818.419,1091 819.08,1091 819.741,1091 820.403,1091 821.064,1091 822.056,1091 822.717,1091 823.379,1091 824.04,1091 824.701,1091 825.363,1091 826.024,1091 827.347,1091 828.008,1091 828.669,1091 829.331,1091 829.992,1091 830.653,1091 831.645,1091 832.307,1091 832.968,1091 833.629,1091 834.291,1091 834.952,1091 835.613,1091 836.275,1091 836.936,1091 837.597,1091 838.259,1091 838.92,1091 839.581,1091 840.243,1091 840.904,1091 841.565,1091 842.227,1091 842.888,1091 843.549,1091 844.211,1091 844.872,1091 845.864,1091 846.525,1091 847.187,1091 847.848,1091 848.509,1091 849.171,1091 849.832,1091 850.493,1091 851.155,1091 851.816,1091 852.477,1091 853.139,1091 853.8,1091 854.461,1091 855.123,1091 855.784,1091 856.445,1091 857.107,1091 857.768,1091 858.429,1091 859.091,1091 859.752,1091 860.413,1091 861.075,1091 861.736,1091 862.397,1091 863.389,1091 864.051,1091 864.712,1091 865.373,1091 866.035,1091 866.696,1091 867.357,1091 868.019,1091 868.68,1091 869.341,1091 870.003,1091 870.664,1091 872.317,1091 872.979,1091 873.64,1091 874.301,1091 874.963,1091 875.624,1091 876.285,1091 876.947,1091 877.939,1091 878.6,1091 879.261,1091 879.923,1091 880.584,1091 881.245,1091 881.907,1091 882.568,1091 883.229,1091 883.891,1091 884.552,1091 885.213,1091 885.875,1091 886.536,1091 887.197,1091 887.859,1091 888.52,1091 889.181,1091 889.843,1091 890.504,1091 891.165,1091 891.827,1091 892.488,1091 893.48,1091 894.141,1091 894.803,1091 895.464,1091 896.125,1091 896.787,1091 897.448,1091 898.109,1091 898.771,1091 899.432,1091 900.093,1091 900.755,1091 901.416,1091 902.077,1091 902.739,1091 903.731,1091 904.392,1091 905.053,1091 905.715,1091 906.376,1091 907.037,1091 907.699,1091 908.36,1091 909.021,1091 909.683,1091 910.344,1091 911.005,1091 911.667,1091 912.328,1091 912.989,1091 913.651,1091 914.312,1091 914.973,1091 916.957,1091 917.949,1091 918.611,1091 919.272,1091 919.933,1091 920.595,1091 921.256,1091 921.917,1091 922.579,1091 923.24,1091 923.901,1091 924.563,1091 925.224,1091 925.885,1091 926.547,1091 927.208,1091 927.869,1091 928.531,1091 929.192,1091 929.853,1091 930.515,1091 931.176,1091 932.168,1091 932.829,1091 933.491,1091 934.152,1091 934.813,1091 935.805,1091 936.467,1091 937.128,1091 937.789,1091 938.451,1091 939.112,1091 939.773,1091 940.435,1091 941.096,1091 941.757,1091 942.419,1091 943.08,1091 943.741,1091 944.403,1091 945.064,1091 945.725,1091 946.717,1091 947.379,1091 948.04,1091 948.701,1091 949.363,1091 950.024,1091 950.685,1091 951.347,1091 952.008,1091 952.669,1091 953.331,1091 953.992,1091 954.653,1091 955.315,1091 955.976,1091 956.637,1091 957.299,1091 957.96,1091 958.621,1091 959.283,1091 960.275,1091 962.259,1091 962.92,1091 963.912,1091 964.573,1091 965.235,1091 966.227,1091 966.888,1091 967.549,1091 968.211,1091 968.872,1091 969.533,1091 970.525,1091 971.187,1091 971.848,1091 972.509,1091 973.171,1091 973.832,1091 974.493,1091 975.155,1091 975.816,1091 976.477,1091 977.139,1091 977.8,1091 978.461,1091 979.123,1091 979.784,1091 980.445,1091 981.107,1091 981.768,1091 982.429,1091 983.091,1091 983.752,1091 984.413,1091 985.405,1091 986.067,1091 986.728,1091 987.389,1091 988.051,1091 988.712,1091 989.373,1091 990.035,1091 990.696,1091 991.357,1091 992.019,1091 992.68,1091 993.341,1091 994.003,1091 994.664,1091 995.325,1091 995.987,1091 996.648,1091 997.309,1091 997.971,1091 998.632,1091 999.293,1091 999.955,1091 1000.62,1091 1001.61,1091 1002.27,1091 1002.93,1091 1003.59,1091 1004.25,1091 1004.91,1091 1005.58,1091 1007.23,1091 1007.89,1091 1008.55,1091 1009.21,1091 1009.87,1091 1010.54,1091 1011.2,1091 1011.86,1091 1012.52,1091 1013.18,1091 1013.84,1091 1014.5,1091 1015.17,1091 1015.83,1091 1016.49,1091 1017.15,1091 1017.81,1091 1018.47,1091 1019.13,1091 1020.13,1091 1020.79,1091 1021.45,1091 1022.11,1091 1022.77,1091 1023.43,1091 1024.09,1091 1024.75,1091 1025.42,1091 1026.08,1091 1026.74,1091 1027.4,1091 1028.39,1091 1029.05,1091 1029.71,1091 1030.38,1091 1031.04,1091 1031.7,1091 1032.36,1091 1033.02,1091 1033.68,1091 1034.34,1091 1035.01,1091 1035.67,1091 1036.33,1091 1036.99,1091 1037.65,1091 1038.31,1091 1038.97,1091 1039.63,1091 1040.3,1091 1040.96,1091 1041.62,1091 1042.28,1091 1042.94,1091 1043.6,1091 1044.26,1091 1045.26,1091 1045.92,1091 1046.58,1091 1047.24,1091 1047.9,1091 1048.56,1091 1049.22,1091 1049.89,1091 1050.55,1091 1051.21,1091 1052.53,1091 1053.19,1091 1053.85,1091 1054.51,1091 1055.18,1091 1055.84,1091 1056.5,1091 1057.49,1091 1058.15,1091 1058.81,1091 1059.47,1091 1060.14,1091 1060.8,758 1061.46,758 1062.12,758 1062.78,758 1063.44,758 1064.1,758 1064.77,758 1065.43,758 1066.09,758 1066.75,758 1067.41,758 1068.07,758 1068.73,758 1069.73,758 1070.39,758 1071.05,758 1071.71,758 1072.37,758 1073.03,758 1073.69,758 1074.35,758 1075.02,758 1075.68,758 1076.34,758 1077,758 1077.66,758 1078.32,758 1078.98,758 1079.65,758 1080.31,758 1080.97,758 1081.63,758 1082.29,758 1082.95,758 1083.61,758 1084.27,758 1084.94,758 1085.6,758 1086.26,758 1087.25,758 1087.91,758 1088.57,758 1089.23,758 1089.9,758 1090.56,758 1091.22,758 1091.88,758 1092.54,758 1093.2,758 1093.86,758 1094.53,758 1095.19,758 1095.85,758 1097.17,758 1097.83,758 1098.49,758 1099.15,758 1099.82,758 1100.48,758 1101.14,758 1101.8,758 1102.46,758 1103.12,758 1103.78,758 1104.45,758 1105.11,758 1105.77,758 1106.43,758 1107.09,758 1108.08,758 1108.74,758 1109.41,758 1110.07,758 1110.73,758 1111.39,758 1112.05,758 1112.71,758 1113.37,758 1114.03,758 1114.7,758 1115.36,758 1116.02,758 1116.68,758 1117.34,758 1118,758 1118.66,758 1119.33,758 1119.99,758 1120.65,758 1121.31,758 1121.97,758 1122.63,758 1123.29,758 1123.95,758 1124.62,758 1125.28,758 1125.94,758 1126.6,758 1127.26,758 1127.92,758 1128.58,758 1129.25,758 1130.24,758 1130.9,758 1131.56,758 1132.22,758 1132.88,758 1133.54,758 1134.21,758 1134.87,758 1135.53,758 1136.19,758 1136.85,758 1137.51,758 1138.17,758 1138.83,758 1139.5,758 1140.16,758 1140.82,758 1141.48,758 1142.14,758 1142.8,758 1143.46,758 1144.13,758 1144.79,758 1145.45,758 1146.11,758 1146.77,758 1147.43,758 1148.09,758 1148.75,758 1149.42,758 1150.08,758 1150.74,758 1151.4,758 1152.06,758 1152.72,758 1153.38,758 1154.05,758 1154.71,758 1155.37,758 1156.03,758 1156.69,758 1157.35,758 1158.01,758 1158.67,758 1159.34,758 1160,758 1160.66,758 1161.32,758 1161.98,758 1162.64,758 1163.3,758 1163.97,758 1164.63,758 1165.29,758 1165.95,758 1166.61,758 1167.27,758 1167.93,758 1168.93,758 1169.59,758 1170.25,758 1170.91,758 1171.57,758 1172.23,758 1172.89,758 1173.89,758 1174.55,758 1175.21,758 1175.87,758 1176.53,758 1177.19,758 1177.85,758 1178.51,758 1179.18,758 1179.84,758 1180.5,758 1181.16,758 1181.82,758 1182.48,758 1183.14,758 1183.81,758 1184.47,758 1185.46,758 1186.12,758 1187.77,758 1188.43,758 1189.1,758 1189.76,758 1190.42,758 1191.08,758 1191.74,758 1192.4,758 1193.06,758 1193.73,758 1194.39,758 1195.38,758 1196.04,758 1196.7,758 1197.36,758 1198.02,758 1198.69,758 1199.35,758 1200.01,758 1200.67,758 1201.33,758 1201.99,758 1202.65,758 1203.98,758 1204.64,758 1205.3,758 1206.29,758 1206.95,758 1207.61,758 1208.27,758 1208.94,758 1209.6,758 1210.26,758 1210.92,758 1211.58,758 1212.24,758 1212.9,758 1213.57,758 1214.56,758 1215.22,758 1215.88,758 1216.54,758 1217.2,758 1217.86,758 1218.53,758 1219.19,758 1219.85,758 1220.51,758 1221.17,758 1221.83,758 1222.49,758 1223.49,758 1224.15,758 1224.81,758 1225.47,758 1226.13,758 1226.79,758 1227.45,758 1228.11,758 1228.78,758 1229.44,758 1230.1,758 1230.76,758 1233.07,758 1233.74,758 1234.4,758 1235.06,758 1235.72,758 1236.38,758 1237.04,758 1237.7,758 1238.37,758 1239.03,758 1239.69,758 1240.35,758 1241.01,758 1241.67,758 1242.33,758 1242.99,758 1243.66,758 1244.32,758 1244.98,758 1245.64,758 1246.63,758 1247.29,758 1247.95,758 1248.62,758 1249.28,758 1249.94,758 1250.6,758 1251.26,758 1251.92,758 1252.58,758 1253.25,758 1253.91,758 1254.57,758 1255.23,758 1255.89,758 1256.55,758 1257.21,758 1257.87,758 1258.87,758 1259.53,758 1260.19,758 1260.85,758 1261.51,758 1262.17,758 1262.83,758 1263.5,758 1264.16,758 1264.82,758 1265.48,758 1266.14,758 1266.8,758 1267.46,758 1268.13,758 1268.79,758 1269.45,758 1270.11,758 1270.77,758 1271.43,758 1272.09,758 1272.75,758 1273.75,758 1274.41,758 1275.07,758 1275.73,758 1276.39,758 1278.05,758 1278.71,758 1279.37,758 1280.03,758 1280.69,758 1281.35,758 1282.01,758 1282.67,758 1283.34,758 1284,758 1284.66,758 1285.32,758 1285.98,758 1286.64,758 1287.3,758 1287.97,758 1288.63,758 1289.29,758 1289.95,758 1290.61,758 1291.27,758 1291.93,758 1292.59,758 1293.26,758 1293.92,758 1294.58,758 1295.24,758 1296.23,758 1296.89,758 1297.55,758 1298.22,758 1298.88,758 1299.54,758 1300.2,758 1300.86,758 1301.52,758 1302.18,758 1302.85,758 1303.84,758 1304.5,758 1305.16,758 1305.82,758 1306.48,758 1307.14,758 1307.81,758 1308.47,758 1309.13,758 1309.79,758 1310.45,758 1311.11,758 1311.77,758 1312.43,758 1313.1,758 1313.76,758 1314.42,758 1315.08,758 1316.07,758 1316.73,758 1317.39,758 1318.06,758 1318.72,758 1319.38,758 1320.04,758 1320.7,758 1321.36,758 1323.02,758 1323.68,758 1324.67,758 1325.33,758 1325.99,758 1326.65,758 1327.31,758 1327.98,758 1328.64,758 1329.3,758 1329.96,758 1330.62,758 1331.28,758 1331.94,758 1332.61,758 1333.27,758 1333.93,758 1334.59,758 1335.25,758 1336.24,758 1336.9,758 1337.57,758 1338.23,758 1339.22,758 1339.88,758 1340.54,758 1341.2,758 1341.86,758 1342.53,758 1343.19,758 1343.85,758 1344.51,758 1345.17,758 1345.83,758 1346.49,758 1347.15,758 1347.82,758 1348.48,758 1349.14,758 1349.8,758 1350.46,758 1351.12,758 1351.78,758 1352.45,758 1353.11,758 1353.77,758 1354.43,758 1355.42,758 1356.08,758 1356.74,758 1357.41,758 1358.07,758 1358.73,758 1359.39,758 1360.05,758 1360.71,758 1361.37,758 1362.03,758 1362.7,758 1363.36,758 1364.02,758 1364.68,758 1365.67,758 1366.33,758 1368.32,758 1368.98,758 1369.64,758 1370.3,758 1370.96,758 1371.62,758 1372.29,758 1372.95,758 1373.61,758 1374.27,758 1374.93,758 1375.59,758 1376.25,758 1377.25,758 1377.91,758 1378.57,758 1379.23,758 1379.89,758 1380.55,758 1381.21,758 1381.87,758 1382.54,758 1383.2,758 1383.86,758 1384.52,758 1385.18,758 1385.84,758 1386.5,758 1387.5,758 1388.16,758 1388.82,758 1389.48,758 1390.14,758 1390.8,1091 1391.46,1091 1392.13,1091 1392.79,1091 1393.45,1091 1394.11,1091 1394.77,1091 1395.43,1091 1396.09,1091 1396.75,1091 1397.42,1091 1398.08,1091 1398.74,1091 1399.4,1091 1400.39,1091 1401.05,1091 1401.71,1091 1402.38,1091 1403.37,1091 1404.03,1091 1404.69,1091 1405.35,1091 1406.01,1091 1406.67,1091 1407.34,1091 1408,1091 1408.66,1091 1409.65,1091 1410.31,1091 1410.97,1091 1411.63,1091 1412.96,1091 1413.62,1091 1414.28,1091 1414.94,1091 1415.6,1091 1416.26,1091 1416.93,1091 1417.59,1091 1418.25,1091 1418.91,1091 1419.57,1091 1420.23,1091 1421.22,1091 1421.89,1091 1422.55,1091 1423.21,1091 1423.87,1091 1424.53,1091 1425.19,1091 1425.85,1091 1426.51,1091 1427.18,1091 1427.84,1091 1428.5,1091 1429.16,1091 1429.82,1091 1430.48,1091 1431.14,1091 1431.81,1091 1432.47,1091 1433.13,1091 1433.79,1091 1434.45,1091 1435.11,1091 1435.77,1091 1436.43,1091 1437.1,1091 1437.76,1091 1438.42,1091 1439.08,1091 1439.74,1091 1440.4,1091 1441.06,1091 1441.73,1091 1442.39,1091 1443.05,1091 1443.71,1091 1444.37,1091 1445.03,1091 1445.69,1091 1446.35,1091 1447.02,1091 1447.68,1091 1448.34,1091 1449,1091 1449.66,1091 1450.32,1091 1450.98,1091 1451.65,1091 1452.31,1091 1453.3,1091 1453.96,1091 1454.62,1091 1455.28,1091 1455.94,1091 1456.61,1091 1458.26,1091 1458.92,1091 1459.58,1091 1460.24,1091 1460.9,1091 1461.57,1091 1462.23,1091 1462.89,1091 1463.55,1091 1464.21,1091 1464.87,1091 1465.53,1091 1466.19,1091 1467.19,1091 1467.85,1091 1468.51,1091 1469.17,1091 1469.83,1091 1470.49,1091 1471.15,1091 1471.82,1091 1472.48,1091 1473.14,1091 1473.8,1091 1474.46,1091 1475.12,1091 1475.78,1091 1476.45,1091 1477.11,1091 1477.77,1091 1478.43,1091 1479.09,1091 1479.75,1091 1480.41,1091 1481.07,1091 1481.74,1091 1482.4,1091 1483.06,1091 1483.72,1091 1484.38,1091 1485.04,1091 1485.7,1091 1486.37,1091 1487.03,1091 1487.69,1091 1488.35,1091 1489.01,1091 1489.67,1091 1490.33,1091 1490.99,1091 1491.66,1091 1492.32,1091 1493.31,1091 1493.97,1091 1494.63,1091 1495.29,1091 1495.95,1091 1496.62,1091 1497.28,1091 1497.94,1091 1498.6,1091 1499.26,1091 1499.92,1091 1500.58,1091 1501.25,1091 1501.91,1091 1503.23,1091 1503.89,1091 1504.88,1091 1505.54,1091 1506.21,1091 1506.87,1091 1507.53,1091 1508.19,1091 1508.85,1091 1509.51,1091 1510.17,1091 1510.83,1091 1511.5,1091 1512.16,1091 1512.82,1091 1513.48,1091 1514.14,1091 1514.8,1091 1515.46,1091 1516.13,1091 1516.79,1091 1517.45,1091 1518.11,1091 1518.77,1091 1519.76,1091 1520.42,1091 1521.09,1091 1521.75,1091 1522.41,1091 1523.07,1091 1523.73,1091 1524.39,1091 1525.05,1091 1526.05,1091 1526.71,1091 1527.37,1091 1528.03,1091 1528.69,1091 1529.35,1091 1530.01,1091 1530.67,1091 1531.34,1091 1532,1091 1532.66,1091 1533.32,1091 1533.98,1091 1534.64,1091 1535.3,1091 1536.3,1091 1536.96,1091 1537.62,1091 1538.28,1091 1538.94,1091 1539.6,1091 1540.26,1091 1540.93,1091 1541.59,1091 1542.25,1091 1542.91,1091 1543.57,1091 1544.23,1091 1544.89,1091 1545.55,1091 1546.22,1091 1548.2,1091 1548.86,1091 1549.52,1091 1550.18,1091 1550.85,1091 1551.51,1091 1552.17,1091 1553.16,1091 1553.82,1091 1554.48,1091 1555.14,1091 1555.81,1091 1556.47,1091 1557.13,1091 1557.79,1091 1558.45,1091 1559.11,1091 1559.77,1091 1560.43,1091 1561.1,1091 1561.76,1091 1562.42,1091 1563.08,1091 1563.74,1091 1564.4,1091 1565.06,1091 1565.73,1091 1566.39,1091 1567.05,1091 1567.71,1091 1568.37,1091 1569.03,1091 1569.69,1091 1570.35,1091 1571.02,1091 1571.68,1091 1572.34,1091 1573,1091 1573.66,1091 1574.32,1091 1574.98,1091 1575.65,1091 1576.31,1091 1576.97,1091 1577.63,1091 1578.29,1091 1578.95,1091 1579.61,1091 1580.27,1091 1580.94,1091 1581.6,1091 1582.26,1091 1582.92,1091 1583.91,1091 1584.57,1091 1585.23,1091 1585.9,1091 1586.56,1091 1587.22,1091 1587.88,1091 1588.54,1091 1589.2,1091 1589.86,1091 1590.53,1091 1591.19,1091 1591.85,1091 1593.17,1091 1593.83,1091 1594.49,1091 1595.49,1091 1596.15,1091 1596.81,1091 1597.47,1091 1598.13,1091 1598.79,1091 1599.45,1091 1600.11,1091 1600.78,1091 1601.44,1091 1602.1,1091 1603.09,1091 1603.75,1091 1604.41,1091 1605.07,1091 1605.74,1091 1606.4,1091 1607.06,1091 1607.72,1091 1608.38,1091 1609.04,1091 1609.7,1091 1610.37,1091 1611.03,1091 1611.69,1091 1612.35,1091 1613.01,1091 1613.67,1091 1614.33,1091 1614.99,1091 1615.66,1091 1616.32,1091 1616.98,1091 1617.97,1091 1618.63,1091 1619.29,1091 1619.95,1091 1620.62,1091 1621.28,1091 1621.94,1091 1622.6,1091 1623.26,1091 1623.92,1091 1624.58,1091 1625.25,1091 1625.91,1091 1626.57,1091 1627.23,1091 1627.89,1091 1628.55,1091 1629.21,1091 1629.87,1091 1630.54,1091 1631.2,1091 1631.86,1091 1632.52,1091 1633.18,1091 1633.84,1091 1634.5,1091 1635.17,1091 1635.83,1091 1636.49,1091 1637.15,1091 1638.47,1091 1639.13,1091 1639.79,1091 1640.46,1091 1641.12,1091 1641.78,1091 1642.44,1091 1643.1,1091 1643.76,1091 1644.42,1091 1645.42,1091 1646.08,1091 1646.74,1091 1647.4,1091 1648.06,1091 1648.72,1091 1649.38,1091 1650.05,1091 1650.71,1091 1651.37,1091 1652.03,1091 1652.69,1091 1653.68,1091 1654.34,1091 1655.01,1091 1655.67,1091 1656.33,1091 1656.99,1091 1657.65,1091 1658.31,1091 1658.97,1091 1659.63,1091 1660.3,1091 1660.96,1091 1661.62,1091 1662.28,1091 1662.94,1091 1663.6,1091 1664.26,1091 1664.93,1091 1665.59,1091 1666.25,1091 1666.91,1091 1667.57,1091 1668.23,1091 1668.89,1091 1669.55,1091 1670.22,1091 1670.88,1091 1671.54,1091 1672.53,1091 1673.19,1091 1673.85,1091 1674.51,1091 1675.18,1091 1675.84,1091 1676.5,1091 1677.16,1091 1677.82,1091 1678.48,1091 1679.14,1091 1679.81,1091 1680.47,1091 1681.13,1091 1681.79,1091 1683.44,1091 1684.1,1091 1685.1,1091 1685.76,1091 1686.42,1091 1687.08,1091 1687.74,1091 1688.4,1091 1689.06,1091 1689.73,1091 1690.39,1091 1691.05,1091 1691.71,1091 1692.37,1091 1693.03,1091 1693.69,1091 1694.35,1091 1695.02,1091 1695.68,1091 1696.34,1091 1697,1091 1697.66,1091 1698.32,1091 1698.98,1091 1699.65,1091 1700.31,1091 1700.97,1091 1701.63,1091 1702.29,1091 1702.95,1091 1703.94,1091 1704.61,1091 1705.27,1091 1705.6,1091 1706.26,1091 1707.25,1091 1707.91,1091 1708.57,1091 1709.23,1091 1709.9,1091 1710.56,1091 1711.22,1091 1711.88,1091 1712.54,1091 1713.2,1091 1713.86,1091 1714.53,1091 1715.19,1091 1715.85,1091 1716.51,1091 1717.17,1091 1717.83,1091 1718.49,1091 1719.49,1091 1720.15,1091 1720.81,1091 1721.47,1091 1722.13,758 1722.79,758 1723.45,758 1724.11,758 1724.78,758 1725.44,758 1726.1,758 1726.76,758 1727.42,758 1728.74,758 1729.41,758 1730.07,758 1730.73,758 1731.39,758 1732.05,758 1732.71,758 1733.37,758 1734.03,758 1734.7,758 1735.36,758 1736.02,758 1736.68,758 1737.34,758 1738,758 1738.66,758 1739.33,758 1739.99,758 1740.65,758 1741.31,758 1741.97,758 1742.63,758 1743.29,758 1743.95,758 1744.62,758 1745.28,758 1745.94,758 1746.6,758 1747.26,758 1747.92,758 1748.58,758 1749.25,758 1749.91,758 1750.57,758 1751.23,758 1752.22,758 1752.88,758 1753.54,758 1754.21,758 1754.87,758 1755.53,758 1756.19,758 1756.85,758 1757.51,758 1758.17,758 1758.83,758 1759.5,758 1760.16,758 1760.82,758 1761.48,758 1762.14,758 1762.8,758 1763.46,758 1764.13,758 1764.79,758 1765.45,758 1766.11,758 1766.77,758 1767.43,758 1768.09,758 1769.09,758 1769.75,758 1770.41,758 1771.07,758 1772.06,758 1773.71,758 1774.38,758 1775.04,758 1775.7,758 1776.36,758 1777.02,758 1777.68,758 1778.67,758 1779.67,758 1780.33,758 1780.99,758 1781.65,758 1782.31,758 1782.97,758 1783.63,758 1784.3,758 1784.96,758 1785.62,758 1786.28,758 1786.94,758 1787.6,758 1788.26,758 1788.93,758 1789.59,758 1790.25,758 1790.91,758 1791.57,758 1792.23,758 1792.89,758 1793.55,758 1794.22,758 1794.88,758 1795.54,758 1796.2,758 1797.19,758 1797.85,758 1798.51,758 1799.18,758 1799.84,758 1800.5,758 1801.16,758 1801.82,758 1802.48,758 1803.14,758 1803.81,758 1804.47,758 1805.13,758 1805.79,758 1806.45,758 1807.11,758 1807.77,758 1808.43,758 1809.1,758 1809.76,758 1810.42,758 1811.08,758 1811.74,758 1812.4,758 1813.06,758 1813.73,758 1814.39,758 1815.05,758 1815.71,758 1816.37,758 1817.03,758 1818.69,758 1819.35,758 1820.34,758 1821,758 1821.66,758 1822.32,758 1822.98,758 1823.65,758 1824.31,758 1824.97,758 1825.63,758 1826.29,758 1826.95,758 1827.61,758 1828.27,758 1828.94,758 1829.6,758 1830.26,758 1830.92,758 1831.58,758 1832.24,758 1832.9,758 1833.57,758 1834.23,758 1834.89,758 1835.55,758 1836.21,758 1836.87,758 1837.53,758 1838.53,758 1839.19,758 1839.85,758 1840.51,758 1841.17,758 1841.83,758 1842.49,758 1843.15,758 1843.82,758 1844.48,758 1845.14,758 1845.8,758 1846.46,758 1847.12,758 1847.78,758 1848.45,758 1849.11,758 1850.1,758 1850.76,758 1851.42,758 1852.08,758 1852.74,758 1853.41,758 1854.07,758 1854.73,758 1855.39,758 1856.05,758 1856.71,758 1857.37,758 1858.03,758 1858.7,758 1859.36,758 1860.02,758 1860.68,758 1861.34,758 1862,758 1863.99,758 1864.65,758 1865.31,758 1865.97,758 1866.63,758 1867.29,758 1867.95,758 1868.62,758 1869.28,758 1869.94,758 1870.6,758 1871.92,758 1872.58,758 1873.25,758 1873.91,758 1874.57,758 1875.23,758 1875.89,758 1876.55,758 1877.21,758 1878.21,758 1878.87,758 1879.53,758 1880.19,758 1880.85,758 1881.51,758 1882.17,758 1882.83,758 1883.5,758 1884.49,758 1885.15,758 1885.81,758 1886.47,758 1887.13,758 1887.79,758 1888.46,758 1889.12,758 1889.78,758 1890.44,758 1891.1,758 1892.09,758 1892.75,758 1893.42,758 1894.08,758 1894.74,758 1895.4,758 1896.06,758 1896.72,758 1897.38,758 1898.05,758 1898.71,758 1899.37,758 1900.03,758 1900.69,758 1901.35,758 1902.01,758 1902.67,758 1903.34,758 1904,758 1904.66,758 1905.32,758 1905.98,758 1906.64,758 1907.3,758 1908.96,758 1909.62,758 1910.28,758 1911.27,758 1911.93,758 1912.59,758 1913.26,758 1913.92,758 1914.58,758 1915.24,758 1915.9,758 1916.56,758 1917.22,758 1917.89,758 1918.55,758 1919.21,758 1920.2,758 1920.86,758 1921.52,758 1922.18,758 1922.85,758 1923.51,758 1924.17,758 1924.83,758 1925.49,758 1926.15,758 1926.81,758 1927.47,758 1928.14,758 1928.8,758 1929.46,758 1930.12,758 1930.78,758 1931.77,758 1932.43,758 1933.1,758 1933.76,758 1934.42,758 1935.08,758 1935.74,758 1936.4,758 1937.06,758 1937.73,758 1938.39,758 1939.05,758 1939.71,758 1940.37,758 1941.03,758 1941.69,758 1942.35,758 1943.02,758 1943.68,758 1944.34,758 1945,758 1945.66,758 1946.32,758 1946.98,758 1947.65,758 1948.31,758 1948.97,758 1949.63,758 1950.29,758 1950.95,758 1951.61,758 1952.27,758 1953.93,758 1954.59,758 1955.25,758 1955.91,758 1956.57,758 1957.23,758 1957.9,758 1958.56,758 1959.22,758 1959.88,758 1960.87,758 1961.53,758 1962.19,758 1962.86,758 1963.52,758 1964.18,758 1964.84,758 1965.5,758 1966.16,758 1966.82,758 1967.49,758 1968.15,758 1969.14,758 1969.8,758 1970.46,758 1971.12,758 1971.78,758 1972.45,758 1973.11,758 1973.77,758 1974.43,758 1975.09,758 1975.75,758 1976.41,758 1977.07,758 1977.74,758 1978.73,758 1979.72,758 1980.38,758 1981.04,758 1981.7,758 1982.37,758 1983.03,758 1983.69,758 1984.35,758 1985.01,758 1985.67,758 1986.33,758 1986.99,758 1987.66,758 1988.32,758 1988.98,758 1989.64,758 1990.3,758 1990.96,758 1991.62,758 1992.29,758 1992.95,758 1993.61,758 1994.27,758 1994.93,758 1995.59,758 1996.25,758 1996.91,758 1997.58,758 1998.9,758 1999.56,758 2000.22,758 2000.88,758 2001.54,758 2002.21,758 2003.2,758 2003.86,758 2004.52,758 2005.18,758 2005.84,758 2006.83,758 2007.5,758 2008.16,758 2008.82,758 2009.48,758 2010.14,758 2010.8,758 2011.46,758 2012.13,758 2012.79,758 2013.45,758 2014.11,758 2014.77,758 2015.43,758 2016.09,758 2017.09,758 2017.75,758 2018.41,758 2019.07,758 2019.73,758 2020.39,758 2021.05,758 2021.71,758 2022.38,758 2023.04,758 2023.7,758 2024.36,758 2025.02,758 2025.68,758 2026.34,758 2027.01,758 2027.67,758 2028.66,758 2029.32,758 2029.98,758 2030.64,758 2031.3,758 2031.97,758 2032.63,758 2033.62,758 2034.28,758 2034.94,758 2035.6,758 2036.26,758 2036.93,758 2037.59,758 2038.25,758 2039.24,758 2039.9,758 2040.56,758 2041.22,758 2041.89,758 2042.55,758 2044.2,758 2044.86,758 2045.52,758 2046.18,758 2046.85,758 2047.51,758 2048.17,758 2048.83,758 2049.49,758 2050.15,758 2050.81,758 2051.47,758 2052.14,758 2052.8,758 " />
</g>

<g fill="#ffffff" fill-opacity="1" stroke="none" transform="matrix(7.5e-05,0,0,7.5e-05,0,0)"
font-family="Helvetica" font-size="14" font-weight="700" font-style="normal" 
>
<path vector-effect="none" fill-rule="evenodd" d="M2.248e+07,1.048e+07 L2.248e+07,1.08e+07 L2.306e+07,1.08e+07 L2.306e+07,1.048e+07 L2.248e+07,1.048e+07"/>
</g>

<g fill="#1171be" fill-opacity="1" stroke="#1171be" stroke-opacity="1" stroke-width="0.666667" stroke-linecap="butt" stroke-linejoin="round" transform="matrix(0.75,0,0,0.75,0,0)"
font-family="Helvetica" font-size="14" font-weight="700" font-style="normal" 
>
<polyline fill="none" vector-effect="none" points="2252,1056.86 2292,1056.86 " />
</g>

<g fill="#000000" fill-opacity="1" stroke="#000000" stroke-opacity="1" stroke-dasharray="10,6" stroke-dashoffset="0" stroke-width="0.666667" stroke-linecap="butt" stroke-linejoin="round" transform="matrix(0.75,0,0,0.75,0,0)"
font-family="Helvetica" font-size="14" font-weight="700" font-style="normal" 
>
<polyline fill="none" vector-effect="none" points="2252,1071.14 2292,1071.14 " />
</g>

<g fill="#212121" fill-opacity="1" stroke="#212121" stroke-opacity="1" stroke-width="1" stroke-linecap="square" stroke-linejoin="bevel" transform="matrix(0.75,0,0,0.75,1721.25,795.646)"
font-family="Helvetica" font-size="12" font-weight="400" font-style="normal" 
>
<text fill="#212121" fill-opacity="1" stroke="none" xml:space="preserve" x="0" y="0" font-family="Helvetica" font-size="12" font-weight="400" font-style="normal" 
 >y</text>
</g>

<g fill="#212121" fill-opacity="1" stroke="#212121" stroke-opacity="1" stroke-width="1" stroke-linecap="square" stroke-linejoin="bevel" transform="matrix(0.75,0,0,0.75,1721.25,806.354)"
font-family="Helvetica" font-size="12" font-weight="400" font-style="normal" 
>
<text fill="#212121" fill-opacity="1" stroke="none" xml:space="preserve" x="0" y="0" font-family="Helvetica" font-size="12" font-weight="400" font-style="normal" 
 >u</text>
</g>

<g fill="none" stroke="#212121" stroke-opacity="1" stroke-width="0.666667" stroke-linecap="butt" stroke-linejoin="miter" stroke-miterlimit="2" transform="matrix(0.75,0,0,0.75,0,0)"
font-family="Helvetica" font-size="12" font-weight="400" font-style="normal" 
>
<path vector-effect="none" fill-rule="evenodd" d="M2248,1080 L2248,1048 L2306,1048 L2306,1080 L2248,1080"/>
</g>
</g>
</svg>
