<?xml version="1.0" encoding="UTF-8" standalone="no"?>
<svg width="284.339mm" height="171.45mm"
 viewBox="0 0 806 486"
 xmlns="http://www.w3.org/2000/svg" xmlns:xlink="http://www.w3.org/1999/xlink"  version="1.2" baseProfile="tiny">
<title>Qt SVG Document</title>
<desc>MATLAB, The MathWorks, Inc. Version 25.2.0.2998904 R2025b</desc>
<defs>
</defs>
<g fill="none" stroke="black" stroke-width="1" fill-rule="evenodd" stroke-linecap="square" stroke-linejoin="bevel" >

<g fill="#ffffff" fill-opacity="1" stroke="none" transform="matrix(0.75,0,0,0.75,0,0)"
font-family="MS Shell Dlg 2" font-size="8.25" font-weight="400" font-style="normal" 
>
<path vector-effect="none" fill-rule="evenodd" d="M0,0 L1075,0 L1075,648 L0,648 L0,0"/>
</g>

<g fill="#ffffff" fill-opacity="1" stroke="none" transform="matrix(7.5e-05,0,0,7.5e-05,0,0)"
font-family="MS Shell Dlg 2" font-size="8.25" font-weight="400" font-style="normal" 
>
<path vector-effect="none" fill-rule="evenodd" d="M1.4e+06,490000 L1.4e+06,5.76e+06 L9.72e+06,5.76e+06 L9.72e+06,490000 L1.4e+06,490000"/>
</g>

<g fill="#212121" fill-opacity="0.14902" stroke="#212121" stroke-opacity="0.14902" stroke-width="0.666667" stroke-linecap="butt" stroke-linejoin="round" transform="matrix(0.75,0,0,0.75,0,0)"
font-family="MS Shell Dlg 2" font-size="8.25" font-weight="400" font-style="normal" 
>
<polyline fill="none" vector-effect="none" points="140,49 140,576 " />
<polyline fill="none" vector-effect="none" points="223.2,49 223.2,576 " />
<polyline fill="none" vector-effect="none" points="306.4,49 306.4,576 " />
<polyline fill="none" vector-effect="none" points="389.6,49 389.6,576 " />
<polyline fill="none" vector-effect="none" points="472.8,49 472.8,576 " />
<polyline fill="none" vector-effect="none" points="556,49 556,576 " />
<polyline fill="none" vector-effect="none" points="639.2,49 639.2,576 " />
<polyline fill="none" vector-effect="none" points="722.4,49 722.4,576 " />
<polyline fill="none" vector-effect="none" points="805.6,49 805.6,576 " />
<polyline fill="none" vector-effect="none" points="888.8,49 888.8,576 " />
<polyline fill="none" vector-effect="none" points="972,49 972,576 " />
<polyline fill="none" vector-effect="none" points="140,576 972,576 " />
<polyline fill="none" vector-effect="none" points="140,488.167 972,488.167 " />
<polyline fill="none" vector-effect="none" points="140,400.333 972,400.333 " />
<polyline fill="none" vector-effect="none" points="140,312.5 972,312.5 " />
<polyline fill="none" vector-effect="none" points="140,224.667 972,224.667 " />
<polyline fill="none" vector-effect="none" points="140,136.833 972,136.833 " />
<polyline fill="none" vector-effect="none" points="140,49 972,49 " />
</g>

<g fill="#212121" fill-opacity="1" stroke="#212121" stroke-opacity="1" stroke-width="1" stroke-linecap="square" stroke-linejoin="bevel" transform="matrix(0.75,0,0,0.75,398.25,458)"
font-family="Helvetica" font-size="14" font-weight="400" font-style="normal" 
>
<text fill="#212121" fill-opacity="1" stroke="none" xml:space="preserve" x="0" y="0" font-family="Helvetica" font-size="14" font-weight="400" font-style="normal" 
 >Time [s]</text>
</g>

<g fill="#212121" fill-opacity="1" stroke="#212121" stroke-opacity="1" stroke-width="0.666667" stroke-linecap="square" stroke-linejoin="round" transform="matrix(0.75,0,0,0.75,0,0)"
font-family="Helvetica" font-size="14" font-weight="400" font-style="normal" 
>
<polyline fill="none" vector-effect="none" points="140,576 972,576 " />
<polyline fill="none" vector-effect="none" points="140,576 140,567.68 " />
<polyline fill="none" vector-effect="none" points="223.2,576 223.2,567.68 " />
<polyline fill="none" vector-effect="none" points="306.4,576 306.4,567.68 " />
<polyline fill="none" vector-effect="none" points="389.6,576 389.6,567.68 " />
<polyline fill="none" vector-effect="none" points="472.8,576 472.8,567.68 " />
<polyline fill="none" vector-effect="none" points="556,576 556,567.68 " />
<polyline fill="none" vector-effect="none" points="639.2,576 639.2,567.68 " />
<polyline fill="none" vector-effect="none" points="722.4,576 722.4,567.68 " />
<polyline fill="none" vector-effect="none" points="805.6,576 805.6,567.68 " />
<polyline fill="none" vector-effect="none" points="888.8,576 888.8,567.68 " />
<polyline fill="none" vector-effect="none" points="972,576 972,567.68 " />
</g>

<g fill="#212121" fill-opacity="1" stroke="#212121" stroke-opacity="1" stroke-width="1" stroke-linecap="square" stroke-linejoin="bevel" transform="matrix(0.75,0,0,0.75,102.375,445)"
font-family="Helvetica" font-size="13" font-weight="400" font-style="normal" 
>
<text fill="#212121" fill-opacity="1" stroke="none" xml:space="preserve" x="0" y="0" font-family="Helvetica" font-size="13" font-weight="400" font-style="normal" 
 >0</text>
</g>

<g fill="#212121" fill-opacity="1" stroke="#212121" stroke-opacity="1" stroke-width="1" stroke-linecap="square" stroke-linejoin="bevel" transform="matrix(0.75,0,0,0.75,164.775,445)"
font-family="Helvetica" font-size="13" font-weight="400" font-style="normal" 
>
<text fill="#212121" fill-opacity="1" stroke="none" xml:space="preserve" x="0" y="0" font-family="Helvetica" font-size="13" font-weight="400" font-style="normal" 
 >2</text>
</g>

<g fill="#212121" fill-opacity="1" stroke="#212121" stroke-opacity="1" stroke-width="1" stroke-linecap="square" stroke-linejoin="bevel" transform="matrix(0.75,0,0,0.75,227.175,445)"
font-family="Helvetica" font-size="13" font-weight="400" font-style="normal" 
>
<text fill="#212121" fill-opacity="1" stroke="none" xml:space="preserve" x="0" y="0" font-family="Helvetica" font-size="13" font-weight="400" font-style="normal" 
 >4</text>
</g>

<g fill="#212121" fill-opacity="1" stroke="#212121" stroke-opacity="1" stroke-width="1" stroke-linecap="square" stroke-linejoin="bevel" transform="matrix(0.75,0,0,0.75,289.575,445)"
font-family="Helvetica" font-size="13" font-weight="400" font-style="normal" 
>
<text fill="#212121" fill-opacity="1" stroke="none" xml:space="preserve" x="0" y="0" font-family="Helvetica" font-size="13" font-weight="400" font-style="normal" 
 >6</text>
</g>

<g fill="#212121" fill-opacity="1" stroke="#212121" stroke-opacity="1" stroke-width="1" stroke-linecap="square" stroke-linejoin="bevel" transform="matrix(0.75,0,0,0.75,351.975,445)"
font-family="Helvetica" font-size="13" font-weight="400" font-style="normal" 
>
<text fill="#212121" fill-opacity="1" stroke="none" xml:space="preserve" x="0" y="0" font-family="Helvetica" font-size="13" font-weight="400" font-style="normal" 
 >8</text>
</g>

<g fill="#212121" fill-opacity="1" stroke="#212121" stroke-opacity="1" stroke-width="1" stroke-linecap="square" stroke-linejoin="bevel" transform="matrix(0.75,0,0,0.75,411.75,445)"
font-family="Helvetica" font-size="13" font-weight="400" font-style="normal" 
>
<text fill="#212121" fill-opacity="1" stroke="none" xml:space="preserve" x="0" y="0" font-family="Helvetica" font-size="13" font-weight="400" font-style="normal" 
 >10</text>
</g>

<g fill="#212121" fill-opacity="1" stroke="#212121" stroke-opacity="1" stroke-width="1" stroke-linecap="square" stroke-linejoin="bevel" transform="matrix(0.75,0,0,0.75,474.15,445)"
font-family="Helvetica" font-size="13" font-weight="400" font-style="normal" 
>
<text fill="#212121" fill-opacity="1" stroke="none" xml:space="preserve" x="0" y="0" font-family="Helvetica" font-size="13" font-weight="400" font-style="normal" 
 >12</text>
</g>

<g fill="#212121" fill-opacity="1" stroke="#212121" stroke-opacity="1" stroke-width="1" stroke-linecap="square" stroke-linejoin="bevel" transform="matrix(0.75,0,0,0.75,536.55,445)"
font-family="Helvetica" font-size="13" font-weight="400" font-style="normal" 
>
<text fill="#212121" fill-opacity="1" stroke="none" xml:space="preserve" x="0" y="0" font-family="Helvetica" font-size="13" font-weight="400" font-style="normal" 
 >14</text>
</g>

<g fill="#212121" fill-opacity="1" stroke="#212121" stroke-opacity="1" stroke-width="1" stroke-linecap="square" stroke-linejoin="bevel" transform="matrix(0.75,0,0,0.75,598.95,445)"
font-family="Helvetica" font-size="13" font-weight="400" font-style="normal" 
>
<text fill="#212121" fill-opacity="1" stroke="none" xml:space="preserve" x="0" y="0" font-family="Helvetica" font-size="13" font-weight="400" font-style="normal" 
 >16</text>
</g>

<g fill="#212121" fill-opacity="1" stroke="#212121" stroke-opacity="1" stroke-width="1" stroke-linecap="square" stroke-linejoin="bevel" transform="matrix(0.75,0,0,0.75,661.35,445)"
font-family="Helvetica" font-size="13" font-weight="400" font-style="normal" 
>
<text fill="#212121" fill-opacity="1" stroke="none" xml:space="preserve" x="0" y="0" font-family="Helvetica" font-size="13" font-weight="400" font-style="normal" 
 >18</text>
</g>

<g fill="#212121" fill-opacity="1" stroke="#212121" stroke-opacity="1" stroke-width="1" stroke-linecap="square" stroke-linejoin="bevel" transform="matrix(0.75,0,0,0.75,723.75,445)"
font-family="Helvetica" font-size="13" font-weight="400" font-style="normal" 
>
<text fill="#212121" fill-opacity="1" stroke="none" xml:space="preserve" x="0" y="0" font-family="Helvetica" font-size="13" font-weight="400" font-style="normal" 
 >20</text>
</g>

<g fill="#212121" fill-opacity="1" stroke="#212121" stroke-opacity="1" stroke-width="1" stroke-linecap="square" stroke-linejoin="bevel" transform="matrix(0,-0.75,0.75,0,84.5,258)"
font-family="Helvetica" font-size="14" font-weight="400" font-style="normal" 
>
<text fill="#212121" fill-opacity="1" stroke="none" xml:space="preserve" x="0" y="0" font-family="Helvetica" font-size="14" font-weight="400" font-style="normal" 
 >Amplitude</text>
</g>

<g fill="#212121" fill-opacity="1" stroke="#212121" stroke-opacity="1" stroke-width="0.666667" stroke-linecap="square" stroke-linejoin="round" transform="matrix(0.75,0,0,0.75,0,0)"
font-family="Helvetica" font-size="14" font-weight="400" font-style="normal" 
>
<polyline fill="none" vector-effect="none" points="140,576 140,49 " />
<polyline fill="none" vector-effect="none" points="140,576 148.32,576 " />
<polyline fill="none" vector-effect="none" points="140,488.167 148.32,488.167 " />
<polyline fill="none" vector-effect="none" points="140,400.333 148.32,400.333 " />
<polyline fill="none" vector-effect="none" points="140,312.5 148.32,312.5 " />
<polyline fill="none" vector-effect="none" points="140,224.667 148.32,224.667 " />
<polyline fill="none" vector-effect="none" points="140,136.833 148.32,136.833 " />
<polyline fill="none" vector-effect="none" points="140,49 148.32,49 " />
</g>

<g fill="#212121" fill-opacity="1" stroke="#212121" stroke-opacity="1" stroke-width="1" stroke-linecap="square" stroke-linejoin="bevel" transform="matrix(0.75,0,0,0.75,95.75,435.375)"
font-family="Helvetica" font-size="13" font-weight="400" font-style="normal" 
>
<text fill="#212121" fill-opacity="1" stroke="none" xml:space="preserve" x="0" y="0" font-family="Helvetica" font-size="13" font-weight="400" font-style="normal" 
 >0</text>
</g>

<g fill="#212121" fill-opacity="1" stroke="#212121" stroke-opacity="1" stroke-width="1" stroke-linecap="square" stroke-linejoin="bevel" transform="matrix(0.75,0,0,0.75,90.5,369.5)"
font-family="Helvetica" font-size="13" font-weight="400" font-style="normal" 
>
<text fill="#212121" fill-opacity="1" stroke="none" xml:space="preserve" x="0" y="0" font-family="Helvetica" font-size="13" font-weight="400" font-style="normal" 
 >10</text>
</g>

<g fill="#212121" fill-opacity="1" stroke="#212121" stroke-opacity="1" stroke-width="1" stroke-linecap="square" stroke-linejoin="bevel" transform="matrix(0.75,0,0,0.75,90.5,303.625)"
font-family="Helvetica" font-size="13" font-weight="400" font-style="normal" 
>
<text fill="#212121" fill-opacity="1" stroke="none" xml:space="preserve" x="0" y="0" font-family="Helvetica" font-size="13" font-weight="400" font-style="normal" 
 >20</text>
</g>

<g fill="#212121" fill-opacity="1" stroke="#212121" stroke-opacity="1" stroke-width="1" stroke-linecap="square" stroke-linejoin="bevel" transform="matrix(0.75,0,0,0.75,90.5,237.75)"
font-family="Helvetica" font-size="13" font-weight="400" font-style="normal" 
>
<text fill="#212121" fill-opacity="1" stroke="none" xml:space="preserve" x="0" y="0" font-family="Helvetica" font-size="13" font-weight="400" font-style="normal" 
 >30</text>
</g>

<g fill="#212121" fill-opacity="1" stroke="#212121" stroke-opacity="1" stroke-width="1" stroke-linecap="square" stroke-linejoin="bevel" transform="matrix(0.75,0,0,0.75,90.5,171.875)"
font-family="Helvetica" font-size="13" font-weight="400" font-style="normal" 
>
<text fill="#212121" fill-opacity="1" stroke="none" xml:space="preserve" x="0" y="0" font-family="Helvetica" font-size="13" font-weight="400" font-style="normal" 
 >40</text>
</g>

<g fill="#212121" fill-opacity="1" stroke="#212121" stroke-opacity="1" stroke-width="1" stroke-linecap="square" stroke-linejoin="bevel" transform="matrix(0.75,0,0,0.75,90.5,106)"
font-family="Helvetica" font-size="13" font-weight="400" font-style="normal" 
>
<text fill="#212121" fill-opacity="1" stroke="none" xml:space="preserve" x="0" y="0" font-family="Helvetica" font-size="13" font-weight="400" font-style="normal" 
 >50</text>
</g>

<g fill="#212121" fill-opacity="1" stroke="#212121" stroke-opacity="1" stroke-width="1" stroke-linecap="square" stroke-linejoin="bevel" transform="matrix(0.75,0,0,0.75,90.5,40.125)"
font-family="Helvetica" font-size="13" font-weight="400" font-style="normal" 
>
<text fill="#212121" fill-opacity="1" stroke="none" xml:space="preserve" x="0" y="0" font-family="Helvetica" font-size="13" font-weight="400" font-style="normal" 
 >60</text>
</g>

<g fill="#212121" fill-opacity="1" stroke="#212121" stroke-opacity="1" stroke-width="1" stroke-linecap="square" stroke-linejoin="bevel" transform="matrix(0.75,0,0,0.75,337.875,32.4375)"
font-family="Helvetica" font-size="14" font-weight="700" font-style="normal" 
>
<text fill="#212121" fill-opacity="1" stroke="none" xml:space="preserve" x="0" y="0" font-family="Helvetica" font-size="14" font-weight="700" font-style="normal" 
 >Output and Reference Signal</text>
</g>

<g fill="none" stroke="#0000ff" stroke-opacity="1" stroke-width="0.666667" stroke-linecap="butt" stroke-linejoin="miter" stroke-miterlimit="2" transform="matrix(0.75,0,0,0.75,0,0)"
font-family="Helvetica" font-size="14" font-weight="700" font-style="normal" 
>
<polyline fill="none" vector-effect="none" points="140,576 142.082,576 142.082,576 144.163,576 144.163,576 146.245,576 146.245,576 148.327,576 148.327,576 150.409,576 150.409,576 152.49,576 152.49,576 154.572,576 154.572,576 156.654,576 156.654,576 158.736,576 158.736,576 160.817,576 160.817,576 162.899,576 162.899,576 164.981,576 164.981,576 167.063,576 167.063,576 169.144,576 169.144,576 171.226,576 171.226,576 173.308,576 173.308,576 175.389,576 175.389,576 177.471,576 177.471,576 179.553,576 179.553,576 181.635,576 181.635,576 183.716,576 183.716,576 185.798,576 185.798,576 187.88,576 187.88,576 189.962,576 189.962,576 192.043,576 192.043,576 194.125,576 194.125,576 196.207,576 196.207,576 198.289,576 198.289,576 200.37,576 200.37,576 202.452,576 202.452,576 204.534,576 204.534,576 206.615,576 206.615,576 208.697,576 208.697,576 210.779,576 210.779,576 212.861,576 212.861,576 214.942,576 214.942,576 217.024,576 217.024,576 219.106,576 219.106,576 221.188,576 221.188,576 223.269,576 223.269,576 225.351,576 225.351,576 227.433,576 227.433,576 229.515,576 229.515,576 231.596,576 231.596,576 233.678,576 233.678,576 235.76,576 235.76,576 237.841,576 237.841,576 239.923,576 239.923,576 242.005,576 242.005,576 244.087,576 244.087,576 246.168,576 246.168,576 248.25,576 248.25,576 250.332,576 250.332,576 252.414,576 252.414,576 254.495,576 254.495,576 256.577,576 256.577,576 258.659,576 258.659,576 260.741,576 260.741,576 262.822,576 262.822,576 264.904,576 264.904,576 266.986,576 266.986,576 269.067,576 269.067,576 271.149,576 271.149,576 273.231,576 273.231,576 275.313,576 275.313,576 277.394,576 277.394,576 279.476,576 279.476,576 281.558,576 281.558,576 283.64,576 283.64,576 285.721,576 285.721,576 287.803,576 287.803,576 289.885,576 289.885,576 291.967,576 291.967,576 294.048,576 294.048,576 296.13,576 296.13,576 298.212,576 298.212,576 300.293,576 300.293,576 302.375,576 302.375,576 304.457,576 304.457,576 306.539,576 306.539,576 308.62,576 308.62,576 310.702,576 310.702,576 312.784,576 312.784,576 314.866,576 314.866,576 316.947,576 316.947,576 319.029,576 319.029,576 321.111,576 321.111,576 323.193,576 323.193,576 325.274,576 325.274,576 327.356,576 327.356,576 329.438,576 329.438,576 331.519,576 331.519,576 333.601,576 333.601,576 335.683,576 335.683,576 337.765,576 337.765,576 339.846,576 339.846,576 341.928,576 341.928,576 344.01,576 344.01,576 346.092,576 346.092,576 348.173,576 348.173,576 350.255,576 350.255,576 352.337,576 352.337,576 354.419,576 354.419,576 356.5,576 356.5,576 358.582,576 358.582,576 360.664,576 360.664,576 362.745,576 362.745,576 364.827,576 364.827,576 366.909,576 366.909,576 368.991,576 368.991,576 371.072,576 371.072,576 373.154,576 373.154,576 375.236,576 375.236,576 377.318,576 377.318,576 379.399,576 379.399,576 381.481,576 381.481,576 383.563,576 383.563,576 385.645,576 385.645,576 387.726,576 387.726,576 389.808,576 389.808,576 391.89,576 391.89,576 393.971,576 393.971,576 396.053,576 396.053,576 398.135,576 398.135,576 400.217,576 400.217,576 402.298,576 402.298,576 404.38,576 404.38,576 406.462,576 406.462,576 408.544,576 408.544,576 410.625,576 410.625,576 412.707,576 412.707,576 414.789,576 414.789,576 416.871,576 416.871,576 418.952,576 418.952,576 421.034,576 421.034,576 423.116,576 423.116,576 425.197,576 425.197,576 427.279,576 427.279,576 429.361,576 429.361,576 431.443,576 431.443,576 433.524,576 433.524,576 435.606,576 435.606,576 437.688,576 437.688,576 439.77,576 439.77,576 441.851,576 441.851,576 443.933,576 443.933,576 446.015,576 446.015,576 448.097,576 448.097,576 450.178,576 450.178,576 452.26,576 452.26,576 454.342,576 454.342,576 456.423,576 456.423,576 458.505,576 458.505,576 460.587,576 460.587,576 462.669,576 462.669,576 464.75,576 464.75,576 466.832,576 466.832,576 468.914,576 468.914,576 470.996,576 470.996,576 473.077,576 473.077,576 475.159,576 475.159,576 477.241,576 477.241,576 479.323,576 479.323,576 481.404,576 481.404,576 483.486,576 483.486,576 485.568,576 485.568,576 487.649,576 487.649,576 489.731,576 489.731,576 491.813,576 491.813,576 493.895,576 493.895,576 495.976,576 495.976,576 498.058,576 498.058,576 500.14,576 500.14,576 502.222,576 502.222,576 504.303,576 504.303,576 506.385,576 506.385,576 508.467,576 508.467,576 510.549,576 510.549,576 512.63,576 512.63,576 514.712,576 514.712,576 516.794,576 516.794,576 518.875,576 518.875,576 520.957,576 520.957,576 523.039,576 523.039,576 525.121,576 525.121,576 527.202,576 527.202,576 529.284,576 529.284,576 531.366,576 531.366,576 533.448,576 533.448,576 535.529,576 535.529,576 537.611,576 537.611,576 539.693,576 539.693,576 541.775,576 541.775,576 543.856,576 543.856,576 545.938,576 545.938,576 548.02,576 548.02,576 550.102,576 550.102,576 552.183,576 552.183,576 554.265,576 554.265,576 556.347,576 556.347,576 558.428,576 558.428,576 560.51,576 560.51,576 562.592,576 562.592,576 564.674,576 564.674,576 566.755,576 566.755,576 568.837,576 568.837,576 570.919,576 570.919,576 573.001,576 573.001,576 575.082,576 575.082,576 577.164,576 577.164,576 579.246,576 579.246,576 581.327,576 581.327,576 583.409,576 583.409,576 585.491,576 585.491,576 587.573,576 587.573,576 589.654,576 589.654,576 591.736,576 591.736,576 593.818,576 593.818,576 595.9,576 595.9,576 597.981,576 597.981,576 600.063,576 600.063,576 602.145,576 602.145,576 604.227,576 604.227,576 606.308,576 606.308,576 608.39,576 608.39,576 610.472,576 610.472,576 612.553,576 612.553,576 614.635,576 614.635,576 616.717,576 616.717,576 618.799,576 618.799,576 620.88,576 620.88,576 622.962,576 622.962,576 625.044,576 625.044,576 627.126,576 627.126,576 629.207,576 629.207,576 631.289,576 631.289,576 633.371,576 633.371,576 635.453,576 635.453,576 637.534,576 637.534,576 639.616,576 639.616,576 641.698,576 641.698,576 643.779,576 643.779,576 645.861,576 645.861,576 647.943,576 647.943,576 650.025,576 650.025,576 652.106,576 652.106,576 654.188,576 654.188,576 656.27,576 656.27,576 658.352,576 658.352,576 660.433,576 660.433,576 662.515,576 662.515,576 664.597,576 664.597,576 666.679,576 666.679,576 668.76,576 668.76,576 670.842,576 670.842,576 672.924,576 672.924,576 675.005,576 675.005,576 677.087,576 677.087,576 679.169,576 679.169,576 681.251,576 681.251,576 683.332,576 683.332,576 685.414,576 685.414,576 687.496,576 687.496,576 689.578,576 689.578,576 691.659,576 691.659,576 693.741,576 693.741,576 695.823,576 695.823,576 697.905,576 697.905,576 699.986,576 699.986,576 702.068,576 702.068,576 704.15,576 704.15,576 706.231,576 706.231,576 708.313,576 708.313,576 710.395,576 710.395,576 712.477,576 712.477,576 714.558,576 714.558,576 716.64,576 716.64,576 718.722,576 718.722,576 720.804,576 720.804,576 722.885,576 722.885,576 724.967,576 724.967,576 727.049,576 727.049,576 729.131,576 729.131,576 731.212,576 731.212,576 733.294,576 733.294,576 735.376,576 735.376,576 737.457,576 737.457,576 739.539,576 739.539,576 741.621,576 741.621,576 743.703,576 743.703,576 745.784,576 745.784,576 747.866,576 747.866,576 749.948,576 749.948,576 752.03,576 752.03,576 754.111,576 754.111,576 756.193,576 756.193,576 758.275,576 758.275,576 760.357,576 760.357,576 762.438,576 762.438,576 764.52,576 764.52,576 766.602,576 766.602,576 768.683,576 768.683,576 770.765,576 770.765,576 772.847,576 772.847,576 774.929,576 774.929,576 777.01,576 777.01,576 779.092,576 779.092,576 781.174,576 781.174,576 783.256,576 783.256,576 785.337,576 785.337,576 787.419,576 787.419,576 789.501,576 789.501,576 791.583,576 791.583,576 793.664,576 793.664,576 795.746,576 795.746,576 797.828,576 797.828,576 799.909,576 799.909,576 801.991,576 801.991,576 804.073,576 804.073,576 806.155,576 806.155,576 808.236,576 808.236,576 810.318,576 810.318,576 812.4,576 812.4,576 814.482,576 814.482,576 816.563,576 816.563,576 818.645,576 818.645,576 820.727,576 820.727,576 822.808,576 822.808,576 824.89,576 824.89,576 826.972,576 826.972,576 829.054,576 829.054,576 831.135,576 831.135,576 833.217,576 833.217,576 835.299,576 835.299,576 837.381,576 837.381,576 839.462,576 839.462,576 841.544,576 841.544,576 843.626,576 843.626,576 845.708,576 845.708,576 847.789,576 847.789,576 849.871,576 849.871,576 851.953,576 851.953,576 854.035,576 854.035,576 856.116,576 856.116,576 858.198,576 858.198,576 860.28,576 860.28,576 862.361,576 862.361,576 864.443,576 864.443,576 866.525,576 866.525,576 868.607,576 868.607,576 870.688,576 870.688,576 872.77,576 872.77,576 874.852,576 874.852,576 876.934,576 876.934,576 879.015,576 879.015,576 881.097,576 881.097,576 883.179,576 883.179,576 885.261,576 885.261,576 887.342,576 887.342,576 889.424,576 889.424,576 891.506,576 891.506,576 893.587,576 893.587,576 895.669,576 895.669,576 897.751,576 897.751,576 899.833,576 899.833,576 901.914,576 901.914,576 903.996,576 903.996,576 906.078,576 906.078,576 908.16,576 908.16,576 910.241,576 910.241,576 912.323,576 912.323,576 914.405,576 914.405,576 916.487,576 916.487,576 918.568,576 918.568,576 920.65,576 920.65,576 922.732,576 922.732,576 924.813,576 924.813,576 926.895,576 926.895,576 928.977,576 928.977,576 931.059,576 931.059,576 933.14,576 933.14,576 935.222,576 935.222,576 937.304,576 937.304,576 939.386,576 939.386,576 941.467,576 941.467,576 943.549,576 943.549,576 945.631,576 945.631,576 947.713,576 947.713,576 949.794,576 949.794,576 951.876,576 951.876,576 953.958,576 953.958,576 956.039,576 956.039,576 958.121,576 958.121,576 960.203,576 960.203,576 962.285,576 962.285,576 964.366,576 964.366,576 966.448,576 966.448,576 968.53,576 968.53,576 970.612,576 970.612,576 " />
</g>

<g fill="none" stroke="#ff0000" stroke-opacity="1" stroke-dasharray="10,6" stroke-dashoffset="0" stroke-width="0.666667" stroke-linecap="butt" stroke-linejoin="miter" stroke-miterlimit="2" transform="matrix(0.75,0,0,0.75,0,0)"
font-family="Helvetica" font-size="14" font-weight="700" font-style="normal" 
>
<polyline fill="none" vector-effect="none" points="140,136.833 142.082,136.833 142.082,136.833 144.163,136.833 144.163,136.833 146.245,136.833 146.245,136.833 148.327,136.833 148.327,136.833 150.409,136.833 150.409,136.833 152.49,136.833 152.49,136.833 154.572,136.833 154.572,136.833 156.654,136.833 156.654,136.833 158.736,136.833 158.736,136.833 160.817,136.833 160.817,136.833 162.899,136.833 162.899,136.833 164.981,136.833 164.981,136.833 167.063,136.833 167.063,136.833 169.144,136.833 169.144,136.833 171.226,136.833 171.226,136.833 173.308,136.833 173.308,136.833 175.389,136.833 175.389,136.833 177.471,136.833 177.471,136.833 179.553,136.833 179.553,136.833 181.635,136.833 181.635,136.833 183.716,136.833 183.716,136.833 185.798,136.833 185.798,136.833 187.88,136.833 187.88,136.833 189.962,136.833 189.962,136.833 192.043,136.833 192.043,136.833 194.125,136.833 194.125,136.833 196.207,136.833 196.207,136.833 198.289,136.833 198.289,136.833 200.37,136.833 200.37,136.833 202.452,136.833 202.452,136.833 204.534,136.833 204.534,136.833 206.615,136.833 206.615,136.833 208.697,136.833 208.697,136.833 210.779,136.833 210.779,136.833 212.861,136.833 212.861,136.833 214.942,136.833 214.942,136.833 217.024,136.833 217.024,136.833 219.106,136.833 219.106,136.833 221.188,136.833 221.188,136.833 223.269,136.833 223.269,136.833 225.351,136.833 225.351,136.833 227.433,136.833 227.433,136.833 229.515,136.833 229.515,136.833 231.596,136.833 231.596,136.833 233.678,136.833 233.678,136.833 235.76,136.833 235.76,136.833 237.841,136.833 237.841,136.833 239.923,136.833 239.923,136.833 242.005,136.833 242.005,136.833 244.087,136.833 244.087,136.833 246.168,136.833 246.168,136.833 248.25,136.833 248.25,136.833 250.332,136.833 250.332,136.833 252.414,136.833 252.414,136.833 254.495,136.833 254.495,136.833 256.577,136.833 256.577,136.833 258.659,136.833 258.659,136.833 260.741,136.833 260.741,136.833 262.822,136.833 262.822,136.833 264.904,136.833 264.904,136.833 266.986,136.833 266.986,136.833 269.067,136.833 269.067,136.833 271.149,136.833 271.149,136.833 273.231,136.833 273.231,136.833 275.313,136.833 275.313,136.833 277.394,136.833 277.394,136.833 279.476,136.833 279.476,136.833 281.558,136.833 281.558,136.833 283.64,136.833 283.64,136.833 285.721,136.833 285.721,136.833 287.803,136.833 287.803,136.833 289.885,136.833 289.885,136.833 291.967,136.833 291.967,136.833 294.048,136.833 294.048,136.833 296.13,136.833 296.13,136.833 298.212,136.833 298.212,136.833 300.293,136.833 300.293,136.833 302.375,136.833 302.375,136.833 304.457,136.833 304.457,136.833 306.539,136.833 306.539,136.833 308.62,136.833 308.62,136.833 310.702,136.833 310.702,136.833 312.784,136.833 312.784,136.833 314.866,136.833 314.866,136.833 316.947,136.833 316.947,136.833 319.029,136.833 319.029,136.833 321.111,136.833 321.111,136.833 323.193,136.833 323.193,136.833 325.274,136.833 325.274,136.833 327.356,136.833 327.356,136.833 329.438,136.833 329.438,136.833 331.519,136.833 331.519,136.833 333.601,136.833 333.601,136.833 335.683,136.833 335.683,136.833 337.765,136.833 337.765,136.833 339.846,136.833 339.846,136.833 341.928,136.833 341.928,136.833 344.01,136.833 344.01,136.833 346.092,136.833 346.092,224.667 348.173,224.667 348.173,224.667 350.255,224.667 350.255,224.667 352.337,224.667 352.337,224.667 354.419,224.667 354.419,224.667 356.5,224.667 356.5,224.667 358.582,224.667 358.582,224.667 360.664,224.667 360.664,224.667 362.745,224.667 362.745,224.667 364.827,224.667 364.827,224.667 366.909,224.667 366.909,224.667 368.991,224.667 368.991,224.667 371.072,224.667 371.072,224.667 373.154,224.667 373.154,224.667 375.236,224.667 375.236,224.667 377.318,224.667 377.318,224.667 379.399,224.667 379.399,224.667 381.481,224.667 381.481,224.667 383.563,224.667 383.563,224.667 385.645,224.667 385.645,224.667 387.726,224.667 387.726,224.667 389.808,224.667 389.808,224.667 391.89,224.667 391.89,224.667 393.971,224.667 393.971,224.667 396.053,224.667 396.053,224.667 398.135,224.667 398.135,224.667 400.217,224.667 400.217,224.667 402.298,224.667 402.298,224.667 404.38,224.667 404.38,224.667 406.462,224.667 406.462,224.667 408.544,224.667 408.544,224.667 410.625,224.667 410.625,224.667 412.707,224.667 412.707,224.667 414.789,224.667 414.789,224.667 416.871,224.667 416.871,224.667 418.952,224.667 418.952,224.667 421.034,224.667 421.034,224.667 423.116,224.667 423.116,224.667 425.197,224.667 425.197,224.667 427.279,224.667 427.279,224.667 429.361,224.667 429.361,224.667 431.443,224.667 431.443,224.667 433.524,224.667 433.524,224.667 435.606,224.667 435.606,224.667 437.688,224.667 437.688,224.667 439.77,224.667 439.77,224.667 441.851,224.667 441.851,224.667 443.933,224.667 443.933,224.667 446.015,224.667 446.015,224.667 448.097,224.667 448.097,224.667 450.178,224.667 450.178,224.667 452.26,224.667 452.26,224.667 454.342,224.667 454.342,224.667 456.423,224.667 456.423,224.667 458.505,224.667 458.505,224.667 460.587,224.667 460.587,224.667 462.669,224.667 462.669,224.667 464.75,224.667 464.75,224.667 466.832,224.667 466.832,224.667 468.914,224.667 468.914,224.667 470.996,224.667 470.996,224.667 473.077,224.667 473.077,224.667 475.159,224.667 475.159,224.667 477.241,224.667 477.241,224.667 479.323,224.667 479.323,224.667 481.404,224.667 481.404,224.667 483.486,224.667 483.486,224.667 485.568,224.667 485.568,224.667 487.649,224.667 487.649,224.667 489.731,224.667 489.731,224.667 491.813,224.667 491.813,224.667 493.895,224.667 493.895,224.667 495.976,224.667 495.976,224.667 498.058,224.667 498.058,224.667 500.14,224.667 500.14,224.667 502.222,224.667 502.222,224.667 504.303,224.667 504.303,224.667 506.385,224.667 506.385,224.667 508.467,224.667 508.467,224.667 510.549,224.667 510.549,224.667 512.63,224.667 512.63,224.667 514.712,224.667 514.712,224.667 516.794,224.667 516.794,224.667 518.875,224.667 518.875,224.667 520.957,224.667 520.957,224.667 523.039,224.667 523.039,224.667 525.121,224.667 525.121,224.667 527.202,224.667 527.202,224.667 529.284,224.667 529.284,224.667 531.366,224.667 531.366,224.667 533.448,224.667 533.448,224.667 535.529,224.667 535.529,224.667 537.611,224.667 537.611,224.667 539.693,224.667 539.693,224.667 541.775,224.667 541.775,224.667 543.856,224.667 543.856,224.667 545.938,224.667 545.938,224.667 548.02,224.667 548.02,224.667 550.102,224.667 550.102,224.667 552.183,224.667 552.183,224.667 554.265,224.667 554.265,224.667 556.347,224.667 556.347,224.667 558.428,224.667 558.428,224.667 560.51,224.667 560.51,224.667 562.592,224.667 562.592,224.667 564.674,224.667 564.674,224.667 566.755,224.667 566.755,224.667 568.837,224.667 568.837,224.667 570.919,224.667 570.919,224.667 573.001,224.667 573.001,224.667 575.082,224.667 575.082,224.667 577.164,224.667 577.164,224.667 579.246,224.667 579.246,224.667 581.327,224.667 581.327,224.667 583.409,224.667 583.409,224.667 585.491,224.667 585.491,224.667 587.573,224.667 587.573,224.667 589.654,224.667 589.654,224.667 591.736,224.667 591.736,224.667 593.818,224.667 593.818,224.667 595.9,224.667 595.9,224.667 597.981,224.667 597.981,224.667 600.063,224.667 600.063,224.667 602.145,224.667 602.145,224.667 604.227,224.667 604.227,224.667 606.308,224.667 606.308,224.667 608.39,224.667 608.39,224.667 610.472,224.667 610.472,224.667 612.553,224.667 612.553,224.667 614.635,224.667 614.635,224.667 616.717,224.667 616.717,224.667 618.799,224.667 618.799,224.667 620.88,224.667 620.88,224.667 622.962,224.667 622.962,224.667 625.044,224.667 625.044,224.667 627.126,224.667 627.126,224.667 629.207,224.667 629.207,224.667 631.289,224.667 631.289,224.667 633.371,224.667 633.371,224.667 635.453,224.667 635.453,224.667 637.534,224.667 637.534,224.667 639.616,224.667 639.616,224.667 641.698,224.667 641.698,224.667 643.779,224.667 643.779,224.667 645.861,224.667 645.861,224.667 647.943,224.667 647.943,224.667 650.025,224.667 650.025,224.667 652.106,224.667 652.106,224.667 654.188,224.667 654.188,224.667 656.27,224.667 656.27,224.667 658.352,224.667 658.352,49 660.433,49 660.433,49 662.515,49 662.515,49 664.597,49 664.597,49 666.679,49 666.679,49 668.76,49 668.76,49 670.842,49 670.842,49 672.924,49 672.924,49 675.005,49 675.005,49 677.087,49 677.087,49 679.169,49 679.169,49 681.251,49 681.251,49 683.332,49 683.332,49 685.414,49 685.414,49 687.496,49 687.496,49 689.578,49 689.578,49 691.659,49 691.659,49 693.741,49 693.741,49 695.823,49 695.823,49 697.905,49 697.905,49 699.986,49 699.986,49 702.068,49 702.068,49 704.15,49 704.15,49 706.231,49 706.231,49 708.313,49 708.313,49 710.395,49 710.395,49 712.477,49 712.477,49 714.558,49 714.558,49 716.64,49 716.64,49 718.722,49 718.722,49 720.804,49 720.804,49 722.885,49 722.885,49 724.967,49 724.967,49 727.049,49 727.049,49 729.131,49 729.131,49 731.212,49 731.212,49 733.294,49 733.294,49 735.376,49 735.376,49 737.457,49 737.457,49 739.539,49 739.539,49 741.621,49 741.621,49 743.703,49 743.703,49 745.784,49 745.784,49 747.866,49 747.866,49 749.948,49 749.948,49 752.03,49 752.03,49 754.111,49 754.111,49 756.193,49 756.193,49 758.275,49 758.275,49 760.357,49 760.357,49 762.438,49 762.438,49 764.52,49 764.52,49 766.602,49 766.602,49 768.683,49 768.683,49 770.765,49 770.765,49 772.847,49 772.847,49 774.929,49 774.929,49 777.01,49 777.01,49 779.092,49 779.092,49 781.174,49 781.174,49 783.256,49 783.256,49 785.337,49 785.337,49 787.419,49 787.419,49 789.501,49 789.501,49 791.583,49 791.583,49 793.664,49 793.664,49 795.746,49 795.746,49 797.828,49 797.828,49 799.909,49 799.909,49 801.991,49 801.991,49 804.073,49 804.073,49 806.155,49 806.155,49 808.236,49 808.236,49 810.318,49 810.318,49 812.4,49 812.4,49 814.482,49 814.482,49 816.563,49 816.563,49 818.645,49 818.645,49 820.727,49 820.727,49 822.808,49 822.808,49 824.89,49 824.89,49 826.972,49 826.972,49 829.054,49 829.054,49 831.135,49 831.135,49 833.217,49 833.217,49 835.299,49 835.299,49 837.381,49 837.381,49 839.462,49 839.462,49 841.544,49 841.544,49 843.626,49 843.626,49 845.708,49 845.708,49 847.789,49 847.789,49 849.871,49 849.871,49 851.953,49 851.953,49 854.035,49 854.035,49 856.116,49 856.116,49 858.198,49 858.198,49 860.28,49 860.28,49 862.361,49 862.361,49 864.443,49 864.443,49 866.525,49 866.525,49 868.607,49 868.607,49 870.688,49 870.688,49 872.77,49 872.77,49 874.852,49 874.852,49 876.934,49 876.934,49 879.015,49 879.015,49 881.097,49 881.097,49 883.179,49 883.179,49 885.261,49 885.261,49 887.342,49 887.342,49 889.424,49 889.424,49 891.506,49 891.506,49 893.587,49 893.587,49 895.669,49 895.669,49 897.751,49 897.751,49 899.833,49 899.833,49 901.914,49 901.914,49 903.996,49 903.996,49 906.078,49 906.078,49 908.16,49 908.16,49 910.241,49 910.241,49 912.323,49 912.323,49 914.405,49 914.405,49 916.487,49 916.487,49 918.568,49 918.568,49 920.65,49 920.65,49 922.732,49 922.732,49 924.813,49 924.813,49 926.895,49 926.895,49 928.977,49 928.977,49 931.059,49 931.059,49 933.14,49 933.14,49 935.222,49 935.222,49 937.304,49 937.304,49 939.386,49 939.386,49 941.467,49 941.467,49 943.549,49 943.549,49 945.631,49 945.631,49 947.713,49 947.713,49 949.794,49 949.794,49 951.876,49 951.876,49 953.958,49 953.958,49 956.039,49 956.039,49 958.121,49 958.121,49 960.203,49 960.203,49 962.285,49 962.285,49 964.366,49 964.366,49 966.448,49 966.448,49 968.53,49 968.53,49 970.612,49 970.612,49 " />
</g>

<g fill="#ffffff" fill-opacity="1" stroke="none" transform="matrix(7.5e-05,0,0,7.5e-05,0,0)"
font-family="Helvetica" font-size="14" font-weight="700" font-style="normal" 
>
<path vector-effect="none" fill-rule="evenodd" d="M8.54e+06,600000 L8.54e+06,920000 L9.61e+06,920000 L9.61e+06,600000 L8.54e+06,600000"/>
</g>

<g fill="#0000ff" fill-opacity="1" stroke="#0000ff" stroke-opacity="1" stroke-width="0.666667" stroke-linecap="butt" stroke-linejoin="round" transform="matrix(0.75,0,0,0.75,0,0)"
font-family="Helvetica" font-size="14" font-weight="700" font-style="normal" 
>
<polyline fill="none" vector-effect="none" points="858,68.8615 898,68.8615 " />
</g>

<g fill="#ff0000" fill-opacity="1" stroke="#ff0000" stroke-opacity="1" stroke-dasharray="10,6" stroke-dashoffset="0" stroke-width="0.666667" stroke-linecap="butt" stroke-linejoin="round" transform="matrix(0.75,0,0,0.75,0,0)"
font-family="Helvetica" font-size="14" font-weight="700" font-style="normal" 
>
<polyline fill="none" vector-effect="none" points="858,83.1385 898,83.1385 " />
</g>

<g fill="#212121" fill-opacity="1" stroke="#212121" stroke-opacity="1" stroke-width="1" stroke-linecap="square" stroke-linejoin="bevel" transform="matrix(0.75,0,0,0.75,675.75,54.6462)"
font-family="Helvetica" font-size="12" font-weight="400" font-style="normal" 
>
<text fill="#212121" fill-opacity="1" stroke="none" xml:space="preserve" x="0" y="0" font-family="Helvetica" font-size="12" font-weight="400" font-style="normal" 
 >Output</text>
</g>

<g fill="#212121" fill-opacity="1" stroke="#212121" stroke-opacity="1" stroke-width="1" stroke-linecap="square" stroke-linejoin="bevel" transform="matrix(0.75,0,0,0.75,675.75,65.3538)"
font-family="Helvetica" font-size="12" font-weight="400" font-style="normal" 
>
<text fill="#212121" fill-opacity="1" stroke="none" xml:space="preserve" x="0" y="0" font-family="Helvetica" font-size="12" font-weight="400" font-style="normal" 
 >Reference</text>
</g>

<g fill="none" stroke="#212121" stroke-opacity="1" stroke-width="0.666667" stroke-linecap="butt" stroke-linejoin="miter" stroke-miterlimit="2" transform="matrix(0.75,0,0,0.75,0,0)"
font-family="Helvetica" font-size="12" font-weight="400" font-style="normal" 
>
<path vector-effect="none" fill-rule="evenodd" d="M854,92 L854,60 L961,60 L961,92 L854,92"/>
</g>
</g>
</svg>
